<svg width="94" height="93" viewBox="0 0 94 93" fill="none" xmlns="http://www.w3.org/2000/svg">
<path d="M60.5374 4.10156V7.9584H82.1357L46.8456 36.499L25.8259 23.0001L5.38465 37.2704L7.69875 40.3558L25.8259 27.6283L47.2313 41.1272L85.6069 10.0797V33.0278H89.4637V4.10156H60.5374ZM4.61328 50.3836H8.47012V88.952H4.61328V50.3836ZM18.1122 42.6699H21.969V88.952H18.1122V42.6699ZM85.6069 50.3836H89.4637V88.952H85.6069V50.3836ZM72.1079 42.6699H75.9648V88.952H72.1079V42.6699ZM58.609 50.3836H62.4658V88.952H58.609V50.3836ZM45.1101 61.9541H48.9669V88.952H45.1101V61.9541ZM31.6111 50.3836H35.468V88.952H31.6111V50.3836Z" fill="#147469"/>
</svg>
