<svg width="481" height="497" viewBox="0 0 481 497" fill="none" xmlns="http://www.w3.org/2000/svg">
<g filter="url(#filter0_d_446_1011)">
<path d="M82.001 77.136C81.049 77.136 80.2613 77.0793 79.638 76.966C79.026 76.8527 78.5443 76.6657 78.193 76.405C77.8417 76.133 77.5867 75.7703 77.428 75.317C77.2693 74.8523 77.1673 74.28 77.122 73.6C77.0767 72.92 77.054 72.104 77.054 71.152C77.054 70.2 77.0767 69.384 77.122 68.704C77.1673 68.024 77.2693 67.4573 77.428 67.004C77.5867 66.5393 77.8417 66.1767 78.193 65.916C78.5443 65.644 79.026 65.4513 79.638 65.338C80.2613 65.2247 81.049 65.168 82.001 65.168C82.953 65.168 83.735 65.2247 84.347 65.338C84.9703 65.4513 85.4577 65.644 85.809 65.916C86.1603 66.1767 86.4153 66.5393 86.574 67.004C86.744 67.4573 86.8517 68.024 86.897 68.704C86.9423 69.384 86.965 70.2 86.965 71.152C86.965 72.104 86.9423 72.92 86.897 73.6C86.8517 74.28 86.744 74.8523 86.574 75.317C86.4153 75.7703 86.1603 76.133 85.809 76.405C85.4577 76.6657 84.9703 76.8527 84.347 76.966C83.735 77.0793 82.953 77.136 82.001 77.136ZM82.001 75.164C82.4997 75.164 82.902 75.147 83.208 75.113C83.5253 75.079 83.7747 74.9997 83.956 74.875C84.1373 74.7503 84.2677 74.5463 84.347 74.263C84.4377 73.9797 84.4943 73.5887 84.517 73.09C84.5397 72.5913 84.551 71.9453 84.551 71.152C84.551 70.3587 84.5397 69.7127 84.517 69.214C84.4943 68.7153 84.4377 68.3243 84.347 68.041C84.2677 67.7577 84.1373 67.5537 83.956 67.429C83.7747 67.3043 83.5253 67.225 83.208 67.191C82.902 67.157 82.4997 67.14 82.001 67.14C81.5137 67.14 81.1113 67.157 80.794 67.191C80.488 67.225 80.2443 67.3043 80.063 67.429C79.8817 67.5537 79.7457 67.7577 79.655 68.041C79.5757 68.3243 79.5247 68.7153 79.502 69.214C79.4793 69.7127 79.468 70.3587 79.468 71.152C79.468 71.9453 79.4793 72.5913 79.502 73.09C79.5247 73.5887 79.5757 73.9797 79.655 74.263C79.7457 74.5463 79.8817 74.7503 80.063 74.875C80.2443 74.9997 80.488 75.079 80.794 75.113C81.1113 75.147 81.5137 75.164 82.001 75.164ZM92.0755 77.136C91.3842 77.136 90.8119 77.0737 90.3585 76.949C89.9165 76.8243 89.5595 76.643 89.2875 76.405C89.0269 76.167 88.8342 75.8723 88.7095 75.521C88.5849 75.1583 88.5055 74.739 88.4715 74.263C88.4375 73.7757 88.4205 73.2373 88.4205 72.648C88.4205 72.0813 88.4375 71.5657 88.4715 71.101C88.5169 70.625 88.6075 70.2057 88.7435 69.843C88.8795 69.4803 89.0779 69.18 89.3385 68.942C89.5992 68.6927 89.9505 68.5057 90.3925 68.381C90.8345 68.2563 91.3899 68.194 92.0585 68.194C92.4892 68.194 92.9312 68.2167 93.3845 68.262C93.8379 68.3073 94.2232 68.3697 94.5405 68.449V70.149C94.3025 70.1037 94.0022 70.0697 93.6395 70.047C93.2769 70.0243 92.9425 70.013 92.6365 70.013C92.1945 70.013 91.8432 70.047 91.5825 70.115C91.3332 70.183 91.1405 70.3133 91.0045 70.506C90.8799 70.6873 90.7949 70.9537 90.7495 71.305C90.7042 71.6563 90.6815 72.1097 90.6815 72.665C90.6815 73.2317 90.7042 73.6907 90.7495 74.042C90.7949 74.3933 90.8855 74.6653 91.0215 74.858C91.1575 75.0393 91.3559 75.164 91.6165 75.232C91.8885 75.2887 92.2399 75.317 92.6705 75.317C92.9425 75.317 93.2485 75.3057 93.5885 75.283C93.9399 75.2603 94.2799 75.232 94.6085 75.198V76.881C94.2912 76.9603 93.9002 77.0227 93.4355 77.068C92.9709 77.1133 92.5175 77.136 92.0755 77.136ZM96.8951 77V70.149H95.2291V68.33H96.8951V65.814H99.1561V68.33H101.128V70.149H99.1561V77H96.8951ZM105.699 77V75.47C105.699 74.8127 105.716 74.2573 105.75 73.804C105.784 73.3393 105.864 72.9483 105.988 72.631C106.124 72.3137 106.323 72.0417 106.583 71.815C106.855 71.5883 107.229 71.3787 107.705 71.186L110.391 70.098C110.754 69.9393 111.026 69.8033 111.207 69.69C111.389 69.5653 111.508 69.4123 111.564 69.231C111.621 69.0497 111.649 68.806 111.649 68.5C111.649 68.092 111.576 67.7917 111.428 67.599C111.292 67.395 111.049 67.2703 110.697 67.225C110.357 67.1683 109.87 67.14 109.235 67.14C108.986 67.14 108.674 67.1513 108.3 67.174C107.926 67.1967 107.535 67.225 107.127 67.259C106.719 67.293 106.323 67.3327 105.937 67.378V65.525C106.289 65.457 106.697 65.4003 107.161 65.355C107.626 65.2983 108.102 65.253 108.589 65.219C109.088 65.185 109.547 65.168 109.966 65.168C110.533 65.168 111.06 65.202 111.547 65.27C112.046 65.338 112.482 65.4797 112.856 65.695C113.23 65.9103 113.525 66.2277 113.74 66.647C113.956 67.0663 114.063 67.633 114.063 68.347C114.063 69.0497 113.984 69.6163 113.825 70.047C113.678 70.4777 113.451 70.8233 113.145 71.084C112.839 71.3447 112.46 71.5657 112.006 71.747L108.946 72.971C108.674 73.073 108.47 73.1863 108.334 73.311C108.21 73.4243 108.125 73.5773 108.079 73.77C108.045 73.9513 108.028 74.2007 108.028 74.518V75.011H114.063V77H105.699ZM120.233 77.136C119.36 77.136 118.641 77.085 118.074 76.983C117.507 76.8697 117.06 76.6827 116.731 76.422C116.402 76.1613 116.159 75.8043 116 75.351C115.841 74.8977 115.739 74.3253 115.694 73.634C115.66 72.9427 115.643 72.1153 115.643 71.152C115.643 70.1887 115.66 69.3613 115.694 68.67C115.739 67.9787 115.841 67.4063 116 66.953C116.159 66.4997 116.402 66.1427 116.731 65.882C117.06 65.6213 117.507 65.44 118.074 65.338C118.641 65.2247 119.36 65.168 120.233 65.168C121.117 65.168 121.842 65.2247 122.409 65.338C122.976 65.44 123.423 65.6213 123.752 65.882C124.081 66.1427 124.324 66.4997 124.483 66.953C124.642 67.4063 124.738 67.9787 124.772 68.67C124.817 69.3613 124.84 70.1887 124.84 71.152C124.84 72.1153 124.817 72.9427 124.772 73.634C124.738 74.3253 124.642 74.8977 124.483 75.351C124.324 75.8043 124.081 76.1613 123.752 76.422C123.423 76.6827 122.976 76.8697 122.409 76.983C121.842 77.085 121.117 77.136 120.233 77.136ZM120.233 75.164C120.664 75.164 121.015 75.147 121.287 75.113C121.559 75.079 121.769 74.9997 121.916 74.875C122.075 74.7503 122.188 74.5463 122.256 74.263C122.335 73.9797 122.386 73.5887 122.409 73.09C122.432 72.58 122.443 71.934 122.443 71.152C122.443 70.37 122.432 69.7297 122.409 69.231C122.386 68.721 122.335 68.3243 122.256 68.041C122.188 67.7577 122.075 67.5537 121.916 67.429C121.769 67.3043 121.559 67.225 121.287 67.191C121.015 67.157 120.669 67.14 120.25 67.14C119.831 67.14 119.479 67.157 119.196 67.191C118.924 67.225 118.709 67.3043 118.55 67.429C118.403 67.5537 118.289 67.7577 118.21 68.041C118.142 68.3243 118.097 68.721 118.074 69.231C118.051 69.7297 118.04 70.37 118.04 71.152C118.04 71.934 118.051 72.58 118.074 73.09C118.097 73.5887 118.142 73.9797 118.21 74.263C118.289 74.5463 118.403 74.7503 118.55 74.875C118.709 74.9997 118.924 75.079 119.196 75.113C119.468 75.147 119.814 75.164 120.233 75.164ZM126.414 77V75.47C126.414 74.8127 126.431 74.2573 126.465 73.804C126.499 73.3393 126.578 72.9483 126.703 72.631C126.839 72.3137 127.037 72.0417 127.298 71.815C127.57 71.5883 127.944 71.3787 128.42 71.186L131.106 70.098C131.469 69.9393 131.741 69.8033 131.922 69.69C132.103 69.5653 132.222 69.4123 132.279 69.231C132.336 69.0497 132.364 68.806 132.364 68.5C132.364 68.092 132.29 67.7917 132.143 67.599C132.007 67.395 131.763 67.2703 131.412 67.225C131.072 67.1683 130.585 67.14 129.95 67.14C129.701 67.14 129.389 67.1513 129.015 67.174C128.641 67.1967 128.25 67.225 127.842 67.259C127.434 67.293 127.037 67.3327 126.652 67.378V65.525C127.003 65.457 127.411 65.4003 127.876 65.355C128.341 65.2983 128.817 65.253 129.304 65.219C129.803 65.185 130.262 65.168 130.681 65.168C131.248 65.168 131.775 65.202 132.262 65.27C132.761 65.338 133.197 65.4797 133.571 65.695C133.945 65.9103 134.24 66.2277 134.455 66.647C134.67 67.0663 134.778 67.633 134.778 68.347C134.778 69.0497 134.699 69.6163 134.54 70.047C134.393 70.4777 134.166 70.8233 133.86 71.084C133.554 71.3447 133.174 71.5657 132.721 71.747L129.661 72.971C129.389 73.073 129.185 73.1863 129.049 73.311C128.924 73.4243 128.839 73.5773 128.794 73.77C128.76 73.9513 128.743 74.2007 128.743 74.518V75.011H134.778V77H126.414ZM141.73 77V74.535H135.95V72.784L140.251 65.304H142.869L138.551 72.563H141.764L142.41 69.35H144.127V72.563H145.691V74.535H144.127V77H141.73Z" fill="black"/>
<path d="M83.339 109.104C83.0183 109.104 82.6673 109.095 82.286 109.078C81.9047 109.061 81.532 109.039 81.168 109.013C80.8127 108.987 80.4877 108.957 80.193 108.922V107.973C80.505 107.999 80.83 108.025 81.168 108.051C81.5147 108.077 81.8483 108.099 82.169 108.116C82.4983 108.133 82.7757 108.142 83.001 108.142C83.4603 108.142 83.8287 108.125 84.106 108.09C84.3833 108.047 84.6173 107.969 84.808 107.856C84.938 107.778 85.0333 107.674 85.094 107.544C85.1547 107.414 85.1893 107.262 85.198 107.089C85.2153 106.916 85.224 106.729 85.224 106.53C85.224 106.235 85.2153 105.997 85.198 105.815C85.1807 105.633 85.133 105.494 85.055 105.399C84.9857 105.295 84.8687 105.221 84.704 105.178C84.5393 105.126 84.3183 105.087 84.041 105.061L81.818 104.814C81.402 104.762 81.0683 104.675 80.817 104.554C80.5657 104.424 80.375 104.264 80.245 104.073C80.1237 103.874 80.0413 103.64 79.998 103.371C79.9547 103.094 79.933 102.786 79.933 102.448C79.933 101.902 80.0023 101.464 80.141 101.135C80.2883 100.806 80.5007 100.554 80.778 100.381C81.0553 100.208 81.389 100.095 81.779 100.043C82.1777 99.9823 82.6327 99.952 83.144 99.952C83.4733 99.952 83.8113 99.9607 84.158 99.978C84.5047 99.9953 84.8297 100.021 85.133 100.056C85.445 100.082 85.7007 100.117 85.9 100.16V101.083C85.6747 101.048 85.4147 101.018 85.12 100.992C84.8253 100.966 84.522 100.949 84.21 100.94C83.9067 100.923 83.6163 100.914 83.339 100.914C82.8623 100.914 82.4767 100.936 82.182 100.979C81.8873 101.022 81.6533 101.1 81.48 101.213C81.2893 101.326 81.168 101.486 81.116 101.694C81.0727 101.893 81.051 102.136 81.051 102.422C81.051 102.76 81.0727 103.024 81.116 103.215C81.168 103.397 81.272 103.527 81.428 103.605C81.5927 103.674 81.8353 103.726 82.156 103.761L84.327 104.008C84.639 104.034 84.912 104.077 85.146 104.138C85.3887 104.19 85.5967 104.281 85.77 104.411C85.9433 104.541 86.0733 104.727 86.16 104.97C86.212 105.091 86.251 105.226 86.277 105.373C86.303 105.52 86.3203 105.685 86.329 105.867C86.3463 106.04 86.355 106.235 86.355 106.452C86.355 106.946 86.3073 107.358 86.212 107.687C86.1167 108.008 85.9823 108.263 85.809 108.454C85.6357 108.645 85.4233 108.788 85.172 108.883C84.9207 108.978 84.639 109.039 84.327 109.065C84.0237 109.091 83.6943 109.104 83.339 109.104ZM91.8401 109.104C91.2248 109.104 90.7091 109.069 90.2931 109C89.8858 108.922 89.5564 108.796 89.3051 108.623C89.0538 108.45 88.8631 108.211 88.7331 107.908C88.6031 107.596 88.5164 107.21 88.4731 106.751C88.4298 106.292 88.4081 105.737 88.4081 105.087V100.056H89.5261V105.529C89.5261 106.075 89.5478 106.517 89.5911 106.855C89.6344 107.193 89.7254 107.457 89.8641 107.648C90.0114 107.839 90.2411 107.969 90.5531 108.038C90.8651 108.107 91.2941 108.142 91.8401 108.142C92.3861 108.142 92.8108 108.107 93.1141 108.038C93.4261 107.969 93.6514 107.839 93.7901 107.648C93.9374 107.457 94.0284 107.193 94.0631 106.855C94.0978 106.517 94.1151 106.075 94.1151 105.529V100.056H95.2331V105.087C95.2331 105.737 95.2114 106.292 95.1681 106.751C95.1334 107.21 95.0511 107.596 94.9211 107.908C94.7998 108.211 94.6134 108.45 94.3621 108.623C94.1108 108.796 93.7771 108.922 93.3611 109C92.9538 109.069 92.4468 109.104 91.8401 109.104ZM97.7292 109V100.056H98.8732L103.514 106.907H103.566V100.056H104.645V109H103.566L98.8602 102.019H98.8082V109H97.7292Z" fill="#3C3C43"/>
<path d="M127.996 109V100.056H129.504L132.559 107.18H132.624L135.666 100.056H137.174V109H136.082V101.85H136.03L132.975 109H132.156L129.101 101.85H129.049V109H127.996ZM143.131 109.104C142.438 109.104 141.861 109.069 141.402 109C140.951 108.922 140.592 108.788 140.323 108.597C140.063 108.406 139.872 108.142 139.751 107.804C139.63 107.457 139.552 107.02 139.517 106.491C139.482 105.954 139.465 105.299 139.465 104.528C139.465 103.757 139.482 103.107 139.517 102.578C139.552 102.041 139.63 101.603 139.751 101.265C139.872 100.918 140.063 100.65 140.323 100.459C140.592 100.268 140.951 100.138 141.402 100.069C141.861 99.991 142.438 99.952 143.131 99.952C143.824 99.952 144.396 99.991 144.847 100.069C145.306 100.138 145.666 100.268 145.926 100.459C146.195 100.65 146.39 100.918 146.511 101.265C146.632 101.603 146.71 102.041 146.745 102.578C146.78 103.107 146.797 103.757 146.797 104.528C146.797 105.299 146.78 105.954 146.745 106.491C146.71 107.02 146.632 107.457 146.511 107.804C146.39 108.142 146.195 108.406 145.926 108.597C145.666 108.788 145.306 108.922 144.847 109C144.396 109.069 143.824 109.104 143.131 109.104ZM143.131 108.142C143.608 108.142 144.002 108.129 144.314 108.103C144.626 108.068 144.873 107.995 145.055 107.882C145.237 107.769 145.376 107.587 145.471 107.336C145.566 107.076 145.623 106.721 145.64 106.27C145.666 105.819 145.679 105.239 145.679 104.528C145.679 103.817 145.666 103.237 145.64 102.786C145.623 102.335 145.566 101.984 145.471 101.733C145.376 101.473 145.237 101.287 145.055 101.174C144.873 101.061 144.626 100.992 144.314 100.966C144.002 100.931 143.608 100.914 143.131 100.914C142.654 100.914 142.26 100.931 141.948 100.966C141.645 100.992 141.398 101.061 141.207 101.174C141.025 101.287 140.886 101.473 140.791 101.733C140.704 101.984 140.648 102.335 140.622 102.786C140.596 103.237 140.583 103.817 140.583 104.528C140.583 105.239 140.596 105.819 140.622 106.27C140.648 106.721 140.704 107.076 140.791 107.336C140.886 107.587 141.025 107.769 141.207 107.882C141.398 107.995 141.645 108.068 141.948 108.103C142.26 108.129 142.654 108.142 143.131 108.142ZM149.095 109V100.056H150.239L154.88 106.907H154.932V100.056H156.011V109H154.932L150.226 102.019H150.174V109H149.095Z" fill="#3C3C43"/>
<path d="M182.416 109V101.044H179.595V100.056H186.368V101.044H183.534V109H182.416ZM191.373 109.104C190.758 109.104 190.242 109.069 189.826 109C189.419 108.922 189.09 108.796 188.838 108.623C188.587 108.45 188.396 108.211 188.266 107.908C188.136 107.596 188.05 107.21 188.006 106.751C187.963 106.292 187.941 105.737 187.941 105.087V100.056H189.059V105.529C189.059 106.075 189.081 106.517 189.124 106.855C189.168 107.193 189.259 107.457 189.397 107.648C189.545 107.839 189.774 107.969 190.086 108.038C190.398 108.107 190.827 108.142 191.373 108.142C191.919 108.142 192.344 108.107 192.647 108.038C192.959 107.969 193.185 107.839 193.323 107.648C193.471 107.457 193.562 107.193 193.596 106.855C193.631 106.517 193.648 106.075 193.648 105.529V100.056H194.766V105.087C194.766 105.737 194.745 106.292 194.701 106.751C194.667 107.21 194.584 107.596 194.454 107.908C194.333 108.211 194.147 108.45 193.895 108.623C193.644 108.796 193.31 108.922 192.894 109C192.487 109.069 191.98 109.104 191.373 109.104ZM197.262 109V100.056H203.073V101.018H198.38V103.995H202.462V104.97H198.38V108.038H203.073V109H197.262Z" fill="#3C3C43"/>
<path d="M228.584 109L226.153 100.056H227.297L229.286 107.544H229.364L231.548 100.056H232.718L234.915 107.544H234.993L236.93 100.056H238.048L235.617 109H234.291L232.133 101.759H232.081L229.923 109H228.584ZM239.82 109V100.056H245.631V101.018H240.938V103.995H245.02V104.97H240.938V108.038H245.631V109H239.82ZM247.653 109V100.056H250.487C251.223 100.056 251.826 100.091 252.294 100.16C252.762 100.229 253.13 100.355 253.399 100.537C253.676 100.719 253.88 100.979 254.01 101.317C254.14 101.655 254.222 102.084 254.257 102.604C254.291 103.124 254.309 103.765 254.309 104.528C254.309 105.291 254.291 105.932 254.257 106.452C254.222 106.972 254.14 107.401 254.01 107.739C253.88 108.077 253.676 108.337 253.399 108.519C253.13 108.701 252.762 108.827 252.294 108.896C251.826 108.965 251.223 109 250.487 109H247.653ZM248.771 108.038H250.305C250.851 108.038 251.301 108.025 251.657 107.999C252.012 107.973 252.294 107.908 252.502 107.804C252.71 107.691 252.861 107.514 252.957 107.271C253.052 107.02 253.113 106.673 253.139 106.231C253.173 105.789 253.191 105.221 253.191 104.528C253.191 103.835 253.173 103.271 253.139 102.838C253.113 102.396 253.048 102.049 252.944 101.798C252.848 101.547 252.697 101.369 252.489 101.265C252.281 101.152 251.999 101.083 251.644 101.057C251.297 101.031 250.851 101.018 250.305 101.018H248.771V108.038Z" fill="#3C3C43"/>
<path d="M280.578 109V101.044H277.757V100.056H284.53V101.044H281.696V109H280.578ZM286.22 109V100.056H287.338V103.995H292.018V100.056H293.136V109H292.018V104.983H287.338V109H286.22ZM299.044 109.104C298.429 109.104 297.913 109.069 297.497 109C297.09 108.922 296.761 108.796 296.509 108.623C296.258 108.45 296.067 108.211 295.937 107.908C295.807 107.596 295.721 107.21 295.677 106.751C295.634 106.292 295.612 105.737 295.612 105.087V100.056H296.73V105.529C296.73 106.075 296.752 106.517 296.795 106.855C296.839 107.193 296.93 107.457 297.068 107.648C297.216 107.839 297.445 107.969 297.757 108.038C298.069 108.107 298.498 108.142 299.044 108.142C299.59 108.142 300.015 108.107 300.318 108.038C300.63 107.969 300.856 107.839 300.994 107.648C301.142 107.457 301.233 107.193 301.267 106.855C301.302 106.517 301.319 106.075 301.319 105.529V100.056H302.437V105.087C302.437 105.737 302.416 106.292 302.372 106.751C302.338 107.21 302.255 107.596 302.125 107.908C302.004 108.211 301.818 108.45 301.566 108.623C301.315 108.796 300.981 108.922 300.565 109C300.158 109.069 299.651 109.104 299.044 109.104Z" fill="#3C3C43"/>
<path d="M330.841 109V100.056H336.392V101.018H331.959V104.203H335.911V105.165H331.959V109H330.841ZM338.191 109V100.056H342.299C342.862 100.056 343.309 100.125 343.638 100.264C343.976 100.394 344.223 100.585 344.379 100.836C344.544 101.079 344.652 101.365 344.704 101.694C344.756 102.023 344.782 102.374 344.782 102.747C344.782 103.068 344.752 103.401 344.691 103.748C344.639 104.086 344.513 104.394 344.314 104.671C344.123 104.948 343.82 105.152 343.404 105.282L344.912 109H343.716L342.234 105.243L342.546 105.399C342.485 105.416 342.412 105.429 342.325 105.438C342.238 105.447 342.121 105.451 341.974 105.451H339.309V109H338.191ZM339.309 104.476H341.818C342.251 104.476 342.589 104.441 342.832 104.372C343.083 104.303 343.265 104.194 343.378 104.047C343.499 103.9 343.577 103.722 343.612 103.514C343.647 103.297 343.664 103.042 343.664 102.747C343.664 102.452 343.647 102.201 343.612 101.993C343.586 101.776 343.517 101.599 343.404 101.46C343.3 101.313 343.127 101.204 342.884 101.135C342.65 101.057 342.325 101.018 341.909 101.018H339.309V104.476ZM347.04 109V100.056H348.158V109H347.04Z" fill="#3C3C43"/>
<path d="M381.426 109.104C381.105 109.104 380.754 109.095 380.373 109.078C379.992 109.061 379.619 109.039 379.255 109.013C378.9 108.987 378.575 108.957 378.28 108.922V107.973C378.592 107.999 378.917 108.025 379.255 108.051C379.602 108.077 379.935 108.099 380.256 108.116C380.585 108.133 380.863 108.142 381.088 108.142C381.547 108.142 381.916 108.125 382.193 108.09C382.47 108.047 382.704 107.969 382.895 107.856C383.025 107.778 383.12 107.674 383.181 107.544C383.242 107.414 383.276 107.262 383.285 107.089C383.302 106.916 383.311 106.729 383.311 106.53C383.311 106.235 383.302 105.997 383.285 105.815C383.268 105.633 383.22 105.494 383.142 105.399C383.073 105.295 382.956 105.221 382.791 105.178C382.626 105.126 382.405 105.087 382.128 105.061L379.905 104.814C379.489 104.762 379.155 104.675 378.904 104.554C378.653 104.424 378.462 104.264 378.332 104.073C378.211 103.874 378.128 103.64 378.085 103.371C378.042 103.094 378.02 102.786 378.02 102.448C378.02 101.902 378.089 101.464 378.228 101.135C378.375 100.806 378.588 100.554 378.865 100.381C379.142 100.208 379.476 100.095 379.866 100.043C380.265 99.9823 380.72 99.952 381.231 99.952C381.56 99.952 381.898 99.9607 382.245 99.978C382.592 99.9953 382.917 100.021 383.22 100.056C383.532 100.082 383.788 100.117 383.987 100.16V101.083C383.762 101.048 383.502 101.018 383.207 100.992C382.912 100.966 382.609 100.949 382.297 100.94C381.994 100.923 381.703 100.914 381.426 100.914C380.949 100.914 380.564 100.936 380.269 100.979C379.974 101.022 379.74 101.1 379.567 101.213C379.376 101.326 379.255 101.486 379.203 101.694C379.16 101.893 379.138 102.136 379.138 102.422C379.138 102.76 379.16 103.024 379.203 103.215C379.255 103.397 379.359 103.527 379.515 103.605C379.68 103.674 379.922 103.726 380.243 103.761L382.414 104.008C382.726 104.034 382.999 104.077 383.233 104.138C383.476 104.19 383.684 104.281 383.857 104.411C384.03 104.541 384.16 104.727 384.247 104.97C384.299 105.091 384.338 105.226 384.364 105.373C384.39 105.52 384.407 105.685 384.416 105.867C384.433 106.04 384.442 106.235 384.442 106.452C384.442 106.946 384.394 107.358 384.299 107.687C384.204 108.008 384.069 108.263 383.896 108.454C383.723 108.645 383.51 108.788 383.259 108.883C383.008 108.978 382.726 109.039 382.414 109.065C382.111 109.091 381.781 109.104 381.426 109.104ZM385.676 109L389.056 100.056H390.46L393.827 109H392.67L391.747 106.556H387.73L386.807 109H385.676ZM388.068 105.581H391.409L389.771 101.2H389.706L388.068 105.581ZM396.508 109V101.044H393.687V100.056H400.46V101.044H397.626V109H396.508Z" fill="#3C3C43"/>
<path d="M93.7965 146V144.4C93.7965 143.64 93.8098 143.007 93.8365 142.5C93.8765 141.98 93.9698 141.553 94.1165 141.22C94.2632 140.887 94.4898 140.6 94.7965 140.36C95.1165 140.12 95.5632 139.88 96.1365 139.64L99.7565 138.1C100.236 137.887 100.596 137.687 100.836 137.5C101.076 137.313 101.236 137.087 101.316 136.82C101.41 136.553 101.456 136.2 101.456 135.76C101.456 135.12 101.356 134.647 101.156 134.34C100.97 134.02 100.63 133.813 100.136 133.72C99.6565 133.613 98.9698 133.56 98.0765 133.56C97.7565 133.56 97.3632 133.573 96.8965 133.6C96.4432 133.627 95.9698 133.66 95.4765 133.7C94.9832 133.727 94.5165 133.767 94.0765 133.82V132.42C94.4632 132.353 94.9098 132.3 95.4165 132.26C95.9365 132.207 96.4698 132.167 97.0165 132.14C97.5765 132.1 98.1032 132.08 98.5965 132.08C99.2365 132.08 99.8298 132.113 100.376 132.18C100.923 132.247 101.41 132.393 101.836 132.62C102.263 132.847 102.59 133.2 102.816 133.68C103.056 134.147 103.176 134.78 103.176 135.58C103.176 136.38 103.09 137.02 102.916 137.5C102.756 137.967 102.49 138.347 102.116 138.64C101.756 138.92 101.276 139.187 100.676 139.44L96.5565 141.18C96.2098 141.327 95.9565 141.493 95.7965 141.68C95.6498 141.867 95.5565 142.113 95.5165 142.42C95.4765 142.713 95.4565 143.093 95.4565 143.56V144.5H103.176V146H93.7965Z" fill="white"/>
<path d="M145.274 146.16C144.861 146.16 144.401 146.14 143.894 146.1C143.401 146.073 142.914 146.033 142.434 145.98C141.967 145.927 141.554 145.873 141.194 145.82V144.44C141.647 144.48 142.121 144.52 142.614 144.56C143.107 144.6 143.574 144.633 144.014 144.66C144.454 144.673 144.834 144.68 145.154 144.68C145.941 144.68 146.607 144.633 147.154 144.54C147.701 144.433 148.107 144.213 148.374 143.88C148.654 143.533 148.794 142.993 148.794 142.26C148.794 141.647 148.707 141.16 148.534 140.8C148.361 140.427 148.081 140.167 147.694 140.02C147.307 139.86 146.794 139.78 146.154 139.78H143.574V138.28H146.154C146.607 138.28 147.021 138.22 147.394 138.1C147.767 137.98 148.067 137.753 148.294 137.42C148.521 137.087 148.634 136.593 148.634 135.94C148.634 135.22 148.514 134.693 148.274 134.36C148.034 134.027 147.641 133.813 147.094 133.72C146.561 133.613 145.847 133.56 144.954 133.56C144.594 133.56 144.194 133.573 143.754 133.6C143.314 133.627 142.874 133.66 142.434 133.7C142.007 133.727 141.621 133.767 141.274 133.82V132.42C141.634 132.353 142.047 132.3 142.514 132.26C142.981 132.207 143.461 132.167 143.954 132.14C144.447 132.1 144.894 132.08 145.294 132.08C146.267 132.08 147.081 132.153 147.734 132.3C148.387 132.447 148.907 132.667 149.294 132.96C149.681 133.253 149.954 133.627 150.114 134.08C150.287 134.533 150.374 135.073 150.374 135.7C150.374 136.7 150.167 137.447 149.754 137.94C149.354 138.433 148.781 138.767 148.034 138.94V139.02C148.541 139.113 148.981 139.273 149.354 139.5C149.727 139.727 150.014 140.067 150.214 140.52C150.427 140.973 150.534 141.573 150.534 142.32C150.534 142.907 150.461 143.44 150.314 143.92C150.181 144.387 149.927 144.787 149.554 145.12C149.181 145.453 148.647 145.713 147.954 145.9C147.274 146.073 146.381 146.16 145.274 146.16Z" fill="white"/>
<path d="M195.264 146V142.78H188.004V141.46L193.384 132.24H195.284L189.924 141.3H195.284L195.644 136.4H196.984V141.3H199.024V142.78H196.984V146H195.264Z" fill="white"/>
<path d="M240.549 146.16C240.135 146.16 239.682 146.14 239.189 146.1C238.695 146.073 238.209 146.04 237.729 146C237.249 145.947 236.822 145.887 236.449 145.82V144.44C236.915 144.48 237.395 144.52 237.889 144.56C238.382 144.6 238.849 144.633 239.289 144.66C239.729 144.673 240.109 144.68 240.429 144.68C241.175 144.68 241.782 144.64 242.249 144.56C242.729 144.467 243.095 144.32 243.349 144.12C243.615 143.907 243.802 143.627 243.909 143.28C244.015 142.92 244.069 142.473 244.069 141.94C244.069 141.353 244.009 140.887 243.889 140.54C243.782 140.18 243.582 139.913 243.289 139.74C243.009 139.567 242.615 139.453 242.109 139.4C241.602 139.333 240.949 139.3 240.149 139.3C239.882 139.3 239.549 139.313 239.149 139.34C238.762 139.353 238.349 139.38 237.909 139.42C237.469 139.46 237.035 139.507 236.609 139.56V132.24H244.789V133.74H238.189V138.02C238.455 137.98 238.762 137.947 239.109 137.92C239.469 137.88 239.829 137.853 240.189 137.84C240.562 137.827 240.909 137.82 241.229 137.82C242.215 137.82 243.009 137.9 243.609 138.06C244.209 138.22 244.662 138.473 244.969 138.82C245.289 139.153 245.509 139.567 245.629 140.06C245.749 140.54 245.809 141.1 245.809 141.74C245.809 142.553 245.729 143.247 245.569 143.82C245.422 144.38 245.155 144.833 244.769 145.18C244.395 145.513 243.869 145.76 243.189 145.92C242.509 146.08 241.629 146.16 240.549 146.16Z" fill="white"/>
<path d="M288.368 146.16C287.448 146.16 286.661 146.113 286.008 146.02C285.368 145.94 284.834 145.76 284.408 145.48C283.994 145.187 283.674 144.74 283.448 144.14C283.314 143.833 283.214 143.453 283.148 143C283.081 142.547 283.028 142.013 282.988 141.4C282.961 140.773 282.948 140.06 282.948 139.26C282.948 138.527 282.961 137.86 282.988 137.26C283.028 136.66 283.081 136.127 283.148 135.66C283.228 135.193 283.328 134.78 283.448 134.42C283.674 133.793 284.001 133.313 284.428 132.98C284.854 132.647 285.401 132.413 286.068 132.28C286.734 132.147 287.548 132.08 288.508 132.08C288.854 132.08 289.254 132.1 289.708 132.14C290.174 132.167 290.654 132.207 291.148 132.26C291.654 132.313 292.134 132.373 292.588 132.44V133.82C292.174 133.767 291.734 133.727 291.268 133.7C290.814 133.66 290.374 133.627 289.948 133.6C289.534 133.573 289.174 133.56 288.868 133.56C287.934 133.56 287.188 133.627 286.628 133.76C286.081 133.893 285.668 134.14 285.388 134.5C285.108 134.86 284.921 135.387 284.828 136.08C284.734 136.76 284.688 137.66 284.688 138.78H284.808C284.954 138.62 285.161 138.467 285.428 138.32C285.694 138.16 286.081 138.033 286.588 137.94C287.108 137.833 287.801 137.78 288.668 137.78C289.508 137.78 290.228 137.827 290.828 137.92C291.428 138.013 291.914 138.193 292.288 138.46C292.661 138.727 292.928 139.113 293.088 139.62C293.261 140.127 293.348 140.8 293.348 141.64C293.348 142.52 293.281 143.253 293.148 143.84C293.028 144.427 292.788 144.887 292.428 145.22C292.068 145.553 291.561 145.793 290.908 145.94C290.254 146.087 289.408 146.16 288.368 146.16ZM288.208 144.68C288.901 144.68 289.474 144.653 289.928 144.6C290.381 144.547 290.734 144.433 290.988 144.26C291.241 144.073 291.414 143.807 291.508 143.46C291.601 143.113 291.648 142.633 291.648 142.02C291.648 141.38 291.601 140.873 291.508 140.5C291.414 140.127 291.248 139.853 291.008 139.68C290.768 139.493 290.421 139.38 289.968 139.34C289.514 139.287 288.928 139.26 288.208 139.26C287.421 139.26 286.794 139.3 286.328 139.38C285.861 139.46 285.514 139.593 285.288 139.78C285.074 139.953 284.928 140.18 284.848 140.46C284.781 140.74 284.748 141.08 284.748 141.48C284.748 142.213 284.801 142.793 284.908 143.22C285.028 143.647 285.214 143.967 285.468 144.18C285.734 144.393 286.088 144.533 286.528 144.6C286.968 144.653 287.528 144.68 288.208 144.68Z" fill="white"/>
<path d="M332.645 146L338.245 133.74H330.685V132.24H340.145V133.58L334.565 146H332.645Z" fill="white"/>
<path d="M382.994 146.16C381.874 146.16 380.96 146.08 380.254 145.92C379.547 145.747 379.007 145.5 378.634 145.18C378.26 144.847 378 144.447 377.854 143.98C377.72 143.5 377.654 142.947 377.654 142.32C377.654 141.533 377.747 140.927 377.934 140.5C378.134 140.06 378.42 139.733 378.794 139.52C379.167 139.307 379.62 139.14 380.154 139.02V138.94C379.34 138.78 378.74 138.453 378.354 137.96C377.967 137.453 377.774 136.7 377.774 135.7C377.774 135.087 377.854 134.553 378.014 134.1C378.174 133.647 378.447 133.273 378.834 132.98C379.22 132.673 379.754 132.447 380.434 132.3C381.114 132.153 381.967 132.08 382.994 132.08C384.02 132.08 384.874 132.153 385.554 132.3C386.234 132.447 386.767 132.673 387.154 132.98C387.54 133.273 387.814 133.647 387.974 134.1C388.134 134.553 388.214 135.087 388.214 135.7C388.214 136.7 388.02 137.453 387.634 137.96C387.247 138.453 386.647 138.78 385.834 138.94V139.02C386.38 139.14 386.834 139.307 387.194 139.52C387.567 139.733 387.847 140.06 388.034 140.5C388.234 140.927 388.334 141.533 388.334 142.32C388.334 142.947 388.26 143.5 388.114 143.98C387.98 144.447 387.72 144.847 387.334 145.18C386.96 145.5 386.427 145.747 385.734 145.92C385.04 146.08 384.127 146.16 382.994 146.16ZM382.994 144.68C383.914 144.68 384.634 144.627 385.154 144.52C385.674 144.4 386.04 144.167 386.254 143.82C386.48 143.473 386.594 142.953 386.594 142.26C386.594 141.713 386.54 141.28 386.434 140.96C386.327 140.627 386.14 140.373 385.874 140.2C385.62 140.027 385.26 139.913 384.794 139.86C384.327 139.807 383.727 139.78 382.994 139.78C382.26 139.78 381.66 139.807 381.194 139.86C380.727 139.913 380.36 140.027 380.094 140.2C379.84 140.373 379.66 140.627 379.554 140.96C379.46 141.28 379.414 141.713 379.414 142.26C379.414 142.953 379.52 143.473 379.734 143.82C379.947 144.167 380.314 144.4 380.834 144.52C381.354 144.627 382.074 144.68 382.994 144.68ZM382.994 138.3C383.94 138.3 384.66 138.24 385.154 138.12C385.647 137.987 385.987 137.753 386.174 137.42C386.374 137.073 386.474 136.58 386.474 135.94C386.474 135.3 386.38 134.813 386.194 134.48C386.02 134.133 385.68 133.893 385.174 133.76C384.68 133.627 383.954 133.56 382.994 133.56C382.034 133.56 381.3 133.627 380.794 133.76C380.3 133.893 379.967 134.133 379.794 134.48C379.62 134.813 379.534 135.3 379.534 135.94C379.534 136.58 379.627 137.073 379.814 137.42C380 137.753 380.34 137.987 380.834 138.12C381.34 138.24 382.06 138.3 382.994 138.3Z" fill="white"/>
<path d="M97.4877 197.16C97.1277 197.16 96.7144 197.14 96.2477 197.1C95.7811 197.073 95.3011 197.033 94.8077 196.98C94.3144 196.927 93.8477 196.867 93.4077 196.8V195.42C93.8211 195.46 94.2544 195.5 94.7077 195.54C95.1611 195.58 95.6011 195.613 96.0277 195.64C96.4544 195.667 96.8211 195.68 97.1277 195.68C98.0611 195.68 98.8011 195.613 99.3477 195.48C99.9077 195.347 100.328 195.1 100.608 194.74C100.888 194.38 101.068 193.86 101.148 193.18C101.241 192.487 101.288 191.58 101.288 190.46H101.168C101.034 190.62 100.834 190.78 100.568 190.94C100.301 191.087 99.9077 191.213 99.3877 191.32C98.8677 191.413 98.1744 191.46 97.3077 191.46C96.4677 191.46 95.7477 191.413 95.1477 191.32C94.5611 191.227 94.0811 191.047 93.7077 190.78C93.3344 190.513 93.0611 190.127 92.8877 189.62C92.7277 189.113 92.6477 188.44 92.6477 187.6C92.6477 186.72 92.7077 185.987 92.8277 185.4C92.9611 184.813 93.2011 184.353 93.5477 184.02C93.9077 183.687 94.4144 183.447 95.0677 183.3C95.7211 183.153 96.5744 183.08 97.6277 183.08C98.5877 183.08 99.4011 183.127 100.068 183.22C100.734 183.313 101.274 183.513 101.688 183.82C102.101 184.113 102.408 184.58 102.608 185.22C102.781 185.727 102.894 186.373 102.948 187.16C103.001 187.933 103.028 188.873 103.028 189.98C103.028 190.753 103.008 191.453 102.968 192.08C102.941 192.707 102.881 193.267 102.788 193.76C102.708 194.24 102.588 194.673 102.428 195.06C102.201 195.607 101.874 196.033 101.448 196.34C101.034 196.647 100.501 196.86 99.8477 196.98C99.2077 197.1 98.4211 197.16 97.4877 197.16ZM97.7877 189.98C98.5744 189.98 99.2011 189.94 99.6677 189.86C100.134 189.78 100.474 189.653 100.688 189.48C100.914 189.293 101.061 189.06 101.128 188.78C101.194 188.5 101.228 188.16 101.228 187.76C101.228 187.027 101.168 186.447 101.048 186.02C100.941 185.593 100.761 185.273 100.508 185.06C100.254 184.847 99.9011 184.713 99.4477 184.66C99.0077 184.593 98.4544 184.56 97.7877 184.56C97.0811 184.56 96.5011 184.587 96.0477 184.64C95.6077 184.693 95.2611 184.813 95.0077 185C94.7544 185.173 94.5744 185.433 94.4677 185.78C94.3744 186.127 94.3277 186.607 94.3277 187.22C94.3277 187.86 94.3744 188.367 94.4677 188.74C94.5744 189.113 94.7477 189.393 94.9877 189.58C95.2277 189.753 95.5744 189.867 96.0277 189.92C96.4811 189.96 97.0677 189.98 97.7877 189.98Z" fill="white"/>
<path d="M139.356 197V185.2L136.516 186.58V185.04L139.856 183.24H141.076V197H139.356ZM149.526 197.16C148.526 197.16 147.699 197.107 147.046 197C146.406 196.88 145.899 196.673 145.526 196.38C145.166 196.087 144.899 195.68 144.726 195.16C144.566 194.627 144.459 193.953 144.406 193.14C144.366 192.313 144.346 191.307 144.346 190.12C144.346 188.933 144.366 187.933 144.406 187.12C144.459 186.293 144.566 185.62 144.726 185.1C144.899 184.567 145.166 184.153 145.526 183.86C145.899 183.567 146.406 183.367 147.046 183.26C147.699 183.14 148.526 183.08 149.526 183.08C150.526 183.08 151.346 183.14 151.986 183.26C152.639 183.367 153.146 183.567 153.506 183.86C153.879 184.153 154.152 184.567 154.326 185.1C154.499 185.62 154.606 186.293 154.646 187.12C154.686 187.933 154.706 188.933 154.706 190.12C154.706 191.307 154.686 192.313 154.646 193.14C154.606 193.953 154.499 194.627 154.326 195.16C154.152 195.68 153.879 196.087 153.506 196.38C153.146 196.673 152.639 196.88 151.986 197C151.346 197.107 150.526 197.16 149.526 197.16ZM149.526 195.68C150.206 195.68 150.759 195.66 151.186 195.62C151.612 195.567 151.946 195.453 152.186 195.28C152.439 195.107 152.619 194.82 152.726 194.42C152.846 194.02 152.919 193.473 152.946 192.78C152.986 192.087 153.006 191.2 153.006 190.12C153.006 189.04 152.986 188.153 152.946 187.46C152.919 186.767 152.846 186.22 152.726 185.82C152.619 185.42 152.439 185.133 152.186 184.96C151.946 184.787 151.612 184.68 151.186 184.64C150.759 184.587 150.206 184.56 149.526 184.56C148.872 184.56 148.326 184.587 147.886 184.64C147.446 184.68 147.099 184.787 146.846 184.96C146.606 185.133 146.426 185.42 146.306 185.82C146.199 186.22 146.132 186.767 146.106 187.46C146.079 188.153 146.066 189.04 146.066 190.12C146.066 191.2 146.079 192.087 146.106 192.78C146.132 193.473 146.199 194.02 146.306 194.42C146.426 194.82 146.606 195.107 146.846 195.28C147.099 195.453 147.439 195.567 147.866 195.62C148.306 195.66 148.859 195.68 149.526 195.68Z" fill="white"/>
<path d="M189.805 197V185.2L186.965 186.58V185.04L190.305 183.24H191.525V197H189.805ZM196.875 197V185.2L194.035 186.58V185.04L197.375 183.24H198.595V197H196.875Z" fill="white"/>
<path d="M234.462 197V185.2L231.622 186.58V185.04L234.962 183.24H236.182V197H234.462ZM239.331 197V195.4C239.331 194.64 239.345 194.007 239.371 193.5C239.411 192.98 239.505 192.553 239.651 192.22C239.798 191.887 240.025 191.6 240.331 191.36C240.651 191.12 241.098 190.88 241.671 190.64L245.291 189.1C245.771 188.887 246.131 188.687 246.371 188.5C246.611 188.313 246.771 188.087 246.851 187.82C246.945 187.553 246.991 187.2 246.991 186.76C246.991 186.12 246.891 185.647 246.691 185.34C246.505 185.02 246.165 184.813 245.671 184.72C245.191 184.613 244.505 184.56 243.611 184.56C243.291 184.56 242.898 184.573 242.431 184.6C241.978 184.627 241.505 184.66 241.011 184.7C240.518 184.727 240.051 184.767 239.611 184.82V183.42C239.998 183.353 240.445 183.3 240.951 183.26C241.471 183.207 242.005 183.167 242.551 183.14C243.111 183.1 243.638 183.08 244.131 183.08C244.771 183.08 245.365 183.113 245.911 183.18C246.458 183.247 246.945 183.393 247.371 183.62C247.798 183.847 248.125 184.2 248.351 184.68C248.591 185.147 248.711 185.78 248.711 186.58C248.711 187.38 248.625 188.02 248.451 188.5C248.291 188.967 248.025 189.347 247.651 189.64C247.291 189.92 246.811 190.187 246.211 190.44L242.091 192.18C241.745 192.327 241.491 192.493 241.331 192.68C241.185 192.867 241.091 193.113 241.051 193.42C241.011 193.713 240.991 194.093 240.991 194.56V195.5H248.711V197H239.331Z" fill="white"/>
<path d="M282.059 197V185.2L279.219 186.58V185.04L282.559 183.24H283.779V197H282.059ZM290.809 197.16C290.396 197.16 289.936 197.14 289.429 197.1C288.936 197.073 288.449 197.033 287.969 196.98C287.502 196.927 287.089 196.873 286.729 196.82V195.44C287.182 195.48 287.656 195.52 288.149 195.56C288.642 195.6 289.109 195.633 289.549 195.66C289.989 195.673 290.369 195.68 290.689 195.68C291.476 195.68 292.142 195.633 292.689 195.54C293.236 195.433 293.642 195.213 293.909 194.88C294.189 194.533 294.329 193.993 294.329 193.26C294.329 192.647 294.242 192.16 294.069 191.8C293.896 191.427 293.616 191.167 293.229 191.02C292.842 190.86 292.329 190.78 291.689 190.78H289.109V189.28H291.689C292.142 189.28 292.556 189.22 292.929 189.1C293.302 188.98 293.602 188.753 293.829 188.42C294.056 188.087 294.169 187.593 294.169 186.94C294.169 186.22 294.049 185.693 293.809 185.36C293.569 185.027 293.176 184.813 292.629 184.72C292.096 184.613 291.382 184.56 290.489 184.56C290.129 184.56 289.729 184.573 289.289 184.6C288.849 184.627 288.409 184.66 287.969 184.7C287.542 184.727 287.156 184.767 286.809 184.82V183.42C287.169 183.353 287.582 183.3 288.049 183.26C288.516 183.207 288.996 183.167 289.489 183.14C289.982 183.1 290.429 183.08 290.829 183.08C291.802 183.08 292.616 183.153 293.269 183.3C293.922 183.447 294.442 183.667 294.829 183.96C295.216 184.253 295.489 184.627 295.649 185.08C295.822 185.533 295.909 186.073 295.909 186.7C295.909 187.7 295.702 188.447 295.289 188.94C294.889 189.433 294.316 189.767 293.569 189.94V190.02C294.076 190.113 294.516 190.273 294.889 190.5C295.262 190.727 295.549 191.067 295.749 191.52C295.962 191.973 296.069 192.573 296.069 193.32C296.069 193.907 295.996 194.44 295.849 194.92C295.716 195.387 295.462 195.787 295.089 196.12C294.716 196.453 294.182 196.713 293.489 196.9C292.809 197.073 291.916 197.16 290.809 197.16Z" fill="white"/>
<path d="M329.149 197V185.2L326.309 186.58V185.04L329.649 183.24H330.869V197H329.149ZM340.799 197V193.78H333.539V192.46L338.919 183.24H340.819L335.459 192.3H340.819L341.179 187.4H342.519V192.3H344.559V193.78H342.519V197H340.799Z" fill="white"/>
<path d="M376.874 197V185.2L374.034 186.58V185.04L377.374 183.24H378.594V197H376.874ZM386.083 197.16C385.67 197.16 385.217 197.14 384.723 197.1C384.23 197.073 383.743 197.04 383.263 197C382.783 196.947 382.357 196.887 381.983 196.82V195.44C382.45 195.48 382.93 195.52 383.423 195.56C383.917 195.6 384.383 195.633 384.823 195.66C385.263 195.673 385.643 195.68 385.963 195.68C386.71 195.68 387.317 195.64 387.783 195.56C388.263 195.467 388.63 195.32 388.883 195.12C389.15 194.907 389.337 194.627 389.443 194.28C389.55 193.92 389.603 193.473 389.603 192.94C389.603 192.353 389.543 191.887 389.423 191.54C389.317 191.18 389.117 190.913 388.823 190.74C388.543 190.567 388.15 190.453 387.643 190.4C387.137 190.333 386.483 190.3 385.683 190.3C385.417 190.3 385.083 190.313 384.683 190.34C384.297 190.353 383.883 190.38 383.443 190.42C383.003 190.46 382.57 190.507 382.143 190.56V183.24H390.323V184.74H383.723V189.02C383.99 188.98 384.297 188.947 384.643 188.92C385.003 188.88 385.363 188.853 385.723 188.84C386.097 188.827 386.443 188.82 386.763 188.82C387.75 188.82 388.543 188.9 389.143 189.06C389.743 189.22 390.197 189.473 390.503 189.82C390.823 190.153 391.043 190.567 391.163 191.06C391.283 191.54 391.343 192.1 391.343 192.74C391.343 193.553 391.263 194.247 391.103 194.82C390.957 195.38 390.69 195.833 390.303 196.18C389.93 196.513 389.403 196.76 388.723 196.92C388.043 197.08 387.163 197.16 386.083 197.16Z" fill="white"/>
<path d="M91.993 248V236.2L89.153 237.58V236.04L92.493 234.24H93.713V248H91.993ZM102.403 248.16C101.483 248.16 100.696 248.113 100.043 248.02C99.4025 247.94 98.8692 247.76 98.4425 247.48C98.0292 247.187 97.7092 246.74 97.4825 246.14C97.3492 245.833 97.2492 245.453 97.1825 245C97.1158 244.547 97.0625 244.013 97.0225 243.4C96.9958 242.773 96.9825 242.06 96.9825 241.26C96.9825 240.527 96.9958 239.86 97.0225 239.26C97.0625 238.66 97.1158 238.127 97.1825 237.66C97.2625 237.193 97.3625 236.78 97.4825 236.42C97.7092 235.793 98.0358 235.313 98.4625 234.98C98.8892 234.647 99.4358 234.413 100.103 234.28C100.769 234.147 101.583 234.08 102.543 234.08C102.889 234.08 103.289 234.1 103.743 234.14C104.209 234.167 104.689 234.207 105.183 234.26C105.689 234.313 106.169 234.373 106.623 234.44V235.82C106.209 235.767 105.769 235.727 105.303 235.7C104.849 235.66 104.409 235.627 103.983 235.6C103.569 235.573 103.209 235.56 102.903 235.56C101.969 235.56 101.223 235.627 100.663 235.76C100.116 235.893 99.7025 236.14 99.4225 236.5C99.1425 236.86 98.9558 237.387 98.8625 238.08C98.7692 238.76 98.7225 239.66 98.7225 240.78H98.8425C98.9892 240.62 99.1958 240.467 99.4625 240.32C99.7292 240.16 100.116 240.033 100.623 239.94C101.143 239.833 101.836 239.78 102.703 239.78C103.543 239.78 104.263 239.827 104.863 239.92C105.463 240.013 105.949 240.193 106.323 240.46C106.696 240.727 106.963 241.113 107.123 241.62C107.296 242.127 107.383 242.8 107.383 243.64C107.383 244.52 107.316 245.253 107.183 245.84C107.063 246.427 106.823 246.887 106.463 247.22C106.103 247.553 105.596 247.793 104.943 247.94C104.289 248.087 103.443 248.16 102.403 248.16ZM102.243 246.68C102.936 246.68 103.509 246.653 103.963 246.6C104.416 246.547 104.769 246.433 105.023 246.26C105.276 246.073 105.449 245.807 105.543 245.46C105.636 245.113 105.683 244.633 105.683 244.02C105.683 243.38 105.636 242.873 105.543 242.5C105.449 242.127 105.283 241.853 105.043 241.68C104.803 241.493 104.456 241.38 104.003 241.34C103.549 241.287 102.963 241.26 102.243 241.26C101.456 241.26 100.829 241.3 100.363 241.38C99.8958 241.46 99.5492 241.593 99.3225 241.78C99.1092 241.953 98.9625 242.18 98.8825 242.46C98.8158 242.74 98.7825 243.08 98.7825 243.48C98.7825 244.213 98.8358 244.793 98.9425 245.22C99.0625 245.647 99.2492 245.967 99.5025 246.18C99.7692 246.393 100.123 246.533 100.563 246.6C101.003 246.653 101.563 246.68 102.243 246.68Z" fill="white"/>
<path d="M140.43 248V236.2L137.59 237.58V236.04L140.93 234.24H142.15V248H140.43ZM146.68 248L152.28 235.74H144.72V234.24H154.18V235.58L148.6 248H146.68Z" fill="white"/>
<path d="M186.739 248V236.2L183.899 237.58V236.04L187.239 234.24H188.459V248H186.739ZM197.029 248.16C195.909 248.16 194.995 248.08 194.289 247.92C193.582 247.747 193.042 247.5 192.669 247.18C192.295 246.847 192.035 246.447 191.889 245.98C191.755 245.5 191.689 244.947 191.689 244.32C191.689 243.533 191.782 242.927 191.969 242.5C192.169 242.06 192.455 241.733 192.829 241.52C193.202 241.307 193.655 241.14 194.189 241.02V240.94C193.375 240.78 192.775 240.453 192.389 239.96C192.002 239.453 191.809 238.7 191.809 237.7C191.809 237.087 191.889 236.553 192.049 236.1C192.209 235.647 192.482 235.273 192.869 234.98C193.255 234.673 193.789 234.447 194.469 234.3C195.149 234.153 196.002 234.08 197.029 234.08C198.055 234.08 198.909 234.153 199.589 234.3C200.269 234.447 200.802 234.673 201.189 234.98C201.575 235.273 201.849 235.647 202.009 236.1C202.169 236.553 202.249 237.087 202.249 237.7C202.249 238.7 202.055 239.453 201.669 239.96C201.282 240.453 200.682 240.78 199.869 240.94V241.02C200.415 241.14 200.869 241.307 201.229 241.52C201.602 241.733 201.882 242.06 202.069 242.5C202.269 242.927 202.369 243.533 202.369 244.32C202.369 244.947 202.295 245.5 202.149 245.98C202.015 246.447 201.755 246.847 201.369 247.18C200.995 247.5 200.462 247.747 199.769 247.92C199.075 248.08 198.162 248.16 197.029 248.16ZM197.029 246.68C197.949 246.68 198.669 246.627 199.189 246.52C199.709 246.4 200.075 246.167 200.289 245.82C200.515 245.473 200.629 244.953 200.629 244.26C200.629 243.713 200.575 243.28 200.469 242.96C200.362 242.627 200.175 242.373 199.909 242.2C199.655 242.027 199.295 241.913 198.829 241.86C198.362 241.807 197.762 241.78 197.029 241.78C196.295 241.78 195.695 241.807 195.229 241.86C194.762 241.913 194.395 242.027 194.129 242.2C193.875 242.373 193.695 242.627 193.589 242.96C193.495 243.28 193.449 243.713 193.449 244.26C193.449 244.953 193.555 245.473 193.769 245.82C193.982 246.167 194.349 246.4 194.869 246.52C195.389 246.627 196.109 246.68 197.029 246.68ZM197.029 240.3C197.975 240.3 198.695 240.24 199.189 240.12C199.682 239.987 200.022 239.753 200.209 239.42C200.409 239.073 200.509 238.58 200.509 237.94C200.509 237.3 200.415 236.813 200.229 236.48C200.055 236.133 199.715 235.893 199.209 235.76C198.715 235.627 197.989 235.56 197.029 235.56C196.069 235.56 195.335 235.627 194.829 235.76C194.335 235.893 194.002 236.133 193.829 236.48C193.655 236.813 193.569 237.3 193.569 237.94C193.569 238.58 193.662 239.073 193.849 239.42C194.035 239.753 194.375 239.987 194.869 240.12C195.375 240.24 196.095 240.3 197.029 240.3Z" fill="white"/>
<path d="M234.493 248V236.2L231.653 237.58V236.04L234.993 234.24H236.213V248H234.493ZM244.023 248.16C243.663 248.16 243.249 248.14 242.783 248.1C242.316 248.073 241.836 248.033 241.343 247.98C240.849 247.927 240.383 247.867 239.943 247.8V246.42C240.356 246.46 240.789 246.5 241.243 246.54C241.696 246.58 242.136 246.613 242.563 246.64C242.989 246.667 243.356 246.68 243.663 246.68C244.596 246.68 245.336 246.613 245.883 246.48C246.443 246.347 246.863 246.1 247.143 245.74C247.423 245.38 247.603 244.86 247.683 244.18C247.776 243.487 247.823 242.58 247.823 241.46H247.703C247.569 241.62 247.369 241.78 247.103 241.94C246.836 242.087 246.443 242.213 245.923 242.32C245.403 242.413 244.709 242.46 243.843 242.46C243.003 242.46 242.283 242.413 241.683 242.32C241.096 242.227 240.616 242.047 240.243 241.78C239.869 241.513 239.596 241.127 239.423 240.62C239.263 240.113 239.183 239.44 239.183 238.6C239.183 237.72 239.243 236.987 239.363 236.4C239.496 235.813 239.736 235.353 240.083 235.02C240.443 234.687 240.949 234.447 241.603 234.3C242.256 234.153 243.109 234.08 244.163 234.08C245.123 234.08 245.936 234.127 246.603 234.22C247.269 234.313 247.809 234.513 248.223 234.82C248.636 235.113 248.943 235.58 249.143 236.22C249.316 236.727 249.429 237.373 249.483 238.16C249.536 238.933 249.563 239.873 249.563 240.98C249.563 241.753 249.543 242.453 249.503 243.08C249.476 243.707 249.416 244.267 249.323 244.76C249.243 245.24 249.123 245.673 248.963 246.06C248.736 246.607 248.409 247.033 247.983 247.34C247.569 247.647 247.036 247.86 246.383 247.98C245.743 248.1 244.956 248.16 244.023 248.16ZM244.323 240.98C245.109 240.98 245.736 240.94 246.203 240.86C246.669 240.78 247.009 240.653 247.223 240.48C247.449 240.293 247.596 240.06 247.663 239.78C247.729 239.5 247.763 239.16 247.763 238.76C247.763 238.027 247.703 237.447 247.583 237.02C247.476 236.593 247.296 236.273 247.043 236.06C246.789 235.847 246.436 235.713 245.983 235.66C245.543 235.593 244.989 235.56 244.323 235.56C243.616 235.56 243.036 235.587 242.583 235.64C242.143 235.693 241.796 235.813 241.543 236C241.289 236.173 241.109 236.433 241.003 236.78C240.909 237.127 240.863 237.607 240.863 238.22C240.863 238.86 240.909 239.367 241.003 239.74C241.109 240.113 241.283 240.393 241.523 240.58C241.763 240.753 242.109 240.867 242.563 240.92C243.016 240.96 243.603 240.98 244.323 240.98Z" fill="white"/>
<path d="M276.813 248V246.4C276.813 245.64 276.826 245.007 276.853 244.5C276.893 243.98 276.986 243.553 277.133 243.22C277.279 242.887 277.506 242.6 277.813 242.36C278.133 242.12 278.579 241.88 279.153 241.64L282.773 240.1C283.253 239.887 283.613 239.687 283.853 239.5C284.093 239.313 284.253 239.087 284.333 238.82C284.426 238.553 284.473 238.2 284.473 237.76C284.473 237.12 284.373 236.647 284.173 236.34C283.986 236.02 283.646 235.813 283.153 235.72C282.673 235.613 281.986 235.56 281.093 235.56C280.773 235.56 280.379 235.573 279.913 235.6C279.459 235.627 278.986 235.66 278.493 235.7C277.999 235.727 277.533 235.767 277.093 235.82V234.42C277.479 234.353 277.926 234.3 278.433 234.26C278.953 234.207 279.486 234.167 280.033 234.14C280.593 234.1 281.119 234.08 281.613 234.08C282.253 234.08 282.846 234.113 283.393 234.18C283.939 234.247 284.426 234.393 284.853 234.62C285.279 234.847 285.606 235.2 285.833 235.68C286.073 236.147 286.193 236.78 286.193 237.58C286.193 238.38 286.106 239.02 285.933 239.5C285.773 239.967 285.506 240.347 285.133 240.64C284.773 240.92 284.293 241.187 283.693 241.44L279.573 243.18C279.226 243.327 278.973 243.493 278.813 243.68C278.666 243.867 278.573 244.113 278.533 244.42C278.493 244.713 278.473 245.093 278.473 245.56V246.5H286.193V248H276.813ZM293.87 248.16C292.87 248.16 292.043 248.107 291.39 248C290.75 247.88 290.243 247.673 289.87 247.38C289.51 247.087 289.243 246.68 289.07 246.16C288.91 245.627 288.803 244.953 288.75 244.14C288.71 243.313 288.69 242.307 288.69 241.12C288.69 239.933 288.71 238.933 288.75 238.12C288.803 237.293 288.91 236.62 289.07 236.1C289.243 235.567 289.51 235.153 289.87 234.86C290.243 234.567 290.75 234.367 291.39 234.26C292.043 234.14 292.87 234.08 293.87 234.08C294.87 234.08 295.69 234.14 296.33 234.26C296.983 234.367 297.49 234.567 297.85 234.86C298.223 235.153 298.496 235.567 298.67 236.1C298.843 236.62 298.95 237.293 298.99 238.12C299.03 238.933 299.05 239.933 299.05 241.12C299.05 242.307 299.03 243.313 298.99 244.14C298.95 244.953 298.843 245.627 298.67 246.16C298.496 246.68 298.223 247.087 297.85 247.38C297.49 247.673 296.983 247.88 296.33 248C295.69 248.107 294.87 248.16 293.87 248.16ZM293.87 246.68C294.55 246.68 295.103 246.66 295.53 246.62C295.956 246.567 296.29 246.453 296.53 246.28C296.783 246.107 296.963 245.82 297.07 245.42C297.19 245.02 297.263 244.473 297.29 243.78C297.33 243.087 297.35 242.2 297.35 241.12C297.35 240.04 297.33 239.153 297.29 238.46C297.263 237.767 297.19 237.22 297.07 236.82C296.963 236.42 296.783 236.133 296.53 235.96C296.29 235.787 295.956 235.68 295.53 235.64C295.103 235.587 294.55 235.56 293.87 235.56C293.216 235.56 292.67 235.587 292.23 235.64C291.79 235.68 291.443 235.787 291.19 235.96C290.95 236.133 290.77 236.42 290.65 236.82C290.543 237.22 290.476 237.767 290.45 238.46C290.423 239.153 290.41 240.04 290.41 241.12C290.41 242.2 290.423 243.087 290.45 243.78C290.476 244.473 290.543 245.02 290.65 245.42C290.77 245.82 290.95 246.107 291.19 246.28C291.443 246.453 291.783 246.567 292.21 246.62C292.65 246.66 293.203 246.68 293.87 246.68Z" fill="white"/>
<g filter="url(#filter1_bd_446_1011)">
<rect x="323" y="228" width="25" height="25" rx="12.5" fill="#147469" fill-opacity="0.2" shape-rendering="crispEdges"/>
</g>
<path d="M326.762 247V245.4C326.762 244.64 326.775 244.007 326.802 243.5C326.842 242.98 326.935 242.553 327.082 242.22C327.228 241.887 327.455 241.6 327.762 241.36C328.082 241.12 328.528 240.88 329.102 240.64L332.722 239.1C333.202 238.887 333.562 238.687 333.802 238.5C334.042 238.313 334.202 238.087 334.282 237.82C334.375 237.553 334.422 237.2 334.422 236.76C334.422 236.12 334.322 235.647 334.122 235.34C333.935 235.02 333.595 234.813 333.102 234.72C332.622 234.613 331.935 234.56 331.042 234.56C330.722 234.56 330.328 234.573 329.862 234.6C329.408 234.627 328.935 234.66 328.442 234.7C327.948 234.727 327.482 234.767 327.042 234.82V233.42C327.428 233.353 327.875 233.3 328.382 233.26C328.902 233.207 329.435 233.167 329.982 233.14C330.542 233.1 331.068 233.08 331.562 233.08C332.202 233.08 332.795 233.113 333.342 233.18C333.888 233.247 334.375 233.393 334.802 233.62C335.228 233.847 335.555 234.2 335.782 234.68C336.022 235.147 336.142 235.78 336.142 236.58C336.142 237.38 336.055 238.02 335.882 238.5C335.722 238.967 335.455 239.347 335.082 239.64C334.722 239.92 334.242 240.187 333.642 240.44L329.522 242.18C329.175 242.327 328.922 242.493 328.762 242.68C328.615 242.867 328.522 243.113 328.482 243.42C328.442 243.713 328.422 244.093 328.422 244.56V245.5H336.142V247H326.762ZM340.719 247V235.2L337.879 236.58V235.04L341.219 233.24H342.439V247H340.719Z" fill="#147469"/>
<path d="M372.418 248V246.4C372.418 245.64 372.431 245.007 372.458 244.5C372.498 243.98 372.591 243.553 372.738 243.22C372.885 242.887 373.111 242.6 373.418 242.36C373.738 242.12 374.185 241.88 374.758 241.64L378.378 240.1C378.858 239.887 379.218 239.687 379.458 239.5C379.698 239.313 379.858 239.087 379.938 238.82C380.031 238.553 380.078 238.2 380.078 237.76C380.078 237.12 379.978 236.647 379.778 236.34C379.591 236.02 379.251 235.813 378.758 235.72C378.278 235.613 377.591 235.56 376.698 235.56C376.378 235.56 375.985 235.573 375.518 235.6C375.065 235.627 374.591 235.66 374.098 235.7C373.605 235.727 373.138 235.767 372.698 235.82V234.42C373.085 234.353 373.531 234.3 374.038 234.26C374.558 234.207 375.091 234.167 375.638 234.14C376.198 234.1 376.725 234.08 377.218 234.08C377.858 234.08 378.451 234.113 378.998 234.18C379.545 234.247 380.031 234.393 380.458 234.62C380.885 234.847 381.211 235.2 381.438 235.68C381.678 236.147 381.798 236.78 381.798 237.58C381.798 238.38 381.711 239.02 381.538 239.5C381.378 239.967 381.111 240.347 380.738 240.64C380.378 240.92 379.898 241.187 379.298 241.44L375.178 243.18C374.831 243.327 374.578 243.493 374.418 243.68C374.271 243.867 374.178 244.113 374.138 244.42C374.098 244.713 374.078 245.093 374.078 245.56V246.5H381.798V248H372.418ZM384.175 248V246.4C384.175 245.64 384.188 245.007 384.215 244.5C384.255 243.98 384.348 243.553 384.495 243.22C384.642 242.887 384.868 242.6 385.175 242.36C385.495 242.12 385.942 241.88 386.515 241.64L390.135 240.1C390.615 239.887 390.975 239.687 391.215 239.5C391.455 239.313 391.615 239.087 391.695 238.82C391.788 238.553 391.835 238.2 391.835 237.76C391.835 237.12 391.735 236.647 391.535 236.34C391.348 236.02 391.008 235.813 390.515 235.72C390.035 235.613 389.348 235.56 388.455 235.56C388.135 235.56 387.742 235.573 387.275 235.6C386.822 235.627 386.348 235.66 385.855 235.7C385.362 235.727 384.895 235.767 384.455 235.82V234.42C384.842 234.353 385.288 234.3 385.795 234.26C386.315 234.207 386.848 234.167 387.395 234.14C387.955 234.1 388.482 234.08 388.975 234.08C389.615 234.08 390.208 234.113 390.755 234.18C391.302 234.247 391.788 234.393 392.215 234.62C392.642 234.847 392.968 235.2 393.195 235.68C393.435 236.147 393.555 236.78 393.555 237.58C393.555 238.38 393.468 239.02 393.295 239.5C393.135 239.967 392.868 240.347 392.495 240.64C392.135 240.92 391.655 241.187 391.055 241.44L386.935 243.18C386.588 243.327 386.335 243.493 386.175 243.68C386.028 243.867 385.935 244.113 385.895 244.42C385.855 244.713 385.835 245.093 385.835 245.56V246.5H393.555V248H384.175Z" fill="white"/>
<path d="M87.5156 299V297.4C87.5156 296.64 87.529 296.007 87.5556 295.5C87.5956 294.98 87.689 294.553 87.8356 294.22C87.9823 293.887 88.209 293.6 88.5156 293.36C88.8356 293.12 89.2823 292.88 89.8556 292.64L93.4756 291.1C93.9556 290.887 94.3156 290.687 94.5556 290.5C94.7956 290.313 94.9556 290.087 95.0356 289.82C95.129 289.553 95.1756 289.2 95.1756 288.76C95.1756 288.12 95.0756 287.647 94.8756 287.34C94.689 287.02 94.349 286.813 93.8556 286.72C93.3756 286.613 92.689 286.56 91.7956 286.56C91.4756 286.56 91.0823 286.573 90.6156 286.6C90.1623 286.627 89.689 286.66 89.1956 286.7C88.7023 286.727 88.2356 286.767 87.7956 286.82V285.42C88.1823 285.353 88.629 285.3 89.1356 285.26C89.6556 285.207 90.189 285.167 90.7356 285.14C91.2956 285.1 91.8223 285.08 92.3156 285.08C92.9556 285.08 93.549 285.113 94.0956 285.18C94.6423 285.247 95.129 285.393 95.5556 285.62C95.9823 285.847 96.309 286.2 96.5356 286.68C96.7756 287.147 96.8956 287.78 96.8956 288.58C96.8956 289.38 96.809 290.02 96.6356 290.5C96.4756 290.967 96.209 291.347 95.8356 291.64C95.4756 291.92 94.9956 292.187 94.3956 292.44L90.2756 294.18C89.929 294.327 89.6756 294.493 89.5156 294.68C89.369 294.867 89.2756 295.113 89.2356 295.42C89.1956 295.713 89.1756 296.093 89.1756 296.56V297.5H96.8956V299H87.5156ZM103.153 299.16C102.739 299.16 102.279 299.14 101.773 299.1C101.279 299.073 100.793 299.033 100.313 298.98C99.846 298.927 99.4327 298.873 99.0727 298.82V297.44C99.526 297.48 99.9993 297.52 100.493 297.56C100.986 297.6 101.453 297.633 101.893 297.66C102.333 297.673 102.713 297.68 103.033 297.68C103.819 297.68 104.486 297.633 105.033 297.54C105.579 297.433 105.986 297.213 106.253 296.88C106.533 296.533 106.673 295.993 106.673 295.26C106.673 294.647 106.586 294.16 106.413 293.8C106.239 293.427 105.959 293.167 105.573 293.02C105.186 292.86 104.673 292.78 104.033 292.78H101.453V291.28H104.033C104.486 291.28 104.899 291.22 105.273 291.1C105.646 290.98 105.946 290.753 106.173 290.42C106.399 290.087 106.513 289.593 106.513 288.94C106.513 288.22 106.393 287.693 106.153 287.36C105.913 287.027 105.519 286.813 104.973 286.72C104.439 286.613 103.726 286.56 102.833 286.56C102.473 286.56 102.073 286.573 101.633 286.6C101.193 286.627 100.753 286.66 100.313 286.7C99.886 286.727 99.4993 286.767 99.1527 286.82V285.42C99.5127 285.353 99.926 285.3 100.393 285.26C100.859 285.207 101.339 285.167 101.833 285.14C102.326 285.1 102.773 285.08 103.173 285.08C104.146 285.08 104.959 285.153 105.613 285.3C106.266 285.447 106.786 285.667 107.173 285.96C107.559 286.253 107.833 286.627 107.993 287.08C108.166 287.533 108.253 288.073 108.253 288.7C108.253 289.7 108.046 290.447 107.633 290.94C107.233 291.433 106.659 291.767 105.913 291.94V292.02C106.419 292.113 106.859 292.273 107.233 292.5C107.606 292.727 107.893 293.067 108.093 293.52C108.306 293.973 108.413 294.573 108.413 295.32C108.413 295.907 108.339 296.44 108.193 296.92C108.059 297.387 107.806 297.787 107.433 298.12C107.059 298.453 106.526 298.713 105.833 298.9C105.153 299.073 104.259 299.16 103.153 299.16Z" fill="white"/>
<path d="M135.105 299V297.4C135.105 296.64 135.119 296.007 135.145 295.5C135.185 294.98 135.279 294.553 135.425 294.22C135.572 293.887 135.799 293.6 136.105 293.36C136.425 293.12 136.872 292.88 137.445 292.64L141.065 291.1C141.545 290.887 141.905 290.687 142.145 290.5C142.385 290.313 142.545 290.087 142.625 289.82C142.719 289.553 142.765 289.2 142.765 288.76C142.765 288.12 142.665 287.647 142.465 287.34C142.279 287.02 141.939 286.813 141.445 286.72C140.965 286.613 140.279 286.56 139.385 286.56C139.065 286.56 138.672 286.573 138.205 286.6C137.752 286.627 137.279 286.66 136.785 286.7C136.292 286.727 135.825 286.767 135.385 286.82V285.42C135.772 285.353 136.219 285.3 136.725 285.26C137.245 285.207 137.779 285.167 138.325 285.14C138.885 285.1 139.412 285.08 139.905 285.08C140.545 285.08 141.139 285.113 141.685 285.18C142.232 285.247 142.719 285.393 143.145 285.62C143.572 285.847 143.899 286.2 144.125 286.68C144.365 287.147 144.485 287.78 144.485 288.58C144.485 289.38 144.399 290.02 144.225 290.5C144.065 290.967 143.799 291.347 143.425 291.64C143.065 291.92 142.585 292.187 141.985 292.44L137.865 294.18C137.519 294.327 137.265 294.493 137.105 294.68C136.959 294.867 136.865 295.113 136.825 295.42C136.785 295.713 136.765 296.093 136.765 296.56V297.5H144.485V299H135.105ZM153.643 299V295.78H146.383V294.46L151.763 285.24H153.663L148.303 294.3H153.663L154.023 289.4H155.363V294.3H157.403V295.78H155.363V299H153.643Z" fill="white"/>
<path d="M182.83 299V297.4C182.83 296.64 182.843 296.007 182.87 295.5C182.91 294.98 183.003 294.553 183.15 294.22C183.297 293.887 183.523 293.6 183.83 293.36C184.15 293.12 184.597 292.88 185.17 292.64L188.79 291.1C189.27 290.887 189.63 290.687 189.87 290.5C190.11 290.313 190.27 290.087 190.35 289.82C190.443 289.553 190.49 289.2 190.49 288.76C190.49 288.12 190.39 287.647 190.19 287.34C190.003 287.02 189.663 286.813 189.17 286.72C188.69 286.613 188.003 286.56 187.11 286.56C186.79 286.56 186.397 286.573 185.93 286.6C185.477 286.627 185.003 286.66 184.51 286.7C184.017 286.727 183.55 286.767 183.11 286.82V285.42C183.497 285.353 183.943 285.3 184.45 285.26C184.97 285.207 185.503 285.167 186.05 285.14C186.61 285.1 187.137 285.08 187.63 285.08C188.27 285.08 188.863 285.113 189.41 285.18C189.957 285.247 190.443 285.393 190.87 285.62C191.297 285.847 191.623 286.2 191.85 286.68C192.09 287.147 192.21 287.78 192.21 288.58C192.21 289.38 192.123 290.02 191.95 290.5C191.79 290.967 191.523 291.347 191.15 291.64C190.79 291.92 190.31 292.187 189.71 292.44L185.59 294.18C185.243 294.327 184.99 294.493 184.83 294.68C184.683 294.867 184.59 295.113 184.55 295.42C184.51 295.713 184.49 296.093 184.49 296.56V297.5H192.21V299H182.83ZM198.927 299.16C198.514 299.16 198.06 299.14 197.567 299.1C197.074 299.073 196.587 299.04 196.107 299C195.627 298.947 195.2 298.887 194.827 298.82V297.44C195.294 297.48 195.774 297.52 196.267 297.56C196.76 297.6 197.227 297.633 197.667 297.66C198.107 297.673 198.487 297.68 198.807 297.68C199.554 297.68 200.16 297.64 200.627 297.56C201.107 297.467 201.474 297.32 201.727 297.12C201.994 296.907 202.18 296.627 202.287 296.28C202.394 295.92 202.447 295.473 202.447 294.94C202.447 294.353 202.387 293.887 202.267 293.54C202.16 293.18 201.96 292.913 201.667 292.74C201.387 292.567 200.994 292.453 200.487 292.4C199.98 292.333 199.327 292.3 198.527 292.3C198.26 292.3 197.927 292.313 197.527 292.34C197.14 292.353 196.727 292.38 196.287 292.42C195.847 292.46 195.414 292.507 194.987 292.56V285.24H203.167V286.74H196.567V291.02C196.834 290.98 197.14 290.947 197.487 290.92C197.847 290.88 198.207 290.853 198.567 290.84C198.94 290.827 199.287 290.82 199.607 290.82C200.594 290.82 201.387 290.9 201.987 291.06C202.587 291.22 203.04 291.473 203.347 291.82C203.667 292.153 203.887 292.567 204.007 293.06C204.127 293.54 204.187 294.1 204.187 294.74C204.187 295.553 204.107 296.247 203.947 296.82C203.8 297.38 203.534 297.833 203.147 298.18C202.774 298.513 202.247 298.76 201.567 298.92C200.887 299.08 200.007 299.16 198.927 299.16Z" fill="white"/>
<path d="M227.469 301V299.08C227.469 298.168 227.485 297.408 227.517 296.8C227.565 296.176 227.677 295.664 227.853 295.264C228.029 294.864 228.301 294.52 228.669 294.232C229.053 293.944 229.589 293.656 230.277 293.368L234.621 291.52C235.197 291.264 235.629 291.024 235.917 290.8C236.205 290.576 236.397 290.304 236.493 289.984C236.605 289.664 236.661 289.24 236.661 288.712C236.661 287.944 236.541 287.376 236.301 287.008C236.077 286.624 235.669 286.376 235.077 286.264C234.501 286.136 233.677 286.072 232.605 286.072C232.221 286.072 231.749 286.088 231.189 286.12C230.645 286.152 230.077 286.192 229.485 286.24C228.893 286.272 228.333 286.32 227.805 286.384V284.704C228.269 284.624 228.805 284.56 229.413 284.512C230.037 284.448 230.677 284.4 231.333 284.368C232.005 284.32 232.637 284.296 233.229 284.296C233.997 284.296 234.709 284.336 235.365 284.416C236.021 284.496 236.605 284.672 237.117 284.944C237.629 285.216 238.021 285.64 238.293 286.216C238.581 286.776 238.725 287.536 238.725 288.496C238.725 289.456 238.621 290.224 238.413 290.8C238.221 291.36 237.901 291.816 237.453 292.168C237.021 292.504 236.445 292.824 235.725 293.128L230.781 295.216C230.365 295.392 230.061 295.592 229.869 295.816C229.693 296.04 229.581 296.336 229.533 296.704C229.485 297.056 229.461 297.512 229.461 298.072V299.2H238.725V301H227.469ZM248.766 301.192C247.662 301.192 246.718 301.136 245.934 301.024C245.166 300.928 244.526 300.712 244.014 300.376C243.518 300.024 243.134 299.488 242.862 298.768C242.702 298.4 242.582 297.944 242.502 297.4C242.422 296.856 242.358 296.216 242.31 295.48C242.278 294.728 242.262 293.872 242.262 292.912C242.262 292.032 242.278 291.232 242.31 290.512C242.358 289.792 242.422 289.152 242.502 288.592C242.598 288.032 242.718 287.536 242.862 287.104C243.134 286.352 243.526 285.776 244.038 285.376C244.55 284.976 245.206 284.696 246.006 284.536C246.806 284.376 247.782 284.296 248.934 284.296C249.35 284.296 249.83 284.32 250.374 284.368C250.934 284.4 251.51 284.448 252.102 284.512C252.71 284.576 253.286 284.648 253.83 284.728V286.384C253.334 286.32 252.806 286.272 252.246 286.24C251.702 286.192 251.174 286.152 250.662 286.12C250.166 286.088 249.734 286.072 249.366 286.072C248.246 286.072 247.35 286.152 246.678 286.312C246.022 286.472 245.526 286.768 245.19 287.2C244.854 287.632 244.63 288.264 244.518 289.096C244.406 289.912 244.35 290.992 244.35 292.336H244.494C244.67 292.144 244.918 291.96 245.238 291.784C245.558 291.592 246.022 291.44 246.63 291.328C247.254 291.2 248.086 291.136 249.126 291.136C250.134 291.136 250.998 291.192 251.718 291.304C252.438 291.416 253.022 291.632 253.47 291.952C253.918 292.272 254.238 292.736 254.43 293.344C254.638 293.952 254.742 294.76 254.742 295.768C254.742 296.824 254.662 297.704 254.502 298.408C254.358 299.112 254.07 299.664 253.638 300.064C253.206 300.464 252.598 300.752 251.814 300.928C251.03 301.104 250.014 301.192 248.766 301.192ZM248.574 299.416C249.406 299.416 250.094 299.384 250.638 299.32C251.182 299.256 251.606 299.12 251.91 298.912C252.214 298.688 252.422 298.368 252.534 297.952C252.646 297.536 252.702 296.96 252.702 296.224C252.702 295.456 252.646 294.848 252.534 294.4C252.422 293.952 252.222 293.624 251.934 293.416C251.646 293.192 251.23 293.056 250.686 293.008C250.142 292.944 249.438 292.912 248.574 292.912C247.63 292.912 246.878 292.96 246.318 293.056C245.758 293.152 245.342 293.312 245.07 293.536C244.814 293.744 244.638 294.016 244.542 294.352C244.462 294.688 244.422 295.096 244.422 295.576C244.422 296.456 244.486 297.152 244.614 297.664C244.758 298.176 244.982 298.56 245.286 298.816C245.606 299.072 246.03 299.24 246.558 299.32C247.086 299.384 247.758 299.416 248.574 299.416Z" fill="white"/>
<path d="M277.887 299V297.4C277.887 296.64 277.9 296.007 277.927 295.5C277.967 294.98 278.06 294.553 278.207 294.22C278.353 293.887 278.58 293.6 278.887 293.36C279.207 293.12 279.653 292.88 280.227 292.64L283.847 291.1C284.327 290.887 284.687 290.687 284.927 290.5C285.167 290.313 285.327 290.087 285.407 289.82C285.5 289.553 285.547 289.2 285.547 288.76C285.547 288.12 285.447 287.647 285.247 287.34C285.06 287.02 284.72 286.813 284.227 286.72C283.747 286.613 283.06 286.56 282.167 286.56C281.847 286.56 281.453 286.573 280.987 286.6C280.533 286.627 280.06 286.66 279.567 286.7C279.073 286.727 278.607 286.767 278.167 286.82V285.42C278.553 285.353 279 285.3 279.507 285.26C280.027 285.207 280.56 285.167 281.107 285.14C281.667 285.1 282.193 285.08 282.687 285.08C283.327 285.08 283.92 285.113 284.467 285.18C285.013 285.247 285.5 285.393 285.927 285.62C286.353 285.847 286.68 286.2 286.907 286.68C287.147 287.147 287.267 287.78 287.267 288.58C287.267 289.38 287.18 290.02 287.007 290.5C286.847 290.967 286.58 291.347 286.207 291.64C285.847 291.92 285.367 292.187 284.767 292.44L280.647 294.18C280.3 294.327 280.047 294.493 279.887 294.68C279.74 294.867 279.647 295.113 279.607 295.42C279.567 295.713 279.547 296.093 279.547 296.56V297.5H287.267V299H277.887ZM291.024 299L296.624 286.74H289.064V285.24H298.524V286.58L292.944 299H291.024Z" fill="white"/>
<path d="M324.195 299V297.4C324.195 296.64 324.209 296.007 324.235 295.5C324.275 294.98 324.369 294.553 324.515 294.22C324.662 293.887 324.889 293.6 325.195 293.36C325.515 293.12 325.962 292.88 326.535 292.64L330.155 291.1C330.635 290.887 330.995 290.687 331.235 290.5C331.475 290.313 331.635 290.087 331.715 289.82C331.809 289.553 331.855 289.2 331.855 288.76C331.855 288.12 331.755 287.647 331.555 287.34C331.369 287.02 331.029 286.813 330.535 286.72C330.055 286.613 329.369 286.56 328.475 286.56C328.155 286.56 327.762 286.573 327.295 286.6C326.842 286.627 326.369 286.66 325.875 286.7C325.382 286.727 324.915 286.767 324.475 286.82V285.42C324.862 285.353 325.309 285.3 325.815 285.26C326.335 285.207 326.869 285.167 327.415 285.14C327.975 285.1 328.502 285.08 328.995 285.08C329.635 285.08 330.229 285.113 330.775 285.18C331.322 285.247 331.809 285.393 332.235 285.62C332.662 285.847 332.989 286.2 333.215 286.68C333.455 287.147 333.575 287.78 333.575 288.58C333.575 289.38 333.489 290.02 333.315 290.5C333.155 290.967 332.889 291.347 332.515 291.64C332.155 291.92 331.675 292.187 331.075 292.44L326.955 294.18C326.609 294.327 326.355 294.493 326.195 294.68C326.049 294.867 325.955 295.113 325.915 295.42C325.875 295.713 325.855 296.093 325.855 296.56V297.5H333.575V299H324.195ZM341.372 299.16C340.252 299.16 339.339 299.08 338.632 298.92C337.926 298.747 337.386 298.5 337.012 298.18C336.639 297.847 336.379 297.447 336.232 296.98C336.099 296.5 336.032 295.947 336.032 295.32C336.032 294.533 336.126 293.927 336.312 293.5C336.512 293.06 336.799 292.733 337.172 292.52C337.546 292.307 337.999 292.14 338.532 292.02V291.94C337.719 291.78 337.119 291.453 336.732 290.96C336.346 290.453 336.152 289.7 336.152 288.7C336.152 288.087 336.232 287.553 336.392 287.1C336.552 286.647 336.826 286.273 337.212 285.98C337.599 285.673 338.132 285.447 338.812 285.3C339.492 285.153 340.346 285.08 341.372 285.08C342.399 285.08 343.252 285.153 343.932 285.3C344.612 285.447 345.146 285.673 345.532 285.98C345.919 286.273 346.192 286.647 346.352 287.1C346.512 287.553 346.592 288.087 346.592 288.7C346.592 289.7 346.399 290.453 346.012 290.96C345.626 291.453 345.026 291.78 344.212 291.94V292.02C344.759 292.14 345.212 292.307 345.572 292.52C345.946 292.733 346.226 293.06 346.412 293.5C346.612 293.927 346.712 294.533 346.712 295.32C346.712 295.947 346.639 296.5 346.492 296.98C346.359 297.447 346.099 297.847 345.712 298.18C345.339 298.5 344.806 298.747 344.112 298.92C343.419 299.08 342.506 299.16 341.372 299.16ZM341.372 297.68C342.292 297.68 343.012 297.627 343.532 297.52C344.052 297.4 344.419 297.167 344.632 296.82C344.859 296.473 344.972 295.953 344.972 295.26C344.972 294.713 344.919 294.28 344.812 293.96C344.706 293.627 344.519 293.373 344.252 293.2C343.999 293.027 343.639 292.913 343.172 292.86C342.706 292.807 342.106 292.78 341.372 292.78C340.639 292.78 340.039 292.807 339.572 292.86C339.106 292.913 338.739 293.027 338.472 293.2C338.219 293.373 338.039 293.627 337.932 293.96C337.839 294.28 337.792 294.713 337.792 295.26C337.792 295.953 337.899 296.473 338.112 296.82C338.326 297.167 338.692 297.4 339.212 297.52C339.732 297.627 340.452 297.68 341.372 297.68ZM341.372 291.3C342.319 291.3 343.039 291.24 343.532 291.12C344.026 290.987 344.366 290.753 344.552 290.42C344.752 290.073 344.852 289.58 344.852 288.94C344.852 288.3 344.759 287.813 344.572 287.48C344.399 287.133 344.059 286.893 343.552 286.76C343.059 286.627 342.332 286.56 341.372 286.56C340.412 286.56 339.679 286.627 339.172 286.76C338.679 286.893 338.346 287.133 338.172 287.48C337.999 287.813 337.912 288.3 337.912 288.94C337.912 289.58 338.006 290.073 338.192 290.42C338.379 290.753 338.719 290.987 339.212 291.12C339.719 291.24 340.439 291.3 341.372 291.3Z" fill="white"/>
<path d="M372.449 299V297.4C372.449 296.64 372.463 296.007 372.489 295.5C372.529 294.98 372.623 294.553 372.769 294.22C372.916 293.887 373.143 293.6 373.449 293.36C373.769 293.12 374.216 292.88 374.789 292.64L378.409 291.1C378.889 290.887 379.249 290.687 379.489 290.5C379.729 290.313 379.889 290.087 379.969 289.82C380.063 289.553 380.109 289.2 380.109 288.76C380.109 288.12 380.009 287.647 379.809 287.34C379.623 287.02 379.283 286.813 378.789 286.72C378.309 286.613 377.623 286.56 376.729 286.56C376.409 286.56 376.016 286.573 375.549 286.6C375.096 286.627 374.623 286.66 374.129 286.7C373.636 286.727 373.169 286.767 372.729 286.82V285.42C373.116 285.353 373.563 285.3 374.069 285.26C374.589 285.207 375.123 285.167 375.669 285.14C376.229 285.1 376.756 285.08 377.249 285.08C377.889 285.08 378.483 285.113 379.029 285.18C379.576 285.247 380.063 285.393 380.489 285.62C380.916 285.847 381.243 286.2 381.469 286.68C381.709 287.147 381.829 287.78 381.829 288.58C381.829 289.38 381.743 290.02 381.569 290.5C381.409 290.967 381.143 291.347 380.769 291.64C380.409 291.92 379.929 292.187 379.329 292.44L375.209 294.18C374.863 294.327 374.609 294.493 374.449 294.68C374.303 294.867 374.209 295.113 374.169 295.42C374.129 295.713 374.109 296.093 374.109 296.56V297.5H381.829V299H372.449ZM388.866 299.16C388.506 299.16 388.093 299.14 387.626 299.1C387.16 299.073 386.68 299.033 386.186 298.98C385.693 298.927 385.226 298.867 384.786 298.8V297.42C385.2 297.46 385.633 297.5 386.086 297.54C386.54 297.58 386.98 297.613 387.406 297.64C387.833 297.667 388.2 297.68 388.506 297.68C389.44 297.68 390.18 297.613 390.726 297.48C391.286 297.347 391.706 297.1 391.986 296.74C392.266 296.38 392.446 295.86 392.526 295.18C392.62 294.487 392.666 293.58 392.666 292.46H392.546C392.413 292.62 392.213 292.78 391.946 292.94C391.68 293.087 391.286 293.213 390.766 293.32C390.246 293.413 389.553 293.46 388.686 293.46C387.846 293.46 387.126 293.413 386.526 293.32C385.94 293.227 385.46 293.047 385.086 292.78C384.713 292.513 384.44 292.127 384.266 291.62C384.106 291.113 384.026 290.44 384.026 289.6C384.026 288.72 384.086 287.987 384.206 287.4C384.34 286.813 384.58 286.353 384.926 286.02C385.286 285.687 385.793 285.447 386.446 285.3C387.1 285.153 387.953 285.08 389.006 285.08C389.966 285.08 390.78 285.127 391.446 285.22C392.113 285.313 392.653 285.513 393.066 285.82C393.48 286.113 393.786 286.58 393.986 287.22C394.16 287.727 394.273 288.373 394.326 289.16C394.38 289.933 394.406 290.873 394.406 291.98C394.406 292.753 394.386 293.453 394.346 294.08C394.32 294.707 394.26 295.267 394.166 295.76C394.086 296.24 393.966 296.673 393.806 297.06C393.58 297.607 393.253 298.033 392.826 298.34C392.413 298.647 391.88 298.86 391.226 298.98C390.586 299.1 389.8 299.16 388.866 299.16ZM389.166 291.98C389.953 291.98 390.58 291.94 391.046 291.86C391.513 291.78 391.853 291.653 392.066 291.48C392.293 291.293 392.44 291.06 392.506 290.78C392.573 290.5 392.606 290.16 392.606 289.76C392.606 289.027 392.546 288.447 392.426 288.02C392.32 287.593 392.14 287.273 391.886 287.06C391.633 286.847 391.28 286.713 390.826 286.66C390.386 286.593 389.833 286.56 389.166 286.56C388.46 286.56 387.88 286.587 387.426 286.64C386.986 286.693 386.64 286.813 386.386 287C386.133 287.173 385.953 287.433 385.846 287.78C385.753 288.127 385.706 288.607 385.706 289.22C385.706 289.86 385.753 290.367 385.846 290.74C385.953 291.113 386.126 291.393 386.366 291.58C386.606 291.753 386.953 291.867 387.406 291.92C387.86 291.96 388.446 291.98 389.166 291.98Z" fill="white"/>
<path d="M91.2902 350.16C90.8768 350.16 90.4168 350.14 89.9102 350.1C89.4168 350.073 88.9302 350.033 88.4502 349.98C87.9835 349.927 87.5702 349.873 87.2102 349.82V348.44C87.6635 348.48 88.1368 348.52 88.6302 348.56C89.1235 348.6 89.5902 348.633 90.0302 348.66C90.4702 348.673 90.8502 348.68 91.1702 348.68C91.9568 348.68 92.6235 348.633 93.1702 348.54C93.7168 348.433 94.1235 348.213 94.3902 347.88C94.6702 347.533 94.8102 346.993 94.8102 346.26C94.8102 345.647 94.7235 345.16 94.5502 344.8C94.3768 344.427 94.0968 344.167 93.7102 344.02C93.3235 343.86 92.8102 343.78 92.1702 343.78H89.5902V342.28H92.1702C92.6235 342.28 93.0368 342.22 93.4102 342.1C93.7835 341.98 94.0835 341.753 94.3102 341.42C94.5368 341.087 94.6502 340.593 94.6502 339.94C94.6502 339.22 94.5302 338.693 94.2902 338.36C94.0502 338.027 93.6568 337.813 93.1102 337.72C92.5768 337.613 91.8635 337.56 90.9702 337.56C90.6102 337.56 90.2102 337.573 89.7702 337.6C89.3302 337.627 88.8902 337.66 88.4502 337.7C88.0235 337.727 87.6368 337.767 87.2902 337.82V336.42C87.6502 336.353 88.0635 336.3 88.5302 336.26C88.9968 336.207 89.4768 336.167 89.9702 336.14C90.4635 336.1 90.9102 336.08 91.3102 336.08C92.2835 336.08 93.0968 336.153 93.7502 336.3C94.4035 336.447 94.9235 336.667 95.3102 336.96C95.6968 337.253 95.9702 337.627 96.1302 338.08C96.3035 338.533 96.3902 339.073 96.3902 339.7C96.3902 340.7 96.1835 341.447 95.7702 341.94C95.3702 342.433 94.7968 342.767 94.0502 342.94V343.02C94.5568 343.113 94.9968 343.273 95.3702 343.5C95.7435 343.727 96.0302 344.067 96.2302 344.52C96.4435 344.973 96.5502 345.573 96.5502 346.32C96.5502 346.907 96.4768 347.44 96.3302 347.92C96.1968 348.387 95.9435 348.787 95.5702 349.12C95.1968 349.453 94.6635 349.713 93.9702 349.9C93.2902 350.073 92.3968 350.16 91.2902 350.16ZM104.272 350.16C103.272 350.16 102.445 350.107 101.792 350C101.152 349.88 100.645 349.673 100.272 349.38C99.9119 349.087 99.6452 348.68 99.4719 348.16C99.3119 347.627 99.2052 346.953 99.1519 346.14C99.1119 345.313 99.0919 344.307 99.0919 343.12C99.0919 341.933 99.1119 340.933 99.1519 340.12C99.2052 339.293 99.3119 338.62 99.4719 338.1C99.6452 337.567 99.9119 337.153 100.272 336.86C100.645 336.567 101.152 336.367 101.792 336.26C102.445 336.14 103.272 336.08 104.272 336.08C105.272 336.08 106.092 336.14 106.732 336.26C107.385 336.367 107.892 336.567 108.252 336.86C108.625 337.153 108.899 337.567 109.072 338.1C109.245 338.62 109.352 339.293 109.392 340.12C109.432 340.933 109.452 341.933 109.452 343.12C109.452 344.307 109.432 345.313 109.392 346.14C109.352 346.953 109.245 347.627 109.072 348.16C108.899 348.68 108.625 349.087 108.252 349.38C107.892 349.673 107.385 349.88 106.732 350C106.092 350.107 105.272 350.16 104.272 350.16ZM104.272 348.68C104.952 348.68 105.505 348.66 105.932 348.62C106.359 348.567 106.692 348.453 106.932 348.28C107.185 348.107 107.365 347.82 107.472 347.42C107.592 347.02 107.665 346.473 107.692 345.78C107.732 345.087 107.752 344.2 107.752 343.12C107.752 342.04 107.732 341.153 107.692 340.46C107.665 339.767 107.592 339.22 107.472 338.82C107.365 338.42 107.185 338.133 106.932 337.96C106.692 337.787 106.359 337.68 105.932 337.64C105.505 337.587 104.952 337.56 104.272 337.56C103.619 337.56 103.072 337.587 102.632 337.64C102.192 337.68 101.845 337.787 101.592 337.96C101.352 338.133 101.172 338.42 101.052 338.82C100.945 339.22 100.879 339.767 100.852 340.46C100.825 341.153 100.812 342.04 100.812 343.12C100.812 344.2 100.825 345.087 100.852 345.78C100.879 346.473 100.945 347.02 101.052 347.42C101.172 347.82 101.352 348.107 101.592 348.28C101.845 348.453 102.185 348.567 102.612 348.62C103.052 348.66 103.605 348.68 104.272 348.68Z" fill="white"/>
<mask id="path-46-inside-1_446_1011" fill="white">
<path d="M76 372H421V383H76V372Z"/>
</mask>
<path d="M421 382.667H76V383.333H421V382.667Z" fill="#545456" fill-opacity="0.34" mask="url(#path-46-inside-1_446_1011)"/>
<path d="M81.593 411.136C81.1737 411.136 80.7147 411.125 80.216 411.102C79.7173 411.079 79.23 411.051 78.754 411.017C78.2893 410.983 77.8643 410.943 77.479 410.898V409.657C77.887 409.691 78.312 409.725 78.754 409.759C79.2073 409.793 79.6437 409.821 80.063 409.844C80.4937 409.867 80.8563 409.878 81.151 409.878C81.7517 409.878 82.2333 409.855 82.596 409.81C82.9587 409.753 83.2647 409.651 83.514 409.504C83.684 409.402 83.8087 409.266 83.888 409.096C83.9673 408.926 84.0127 408.728 84.024 408.501C84.0467 408.274 84.058 408.031 84.058 407.77C84.058 407.385 84.0467 407.073 84.024 406.835C84.0013 406.597 83.939 406.416 83.837 406.291C83.7463 406.155 83.5933 406.059 83.378 406.002C83.1627 405.934 82.8737 405.883 82.511 405.849L79.604 405.526C79.06 405.458 78.6237 405.345 78.295 405.186C77.9663 405.016 77.717 404.806 77.547 404.557C77.3883 404.296 77.2807 403.99 77.224 403.639C77.1673 403.276 77.139 402.874 77.139 402.432C77.139 401.718 77.2297 401.146 77.411 400.715C77.6037 400.284 77.8813 399.956 78.244 399.729C78.6067 399.502 79.043 399.355 79.553 399.287C80.0743 399.208 80.6693 399.168 81.338 399.168C81.7687 399.168 82.2107 399.179 82.664 399.202C83.1173 399.225 83.5423 399.259 83.939 399.304C84.347 399.338 84.6813 399.383 84.942 399.44V400.647C84.6473 400.602 84.3073 400.562 83.922 400.528C83.5367 400.494 83.14 400.471 82.732 400.46C82.3353 400.437 81.9557 400.426 81.593 400.426C80.9697 400.426 80.4653 400.454 80.08 400.511C79.6947 400.568 79.3887 400.67 79.162 400.817C78.9127 400.964 78.754 401.174 78.686 401.446C78.6293 401.707 78.601 402.024 78.601 402.398C78.601 402.84 78.6293 403.186 78.686 403.435C78.754 403.673 78.89 403.843 79.094 403.945C79.3093 404.036 79.6267 404.104 80.046 404.149L82.885 404.472C83.293 404.506 83.65 404.563 83.956 404.642C84.2733 404.71 84.5453 404.829 84.772 404.999C84.9987 405.169 85.1687 405.413 85.282 405.73C85.35 405.889 85.401 406.064 85.435 406.257C85.469 406.45 85.4917 406.665 85.503 406.903C85.5257 407.13 85.537 407.385 85.537 407.668C85.537 408.314 85.4747 408.852 85.35 409.283C85.2253 409.702 85.0497 410.037 84.823 410.286C84.5963 410.535 84.3187 410.722 83.99 410.847C83.6613 410.972 83.293 411.051 82.885 411.085C82.4883 411.119 82.0577 411.136 81.593 411.136ZM88.2718 411V403.503H86.5208V402.33H88.2718V399.814H89.6488V402.33H91.7228V403.503H89.6488V411H88.2718ZM95.3665 411.136C94.7319 411.136 94.1992 411.062 93.7685 410.915C93.3492 410.768 93.0319 410.513 92.8165 410.15C92.6125 409.787 92.5105 409.277 92.5105 408.62C92.5105 407.963 92.5842 407.447 92.7315 407.073C92.8902 406.688 93.1622 406.416 93.5475 406.257C93.9329 406.098 94.4712 406.019 95.1625 406.019C95.2759 406.019 95.4515 406.025 95.6895 406.036C95.9389 406.036 96.2222 406.042 96.5395 406.053C96.8569 406.053 97.1742 406.059 97.4915 406.07C97.8202 406.07 98.1205 406.076 98.3925 406.087V405.543C98.3925 405.033 98.3585 404.636 98.2905 404.353C98.2339 404.058 98.1092 403.843 97.9165 403.707C97.7239 403.56 97.4519 403.469 97.1005 403.435C96.7605 403.39 96.3072 403.367 95.7405 403.367C95.4912 403.367 95.1965 403.378 94.8565 403.401C94.5165 403.412 94.1822 403.435 93.8535 403.469C93.5362 403.492 93.2812 403.52 93.0885 403.554V402.432C93.5192 402.353 94.0009 402.296 94.5335 402.262C95.0775 402.217 95.6385 402.194 96.2165 402.194C96.8285 402.194 97.3442 402.234 97.7635 402.313C98.1942 402.381 98.5399 402.494 98.8005 402.653C99.0725 402.812 99.2765 403.021 99.4125 403.282C99.5485 403.543 99.6392 403.86 99.6845 404.234C99.7412 404.608 99.7695 405.044 99.7695 405.543V411H98.5285L98.4775 409.776H98.3755C98.1942 410.173 97.9335 410.473 97.5935 410.677C97.2649 410.87 96.9022 410.994 96.5055 411.051C96.1089 411.108 95.7292 411.136 95.3665 411.136ZM95.8765 409.997C96.2052 409.997 96.5112 409.98 96.7945 409.946C97.0779 409.901 97.3272 409.821 97.5425 409.708C97.7579 409.595 97.9279 409.425 98.0525 409.198C98.1772 408.96 98.2622 408.705 98.3075 408.433C98.3642 408.15 98.3925 407.821 98.3925 407.447V407.005H95.5025C95.0605 407.005 94.7205 407.039 94.4825 407.107C94.2445 407.175 94.0802 407.317 93.9895 407.532C93.9102 407.747 93.8705 408.07 93.8705 408.501C93.8705 408.92 93.9215 409.238 94.0235 409.453C94.1255 409.668 94.3182 409.816 94.6015 409.895C94.8962 409.963 95.3212 409.997 95.8765 409.997ZM102.286 411V402.33H103.527L103.595 403.996H103.697C103.845 403.509 104.054 403.135 104.326 402.874C104.598 402.613 104.927 402.438 105.312 402.347C105.698 402.245 106.123 402.194 106.587 402.194V403.554C105.805 403.554 105.205 403.679 104.785 403.928C104.366 404.177 104.077 404.563 103.918 405.084C103.76 405.605 103.68 406.263 103.68 407.056V411H102.286ZM108.829 411V403.503H107.078V402.33H108.829V399.814H110.206V402.33H112.28V403.503H110.206V411H108.829ZM116.651 411.136C116.323 411.136 115.971 411.125 115.597 411.102C115.223 411.079 114.855 411.051 114.492 411.017C114.13 410.994 113.801 410.96 113.506 410.915V409.793C113.778 409.816 114.039 409.838 114.288 409.861C114.549 409.884 114.804 409.906 115.053 409.929C115.303 409.94 115.552 409.952 115.801 409.963C116.051 409.963 116.306 409.963 116.566 409.963C117.156 409.963 117.581 409.923 117.841 409.844C118.113 409.753 118.289 409.606 118.368 409.402C118.459 409.198 118.504 408.932 118.504 408.603C118.504 408.229 118.47 407.957 118.402 407.787C118.346 407.617 118.238 407.509 118.079 407.464C117.932 407.407 117.705 407.362 117.399 407.328L115.155 407.073C114.623 407.016 114.22 406.903 113.948 406.733C113.676 406.552 113.489 406.297 113.387 405.968C113.285 405.639 113.234 405.226 113.234 404.727C113.234 404.16 113.314 403.707 113.472 403.367C113.631 403.027 113.858 402.772 114.152 402.602C114.447 402.432 114.804 402.324 115.223 402.279C115.643 402.222 116.113 402.194 116.634 402.194C116.929 402.194 117.241 402.205 117.569 402.228C117.898 402.251 118.221 402.279 118.538 402.313C118.856 402.347 119.128 402.387 119.354 402.432V403.554C119.06 403.509 118.759 403.475 118.453 403.452C118.159 403.418 117.853 403.395 117.535 403.384C117.229 403.373 116.918 403.367 116.6 403.367C116.17 403.367 115.801 403.39 115.495 403.435C115.189 403.48 114.957 403.594 114.798 403.775C114.651 403.956 114.577 404.257 114.577 404.676C114.577 405.005 114.6 405.254 114.645 405.424C114.702 405.583 114.81 405.696 114.968 405.764C115.127 405.821 115.348 405.866 115.631 405.9L117.977 406.155C118.442 406.2 118.805 406.291 119.065 406.427C119.337 406.552 119.53 406.778 119.643 407.107C119.768 407.436 119.83 407.929 119.83 408.586C119.83 409.13 119.762 409.572 119.626 409.912C119.502 410.241 119.303 410.496 119.031 410.677C118.759 410.858 118.425 410.977 118.028 411.034C117.632 411.102 117.173 411.136 116.651 411.136Z" fill="black"/>
<rect x="210" y="388" width="71" height="34" rx="6" fill="#787880" fill-opacity="0.12"/>
<path d="M231.309 411V400.97L228.895 402.143V400.834L231.734 399.304H232.771V411H231.309ZM235.401 411V409.64C235.401 408.994 235.412 408.456 235.435 408.025C235.469 407.583 235.548 407.22 235.673 406.937C235.798 406.654 235.99 406.41 236.251 406.206C236.523 406.002 236.903 405.798 237.39 405.594L240.467 404.285C240.875 404.104 241.181 403.934 241.385 403.775C241.589 403.616 241.725 403.424 241.793 403.197C241.872 402.97 241.912 402.67 241.912 402.296C241.912 401.752 241.827 401.35 241.657 401.089C241.498 400.817 241.209 400.641 240.79 400.562C240.382 400.471 239.798 400.426 239.039 400.426C238.767 400.426 238.433 400.437 238.036 400.46C237.651 400.483 237.248 400.511 236.829 400.545C236.41 400.568 236.013 400.602 235.639 400.647V399.457C235.968 399.4 236.347 399.355 236.778 399.321C237.22 399.276 237.673 399.242 238.138 399.219C238.614 399.185 239.062 399.168 239.481 399.168C240.025 399.168 240.529 399.196 240.994 399.253C241.459 399.31 241.872 399.434 242.235 399.627C242.598 399.82 242.875 400.12 243.068 400.528C243.272 400.925 243.374 401.463 243.374 402.143C243.374 402.823 243.3 403.367 243.153 403.775C243.017 404.172 242.79 404.495 242.473 404.744C242.167 404.982 241.759 405.209 241.249 405.424L237.747 406.903C237.452 407.028 237.237 407.169 237.101 407.328C236.976 407.487 236.897 407.696 236.863 407.957C236.829 408.206 236.812 408.529 236.812 408.926V409.725H243.374V411H235.401ZM245.245 403.996V402.33H246.86V403.996H245.245ZM245.245 411V409.334H246.86V411H245.245ZM253.207 411.136C252.357 411.136 251.654 411.091 251.099 411C250.555 410.898 250.124 410.722 249.807 410.473C249.501 410.224 249.274 409.878 249.127 409.436C248.991 408.983 248.9 408.41 248.855 407.719C248.821 407.016 248.804 406.161 248.804 405.152C248.804 404.143 248.821 403.293 248.855 402.602C248.9 401.899 248.991 401.327 249.127 400.885C249.274 400.432 249.501 400.08 249.807 399.831C250.124 399.582 250.555 399.412 251.099 399.321C251.654 399.219 252.357 399.168 253.207 399.168C254.057 399.168 254.754 399.219 255.298 399.321C255.853 399.412 256.284 399.582 256.59 399.831C256.907 400.08 257.14 400.432 257.287 400.885C257.434 401.327 257.525 401.899 257.559 402.602C257.593 403.293 257.61 404.143 257.61 405.152C257.61 406.161 257.593 407.016 257.559 407.719C257.525 408.41 257.434 408.983 257.287 409.436C257.14 409.878 256.907 410.224 256.59 410.473C256.284 410.722 255.853 410.898 255.298 411C254.754 411.091 254.057 411.136 253.207 411.136ZM253.207 409.878C253.785 409.878 254.255 409.861 254.618 409.827C254.981 409.782 255.264 409.685 255.468 409.538C255.683 409.391 255.836 409.147 255.927 408.807C256.029 408.467 256.091 408.002 256.114 407.413C256.148 406.824 256.165 406.07 256.165 405.152C256.165 404.234 256.148 403.48 256.114 402.891C256.091 402.302 256.029 401.837 255.927 401.497C255.836 401.157 255.683 400.913 255.468 400.766C255.264 400.619 254.981 400.528 254.618 400.494C254.255 400.449 253.785 400.426 253.207 400.426C252.652 400.426 252.187 400.449 251.813 400.494C251.439 400.528 251.144 400.619 250.929 400.766C250.725 400.913 250.572 401.157 250.47 401.497C250.379 401.837 250.323 402.302 250.3 402.891C250.277 403.48 250.266 404.234 250.266 405.152C250.266 406.07 250.277 406.824 250.3 407.413C250.323 408.002 250.379 408.467 250.47 408.807C250.572 409.147 250.725 409.391 250.929 409.538C251.144 409.685 251.433 409.782 251.796 409.827C252.17 409.861 252.64 409.878 253.207 409.878ZM264.182 411.136C263.332 411.136 262.63 411.091 262.074 411C261.53 410.898 261.1 410.722 260.782 410.473C260.476 410.224 260.25 409.878 260.102 409.436C259.966 408.983 259.876 408.41 259.83 407.719C259.796 407.016 259.779 406.161 259.779 405.152C259.779 404.143 259.796 403.293 259.83 402.602C259.876 401.899 259.966 401.327 260.102 400.885C260.25 400.432 260.476 400.08 260.782 399.831C261.1 399.582 261.53 399.412 262.074 399.321C262.63 399.219 263.332 399.168 264.182 399.168C265.032 399.168 265.729 399.219 266.273 399.321C266.829 399.412 267.259 399.582 267.565 399.831C267.883 400.08 268.115 400.432 268.262 400.885C268.41 401.327 268.5 401.899 268.534 402.602C268.568 403.293 268.585 404.143 268.585 405.152C268.585 406.161 268.568 407.016 268.534 407.719C268.5 408.41 268.41 408.983 268.262 409.436C268.115 409.878 267.883 410.224 267.565 410.473C267.259 410.722 266.829 410.898 266.273 411C265.729 411.091 265.032 411.136 264.182 411.136ZM264.182 409.878C264.76 409.878 265.231 409.861 265.593 409.827C265.956 409.782 266.239 409.685 266.443 409.538C266.659 409.391 266.812 409.147 266.902 408.807C267.004 408.467 267.067 408.002 267.089 407.413C267.123 406.824 267.14 406.07 267.14 405.152C267.14 404.234 267.123 403.48 267.089 402.891C267.067 402.302 267.004 401.837 266.902 401.497C266.812 401.157 266.659 400.913 266.443 400.766C266.239 400.619 265.956 400.528 265.593 400.494C265.231 400.449 264.76 400.426 264.182 400.426C263.627 400.426 263.162 400.449 262.788 400.494C262.414 400.528 262.12 400.619 261.904 400.766C261.7 400.913 261.547 401.157 261.445 401.497C261.355 401.837 261.298 402.302 261.275 402.891C261.253 403.48 261.241 404.234 261.241 405.152C261.241 406.07 261.253 406.824 261.275 407.413C261.298 408.002 261.355 408.467 261.445 408.807C261.547 409.147 261.7 409.391 261.904 409.538C262.12 409.685 262.409 409.782 262.771 409.827C263.145 409.861 263.616 409.878 264.182 409.878Z" fill="black"/>
<g clip-path="url(#clip0_446_1011)">
<rect x="289" y="388" width="116" height="34" rx="9" fill="#787880" fill-opacity="0.12"/>
<g filter="url(#filter2_dd_446_1011)">
<rect x="291" y="390" width="56" height="30" rx="7" fill="white"/>
<rect x="290.75" y="389.75" width="56.5" height="30.5" rx="7.25" stroke="black" stroke-opacity="0.04" stroke-width="0.5"/>
</g>
<path d="M309.433 410L312.462 401.056H314.932L317.961 410H316.076L315.413 408.024H311.916L311.279 410H309.433ZM312.384 406.529H314.932L313.697 402.733H313.619L312.384 406.529ZM319.136 410V401.056H321.671L323.881 406.958H323.959L326.156 401.056H328.678V410H326.897V403.773H326.832L324.518 410H323.244L320.93 403.773H320.865V410H319.136Z" fill="black"/>
<path d="M366.709 410V401.056H370.622C371.194 401.056 371.649 401.13 371.987 401.277C372.334 401.416 372.589 401.611 372.754 401.862C372.927 402.113 373.044 402.412 373.105 402.759C373.166 403.097 373.196 403.47 373.196 403.877C373.196 404.267 373.166 404.635 373.105 404.982C373.053 405.32 372.94 405.619 372.767 405.879C372.594 406.139 372.334 406.343 371.987 406.49C371.64 406.637 371.177 406.711 370.596 406.711H367.827V410H366.709ZM367.827 405.736H370.232C370.657 405.736 370.99 405.701 371.233 405.632C371.484 405.563 371.671 405.454 371.792 405.307C371.913 405.151 371.991 404.956 372.026 404.722C372.061 404.488 372.078 404.206 372.078 403.877C372.078 403.548 372.061 403.266 372.026 403.032C372 402.798 371.926 402.607 371.805 402.46C371.692 402.313 371.51 402.204 371.259 402.135C371.016 402.057 370.683 402.018 370.258 402.018H367.827V405.736ZM375.11 410V401.056H376.618L379.673 408.18H379.738L382.78 401.056H384.288V410H383.196V402.85H383.144L380.089 410H379.27L376.215 402.85H376.163V410H375.11Z" fill="black"/>
</g>
</g>
<defs>
<filter id="filter0_d_446_1011" x="0" y="-5" width="481" height="504" filterUnits="userSpaceOnUse" color-interpolation-filters="sRGB">
<feFlood flood-opacity="0" result="BackgroundImageFix"/>
<feColorMatrix in="SourceAlpha" type="matrix" values="0 0 0 0 0 0 0 0 0 0 0 0 0 0 0 0 0 0 127 0" result="hardAlpha"/>
<feOffset dy="10"/>
<feGaussianBlur stdDeviation="30"/>
<feComposite in2="hardAlpha" operator="out"/>
<feColorMatrix type="matrix" values="0 0 0 0 0 0 0 0 0 0 0 0 0 0 0 0 0 0 0.1 0"/>
<feBlend mode="normal" in2="BackgroundImageFix" result="effect1_dropShadow_446_1011"/>
<feBlend mode="normal" in="SourceGraphic" in2="effect1_dropShadow_446_1011" result="shape"/>
</filter>
<filter id="filter1_bd_446_1011" x="303" y="208" width="65" height="65" filterUnits="userSpaceOnUse" color-interpolation-filters="sRGB">
<feFlood flood-opacity="0" result="BackgroundImageFix"/>
<feGaussianBlur in="BackgroundImageFix" stdDeviation="10"/>
<feComposite in2="SourceAlpha" operator="in" result="effect1_backgroundBlur_446_1011"/>
<feColorMatrix in="SourceAlpha" type="matrix" values="0 0 0 0 0 0 0 0 0 0 0 0 0 0 0 0 0 0 127 0" result="hardAlpha"/>
<feOffset dy="4"/>
<feGaussianBlur stdDeviation="2"/>
<feComposite in2="hardAlpha" operator="out"/>
<feColorMatrix type="matrix" values="0 0 0 0 0 0 0 0 0 0 0 0 0 0 0 0 0 0 0.25 0"/>
<feBlend mode="normal" in2="effect1_backgroundBlur_446_1011" result="effect2_dropShadow_446_1011"/>
<feBlend mode="normal" in="SourceGraphic" in2="effect2_dropShadow_446_1011" result="shape"/>
</filter>
<filter id="filter2_dd_446_1011" x="282.5" y="384.5" width="73" height="47" filterUnits="userSpaceOnUse" color-interpolation-filters="sRGB">
<feFlood flood-opacity="0" result="BackgroundImageFix"/>
<feColorMatrix in="SourceAlpha" type="matrix" values="0 0 0 0 0 0 0 0 0 0 0 0 0 0 0 0 0 0 127 0" result="hardAlpha"/>
<feOffset dy="3"/>
<feGaussianBlur stdDeviation="0.5"/>
<feColorMatrix type="matrix" values="0 0 0 0 0 0 0 0 0 0 0 0 0 0 0 0 0 0 0.04 0"/>
<feBlend mode="normal" in2="BackgroundImageFix" result="effect1_dropShadow_446_1011"/>
<feColorMatrix in="SourceAlpha" type="matrix" values="0 0 0 0 0 0 0 0 0 0 0 0 0 0 0 0 0 0 127 0" result="hardAlpha"/>
<feOffset dy="3"/>
<feGaussianBlur stdDeviation="4"/>
<feColorMatrix type="matrix" values="0 0 0 0 0 0 0 0 0 0 0 0 0 0 0 0 0 0 0.12 0"/>
<feBlend mode="normal" in2="effect1_dropShadow_446_1011" result="effect2_dropShadow_446_1011"/>
<feBlend mode="normal" in="SourceGraphic" in2="effect2_dropShadow_446_1011" result="shape"/>
</filter>
<clipPath id="clip0_446_1011">
<rect x="289" y="388" width="116" height="34" rx="9" fill="white"/>
</clipPath>
</defs>
</svg>
