<svg width="413" height="201" viewBox="0 0 413 201" fill="none" xmlns="http://www.w3.org/2000/svg">
<path d="M127.392 110.809C122.881 103.036 113.172 97.6577 101.913 97.6577C90.6541 97.6577 80.9457 103.036 76.4349 110.809C68.3753 114.57 63.2836 120.082 63.2836 126.23C63.2836 137.563 80.5766 146.75 101.913 146.75C123.25 146.75 140.543 137.563 140.543 126.23C140.543 120.082 135.451 114.57 127.392 110.809Z" stroke="#007581" stroke-width="7" stroke-miterlimit="10"/>
<path d="M127.467 72.0909C129.405 63.916 125.894 56.0837 119.624 54.5969C113.354 53.1102 106.7 58.532 104.762 66.7068C102.823 74.8817 106.334 82.714 112.604 84.2008C118.874 85.6876 125.528 80.2658 127.467 72.0909Z" stroke="#007581" stroke-width="7" stroke-miterlimit="10"/>
<path d="M87.1019 84.1946C93.3717 82.7078 96.883 74.8755 94.9445 66.7006C93.006 58.5257 86.3519 53.1039 80.082 54.5907C73.8121 56.0775 70.3008 63.9098 72.2393 72.0847C74.1778 80.2595 80.832 85.6813 87.1019 84.1946Z" stroke="#007581" stroke-width="7" stroke-miterlimit="10"/>
<path d="M65.1423 105.92C70.0468 103.089 71.0303 95.6103 67.339 89.2168C63.6477 82.8233 56.6795 79.9359 51.775 82.7675C46.8705 85.5991 45.887 93.0775 49.5783 99.4709C53.2696 105.864 60.2378 108.752 65.1423 105.92Z" stroke="#007581" stroke-width="7" stroke-miterlimit="10"/>
<path d="M151.425 96.0127C155.116 89.6192 154.132 82.1408 149.228 79.3092C144.323 76.4776 137.355 79.3651 133.664 85.7586C129.973 92.152 130.956 99.6304 135.861 102.462C140.765 105.294 147.733 102.406 151.425 96.0127Z" stroke="#007581" stroke-width="7" stroke-miterlimit="10"/>
<path d="M206.75 118V83.6H208.55V99.75H230.35V83.6H232.15V118H230.35V101.45H208.55V118H206.75ZM252.464 118.4C250.564 118.4 248.964 118.283 247.664 118.05C246.397 117.817 245.364 117.417 244.564 116.85C243.764 116.25 243.147 115.45 242.714 114.45C242.314 113.45 242.031 112.2 241.864 110.7C241.731 109.2 241.664 107.4 241.664 105.3C241.664 102.8 241.747 100.717 241.914 99.05C242.081 97.35 242.497 96 243.164 95C243.831 93.9667 244.914 93.2333 246.414 92.8C247.914 92.3333 249.981 92.1 252.614 92.1C254.447 92.1 255.947 92.2333 257.114 92.5C258.314 92.7667 259.247 93.2 259.914 93.8C260.614 94.3667 261.131 95.1667 261.464 96.2C261.797 97.2 262.014 98.45 262.114 99.95C262.214 101.417 262.264 103.167 262.264 105.2V105.85H243.414C243.414 108.05 243.514 109.867 243.714 111.3C243.914 112.733 244.314 113.85 244.914 114.65C245.514 115.45 246.431 116.017 247.664 116.35C248.931 116.65 250.614 116.8 252.714 116.8C253.614 116.8 254.581 116.767 255.614 116.7C256.647 116.633 257.647 116.55 258.614 116.45C259.614 116.35 260.497 116.233 261.264 116.1V117.75C260.631 117.883 259.814 118 258.814 118.1C257.847 118.2 256.814 118.267 255.714 118.3C254.614 118.367 253.531 118.4 252.464 118.4ZM260.514 105.25V103.2C260.514 101.067 260.381 99.3667 260.114 98.1C259.881 96.8333 259.464 95.8833 258.864 95.25C258.264 94.6167 257.431 94.2 256.364 94C255.331 93.8 254.031 93.7 252.464 93.7C250.431 93.7 248.797 93.8333 247.564 94.1C246.364 94.3333 245.464 94.8167 244.864 95.55C244.264 96.2833 243.864 97.35 243.664 98.75C243.497 100.117 243.414 101.95 243.414 104.25H261.514L260.514 105.25ZM281.99 118.4C280.657 118.4 279.374 118.3 278.14 118.1C276.907 117.9 275.807 117.483 274.84 116.85C273.907 116.183 273.207 115.183 272.74 113.85H272.54L272.39 118H270.99V80.85H272.74V96.2H272.94C273.34 95.2 273.94 94.4 274.74 93.8C275.54 93.2 276.54 92.7667 277.74 92.5C278.94 92.2333 280.357 92.1 281.99 92.1C284.124 92.1 285.84 92.3 287.14 92.7C288.474 93.0667 289.49 93.7333 290.19 94.7C290.89 95.6333 291.374 96.9667 291.64 98.7C291.907 100.4 292.04 102.583 292.04 105.25C292.04 107.917 291.907 110.117 291.64 111.85C291.374 113.55 290.89 114.883 290.19 115.85C289.49 116.783 288.474 117.45 287.14 117.85C285.84 118.217 284.124 118.4 281.99 118.4ZM281.49 116.8C283.39 116.8 284.924 116.667 286.09 116.4C287.257 116.133 288.14 115.617 288.74 114.85C289.34 114.05 289.74 112.883 289.94 111.35C290.174 109.817 290.29 107.783 290.29 105.25C290.29 102.717 290.174 100.683 289.94 99.15C289.74 97.6167 289.34 96.4667 288.74 95.7C288.14 94.9 287.257 94.3667 286.09 94.1C284.924 93.8333 283.39 93.7 281.49 93.7C279.257 93.7 277.49 94.0167 276.19 94.65C274.89 95.25 274.007 96.2167 273.54 97.55C273.174 98.6833 272.94 99.8667 272.84 101.1C272.774 102.3 272.74 103.683 272.74 105.25C272.74 106.75 272.774 108.117 272.84 109.35C272.907 110.55 273.124 111.717 273.49 112.85C273.957 114.25 274.857 115.267 276.19 115.9C277.524 116.5 279.29 116.8 281.49 116.8ZM311.775 118.4C310.442 118.4 309.159 118.3 307.925 118.1C306.692 117.9 305.592 117.483 304.625 116.85C303.692 116.183 302.992 115.183 302.525 113.85H302.325L302.175 118H300.775V80.85H302.525V96.2H302.725C303.125 95.2 303.725 94.4 304.525 93.8C305.325 93.2 306.325 92.7667 307.525 92.5C308.725 92.2333 310.142 92.1 311.775 92.1C313.909 92.1 315.625 92.3 316.925 92.7C318.259 93.0667 319.275 93.7333 319.975 94.7C320.675 95.6333 321.159 96.9667 321.425 98.7C321.692 100.4 321.825 102.583 321.825 105.25C321.825 107.917 321.692 110.117 321.425 111.85C321.159 113.55 320.675 114.883 319.975 115.85C319.275 116.783 318.259 117.45 316.925 117.85C315.625 118.217 313.909 118.4 311.775 118.4ZM311.275 116.8C313.175 116.8 314.709 116.667 315.875 116.4C317.042 116.133 317.925 115.617 318.525 114.85C319.125 114.05 319.525 112.883 319.725 111.35C319.959 109.817 320.075 107.783 320.075 105.25C320.075 102.717 319.959 100.683 319.725 99.15C319.525 97.6167 319.125 96.4667 318.525 95.7C317.925 94.9 317.042 94.3667 315.875 94.1C314.709 93.8333 313.175 93.7 311.275 93.7C309.042 93.7 307.275 94.0167 305.975 94.65C304.675 95.25 303.792 96.2167 303.325 97.55C302.959 98.6833 302.725 99.8667 302.625 101.1C302.559 102.3 302.525 103.683 302.525 105.25C302.525 106.75 302.559 108.117 302.625 109.35C302.692 110.55 302.909 111.717 303.275 112.85C303.742 114.25 304.642 115.267 305.975 115.9C307.309 116.5 309.075 116.8 311.275 116.8ZM340.061 118.4C338.027 118.4 336.344 118.283 335.011 118.05C333.711 117.85 332.661 117.483 331.861 116.95C331.094 116.383 330.527 115.6 330.161 114.6C329.794 113.6 329.561 112.35 329.461 110.85C329.361 109.317 329.311 107.467 329.311 105.3C329.311 103.133 329.361 101.283 329.461 99.75C329.561 98.2167 329.794 96.95 330.161 95.95C330.527 94.95 331.094 94.1833 331.861 93.65C332.661 93.0833 333.711 92.6833 335.011 92.45C336.344 92.2167 338.027 92.1 340.061 92.1C342.094 92.1 343.761 92.2167 345.061 92.45C346.394 92.6833 347.444 93.0833 348.211 93.65C349.011 94.1833 349.594 94.95 349.961 95.95C350.327 96.95 350.561 98.2167 350.661 99.75C350.761 101.283 350.811 103.133 350.811 105.3C350.811 107.467 350.761 109.317 350.661 110.85C350.561 112.35 350.327 113.6 349.961 114.6C349.594 115.6 349.011 116.383 348.211 116.95C347.444 117.483 346.394 117.85 345.061 118.05C343.761 118.283 342.094 118.4 340.061 118.4ZM340.061 116.8C342.327 116.8 344.077 116.65 345.311 116.35C346.544 116.05 347.411 115.5 347.911 114.7C348.444 113.9 348.761 112.75 348.861 111.25C348.994 109.717 349.061 107.733 349.061 105.3C349.061 102.867 348.994 100.883 348.861 99.35C348.761 97.8167 348.444 96.65 347.911 95.85C347.411 95.0167 346.544 94.45 345.311 94.15C344.077 93.85 342.327 93.7 340.061 93.7C337.827 93.7 336.077 93.85 334.811 94.15C333.577 94.45 332.694 95.0167 332.161 95.85C331.661 96.65 331.344 97.8167 331.211 99.35C331.111 100.883 331.061 102.867 331.061 105.3C331.061 107.733 331.111 109.717 331.211 111.25C331.344 112.75 331.661 113.9 332.161 114.7C332.694 115.5 333.577 116.05 334.811 116.35C336.077 116.65 337.827 116.8 340.061 116.8ZM359.564 118V92.5H360.964L361.114 96.65H361.314C361.581 95.85 362.014 95.1167 362.614 94.45C363.214 93.75 364.131 93.1833 365.364 92.75C366.598 92.3167 368.281 92.1 370.414 92.1C372.448 92.1 374.081 92.2833 375.314 92.65C376.548 93.0167 377.481 93.5833 378.114 94.35C378.781 95.1167 379.214 96.1333 379.414 97.4C379.648 98.6667 379.764 100.2 379.764 102V118H378.014V102.25C378.014 100.383 377.914 98.9 377.714 97.8C377.514 96.6667 377.131 95.8 376.564 95.2C375.998 94.6 375.181 94.2 374.114 94C373.081 93.8 371.731 93.7 370.064 93.7C367.864 93.7 366.164 93.9833 364.964 94.55C363.764 95.1167 362.898 95.9167 362.364 96.95C361.864 97.95 361.564 99.1333 361.464 100.5C361.364 101.833 361.314 103.267 361.314 104.8V118H359.564ZM389.74 118V92.5H391.14L391.29 96.65H391.49C391.757 95.85 392.19 95.1167 392.79 94.45C393.39 93.75 394.307 93.1833 395.54 92.75C396.774 92.3167 398.457 92.1 400.59 92.1C402.624 92.1 404.257 92.2833 405.49 92.65C406.724 93.0167 407.657 93.5833 408.29 94.35C408.957 95.1167 409.39 96.1333 409.59 97.4C409.824 98.6667 409.94 100.2 409.94 102V118H408.19V102.25C408.19 100.383 408.09 98.9 407.89 97.8C407.69 96.6667 407.307 95.8 406.74 95.2C406.174 94.6 405.357 94.2 404.29 94C403.257 93.8 401.907 93.7 400.24 93.7C398.04 93.7 396.34 93.9833 395.14 94.55C393.94 95.1167 393.074 95.9167 392.54 96.95C392.04 97.95 391.74 99.1333 391.64 100.5C391.54 101.833 391.49 103.267 391.49 104.8V118H389.74Z" fill="white"/>
</svg>
