<svg width="32" height="32" viewBox="0 0 32 32" fill="none"
    xmlns="http://www.w3.org/2000/svg">
    <path d="M23.586 23.5855C23.708 23.4635 23.848 23.3685 23.994 23.2865L21.718 21.0095C21.523 20.8145 21.206 20.8145 21.011 21.0095C20.816 21.2055 20.816 21.5215 21.011 21.7175L23.282 23.9885C23.368 23.8455 23.464 23.7065 23.586 23.5855Z" fill="#007581"/>
    <path d="M28.5 31.0002C27.833 31.0002 27.205 30.7402 26.732 30.2682L23.232 26.7682C22.76 26.2952 22.5 25.6682 22.5 25.0002C22.5 24.3322 22.76 23.7052 23.232 23.2322C24.138 22.3262 25.861 22.3262 26.767 23.2322L30.267 26.7322C30.74 27.2052 31 27.8322 31 28.5002C31 29.1682 30.74 29.7952 30.268 30.2682C29.796 30.7412 29.167 31.0002 28.5 31.0002ZM25 23.5202C24.593 23.5202 24.207 23.6722 23.939 23.9402C23.656 24.2232 23.5 24.6002 23.5 25.0002C23.5 25.4002 23.656 25.7772 23.939 26.0612L27.439 29.5612C28.006 30.1272 28.993 30.1272 29.56 29.5612C29.844 29.2772 30 28.9002 30 28.5002C30 28.1002 29.844 27.7232 29.561 27.4392L26.061 23.9392C25.793 23.6722 25.407 23.5202 25 23.5202Z" fill="#007581"/>
    <path d="M13 22.4505C12.724 22.4505 12.5 22.2265 12.5 21.9505C12.5 21.6745 12.724 21.4505 13 21.4505C16.767 21.4505 20.035 19.0465 21.133 15.4695C21.214 15.2055 21.494 15.0545 21.758 15.1385C22.022 15.2195 22.171 15.4985 22.09 15.7625C20.861 19.7635 17.209 22.4505 13 22.4505Z" fill="#007581"/>
    <path d="M13 25C6.383 25 1 19.617 1 13C1 6.383 6.383 1 13 1C19.617 1 25 6.383 25 13C25 19.617 19.617 25 13 25ZM13 2C6.935 2 2 6.935 2 13C2 19.065 6.935 24 13 24C19.065 24 24 19.065 24 13C24 6.935 19.065 2 13 2Z" fill="#007581"/>
    <path d="M22 13.5C22.2761 13.5 22.5 13.2761 22.5 13C22.5 12.7239 22.2761 12.5 22 12.5C21.7239 12.5 21.5 12.7239 21.5 13C21.5 13.2761 21.7239 13.5 22 13.5Z" fill="#007581"/>
</svg>