<svg width="50" height="52" viewBox="0 0 50 52" fill="none" xmlns="http://www.w3.org/2000/svg"><path d="M48.6069 15.8973C48.4264 7.21986 42.9744 1.6152 34.5239 1.43031C32.5149 1.23669 17.4864 1.23361 15.4759 1.43031C7.02895 1.61674 1.57245 7.21576 1.39245 15.8973C1.20395 17.9583 1.20045 33.401 1.39245 35.4641C1.55845 44.1199 7.04745 49.7626 15.4759 49.9305C17.9449 50.0466 18.7654 50.0738 24.9999 50.0738C31.2349 50.0738 32.0549 50.0466 34.5239 49.9305C36.8274 49.8232 38.6214 49.4688 40.3419 48.7821C45.7409 46.6523 48.4869 41.4061 48.6069 35.4641C48.7959 33.4036 48.7994 17.9588 48.6069 15.8973ZM47.1549 35.3957C47.0089 43.2925 42.1494 48.2912 34.4574 48.4386C32.4954 48.6301 17.5054 48.6332 15.5419 48.4386C7.85445 48.2891 2.98895 43.2976 2.84495 35.3957C2.73345 32.8859 2.70695 32.0513 2.70695 25.6804C2.88195 15.5521 1.55995 7.88597 10.1844 3.97097C11.7504 3.34595 13.4029 3.0224 15.5419 2.92174C17.9854 2.80772 18.7984 2.78102 24.9999 2.78102C31.2014 2.78102 32.0144 2.80772 34.4579 2.92225C36.5969 3.0224 38.2494 3.34595 39.8159 3.97149C48.4294 7.87057 47.1224 15.5629 47.2929 25.6804C47.2924 32.0518 47.2659 32.8869 47.1549 35.3957Z" fill="#007581"/><path d="M37.2949 16.4128C39.0869 16.4128 40.5449 14.9096 40.5449 13.0618C40.3924 8.62701 34.1969 8.62804 34.0449 13.0618C34.0449 14.9096 35.5034 16.4128 37.2949 16.4128ZM37.2949 11.1076C39.8004 11.1898 39.7999 14.9353 37.2949 15.0169C34.7894 14.9348 34.7904 11.1893 37.2949 11.1076ZM43.8029 34.4995C43.7074 34.4941 43.6117 34.5083 43.5216 34.5414C43.4315 34.5744 43.3486 34.6255 43.278 34.6918C43.2073 34.7581 43.1502 34.8381 43.11 34.9273C43.0698 35.0166 43.0474 35.1131 43.0439 35.2113C42.7634 41.2125 40.1614 43.9144 34.3014 44.1922C32.4299 44.3787 17.6364 44.3802 15.7639 44.1922C7.35941 43.9586 6.68741 37.9477 6.98941 30.5578C7.00291 28.4942 7.03891 23.1993 7.02191 20.447C7.01791 19.4815 5.57991 19.4548 5.56791 20.447C5.59291 23.2085 5.55191 28.4758 5.53541 30.5424C5.44091 33.6372 5.51241 37.9127 6.41041 39.9059C9.50191 47.1515 16.2139 45.5435 25.0329 45.8223C35.8314 45.6975 43.7029 47.0996 44.4969 35.2791C44.5052 35.0813 44.4368 34.8882 44.3067 34.742C44.1766 34.5959 43.9955 34.5087 43.8029 34.4995Z" fill="#007581"/><path d="M43.5549 11.4739C40.5549 4.2879 33.6639 5.80295 24.9324 5.55797C14.3069 5.55387 6.01793 4.56574 5.46843 16.1017C5.45043 17.0852 6.85443 17.1504 6.92093 16.1695C7.20143 10.1684 9.80293 7.46591 15.6634 7.18858C17.5489 7.00113 32.3139 7.0001 34.2014 7.18858C40.0604 7.45975 42.6634 10.1735 42.9444 16.1695C43.0764 17.7539 43.1509 26.005 42.9439 30.2492C42.9264 31.2173 44.3464 31.2892 44.3969 30.2939L44.5319 25.6907C44.5319 19.3655 44.5084 18.6131 44.3964 16.1017C44.2894 13.6853 43.8904 12.3588 43.5549 11.4739Z" fill="#007581"/><path d="M12.5 25.6789C12.5 32.7586 18.122 38.5183 25.0325 38.5183C41.6585 37.8127 41.6535 13.5426 25.0325 12.8395C18.122 12.8395 12.5 18.5992 12.5 25.6789ZM36.1125 25.6789C36.1125 31.9379 31.142 37.0305 25.0325 37.0305C10.3325 36.4065 10.337 14.9482 25.0325 14.3268C31.142 14.3273 36.1125 19.4199 36.1125 25.6789Z" fill="#007581"/><path d="M25.0215 34.1529C35.9945 33.6871 35.9915 17.6686 25.0215 17.2048C20.4605 17.2048 16.75 21.0063 16.75 25.6789C16.75 30.3514 20.4605 34.1529 25.0215 34.1529ZM25.0215 18.6716C28.793 18.6716 31.861 21.8152 31.861 25.6789C31.861 29.5425 28.793 32.6866 25.0215 32.6866C15.9475 32.3009 15.95 19.0553 25.0215 18.6716Z" fill="#007581"/></svg>