<svg width="32" height="32" viewBox="0 0 32 32" fill="none"
    xmlns="http://www.w3.org/2000/svg">
    <path d="M15.9955 0C12.8318 0 9.73928 0.939047 7.10888 2.69658C4.47837 4.45534 2.42824 6.95382 1.21751 9.87812C0.00689597 12.8012 -0.309815 16.0184 0.307364 19.1224C0.924543 22.2251 2.44793 25.0768 4.68495 27.3143C6.92198 29.5519 9.77213 31.0755 12.8749 31.6934C15.9778 32.31 19.1938 31.9937 22.1167 30.7826C25.0394 29.5716 27.5375 27.5211 29.2952 24.8897C31.0527 22.2583 31.9909 19.1655 31.9909 15.9999C31.9828 11.76 30.2949 7.69474 27.297 4.69537C24.299 1.69723 20.2353 0.00861535 15.9955 0ZM21.5939 17.0313L14.2114 21.9543C14.0077 22.0799 13.7741 22.1488 13.5346 22.1538C13.3317 22.1538 13.1315 22.107 12.9502 22.0159C12.7534 21.9101 12.5894 21.7513 12.4756 21.5593C12.3618 21.3673 12.3025 21.147 12.3042 20.923V11.0769C12.3025 10.8541 12.3618 10.6338 12.4756 10.4418C12.5894 10.2486 12.7534 10.091 12.9502 9.98516C13.1477 9.88547 13.3678 9.83867 13.5889 9.84852C13.81 9.8596 14.0245 9.9273 14.2114 10.0467L21.5939 14.9697C21.7653 15.0817 21.906 15.2344 22.0035 15.4141C22.1009 15.5938 22.1519 15.7956 22.1519 15.9999C22.1519 16.2055 22.1009 16.4061 22.0035 16.587C21.906 16.7667 21.7653 16.9193 21.5939 17.0313Z" fill="black"/>
</svg>