<svg width="16" height="16" viewBox="0 0 16 16" fill="none"
    xmlns="http://www.w3.org/2000/svg">
    <path d="M1.18641 8.47552L6.70156 14.303C6.95004 14.5656 7.35299 14.5656 7.60151 14.303C7.85003 14.0405 7.85003 13.6147 7.60151 13.3521L3.17263 8.67231L14.3637 8.67168C14.7151 8.67168 15 8.37062 15 7.99927C15 7.62792 14.715 7.32686 14.3636 7.3269L3.17276 7.32753L7.60147 2.6479C7.84999 2.3853 7.84999 1.95957 7.60147 1.69697C7.47725 1.56567 7.31438 1.5 7.15152 1.5C6.98865 1.5 6.82578 1.56567 6.70156 1.69697L1.18641 7.52459C1.06707 7.65069 1 7.82171 1 8.00003C1 8.17836 1.06703 8.34942 1.18641 8.47552Z" fill="#4F4F4F" stroke="#4F4F4F" stroke-width="0.5"/>
</svg>