<svg width="47" height="13" viewBox="0 0 47 13" fill="none"
    xmlns="http://www.w3.org/2000/svg">
    <path d="M4.83571 12.8817C3.92075 12.8817 3.16134 12.8364 2.55504 12.7445C1.96099 12.6415 1.48576 12.4639 1.13178 12.2127C0.788818 11.9616 0.537708 11.6124 0.377253 11.1664C0.216797 10.7094 0.113911 10.1311 0.0685914 9.43399C0.0232719 8.7246 0 7.86207 0 6.84393C0 5.8258 0.0232719 4.96815 0.0685914 4.27102C0.113911 3.56163 0.216797 2.98456 0.377253 2.53859C0.537708 2.08159 0.788818 1.72629 1.13178 1.47513C1.48576 1.22396 1.96099 1.05244 2.55504 0.960548C3.16134 0.857632 3.92075 0.806165 4.83571 0.806165C5.75068 0.806165 6.50519 0.857632 7.09925 0.960548C7.70555 1.05244 8.17957 1.22396 8.52253 1.47513C8.87651 1.72629 9.13372 2.08159 9.29417 2.53859C9.45463 2.98456 9.55753 3.56163 9.60285 4.27102C9.64817 4.96815 9.67144 5.8258 9.67144 6.84393C9.67144 7.86207 9.64817 8.7246 9.60285 9.43399C9.55753 10.1311 9.45463 10.7094 9.29417 11.1664C9.13372 11.6124 8.87651 11.9616 8.52253 12.2127C8.17957 12.4639 7.70555 12.6415 7.09925 12.7445C6.50519 12.8364 5.75068 12.8817 4.83571 12.8817ZM4.83571 11.6124C5.46406 11.6124 5.98463 11.5952 6.39618 11.5609C6.80773 11.5156 7.13354 11.4176 7.37361 11.2693C7.61368 11.1211 7.79618 10.8809 7.92234 10.5489C8.0485 10.2058 8.122 9.73661 8.14528 9.14239C8.17957 8.54817 8.19671 7.78121 8.19671 6.84393C8.19671 5.90666 8.17957 5.13968 8.14528 4.54546C8.122 3.95124 8.0485 3.48811 7.92234 3.15609C7.79618 2.81303 7.61368 2.56678 7.37361 2.41853C7.13354 2.27028 6.80773 2.1784 6.39618 2.14409C5.98463 2.09876 5.46406 2.07548 4.83571 2.07548C4.20736 2.07548 3.68682 2.09876 3.27527 2.14409C2.87474 2.1784 2.54892 2.27028 2.29783 2.41853C2.05776 2.56678 1.87526 2.81303 1.7491 3.15609C1.63519 3.48811 1.56046 3.95124 1.52617 4.54546C1.49187 5.13968 1.47473 5.90666 1.47473 6.84393C1.47473 7.78121 1.49187 8.54817 1.52617 9.14239C1.56046 9.73661 1.63519 10.2058 1.7491 10.5489C1.87526 10.8809 2.05776 11.1211 2.29783 11.2693C2.54892 11.4176 2.87474 11.5156 3.27527 11.5609C3.68682 11.5952 4.20736 11.6124 4.83571 11.6124ZM12.1199 12.7445V3.99658H13.3889L13.4403 5.24873H13.5432C13.6694 4.97428 13.8408 4.73415 14.0576 4.52832C14.2867 4.32248 14.5892 4.16197 14.9665 4.04802C15.3548 3.92183 15.8471 3.85935 16.4412 3.85935C17.0928 3.85935 17.6134 3.92796 18.0017 4.06519C18.3899 4.20241 18.6876 4.40824 18.8933 4.68268C19.1101 4.95712 19.2535 5.3112 19.322 5.74615C19.3906 6.16884 19.4249 6.67852 19.4249 7.27274V12.7445H18.0359V7.75301C18.0359 7.15879 18.0078 6.68955 17.9502 6.3465C17.9049 5.99242 17.8069 5.729 17.6587 5.55748C17.5105 5.37492 17.2925 5.25484 17.0071 5.19726C16.7217 5.13968 16.3444 5.11151 15.8753 5.11151C15.3155 5.11151 14.8746 5.18623 14.5549 5.33448C14.2352 5.4717 14.0001 5.67753 13.8519 5.95198C13.7036 6.21539 13.6118 6.5413 13.5775 6.92969C13.5432 7.30705 13.526 7.74199 13.526 8.23329V12.7445H12.1199ZM22.0424 12.7445V0H23.4486V12.7445H22.0424ZM26.0195 1.52658V0H27.5114V1.52658H26.0195ZM26.0538 12.7445V3.99658H27.46V12.7445H26.0538ZM30.064 12.7445V3.99658H31.3329L31.3844 5.24873H31.4873C31.6134 4.97428 31.7849 4.73415 32.0017 4.52832C32.2307 4.32248 32.5333 4.16197 32.9105 4.04802C33.3 3.92183 33.7912 3.85935 34.3853 3.85935C35.0369 3.85935 35.5574 3.92796 35.9457 4.06519C36.3352 4.20241 36.6317 4.40824 36.8374 4.68268C37.0555 4.95712 37.1975 5.3112 37.2661 5.74615C37.3347 6.16884 37.369 6.67852 37.369 7.27274V12.7445H35.98V7.75301C35.98 7.15879 35.9519 6.68955 35.8943 6.3465C35.849 5.99242 35.7522 5.729 35.6028 5.55748C35.4546 5.37492 35.2378 5.25484 34.9511 5.19726C34.6658 5.13968 34.2885 5.11151 33.8194 5.11151C33.2596 5.11151 32.8199 5.18623 32.499 5.33448C32.1793 5.4717 31.9454 5.67753 31.7959 5.95198C31.6477 6.21539 31.5559 6.5413 31.5216 6.92969C31.4873 7.30705 31.4701 7.74199 31.4701 8.23329V12.7445H30.064ZM43.5533 12.8817C42.8453 12.8817 42.25 12.8364 41.7699 12.7445C41.302 12.6526 40.9248 12.5043 40.6381 12.2985C40.3528 12.0816 40.136 11.8011 39.9865 11.458C39.8383 11.1039 39.7415 10.6751 39.695 10.1715C39.6497 9.66799 39.6264 9.07378 39.6264 8.38767C39.6264 7.57537 39.6607 6.88436 39.7293 6.31219C39.7979 5.729 39.9522 5.25976 40.1923 4.90568C40.4446 4.53934 40.8329 4.27713 41.3584 4.11663C41.885 3.94511 42.593 3.85935 43.4847 3.85935C44.1596 3.85935 44.7083 3.9108 45.1309 4.01372C45.5657 4.11663 45.9087 4.27715 46.1598 4.49401C46.4121 4.71087 46.5946 5.00245 46.7085 5.36879C46.8347 5.72287 46.9143 6.15169 46.9486 6.65524C46.9829 7.14655 47 7.71871 47 8.37051V8.83364H41.0154C41.0154 9.42786 41.0448 9.91426 41.1011 10.2916C41.1587 10.669 41.2726 10.9606 41.4441 11.1664C41.6278 11.3723 41.9071 11.5156 42.2843 11.5952C42.6738 11.6749 43.1993 11.7153 43.8619 11.7153C44.1363 11.7153 44.4401 11.7092 44.7708 11.6981C45.1027 11.6749 45.4346 11.6467 45.7654 11.6124C46.0973 11.5781 46.3949 11.5438 46.6571 11.5095V12.6415C46.417 12.6869 46.1206 12.7273 45.7654 12.7616C45.4224 12.7959 45.0574 12.8241 44.6679 12.8474C44.2906 12.8707 43.9195 12.8817 43.5533 12.8817ZM45.6453 8.13037V7.66726C45.6453 7.07304 45.611 6.60378 45.5424 6.26072C45.4739 5.90664 45.3538 5.64323 45.1823 5.4717C45.0231 5.28915 44.8002 5.16909 44.5136 5.11151C44.2282 5.05392 43.8742 5.02573 43.4504 5.02573C42.9017 5.02573 42.4681 5.06617 42.1472 5.14581C41.8275 5.21442 41.5874 5.34551 41.4269 5.54031C41.2677 5.73512 41.1587 6.01447 41.1011 6.3808C41.0448 6.74714 41.0154 7.23232 41.0154 7.83879H45.9711L45.6453 8.13037Z" fill="black"/>
</svg>