<svg width="45" height="50" viewBox="0 0 45 50" fill="none" xmlns="http://www.w3.org/2000/svg"><path d="M8.4167 8.72522C8.49905 8.72486 8.5814 8.7245 8.66625 8.72413C8.94238 8.72306 9.21851 8.72268 9.49465 8.72231C9.6926 8.7217 9.89055 8.72105 10.0885 8.72036C10.7389 8.71831 11.3893 8.7173 12.0397 8.71632C12.2639 8.71593 12.4881 8.71553 12.7123 8.71512C13.6453 8.71347 14.5782 8.71204 15.5112 8.71133C15.7531 8.71115 15.995 8.71096 16.2369 8.71077C16.2971 8.71072 16.3572 8.71068 16.4191 8.71063C17.3915 8.70982 18.3639 8.70734 19.3363 8.70417C20.3363 8.70093 21.3364 8.69921 22.3364 8.69887C22.8972 8.69864 23.458 8.69777 24.0187 8.69531C24.547 8.69303 25.0751 8.69263 25.6034 8.69363C25.7964 8.69367 25.9895 8.69306 26.1825 8.69172C28.1625 8.67868 29.8131 9.07392 31.3324 10.5951C31.3882 10.6491 31.4439 10.7031 31.5013 10.7587C32.6351 11.9265 33.2419 13.6945 33.3539 15.3802C33.3632 15.7242 33.3623 16.0676 33.3594 16.4117C33.359 16.5009 33.3586 16.5901 33.3582 16.682C33.3572 16.8991 33.3557 17.1162 33.3539 17.3333C33.4562 17.2357 33.4562 17.2357 33.5606 17.1361C34.1138 16.6107 34.6739 16.0986 35.2482 15.6019C35.6485 15.2553 36.0426 14.9008 36.4356 14.544C36.6118 14.3849 36.7882 14.226 36.9648 14.0672C37.0742 13.9686 37.1834 13.8697 37.2924 13.7704C38.3006 12.8549 39.0525 12.4092 40.3852 12.5482C41.0975 12.6825 41.6951 13.1223 42.1279 13.7624C42.5349 14.4836 42.697 15.1487 42.6938 16.0014C42.6942 16.0809 42.6946 16.1605 42.695 16.2425C42.6961 16.5078 42.696 16.7731 42.6958 17.0384C42.6964 17.2292 42.697 17.4199 42.6976 17.6107C42.6992 18.1281 42.6996 18.6454 42.6997 19.1628C42.6998 19.4863 42.7002 19.8098 42.7007 20.1334C42.7023 21.2629 42.703 22.3925 42.7029 23.5221C42.7028 24.5736 42.7046 25.6251 42.7074 26.6765C42.7097 27.5805 42.7106 28.4844 42.7105 29.3883C42.7105 29.9277 42.711 30.467 42.7129 31.0064C42.7146 31.5139 42.7146 32.0214 42.7133 32.529C42.7131 32.7147 42.7135 32.9004 42.7146 33.0861C42.7212 34.3156 42.6773 35.3988 41.9466 36.3973C41.3243 37.0963 40.6601 37.3559 39.7864 37.3895C38.5851 37.3572 37.9255 36.6844 37.0455 35.8563C36.7867 35.6157 36.5209 35.3855 36.2543 35.1556C35.6836 34.6608 35.1221 34.1539 34.561 33.6458C34.1608 33.2834 33.7579 32.9249 33.3539 32.5677C33.3559 32.694 33.358 32.8202 33.3601 32.9503C33.3858 35.199 33.0734 37.2906 31.6313 38.9883C30.2678 40.5217 28.6469 41.1937 26.7354 41.2137C26.4642 41.2144 26.1929 41.2132 25.9217 41.212C25.7246 41.2125 25.5275 41.2132 25.3305 41.2141C24.7987 41.2159 24.2671 41.2152 23.7354 41.2139C23.1767 41.2129 22.6181 41.2139 22.0595 41.2145C21.0616 41.2152 20.0638 41.214 19.0659 41.212C18.164 41.2103 17.2621 41.2106 16.3602 41.2124C15.3091 41.2145 14.2581 41.2153 13.207 41.2141C12.652 41.2135 12.097 41.2134 11.5419 41.2147C11.0198 41.2158 10.4978 41.215 9.97567 41.2128C9.78507 41.2123 9.59446 41.2124 9.40386 41.2133C7.24788 41.2222 5.51161 40.7445 3.91466 39.0233C2.84636 37.7534 2.22732 36.1124 2.22769 34.377C2.22736 34.2939 2.22704 34.2108 2.22671 34.1251C2.22574 33.8466 2.2254 33.5682 2.22507 33.2897C2.22451 33.09 2.22393 32.8902 2.22332 32.6905C2.22147 32.0344 2.22056 31.3783 2.21968 30.7222C2.21932 30.4959 2.21896 30.2697 2.21859 30.0434C2.21692 28.98 2.21567 27.9166 2.21494 26.8531C2.21408 25.6278 2.21177 24.4024 2.20821 23.177C2.20556 22.2286 2.20426 21.2803 2.20397 20.3319C2.20376 19.7661 2.20298 19.2003 2.20077 18.6345C2.19871 18.1015 2.19835 17.5685 2.19925 17.0354C2.19929 16.8408 2.19874 16.6461 2.19753 16.4515C2.18388 14.1315 2.69441 12.2787 4.18761 10.5745C5.34084 9.36492 6.84185 8.72485 8.4167 8.72522ZM6.03743 13.183C5.27654 14.144 5.12677 15.4083 5.12926 16.6441C5.12906 16.7182 5.12886 16.7922 5.12866 16.8684C5.1281 17.1143 5.12817 17.3601 5.12825 17.606C5.12798 17.7832 5.12768 17.9603 5.12735 18.1375C5.12658 18.6173 5.12637 19.0971 5.12631 19.577C5.12625 19.8772 5.12606 20.1774 5.12583 20.4776C5.12502 21.5263 5.12466 22.5749 5.12473 23.6236C5.12478 24.599 5.12385 25.5744 5.12246 26.5498C5.12131 27.389 5.12084 28.2282 5.1209 29.0673C5.12092 29.5678 5.12067 30.0682 5.11974 30.5686C5.11889 31.0396 5.11889 31.5106 5.11952 31.9816C5.11961 32.1537 5.11941 32.3258 5.11888 32.4979C5.11409 34.1493 5.15965 35.6856 6.23965 36.9428C7.12609 37.8092 8.28726 37.9539 9.42242 37.9525C9.49632 37.9528 9.57022 37.9531 9.64636 37.9534C9.89232 37.9543 10.1383 37.9544 10.3842 37.9545C10.5613 37.955 10.7384 37.9555 10.9154 37.956C11.3954 37.9573 11.8754 37.9579 12.3554 37.9584C12.6558 37.9586 12.9562 37.959 13.2566 37.9595C14.1981 37.9608 15.1396 37.9618 16.081 37.9621C17.1649 37.9626 18.2488 37.9643 19.3326 37.9671C20.1723 37.9692 21.012 37.9702 21.8517 37.9703C22.3523 37.9704 22.8529 37.971 23.3535 37.9728C23.825 37.9744 24.2965 37.9746 24.768 37.9737C24.94 37.9737 25.1121 37.9741 25.2841 37.975C27.2634 38.0007 27.2634 38.0007 29.0473 37.1576C29.1415 37.083 29.2358 37.0085 29.3329 36.9317C30.159 36.0348 30.3877 34.7834 30.4103 33.5377C30.4136 33.2054 30.4126 32.8733 30.4111 32.541C30.4116 32.3565 30.4122 32.172 30.413 31.9875C30.4146 31.4908 30.414 30.9941 30.4128 30.4973C30.4119 29.9748 30.4128 29.4524 30.4133 28.9299C30.414 28.0529 30.4131 27.1759 30.4115 26.2988C30.4095 25.2882 30.4102 24.2775 30.4121 23.2669C30.4137 22.3956 30.4139 21.5243 30.413 20.653C30.4125 20.1342 30.4124 19.6154 30.4135 19.0966C30.4146 18.6086 30.4138 18.1206 30.4118 17.6326C30.4114 17.4546 30.4115 17.2766 30.4123 17.0987C30.418 15.6475 30.3515 14.1491 29.3988 13.0365C28.1644 11.877 26.6061 11.9331 25.0769 11.937C24.8992 11.9367 24.7215 11.9364 24.5438 11.9359C24.0639 11.9351 23.584 11.9354 23.104 11.936C22.6002 11.9365 22.0965 11.9361 21.5927 11.9357C20.7469 11.9354 19.9011 11.9359 19.0553 11.9368C18.0794 11.9378 17.1035 11.9375 16.1275 11.9364C15.2875 11.9355 14.4476 11.9354 13.6076 11.9359C13.1068 11.9362 12.606 11.9363 12.1052 11.9356C11.6343 11.9351 11.1634 11.9355 10.6924 11.9366C10.5203 11.9368 10.3481 11.9368 10.1759 11.9363C8.64505 11.9328 7.20667 11.9429 6.03743 13.183ZM39.1492 16.3263C39.0945 16.3742 39.0399 16.4222 38.9835 16.4716C38.5087 16.8895 38.0389 17.3142 37.5695 17.7397C37.1435 18.1253 36.713 18.5039 36.2799 18.8796C35.8303 19.2706 35.3873 19.6704 34.9464 20.0734C34.893 20.122 34.8396 20.1706 34.7845 20.2207C34.7046 20.2955 34.7046 20.2955 34.623 20.3718C34.4086 20.556 34.4086 20.556 34.1276 20.748C33.69 21.0562 33.3348 21.3189 33.1557 21.8752C33.1106 22.2813 33.0998 22.6703 33.105 23.0787C33.1035 23.2275 33.1018 23.3763 33.0998 23.5251C33.0969 23.836 33.0983 24.1463 33.1026 24.4571C33.1076 24.8523 33.101 25.246 33.0915 25.6411C32.9999 27.3446 32.9999 27.3446 33.5687 28.8472C33.8512 29.1321 34.1535 29.3411 34.4934 29.5311C34.786 29.706 35.0324 29.9407 35.2875 30.1751C35.388 30.2629 35.4887 30.3504 35.5896 30.4376C35.9317 30.7362 36.2688 31.0414 36.6059 31.347C37.2443 31.9255 37.8892 32.494 38.5394 33.056C38.5932 33.1026 38.6469 33.1492 38.7023 33.1971C38.862 33.3355 39.022 33.4735 39.1821 33.6114C39.2312 33.6539 39.2802 33.6963 39.3307 33.74C39.5289 33.9444 39.5289 33.9444 39.7699 34.0326C39.7699 28.0384 39.7699 22.0443 39.7699 15.8685C39.5588 15.8685 39.3151 16.1799 39.1492 16.3263Z" fill="white"/><path d="M18.4736 18.3284C18.8717 18.5701 19.1034 18.853 19.2481 19.3355C19.2556 19.4718 19.2584 19.6086 19.2581 19.7452C19.2581 19.8684 19.2581 19.8684 19.258 19.994C19.2576 20.0822 19.2571 20.1704 19.2567 20.2613C19.2565 20.3519 19.2564 20.4425 19.2563 20.5359C19.2558 20.8254 19.2547 21.115 19.2536 21.4045C19.2531 21.6008 19.2527 21.7971 19.2524 21.9933C19.2514 22.4746 19.2499 22.9558 19.2481 23.437C19.3598 23.435 19.4715 23.4329 19.5866 23.4308C20.0024 23.4237 20.4181 23.4193 20.8338 23.4156C21.0135 23.4136 21.1932 23.4109 21.3729 23.4075C21.6317 23.4028 21.8904 23.4006 22.1492 23.3989C22.2291 23.3969 22.3091 23.3948 22.3914 23.3928C22.8842 23.3926 23.1642 23.4612 23.5547 23.8276C23.8736 24.2006 23.9335 24.4998 23.9502 24.9995C23.9335 25.4992 23.8736 25.7984 23.5547 26.1714C23.0904 26.6072 22.7289 26.6148 22.1492 26.6002C22.066 26.5996 21.9829 26.5991 21.8972 26.5985C21.633 26.5963 21.3689 26.5914 21.1048 26.5864C20.9251 26.5845 20.7454 26.5827 20.5658 26.5811C20.1265 26.5768 19.6873 26.5701 19.2481 26.562C19.2495 26.6832 19.2509 26.8044 19.2523 26.9292C19.2571 27.3802 19.2601 27.8312 19.2626 28.2822C19.2639 28.4771 19.2657 28.6721 19.268 28.867C19.2712 29.1477 19.2727 29.4284 19.2738 29.7091C19.2752 29.7958 19.2766 29.8825 19.278 29.9718C19.2781 30.4727 19.2358 30.816 18.9844 31.2495C18.624 31.6289 18.3068 31.8101 17.8144 31.8721C17.4111 31.8265 17.1175 31.7058 16.7872 31.4448C16.4914 31.0319 16.3363 30.6924 16.3377 30.1651C16.3377 30.085 16.3377 30.0048 16.3377 29.9223C16.3382 29.8362 16.3386 29.7501 16.3391 29.6615C16.3392 29.573 16.3394 29.4845 16.3395 29.3934C16.34 29.1108 16.3411 28.8282 16.3422 28.5457C16.3426 28.3541 16.343 28.1625 16.3434 27.971C16.3444 27.5013 16.3459 27.0317 16.3477 26.562C16.2364 26.5646 16.1252 26.5671 16.0105 26.5698C15.596 26.5786 15.1814 26.5842 14.7668 26.5888C14.5877 26.5913 14.4086 26.5946 14.2295 26.5988C13.9714 26.6048 13.7134 26.6075 13.4552 26.6097C13.336 26.6135 13.336 26.6135 13.2143 26.6173C12.6509 26.6176 12.3773 26.4893 11.9532 26.0737C11.6396 25.5905 11.6164 25.0874 11.6895 24.5112C11.8476 23.9882 12.1344 23.6907 12.5684 23.437C12.8621 23.3857 13.1499 23.3914 13.4466 23.3989C13.5298 23.3994 13.6129 23.4 13.6986 23.4005C13.9628 23.4027 14.2268 23.4076 14.491 23.4126C14.6707 23.4146 14.8504 23.4163 15.03 23.4179C15.4693 23.4222 15.9085 23.429 16.3477 23.437C16.3459 23.3198 16.344 23.2026 16.3421 23.0819C16.3357 22.6443 16.3317 22.2068 16.3284 21.7693C16.3266 21.5804 16.3242 21.3915 16.3212 21.2027C16.3169 20.9302 16.3149 20.6578 16.3134 20.3853C16.3106 20.2599 16.3106 20.2599 16.3079 20.1321C16.3077 19.5645 16.4013 19.1213 16.6993 18.6519C17.2548 18.1605 17.8083 17.9864 18.4736 18.3284Z" fill="white"/></svg>