<svg width="48" height="48" viewBox="0 0 48 48" fill="none"
    xmlns="http://www.w3.org/2000/svg">
    <path fill-rule="evenodd" clip-rule="evenodd" d="M24 3.8147e-06C10.745 2.65591e-06 -5.57778e-07 10.7452 -1.71655e-06 24C-2.87532e-06 37.2548 10.745 48 24 48L24 3.8147e-06Z" fill="white"/>
    <path fill-rule="evenodd" clip-rule="evenodd" d="M24 48C37.255 48 48 37.2548 48 24C48 10.7452 37.255 0 24 0V48Z" fill="#0E1420"/>
    <path fill-rule="evenodd" clip-rule="evenodd" d="M24 16.458C23.0229 16.4487 22.0281 16.626 21.0655 17.0104L21.0386 17.0212C17.1845 18.6394 15.3301 23.0707 16.9711 26.979C18.205 29.9178 21.0339 31.6527 24 31.6447V29.1882C21.9966 29.1747 20.0981 27.978 19.2729 26.0126C18.1714 23.3892 19.3866 20.3599 22.0095 19.2586L22.0095 19.2586C22.6607 18.9851 23.3359 18.8569 24 18.8587V16.458ZM20.303 15.1942C20.7765 14.9775 21.0395 14.4487 20.9317 13.9172L20.8193 13.6495L19.2682 9.95539C19.0969 9.39753 18.4439 9.04195 17.8861 9.21317C17.8688 9.25557 17.8445 9.28132 17.8264 9.29579L17.8264 9.29578C17.812 9.30726 17.8015 9.31165 17.8015 9.31165C17.2663 9.53641 16.9868 10.2205 17.2651 10.7334L17.2876 10.787L18.8387 14.4811C19.01 15.039 19.587 15.3635 20.1672 15.2458C20.2142 15.2314 20.2595 15.2141 20.303 15.1942ZM9.98236 28.7798C9.42459 28.951 9.10019 29.5281 9.21792 30.1084C9.38919 30.6663 9.96621 30.9908 10.5465 30.8731L10.8141 30.7607L14.5076 29.2099C15.0654 29.0387 15.3898 28.4617 15.2721 27.8813C15.1008 27.3235 14.5238 26.9989 13.9435 27.1166L13.6759 27.229L9.98236 28.7798ZM10.7141 17.3257C10.106 17.0772 9.41012 17.3694 9.16172 17.9775C8.91332 18.5856 9.20556 19.2816 9.81362 19.5301L13.538 21.0522C14.1461 21.3007 14.842 21.0085 15.0904 20.4004C15.3388 19.7922 15.0466 19.0963 14.4385 18.8477L10.7141 17.3257ZM20.3506 32.9283C19.7425 32.6798 19.0466 32.972 18.7982 33.5801L17.2768 37.3048C17.0284 37.9129 17.3206 38.6089 17.9287 38.8574C18.5368 39.1059 19.2327 38.8138 19.4811 38.2056L21.0025 34.481C21.2509 33.8728 20.9587 33.1768 20.3506 32.9283Z" fill="#0E1420"/>
    <path fill-rule="evenodd" clip-rule="evenodd" d="M24 31.6453C24.9786 31.6427 25.9721 31.4503 26.9282 31.0489L26.955 31.0376C30.7908 29.4099 32.6105 24.9369 30.9957 21.091C29.7424 18.2185 26.9517 16.4869 24 16.4587L24 18.8593C26.0109 18.8648 27.9195 20.0629 28.7475 22.035C29.849 24.6584 28.6338 27.6877 26.0108 28.789L26.0109 28.7891C25.353 29.0653 24.6706 29.1933 24 29.1888L24 31.6453ZM30.1939 38.7517C30.6674 38.535 30.9305 38.0062 30.8226 37.4747L30.7102 37.2071L29.1592 33.5129C28.9879 32.955 28.3349 32.5995 27.7771 32.7707C27.7598 32.8131 27.7355 32.8388 27.7173 32.8533C27.703 32.8648 27.6925 32.8692 27.6925 32.8692C27.1572 33.0939 26.8778 33.778 27.1561 34.291L27.1786 34.3445L28.7297 38.0386C28.9009 38.5965 29.4779 38.921 30.0582 38.8033C30.1051 38.7889 30.1504 38.7716 30.1939 38.7517ZM32.7708 20.2198C32.653 19.6395 32.9774 19.0624 33.5352 18.8912L37.2287 17.3404L37.4964 17.228C38.0766 17.1103 38.6536 17.4348 38.8249 17.9927C38.9426 18.573 38.6182 19.1501 38.0604 19.3213L34.3669 20.8721L34.0993 20.9845C33.519 21.1022 32.942 20.7776 32.7708 20.2198ZM28.4322 9.88688C28.6806 9.27877 29.3765 8.98659 29.9846 9.23509C30.6686 9.51465 30.9609 10.2107 30.6365 10.7877L29.115 14.5124C28.8666 15.1205 28.1708 15.4127 27.5627 15.1642C26.9546 14.9157 26.6624 14.2197 26.9108 13.6116L28.4322 9.88688ZM32.8764 27.6697C33.1248 27.0616 33.8207 26.7694 34.4288 27.0179L38.1532 28.54C38.7612 28.7885 39.0535 29.4845 38.8051 30.0926C38.5567 30.7007 37.8608 30.9929 37.2527 30.7444L33.5283 29.2223C32.9202 28.9738 32.628 28.2778 32.8764 27.6697Z" fill="white"/>
</svg>