<svg width="16" height="16" viewBox="0 0 16 16" fill="none" xmlns="http://www.w3.org/2000/svg"><path d="M2.8481 13.8186L7.2458 9.42091C7.50981 9.1569 7.64181 9.0249 7.79403 8.97544C7.92793 8.93193 8.07216 8.93193 8.20605 8.97544C8.35827 9.0249 8.49028 9.15691 8.75429 9.42091L13.1227 13.7893M9.33337 10L11.2458 8.08758C11.5098 7.82357 11.6418 7.69156 11.794 7.6421C11.9279 7.5986 12.0722 7.5986 12.2061 7.6421C12.3583 7.69156 12.4903 7.82357 12.7543 8.08758L14.6667 10M6.66671 6C6.66671 6.73638 6.06975 7.33333 5.33337 7.33333C4.59699 7.33333 4.00004 6.73638 4.00004 6C4.00004 5.26362 4.59699 4.66667 5.33337 4.66667C6.06975 4.66667 6.66671 5.26362 6.66671 6ZM4.53337 14H11.4667C12.5868 14 13.1469 14 13.5747 13.782C13.951 13.5903 14.257 13.2843 14.4487 12.908C14.6667 12.4802 14.6667 11.9201 14.6667 10.8V5.2C14.6667 4.0799 14.6667 3.51984 14.4487 3.09202C14.257 2.71569 13.951 2.40973 13.5747 2.21799C13.1469 2 12.5868 2 11.4667 2H4.53337C3.41327 2 2.85322 2 2.42539 2.21799C2.04907 2.40973 1.74311 2.71569 1.55136 3.09202C1.33337 3.51984 1.33337 4.0799 1.33337 5.2V10.8C1.33337 11.9201 1.33337 12.4802 1.55136 12.908C1.74311 13.2843 2.04907 13.5903 2.42539 13.782C2.85322 14 3.41327 14 4.53337 14Z" stroke="#A2A1A1" stroke-width="2" stroke-linecap="round" stroke-linejoin="round"/></svg>