<svg width="45" height="45" viewBox="0 0 45 45" fill="none"
    xmlns="http://www.w3.org/2000/svg">
    <g clip-path="url(#clip0_441_484)">
        <path d="M22.4671 -0.0271643C22.5565 -0.0269748 22.646 -0.0267854 22.7382 -0.0265903C24.0222 -0.0222247 25.2818 -0.000173226 26.543 0.263973C26.6287 0.281435 26.7144 0.298897 26.8026 0.316888C30.2347 1.0348 33.4392 2.40754 36.211 4.57061C36.2897 4.63077 36.3685 4.69093 36.4496 4.75292C37.0441 5.21592 37.5994 5.72108 38.1446 6.24054C38.1973 6.29078 38.2501 6.34103 38.3045 6.3928C39.0371 7.09558 39.7089 7.8174 40.3138 8.63319C40.4333 8.79418 40.5547 8.95367 40.6762 9.11312C41.236 9.8538 41.7309 10.6181 42.1875 11.4261C42.2194 11.4815 42.2514 11.5369 42.2842 11.594C44.1835 14.9117 45.042 18.6707 45.0275 22.4673C45.0273 22.5568 45.0271 22.6463 45.0269 22.7384C45.0226 24.0224 45.0005 25.2821 44.7364 26.5433C44.7102 26.6718 44.7102 26.6718 44.6835 26.8029C43.9655 30.2349 42.5928 33.4394 40.4297 36.2112C40.3696 36.29 40.3094 36.3687 40.2474 36.4498C39.7844 37.0443 39.2793 37.5997 38.7598 38.1448C38.6844 38.224 38.6844 38.224 38.6075 38.3047C37.9037 39.0385 37.1809 39.7105 36.3637 40.316C36.2124 40.4289 36.0636 40.5446 35.915 40.661C33.1947 42.7621 29.9087 44.1079 26.543 44.7366C26.4723 44.7509 26.4015 44.7651 26.3286 44.7798C23.6878 45.2962 20.6428 45.2001 18.0176 44.6487C17.8838 44.6212 17.8838 44.6212 17.7472 44.5931C14.4745 43.8977 11.431 42.4765 8.7891 40.43C8.67065 40.3396 8.67065 40.3396 8.5498 40.2473C7.95577 39.7842 7.40048 39.2794 6.85551 38.7601C6.80274 38.7098 6.74997 38.6596 6.6956 38.6078C5.96183 37.9039 5.28988 37.1811 4.68438 36.3639C4.57142 36.2127 4.45572 36.0639 4.33929 35.9153C2.23822 33.1949 0.892411 29.9089 0.263709 26.5433C0.249448 26.4725 0.235187 26.4018 0.220493 26.3289C-0.260519 23.8687 -0.250093 20.9105 0.263709 18.4573C0.281171 18.3717 0.298633 18.286 0.316624 18.1977C1.22152 13.8718 3.19347 10.0548 6.24027 6.85577C6.29039 6.80313 6.34051 6.75049 6.39215 6.69625C7.09506 5.96347 7.81699 5.29153 8.63293 4.68657C8.79392 4.56704 8.9534 4.44568 9.11285 4.32411C9.85354 3.76439 10.6179 3.26942 11.4258 2.8128C11.4812 2.78089 11.5366 2.74899 11.5937 2.71611C14.9114 0.816803 18.6704 -0.0416212 22.4671 -0.0271643ZM10.0196 17.8421C9.94082 18.0848 9.92052 18.3058 9.91993 18.56C9.91955 18.6323 9.91918 18.7046 9.91879 18.7791C9.91883 18.8577 9.91887 18.9363 9.91891 19.0173C9.91862 19.1006 9.91832 19.184 9.91802 19.2699C9.91718 19.5455 9.91701 19.8211 9.91692 20.0967C9.91663 20.2883 9.91634 20.4798 9.91603 20.6714C9.9155 21.0729 9.91534 21.4745 9.91539 21.876C9.9154 22.3907 9.9142 22.9053 9.91269 23.42C9.91171 23.8156 9.91153 24.2112 9.91158 24.6068C9.91147 24.7966 9.91109 24.9863 9.91041 25.1761C9.90955 25.4414 9.9098 25.7067 9.91033 25.972C9.90983 26.0504 9.90934 26.1288 9.90883 26.2096C9.91121 26.6778 9.92672 27.0527 10.2613 27.4112C10.5376 27.5494 10.6944 27.5091 10.9864 27.4222C11.2307 27.2453 11.2853 27.0976 11.3379 26.8069C11.3452 26.5768 11.3482 26.349 11.3465 26.1189C11.3464 26.0531 11.3463 25.9873 11.3461 25.9194C11.3456 25.7099 11.3445 25.5004 11.3434 25.2908C11.343 25.1485 11.3426 25.0061 11.3422 24.8637C11.3413 24.5154 11.3397 24.167 11.3379 23.8187C11.744 23.8187 12.15 23.8187 12.5684 23.8187C12.6264 23.9347 12.6844 24.0507 12.7442 24.1702C12.8254 24.2847 12.9098 24.397 12.9965 24.5074C13.0466 24.5714 13.0966 24.6354 13.1481 24.7013C13.2015 24.769 13.255 24.8366 13.31 24.9063C13.3921 25.011 13.3921 25.011 13.4759 25.1178C13.588 25.2606 13.7002 25.4033 13.8125 25.5459C13.9618 25.736 14.1104 25.9266 14.2586 26.1175C14.3434 26.2265 14.4282 26.3354 14.513 26.4444C14.5513 26.4939 14.5897 26.5435 14.6292 26.5946C15.0191 27.1424 15.0191 27.1424 15.6061 27.3727C15.8965 27.3564 15.8965 27.3564 16.073 27.2354C16.2129 27.0024 16.2399 26.814 16.2598 26.5433C16.1592 26.3199 16.1592 26.3199 15.9851 26.1148C15.9212 26.0325 15.8573 25.9503 15.7915 25.8655C15.7134 25.769 15.6351 25.6727 15.5567 25.5765C15.4583 25.4545 15.3598 25.3325 15.2614 25.2105C15.0185 24.9102 14.7738 24.6116 14.5278 24.3139C14.4244 24.1833 14.3307 24.0451 14.2383 23.9065C14.3043 23.8936 14.3702 23.8807 14.4381 23.8674C15.4841 23.6382 16.246 23.2064 16.875 22.3245C17.3264 21.52 17.4534 20.6683 17.2156 19.7702C16.9359 18.9402 16.3871 18.2372 15.612 17.817C15.159 17.6095 14.7583 17.4809 14.2576 17.475C14.1746 17.4739 14.0915 17.4727 14.006 17.4716C13.9169 17.4709 13.8278 17.4703 13.736 17.4696C13.6439 17.4689 13.5518 17.4682 13.4569 17.4674C13.2623 17.4662 13.0676 17.4653 12.8729 17.4646C12.5753 17.4631 12.2777 17.4592 11.9801 17.4553C11.7909 17.4545 11.6017 17.4537 11.4124 17.4531C11.3235 17.4516 11.2346 17.45 11.143 17.4485C10.6646 17.4499 10.3491 17.4533 10.0196 17.8421ZM19.2481 17.8421C19.1477 18.0428 19.1489 18.154 19.1484 18.377C19.1481 18.4522 19.1477 18.5273 19.1473 18.6048C19.1473 18.6874 19.1474 18.7701 19.1474 18.8552C19.1471 18.9421 19.1468 19.029 19.1465 19.1185C19.1457 19.4069 19.1455 19.6953 19.1454 19.9837C19.1452 20.1836 19.1449 20.3835 19.1445 20.5834C19.144 21.003 19.1439 21.4225 19.1439 21.842C19.1439 22.3801 19.1427 22.9182 19.1412 23.4563C19.1402 23.8694 19.14 24.2824 19.1401 24.6954C19.14 24.8939 19.1396 25.0923 19.1389 25.2907C19.1381 25.568 19.1383 25.8453 19.1388 26.1227C19.1384 26.2049 19.1379 26.2872 19.1373 26.372C19.1377 26.4477 19.1381 26.5233 19.1385 26.6013C19.1384 26.6668 19.1384 26.7324 19.1383 26.7999C19.1641 27.0151 19.2203 27.1514 19.336 27.3343C19.6553 27.5471 19.807 27.5332 20.1874 27.5356C20.2764 27.5365 20.2764 27.5365 20.3672 27.5374C20.5634 27.5391 20.7596 27.5394 20.9558 27.5396C21.0923 27.5402 21.2288 27.5407 21.3653 27.5414C21.6515 27.5424 21.9377 27.5427 22.224 27.5426C22.5904 27.5426 22.9567 27.545 23.3231 27.548C23.6051 27.55 23.887 27.5504 24.1691 27.5503C24.3041 27.5505 24.4392 27.5512 24.5742 27.5526C24.7633 27.5543 24.9524 27.5538 25.1415 27.5528C25.249 27.553 25.3566 27.5533 25.4674 27.5535C25.808 27.5015 25.9542 27.4052 26.1914 27.1585C26.2647 26.8509 26.2647 26.8509 26.1914 26.5433C25.9653 26.3138 25.8191 26.2029 25.4989 26.1494C25.3599 26.1506 25.3599 26.1506 25.218 26.1518C25.1125 26.1518 25.0069 26.1518 24.8982 26.1519C24.7851 26.1537 24.672 26.1555 24.5555 26.1574C24.4379 26.158 24.3203 26.1585 24.2027 26.1589C23.8942 26.1602 23.5857 26.1637 23.2773 26.1676C22.9621 26.1712 22.6469 26.1728 22.3316 26.1745C21.7139 26.1781 21.0963 26.185 20.4786 26.1917C20.4786 25.2056 20.4786 24.2194 20.4786 23.2034C21.0214 23.208 21.0214 23.208 21.5751 23.2127C21.8645 23.2144 22.154 23.2158 22.4434 23.2171C22.7484 23.2185 23.0534 23.2203 23.3585 23.2233C23.7088 23.2267 24.0592 23.228 24.4096 23.2292C24.5728 23.2312 24.5728 23.2312 24.7392 23.2333C25.4656 23.2416 25.4656 23.2416 26.1036 22.9398C26.2284 22.6901 26.2191 22.5131 26.1914 22.2366C25.9953 21.9863 25.8794 21.8983 25.5762 21.7972C25.4104 21.7894 25.2443 21.7868 25.0783 21.7872C24.9253 21.7872 24.9253 21.7872 24.7691 21.7872C24.659 21.7877 24.5488 21.7881 24.4353 21.7886C24.3226 21.7887 24.2098 21.7888 24.0936 21.789C23.7941 21.7893 23.4946 21.7902 23.195 21.7911C22.8893 21.792 22.5835 21.7924 22.2777 21.7929C21.678 21.7938 21.0783 21.7955 20.4786 21.7972C20.4786 20.811 20.4786 19.8249 20.4786 18.8089C21.0419 18.815 21.0419 18.815 21.6167 18.8213C21.9167 18.8235 22.2166 18.8254 22.5166 18.8271C22.833 18.8289 23.1494 18.8314 23.4658 18.8354C23.7707 18.8392 24.0755 18.8413 24.3804 18.8422C24.553 18.8432 24.7256 18.846 24.8982 18.8487C25.0565 18.8488 25.0565 18.8488 25.218 18.8488C25.3571 18.85 25.3571 18.85 25.4989 18.8512C25.8191 18.7977 25.9653 18.6868 26.1914 18.4573C26.2647 18.1497 26.2647 18.1497 26.1914 17.8421C25.9545 17.5961 25.8075 17.4993 25.4679 17.4459C25.3607 17.4456 25.2534 17.4453 25.1429 17.445C25.0834 17.4444 25.0239 17.4438 24.9626 17.4432C24.7669 17.4416 24.5713 17.4427 24.3756 17.4438C24.2391 17.4436 24.1027 17.4433 23.9662 17.4428C23.6807 17.4423 23.3951 17.4431 23.1096 17.4447C22.7438 17.4467 22.3781 17.4456 22.0123 17.4434C21.7306 17.4422 21.449 17.4426 21.1674 17.4435C21.0325 17.4437 20.8976 17.4434 20.7628 17.4426C20.5742 17.4417 20.3859 17.4431 20.1974 17.445C20.0366 17.4455 20.0366 17.4455 19.8725 17.4459C19.5481 17.499 19.4478 17.5868 19.2481 17.8421ZM28.6304 18.6551C27.9812 19.4547 27.9357 20.4084 27.9345 21.3924C27.9342 21.4792 27.9339 21.566 27.9336 21.6554C27.9332 21.8383 27.933 22.0213 27.933 22.2043C27.9328 22.482 27.9312 22.7597 27.9295 23.0374C27.9293 23.216 27.9291 23.3946 27.929 23.5732C27.9284 23.6552 27.9277 23.7371 27.9271 23.8216C27.931 24.9644 28.1839 25.8593 28.9672 26.7087C29.9491 27.5685 31.1117 27.5833 32.3438 27.5101C33.1823 27.3875 33.9044 26.9271 34.4288 26.2662C34.8264 25.691 35.0868 25.0707 35.0519 24.3625C34.9966 24.0922 34.9966 24.0922 34.8816 23.912C34.6127 23.7597 34.4032 23.7816 34.1016 23.8187C33.7758 24.0724 33.7 24.2814 33.6292 24.6811C33.5178 25.1693 33.3782 25.5445 32.959 25.8401C32.4654 26.0854 32.0109 26.1474 31.4649 26.1423C31.3985 26.144 31.3321 26.1458 31.2637 26.1476C30.7153 26.1471 30.2499 26.0033 29.8362 25.6313C29.3195 25.0553 29.3284 24.4408 29.3291 23.7095C29.3287 23.6144 29.3283 23.5192 29.3279 23.4212C29.3274 23.2204 29.3274 23.0196 29.3278 22.8189C29.328 22.5129 29.326 22.2071 29.3237 21.9012C29.3236 21.7056 29.3235 21.51 29.3236 21.3145C29.3224 21.1782 29.3224 21.1782 29.3211 21.0392C29.3249 20.4418 29.3718 19.9035 29.7641 19.4221C29.8141 19.3829 29.8642 19.3437 29.9158 19.3033C29.9654 19.2627 30.0151 19.2222 30.0662 19.1804C30.5333 18.881 30.9518 18.8647 31.4923 18.8638C31.6 18.8606 31.6 18.8606 31.7098 18.8573C32.3531 18.8542 32.8029 19.0376 33.2886 19.4571C33.5718 19.8239 33.6453 20.2963 33.7507 20.7384C33.8152 21.0303 33.8152 21.0303 34.1016 21.1819C34.3867 21.2123 34.5705 21.2088 34.8322 21.0886C34.9964 20.9 35.0607 20.7538 35.0825 20.5039C35.0158 19.5525 34.579 18.8066 33.8984 18.1717C32.363 16.9196 29.9315 17.2761 28.6304 18.6551Z" fill="white"/>
        <path d="M11.3379 18.8091C12.0992 18.801 12.0992 18.801 12.876 18.7927C13.1142 18.7891 13.1142 18.7891 13.3571 18.7854C13.4851 18.7846 13.6131 18.7839 13.7412 18.7834C13.8059 18.782 13.8706 18.7807 13.9373 18.7793C14.4812 18.779 14.9696 18.8804 15.4021 19.2338C15.821 19.7419 16.0417 20.1422 16.017 20.8241C15.9456 21.4457 15.695 21.7946 15.2253 22.1977C14.7608 22.4987 14.2981 22.5251 13.7583 22.5177C13.6966 22.5175 13.635 22.5174 13.5714 22.5172C13.3433 22.5163 13.1151 22.5138 12.887 22.5115C12.3758 22.5079 11.8646 22.5043 11.3379 22.5005C11.3379 21.2824 11.3379 20.0642 11.3379 18.8091Z" fill="white"/>
    </g>
    <defs>
        <clipPath id="clip0_441_484">
            <rect width="45" height="45" fill="white"/>
        </clipPath>
    </defs>
</svg>