<svg width="112" height="112" viewBox="0 0 112 112" fill="none" xmlns="http://www.w3.org/2000/svg">
<path d="M92.3962 8.63867H18.7959C14.0214 8.63867 10.1371 12.523 10.1371 17.2975V95.2272C10.1371 100.002 14.0214 103.886 18.7959 103.886H92.3962C97.1707 103.886 101.055 100.002 101.055 95.2272V17.2975C101.055 12.523 97.1707 8.63867 92.3962 8.63867Z" fill="white"/>
<path d="M96.7257 95.2266C96.7257 97.6077 94.7774 99.556 92.3962 99.556H18.796C16.4148 99.556 14.4666 97.6077 14.4666 95.2266V21.6263C14.4666 19.2451 16.4148 17.2969 18.796 17.2969H92.3962C94.7774 17.2969 96.7257 19.2451 96.7257 21.6263V95.2266Z" fill="url(#paint0_linear_446_1194)"/>
<path d="M92.3962 17.2969H18.796C16.4148 17.2969 14.4666 19.2451 14.4666 21.6263V23.791C14.4666 21.4098 16.4148 19.4616 18.796 19.4616H92.3962C94.7774 19.4616 96.7257 21.4098 96.7257 23.791V21.6263C96.7257 19.2451 94.7774 17.2969 92.3962 17.2969Z" fill="white"/>
<path d="M92.3962 12.9688H18.796C16.4148 12.9688 14.4666 14.917 14.4666 17.2982V21.6276C14.4666 19.2464 16.4148 17.2982 18.796 17.2982H92.3962C94.7774 17.2982 96.7257 19.2464 96.7257 21.6276V17.2982C96.7257 14.917 94.7774 12.9688 92.3962 12.9688Z" fill="url(#paint1_linear_446_1194)"/>
<path d="M57.7608 84.4036C73.3028 84.4036 85.9021 71.8044 85.9021 56.2624C85.9021 40.7204 73.3028 28.1211 57.7608 28.1211C42.2188 28.1211 29.6195 40.7204 29.6195 56.2624C29.6195 71.8044 42.2188 84.4036 57.7608 84.4036Z" fill="#0E6960"/>
<path d="M57.7609 28.1211V56.2624H85.9021C85.9021 40.7204 73.3029 28.1211 57.7609 28.1211Z" fill="#139673"/>
<path d="M57.7608 28.1211V56.2624H29.6195C29.6195 40.7204 42.2188 28.1211 57.7608 28.1211Z" fill="#0A7C80"/>
<path d="M25.2902 43.2734H55.5962V73.5794H25.2902V43.2734Z" fill="#147469"/>
<path d="M55.5961 45.4395H57.7608V56.263H55.5961V45.4395Z" fill="#0E6960"/>
<path d="M57.7609 56.2617H55.5962V73.5794H35.5786C36.1673 74.3322 36.7937 75.0547 37.4554 75.7441H57.7609V56.2617Z" fill="#105E56"/>
<path d="M42.6079 47.6035H31.7843V69.2507H36.1137V60.5918H42.6079C46.1946 60.5918 49.102 57.6844 49.102 54.0977C49.102 50.5109 46.1946 47.6035 42.6079 47.6035ZM42.6079 56.2624H36.1137V51.9329H42.6079C43.8034 51.9329 44.7726 52.9021 44.7726 54.0977C44.7726 55.2932 43.8034 56.2624 42.6079 56.2624Z" fill="white"/>
<defs>
<linearGradient id="paint0_linear_446_1194" x1="55.5961" y1="17.4419" x2="55.5961" y2="97.4495" gradientUnits="userSpaceOnUse">
<stop stop-color="#F8F8F8"/>
<stop offset="1" stop-color="#DBDCDD"/>
</linearGradient>
<linearGradient id="paint1_linear_446_1194" x1="14.4666" y1="17.2982" x2="96.7257" y2="17.2982" gradientUnits="userSpaceOnUse">
<stop stop-color="white"/>
<stop offset="0.5" stop-color="white"/>
<stop offset="1" stop-color="white"/>
</linearGradient>
</defs>
</svg>
