<svg width="58" height="58" viewBox="0 0 58 58" fill="none"
    xmlns="http://www.w3.org/2000/svg">
    <g clip-path="url(#clip0_0_74)">
        <path d="M29.0122 0.342285C13.1819 0.342285 0.352051 13.1722 0.352051 29.0024C0.352051 44.8327 13.1819 57.662 29.0122 57.662C44.8425 57.662 57.6724 44.8327 57.6724 29.0024C57.6724 13.1722 44.8426 0.342285 29.0122 0.342285ZM29.0122 55.3692C14.4739 55.3692 2.64486 43.5407 2.64486 29.0024C2.64486 14.464 14.4739 2.6351 29.0122 2.6351C43.5505 2.6351 55.3796 14.464 55.3796 29.0024C55.3796 43.5407 43.5505 55.3692 29.0122 55.3692Z" fill="#37404D"/>
        <path d="M30.1586 11.8062H27.8658V27.8558H11.8922V30.1487H27.8658V46.1222H30.1586V30.1487H46.2083V27.8558H30.1586V11.8062Z" fill="#37404D"/>
    </g>
    <defs>
        <clipPath id="clip0_0_74">
            <rect width="58" height="58" fill="white"/>
        </clipPath>
    </defs>
</svg>