<svg width="182" height="14" viewBox="0 0 182 14" fill="none"
    xmlns="http://www.w3.org/2000/svg">
    <path d="M3.41864 10.9046V1.30619H0V0.807206H7.36549V1.30619H3.94685V10.9046H3.41864ZM9.12665 10.9046V0H9.64018V4.52033H9.69887C9.76734 4.33443 9.88472 4.14853 10.051 3.96263C10.2173 3.77673 10.4765 3.62018 10.8286 3.49298C11.1906 3.36579 11.6845 3.30218 12.3105 3.30218C12.9072 3.30218 13.3865 3.356 13.7484 3.46363C14.1103 3.57126 14.3842 3.73759 14.5701 3.96263C14.7657 4.18767 14.8929 4.48608 14.9515 4.85788C15.02 5.22969 15.0543 5.67977 15.0543 6.20812V10.9046H14.5407V6.2815C14.5407 5.73358 14.5114 5.29817 14.4527 4.97529C14.394 4.64262 14.2815 4.38824 14.1152 4.21212C13.9489 4.03601 13.7093 3.9186 13.3963 3.8599C13.0931 3.80119 12.6969 3.77183 12.2078 3.77183C11.5623 3.77183 11.0634 3.85499 10.7113 4.02132C10.3591 4.18766 10.1048 4.42248 9.9483 4.7258C9.80158 5.01932 9.71354 5.36667 9.6842 5.76783C9.65485 6.1592 9.64018 6.57992 9.64018 7.02999V10.9046H9.12665ZM20.4906 11.022C19.933 11.022 19.4635 10.9877 19.082 10.9192C18.7103 10.8507 18.4071 10.7333 18.1724 10.567C17.9376 10.3909 17.7566 10.1561 17.6295 9.86253C17.5121 9.569 17.429 9.2021 17.3801 8.76181C17.3409 8.32151 17.3214 7.79316 17.3214 7.17675C17.3214 6.44293 17.3458 5.83141 17.3947 5.3422C17.4436 4.8432 17.5659 4.44694 17.7615 4.15341C17.9572 3.8501 18.2751 3.63485 18.7152 3.50765C19.1554 3.37067 19.7619 3.30218 20.5346 3.30218C21.0726 3.30218 21.5127 3.34133 21.8551 3.41961C22.2072 3.49788 22.4811 3.62507 22.6768 3.80119C22.8822 3.96752 23.0338 4.20235 23.1316 4.50566C23.2294 4.79919 23.293 5.16609 23.3223 5.60638C23.3517 6.03689 23.3663 6.55055 23.3663 7.14739V7.33819H17.8349C17.8349 7.98396 17.8642 8.5172 17.9229 8.93792C17.9816 9.35864 18.099 9.68642 18.2751 9.92124C18.4511 10.1561 18.7201 10.3224 19.082 10.4202C19.4537 10.5083 19.9477 10.5523 20.5639 10.5523C20.828 10.5523 21.1117 10.5425 21.4149 10.523C21.7182 10.5034 22.0116 10.4789 22.2953 10.4496C22.5887 10.4202 22.8479 10.386 23.0729 10.3469V10.8312C22.8871 10.8703 22.6474 10.9046 22.354 10.9339C22.0703 10.9633 21.7671 10.9828 21.4443 10.9926C21.1215 11.0122 20.8036 11.022 20.4906 11.022ZM22.8528 7.16208V6.56034C22.8528 5.93415 22.8137 5.43516 22.7354 5.06335C22.667 4.69155 22.5447 4.41269 22.3686 4.22679C22.1926 4.04089 21.948 3.9186 21.635 3.8599C21.3318 3.80119 20.9503 3.77183 20.4906 3.77183C19.8939 3.77183 19.4146 3.81098 19.0527 3.88925C18.7006 3.95774 18.4365 4.0996 18.2604 4.31486C18.0843 4.53011 17.9669 4.84321 17.9083 5.25415C17.8593 5.65531 17.8349 6.19343 17.8349 6.86855H23.1463L22.8528 7.16208ZM30.3379 10.9046L27.7262 3.41961H28.2838L30.558 10.068H30.646L32.7735 3.41961H33.331L35.4732 10.068H35.5612L37.8208 3.41961H38.3636L35.752 10.9046H35.2384L33.0816 4.31486H32.9936L30.8514 10.9046H30.3379ZM42.7503 11.022C42.1536 11.022 41.6596 10.9877 41.2684 10.9192C40.8869 10.8605 40.5788 10.7529 40.344 10.5964C40.119 10.43 39.9528 10.2001 39.8452 9.90657C39.7376 9.61304 39.6691 9.24612 39.6398 8.80583C39.6104 8.35575 39.5957 7.81273 39.5957 7.17675C39.5957 6.54077 39.6104 5.99775 39.6398 5.54767C39.6691 5.09759 39.7376 4.72579 39.8452 4.43226C39.9528 4.13873 40.119 3.91371 40.344 3.75716C40.5788 3.59083 40.8869 3.47341 41.2684 3.40492C41.6596 3.33643 42.1536 3.30218 42.7503 3.30218C43.3469 3.30218 43.836 3.33643 44.2175 3.40492C44.6088 3.47341 44.9169 3.59083 45.1419 3.75716C45.3766 3.91371 45.5478 4.13873 45.6554 4.43226C45.763 4.72579 45.8314 5.09759 45.8608 5.54767C45.8901 5.99775 45.9048 6.54077 45.9048 7.17675C45.9048 7.81273 45.8901 8.35575 45.8608 8.80583C45.8314 9.24612 45.763 9.61304 45.6554 9.90657C45.5478 10.2001 45.3766 10.43 45.1419 10.5964C44.9169 10.7529 44.6088 10.8605 44.2175 10.9192C43.836 10.9877 43.3469 11.022 42.7503 11.022ZM42.7503 10.5523C43.4154 10.5523 43.9289 10.5083 44.2909 10.4202C44.6528 10.3322 44.9071 10.1707 45.0538 9.93591C45.2103 9.70108 45.3032 9.36354 45.3326 8.92325C45.3717 8.47317 45.3913 7.891 45.3913 7.17675C45.3913 6.4625 45.3717 5.88034 45.3326 5.43027C45.3032 4.98019 45.2103 4.63775 45.0538 4.40292C44.9071 4.15832 44.6528 3.99198 44.2909 3.90392C43.9289 3.81586 43.4154 3.77183 42.7503 3.77183C42.0949 3.77183 41.5814 3.81586 41.2097 3.90392C40.8478 3.99198 40.5886 4.15832 40.432 4.40292C40.2853 4.63775 40.1924 4.98019 40.1533 5.43027C40.1239 5.88034 40.1093 6.4625 40.1093 7.17675C40.1093 7.891 40.1239 8.47317 40.1533 8.92325C40.1924 9.36354 40.2853 9.70108 40.432 9.93591C40.5886 10.1707 40.8478 10.3322 41.2097 10.4202C41.5814 10.5083 42.0949 10.5523 42.7503 10.5523ZM48.1801 10.9046V3.41961H48.5763L48.635 5.01933H48.6937C48.811 4.54969 48.992 4.19255 49.2365 3.94794C49.4908 3.69355 49.7892 3.52233 50.1315 3.43427C50.4837 3.34622 50.8651 3.30218 51.276 3.30218V3.83054C50.5619 3.83054 50.019 3.95773 49.6473 4.21212C49.2756 4.46651 49.0213 4.83832 48.8844 5.32753C48.7572 5.81675 48.6937 6.40869 48.6937 7.10337V10.9046H48.1801ZM52.8872 10.9046V0H53.4008V6.83919H54.6479L57.7731 3.41961H58.4187L55.0734 7.05935L58.4627 10.9046H57.7878L54.6479 7.33819H53.4008V10.9046H52.8872ZM62.3328 11.022C62.0784 11.022 61.7948 11.0122 61.4818 10.9926C61.1785 10.9828 60.8802 10.9633 60.5868 10.9339C60.2933 10.9143 60.0292 10.8899 59.7945 10.8605V10.3762C60.1368 10.4153 60.4254 10.4447 60.6601 10.4643C60.8949 10.4838 61.1052 10.5034 61.291 10.523C61.4867 10.5328 61.6774 10.5425 61.8632 10.5523C62.0589 10.5523 62.2839 10.5523 62.5382 10.5523C63.1055 10.5523 63.5261 10.4985 63.8 10.3909C64.0739 10.2833 64.2548 10.112 64.3429 9.87722C64.4309 9.64239 64.4749 9.33419 64.4749 8.95261C64.4749 8.50253 64.4407 8.17964 64.3722 7.98396C64.3037 7.77849 64.1864 7.64639 64.0201 7.58769C63.8636 7.52898 63.6386 7.48495 63.3452 7.4556L61.1737 7.25013C60.7433 7.20121 60.4107 7.11805 60.1759 7.00064C59.9412 6.88323 59.7798 6.69733 59.6918 6.44294C59.6037 6.18855 59.5597 5.85099 59.5597 5.43027C59.5597 4.94105 59.6184 4.55458 59.7358 4.27083C59.8629 3.97731 60.0488 3.76205 60.2933 3.62507C60.5379 3.48809 60.8362 3.40003 61.1883 3.36089C61.5405 3.32176 61.9415 3.30218 62.3915 3.30218C62.6164 3.30218 62.8561 3.31197 63.1104 3.33154C63.3745 3.34132 63.6337 3.3609 63.888 3.39025C64.1423 3.40982 64.3722 3.43916 64.5776 3.4783V3.96263C64.294 3.91371 64.025 3.87456 63.7706 3.84521C63.5261 3.81586 63.2718 3.79628 63.0077 3.7865C62.7534 3.77672 62.4648 3.77183 62.142 3.77183C61.741 3.77183 61.384 3.80119 61.0709 3.8599C60.7579 3.90882 60.5134 4.04089 60.3373 4.25615C60.1613 4.4714 60.0732 4.82854 60.0732 5.32753C60.0732 5.7189 60.1075 6.01243 60.1759 6.20812C60.2444 6.39402 60.3618
    6.52121 60.5281 6.5897C60.7041 6.65819 60.9389 6.7071 61.2323 6.73646L63.3305 6.94193C63.7804 6.98106 64.1228 7.05445 64.3575 7.16208C64.5923 7.26971 64.7537 7.4605 64.8417 7.73446C64.9395 7.99864 64.9885 8.40469 64.9885 8.95261C64.9885 9.38311 64.9395 9.73535 64.8417 10.0093C64.7439 10.2735 64.5874 10.4789 64.3722 10.6257C64.157 10.7725 63.8782 10.8752 63.5359 10.9339C63.2033 10.9926 62.8023 11.022 62.3328 11.022ZM67.1159 10.9046V0H67.6295V4.52033H67.6881C67.7566 4.33443 67.874 4.14853 68.0403 3.96263C68.2066 3.77673 68.4658 3.62018 68.8179 3.49298C69.1798 3.36579 69.6738 3.30218 70.2998 3.30218C70.8965 3.30218 71.3758 3.356 71.7377 3.46363C72.0996 3.57126 72.3735 3.73759 72.5593 3.96263C72.755 4.18767 72.8821 4.48608 72.9408 4.85788C73.0093 5.22969 73.0435 5.67977 73.0435 6.20812V10.9046H72.53V6.2815C72.53 5.73358 72.5007 5.29817 72.442 4.97529C72.3833 4.64262 72.2708 4.38824 72.1045 4.21212C71.9382 4.03601 71.6986 3.9186 71.3856 3.8599C71.0823 3.80119 70.6862 3.77183 70.1971 3.77183C69.5515 3.77183 69.0527 3.85499 68.7005 4.02132C68.3484 4.18766 68.0941 4.42248 67.9376 4.7258C67.7908 5.01932 67.7028 5.36667 67.6735 5.76783C67.6441 6.1592 67.6295 6.57992 67.6295 7.02999V10.9046H67.1159ZM78.4652 11.022C77.8685 11.022 77.3745 10.9877 76.9833 10.9192C76.6018 10.8605 76.2937 10.7529 76.0589 10.5964C75.834 10.43 75.6677 10.2001 75.5601 9.90657C75.4525 9.61304 75.384 9.24612 75.3547 8.80583C75.3253 8.35575 75.3106 7.81273 75.3106 7.17675C75.3106 6.54077 75.3253 5.99775 75.3547 5.54767C75.384 5.09759 75.4525 4.72579 75.5601 4.43226C75.6677 4.13873 75.834 3.91371 76.0589 3.75716C76.2937 3.59083 76.6018 3.47341 76.9833 3.40492C77.3745 3.33643 77.8685 3.30218 78.4652 3.30218C79.0618 3.30218 79.5509 3.33643 79.9324 3.40492C80.3237 3.47341 80.6318 3.59083 80.8568 3.75716C81.0915 3.91371 81.2627 4.13873 81.3703 4.43226C81.4779 4.72579 81.5464 5.09759 81.5757 5.54767C81.6051 5.99775 81.6197 6.54077 81.6197 7.17675C81.6197 7.81273 81.6051 8.35575 81.5757 8.80583C81.5464 9.24612 81.4779 9.61304 81.3703 9.90657C81.2627 10.2001 81.0915 10.43 80.8568 10.5964C80.6318 10.7529 80.3237 10.8605 79.9324 10.9192C79.5509 10.9877 79.0618 11.022 78.4652 11.022ZM78.4652 10.5523C79.1303 10.5523 79.6439 10.5083 80.0058 10.4202C80.3677 10.3322 80.622 10.1707 80.7687 9.93591C80.9252 9.70108 81.0182 9.36354 81.0475 8.92325C81.0866 8.47317 81.1062 7.891 81.1062 7.17675C81.1062 6.4625 81.0866 5.88034 81.0475 5.43027C81.0182 4.98019 80.9252 4.63775 80.7687 4.40292C80.622 4.15832 80.3677 3.99198 80.0058 3.90392C79.6439 3.81586 79.1303 3.77183 78.4652 3.77183C77.8098 3.77183 77.2963 3.81586 76.9246 3.90392C76.5627 3.99198 76.3035 4.15832 76.147 4.40292C76.0002 4.63775 75.9073 4.98019 75.8682 5.43027C75.8388 5.88034 75.8242 6.4625 75.8242 7.17675C75.8242 7.891 75.8388 8.47317 75.8682 8.92325C75.9073 9.36354 76.0002 9.70108 76.147 9.93591C76.3035 10.1707 76.5627 10.3322 76.9246 10.4202C77.2963 10.5083 77.8098 10.5523 78.4652 10.5523ZM83.8952 13.8398V3.41961H84.306L84.35 4.63775H84.4087C84.5456 4.24638 84.751 3.95773 85.0249 3.77183C85.3086 3.57615 85.6314 3.44896 85.9933 3.39025C86.3552 3.33154 86.7318 3.30218 87.1231 3.30218C87.7488 3.30218 88.2526 3.36089 88.6341 3.4783C89.0253 3.58592 89.3237 3.78162 89.5291 4.06537C89.7345 4.33933 89.8763 4.73069 89.9546 5.23947C90.0328 5.73846 90.072 6.37934 90.072 7.16208C90.072 7.94482 90.0328 8.59058 89.9546 9.09936C89.8763 9.59836 89.7345 9.98972 89.5291 10.2735C89.3237 10.5474 89.0253 10.7431 88.6341 10.8605C88.2526 10.9682 87.7488 11.022 87.1231 11.022C86.6438 11.022 86.228 10.9828 85.8759 10.9046C85.5238 10.8263 85.2303 10.6991 84.9956 10.523C84.7608 10.3469 84.5848 10.112 84.4674 9.8185H84.4087V13.8398H83.8952ZM86.9763 10.5523C87.5336 10.5523 87.9836 10.5132 88.3259 10.4349C88.6683 10.3566 88.9275 10.205 89.1036 9.97995C89.2796 9.74513 89.397 9.40268 89.4557 8.95261C89.5242 8.50253 89.5584 7.90568 89.5584 7.16208C89.5584 6.41848 89.5242 5.82163 89.4557 5.37156C89.397 4.92148 89.2796 4.58392 89.1036 4.35888C88.9275 4.12406 88.6683 3.96753 88.3259 3.88925C87.9836 3.81098 87.5336 3.77183 86.9763 3.77183C86.3307 3.77183 85.8074 3.86478 85.4064 4.05068C85.0151 4.23658 84.751 4.54478 84.6141 4.97529C84.5163 5.2786 84.4576 5.61128 84.438 5.97329C84.4185 6.32553 84.4087 6.72179 84.4087 7.16208C84.4087 7.61216 84.4185 8.0133 84.438 8.36554C84.4576 8.70799 84.5016 8.99173 84.5701 9.21677C84.7364 9.70598 85.0151 10.0533 85.4064 10.2588C85.7977 10.4545 86.321 10.5523 86.9763 10.5523ZM94.602 11.022C94.3477 11.022 94.064 11.0122 93.751 10.9926C93.4478 10.9828 93.1495 10.9633 92.856 10.9339C92.5626 10.9143 92.2985 10.8899 92.0637 10.8605V10.3762C92.4061 10.4153 92.6946 10.4447 92.9294 10.4643C93.1641 10.4838 93.3744 10.5034 93.5603 10.523C93.7559 10.5328 93.9467 10.5425 94.1325 10.5523C94.3281 10.5523 94.5531 10.5523 94.8074 10.5523C95.3747 10.5523 95.7954 10.4985 96.0692 10.3909C96.3431 10.2833 96.5241 10.112 96.6121 9.87722C96.7002 9.64239 96.7442 9.33419 96.7442 8.95261C96.7442 8.50253 96.7099 8.17964 96.6414 7.98396C96.573 7.77849 96.4556 7.64639 96.2893 7.58769C96.1328 7.52898 95.9078 7.48495 95.6144 7.4556L93.4429 7.25013C93.0125 7.20121 92.6799 7.11805 92.4452 7.00064C92.2104 6.88323 92.049 6.69733 91.961 6.44294C91.873 6.18855 91.829 5.85099 91.829 5.43027C91.829 4.94105 91.8876 4.55458 92.005 4.27083C92.1322 3.97731 92.318 3.76205 92.5626 3.62507C92.8071 3.48809 93.1054 3.40003 93.4576 3.36089C93.8097 3.32176 94.2107 3.30218 94.6607 3.30218C94.8857 3.30218 95.1253 3.31197 95.3796 3.33154C95.6437 3.34132 95.9029 3.3609 96.1573 3.39025C96.4116 3.40982 96.6415 3.43916 96.8469 3.4783V3.96263C96.5632 3.91371 96.2942 3.87456 96.0399 3.84521C95.7954 3.81586 95.541 3.79628 95.2769 3.7865C95.0226 3.77672 94.7341 3.77183 94.4113 3.77183C94.0102 3.77183 93.6532 3.80119 93.3402 3.8599C93.0272 3.90882 92.7827 4.04089 92.6066 4.25615C92.4305 4.4714 92.3425 4.82854 92.3425 5.32753C92.3425 5.7189 92.3767 6.01243 92.4452 6.20812C92.5137 6.39402 92.631 6.52121 92.7973 6.5897C92.9734 6.65819 93.2081 6.7071 93.5016 6.73646L95.5997 6.94193C96.0497 6.98106 96.392 7.05445 96.6268 7.16208C96.8615 7.26971 97.0229 7.4605 97.111 7.73446C97.2088
    7.99864 97.2577 8.40469 97.2577 8.95261C97.2577 9.38311 97.2088 9.73535 97.111 10.0093C97.0131 10.2735 96.8566 10.4789 96.6414 10.6257C96.4263 10.7725 96.1475 10.8752 95.8051 10.9339C95.4726 10.9926 95.0715 11.022 94.602 11.022ZM102.372 10.9046V0H102.886V10.9046H102.372ZM108.319 11.022C107.723 11.022 107.229 10.9877 106.837 10.9192C106.456 10.8605 106.148 10.7529 105.913 10.5964C105.688 10.43 105.522 10.2001 105.414 9.90657C105.307 9.61304 105.238 9.24612 105.209 8.80583C105.179 8.35575 105.165 7.81273 105.165 7.17675C105.165 6.54077 105.179 5.99775 105.209 5.54767C105.238 5.09759 105.307 4.72579 105.414 4.43226C105.522 4.13873 105.688 3.91371 105.913 3.75716C106.148 3.59083 106.456 3.47341 106.837 3.40492C107.229 3.33643 107.723 3.30218 108.319 3.30218C108.916 3.30218 109.405 3.33643 109.787 3.40492C110.178 3.47341 110.486 3.59083 110.711 3.75716C110.946 3.91371 111.117 4.13873 111.224 4.43226C111.332 4.72579 111.401 5.09759 111.43 5.54767C111.459 5.99775 111.474 6.54077 111.474 7.17675C111.474 7.81273 111.459 8.35575 111.43 8.80583C111.401 9.24612 111.332 9.61304 111.224 9.90657C111.117 10.2001 110.946 10.43 110.711 10.5964C110.486 10.7529 110.178 10.8605 109.787 10.9192C109.405 10.9877 108.916 11.022 108.319 11.022ZM108.319 10.5523C108.985 10.5523 109.498 10.5083 109.86 10.4202C110.222 10.3322 110.476 10.1707 110.623 9.93591C110.779 9.70108 110.872 9.36354 110.902 8.92325C110.941 8.47317 110.96 7.891 110.96 7.17675C110.96 6.4625 110.941 5.88034 110.902 5.43027C110.872 4.98019 110.779 4.63775 110.623 4.40292C110.476 4.15832 110.222 3.99198 109.86 3.90392C109.498 3.81586 108.985 3.77183 108.319 3.77183C107.664 3.77183 107.15 3.81586 106.779 3.90392C106.417 3.99198 106.158 4.15832 106.001 4.40292C105.854 4.63775 105.762 4.98019 105.722 5.43027C105.693 5.88034 105.678 6.4625 105.678 7.17675C105.678 7.891 105.693 8.47317 105.722 8.92325C105.762 9.36354 105.854 9.70108 106.001 9.93591C106.158 10.1707 106.417 10.3322 106.779 10.4202C107.15 10.5083 107.664 10.5523 108.319 10.5523ZM116.537 11.022C115.94 11.022 115.446 10.9877 115.055 10.9192C114.674 10.8605 114.366 10.7529 114.131 10.5964C113.906 10.43 113.74 10.2001 113.632 9.90657C113.524 9.61304 113.456 9.24612 113.427 8.80583C113.397 8.35575 113.383 7.81273 113.383 7.17675C113.383 6.54077 113.397 5.99775 113.427 5.54767C113.456 5.09759 113.524 4.72579 113.632 4.43226C113.74 4.13873 113.906 3.91371 114.131 3.75716C114.366 3.59083 114.674 3.47341 115.055 3.40492C115.446 3.33643 115.94 3.30218 116.537 3.30218C117.134 3.30218 117.623 3.33643 118.004 3.40492C118.396 3.47341 118.704 3.59083 118.929 3.75716C119.163 3.91371 119.335 4.13873 119.442 4.43226C119.55 4.72579 119.618 5.09759 119.648 5.54767C119.677 5.99775 119.692 6.54077 119.692 7.17675C119.692 7.81273 119.677 8.35575 119.648 8.80583C119.618 9.24612 119.55 9.61304 119.442 9.90657C119.335 10.2001 119.163 10.43 118.929 10.5964C118.704 10.7529 118.396 10.8605 118.004 10.9192C117.623 10.9877 117.134 11.022 116.537 11.022ZM116.537 10.5523C117.202 10.5523 117.716 10.5083 118.078 10.4202C118.44 10.3322 118.694 10.1707 118.841 9.93591C118.997 9.70108 119.09 9.36354 119.119 8.92325C119.159 8.47317 119.178 7.891 119.178 7.17675C119.178 6.4625 119.159 5.88034 119.119 5.43027C119.09 4.98019 118.997 4.63775 118.841 4.40292C118.694 4.15832 118.44 3.99198 118.078 3.90392C117.716 3.81586 117.202 3.77183 116.537 3.77183C115.882 3.77183 115.368 3.81586 114.996 3.90392C114.635 3.99198 114.375 4.15832 114.219 4.40292C114.072 4.63775 113.979 4.98019 113.94 5.43027C113.911 5.88034 113.896 6.4625 113.896 7.17675C113.896 7.891 113.911 8.47317 113.94 8.92325C113.979 9.36354 114.072 9.70108 114.219 9.93591C114.375 10.1707 114.635 10.3322 114.996 10.4202C115.368 10.5083 115.882 10.5523 116.537 10.5523ZM121.967 10.9046V0H122.481V6.83919H123.728L126.853 3.41961H127.499L124.153 7.05935L127.543 10.9046H126.868L123.728 7.33819H122.481V10.9046H121.967ZM135.087 11.022C134.529 11.022 134.059 10.9877 133.678 10.9192C133.306 10.8507 133.003 10.7333 132.768 10.567C132.534 10.3909 132.353 10.1561 132.225 9.86253C132.108 9.569 132.025 9.2021 131.976 8.76181C131.937 8.32151 131.917 7.79316 131.917 7.17675C131.917 6.44293 131.942 5.83141 131.991 5.3422C132.04 4.8432 132.162 4.44694 132.357 4.15341C132.553 3.8501 132.871 3.63485 133.311 3.50765C133.751 3.37067 134.358 3.30218 135.131 3.30218C135.669 3.30218 136.109 3.34133 136.451 3.41961C136.803 3.49788 137.077 3.62507 137.273 3.80119C137.478 3.96752 137.63 4.20235 137.728 4.50566C137.825 4.79919 137.889 5.16609 137.918 5.60638C137.948 6.03689 137.962 6.55055 137.962 7.14739V7.33819H132.431C132.431 7.98396 132.46 8.5172 132.519 8.93792C132.578 9.35864 132.695 9.68642 132.871 9.92124C133.047 10.1561 133.316 10.3224 133.678 10.4202C134.05 10.5083 134.544 10.5523 135.16 10.5523C135.424 10.5523 135.708 10.5425 136.011 10.523C136.314 10.5034 136.608 10.4789 136.891 10.4496C137.185 10.4202 137.444 10.386 137.669 10.3469V10.8312C137.483 10.8703 137.243 10.9046 136.95 10.9339C136.666 10.9633 136.363 10.9828 136.04 10.9926C135.717 11.0122 135.4 11.022 135.087 11.022ZM137.449 7.16208V6.56034C137.449 5.93415 137.41 5.43516 137.331 5.06335C137.263 4.69155 137.141 4.41269 136.965 4.22679C136.788 4.04089 136.544 3.9186 136.231 3.8599C135.928 3.80119 135.546 3.77183 135.087 3.77183C134.49 3.77183 134.011 3.81098 133.649 3.88925C133.297 3.95774 133.032 4.0996 132.856 4.31486C132.68 4.53011 132.563 4.84321 132.504 5.25415C132.455 5.65531 132.431 6.19343 132.431 6.86855H137.742L137.449 7.16208ZM139.35 10.9046L142.373 7.10337L139.453 3.41961H140.113L142.666 6.64841H142.739L145.307 3.41961H145.953L143.033 7.0887L146.055 10.9046H145.395L142.739 7.54366H142.666L139.996 10.9046H139.35ZM149.956 11.022C149.418 11.022 148.968 10.9779 148.606 10.8899C148.254 10.8018 147.97 10.6648 147.755 10.4789C147.54 10.2832 147.378 10.0387 147.271 9.74512C147.163 9.44181 147.09 9.07979 147.051 8.65907C147.021 8.22856 147.007 7.73445 147.007 7.17675C147.007 6.55056 147.031 6.01732 147.08 5.57702C147.129 5.13673 147.217 4.76983 147.344 4.4763C147.471 4.17299 147.642 3.93816 147.858 3.77183C148.083 3.6055 148.356 3.48809 148.679 3.41961C149.012 3.34133 149.413 3.30218 149.882 3.30218C150.205 3.30218 150.543 3.31687 150.895 3.34623C151.257 3.37558 151.555 3.41471 151.79 3.46363V3.94794C151.535 3.89902 
    151.237 3.85989 150.895 3.83054C150.562 3.79141 150.259 3.77183 149.985 3.77183C149.457 3.77183 149.026 3.82075 148.694 3.91859C148.371 4.01643 148.122 4.18765 147.946 4.43226C147.779 4.67687 147.667 5.01933 147.608 5.45962C147.549 5.89991 147.52 6.4625 147.52 7.14739C147.52 7.86165 147.549 8.44382 147.608 8.8939C147.667 9.34397 147.784 9.6913 147.96 9.93591C148.136 10.1707 148.391 10.3322 148.723 10.4202C149.056 10.5083 149.491 10.5523 150.029 10.5523C150.342 10.5523 150.67 10.5328 151.012 10.4936C151.364 10.4545 151.648 10.4105 151.863 10.3615V10.8458C151.638 10.8948 151.345 10.9339 150.983 10.9633C150.631 11.0024 150.288 11.022 149.956 11.022ZM153.741 0.895253V0H154.372V0.895253H153.741ZM153.8 10.9046V3.41961H154.313V10.9046H153.8ZM157.517 10.9046V3.88925H155.932V3.41961H157.517V1.2475H158.03V3.41961H159.879V3.88925H158.03V10.9046H157.517ZM161.436 0.895253V0H162.066V0.895253H161.436ZM161.494 10.9046V3.41961H162.008V10.9046H161.494ZM164.654 10.9046V3.41961H165.064L165.108 4.63775H165.167C165.245 4.40293 165.373 4.18767 165.549 3.99199C165.725 3.78652 165.994 3.62018 166.356 3.49298C166.718 3.36579 167.211 3.30218 167.838 3.30218C168.434 3.30218 168.913 3.356 169.275 3.46363C169.637 3.57126 169.911 3.73759 170.097 3.96263C170.293 4.18767 170.42 4.48608 170.479 4.85788C170.547 5.22969 170.581 5.67977 170.581 6.20812V10.9046H170.068V6.2815C170.068 5.73358 170.038 5.29817 169.98 4.97529C169.921 4.64262 169.809 4.38824 169.642 4.21212C169.476 4.03601 169.236 3.9186 168.923 3.8599C168.62 3.80119 168.224 3.77183 167.735 3.77183C167.089 3.77183 166.59 3.85499 166.238 4.02132C165.886 4.18766 165.632 4.42248 165.475 4.7258C165.329 5.01932 165.241 5.36667 165.211 5.76783C165.182 6.1592 165.167 6.57992 165.167 7.02999V10.9046H164.654ZM175.856 13.9279C175.543 13.9279 175.215 13.923 174.873 13.9132C174.54 13.9034 174.218 13.8888 173.904 13.8692C173.601 13.8594 173.337 13.8447 173.112 13.8252V13.3408C173.396 13.3604 173.694 13.38 174.007 13.3995C174.33 13.4191 174.643 13.4338 174.946 13.4436C175.249 13.4534 175.528 13.4582 175.783 13.4582C176.389 13.4582 176.873 13.4044 177.235 13.2968C177.597 13.1892 177.871 13.0082 178.057 12.7538C178.243 12.4994 178.365 12.1472 178.424 11.6971C178.482 11.2568 178.512 10.6991 178.512 10.024V9.8185H178.453C178.336 10.112 178.159 10.3469 177.925 10.523C177.69 10.6991 177.397 10.8263 177.044 10.9046C176.692 10.9828 176.277 11.022 175.797 11.022C175.171 11.022 174.663 10.9682 174.271 10.8605C173.89 10.7431 173.596 10.5474 173.391 10.2735C173.186 9.98972 173.044 9.59836 172.965 9.09936C172.887 8.59058 172.848 7.94482 172.848 7.16208C172.848 6.37934 172.887 5.73846 172.965 5.23947C173.044 4.73069 173.186 4.33933 173.391 4.06537C173.596 3.78162 173.89 3.58592 174.271 3.4783C174.663 3.36089 175.171 3.30218 175.797 3.30218C176.188 3.30218 176.565 3.33154 176.927 3.39025C177.289 3.44896 177.607 3.57615 177.881 3.77183C178.164 3.95773 178.375 4.24638 178.512 4.63775H178.57L178.614 3.41961H179.025V9.84786C179.025 10.6208 178.986 11.2666 178.908 11.7851C178.839 12.3135 178.693 12.7342 178.468 13.0473C178.252 13.3604 177.934 13.5854 177.514 13.7224C177.103 13.8594 176.55 13.9279 175.856 13.9279ZM175.944 10.5523C176.599 10.5523 177.118 10.4594 177.499 10.2735C177.89 10.0876 178.155 9.78427 178.292 9.36354C178.399 9.06023 178.463 8.73246 178.482 8.38022C178.502 8.01821 178.512 7.61216 178.512 7.16208C178.512 6.72179 178.502 6.33041 178.482 5.98796C178.472 5.63573 178.424 5.32753 178.336 5.06335C178.179 4.58392 177.9 4.25127 177.499 4.06537C177.108 3.86968 176.59 3.77183 175.944 3.77183C175.386 3.77183 174.936 3.81098 174.594 3.88925C174.252 3.96753 173.993 4.12406 173.816 4.35888C173.64 4.58392 173.518 4.92148 173.45 5.37156C173.391 5.82163 173.362 6.41848 173.362 7.16208C173.362 7.90568 173.391 8.50253 173.45 8.95261C173.518 9.40268 173.64 9.74513 173.816 9.97995C173.993 10.205 174.252 10.3566 174.594 10.4349C174.936 10.5132 175.386 10.5523 175.944 10.5523ZM181.442 8.36554C181.433 7.93503 181.423 7.51431 181.413 7.10337C181.413 6.68265 181.408 6.2766 181.398 5.88523C181.389 5.48407 181.379 5.10738 181.369 4.75515C181.369 4.40292 181.369 4.07514 181.369 3.77183C181.369 3.46852 181.369 3.19945 181.369 2.96463V0.807206H181.927V2.96463C181.927 3.19945 181.927 3.46852 181.927 3.77183C181.927 4.07514 181.922 4.40292 181.912 4.75515C181.912 5.10738 181.907 5.48407 181.897 5.88523C181.887 6.2766 181.878 6.68265 181.868 7.10337C181.868 7.51431 181.863 7.93503 181.853 8.36554H181.442ZM181.296 10.9046V9.95059H182V10.9046H181.296Z" fill="black"/>
</svg>
