<svg width="42" height="42" viewBox="0 0 42 42" fill="none" xmlns="http://www.w3.org/2000/svg">
    <path
        d="M19.4432 41.2453H5.57474C4.29888 41.2425 3.0759 40.728 2.17275 39.8141C1.2696 38.9002 0.759617 37.6612 0.754121 36.3673V5.64262C0.756871 4.34697 1.26564 3.10518 2.16909 2.18901C3.07253 1.27284 4.29708 0.75691 5.57474 0.754121H35.3314"
        stroke="#007581" stroke-width="1.5" stroke-linecap="round" stroke-linejoin="round" />
    <path
        d="M40.1524 5.64314V36.3467C40.1524 37.6442 39.6448 38.8887 38.7411 39.8072C37.8373 40.7256 36.6112 41.243 35.3317 41.2458H25.9612"
        stroke="#007581" stroke-width="1.5" stroke-linecap="round" stroke-linejoin="round" />
    <path
        d="M40.7429 2.12662C40.7429 2.43874 40.4953 2.67971 40.2045 2.67971C39.9137 2.67971 39.6661 2.43874 39.6661 2.12662C39.6661 1.81451 39.9137 1.57354 40.2045 1.57354C40.4953 1.57354 40.7429 1.81451 40.7429 2.12662Z"
        fill="black" stroke="#007581" />
    <path
        d="M19.4429 41.2454V28.058H14.8617V21.7864H19.4429V15.7365C19.4429 14.0563 20.101 12.445 21.2726 11.2569C22.4441 10.0689 24.0331 9.40147 25.6899 9.40147H32.1764V15.3669H27.4287C27.2241 15.3668 27.0216 15.4083 26.8332 15.489C26.6447 15.5696 26.4741 15.6877 26.3314 15.8363C26.1888 15.985 26.0769 16.1611 26.0025 16.3543C25.9281 16.5475 25.8926 16.7539 25.8981 16.9612V21.7547H32.1452V28.0897H25.8981V41.2454"
        stroke="#007581" stroke-width="1.5" stroke-linecap="round" stroke-linejoin="round" />
</svg>