<svg width="62" height="56" viewBox="0 0 62 56" fill="none"
    xmlns="http://www.w3.org/2000/svg">
    <mask id="mask0_528_585" style="mask-type:luminance" maskUnits="userSpaceOnUse" x="0" y="20" width="15" height="16">
        <path d="M0 20.0645H14.6867V35.5765H0V20.0645Z" fill="white"/>
    </mask>
    <g mask="url(#mask0_528_585)">
        <path fill-rule="evenodd" clip-rule="evenodd" d="M0 27.8207C0 23.7901 3.2658 20.5327 7.28589 20.5327C11.3143 20.5327 14.5718 23.8006 14.5718 27.8207C14.5718 31.8491 11.3039 35.1066 7.28589 35.1066C3.25744 35.1066 0 31.8387 0 27.8207Z" fill="#5CE1E6"/>
    </g>
    <mask id="mask1_528_585" style="mask-type:luminance" maskUnits="userSpaceOnUse" x="35" y="-1" width="16" height="16">
        <path d="M35.5477 -0.180214H50.5248V14.7154H35.5477V-0.180214Z" fill="white"/>
    </mask>
    <g mask="url(#mask1_528_585)">
        <path fill-rule="evenodd" clip-rule="evenodd" d="M39.2084 13.5977C35.719 11.5834 34.528 7.13294 36.5422 3.64566C38.5565 0.156289 43.007 -1.03469 46.4943 0.97953C49.9815 2.99375 51.1746 7.44426 49.1604 10.9315C47.1462 14.4188 42.6957 15.6119 39.2084 13.5977Z" fill="#5CE1E6"/>
    </g>
    <mask id="mask2_528_585" style="mask-type:luminance" maskUnits="userSpaceOnUse" x="35" y="20" width="28" height="36">
        <path d="M35.5477 20.0645H62.1818V55.9026H35.5477V20.0645Z" fill="white"/>
    </mask>
    <g mask="url(#mask2_528_585)">
        <path fill-rule="evenodd" clip-rule="evenodd" d="M53.59 35.0244L48.5294 43.7854C48.7592 44.0759 48.9703 44.3872 49.1604 44.7173C51.1746 48.2046 49.9815 52.6551 46.4943 54.6693C43.007 56.6836 38.5565 55.4926 36.5422 52.0032C34.528 48.5159 35.719 44.0654 39.2084 42.0512C40.7107 41.1883 42.3843 40.9187 43.9786 41.159L49.0392 32.4001C48.0279 31.1464 47.4262 29.5626 47.4262 27.8284C47.4262 23.7999 50.694 20.5425 54.712 20.5425C58.7426 20.5425 62 23.8104 62 27.8284C62 31.8589 58.7321 35.1163 54.712 35.1163C54.3318 35.1163 53.9515 35.085 53.59 35.0244Z" fill="#5CE1E6"/>
    </g>
    <mask id="mask3_528_585" style="mask-type:luminance" maskUnits="userSpaceOnUse" x="11" y="-1" width="28" height="57">
        <path d="M11.4773 -0.180214H38.757V55.9025H11.4773V-0.180214Z" fill="white"/>
    </mask>
    <g mask="url(#mask3_528_585)">
        <path fill-rule="evenodd" clip-rule="evenodd" d="M20.2655 14.4899C17.3778 14.9412 14.3816 13.6186 12.8291 10.9315C10.8128 7.44426 12.0059 2.99375 15.4953 0.97953C18.9825 -1.03469 23.433 0.156289 25.4473 3.64566C26.9997 6.33059 26.6487 9.58803 24.8163 11.8634L29.8769 20.6224C30.2384 20.5639 30.6186 20.5325 30.9989 20.5325C35.0295 20.5325 38.2848 23.8004 38.2848 27.8205C38.2848 31.849 35.019 35.1064 30.9989 35.1064C30.6186 35.1064 30.2467 35.0751 29.8873 35.0165L24.8246 43.7859C26.6591 46.0613 27.0102 49.3188 25.4577 51.9933C23.4414 55.4826 18.993 56.6757 15.5036 54.6594C12.0163 52.6452 10.8233 48.1947 12.8375 44.7074C14.3816 42.0224 17.3778 40.6977 20.2655 41.1491L25.3261 32.3797C24.3252 31.1281 23.713 29.5443 23.713 27.8101C23.713 26.0758 24.3148 24.492 25.3261 23.2384L20.2655 14.4794V14.4899Z" fill="#007581"/>
    </g>
</svg>