<svg width="15" height="12" viewBox="0 0 15 12" fill="none" xmlns="http://www.w3.org/2000/svg"><path fill-rule="evenodd" clip-rule="evenodd" d="M7.21267 0C10.8073 0 13.798 2.58667 14.4253 6C13.7987 9.41333 10.8073 12 7.21267 12C3.618 12 0.627333 9.41333 0 6C0.626667 2.58667 3.618 0 7.21267 0ZM7.21265 9C5.55579 9 4.21265 7.65685 4.21265 6C4.21265 4.34315 5.55579 3 7.21265 3C7.77212 3 8.29583 3.15315 8.74413 3.41982C8.57719 3.36368 8.39843 3.33325 8.21256 3.33325C7.29209 3.33325 6.5459 4.07945 6.5459 4.99992C6.5459 5.92039 7.29209 6.66659 8.21257 6.66659C9.13304 6.66659 9.87923 5.92039 9.87923 4.99992C9.87923 4.81396 9.84878 4.63511 9.79258 4.4681C10.0594 4.91649 10.2126 5.44035 10.2126 6C10.2126 7.65685 8.8695 9 7.21265 9Z" fill="white"/></svg>