<svg width="40" height="40" viewBox="0 0 40 40" fill="none"
    xmlns="http://www.w3.org/2000/svg">
    <path d="M20.8648 17.2799V14.1794C20.8648 13.8628 21.2093 13.6766 21.47 13.8442L29.2912 18.779C29.5426 18.9373 29.5426 19.2911 29.2912 19.4494L24.9709 22.1775L23.416 23.1645L21.47 24.3935C21.2093 24.5611 20.8647 24.3656 20.8647 24.0583V21.3581V20.9485" stroke="white" stroke-width="0.7" stroke-miterlimit="10" stroke-linecap="round" stroke-linejoin="round"/>
    <path d="M24.971 22.1766L23.416 23.1636L21.47 24.3926C21.2093 24.5602 20.8648 24.3647 20.8648 24.0574V21.3572V20.9475C18.7182 21.0356 16.0998 20.6493 14.3282 21.4569C12.6896 22.2038 11.3735 23.5934 10.7727 25.2915C10.6659 25.5934 10.5814 25.9032 10.5203 26.2176V23.7408C10.5203 22.8009 10.7243 21.8648 11.1176 21.0109C11.4999 20.1809 12.0568 19.4337 12.7409 18.8279C13.4284 18.2191 14.2421 17.7555 15.1179 17.4789C16.3771 17.081 17.7455 17.1357 19.0474 17.2209C19.6517 17.2604 20.259 17.279 20.8648 17.279" stroke="white" stroke-width="0.7" stroke-miterlimit="10" stroke-linecap="round" stroke-linejoin="round"/>
    <path d="M16.323 18.4351C16.7899 18.3469 17.2667 18.3074 17.7453 18.2969" stroke="white" stroke-width="0.7" stroke-miterlimit="10" stroke-linecap="round" stroke-linejoin="round"/>
    <path d="M13.3263 19.7618C13.7644 19.2111 14.6454 18.7842 15.1513 18.7754" stroke="white" stroke-width="0.7" stroke-miterlimit="10" stroke-linecap="round" stroke-linejoin="round"/>
</svg>