<svg width="201" height="201" viewBox="0 0 201 201" fill="none"
    xmlns="http://www.w3.org/2000/svg">
    <path d="M127.392 110.809C122.881 103.036 113.172 97.6577 101.913 97.6577C90.6541 97.6577 80.9457 103.036 76.4349 110.809C68.3753 114.57 63.2836 120.082 63.2836 126.23C63.2836 137.563 80.5766 146.75 101.913 146.75C123.25 146.75 140.543 137.563 140.543 126.23C140.543 120.082 135.451 114.57 127.392 110.809Z" stroke="#007581" stroke-width="7" stroke-miterlimit="10"/>
    <path d="M127.467 72.0909C129.405 63.916 125.894 56.0837 119.624 54.5969C113.354 53.1102 106.7 58.532 104.762 66.7068C102.823 74.8817 106.334 82.714 112.604 84.2008C118.874 85.6876 125.528 80.2658 127.467 72.0909Z" stroke="#007581" stroke-width="7" stroke-miterlimit="10"/>
    <path d="M87.1019 84.1946C93.3717 82.7078 96.883 74.8755 94.9445 66.7006C93.006 58.5257 86.3519 53.1039 80.082 54.5907C73.8121 56.0775 70.3008 63.9098 72.2393 72.0847C74.1778 80.2595 80.832 85.6813 87.1019 84.1946Z" stroke="#007581" stroke-width="7" stroke-miterlimit="10"/>
    <path d="M65.1423 105.92C70.0468 103.089 71.0303 95.6103 67.339 89.2168C63.6477 82.8233 56.6795 79.9359 51.775 82.7675C46.8705 85.5991 45.887 93.0775 49.5783 99.4709C53.2696 105.864 60.2378 108.752 65.1423 105.92Z" stroke="#007581" stroke-width="7" stroke-miterlimit="10"/>
    <path d="M151.425 96.0127C155.116 89.6192 154.132 82.1408 149.228 79.3092C144.323 76.4776 137.355 79.3651 133.664 85.7586C129.973 92.152 130.956 99.6304 135.861 102.462C140.765 105.294 147.733 102.406 151.425 96.0127Z" stroke="#007581" stroke-width="7" stroke-miterlimit="10"/>
</svg>