
<svg width="14" height="19" viewBox="0 0 14 19" fill="none" xmlns="http://www.w3.org/2000/svg"><path d="M2.69148 9.50018V4.07148C2.69148 2.99192 3.12193 1.95556 3.89036 1.19184C4.65757 0.428128 5.6986 0 6.78403 0C7.86946 0 8.91049 0.428128 9.67769 1.19184C10.4461 1.95556 10.8766 2.99192 10.8766 4.07148V9.50018C10.8766 10.5797 10.4461 11.6149 9.67769 12.3786C8.91049 13.1423 7.86946 13.5717 6.78403 13.5717C5.6986 13.5717 4.65757 13.1423 3.89036 12.3786C3.12193 11.6149 2.69148 10.5797 2.69148 9.50018ZM12.9574 9.50883C12.7798 9.48909 12.6009 9.54087 12.4603 9.65191C12.3197 9.76295 12.2284 9.92457 12.2075 10.1022C12.057 11.4286 11.4218 12.6537 10.4215 13.5433C9.42114 14.4328 8.12602 14.9251 6.78403 14.9251C5.44204 14.9251 4.14692 14.4328 3.1466 13.5433C2.14628 12.6537 1.51106 11.4286 1.36058 10.1022C1.33961 9.92457 1.24835 9.76295 1.10774 9.65191C0.96713 9.54087 0.788262 9.48909 0.610646 9.50883C0.520605 9.51747 0.434263 9.54332 0.355323 9.58527C0.275149 9.62722 0.206086 9.68524 0.149348 9.75433C0.0926095 9.82465 0.050665 9.90482 0.0259961 9.98995C0.00132728 10.0763 -0.00607126 10.1664 0.00502972 10.2553C0.178945 11.795 0.879551 13.2274 1.98965 14.3144C3.09975 15.4014 4.55149 16.0763 6.10193 16.2268V18.3218C6.10193 18.5019 6.17349 18.6746 6.30176 18.8017C6.43004 18.9288 6.60271 19.0004 6.78403 19.0004C6.96535 19.0004 7.13802 18.9288 7.26629 18.8017C7.39457 18.6746 7.46613 18.5019 7.46613 18.3218V16.2268C9.01657 16.0763 10.4683 15.4014 11.5784 14.3144C12.6885 13.2274 13.3891 11.795 13.563 10.2553C13.5741 10.1664 13.5667 10.0763 13.5421 9.98995C13.5174 9.90482 13.4754 9.82465 13.4187 9.75433C13.362 9.68524 13.2929 9.62722 13.2127 9.58527C13.1338 9.54332 13.0475 9.51747 12.9574 9.50883Z" fill="black"/></svg>