<svg width="80" height="80" viewBox="0 0 80 80" fill="none"
    xmlns="http://www.w3.org/2000/svg">
    <g clip-path="url(#clip0_0_403)">
        <path d="M15.8333 69.1673C16.0543 69.1673 16.2663 69.0795 16.4226 68.9232C16.5788 68.767 16.6666 68.555 16.6666 68.334V61.6673C16.6666 60.7833 16.3155 59.9354 15.6903 59.3103C15.0652 58.6852 14.2174 58.334 13.3333 58.334H6.66665C5.78259 58.334 4.93474 58.6852 4.30962 59.3103C3.6845 59.9354 3.33331 60.7833 3.33331 61.6673V68.334C3.33331 68.555 3.42111 68.767 3.57739 68.9232C3.73367 69.0795 3.94563 69.1673 4.16665 69.1673H15.8333Z" fill="white"/>
        <path d="M35.8333 69.166C36.0543 69.166 36.2663 69.0782 36.4226 68.9219C36.5788 68.7657 36.6666 68.5537 36.6666 68.3327V44.9993C36.6666 44.1153 36.3155 43.2674 35.6903 42.6423C35.0652 42.0172 34.2174 41.666 33.3333 41.666H26.6666C25.7826 41.666 24.9347 42.0172 24.3096 42.6423C23.6845 43.2674 23.3333 44.1153 23.3333 44.9993V68.3327C23.3333 68.5537 23.4211 68.7657 23.5774 68.9219C23.7337 69.0782 23.9456 69.166 24.1666 69.166H35.8333Z" fill="white"/>
        <path d="M55.8333 69.1673C56.0543 69.1673 56.2663 69.0795 56.4226 68.9232C56.5788 68.767 56.6666 68.555 56.6666 68.334V51.6673C56.6666 50.7833 56.3155 49.9354 55.6903 49.3103C55.0652 48.6852 54.2174 48.334 53.3333 48.334H46.6666C45.7826 48.334 44.9347 48.6852 44.3096 49.3103C43.6845 49.9354 43.3333 50.7833 43.3333 51.6673V68.334C43.3333 68.555 43.4211 68.767 43.5774 68.9232C43.7337 69.0795 43.9456 69.1673 44.1666 69.1673H55.8333Z" fill="white"/>
        <path d="M75.8333 69.1667C76.0543 69.1667 76.2663 69.0789 76.4226 68.9226C76.5788 68.7663 76.6666 68.5543 76.6666 68.3333V28.3333C76.6666 27.4493 76.3155 26.6014 75.6903 25.9763C75.0652 25.3512 74.2174 25 73.3333 25H66.6666C65.7826 25 64.9347 25.3512 64.3096 25.9763C63.6845 26.6014 63.3333 27.4493 63.3333 28.3333V68.3333C63.3333 68.5543 63.4211 68.7663 63.5774 68.9226C63.7337 69.0789 63.9456 69.1667 64.1666 69.1667H75.8333Z" fill="white"/>
        <path d="M11.6667 45.0001C13.4348 45.0001 15.1305 44.2977 16.3807 43.0474C17.631 41.7972 18.3333 40.1015 18.3333 38.3334C18.3258 37.6535 18.2134 36.9789 18 36.3334L28.5567 27.5334C29.8815 28.2629 31.4189 28.5088 32.9052 28.2291C34.3916 27.9493 35.7343 27.1613 36.7033 26.0001L45.0367 28.7801C45.2051 30.4635 46.0073 32.0199 47.2806 33.1338C48.5539 34.2478 50.2032 34.836 51.894 34.7792C53.5849 34.7224 55.1909 34.0248 56.3866 32.8279C57.5823 31.631 58.2782 30.0243 58.3333 28.3334C58.3267 27.2726 58.0625 26.2294 57.5633 25.2934L68.52 12.5101C69.8035 13.1943 71.276 13.4386 72.7117 13.2055C74.1473 12.9724 75.4669 12.2749 76.4681 11.2198C77.4693 10.1647 78.0967 8.8104 78.2542 7.36448C78.4117 5.91856 78.0906 4.46089 77.3401 3.21501C76.5896 1.96913 75.4511 1.00382 74.0993 0.467114C72.7474 -0.06959 71.2569 -0.148058 69.8562 0.243744C68.4555 0.635545 67.2219 1.47599 66.3448 2.63618C65.4676 3.79637 64.9952 5.21227 65 6.66673C65.0087 7.31301 65.1132 7.95443 65.31 8.57007L53.7667 22.0401C52.5183 21.5952 51.163 21.5463 49.8858 21.9C48.6086 22.2538 47.4716 22.993 46.63 24.0167L38.2967 21.2401C38.2442 20.2957 37.9909 19.3733 37.5537 18.5346C37.1164 17.6959 36.5053 16.9601 35.761 16.3764C35.0168 15.7926 34.1566 15.3743 33.2379 15.1495C32.3191 14.9246 31.363 14.8983 30.4333 15.0724C29.5036 15.2464 28.6217 15.6167 27.8465 16.1587C27.0714 16.7007 26.4207 17.4018 25.938 18.2152C25.4553 19.0286 25.1517 19.9356 25.0474 20.8757C24.9432 21.8158 25.0406 22.7673 25.3333 23.6667L14.7867 32.4801C13.8302 31.9545 12.758 31.675 11.6667 31.6667C9.89856 31.6667 8.20286 32.3691 6.95262 33.6194C5.70238 34.8696 5 36.5653 5 38.3334C5 40.1015 5.70238 41.7972 6.95262 43.0474C8.20286 44.2977 9.89856 45.0001 11.6667 45.0001Z" fill="white"/>
        <path d="M76.6667 73.334H3.33333C2.45357 73.3477 1.61368 73.7033 0.991518 74.3255C0.369352 74.9477 0.0137489 75.7875 0 76.6673C0 77.5514 0.35119 78.3992 0.976311 79.0243C1.60143 79.6495 2.44928 80.0007 3.33333 80.0007H76.6667C77.5507 80.0007 78.3986 79.6495 79.0237 79.0243C79.6488 78.3992 80 77.5514 80 76.6673C79.9871 75.7873 79.6317 74.9469 79.0094 74.3246C78.3871 73.7022 77.5467 73.3469 76.6667 73.334Z" fill="white"/>
    </g>
    <defs>
        <clipPath id="clip0_0_403">
            <rect width="80" height="80" fill="white"/>
        </clipPath>
    </defs>
</svg>