<svg width="70" height="71" viewBox="0 0 70 71" fill="none"
    xmlns="http://www.w3.org/2000/svg">
    <path d="M18.7353 38.8389L45.0532 60.8798C45.4958 61.2507 46.0072 61.5307 46.5582 61.7039C47.1091 61.8771 47.6887 61.9401 48.264 61.8893C48.8392 61.8385 49.3989 61.6749 49.9109 61.4079C50.4229 61.1408 50.8773 60.7755 51.2482 60.3328C51.9972 59.4387 52.3603 58.2837 52.2577 57.1219C52.1551 55.9601 51.5952 54.8867 50.7011 54.1377L28.4272 35.4842L50.792 16.9405C51.6897 16.196 52.2549 15.1253 52.3632 13.964C52.4714 12.8027 52.1139 11.646 51.3694 10.7483C50.6248 9.85055 49.5541 9.28539 48.3928 9.17712C47.2315 9.06885 46.0748 9.42633 45.1771 10.1709L18.7518 32.0823C18.2564 32.4942 17.8575 33.0099 17.5832 33.5929C17.3089 34.1759 17.166 34.812 17.1644 35.4563C17.1628 36.1006 17.3027 36.7374 17.5741 37.3218C17.8456 37.9061 18.242 38.4245 18.7353 38.8389Z" fill="#909090" fill-opacity="0.952941"/>
</svg>