<svg width="238" height="40" viewBox="0 0 238 40" fill="none"
    xmlns="http://www.w3.org/2000/svg">
    <path d="M0.238527 11.8183V0.87484H0.810995V6.01257H7.74419V0.87484H8.31665V11.8183H7.74419V6.55338H0.810995V11.8183H0.238527ZM14.4593 11.9456C13.855 11.9456 13.3462 11.9089 12.9327 11.8343C12.5298 11.7596 12.2012 11.6324 11.9468 11.4525C11.6924 11.2616 11.4962 11.0071 11.3584 10.689C11.2312 10.3709 11.1411 9.97323 11.0881 9.49604C11.0456 9.01885 11.0245 8.44622 11.0245 7.77816C11.0245 6.98284 11.0509 6.31967 11.104 5.78987C11.157 5.24906 11.2894 4.8196 11.5015 4.50147C11.7135 4.17234 12.0581 3.93985 12.5352 3.80159C13.0122 3.65354 13.6694 3.57891 14.507 3.57891C15.09 3.57891 15.567 3.62172 15.9381 3.70615C16.3198 3.79057 16.6165 3.92883 16.8286 4.11971C17.0513 4.29957 17.2156 4.55408 17.3216 4.88322C17.4275 5.20135 17.4965 5.59901 17.5283 6.0762C17.5601 6.54237 17.576 7.09908 17.576 7.74634V7.95313H11.581C11.581 8.65301 11.6129 9.23052 11.6765 9.6869C11.7401 10.1433 11.8673 10.4981 12.0581 10.7526C12.2489 11.0071 12.5404 11.187 12.9327 11.2934C13.3355 11.3889 13.8709 11.4366 14.5388 11.4366C14.825 11.4366 15.1324 11.4256 15.4611 11.4048C15.7897 11.384 16.1077 11.3571 16.4152 11.3253C16.7332 11.2934 17.0141 11.2567 17.258 11.2139V11.7388C17.0565 11.7816 16.7968 11.8184 16.4788 11.8502C16.1713 11.882 15.8427 11.9028 15.4929 11.9138C15.1431 11.9346 14.7985 11.9456 14.4593 11.9456ZM17.0195 7.76225V7.11009C17.0195 6.43101 16.977 5.89021 16.8923 5.48766C16.818 5.08511 16.6855 4.7829 16.4947 4.58101C16.3039 4.37912 16.0388 4.24696 15.6996 4.18334C15.3709 4.11971 14.9575 4.08791 14.4593 4.08791C13.8126 4.08791 13.2931 4.13072 12.9009 4.21515C12.5193 4.28979 12.233 4.44273 12.0422 4.67643C11.8514 4.91013 11.7242 5.24906 11.6606 5.69443C11.6075 6.1288 11.581 6.71244 11.581 7.44413H17.3375L17.0195 7.76225ZM22.9592 15.095C22.6517 15.095 22.3284 15.0901 21.9892 15.0791C21.6605 15.0681 21.3424 15.0522 21.035 15.0314C20.7382 15.0204 20.4785 15.0045 20.2559 14.9837V14.4588C20.5421 14.4796 20.8388 14.5016 21.1464 14.5224C21.4538 14.5432 21.7559 14.5591 22.0528 14.5701C22.3495 14.5811 22.6252 14.586 22.8797 14.586C23.5687 14.586 24.1146 14.5175 24.5175 14.3793C24.931 14.241 25.2331 14.0293 25.4239 13.743C25.6253 13.4567 25.7525 13.0908 25.8056 12.6455C25.8692 12.2001 25.901 11.6703 25.901 11.0549V10.6254H25.8374C25.7738 10.8162 25.6466 11.0181 25.4558 11.2298C25.2755 11.4317 24.9892 11.6006 24.5971 11.7388C24.2154 11.8771 23.6853 11.9456 23.0069 11.9456C22.3602 11.9456 21.8407 11.8869 21.4485 11.7706C21.0562 11.6544 20.7541 11.4733 20.5421 11.2298C20.3406 10.9863 20.2028 10.6621 20.1286 10.2595C20.065 9.85698 20.0332 9.36878 20.0332 8.79616V3.70615H20.5898V8.71662C20.5898 9.30026 20.6216 9.77133 20.6852 10.1323C20.7488 10.4932 20.8706 10.7685 21.0509 10.9594C21.2311 11.1503 21.4856 11.2775 21.8142 11.3412C22.1534 11.4048 22.588 11.4366 23.1182 11.4366C23.8179 11.4366 24.3585 11.3461 24.7402 11.1662C25.1218 10.9863 25.3921 10.7367 25.5512 10.4186C25.7207 10.0895 25.8215 9.71383 25.8533 9.28925C25.8851 8.85489 25.901 8.39361 25.901 7.90541V3.70615H26.4576V10.7526C26.4576 11.559 26.4099 12.2368 26.3145 12.7886C26.2296 13.3502 26.0653 13.7956 25.8215 14.1248C25.5776 14.4637 25.2225 14.7084 24.7561 14.8564C24.3002 15.0155 23.7012 15.095 22.9592 15.095ZM31.5962 11.8183V11.2775C32.158 11.2567 32.5927 11.2188 32.9001 11.1662C33.2075 11.1136 33.4302 10.9863 33.568 10.7844C33.7059 10.5826 33.7906 10.2546 33.8224 9.79825C33.8542 9.34187 33.8701 8.71174 33.8701 7.90541V0.87484H34.4426V7.61909C34.4426 8.4144 34.4267 9.07145 34.3949 9.59146C34.3737 10.1115 34.3154 10.5189 34.22 10.8163C34.1352 11.1136 33.9867 11.3302 33.7747 11.4684C33.5733 11.6067 33.2977 11.696 32.9478 11.7388C32.598 11.7816 32.1475 11.8073 31.5962 11.8183ZM39.7572 11.9456C39.0894 11.9456 38.5382 11.8869 38.1034 11.7706C37.6688 11.6544 37.3455 11.4317 37.1334 11.1026C36.9321 10.7636 36.8313 10.2705 36.8313 9.62328C36.8313 9.02985 36.9003 8.56857 37.038 8.23944C37.1759 7.90051 37.4197 7.66193 37.7695 7.52367C38.1194 7.3854 38.607 7.31688 39.2325 7.31688C39.3597 7.31688 39.5559 7.32177 39.8208 7.33278C40.0859 7.33278 40.388 7.33768 40.7272 7.34869C41.0771 7.3597 41.4269 7.36949 41.7768 7.3805C42.1372 7.3805 42.4712 7.3854 42.7786 7.39641V6.66471C42.7786 6.07129 42.7415 5.60389 42.6673 5.26497C42.6037 4.91503 42.4712 4.65564 42.2697 4.48557C42.0789 4.31549 41.798 4.21025 41.4269 4.16743C41.0559 4.11482 40.5736 4.08791 39.9799 4.08791C39.7361 4.08791 39.4498 4.09891 39.1212 4.11971C38.8031 4.14051 38.4905 4.16743 38.183 4.19924C37.8756 4.22004 37.6159 4.25186 37.4038 4.29468V3.76978C37.7218 3.71716 38.1247 3.67433 38.6123 3.64252C39.1 3.5997 39.63 3.57891 40.2025 3.57891C40.722 3.57891 41.162 3.60582 41.5223 3.65843C41.8935 3.71104 42.1956 3.8016 42.4287 3.92885C42.6726 4.0561 42.8581 4.23596 42.9853 4.46966C43.1125 4.69235 43.2027 4.97865 43.2556 5.32859C43.3087 5.66752 43.3351 6.08109 43.3351 6.56929V11.8183H42.8899L42.8422 10.4981H42.7786C42.6302 10.9325 42.3864 11.2567 42.0471 11.4684C41.7185 11.6703 41.3474 11.7976 40.934 11.8502C40.5312 11.9138 40.1389 11.9456 39.7572 11.9456ZM39.7413 11.4366C40.1125 11.4366 40.4728 11.4207 40.8227 11.3889C41.1831 11.3461 41.5012 11.2616 41.7768 11.1344C42.0525 10.9961 42.2592 10.7796 42.3969 10.4822C42.5454 10.1641 42.6461 9.85088 42.6991 9.54376C42.7522 9.22564 42.7786 8.8708 42.7786 8.47804V7.82588H39.3915C38.8615 7.82588 38.448 7.86871 38.1511 7.95313C37.8649 8.03756 37.6636 8.20763 37.5469 8.46213C37.441 8.71663 37.3879 9.10327 37.3879 9.62328C37.3879 10.1115 37.4515 10.4871 37.5787 10.7526C37.7059 11.0181 37.9392 11.198 38.2784 11.2934C38.6177 11.3889 39.1053 11.4366 39.7413 11.4366ZM46.201 11.8183V3.70615H46.6463L46.694 5.02638H46.7576C46.8317 4.77188 46.9537 4.53817 47.1233 4.3265C47.2929 4.10381 47.5527 3.92395 47.9025 3.78568C48.2524 3.64742 48.7294 3.57891 49.3337 3.57891C50.1288 3.57891 50.7117 3.69025 51.0829 3.91294C51.4645 4.13563 51.7189 4.50637 51.8462 5.02638H51.9257C51.9998 4.77188 52.127 4.53817 52.3073 4.3265C52.4875 4.10381 52.7578 3.92395 53.1183 3.78568C53.4787 3.64742 53.9611 3.57891 54.5654 3.57891C55.3287 3.57891 55.9011 3.68536 56.2828 3.89703C56.6644 4.09892 56.9135 4.43295 57.0302 4.89913C57.1574 5.35551 57.221 5.96484 57.221 6.72834V11.8183H56.6644V6.80788C56.6644 6.21445 56.6379 5.74216 56.5849 5.39222C56.5318 5.03127 56.4259 4.75598 56.2669 4.5651C56.1184 4.37423 55.8957 4.24696 55.599 4.18334C55.3128 4.11971 54.9311 4.08791 54.4541 4.08791C53.8391 4.08791 53.3621 4.17233 53.0229 4.34241C52.6836 4.50147 52.4398 4.74007 52.2914 5.0582C52.1536 5.36531 52.0688 5.73726 52.037 6.17162C52.0052 6.60598 51.9893 7.08929 51.9893 7.61909V11.8183H51.4327V6.80788C51.4327 6.21445 51.4062 5.74216 51.3532 5.39222C51.3001 5.03127 51.1942 4.75598 51.0352 4.5651C50.8867 4.37423 50.664 4.24696 50.3673 4.18334C50.0811 4.11971 49.6994 4.08791 49.2224 4.08791C48.6075 4.08791 48.1304 4.17845 47.7912 4.35831C47.4519 4.53818 47.2081 4.79267 47.0597 5.1218C46.9219 5.43993 46.8371 5.81679 46.8053 6.25115C46.7735 6.67573 46.7576 7.13089 46.7576 7.61909V11.8183H46.201ZM60.013 0.970281V0H60.6968V0.970281H60.013ZM60.0766 11.8183V3.70615H60.6331V11.8183H60.0766ZM66.5383 11.9456C65.9341 11.9456 65.4252 11.9089 65.0118 11.8343C64.6088 11.7596 64.2803 11.6324 64.0259 11.4525C63.7714 11.2616 63.5752 11.0071 63.4375 10.689C63.3103 10.3709 63.2201 9.97323 63.1672 9.49604C63.1247 9.01885 63.1035 8.44622 63.1035 7.77816C63.1035 6.98284 63.13 6.31967 63.1831 5.78987C63.236 5.24906 63.3685 4.8196 63.5806 4.50147C63.7926 4.17234 64.1372 3.93985 64.6142 3.80159C65.0913 3.65354 65.7485 3.57891 66.586 3.57891C67.169 3.57891 67.6461 3.62172 68.0172 3.70615C68.3988 3.79057 68.6956 3.92883 68.9077 4.11971C69.1303 4.29957 69.2946 4.55408 69.4007 4.88322C69.5066 5.20135 69.5756 5.59901 69.6074 6.0762C69.6392 6.54237 69.6551 7.09908 69.6551 7.74634V7.95313H63.6601C63.6601 8.65301 63.6919 9.23052 63.7555 9.6869C63.8191 10.1433 63.9463 10.4981 64.1372 10.7526C64.328 11.0071 64.6195 11.187 65.0118 11.2934C65.4146 11.3889 65.95 11.4366 66.6178 11.4366C66.9041 11.4366 67.2115 11.4256 67.5402 11.4048C67.8687 11.384 68.1867 11.3571 68.4943 11.3253C68.8123 11.2934 69.0932 11.2567 69.3371 11.2139V11.7388C69.1356 11.7816 68.8759 11.8184 68.5579 11.8502C68.2504 11.882 67.9218 11.9028 67.572 11.9138C67.2221 11.9346 66.8775 11.9456 66.5383 11.9456ZM69.0985 7.76225V7.11009C69.0985 6.43101 69.0561 5.89021 68.9713 5.48766C68.8971 5.08511 68.7646 4.7829 68.5738 4.58101C68.383 4.37912 68.1179 4.24696 67.7787 4.18334C67.45 4.11971 67.0366 4.08791 66.5383 4.08791C65.8916 4.08791 65.3721 4.13072 64.98 4.21515C64.5983 4.28979 64.3121 4.44273 64.1213 4.67643C63.9304 4.91013 63.8032 5.24906 63.7396 5.69443C63.6865 6.1288 63.6601 6.71244 63.6601 7.44413H69.4166L69.0985 7.76225ZM71.0628 13.4249V13.0908C71.3066 13.0908 71.4815 13.059 71.5875 12.9954C71.7041 12.9428 71.7784 12.8412 71.8102 12.6932C71.842 12.5451 71.8579 12.3432 71.8579 12.0887V11.8183H71.5398V10.7844H72.3031V11.9774C72.3031 12.2637 72.2818 12.4974 72.2395 12.6773C72.2077 12.8682 72.1441 13.0162 72.0487 13.1227C71.9638 13.2389 71.842 13.3184 71.6829 13.3613C71.5239 13.4041 71.3172 13.4249 71.0628 13.4249ZM77.8277 11.8183V0H78.3842V4.89913H78.4478C78.5219 4.69724 78.6492 4.49657 78.8295 4.29468C79.0096 4.0928 79.2906 3.92395 79.6723 3.78568C80.0644 3.64742 80.5998 3.57891 81.2783 3.57891C81.9249 3.57891 82.4448 3.63763 82.8362 3.75387C83.2289 3.87011 83.5261 4.0512 83.7267 4.29468C83.9396 4.53817 84.0766 4.86241 84.1402 5.26497C84.2148 5.66752 84.2515 6.15572 84.2515 6.72834V11.8183H83.6949V6.80788C83.6949 6.21445 83.6631 5.74216 83.5995 5.39222C83.5359 5.03127 83.4148 4.75598 83.2338 4.5651C83.054 4.37423 82.7946 4.24696 82.4546 4.18334C82.1268 4.11971 81.6974 4.08791 81.167 4.08791C80.4674 4.08791 79.9267 4.17845 79.5451 4.35831C79.1634 4.53818 78.8877 4.79267 78.7181 5.1218C78.5591 5.43993 78.4637 5.81679 78.4319 6.25115C78.4001 6.67573 78.3842 7.13089 78.3842 7.61909V11.8183H77.8277ZM89.4758 11.9456C88.808
     11.9456 88.2563 11.8869 87.8221 11.7706C87.3878 11.6544 87.0637 11.4317 86.8521 11.1026C86.6502 10.7636 86.5499 10.2705 86.5499 9.62328C86.5499 9.02985 86.6184 8.56857 86.7567 8.23944C86.8949 7.90051 87.1383 7.66193 87.4881 7.52367C87.838 7.3854 88.326 7.31688 88.9511 7.31688C89.0783 7.31688 89.274 7.32177 89.5395 7.33278C89.8049 7.33278 90.107 7.33768 90.4459 7.34869C90.7957 7.3597 91.1455 7.36949 91.4954 7.3805C91.8562 7.3805 92.1902 7.3854 92.4972 7.39641V6.66471C92.4972 6.07129 92.4605 5.60389 92.3859 5.26497C92.3223 4.91503 92.1902 4.65564 91.9883 4.48557C91.7975 4.31549 91.5162 4.21025 91.1456 4.16743C90.7749 4.11482 90.2917 4.08791 89.6985 4.08791C89.4551 4.08791 89.1688 4.09891 88.8398 4.11971C88.5218 4.14051 88.2086 4.16743 87.9016 4.19924C87.5946 4.22004 87.334 4.25186 87.1224 4.29468V3.76978C87.4404 3.71716 87.8429 3.67433 88.3309 3.64252C88.819 3.5997 89.3486 3.57891 89.9211 3.57891C90.441 3.57891 90.8801 3.60582 91.241 3.65843C91.6116 3.71104 91.9137 3.8016 92.1474 3.92885C92.3908 4.0561 92.5767 4.23596 92.7039 4.46966C92.8311 4.69235 92.9217 4.97865 92.9742 5.32859C93.0268 5.66752 93.0538 6.08109 93.0538 6.56929V11.8183H92.6085L92.5608 10.4981H92.4972C92.3492 10.9325 92.1046 11.2567 91.7657 11.4684C91.4367 11.6703 91.066 11.7976 90.6526 11.8502C90.2502 11.9138 89.8575 11.9456 89.4758 11.9456ZM89.4599 11.4366C89.8306 11.4366 90.1914 11.4207 90.5413 11.3889C90.9021 11.3461 91.2202 11.2616 91.4954 11.1344C91.7706 10.9961 91.9773 10.7796 92.1156 10.4822C92.2636 10.1641 92.3651 9.85088 92.4177 9.54376C92.4703 9.22564 92.4972 8.8708 92.4972 8.47804V7.82588H89.1101C88.5805 7.82588 88.167 7.86871 87.8698 7.95313C87.5835 8.03756 87.3817 8.20763 87.2655 8.46213C87.1591 8.71663 87.1065 9.10327 87.1065 9.62328C87.1065 10.1115 87.1701 10.4871 87.2973 10.7526C87.4245 11.0181 87.6581 11.198 87.997 11.2934C88.3358 11.3889 88.8239 11.4366 89.4599 11.4366ZM98.0384 11.8183L94.7308 3.70615H95.3351L98.2769 11.039H98.3723L101.314 3.70615H101.903L98.5949 11.8183H98.0384ZM106.62 11.9456C106.016 11.9456 105.507 11.9089 105.094 11.8343C104.691 11.7596 104.362 11.6324 104.108 11.4525C103.854 11.2616 103.658 11.0071 103.52 10.689C103.392 10.3709 103.303 9.97323 103.249 9.49604C103.208 9.01885 103.186 8.44622 103.186 7.77816C103.186 6.98284 103.213 6.31967 103.265 5.78987C103.319 5.24906 103.451 4.8196 103.663 4.50147C103.876 4.17234 104.219 3.93985 104.696 3.80159C105.173 3.65354 105.831 3.57891 106.668 3.57891C107.252 3.57891 107.729 3.62172 108.099 3.70615C108.481 3.79057 108.778 3.92883 108.99 4.11971C109.212 4.29957 109.378 4.55408 109.483 4.88322C109.589 5.20135 109.658 5.59901 109.69 6.0762C109.721 6.54237 109.737 7.09908 109.737 7.74634V7.95313H103.742C103.742 8.65301 103.774 9.23052 103.838 9.6869C103.901 10.1433 104.028 10.4981 104.219 10.7526C104.41 11.0071 104.702 11.187 105.094 11.2934C105.498 11.3889 106.032 11.4366 106.7 11.4366C106.986 11.4366 107.294 11.4256 107.622 11.4048C107.951 11.384 108.269 11.3571 108.576 11.3253C108.894 11.2934 109.176 11.2567 109.419 11.2139V11.7388C109.219 11.7816 108.958 11.8184 108.64 11.8502C108.333 11.882 108.004 11.9028 107.654 11.9138C107.304 11.9346 106.961 11.9456 106.62 11.9456ZM109.181 7.76225V7.11009C109.181 6.43101 109.139 5.89021 109.053 5.48766C108.98 5.08511 108.847 4.7829 108.656 4.58101C108.465 4.37912 108.201 4.24696 107.861 4.18334C107.533 4.11971 107.12 4.08791 106.62 4.08791C105.975 4.08791 105.455 4.13072 105.062 4.21515C104.68 4.28979 104.394 4.44273 104.203 4.67643C104.013 4.91013 103.885 5.24906 103.822 5.69443C103.769 6.1288 103.742 6.71244 103.742 7.44413H109.499L109.181 7.76225ZM118.358 15.095C118.051 15.095 117.728 15.0901 117.388 15.0791C117.061 15.0681 116.743 15.0522 116.434 15.0314C116.138 15.0204 115.878 15.0045 115.655 14.9837V14.4588C115.941 14.4796 116.239 14.5016 116.546 14.5224C116.854 14.5432 117.156 14.5591 117.452 14.5701C117.749 14.5811 118.025 14.586 118.279 14.586C118.969 14.586 119.514 14.5175 119.917 14.3793C120.33 14.241 120.632 14.0293 120.823 13.743C121.025 13.4567 121.152 13.0908 121.205 12.6455C121.268 12.2001 121.3 11.6703 121.3 11.0549V10.6254H121.237C121.173 10.8162 121.046 11.0181 120.855 11.2298C120.675 11.4317 120.389 11.6006 119.996 11.7388C119.615 11.8771 119.085 11.9456 118.406 11.9456C117.76 11.9456 117.24 11.8869 116.848 11.7706C116.456 11.6544 116.154 11.4733 115.941 11.2298C115.741 10.9863 115.603 10.6621 115.528 10.2595C115.464 9.85698 115.433 9.36878 115.433 8.79616V3.70615H115.989V8.71662C115.989 9.30026 116.021 9.77133 116.084 10.1323C116.148 10.4932 116.27 10.7685 116.45 10.9594C116.631 11.1503 116.886 11.2775 117.214 11.3412C117.554 11.4048 117.988 11.4366 118.517 11.4366C119.217 11.4366 119.758 11.3461 120.139 11.1662C120.521 10.9863 120.791 10.7367 120.95 10.4186C121.12 10.0895 121.221 9.71383 121.253 9.28925C121.284 8.85489 121.3 8.39361 121.3 7.90541V3.70615H121.857V10.7526C121.857 11.559 121.809 12.2368 121.714 12.7886C121.629 13.3502 121.465 13.7956 121.221 14.1248C120.977 14.4637 120.623 14.7084 120.155 14.8564C119.7 15.0155 119.101 15.095 118.358 15.095ZM127.733 11.9456C127.086 11.9456 126.552 11.9089 126.127 11.8343C125.714 11.7706 125.38 11.6544 125.125 11.4843C124.882 11.3045 124.701 11.0548 124.585 10.7367C124.468 10.4186 124.394 10.0209 124.362 9.54376C124.33 9.05556 124.314 8.46702 124.314 7.77816C124.314 7.08929 124.33 6.50077 124.362 6.01257C124.394 5.52437 124.468 5.12181 124.585 4.80369C124.701 4.48556 124.882 4.24208 125.125 4.07201C125.38 3.89214 125.714 3.76488 126.127 3.69024C126.552 3.61561 127.086 3.57891 127.733 3.57891C128.38 3.57891 128.91 3.61561 129.323 3.69024C129.748 3.76488 130.082 3.89214 130.325 4.07201C130.58 4.24208 130.766 4.48556 130.882 4.80369C130.998 5.12181 131.073 5.52437 131.104 6.01257C131.136 6.50077 131.152 7.08929 131.152 7.77816C131.152 8.46702 131.136 9.05556 131.104 9.54376C131.073 10.0209 130.998 10.4186 130.882 10.7367C130.766 11.0548 130.58 11.3045 130.325 11.4843C130.082 11.6544 129.748 11.7706 129.323 11.8343C128.91 11.9089 128.38 11.9456 127.733 
     11.9456ZM127.733 11.4366C128.454 11.4366 129.01 11.3889 129.403 11.2934C129.796 11.198 130.071 11.023 130.23 10.7685C130.4 10.514 130.5 10.1482 130.532 9.671C130.575 9.1828 130.595 8.55267 130.595 7.77816C130.595 7.00364 130.575 6.37351 130.532 5.88531C130.5 5.39711 130.4 5.02637 130.23 4.77187C130.071 4.50636 129.796 4.32649 129.403 4.23106C129.01 4.13562 128.454 4.08791 127.733 4.08791C127.022 4.08791 126.466 4.13562 126.063 4.23106C125.671 4.32649 125.391 4.50636 125.221 4.77187C125.062 5.02637 124.961 5.39711 124.919 5.88531C124.887 6.37351 124.871 7.00364 124.871 7.77816C124.871 8.55267 124.887 9.1828 124.919 9.671C124.961 10.1482 125.062 10.514 125.221 10.7685C125.391 11.023 125.671 11.198 126.063 11.2934C126.466 11.3889 127.022 11.4366 127.733 11.4366ZM136.592 11.9456C135.945 11.9456 135.426 11.8869 135.033 11.7706C134.641 11.6544 134.339 11.4733 134.127 11.2298C133.925 10.9863 133.788 10.6621 133.713 10.2595C133.65 9.85698 133.618 9.36878 133.618 8.79616V3.70615H134.175V8.71662C134.175 9.30026 134.206 9.77133 134.27 10.1323C134.334 10.4932 134.456 10.7685 134.636 10.9594C134.816 11.1503 135.07 11.2775 135.399 11.3412C135.738 11.4048 136.173 11.4366 136.703 11.4366C137.403 11.4366 137.943 11.3461 138.325 11.1662C138.707 10.9863 138.977 10.7367 139.136 10.4186C139.306 10.0895 139.406 9.71383 139.438 9.28925C139.47 8.85489 139.486 8.39361 139.486 7.90541V3.70615H140.042V11.8183H139.597L139.549 10.4981H139.486C139.401 10.7526 139.263 10.9912 139.072 11.2139C138.882 11.4256 138.59 11.6006 138.198 11.7388C137.805 11.8771 137.271 11.9456 136.592 11.9456ZM148.584 11.9456C148.309 11.9456 148.001 11.9346 147.662 11.9138C147.333 11.9028 147.01 11.882 146.692 11.8502C146.374 11.8294 146.088 11.8024 145.833 11.7706V11.2457C146.204 11.2885 146.517 11.3204 146.771 11.3412C147.026 11.362 147.253 11.384 147.455 11.4048C147.667 11.4158 147.873 11.4256 148.075 11.4366C148.287 11.4366 148.532 11.4366 148.807 11.4366C149.422 11.4366 149.877 11.3779 150.174 11.2616C150.472 11.1454 150.667 10.9594 150.763 10.7049C150.858 10.4504 150.906 10.1164 150.906 9.70281C150.906 9.21461 150.869 8.86467 150.794 8.653C150.72 8.43031 150.593 8.28715 150.413 8.22353C150.243 8.1599 149.999 8.1122 149.681 8.08039L147.328 7.85769C146.862 7.80508 146.501 7.71454 146.247 7.58729C145.992 7.46004 145.817 7.25815 145.722 6.98285C145.626 6.70755 145.579 6.3417 145.579 5.88531C145.579 5.35551 145.642 4.93582 145.77 4.62871C145.908 4.31058 146.108 4.0769 146.374 3.92885C146.639 3.78079 146.962 3.68535 147.344 3.64252C147.725 3.5997 148.16 3.57891 148.648 3.57891C148.891 3.57891 149.152 3.58993 149.427 3.61073C149.713 3.62174 149.995 3.64252 150.27 3.67434C150.545 3.69514 150.794 3.72695 151.017 3.76978V4.29468C150.71 4.24207 150.418 4.19924 150.143 4.16743C149.877 4.13562 149.602 4.11483 149.316 4.10382C149.04 4.09281 148.727 4.08791 148.377 4.08791C147.943 4.08791 147.555 4.11971 147.217 4.18334C146.878 4.23595 146.612 4.3791 146.421 4.6128C146.231 4.8465 146.135 5.23315 146.135 5.77397C146.135 6.19854 146.172 6.51666 146.247 6.72834C146.321 6.93023 146.448 7.06726 146.628 7.1419C146.819 7.21654 147.073 7.26916 147.391 7.30097L149.665 7.52367C150.154 7.56649 150.524 7.64601 150.779 7.76225C151.033 7.87849 151.208 8.08527 151.303 8.3826C151.41 8.66891 151.462 9.10939 151.462 9.70281C151.462 10.169 151.41 10.5507 151.303 10.8481C151.197 11.1344 151.028 11.3571 150.794 11.5161C150.561 11.6752 150.259 11.7865 149.888 11.8502C149.527 11.9138 149.093 11.9456 148.584 11.9456ZM156.805 11.9456C156.201 11.9456 155.692 11.9089 155.279 11.8343C154.876 11.7596 154.547 11.6324 154.293 11.4525C154.038 11.2616 153.843 11.0071 153.704 10.689C153.577 10.3709 153.487 9.97323 153.434 9.49604C153.391 9.01885 153.371 8.44622 153.371 7.77816C153.371 6.98284 153.397 6.31967 153.45 5.78987C153.503 5.24906 153.636 4.8196 153.848 4.50147C154.059 4.17234 154.404 3.93985 154.881 3.80159C155.358 3.65354 156.015 3.57891 156.853 3.57891C157.437 3.57891 157.914 3.62172 158.284 3.70615C158.666 3.79057 158.963 3.92883 159.175 4.11971C159.397 4.29957 159.561 4.55408 159.668 4.88322C159.774 5.20135 159.843 5.59901 159.874 6.0762C159.906 6.54237 159.922 7.09908 159.922 7.74634V7.95313H153.927C153.927 8.65301 153.959 9.23052 154.023 9.6869C154.086 10.1433 154.213 10.4981 154.404 10.7526C154.595 11.0071 154.886 11.187 155.279 11.2934C155.681 11.3889 156.217 11.4366 156.885 11.4366C157.171 11.4366 157.478 11.4256 157.807 11.4048C158.136 11.384 158.454 11.3571 158.761 11.3253C159.079 11.2934 159.361 11.2567 159.604 11.2139V11.7388C159.402 11.7816 159.143 11.8184 158.825 11.8502C158.518 11.882 158.189 11.9028 157.839 11.9138C157.489 11.9346 157.144 11.9456 156.805 11.9456ZM159.366 7.76225V7.11009C159.366 6.43101 159.323 5.89021 159.238 5.48766C159.164 5.08511 159.032 4.7829 158.841 4.58101C158.65 4.37912 158.385 4.24696 158.046 4.18334C157.717 4.11971 157.303 4.08791 156.805 4.08791C156.158 4.08791 155.64 4.13072 155.247 4.21515C154.865 4.28979 154.579 4.44273 154.388 4.67643C154.197 4.91013 154.07 5.24906 154.007 5.69443C153.954 6.1288 153.927 6.71244 153.927 7.44413H159.684L159.366 7.76225ZM165.417 11.9456C164.813 11.9456 164.304 11.9089 163.89 11.8343C163.487 11.7596 163.159 11.6324 162.904 11.4525C162.65 11.2616 162.453 11.0071 162.316 10.689C162.189 10.3709 
     162.098 9.97323 162.046 9.49604C162.003 9.01885 161.982 8.44622 161.982 7.77816C161.982 6.98284 162.008 6.31967 162.062 5.78987C162.114 5.24906 162.246 4.8196 162.459 4.50147C162.671 4.17234 163.016 3.93985 163.493 3.80159C163.97 3.65354 164.627 3.57891 165.465 3.57891C166.047 3.57891 166.524 3.62172 166.896 3.70615C167.277 3.79057 167.573 3.92883 167.786 4.11971C168.009 4.29957 168.173 4.55408 168.279 4.88322C168.384 5.20135 168.454 5.59901 168.486 6.0762C168.518 6.54237 168.534 7.09908 168.534 7.74634V7.95313H162.539C162.539 8.65301 162.57 9.23052 162.634 9.6869C162.698 10.1433 162.825 10.4981 163.016 10.7526C163.206 11.0071 163.498 11.187 163.89 11.2934C164.293 11.3889 164.828 11.4366 165.496 11.4366C165.783 11.4366 166.09 11.4256 166.419 11.4048C166.746 11.384 167.064 11.3571 167.373 11.3253C167.691 11.2934 167.971 11.2567 168.216 11.2139V11.7388C168.014 11.7816 167.754 11.8184 167.436 11.8502C167.128 11.882 166.8 11.9028 166.45 11.9138C166.101 11.9346 165.756 11.9456 165.417 11.9456ZM167.977 7.76225V7.11009C167.977 6.43101 167.934 5.89021 167.85 5.48766C167.775 5.08511 167.643 4.7829 167.452 4.58101C167.261 4.37912 166.996 4.24696 166.657 4.18334C166.328 4.11971 165.915 4.08791 165.417 4.08791C164.77 4.08791 164.25 4.13072 163.858 4.21515C163.477 4.28979 163.191 4.44273 163 4.67643C162.809 4.91013 162.682 5.24906 162.618 5.69443C162.564 6.1288 162.539 6.71244 162.539 7.44413H168.295L167.977 7.76225ZM170.991 11.8183V3.70615H171.436L171.484 5.02638H171.548C171.632 4.77188 171.77 4.53817 171.961 4.3265C172.152 4.10381 172.443 3.92395 172.836 3.78568C173.227 3.64742 173.763 3.57891 174.442 3.57891C175.088 3.57891 175.607 3.63763 176 3.75387C176.392 3.87011 176.689 4.0512 176.891 4.29468C177.102 4.53817 177.24 4.86241 177.304 5.26497C177.377 5.66752 177.415 6.15572 177.415 6.72834V11.8183H176.859V6.80788C176.859 6.21445 176.827 5.74216 176.763 5.39222C176.7 5.03127 176.577 4.75598 176.398 4.5651C176.217 4.37423 175.957 4.24696 175.618 4.18334C175.289 4.11971 174.86 4.08791 174.33 4.08791C173.631 4.08791 173.09 4.17845 172.708 4.35831C172.327 4.53818 172.05 4.79267 171.882 5.1218C171.722 5.43993 171.627 5.81679 171.595 6.25115C171.563 6.67573 171.548 7.13089 171.548 7.61909V11.8183H170.991ZM184.112 11.8183V4.21515H182.395V3.70615H184.112V1.35203H184.669V3.70615H186.673V4.21515H184.669V11.8183H184.112ZM188.423 11.8183V0H188.98V4.89913H189.043C189.118 4.69724 189.245 4.49657 189.425 4.29468C189.605 4.0928 189.886 3.92395 190.268 3.78568C190.66 3.64742 191.195 3.57891 191.874 3.57891C192.521 3.57891 193.04 3.63763 193.432 3.75387C193.825 3.87011 194.121 4.0512 194.323 4.29468C194.534 4.53817 194.672 4.86241 194.736 5.26497C194.811 5.66752 194.847 6.15572 194.847 6.72834V11.8183H194.291V6.80788C194.291 6.21445 194.259 5.74216 194.195 5.39222C194.132 5.03127 194.01 4.75598 193.83 4.5651C193.65 4.37423 193.389 4.24696 193.05 4.18334C192.721 4.11971 192.292 4.08791 191.762 4.08791C191.063 4.08791 190.522 4.17845 190.14 4.35831C189.759 4.53818 189.484 4.79267 189.314 5.1218C189.155 5.43993 189.059 5.81679 189.027 6.25115C188.996 6.67573 188.98 7.13089 188.98 7.61909V11.8183H188.423ZM200.74 11.9456C200.135 11.9456 199.627 11.9089 199.213 11.8343C198.809 11.7596 198.482 11.6324 198.227 11.4525C197.973 11.2616 197.776 11.0071 197.639 10.689C197.512 10.3709 197.421 9.97323 197.368 9.49604C197.326 9.01885 197.305 8.44622 197.305 7.77816C197.305 6.98284 197.331 6.31967 197.384 5.78987C197.437 5.24906 197.569 4.8196 197.782 4.50147C197.994 4.17234 198.338 3.93985 198.816 3.80159C199.293 3.65354 199.949 3.57891 200.787 3.57891C201.37 3.57891 201.847 3.62172 202.219 3.70615C202.6 3.79057 202.896 3.92883 203.109 4.11971C203.332 4.29957 203.496 4.55408 203.602 4.88322C203.707 5.20135 203.777 5.59901 203.809 6.0762C203.841 6.54237 203.856 7.09908 203.856 7.74634V7.95313H197.861C197.861 8.65301 197.893 9.23052 197.957 9.6869C198.02 10.1433 198.148 10.4981 198.338 10.7526C198.529 11.0071 198.82 11.187 199.213 11.2934C199.616 11.3889 200.151 11.4366 200.819 11.4366C201.105 11.4366 201.412 11.4256 201.741 11.4048C202.069 11.384 202.387 11.3571 202.696 11.3253C203.014 11.2934 203.294 11.2567 203.538 11.2139V11.7388C203.337 11.7816 203.077 11.8184 202.759 11.8502C202.451 11.882 202.123 11.9028 201.773 11.9138C201.423 11.9346 201.078 11.9456 200.74 11.9456ZM203.3 7.76225V7.11009C203.3 6.43101 203.257 5.89021 203.173 5.48766C203.098 5.08511 202.966 4.7829 202.775 4.58101C202.584 4.37912 202.319 4.24696 201.98 4.18334C201.651 4.11971 201.238 4.08791 200.74 4.08791C200.093 4.08791 199.573 4.13072 199.181 4.21515C198.8 4.28979 198.513 4.44273 198.323 4.67643C198.132 4.91013 198.005 5.24906 197.941 5.69443C197.887 6.1288 197.861 6.71244 197.861 7.44413H203.618L203.3 7.76225ZM209.552 11.8183V3.70615H209.997L210.045 5.02638H210.108C210.193 4.77188 210.331 4.53817 210.522 4.3265C210.713 4.10381 211.004 3.92395 211.396 3.78568C211.788 3.64742 212.324 3.57891 213.002 3.57891C213.648 3.57891 214.168 3.63763 214.561 3.75387C214.952 3.87011 215.249 4.0512 215.451 4.29468C215.663 4.53817 215.801 4.86241 215.865 5.26497C215.938 5.66752 215.976 6.15572 215.976 6.72834V11.8183H215.419V6.80788C215.419 6.21445 215.388 5.74216 215.324 5.39222C215.26 5.03127 215.138 4.75598 214.958 4.5651C214.777 4.37423 214.518 4.24696 
     214.179 4.18334C213.85 4.11971 213.421 4.08791 212.891 4.08791C212.191 4.08791 211.651 4.17845 211.269 4.35831C210.887 4.53818 210.611 4.79267 210.442 5.1218C210.283 5.43993 210.188 5.81679 210.156 6.25115C210.124 6.67573 210.108 7.13089 210.108 7.61909V11.8183H209.552ZM221.867 11.9456C221.263 11.9456 220.754 11.9089 220.34 11.8343C219.938 11.7596 219.609 11.6324 219.355 11.4525C219.1 11.2616 218.904 11.0071 218.766 10.689C218.639 10.3709 218.55 9.97323 218.496 9.49604C218.454 9.01885 218.432 8.44622 218.432 7.77816C218.432 6.98284 218.459 6.31967 218.512 5.78987C218.566 5.24906 218.698 4.8196 218.909 4.50147C219.122 4.17234 219.466 3.93985 219.943 3.80159C220.42 3.65354 221.078 3.57891 221.915 3.57891C222.498 3.57891 222.975 3.62172 223.346 3.70615C223.728 3.79057 224.025 3.92883 224.236 4.11971C224.459 4.29957 224.624 4.55408 224.729 4.88322C224.836 5.20135 224.904 5.59901 224.936 6.0762C224.968 6.54237 224.984 7.09908 224.984 7.74634V7.95313H218.989C218.989 8.65301 219.021 9.23052 219.084 9.6869C219.148 10.1433 219.275 10.4981 219.466 10.7526C219.657 11.0071 219.949 11.187 220.34 11.2934C220.744 11.3889 221.279 11.4366 221.947 11.4366C222.233 11.4366 222.541 11.4256 222.869 11.4048C223.198 11.384 223.516 11.3571 223.823 11.3253C224.141 11.2934 224.422 11.2567 224.666 11.2139V11.7388C224.465 11.7816 224.205 11.8184 223.887 11.8502C223.58 11.882 223.25 11.9028 222.901 11.9138C222.551 11.9346 222.207 11.9456 221.867 11.9456ZM224.427 7.76225V7.11009C224.427 6.43101 224.386 5.89021 224.3 5.48766C224.227 5.08511 224.093 4.7829 223.902 4.58101C223.712 4.37912 223.447 4.24696 223.107 4.18334C222.78 4.11971 222.366 4.08791 221.867 4.08791C221.221 4.08791 220.701 4.13072 220.309 4.21515C219.927 4.28979 219.641 4.44273 219.45 4.67643C219.259 4.91013 219.132 5.24906 219.068 5.69443C219.016 6.1288 218.989 6.71244 218.989 7.44413H224.745L224.427 7.76225ZM229.302 11.8183L226.471 3.70615H227.076L229.54 10.9117H229.636L231.941 3.70615H232.546L234.867 10.9117H234.963L237.412 3.70615H238L235.17 11.8183H234.613L232.275 4.67643H232.18L229.858 11.8183H229.302ZM2.97364 36.4168C2.32692 36.4168 1.80755 36.358 1.41526 36.2418C1.02298 36.1256 0.720842 35.9445 0.508859 35.701C0.307395 35.4575 0.169659 35.1333 0.0954098 34.7307C0.0318025 34.3282 0 33.84 0 33.2673V28.1773H0.556566V33.1878C0.556566 33.7714 0.588368 34.2425 0.651976 34.6035C0.715583 34.9644 0.837537 35.2397 1.01772 35.4306C1.1979 35.6215 1.45233 35.7487 1.78101 35.8123C2.1202 35.876 2.55493 35.9078 3.08495 35.9078C3.78463 35.9078 4.32529 35.8172 4.70694 35.6374C5.08858 35.4575 5.35891 35.2079 5.51793 34.8898C5.68759 34.5606 5.78826 34.185 5.82006 33.7604C5.85187 33.3261 5.86777 32.8648 5.86777 32.3766V28.1773H6.42433V36.2895H5.97908L5.93138 34.9693H5.86777C5.783 35.2238 5.64514 35.4624 5.45432 35.6851C5.2635 35.8968 4.97201 36.0717 4.57972 36.21C4.18744 36.3483 3.65216 36.4168 2.97364 36.4168ZM9.27896 39.4708V28.1773H9.7242L9.77191 29.4976H9.83552C9.98389 29.073 10.2065 28.761 10.5034 28.5591C10.8108 28.3474 11.1606 28.2091 11.5529 28.1455C11.9452 28.0819 12.3533 28.0501 12.7774 28.0501C13.4559 28.0501 14.0018 28.1137 14.4152 28.241C14.8393 28.3572 15.1626 28.5701 15.3853 28.8772C15.6079 29.1745 15.7616 29.5979 15.8464 30.1497C15.9312 30.6905 15.9736 31.3855 15.9736 32.2334C15.9736 33.0814 15.9312 33.7812 15.8464 34.3331C15.7616 34.8739 15.6079 35.2984 15.3853 35.6055C15.1626 35.9029 14.8393 36.1146 14.4152 36.2418C14.0018 36.358 13.4559 36.4168 12.7774 36.4168C12.2579 36.4168 11.8073 36.374 11.4257 36.2895C11.0441 36.2051 10.726 36.0668 10.4716 35.876C10.2172 35.6851 10.0263 35.4306 9.89913 35.1125H9.83552V39.4708H9.27896ZM12.6183 35.9078C13.2226 35.9078 13.7103 35.865 14.0813 35.7805C14.4523 35.6961 14.7333 35.5309 14.9241 35.2874C15.1149 35.0329 15.2421 34.6622 15.3057 34.174C15.38 33.6858 15.4171 33.0397 15.4171 32.2334C15.4171 31.4271 15.38 30.7811 15.3057 30.2929C15.2421 29.8047 15.1149 29.4388 14.9241 29.1953C14.7333 28.9408 14.4523 28.7708 14.0813 28.6863C13.7103 28.6019 13.2226 28.5591 12.6183 28.5591C11.9187 28.5591 11.3515 28.6594 10.9168 28.8613C10.4928 29.0632 10.2065 29.3972 10.0581 29.8634C9.95209 30.1925 9.88848 30.5523 9.86732 30.945C9.84616 31.3268 9.83552 31.7562 9.83552 32.2334C9.83552 32.7216 9.84616 33.156 9.86732 33.5377C9.88848 33.9085 9.93619 34.2168 10.0104 34.4603C10.1906 34.9901 10.4928 35.367 10.9168 35.5896C11.3409 35.8013 11.908 35.9078 12.6183 35.9078ZM21.2323 36.4168C20.554 36.4168 20.0027 36.358 19.5786 36.2418C19.1651 36.1146 18.8471 35.9029 18.6245 35.6055C18.4018 35.2984 18.2482 34.8739 18.1633 34.3331C18.0785 33.7812 18.0361 33.0814 18.0361 32.2334C18.0361 31.3855 18.0785 30.6905 18.1633 30.1497C18.2482 29.5979 18.4018 29.1745 18.6245 28.8772C18.8471 28.5701 19.1651 28.3572 19.5786 28.241C20.0027 28.1137 20.554 28.0501 21.2323 28.0501C21.7519 28.0501 22.2024 28.0929 22.584 28.1773C22.9656 28.2618 23.2837 28.4 23.5381 28.5909C23.7925 28.7818 23.9834 29.0363 24.1106 29.3544H24.1742V24.4712H24.7308V36.2895H24.2855L24.2378 34.9693H24.1742C24.0258 35.3939 23.7979 35.712 23.4904 35.9237C23.1937 36.1256 22.8491 36.2577 22.4568 36.3213C22.0646 36.385 21.6564 36.4168 21.2323 36.4168ZM21.3914 35.9078C22.091 35.9078 22.653 35.8123 23.077 35.6215C23.501 35.4306 23.782 35.1235 23.9198 34.6989C24.047 34.3171 24.1212 33.9195 24.1424 33.5059C24.1637 33.0924 24.1742 32.5944 24.1742 32.0107C24.1742 31.629 24.1637 31.2583 24.1424 
     30.8973C24.1212 30.5364 24.0629 30.2133 23.9675 29.927C23.7979 29.429 23.501 29.0791 23.077 28.8772C22.653 28.6655 22.0646 28.5591 21.3119 28.5591C20.7289 28.5591 20.2571 28.6019 19.8966 28.6863C19.5362 28.7708 19.2605 28.9408 19.0697 29.1953C18.8789 29.4388 18.7517 29.8047 18.6881 30.2929C18.6245 30.7811 18.5927 31.4271 18.5927 32.2334C18.5927 33.0397 18.6245 33.6858 18.6881 34.174C18.7623 34.6622 18.8948 35.0329 19.0856 35.2874C19.2764 35.5309 19.5574 35.6961 19.9284 35.7805C20.2995 35.865 20.7871 35.9078 21.3914 35.9078ZM29.9578 36.4168C29.2899 36.4168 28.7386 36.358 28.304 36.2418C27.8694 36.1256 27.546 35.9029 27.334 35.5737C27.1325 35.2348 27.0319 34.7417 27.0319 34.0945C27.0319 33.501 27.1007 33.0398 27.2386 32.7106C27.3764 32.3717 27.6202 32.1331 27.9701 31.9948C28.3199 31.8566 28.8076 31.7881 29.433 31.7881C29.5603 31.7881 29.7563 31.7929 30.0214 31.804C30.2865 31.804 30.5886 31.8089 30.9278 31.8199C31.2777 31.8309 31.6275 31.8407 31.9773 31.8517C32.3378 31.8517 32.6718 31.8566 32.9791 31.8676V31.1359C32.9791 30.5425 32.9421 30.0751 32.8678 29.7361C32.8042 29.3862 32.6718 29.1268 32.4703 28.9567C32.2795 28.7867 31.9985 28.6814 31.6275 28.6386C31.2565 28.586 30.7741 28.5591 30.1804 28.5591C29.9366 28.5591 29.6504 28.5701 29.3217 28.5909C29.0037 28.6117 28.6909 28.6386 28.3835 28.6704C28.0761 28.6912 27.8163 28.723 27.6043 28.7659V28.241C27.9224 28.1883 28.3252 28.1455 28.8129 28.1137C29.3006 28.0709 29.8306 28.0501 30.4031 28.0501C30.9226 28.0501 31.3624 28.077 31.7229 28.1296C32.0939 28.1822 32.396 28.2728 32.6293 28.4C32.8731 28.5273 33.0587 28.7071 33.1859 28.9408C33.3131 29.1635 33.4032 29.4498 33.4562 29.7998C33.5092 30.1387 33.5357 30.5523 33.5357 31.0405V36.2895H33.0905L33.0428 34.9693H32.9791C32.8308 35.4037 32.5869 35.7279 32.2477 35.9396C31.919 36.1415 31.548 36.2687 31.1345 36.3213C30.7317 36.385 30.3394 36.4168 29.9578 36.4168ZM29.9419 35.9078C30.3129 35.9078 30.6734 35.8919 31.0232 35.8601C31.3837 35.8172 31.7017 35.7328 31.9773 35.6055C32.2529 35.4673 32.4597 35.2507 32.5975 34.9534C32.7459 34.6353 32.8467 34.322 32.8996 34.0149C32.9526 33.6968 32.9791 33.342 32.9791 32.9492V32.2971H29.5921C29.062 32.2971 28.6486 32.3399 28.3517 32.4243C28.0655 32.5087 27.864 32.6788 27.7475 32.9333C27.6414 33.1878 27.5884 33.5744 27.5884 34.0945C27.5884 34.5827 27.652 34.9583 27.7793 35.2238C27.9065 35.4893 28.1397 35.6692 28.4789 35.7646C28.8181 35.8601 29.3058 35.9078 29.9419 35.9078ZM36.9282 36.2895V28.6863H35.2108V28.1773H36.9282V25.8232H37.4847V28.1773H39.4884V28.6863H37.4847V36.2895H36.9282ZM44.1987 36.4168C43.5945 36.4168 43.0856 36.3801 42.6722 36.3054C42.2694 36.2308 41.9407 36.1035 41.6863 35.9237C41.4318 35.7328 41.2357 35.4783 41.0979 35.1602C40.9707 34.842 40.8805 34.4444 40.8275 33.9672C40.7851 33.49 40.7639 32.9174 40.7639 32.2493C40.7639 31.454 40.7905 30.7909 40.8435 30.261C40.8964 29.7202 41.029 29.2908 41.241 28.9726C41.453 28.6435 41.7976 28.411 42.2746 28.2728C42.7517 28.1247 43.4089 28.0501 44.2464 28.0501C44.8295 28.0501 45.3066 28.0929 45.6776 28.1773C46.0592 28.2618 46.3561 28.4 46.5681 28.5909C46.7907 28.7707 46.955 29.0253 47.0611 29.3544C47.1671 29.6725 47.236 30.0702 47.2678 30.5474C47.2996 31.0135 47.3155 31.5703 47.3155 32.2175V32.4243H41.3205C41.3205 33.1242 41.3523 33.7017 41.4159 34.1581C41.4795 34.6145 41.6067 34.9693 41.7976 35.2238C41.9884 35.4783 42.2799 35.6582 42.6722 35.7646C43.075 35.8601 43.6104 35.9078 44.2782 35.9078C44.5645 35.9078 44.8719 35.8968 45.2005 35.876C45.5292 35.8552 45.8473 35.8282 46.1547 35.7964C46.4727 35.7646 46.7537 35.7279 46.9975 35.6851V36.21C46.796 36.2528 46.5363 36.2895 46.2183 36.3213C45.9109 36.3532 45.5822 36.374 45.2323 36.385C44.8825 36.4058 44.5379 36.4168 44.1987 36.4168ZM46.7589 32.2334V31.5813C46.7589 30.9022 46.7165 30.3614 46.6317 29.9588C46.5575 29.5563 46.425 29.2541 46.2342 29.0522C46.0433 28.8503 45.7783 28.7181 45.4391 28.6545C45.1104 28.5909 44.6969 28.5591 44.1987 28.5591C43.552 28.5591 43.0326 28.6019 42.6404 28.6863C42.2587 28.761 41.9725 28.9139 41.7817 29.1476C41.5908 29.3813 41.4636 29.7202 41.4 30.1656C41.3471 30.6 41.3205 31.1836 41.3205 31.9153H47.077L46.7589 32.2334ZM52.2216 36.4168C51.946 36.4168 51.6385 36.4058 51.2993 36.385C50.9706 36.374 50.6473 36.3532 50.3293 36.3213C50.0112 36.3005 49.725 36.2736 49.4705 36.2418V35.7169C49.8416 35.7597 50.1543 35.7915 50.4088 35.8123C50.6632 35.8331 50.8911 35.8552 51.0925 35.876C51.3045 35.887 51.5112 35.8968 51.7127 35.9078C51.9247 35.9078 52.1686 35.9078 52.4442 35.9078C53.0591 35.9078 53.5149 35.849 53.8117 35.7328C54.1086 35.6166 54.3047 35.4306 54.4001 35.1761C54.4955 34.9216 54.5432 34.5875 54.5432 34.174C54.5432 33.6858 54.5062 33.3358 54.4319 33.1242C54.3577 32.9015 54.2305 32.7583 54.0503 32.6947C53.8806 32.6311 53.6368 32.5834 53.3188 32.5516L50.9653 32.3289C50.4989 32.2763 50.1384 32.1857 49.884 32.0585C49.6296 31.9312 49.4547 31.7293 49.3592 31.454C49.2638 31.1787 49.2161 30.8129 49.2161 30.3565C49.2161 29.8267 49.2797 29.407 49.4069 29.0999C49.5448 28.7818 49.7461 28.5481 50.0112 28.4C50.2763 28.252 50.5996 28.1565 50.9812 28.1137C51.3629 28.0709 51.7975 28.0501 52.2852 28.0501C52.529 28.0501 52.7888 28.0611 53.0644 28.0819C53.3506 28.0929 53.6316 28.1137 53.9072 28.1455C54.1828 28.1663 54.4319 28.1981 54.6545 28.241V28.7659C54.3472 28.7132 54.0555 28.6704 53.7799 28.6386C53.5149 28.6068 53.2393 28.586 52.953 28.575C52.6775 28.564 52.3647 28.5591 52.0148 28.5591C51.5802 28.5591 51.1932 28.5909 50.854 28.6545C50.5148 28.7071 50.2497 28.8503 50.0589 29.084C49.8681 29.3177 49.7727 29.7043 49.7727 30.2451C49.7727 30.6697 49.8098 30.9878 49.884 31.1995C49.9583 31.4014 50.0855 31.5384 50.2656 31.6131C50.4565 31.6877 50.7109 31.7403 51.0289 31.7721L53.3029 31.9948C53.7906 32.0377 54.1616 32.1172 54.416 32.2334C54.6705 32.3497 54.8454 32.5564 54.9408 32.8538C55.0468 33.1401 55.0998 33.5806 55.0998 34.174C55.0998 34.6402 55.0468 35.0219 54.9408 35.3192C54.8347 35.6056 54.6652 35.8283 54.4319 35.9873C54.1987 36.1464 53.8965 36.2577 53.5255 36.3213C53.165 36.385 52.7304 36.4168 52.2216 36.4168ZM63.665 36.4168C63.0184 36.4168 62.483 36.3801 62.0589 36.3054C61.6455 36.2418 61.3115 36.1256 61.0571 35.9555C60.8133 35.7756 60.6331 35.526 60.5164 35.2079C60.3999 34.8898 60.3256 34.4921 60.2938 34.0149C60.262 33.5267 60.2461 32.9382 60.2461 32.2493C60.2461 31.5605 60.262 30.9719 60.2938 30.4837C60.3256 29.9955 60.3999 29.593 60.5164 29.2749C60.6331 28.9567 60.8133 28.7133 61.0571 28.5432C61.3115 28.3633 61.6455 28.2361 62.0589 28.1614C62.483 28.0868 63.0184 28.0501 63.665 28.0501C64.3117 28.0501 64.8417 28.0868 65.2552 28.1614C65.6793 28.2361 66.0132 28.3633 66.257 28.5432C66.5114 28.7133 66.697 28.9567 66.8136 29.2749C66.9303 29.593 67.0044 29.9955 67.0362 30.4837C67.068 30.9719 67.0839 31.5605 67.0839 32.2493C67.0839 32.9382 67.068 33.5267 67.0362 34.0149C67.0044 34.4921 66.9303 34.8898 66.8136 35.2079C66.697 35.526 66.5114 35.7756 66.257 35.9555C66.0132 36.1256 65.6793 36.2418 65.2552 36.3054C64.8417 36.3801 64.3117 36.4168 63.665 36.4168ZM63.665 35.9078C64.386 35.9078 64.9425 35.8601 65.3347 35.7646C65.727 35.6692 66.0026 35.4942 66.1616 35.2397C66.3313 34.9852 66.4319 34.6194 66.4637 34.1422C66.5062 33.654 66.5273 33.0238 66.5273 32.2493C66.5273 31.4748 66.5062 30.8447 66.4637 30.3565C66.4319 29.8683 66.3313 29.4975 66.1616 29.243C66.0026 28.9775 65.727 28.7977 65.3347 28.7022C64.9425 28.6068 64.386 28.5591 63.665 28.5591C62.9548 28.5591 62.3982 28.6068 61.9953 28.7022C61.6032 28.7977 61.3222 28.9775 61.1525 29.243C60.9935 29.4975 60.8928 29.8683 60.8504 30.3565C60.8186 30.8447 60.8027 31.4748 60.8027 32.2493C60.8027 33.0238 60.8186 33.654 60.8504 34.1422C60.8928 34.6194 60.9935 34.9852 61.1525 35.2397C61.3222 35.4942 61.6032 35.6692 61.9953 35.7646C62.3982 35.8601 62.9548 35.9078 63.665 35.9078ZM69.5499 36.2895V28.1773H69.9951L70.0429 29.4976H70.1065C70.1914 29.2431 70.3291 29.0093 70.5199 28.7977C70.7107 28.575 71.0024 28.3951 71.3945 28.2569C71.7868 28.1186 72.3222 28.0501 73.0006 28.0501C73.6473 28.0501 74.1668 28.1088 74.559 28.225C74.9513 28.3413 75.2481 28.5224 75.4495 28.7659C75.6616 29.0093 75.7993 29.3336 75.8629 29.7361C75.9372 30.1387 75.9742 30.6269 75.9742 31.1995V36.2895H75.4177V31.279C75.4177 30.6856 75.3859 30.2133 75.3223 29.8634C75.2587 29.5024 75.1368 29.2271 74.9565 29.0363C74.7763 28.8454 74.5167 28.7181 74.1773 28.6545C73.8488 28.5909 73.4194 28.5591 72.8893 28.5591C72.1896 28.5591 71.6489 28.6496 71.2673 28.8295C70.8857 29.0094 70.6101 29.2638 70.4404 29.593C70.2814 29.9111 70.186 30.288 70.1542 30.7223C70.1224 31.1469 70.1065 31.6021 70.1065 32.0903V36.2895H69.5499Z" fill="black"/>
</svg>