<svg width="30" height="30" viewBox="0 0 30 30" fill="none"
    xmlns="http://www.w3.org/2000/svg">
    <path d="M29.9993 14.9997C29.9993 6.71549 23.2838 0 14.9997 0C6.71549 0 0 6.71549 0 14.9997C0 23.2838 6.71549 29.9993 14.9997 29.9993C23.2838 29.9993 29.9993 23.2838 29.9993 14.9997ZM16.3663 23.1908C16.3663 23.9441 15.7559 24.5545 15.0027 24.5545C14.2497 24.5545 13.6391 23.9441 13.6391 23.1908L13.6377 16.3633H6.8074C6.05441 16.3633 5.44379 15.7529 5.44379 14.9997C5.44379 14.2467 6.05441 13.6361 6.8074 13.6361H13.6374L13.6361 6.81612C13.6361 6.06287 14.2467 5.45251 14.9997 5.45251C15.7526 5.45251 16.3633 6.06287 16.3633 6.81612L16.3646 13.6361H23.1895C23.9427 13.6361 24.5531 14.2467 24.5531 14.9997C24.5531 15.7529 23.9427 16.3633 23.1895 16.3633H16.3649L16.3663 23.1908Z" fill="white"/>
</svg>