<svg width="40" height="40" viewBox="0 0 40 40" fill="none"
    xmlns="http://www.w3.org/2000/svg">
    <rect width="40" height="40" rx="8" fill="#F2F2F2"/>
    <path fill-rule="evenodd" clip-rule="evenodd" d="M10.6787 17.2027L19.3394 9.58132C19.7171 9.24894 20.2829 9.24894 20.6606 9.58132L29.3213 17.2027C29.7527 17.5824 30 18.1293 30 18.7041V28C30 29.1045 29.1046 30 28 30H12C10.8954 30 10 29.1045 10 28V18.7041C10 18.1293 10.2473 17.5824 10.6787 17.2027ZM19 21.9999C18.4477 21.9999 18 22.4477 18 22.9999V26.9999C18 27.5522 18.4477 27.9999 19 27.9999H21C21.5523 27.9999 22 27.5522 22 26.9999V22.9999C22 22.4477 21.5523 21.9999 21 21.9999H19Z" fill="#8A898E"/>
    <circle cx="33" cy="7" r="3" fill="#FF0000"/>
</svg>