<svg width="225" height="14" viewBox="0 0 225 14" fill="none" xmlns="http://www.w3.org/2000/svg"><path d="M0 10.9184V0.808194H0.528863V5.5547H6.93412V0.808194H7.46298V10.9184H6.93412V6.05435H0.528863V10.9184H0ZM10.2726 0.89639V0H10.9043V0.89639H10.2726ZM10.3314 10.9184V3.42393H10.8456V10.9184H10.3314ZM15.6054 10.9184L19.7776 0.808194H20.2918L24.4641 10.9184H23.8911L22.5542 7.65609H17.5006L16.1637 10.9184H15.6054ZM17.7062 7.15647H22.3485L20.0715 1.55764H19.998L17.7062 7.15647ZM26.2221 10.9184V0H26.7362V10.9184H26.2221ZM32.1915 11.036C31.6332 11.036 31.1631 11.0017 30.7811 10.9331C30.409 10.8645 30.1054 10.7469 29.8703 10.5804C29.6353 10.4041 29.4541 10.169 29.3267 9.87505C29.2092 9.58115 29.126 9.21375 29.077 8.7729C29.0378 8.33204 29.0182 7.80304 29.0182 7.18584C29.0182 6.45109 29.0427 5.8388 29.0917 5.34897C29.1407 4.84934 29.2631 4.45259 29.459 4.15869C29.6548 3.85499 29.9732 3.63944 30.4139 3.51209C30.8546 3.37493 31.4618 3.30636 32.2355 3.30636C32.7742 3.30636 33.2149 3.34556 33.5577 3.42393C33.9103 3.5023 34.1845 3.62964 34.3804 3.80598C34.5861 3.97252 34.7379 4.20766 34.8358 4.51136C34.9338 4.80526 34.9974 5.17263 35.0268 5.61348C35.0562 6.04454 35.0709 6.55887 35.0709 7.15647V7.34751H29.5324C29.5324 7.99409 29.5618 8.52799 29.6206 8.94925C29.6793 9.37051 29.7969 9.69872 29.9731 9.93384C30.1494 10.169 30.4188 10.3355 30.7811 10.4335C31.1533 10.5216 31.6479 10.5657 32.2649 10.5657C32.5294 10.5657 32.8134 10.5559 33.117 10.5363C33.4206 10.5167 33.7144 10.4922 33.9985 10.4628C34.2923 10.4334 34.5518 10.3992 34.7771 10.36V10.8449C34.591 10.8841 34.351 10.9184 34.0572 10.9478C33.7732 10.9772 33.4696 10.9967 33.1464 11.0065C32.8232 11.0261 32.5049 11.036 32.1915 11.036ZM34.5567 7.17116V6.56866C34.5567 5.94167 34.5175 5.44204 34.4392 5.06976C34.3706 4.69749 34.2482 4.4183 34.0719 4.23216C33.8956 4.04602 33.6508 3.92354 33.3374 3.86476C33.0337 3.80598 32.6518 3.7766 32.1915 3.7766C31.594 3.7766 31.1141 3.8158 30.7518 3.89417C30.3992 3.96275 30.1347 4.10479 29.9584 4.32032C29.7822 4.53585 29.6646 4.84935 29.6059 5.26081C29.5569 5.66247 29.5324 6.2013 29.5324 6.87727H34.8505L34.5567 7.17116ZM36.4592 10.9184L39.4855 7.11237L36.562 3.42393H37.2231L39.7793 6.65682H39.8528L42.4237 3.42393H43.0701L40.1466 7.09769L43.1729 10.9184H42.5118L39.8528 7.55324H39.7793L37.1056 10.9184H36.4592ZM44.7167 8.37616C44.7069 7.94511 44.6971 7.52383 44.6873 7.11237C44.6873 6.69112 44.6824 6.28455 44.6726 5.89268C44.6628 5.49102 44.653 5.11383 44.6432 4.76115C44.6432 4.40847 44.6432 4.0803 44.6432 3.7766C44.6432 3.47291 44.6432 3.20349 44.6432 2.96837V0.808194H45.2015V2.96837C45.2015 3.20349 45.2015 3.47291 45.2015 3.7766C45.2015 4.0803 45.1966 4.40847 45.1868 4.76115C45.1868 5.11383 45.1819 5.49102 45.1721 5.89268C45.1623 6.28455 45.1525 6.69112 45.1427 7.11237C45.1427 7.52383 45.1378 7.94511 45.1281 8.37616H44.7167ZM44.5698 10.9184V9.96321H45.275V10.9184H44.5698ZM53.2068 10.9184V6.78907L49.3725 0.808194H49.9895L53.4272 6.23067H53.53L56.9824 0.808194H57.5847L53.7357 6.78907V10.9184H53.2068ZM60.8926 11.036C60.3344 11.036 59.8643 11.0017 59.4823 10.9331C59.1101 10.8645 58.8065 10.7469 58.5715 10.5804C58.3364 10.4041 58.1552 10.169 58.0279 9.87505C57.9104 9.58115 57.8271 9.21375 57.7781 8.7729C57.739 8.33204 57.7194 7.80304 57.7194 7.18584C57.7194 6.45109 57.7439 5.8388 57.7929 5.34897C57.8418 4.84934 57.9642 4.45259 58.1601 4.15869C58.356 3.85499 58.6743 3.63944 59.115 3.51209C59.5558 3.37493 60.163 3.30636 60.9367 3.30636C61.4754 3.30636 61.9161 3.34556 62.2589 3.42393C62.6115 3.5023 62.8857 3.62964 63.0816 3.80598C63.2872 3.97252 63.4391 4.20766 63.537 4.51136C63.6349 4.80526 63.6986 5.17263 63.728 5.61348C63.7574 6.04454 63.772 6.55887 63.772 7.15647V7.34751H58.2336C58.2336 7.99409 58.2629 8.52799 58.3217 8.94925C58.3805 9.37051 58.498 9.69872 58.6743 9.93384C58.8506 10.169 59.1199 10.3355 59.4823 10.4335C59.8545 10.5216 60.3491 10.5657 60.9661 10.5657C61.2305 10.5657 61.5145 10.5559 61.8182 10.5363C62.1218 10.5167 62.4156 10.4922 62.6996 10.4628C62.9934 10.4334 63.253 10.3992 63.4782 10.36V10.8449C63.2921 10.8841 63.0522 10.9184 62.7584 10.9478C62.4744 10.9772 62.1707 10.9967 61.8475 11.0065C61.5243 11.0261 61.206 11.036 60.8926 11.036ZM63.2579 7.17116V6.56866C63.2579 5.94167 63.2187 5.44204 63.1403 5.06976C63.0718 4.69749 62.9494 4.4183 62.7731 4.23216C62.5968 4.04602 62.3519 3.92354 62.0385 3.86476C61.7349 3.80598 61.3529 3.7766 60.8926 3.7766C60.2952 3.7766 59.8153 3.8158 59.4529 3.89417C59.1003 3.96275 58.8359 4.10479 58.6596 4.32032C58.4833 4.53585 58.3658 4.84935 58.307 5.26081C58.2581 5.66247 58.2336 6.2013 58.2336 6.87727H63.5517L63.2579 7.17116ZM68.3054 11.036C68.0508 11.036 67.7667 11.0261 67.4533 11.0065C67.1497 10.9967 66.851 10.9772 66.5572 10.9478C66.2634 10.9282 65.999 10.9037 65.7639 10.8743V10.3894C66.1067 10.4285 66.3956 10.458 66.6307 10.4776C66.8657 10.4971 67.0763 10.5167 67.2624 10.5363C67.4583 10.5461 67.6492 10.5559 67.8353 10.5657C68.0312 10.5657 68.2564 10.5657 68.5111 10.5657C69.0791 10.5657 69.5003 10.5118 69.7745 10.404C70.0487 10.2963 70.2299 10.1249 70.3181 9.88974C70.4062 9.65462 70.4503 9.34601 70.4503 8.96394C70.4503 8.51329 70.416 8.19001 70.3474 7.99408C70.2789 7.78835 70.1614 7.65608 69.9949 7.5973C69.8382 7.53852 69.6129 7.49444 69.3191 7.46505L67.1448 7.25932C66.7139 7.21033 66.3809 7.12709 66.1459 7.00953C65.9108 6.89197 65.7492 6.7058 65.6611 6.45109C65.5729 6.19637 65.5288 5.85838 65.5288 5.43713C65.5288 4.94729 65.5876 4.56032 65.7051 4.27622C65.8325 3.98232 66.0185 3.76681 66.2634 3.62966C66.5082 3.4925 66.807 3.40433 67.1595 3.36514C67.5121 3.32596 67.9137 3.30636 68.3642 3.30636C68.5894 3.30636 68.8294 3.31618 69.084 3.33577C69.3485 3.34557 69.608 3.36513 69.8627 3.39452C70.1173 3.41411 70.3474 3.44353 70.5531 3.48271V3.96765C70.2691 3.91866 69.9998 3.87946 69.7451 3.85007C69.5003 3.82068 69.2456 3.80109 68.9812 3.79129C68.7266 3.78149 68.4376 3.7766 68.1144 3.7766C67.7129 3.7766 67.3554 3.80598 67.042 3.86476C66.7286 3.91375 66.4838 4.04601 66.3075 4.26153C66.1312 4.47706 66.043 4.83465 66.043 5.33428C66.043 5.72615 66.0773 6.02005 66.1459 6.21598C66.2144 6.40212 66.3319 6.52945 66.4984 6.59803C66.6747 6.66661 66.9098 6.71562 67.2036 6.74501L69.3044 6.95074C69.7549 6.98993 70.0977 7.06339 70.3328 7.17116C70.5678 7.27892 70.7294 7.46994 70.8176 7.74425C70.9155 8.00876 70.9645 8.41532 70.9645 8.96394C70.9645 9.39499 70.9155 9.74769 70.8176 10.022C70.7196 10.2865 70.5629 10.4922 70.3474 10.6392C70.132 10.7861 69.8529 10.889 69.5101 10.9478C69.1771 11.0065 68.7755 11.036 68.3054 11.036ZM72.1251 12.4026V12.094C72.3503 12.094 72.5119 12.0646 72.6099 12.0058C72.7176 11.9568 72.7862 11.8638 72.8155 11.7266C72.8449 11.5895 72.8596 11.4033 72.8596 11.1682V10.9184H72.5658V9.96321H73.2709V11.0653C73.2709 11.3298 73.2514 11.5454 73.2122 11.7119C73.1828 11.8883 73.124 12.0254 73.0359 12.1234C72.9575 12.2312 72.8449 12.3046 72.698 12.3438C72.5511 12.383 72.3601 12.4026 72.1251 12.4026ZM78.9331 10.9184V3.89417H77.3465V3.42393H78.9331V1.24906H79.4472V3.42393H81.2983V3.89417H79.4472V10.9184H78.9331ZM82.9155 10.9184V0H83.4297V4.52605H83.4885C83.557 4.33991 83.6746 4.15378 83.8411 3.96765C84.0076 3.78151 84.2671 3.62476 84.6197 3.4974C84.9821 3.37004 85.4767 3.30636 86.1035 3.30636C86.7009 3.30636 87.1808 3.36023 87.5432 3.46799C87.9056 3.57575 88.1798 3.74232 88.3659 3.96765C88.5617 4.19297 88.6891 4.49176 88.7478 4.86404C88.8164 5.23631 88.8507 5.68696 88.8507 6.21598V10.9184H88.3365V6.28945C88.3365 5.74084 88.3071 5.3049 88.2483 4.98161C88.1896 4.64852 88.077 4.39381 87.9105 4.21747C87.744 4.04113 87.504 3.92354 87.1906 3.86476C86.887 3.80598 86.4903 3.7766 86.0006 3.7766C85.3542 3.7766 84.8547 3.85989 84.5022 4.02643C84.1496 4.19297 83.8949 4.42808 83.7382 4.73178C83.5913 5.02568 83.5032 5.37345 83.4738 5.77511C83.4444 6.16698 83.4297 6.58825 83.4297 7.0389V10.9184H82.9155ZM94.2936 11.036C93.7354 11.036 93.2653 11.0017 92.8833 10.9331C92.5112 10.8645 92.2075 10.7469 91.9725 10.5804C91.7374 10.4041 91.5562 10.169 91.4289 9.87505C91.3114 9.58115 91.2281 9.21375 91.1792 8.7729C91.14 8.33204 91.1204 7.80304 91.1204 7.18584C91.1204 6.45109 91.1449 5.8388 91.1939 5.34897C91.2428 4.84934 91.3653 4.45259 91.5611 4.15869C91.757 3.85499 92.0753 3.63944 92.5161 3.51209C92.9568 3.37493 93.564 3.30636 94.3377 3.30636C94.8764 3.30636 95.3171 3.34556 95.6599 3.42393C96.0125 3.5023 96.2867 3.62964 96.4826 3.80598C96.6883 3.97252 96.8401 4.20766 96.938 4.51136C97.036 4.80526 97.0996 5.17263 97.129 5.61348C97.1584 6.04454 97.1731 6.55887 97.1731 7.15647V7.34751H91.6346C91.6346 7.99409 91.664 8.52799 91.7227 8.94925C91.7815 9.37051 91.899 9.69872 92.0753 9.93384C92.2516 10.169 92.5209 10.3355 92.8833 10.4335C93.2555 10.5216 93.7501 10.5657 94.3671 10.5657C94.6316 10.5657 94.9156 10.5559 95.2192 10.5363C95.5228 10.5167 95.8166 10.4922 96.1006 10.4628C96.3945 10.4334 96.654 10.3992 96.8793 10.36V10.8449C96.6932 10.8841 96.4532 10.9184 96.1594 10.9478C95.8754 10.9772 95.5718 10.9967 95.2486 11.0065C94.9254 11.0261 94.6071 11.036 94.2936 11.036ZM96.6589 7.17116V6.56866C96.6589 5.94167 96.6197 5.44204 96.5414 5.06976C96.4728 4.69749 96.3504 4.4183 96.1741 4.23216C95.9978 4.04602 95.7529 3.92354 95.4395 3.86476C95.1359 3.80598 94.754 3.7766 94.2936 3.7766C93.6962 3.7766 93.2163 3.8158 92.8539 3.89417C92.5014 3.96275 92.2369 4.10479 92.0606 4.32032C91.8843 4.53585 91.7668 4.84935 91.708 5.26081C91.6591 5.66247 91.6346 6.2013 91.6346 6.87727H96.9527L96.6589 7.17116ZM101.553 10.9184L105.726 0.808194H106.24L110.412 10.9184H109.839L108.502 7.65609H103.449L102.112 10.9184H101.553ZM103.654 7.15647H108.297L106.019 1.55764H105.946L103.654 7.15647ZM112.389 10.9184V0.808194H112.918V10.9184H112.389ZM120.488 10.9184L117.873 3.42393H118.431L120.708 10.0808H120.796L122.926 3.42393H123.485L125.629 10.0808H125.718L127.98 3.42393H128.523L125.909 10.9184H125.394L123.235 4.32032H123.147L121.002 10.9184H120.488ZM132.916 11.036C132.319 11.036 131.824 11.0017 131.432 10.9331C131.05 10.8743 130.742 10.7665 130.507 10.6098C130.282 10.4432 
    130.115 10.213 130.007 9.91911C129.9 9.62521 129.831 9.25784 129.802 8.81699C129.772 8.36635 129.758 7.82263 129.758 7.18584C129.758 6.54906 129.772 6.00534 129.802 5.5547C129.831 5.10405 129.9 4.73179 130.007 4.43789C130.115 4.14399 130.282 3.91866 130.507 3.76192C130.742 3.59537 131.05 3.47782 131.432 3.40924C131.824 3.34067 132.319 3.30636 132.916 3.30636C133.514 3.30636 134.003 3.34067 134.385 3.40924C134.777 3.47782 135.085 3.59537 135.311 3.76192C135.546 3.91866 135.717 4.14399 135.825 4.43789C135.933 4.73179 136.001 5.10405 136.031 5.5547C136.06 6.00534 136.075 6.54906 136.075 7.18584C136.075 7.82263 136.06 8.36635 136.031 8.81699C136.001 9.25784 135.933 9.62521 135.825 9.91911C135.717 10.213 135.546 10.4432 135.311 10.6098C135.085 10.7665 134.777 10.8743 134.385 10.9331C134.003 11.0017 133.514 11.036 132.916 11.036ZM132.916 10.5657C133.582 10.5657 134.096 10.5216 134.459 10.4335C134.821 10.3453 135.076 10.1836 135.223 9.94852C135.379 9.7134 135.472 9.37542 135.502 8.93456C135.541 8.48392 135.56 7.901 135.56 7.18584C135.56 6.47069 135.541 5.88777 135.502 5.43713C135.472 4.98648 135.379 4.6436 135.223 4.40848C135.076 4.16356 134.821 3.99703 134.459 3.90886C134.096 3.82069 133.582 3.7766 132.916 3.7766C132.26 3.7766 131.746 3.82069 131.374 3.90886C131.011 3.99703 130.752 4.16356 130.595 4.40848C130.448 4.6436 130.355 4.98648 130.316 5.43713C130.286 5.88777 130.272 6.47069 130.272 7.18584C130.272 7.901 130.286 8.48392 130.316 8.93456C130.355 9.37542 130.448 9.7134 130.595 9.94852C130.752 10.1836 131.011 10.3453 131.374 10.4335C131.746 10.5216 132.26 10.5657 132.916 10.5657ZM138.353 10.9184V3.42393H138.75L138.808 5.02567H138.867C138.985 4.55543 139.166 4.19788 139.411 3.95296C139.665 3.69824 139.964 3.52679 140.307 3.43862C140.659 3.35045 141.041 3.30636 141.453 3.30636V3.83539C140.738 3.83539 140.194 3.96276 139.822 4.21747C139.45 4.47219 139.195 4.84445 139.058 5.33428C138.931 5.82411 138.867 6.41681 138.867 7.11237V10.9184H138.353ZM143.066 10.9184V0H143.58V6.84786H144.829L147.958 3.42393H148.605L145.255 7.06827L148.649 10.9184H147.973L144.829 7.34751H143.58V10.9184H143.066ZM152.524 11.036C152.269 11.036 151.985 11.0261 151.671 11.0065C151.368 10.9967 151.069 10.9772 150.775 10.9478C150.482 10.9282 150.217 10.9037 149.982 10.8743V10.3894C150.325 10.4285 150.614 10.458 150.849 10.4776C151.084 10.4971 151.294 10.5167 151.481 10.5363C151.676 10.5461 151.867 10.5559 152.053 10.5657C152.249 10.5657 152.475 10.5657 152.729 10.5657C153.297 10.5657 153.718 10.5118 153.993 10.404C154.267 10.2963 154.448 10.1249 154.536 9.88974C154.624 9.65462 154.668 9.34601 154.668 8.96394C154.668 8.51329 154.634 8.19001 154.566 7.99408C154.497 7.78835 154.38 7.65608 154.213 7.5973C154.056 7.53852 153.831 7.49444 153.537 7.46505L151.363 7.25932C150.932 7.21033 150.599 7.12709 150.364 7.00953C150.129 6.89197 149.967 6.7058 149.879 6.45109C149.791 6.19637 149.747 5.85838 149.747 5.43713C149.747 4.94729 149.806 4.56032 149.923 4.27622C150.051 3.98232 150.237 3.76681 150.482 3.62966C150.726 3.4925 151.025 3.40433 151.378 3.36514C151.73 3.32596 152.132 3.30636 152.582 3.30636C152.808 3.30636 153.048 3.31618 153.302 3.33577C153.567 3.34557 153.826 3.36513 154.081 3.39452C154.335 3.41411 154.566 3.44353 154.771 3.48271V3.96765C154.487 3.91866 154.218 3.87946 153.963 3.85007C153.718 3.82068 153.464 3.80109 153.199 3.79129C152.945 3.78149 152.656 3.7766 152.333 3.7766C151.931 3.7766 151.574 3.80598 151.26 3.86476C150.947 3.91375 150.702 4.04601 150.526 4.26153C150.349 4.47706 150.261 4.83465 150.261 5.33428C150.261 5.72615 150.295 6.02005 150.364 6.21598C150.433 6.40212 150.55 6.52945 150.717 6.59803C150.893 6.66661 151.128 6.71562 151.422 6.74501L153.523 6.95074C153.973 6.98993 154.316 7.06339 154.551 7.17116C154.786 7.27892 154.948 7.46994 155.036 7.74425C155.134 8.00876 155.183 8.41532 155.183 8.96394C155.183 9.39499 155.134 9.74769 155.036 10.022C154.938 10.2865 154.781 10.4922 154.566 10.6392C154.35 10.7861 154.071 10.889 153.728 10.9478C153.395 11.0065 152.994 11.036 152.524 11.036ZM157.313 10.9184V0H157.827V4.52605H157.886C157.954 4.33991 158.072 4.15378 158.238 3.96765C158.405 3.78151 158.664 3.62476 159.017 3.4974C159.379 3.37004 159.874 3.30636 160.501 3.30636C161.098 3.30636 161.578 3.36023 161.94 3.46799C162.303 3.57575 162.577 3.74232 162.763 3.96765C162.959 4.19297 163.086 4.49176 163.145 4.86404C163.214 5.23631 163.248 5.68696 163.248 6.21598V10.9184H162.734V6.28945C162.734 5.74084 162.704 5.3049 162.646 4.98161C162.587 4.64852 162.474 4.39381 162.308 4.21747C162.141 4.04113 161.901 3.92354 161.588 3.86476C161.284 3.80598 160.888 3.7766 160.398 3.7766C159.752 3.7766 159.252 3.85989 158.899 4.02643C158.547 4.19297 158.292 4.42808 158.135 4.73178C157.989 5.02568 157.9 5.37345 157.871 5.77511C157.842 6.16698 157.827 6.58825 157.827 7.0389V10.9184H157.313ZM168.676 11.036C168.079 11.036 167.584 11.0017 167.192 10.9331C166.81 10.8743 166.502 10.7665 166.267 10.6098C166.042 10.4432 165.875 10.213 165.767 9.91911C165.66 9.62521 165.591 9.25784 165.562 8.81699C165.532 8.36635 165.518 7.82263 165.518 7.18584C165.518 6.54906 165.532 6.00534 165.562 5.5547C165.591 5.10405 165.66 4.73179 165.767 4.43789C165.875 4.14399 166.042 3.91866 166.267 3.76192C166.502 3.59537 166.81 3.47782 167.192 3.40924C167.584 3.34067 168.079 3.30636 168.676 3.30636C169.274 3.30636 169.763 3.34067 170.145 3.40924C170.537 3.47782 170.846 3.59537 171.071 3.76192C171.306 3.91866 171.477 4.14399 171.585 4.43789C171.693 4.73179 171.761 5.10405 171.791 5.5547C171.82 6.00534 171.835 6.54906 171.835 7.18584C171.835 7.82263 171.82 8.36635 171.791 8.81699C171.761 9.25784 171.693 9.62521 171.585 9.91911C171.477 10.213 171.306 10.4432 171.071 10.6098C170.846 10.7665 170.537 10.8743 170.145 10.9331C169.763 11.0017 169.274 11.036 168.676 11.036ZM168.676 10.5657C169.342 10.5657 169.856 10.5216 170.219 10.4335C170.581 10.3453 170.836 10.1836 170.983 9.94852C171.139 9.7134 171.232 9.37542 171.262 8.93456C171.301 8.48392 171.321 7.901 171.321 7.18584C171.321 6.47069 171.301 5.88777 171.262 5.43713C171.232 4.98648 171.139 4.6436 170.983 4.40848C170.836 4.16356 170.581 3.99703 170.219 3.90886C169.856 3.82069 169.342 3.7766 168.676 3.7766C168.02 3.7766 167.506 3.82069 167.134 3.90886C166.771 3.99703 166.512 4.16356 166.355 4.40848C166.208 4.6436 166.115 4.98648 166.076 5.43713C166.047 5.88777 166.032 6.47069 166.032 7.18584C166.032 7.901 166.047 8.48392 166.076 8.93456C166.115 9.37542 166.208 9.7134 166.355 9.94852C166.512 10.1836 166.771 10.3453 167.134 10.4335C167.506 10.5216 168.02 10.5657 168.676 10.5657ZM174.113 13.8574V3.42393H174.524L174.569 4.64362H174.627C174.764 4.25175 174.97 3.96274 175.244 3.7766C175.528 3.58067 175.852 3.4533 176.214 3.39452C176.576 3.33574 176.953 3.30636 177.345 3.30636C177.972 3.30636 178.476 3.36515 178.858 3.48271C179.25 3.59048 179.549 3.78639 179.754 4.07049C179.96 4.3448 180.102 4.73669 180.18 5.24612C180.259 5.74575 180.298 6.38742 180.298 7.17116C180.298 7.95489 180.259 8.60145 180.18 9.11088C180.102 9.61051 179.96 10.0024 179.754 10.2865C179.549 10.5608 179.25 10.7567 178.858 10.8743C178.476 10.9821 177.972 11.036 177.345 11.036C176.865 11.036 176.449 10.9968 176.096 10.9184C175.744 10.84 175.45 10.7126 175.215 10.5363C174.98 10.36 174.804 10.1249 174.686 9.83095H174.627V13.8574H174.113ZM177.198 10.5657C177.756 10.5657 178.207 10.5265 178.55 10.4481C178.893 10.3698 179.152 10.2179 179.328 9.99259C179.505 9.75746 179.622 9.41459 179.681 8.96394C179.749 8.51329 179.784 7.91571 179.784 7.17116C179.784 6.42661 179.749 5.82903 179.681 5.37838C179.622 4.92773 179.505 4.58974 179.328 4.36442C179.152 4.1293 178.893 3.97255 178.55 3.89417C178.207 3.8158 177.756 3.7766 177.198 3.7766C176.552 3.7766 176.028 3.86967 175.626 4.0558C175.234 4.24194 174.97 4.55055 174.833 4.98161C174.735 5.2853 174.676 5.61836 174.657 5.98084C174.637 6.33352 174.627 6.73031 174.627 7.17116C174.627 7.62181 174.637 8.02348 174.657 8.37616C174.676 8.71905 174.72 9.00313 174.789 9.22845C174.955 9.71829 175.234 10.0661 175.626 10.2718C176.018 10.4677 176.542 10.5657 177.198 10.5657ZM185.503 0.89639V0H186.135V0.89639H185.503ZM185.562 10.9184V3.42393H186.076V10.9184H185.562ZM190.988 11.036C190.733 11.036 190.449 11.0261 190.136 11.0065C189.832 10.9967 189.534 10.9772 189.24 10.9478C188.946 10.9282 188.682 10.9037 188.447 10.8743V10.3894C188.789 10.4285 189.078 10.458 189.313 10.4776C189.548 10.4971 189.759 10.5167 189.945 10.5363C190.141 10.5461 190.332 10.5559 190.518 10.5657C190.714 10.5657 190.939 10.5657 191.194 10.5657C191.762 10.5657 192.183 10.5118 192.457 10.404C192.731 10.2963 192.913 10.1249 193.001 9.88974C193.089 9.65462 193.133 9.34601 193.133 8.96394C193.133 8.51329 193.099 8.19001 193.03 7.99408C192.962 7.78835 192.844 7.65608 192.678 7.5973C192.521 7.53852 192.296 7.49444 192.002 7.46505L189.827 7.25932C189.397 7.21033 189.064 7.12709 188.829 7.00953C188.593 6.89197 188.432 6.7058 188.344 6.45109C188.256 6.19637 188.211 5.85838 188.211 5.43713C188.211 4.94729 188.27 4.56032 188.388 4.27622C188.515 3.98232 188.701 3.76681 188.946 3.62966C189.191 3.4925 189.49 3.40433 189.842 3.36514C190.195 3.32596 190.596 3.30636 191.047 3.30636C191.272 3.30636 191.512 3.31618 191.767 3.33577C192.031 3.34557 192.291 3.36513 192.545 3.39452C192.8 3.41411 193.03 3.44353 193.236 3.48271V3.96765C192.952 3.91866 192.682 3.87946 192.428 3.85007C192.183 3.82068 191.928 3.80109 191.664 3.79129C191.409 3.78149 191.12 3.7766 190.797 3.7766C190.396 3.7766 190.038 3.80598 189.725 3.86476C189.411 3.91375 189.166 4.04601 188.99 4.26153C188.814 4.47706 188.726 4.83465 188.726 5.33428C188.726 5.72615 188.76 6.02005 188.829 6.21598C188.897 6.40212 189.015 6.52945 189.181 6.59803C189.357 6.66661 189.592 6.71562 189.886 6.74501L191.987 6.95074C192.438 6.98993 192.78 7.06339 193.015 7.17116C193.25 7.27892 193.412 7.46994 193.5 7.74425C193.598 8.00876 193.647 8.41532 193.647 8.96394C193.647 9.39499 193.598 9.74769 
    193.5 10.022C193.402 10.2865 193.246 10.4922 193.03 10.6392C192.815 10.7861 192.535 10.889 192.193 10.9478C191.86 11.0065 191.458 11.036 190.988 11.036ZM201.355 11.036C200.816 11.036 200.366 10.9919 200.003 10.9037C199.651 10.8155 199.367 10.6784 199.151 10.4922C198.936 10.2963 198.774 10.0514 198.667 9.75748C198.559 9.45378 198.485 9.09131 198.446 8.67005C198.417 8.239 198.402 7.74426 198.402 7.18584C198.402 6.55886 198.427 6.02496 198.476 5.58411C198.525 5.14326 198.613 4.77585 198.74 4.48195C198.867 4.17825 199.039 3.94315 199.254 3.7766C199.479 3.61006 199.754 3.49251 200.077 3.42393C200.41 3.34556 200.811 3.30636 201.282 3.30636C201.605 3.30636 201.943 3.32107 202.295 3.35046C202.658 3.37985 202.956 3.41901 203.191 3.46799V3.95296C202.937 3.90397 202.638 3.86478 202.295 3.83539C201.962 3.7962 201.659 3.7766 201.384 3.7766C200.855 3.7766 200.425 3.82558 200.092 3.92355C199.768 4.02151 199.519 4.19297 199.342 4.43789C199.176 4.68281 199.063 5.02569 199.004 5.46654C198.946 5.90739 198.916 6.4707 198.916 7.15647C198.916 7.87163 198.946 8.45451 199.004 8.90515C199.063 9.3558 199.181 9.70361 199.357 9.94852C199.533 10.1836 199.788 10.3453 200.121 10.4335C200.454 10.5216 200.89 10.5657 201.428 10.5657C201.742 10.5657 202.07 10.5461 202.413 10.5069C202.765 10.4677 203.049 10.4237 203.265 10.3747V10.8596C203.04 10.9086 202.746 10.9478 202.383 10.9772C202.031 11.0164 201.688 11.036 201.355 11.036ZM207.995 11.036C207.398 11.036 206.903 11.0017 206.511 10.9331C206.129 10.8743 205.821 10.7665 205.586 10.6098C205.361 10.4432 205.194 10.213 205.086 9.91911C204.979 9.62521 204.91 9.25784 204.881 8.81699C204.851 8.36635 204.837 7.82263 204.837 7.18584C204.837 6.54906 204.851 6.00534 204.881 5.5547C204.91 5.10405 204.979 4.73179 205.086 4.43789C205.194 4.14399 205.361 3.91866 205.586 3.76192C205.821 3.59537 206.129 3.47782 206.511 3.40924C206.903 3.34067 207.398 3.30636 207.995 3.30636C208.593 3.30636 209.082 3.34067 209.464 3.40924C209.856 3.47782 210.165 3.59537 210.39 3.76192C210.625 3.91866 210.796 4.14399 210.904 4.43789C211.012 4.73179 211.08 5.10405 211.11 5.5547C211.139 6.00534 211.154 6.54906 211.154 7.18584C211.154 7.82263 211.139 8.36635 211.11 8.81699C211.08 9.25784 211.012 9.62521 210.904 9.91911C210.796 10.213 210.625 10.4432 210.39 10.6098C210.165 10.7665 209.856 10.8743 209.464 10.9331C209.082 11.0017 208.593 11.036 207.995 11.036ZM207.995 10.5657C208.661 10.5657 209.175 10.5216 209.538 10.4335C209.9 10.3453 210.155 10.1836 210.302 9.94852C210.458 9.7134 210.551 9.37542 210.581 8.93456C210.62 8.48392 210.64 7.901 210.64 7.18584C210.64 6.47069 210.62 5.88777 210.581 5.43713C210.551 4.98648 210.458 4.6436 210.302 4.40848C210.155 4.16356 209.9 3.99703 209.538 3.90886C209.175 3.82069 208.661 3.7766 207.995 3.7766C207.339 3.7766 206.825 3.82069 206.453 3.90886C206.09 3.99703 205.831 4.16356 205.674 4.40848C205.527 4.6436 205.434 4.98648 205.395 5.43713C205.366 5.88777 205.351 6.47069 205.351 7.18584C205.351 7.901 205.366 8.48392 205.395 8.93456C205.434 9.37542 205.527 9.7134 205.674 9.94852C205.831 10.1836 206.09 10.3453 206.453 10.4335C206.825 10.5216 207.339 10.5657 207.995 10.5657ZM216.223 11.036C215.626 11.036 215.131 11.0017 214.74 10.9331C214.358 10.8743 214.049 10.7665 213.814 10.6098C213.589 10.4432 213.422 10.213 213.315 9.91911C213.207 9.62521 213.138 9.25784 213.109 8.81699C213.08 8.36635 213.065 7.82263 213.065 7.18584C213.065 6.54906 213.08 6.00534 213.109 5.5547C213.138 5.10405 213.207 4.73179 213.315 4.43789C213.422 4.14399 213.589 3.91866 213.814 3.76192C214.049 3.59537 214.358 3.47782 214.74 3.40924C215.131 3.34067 215.626 3.30636 216.223 3.30636C216.821 3.30636 217.311 3.34067 217.692 3.40924C218.084 3.47782 218.393 3.59537 218.618 3.76192C218.853 3.91866 219.024 4.14399 219.132 4.43789C219.24 4.73179 219.308 5.10405 219.338 5.5547C219.367 6.00534 219.382 6.54906 219.382 7.18584C219.382 7.82263 219.367 8.36635 219.338 8.81699C219.308 9.25784 219.24 9.62521 219.132 9.91911C219.024 10.213 218.853 10.4432 218.618 10.6098C218.393 10.7665 218.084 10.8743 217.692 10.9331C217.311 11.0017 216.821 11.036 216.223 11.036ZM216.223 10.5657C216.889 10.5657 217.404 10.5216 217.766 10.4335C218.128 10.3453 218.383 10.1836 218.53 9.94852C218.687 9.7134 218.78 9.37542 218.809 8.93456C218.848 8.48392 218.868 7.901 218.868 7.18584C218.868 6.47069 218.848 5.88777 218.809 5.43713C218.78 4.98648 218.687 4.6436 218.53 4.40848C218.383 4.16356 218.128 3.99703 217.766 3.90886C217.404 3.82069 216.889 3.7766 216.223 3.7766C215.567 3.7766 215.053 3.82069 214.681 3.90886C214.318 3.99703 214.059 4.16356 213.902 4.40848C213.755 4.6436 213.662 4.98648 213.623 5.43713C213.594 5.88777 213.579 6.47069 213.579 7.18584C213.579 7.901 213.594 8.48392 213.623 8.93456C213.662 9.37542 213.755 9.7134 213.902 9.94852C214.059 10.1836 214.318 10.3453 214.681 10.4335C215.053 10.5216 215.567 10.5657 216.223 10.5657ZM221.66 10.9184V0H222.174V10.9184H221.66ZM224.295 10.9184V9.96321H225V10.9184H224.295Z" fill="black"/></svg>