<svg width="296" height="14" viewBox="0 0 296 14" fill="none"
    xmlns="http://www.w3.org/2000/svg">
    <path d="M0 10.9286V0.808946H0.529367V10.9286H0ZM2.42075 3.2506V2.94174C2.64622 2.94174 2.80797 2.91722 2.906 2.8682C3.01383 2.80936 3.08245 2.71128 3.11186 2.574C3.14127 2.43671 3.15598 2.25041 3.15598 2.01507V1.76501H2.86188V0.808946H3.56771V1.91213C3.56771 2.17689 3.5481 2.39749 3.50889 2.574C3.47948 2.74069 3.42066 2.87797 3.33243 2.98584C3.25401 3.0839 3.14127 3.15254 2.99423 3.19176C2.84718 3.23098 2.65602 3.2506 2.42075 3.2506ZM5.68198 10.9286V3.42712H6.09371L6.13783 4.64794H6.19665C6.26527 4.41261 6.378 4.19686 6.53485 4.00074C6.6917 3.79482 6.93187 3.62813 7.25538 3.50066C7.57888 3.37318 8.02002 3.30944 8.57879 3.30944C9.31402 3.30944 9.85319 3.41242 10.1963 3.61834C10.5492 3.82426 10.7845 4.16746 10.9021 4.64794H10.9756C11.0443 4.41261 11.1619 4.19686 11.3286 4.00074C11.4952 3.79482 11.7452 3.62813 12.0785 3.50066C12.4118 3.37318 12.8578 3.30944 13.4166 3.30944C14.1224 3.30944 14.6518 3.40748 15.0047 3.6036C15.3576 3.78991 15.588 4.09881 15.6958 4.53026C15.8135 4.95191 15.8723 5.51575 15.8723 6.22177V10.9286H15.3576V6.29531C15.3576 5.74619 15.3331 5.30984 15.2841 4.98625C15.2351 4.65285 15.137 4.39791 14.99 4.2214C14.8528 4.0449 14.6469 3.9272 14.3724 3.86836C14.1077 3.80953 13.7548 3.78012 13.3137 3.78012C12.7451 3.78012 12.304 3.85855 11.9903 4.01544C11.6766 4.16253 11.4511 4.38317 11.3138 4.67735C11.1864 4.96171 11.108 5.30491 11.0786 5.70695C11.0492 6.10899 11.0345 6.55517 11.0345 7.04546V10.9286H10.5198V6.29531C10.5198 5.74619 10.4953 5.30984 10.4463 4.98625C10.3973 4.65285 10.2992 4.39791 10.1522 4.2214C10.0149 4.0449 9.80908 3.9272 9.53459 3.86836C9.26991 3.80953 8.917 3.78012 8.47586 3.78012C7.90728 3.78012 7.46614 3.86348 7.15244 4.03018C6.83874 4.19688 6.61328 4.43221 6.47603 4.73619C6.34859 5.03036 6.27017 5.37845 6.24076 5.78049C6.21135 6.17272 6.19665 6.59439 6.19665 7.04546V10.9286H5.68198ZM24.154 13.9585C23.8403 13.9585 23.5119 13.9536 23.1688 13.9438C22.8355 13.934 22.512 13.9193 22.1983 13.8997C21.8944 13.8899 21.6297 13.8752 21.4043 13.8556V13.3702C21.6886 13.3898 21.9876 13.4094 22.3012 13.429C22.6248 13.4487 22.9385 13.4633 23.2423 13.4732C23.5462 13.483 23.8256 13.4879 24.0805 13.4879C24.6883 13.4879 25.1735 13.4339 25.5363 13.3261C25.899 13.2182 26.1735 13.0368 26.3597 12.7818C26.546 12.5269 26.6685 12.1739 26.7273 11.7228C26.7862 11.2816 26.8156 10.7226 26.8156 10.046V9.84011H26.7567C26.6391 10.1343 26.4627 10.3696 26.2274 10.5461C25.9921 10.7226 25.698 10.8501 25.3451 10.9286C24.9922 11.007 24.5756 11.0462 24.0952 11.0462C23.4678 11.0462 22.9581 10.9923 22.5659 10.8844C22.1836 10.7667 21.8895 10.5707 21.6837 10.2961C21.4778 10.0117 21.3356 9.61947 21.2572 9.11937C21.1788 8.60947 21.1396 7.9623 21.1396 7.17784C21.1396 6.39337 21.1788 5.7511 21.2572 5.25101C21.3356 4.7411 21.4778 4.34885 21.6837 4.07428C21.8895 3.78991 22.1836 3.59382 22.5659 3.48596C22.9581 3.36829 23.4678 3.30944 24.0952 3.30944C24.4873 3.30944 24.8648 3.33885 25.2275 3.39768C25.5902 3.45651 25.9088 3.584 26.1833 3.78012C26.4676 3.96643 26.6783 4.25571 26.8156 4.64794H26.8744L26.9185 3.42712H27.3302V9.86951C27.3302 10.6442 27.291 11.2914 27.2126 11.8111C27.144 12.3406 26.9969 12.7623 26.7715 13.076C26.5558 13.3898 26.2372 13.6153 25.8156 13.7526C25.4039 13.8899 24.85 13.9585 24.154 13.9585ZM24.2423 10.5756C24.8991 10.5756 25.4186 10.4824 25.8009 10.2961C26.1931 10.1098 26.4578 9.80578 26.595 9.38413C26.7028 9.08015 26.7665 8.75167 26.7862 8.39866C26.8058 8.03585 26.8156 7.62891 26.8156 7.17784C26.8156 6.73658 26.8058 6.34435 26.7862 6.00115C26.7763 5.64814 26.7273 5.33924 26.6391 5.07449C26.4823 4.594 26.2029 4.26059 25.8009 4.07428C25.4088 3.87817 24.8893 3.78012 24.2423 3.78012C23.6835 3.78012 23.2325 3.81935 22.8894 3.8978C22.5463 3.97625 22.2865 4.13314 22.1101 4.36848C21.9336 4.59402 21.8111 4.93232 21.7425 5.38339C21.6837 5.83445 21.6542 6.4326 21.6542 7.17784C21.6542 7.92308 21.6837 8.52122 21.7425 8.97229C21.8111 9.42335 21.9336 9.76655 22.1101 10.0019C22.2865 10.2274 22.5463 10.3794 22.8894 10.4579C23.2325 10.5363 23.6835 10.5756 24.2423 10.5756ZM32.7665 11.0462C32.1685 11.0462 31.6735 11.0119 31.2814 10.9433C30.899 10.8844 30.5902 10.7766 30.355 10.6197C30.1295 10.453 29.9628 10.2225 29.855 9.92835C29.7472 9.63418 29.6786 9.26647 29.6491 8.82521C29.6197 8.37414 29.605 7.82992 29.605 7.19254C29.605 6.55516 29.6197 6.01094 29.6491 5.55987C29.6786 5.1088 29.7472 4.7362 29.855 4.44202C29.9628 4.14785 30.1295 3.92231 30.355 3.76542C30.5902 3.59872 30.899 3.48106 31.2814 3.41242C31.6735 3.34378 32.1685 3.30944 32.7665 3.30944C33.3645 3.30944 33.8547 3.34378 34.237 3.41242C34.6291 3.48106 34.9379 3.59872 35.1634 3.76542C35.3986 3.92231 35.5702 4.14785 35.678 4.44202C35.7859 4.7362 35.8545 5.1088 35.8839 5.55987C35.9133 6.01094 35.928 6.55516 35.928 7.19254C35.928 7.82992 35.9133 8.37414 35.8839 8.82521C35.8545 9.26647 35.7859 9.63418 35.678 9.92835C35.5702 10.2225 35.3986 10.453 35.1634 10.6197C34.9379 10.7766 34.6291 10.8844 34.237 10.9433C33.8547 11.0119 33.3645 11.0462 32.7665 11.0462ZM32.7665 10.5756C33.4331 10.5756 33.9478 10.5314 34.3105 10.4432C34.6732 10.3549 34.9281 10.1931 35.0751 9.95779C35.232 9.72245 35.3251 9.38415 35.3545 8.94289C35.3937 8.49182 35.4133 7.90836 35.4133 7.19254C35.4133 6.47671 35.3937 5.89326 35.3545 5.44219C35.3251 4.99112 35.232 4.64792 35.0751 4.41258C34.9281 4.16744 34.6732 4.00075 34.3105 3.9125C33.9478 3.82425 33.4331 3.78012 32.7665 3.78012C32.1097 3.78012 31.595 3.82425 31.2225 3.9125C30.8598 4.00075 30.6 4.16744 30.4432 4.41258C30.2961 4.64792 30.203 4.99112 30.1638 5.44219C30.1344 5.89326 30.1197 6.47671 30.1197 7.19254C30.1197 7.90836 30.1344 8.49182 30.1638 8.94289C30.203 9.38415 30.2961 9.72245 30.4432 9.95779C30.6 10.1931 30.8598 10.3549 31.2225 10.4432C31.595 10.5314 32.1097 10.5756 32.7665 10.5756ZM38.1496 0.897225V0H38.7819V0.897225H38.1496ZM38.2084 10.9286V3.42712H38.7231V10.9286H38.2084ZM41.3751 10.9286V3.42712H41.7868L41.8309 4.64794H41.8897C41.9682 4.41261 42.0956 4.19686 42.2721 4.00074C42.4485 3.79482 42.7181 3.62813 43.0808 3.50066C43.4435 3.37318 43.9386 3.30944 44.566 3.30944C45.164 3.30944 45.6443 3.36336 46.007 3.47122C46.3698 3.57908 46.6442 3.74581 46.8305 3.97134C47.0266 4.19687 47.154 4.49595 47.2128 4.86857C47.2814 5.24119 47.3157 5.69226 47.3157 6.22177V10.9286H46.8011V6.29531C46.8011 5.74619 46.7717 5.30984 46.7129 4.98625C46.654 4.65285 46.5413 4.39791 46.3746 4.2214C46.208 4.0449 45.9678 3.9272 45.6541 3.86836C45.3502 3.80953 44.9532 3.78012 44.4631 3.78012C43.8161 3.78012 43.3161 3.86348 42.9632 4.03018C42.6103 4.19688 42.3554 4.43221 42.1985 4.73619C42.0515 5.03036 41.9633 5.37845 41.9339 5.78049C41.9044 6.17272 41.8897 6.59439 41.8897 7.04546V10.9286H41.3751ZM52.6023 13.9585C52.2886 13.9585 51.9602 13.9536 51.6171 13.9438C51.2838 13.934 50.9603 13.9193 50.6466 13.8997C50.3427 13.8899 50.078 13.8752 49.8525 13.8556V13.3702C50.1368 13.3898 50.4358 13.4094 50.7495 13.429C51.073 13.4487 51.3867 13.4633 51.6906 13.4732C51.9945 13.483 52.2739 13.4879 52.5288 13.4879C53.1366 13.4879 53.6218 13.4339 53.9845 13.3261C54.3472 13.2182 54.6217 13.0368 54.808 12.7818C54.9942 12.5269 55.1168 12.1739 55.1756 11.7228C55.2344 11.2816 55.2638 10.7226 55.2638 10.046V9.84011H55.205C55.0874 10.1343 54.9109 10.3696 54.6756 10.5461C54.4404 10.7226 54.1463 10.8501 53.7934 10.9286C53.4405 11.007 53.0238 11.0462 52.5435 11.0462C51.9161 11.0462 51.4063 10.9923 51.0142 10.8844C50.6319 10.7667 50.3378 10.5707 50.1319 10.2961C49.9261 10.0117 49.7839 9.61947 49.7055 9.11937C49.6271 8.60947 49.5878 7.9623 49.5878 7.17784C49.5878 6.39337 49.6271 5.7511 49.7055 5.25101C49.7839 4.7411 49.9261 4.34885 50.1319 4.07428C50.3378 3.78991 50.6319 3.59382 51.0142 3.48596C51.4063 3.36829 51.9161 3.30944 52.5435 3.30944C52.9356 3.30944 53.313 3.33885 53.6757 3.39768C54.0384 3.45651 54.3571 3.584 54.6315 3.78012C54.9158 3.96643 55.1266 4.25571 55.2638 4.64794H55.3226L55.3668 3.42712H55.7785V9.86951C55.7785 10.6442 55.7393 11.2914 55.6609 11.8111C55.5922 12.3406 55.4452 12.7623 55.2197 13.076C55.004 13.3898 54.6854 13.6153 54.2639 13.7526C53.8522 13.8899 53.2983 13.9585 52.6023 13.9585ZM52.6905 10.5756C53.3473 10.5756 53.8669 10.4824 54.2492 10.2961C54.6413 10.1098 54.906 9.80578 55.0433 9.38413C55.1511 9.08015 55.2148 8.75167 55.2344 8.39866C55.254 8.03585 55.2638 7.62891 55.2638 7.17784C55.2638 6.73658 55.254 6.34435 55.2344 6.00115C55.2246 5.64814 55.1756 5.33924 55.0874 5.07449C54.9305 4.594 54.6511 4.26059 54.2492 4.07428C53.8571 3.87817 53.3375 3.78012 52.6905 3.78012C52.1318 3.78012 51.6808 3.81935 51.3377 3.8978C50.9946 3.97625 50.7348 4.13314 50.5584 4.36848C50.3819 4.59402 50.2594 4.93232 50.1907 5.38339C50.1319 5.83445 50.1025 6.4326 50.1025 7.17784C50.1025 7.92308 50.1319 8.52122 50.1907 8.97229C50.2594 9.42335 50.3819 9.76655 50.5584 10.0019C50.7348 10.2274 50.9946 10.3794 51.3377 10.4579C51.6808 10.5363 52.1318 10.5756 52.6905 10.5756ZM61.974 10.9286V3.8978H60.3859V3.42712H61.974V1.25023H62.4887V3.42712H64.3415V3.8978H62.4887V10.9286H61.974ZM68.6825 11.0462C68.0845 11.0462 67.5895 11.0119 67.1973 10.9433C66.815 10.8844 66.5062 10.7766 66.271 10.6197C66.0455 10.453 65.8788 10.2225 65.771 9.92835C65.6632 9.63418 65.5946 9.26647 65.5651 8.82521C65.5357 8.37414 65.521 7.82992 65.521 7.19254C65.521 6.55516 65.5357 6.01094 65.5651 5.55987C65.5946 5.1088 65.6632 4.7362 65.771 4.44202C65.8788 4.14785 66.0455 3.92231 66.271 3.76542C66.5062 3.59872 66.815 3.48106 67.1973 3.41242C67.5895 3.34378 68.0845 3.30944 68.6825 3.30944C69.2805 3.30944 69.7707 3.34378 70.153 3.41242C70.5451 3.48106 70.8539 3.59872 71.0794 3.76542C71.3146 3.92231 71.4862 4.14785 71.594 4.44202C71.7019 4.7362 71.7705 5.1088 71.7999 5.55987C71.8293 6.01094 71.844 6.55516 71.844 7.19254C71.844 7.82992 71.8293 8.37414 71.7999 8.82521C71.7705 9.26647 71.7019 9.63418 71.594 9.92835C71.4862 10.2225 71.3146 10.453 71.0794 10.6197C70.8539 10.7766 70.5451 10.8844 70.153 10.9433C69.7707 11.0119 69.2805 11.0462 68.6825 
    11.0462ZM68.6825 10.5756C69.3491 10.5756 69.8638 10.5314 70.2265 10.4432C70.5892 10.3549 70.8441 10.1931 70.9911 9.95779C71.148 9.72245 71.2411 9.38415 71.2705 8.94289C71.3097 8.49182 71.3293 7.90836 71.3293 7.19254C71.3293 6.47671 71.3097 5.89326 71.2705 5.44219C71.2411 4.99112 71.148 4.64792 70.9911 4.41258C70.8441 4.16744 70.5892 4.00075 70.2265 3.9125C69.8638 3.82425 69.3491 3.78012 68.6825 3.78012C68.0257 3.78012 67.5111 3.82425 67.1385 3.9125C66.7758 4.00075 66.516 4.16744 66.3592 4.41258C66.2121 4.64792 66.119 4.99112 66.0798 5.44219C66.0504 5.89326 66.0357 6.47671 66.0357 7.19254C66.0357 7.90836 66.0504 8.49182 66.0798 8.94289C66.119 9.38415 66.2121 9.72245 66.3592 9.95779C66.516 10.1931 66.7758 10.3549 67.1385 10.4432C67.5111 10.5314 68.0257 10.5756 68.6825 10.5756ZM77.6776 10.9286V3.8978H76.0895V3.42712H77.6776V1.25023H78.1922V3.42712H80.045V3.8978H78.1922V10.9286H77.6776ZM81.664 10.9286V0H82.1787V4.53026H82.2375C82.3061 4.34395 82.4237 4.15765 82.5904 3.97134C82.757 3.78503 83.0168 3.62813 83.3697 3.50066C83.7324 3.37318 84.2275 3.30944 84.8549 3.30944C85.4529 3.30944 85.9332 3.36336 86.2959 3.47122C86.6586 3.57908 86.9331 3.74581 87.1194 3.97134C87.3155 4.19687 87.4429 4.49595 87.5017 4.86857C87.5703 5.24119 87.6046 5.69226 87.6046 6.22177V10.9286H87.09V6.29531C87.09 5.74619 87.0606 5.30984 87.0018 4.98625C86.9429 4.65285 86.8302 4.39791 86.6636 4.2214C86.4969 4.0449 86.2567 3.9272 85.943 3.86836C85.6391 3.80953 85.2421 3.78012 84.752 3.78012C84.105 3.78012 83.605 3.86348 83.2521 4.03018C82.8992 4.19688 82.6443 4.43221 82.4875 4.73619C82.3404 5.03036 82.2522 5.37845 82.2228 5.78049C82.1933 6.17272 82.1787 6.59439 82.1787 7.04546V10.9286H81.664ZM93.0532 11.0462C92.4944 11.0462 92.0239 11.0119 91.6416 10.9433C91.269 10.8746 90.9651 10.757 90.7299 10.5903C90.4946 10.4138 90.3132 10.1784 90.1858 9.88425C90.0682 9.59008 89.9848 9.22233 89.9358 8.78107C89.8966 8.33981 89.877 7.8103 89.877 7.19254C89.877 6.4571 89.9015 5.84424 89.9505 5.35395C89.9995 4.85385 90.1221 4.45674 90.3181 4.16256C90.5142 3.85858 90.8328 3.64284 91.2739 3.51536C91.7151 3.37808 92.3229 3.30944 93.0973 3.30944C93.6365 3.30944 94.0776 3.34867 94.4207 3.42712C94.7736 3.50557 95.0481 3.63302 95.2442 3.80952C95.4501 3.97622 95.602 4.21158 95.7 4.51556C95.798 4.80974 95.8618 5.17745 95.8912 5.61871C95.9206 6.05017 95.9353 6.56498 95.9353 7.16314V7.35436H90.3917C90.3917 8.00154 90.4211 8.53594 90.4799 8.95759C90.5387 9.37924 90.6563 9.70775 90.8328 9.94309C91.0092 10.1784 91.2788 10.3451 91.6416 10.4432C92.0141 10.5314 92.5091 10.5756 93.1267 10.5756C93.3914 10.5756 93.6757 10.5657 93.9796 10.5461C94.2835 10.5265 94.5776 10.502 94.8619 10.4726C95.1559 10.4432 95.4157 10.4089 95.6412 10.3696V10.855C95.455 10.8942 95.2148 10.9285 94.9207 10.958C94.6364 10.9874 94.3325 11.007 94.009 11.0168C93.6855 11.0364 93.3669 11.0462 93.0532 11.0462ZM95.4206 7.17784V6.57478C95.4206 5.9472 95.3814 5.44711 95.303 5.07449C95.2344 4.70187 95.1118 4.42241 94.9354 4.2361C94.7589 4.04979 94.5139 3.9272 94.2002 3.86836C93.8963 3.80953 93.5139 3.78012 93.0532 3.78012C92.4552 3.78012 91.9749 3.81935 91.6121 3.8978C91.2592 3.96644 90.9946 4.10862 90.8181 4.32434C90.6416 4.54007 90.524 4.85386 90.4652 5.26571C90.4162 5.66775 90.3917 6.20707 90.3917 6.88368H95.7147L95.4206 7.17784ZM100.32 10.9286L104.496 0.808946H105.01L109.187 10.9286H108.613L107.275 7.66322H102.217L100.879 10.9286H100.32ZM102.422 7.16314H107.069L104.79 1.55909H104.716L102.422 7.16314ZM111.166 10.9286V0.808946H111.695V10.9286H111.166ZM119.272 10.9286L116.654 3.42712H117.213L119.492 10.0902H119.58L121.712 3.42712H122.271L124.418 10.0902H124.506L126.771 3.42712H127.315L124.698 10.9286H124.183L122.021 4.32434H121.933L119.786 10.9286H119.272ZM131.712 11.0462C131.114 11.0462 130.619 11.0119 130.226 10.9433C129.844 10.8844 129.535 10.7766 129.3 10.6197C129.075 10.453 128.908 10.2225 128.8 9.92835C128.692 9.63418 128.624 9.26647 128.594 8.82521C128.565 8.37414 128.55 7.82992 128.55 7.19254C128.55 6.55516 128.565 6.01094 128.594 5.55987C128.624 5.1088 128.692 4.7362 128.8 4.44202C128.908 4.14785 129.075 3.92231 129.3 3.76542C129.535 3.59872 129.844 3.48106 130.226 3.41242C130.619 3.34378 131.114 3.30944 131.712 3.30944C132.31 3.30944 132.8 3.34378 133.182 3.41242C133.574 3.48106 133.883 3.59872 134.108 3.76542C134.344 3.92231 134.515 4.14785 134.623 4.44202C134.731 4.7362 134.8 5.1088 134.829 5.55987C134.858 6.01094 134.873 6.55516 134.873 7.19254C134.873 7.82992 134.858 8.37414 134.829 8.82521C134.8 9.26647 134.731 9.63418 134.623 9.92835C134.515 10.2225 134.344 10.453 134.108 10.6197C133.883 10.7766 133.574 10.8844 133.182 10.9433C132.8 11.0119 132.31 11.0462 131.712 11.0462ZM131.712 10.5756C132.378 10.5756 132.893 10.5314 133.256 10.4432C133.618 10.3549 133.873 10.1931 134.02 9.95779C134.177 9.72245 134.27 9.38415 134.3 8.94289C134.339 8.49182 134.358 7.90836 134.358 7.19254C134.358 6.47671 134.339 5.89326 134.3 5.44219C134.27 4.99112 134.177 4.64792 134.02 4.41258C133.873 4.16744 133.618 4.00075 133.256 3.9125C132.893 3.82425 132.378 3.78012 131.712 3.78012C131.055 3.78012 130.54 3.82425 130.168 3.9125C129.805 4.00075 129.545 4.16744 129.388 4.41258C129.241 4.64792 129.148 4.99112 129.109 5.44219C129.079 5.89326 129.065 6.47671 129.065 7.19254C129.065 7.90836 129.079 8.49182 129.109 8.94289C129.148 9.38415 129.241 9.72245 129.388 9.95779C129.545 10.1931 129.805 10.3549 130.168 10.4432C130.54 10.5314 131.055 10.5756 131.712 10.5756ZM137.154 10.9286V3.42712H137.551L137.609 5.03035H137.668C137.786 4.55967 137.967 4.20179 138.212 3.95664C138.467 3.70169 138.766 3.53007 139.109 3.44182C139.462 3.35357 139.844 3.30944 140.256 3.30944V3.83896C139.541 3.83896 138.997 3.96645 138.624 4.2214C138.251 4.47635 137.997 4.84896 137.859 5.33925C137.732 5.82954 137.668 6.42279 137.668 7.119V10.9286H137.154ZM141.871 10.9286V0H142.386V6.85424H143.636L146.768 3.42712H147.415L144.062 7.07486L147.459 10.9286H146.783L143.636 7.35436H142.386V10.9286H141.871ZM151.337 11.0462C151.082 11.0462 150.798 11.0364 150.484 11.0168C150.181 11.007 149.882 10.9874 149.587 10.958C149.293 10.9383 149.029 10.9138 148.793 10.8844V10.399C149.137 10.4383 149.426 10.4677 149.661 10.4873C149.896 10.5069 150.107 10.5265 150.293 10.5461C150.489 10.5559 150.681 10.5657 150.867 10.5756C151.063 10.5756 151.288 10.5756 151.543 10.5756C152.112 10.5756 152.533 10.5216 152.808 10.4137C153.082 10.3059 153.264 10.1343 153.352 9.89895C153.44 9.66361 153.484 9.35471 153.484 8.97229C153.484 8.52122 153.45 8.19764 153.381 8.00152C153.313 7.7956 153.195 7.66322 153.028 7.60438C152.872 7.54555 152.646 7.50142 152.352 7.472L150.176 7.26608C149.744 7.21705 149.411 7.13373 149.176 7.01606C148.94 6.89839 148.779 6.71205 148.691 6.4571C148.602 6.20214 148.558 5.86384 148.558 5.44219C148.558 4.9519 148.617 4.56457 148.735 4.2802C148.862 3.98603 149.048 3.77032 149.293 3.63304C149.538 3.49576 149.837 3.4075 150.19 3.36828C150.543 3.32906 150.945 3.30944 151.396 3.30944C151.622 3.30944 151.862 3.31927 152.117 3.33888C152.381 3.34868 152.641 3.36826 152.896 3.39768C153.151 3.41729 153.381 3.44674 153.587 3.48596V3.97134C153.303 3.92231 153.033 3.88308 152.778 3.85366C152.533 3.82424 152.278 3.80463 152.014 3.79482C151.759 3.78502 151.47 3.78012 151.146 3.78012C150.744 3.78012 150.386 3.80953 150.073 3.86836C149.759 3.91739 149.514 4.04978 149.338 4.2655C149.161 4.48123 149.073 4.83915 149.073 5.33925C149.073 5.73148 149.107 6.02566 149.176 6.22177C149.244 6.40808 149.362 6.53554 149.529 6.60418C149.705 6.67282 149.94 6.72188 150.234 6.7513L152.337 6.95722C152.788 6.99644 153.131 7.06997 153.367 7.17784C153.602 7.2857 153.764 7.4769 153.852 7.75146C153.95 8.01622 153.999 8.42316 153.999 8.97229C153.999 9.40374 153.95 9.75677 153.852 10.0313C153.754 10.2961 153.597 10.502 153.381 10.6491C153.166 10.7962 152.886 10.8991 152.543 10.958C152.21 11.0168 151.808 11.0462 151.337 11.0462ZM156.131 10.9286V0H156.646V4.53026H156.705C156.773 4.34395 156.891 4.15765 157.057 3.97134C157.224 3.78503 157.484 3.62813 157.837 3.50066C158.199 3.37318 158.695 3.30944 159.322 3.30944C159.92 3.30944 160.4 3.36336 160.763 3.47122C161.126 3.57908 161.4 3.74581 161.586 3.97134C161.783 4.19687 161.91 4.49595 161.969 4.86857C162.037 5.24119 162.072 5.69226 162.072 6.22177V10.9286H161.557V6.29531C161.557 5.74619 161.528 5.30984 161.469 4.98625C161.41 4.65285 161.297 4.39791 161.131 4.2214C160.964 4.0449 160.724 3.9272 160.41 3.86836C160.106 3.80953 159.709 3.78012 159.219 3.78012C158.572 3.78012 158.072 3.86348 157.719 4.03018C157.366 4.19688 157.111 4.43221 156.954 4.73619C156.807 5.03036 156.719 5.37845 156.69 5.78049C156.66 6.17272 156.646 6.59439 156.646 7.04546V10.9286H156.131ZM167.505 11.0462C166.907 11.0462 166.412 11.0119 166.02 10.9433C165.638 10.8844 165.329 10.7766 165.094 10.6197C164.868 10.453 164.701 10.2225 164.594 9.92835C164.486 9.63418 164.417 9.26647 164.388 8.82521C164.358 8.37414 164.344 7.82992 164.344 7.19254C164.344 6.55516 164.358 6.01094 164.388 5.55987C164.417 5.1088 164.486 4.7362 164.594 4.44202C164.701 4.14785 164.868 3.92231 165.094 3.76542C165.329 3.59872 165.638 3.48106 166.02 3.41242C166.412 3.34378 166.907 3.30944 167.505 3.30944C168.103 3.30944 168.593 3.34378 168.976 3.41242C169.368 3.48106 169.676 3.59872 169.902 3.76542C170.137 3.92231 170.309 4.14785 170.417 4.44202C170.524 4.7362 170.593 5.1088 170.622 5.55987C170.652 6.01094 170.667 6.55516 170.667 7.19254C170.667 7.82992 170.652 8.37414 170.622 8.82521C170.593 9.26647 170.524 9.63418 170.417 9.92835C170.309 10.2225 170.137 10.453 169.902 10.6197C169.676 10.7766 169.368 10.8844 168.976 10.9433C168.593 11.0119 168.103 11.0462 167.505 11.0462ZM167.505 10.5756C168.172 10.5756 168.686 10.5314 
    169.049 10.4432C169.412 10.3549 169.667 10.1931 169.814 9.95779C169.971 9.72245 170.064 9.38415 170.093 8.94289C170.132 8.49182 170.152 7.90836 170.152 7.19254C170.152 6.47671 170.132 5.89326 170.093 5.44219C170.064 4.99112 169.971 4.64792 169.814 4.41258C169.667 4.16744 169.412 4.00075 169.049 3.9125C168.686 3.82425 168.172 3.78012 167.505 3.78012C166.848 3.78012 166.334 3.82425 165.961 3.9125C165.598 4.00075 165.339 4.16744 165.182 4.41258C165.035 4.64792 164.942 4.99112 164.902 5.44219C164.873 5.89326 164.858 6.47671 164.858 7.19254C164.858 7.90836 164.873 8.49182 164.902 8.94289C164.942 9.38415 165.035 9.72245 165.182 9.95779C165.339 10.1931 165.598 10.3549 165.961 10.4432C166.334 10.5314 166.848 10.5756 167.505 10.5756ZM172.947 13.8703V3.42712H173.359L173.403 4.64794H173.462C173.599 4.25571 173.805 3.96643 174.079 3.78012C174.364 3.584 174.687 3.45651 175.05 3.39768C175.412 3.33885 175.79 3.30944 176.182 3.30944C176.809 3.30944 177.314 3.36829 177.697 3.48596C178.089 3.59382 178.388 3.78991 178.594 4.07428C178.799 4.34885 178.942 4.7411 179.02 5.25101C179.098 5.7511 179.138 6.39337 179.138 7.17784C179.138 7.9623 179.098 8.60947 179.02 9.11937C178.942 9.61947 178.799 10.0117 178.594 10.2961C178.388 10.5707 178.089 10.7667 177.697 10.8844C177.314 10.9923 176.809 11.0462 176.182 11.0462C175.702 11.0462 175.285 11.007 174.932 10.9286C174.579 10.8501 174.285 10.7226 174.05 10.5461C173.815 10.3696 173.638 10.1343 173.52 9.84011H173.462V13.8703H172.947ZM176.035 10.5756C176.594 10.5756 177.045 10.5363 177.388 10.4579C177.731 10.3794 177.991 10.2274 178.167 10.0019C178.344 9.76655 178.461 9.42335 178.52 8.97229C178.589 8.52122 178.623 7.92308 178.623 7.17784C178.623 6.4326 178.589 5.83445 178.52 5.38339C178.461 4.93232 178.344 4.59402 178.167 4.36848C177.991 4.13314 177.731 3.97625 177.388 3.8978C177.045 3.81935 176.594 3.78012 176.035 3.78012C175.388 3.78012 174.863 3.87327 174.462 4.05958C174.069 4.24589 173.805 4.55479 173.667 4.98625C173.569 5.29023 173.511 5.6236 173.491 5.98641C173.471 6.33942 173.462 6.73658 173.462 7.17784C173.462 7.62891 173.471 8.03095 173.491 8.38396C173.511 8.72717 173.555 9.01152 173.623 9.23705C173.79 9.72734 174.069 10.0754 174.462 10.2814C174.854 10.4775 175.378 10.5756 176.035 10.5756ZM186.598 11.0462C185.98 11.0462 185.47 10.9923 185.068 10.8844C184.667 10.7766 184.368 10.5706 184.172 10.2667C183.985 9.95287 183.892 9.4969 183.892 8.89875C183.892 8.34962 183.956 7.92306 184.083 7.61908C184.211 7.3053 184.436 7.08469 184.76 6.95722C185.083 6.82974 185.534 6.766 186.113 6.766C186.23 6.766 186.411 6.77089 186.657 6.7807C186.902 6.7807 187.181 6.78559 187.495 6.7954C187.818 6.8052 188.142 6.81503 188.465 6.82484C188.799 6.82484 189.107 6.82973 189.392 6.83954V6.16293C189.392 5.61381 189.357 5.18235 189.289 4.86857C189.23 4.54497 189.107 4.30472 188.921 4.14782C188.745 3.99093 188.485 3.89288 188.142 3.85366C187.799 3.80463 187.353 3.78012 186.804 3.78012C186.578 3.78012 186.313 3.78991 186.01 3.80952C185.715 3.82913 185.426 3.85368 185.142 3.8831C184.858 3.90271 184.618 3.93212 184.421 3.97134V3.48596C184.716 3.43693 185.088 3.3977 185.539 3.36828C185.99 3.32906 186.48 3.30944 187.009 3.30944C187.49 3.30944 187.897 3.33395 188.23 3.38298C188.573 3.43201 188.852 3.51537 189.068 3.63304C189.294 3.75071 189.465 3.9174 189.583 4.13312C189.7 4.33904 189.784 4.60381 189.833 4.92741C189.882 5.24119 189.906 5.62362 189.906 6.07469V10.9286H189.495L189.45 9.70773H189.392C189.254 10.1098 189.029 10.4088 188.715 10.605C188.411 10.7913 188.068 10.9089 187.686 10.958C187.313 11.0168 186.951 11.0462 186.598 11.0462ZM186.583 10.5756C186.926 10.5756 187.259 10.5608 187.583 10.5314C187.916 10.4922 188.21 10.4138 188.465 10.2961C188.72 10.1686 188.911 9.96759 189.039 9.69303C189.176 9.39886 189.269 9.10958 189.318 8.82521C189.367 8.53103 189.392 8.20256 189.392 7.83974V7.23668H186.26C185.769 7.23668 185.387 7.27591 185.113 7.35436C184.848 7.4328 184.662 7.58966 184.554 7.825C184.456 8.06034 184.407 8.41826 184.407 8.89875C184.407 9.34981 184.466 9.69795 184.583 9.94309C184.701 10.1882 184.917 10.3549 185.23 10.4432C185.544 10.5314 185.995 10.5756 186.583 10.5756ZM192.557 10.9286V3.42712H192.969L193.013 4.64794H193.071C193.15 4.41261 193.277 4.19686 193.454 4.00074C193.63 3.79482 193.9 3.62813 194.263 3.50066C194.625 3.37318 195.12 3.30944 195.748 3.30944C196.346 3.30944 196.826 3.36336 197.189 3.47122C197.551 3.57908 197.826 3.74581 198.012 3.97134C198.208 4.19687 198.336 4.49595 198.395 4.86857C198.463 5.24119 198.497 5.69226 198.497 6.22177V10.9286H197.983V6.29531C197.983 5.74619 197.953 5.30984 197.895 4.98625C197.836 4.65285 197.723 4.39791 197.556 4.2214C197.39 4.0449 197.15 3.9272 196.836 3.86836C196.532 3.80953 196.135 3.78012 195.645 3.78012C194.998 3.78012 194.498 3.86348 194.145 4.03018C193.792 4.19688 193.537 4.43221 193.38 4.73619C193.233 5.03036 193.145 5.37845 193.116 5.78049C193.086 6.17272 193.071 6.59439 193.071 7.04546V10.9286H192.557ZM203.725 11.0462C203.098 11.0462 202.588 10.9923 202.196 10.8844C201.813 10.7667 201.519 10.5707 201.313 10.2961C201.108 10.0117 200.965 9.61947 200.887 9.11937C200.809 8.60947 200.769 7.9623 200.769 7.17784C200.769 6.39337 200.809 5.7511 200.887 5.25101C200.965 4.7411 201.108 4.34885 201.313 4.07428C201.519 3.78991 201.813 3.59382 202.196 3.48596C202.588 3.36829 203.098 3.30944 203.725 3.30944C204.205 3.30944 204.622 3.34867 204.975 3.42712C205.328 3.50557 205.622 3.63302 205.857 3.80952C206.092 3.98603 206.269 4.22139 206.386 4.51556H206.445V0H206.96V10.9286H206.548L206.504 9.70773H206.445C206.308 10.1 206.097 10.3941 205.813 10.5903C205.539 10.7766 205.22 10.8991 204.857 10.958C204.494 11.0168 204.117 11.0462 203.725 11.0462ZM203.872 10.5756C204.519 10.5756 205.039 10.4873 205.431 10.3108C205.823 10.1343 206.083 9.8499 206.21 9.45767C206.328 9.10466 206.396 8.73695 206.416 8.35452C206.435 7.9721 206.445 7.51124 206.445 6.97192C206.445 6.61891 206.435 6.27571 206.416 5.94231C206.396 5.60891 206.342 5.30984 206.254 5.04509C206.097 4.58421 205.823 4.26059 205.431 4.07428C205.039 3.87817 204.494 3.78012 203.798 3.78012C203.259 3.78012 202.823 3.81935 202.49 3.8978C202.156 3.97625 201.902 4.13314 201.725 4.36848C201.549 4.59402 201.431 4.93232 201.372 5.38339C201.313 5.83445 201.284 6.4326 201.284 7.17784C201.284 7.92308 201.313 8.52122 201.372 8.97229C201.441 9.42335 201.563 9.76655 201.74 10.0019C201.916 10.2274 202.176 10.3794 202.519 10.4579C202.862 10.5363 203.313 10.5756 203.872 10.5756ZM215.185 11.0462C214.557 11.0462 214.048 10.9923 213.655 10.8844C213.273 10.7667 212.979 10.5707 212.773 10.2961C212.567 10.0117 212.425 9.61947 212.347 9.11937C212.268 8.60947 212.229 7.9623 212.229 7.17784C212.229 6.39337 212.268 5.7511 212.347 5.25101C212.425 4.7411 212.567 4.34885 212.773 4.07428C212.979 3.78991 213.273 3.59382 213.655 3.48596C214.048 3.36829 214.557 3.30944 215.185 3.30944C215.665 3.30944 216.082 3.34867 216.435 3.42712C216.788 3.50557 217.082 3.63302 217.317 3.80952C217.552 3.98603 217.729 4.22139 217.846 4.51556H217.905V0H218.42V10.9286H218.008L217.964 9.70773H217.905C217.768 10.1 217.557 10.3941 217.273 10.5903C216.998 10.7766 216.68 10.8991 216.317 10.958C215.954 11.0168 215.577 11.0462 215.185 11.0462ZM215.332 10.5756C215.979 10.5756 216.498 10.4873 216.89 10.3108C217.283 10.1343 217.542 9.8499 217.67 9.45767C217.787 9.10466 217.856 8.73695 217.876 8.35452C217.895 7.9721 217.905 7.51124 217.905 6.97192C217.905 6.61891 217.895 6.27571 217.876 5.94231C217.856 5.60891 217.802 5.30984 217.714 5.04509C217.557 4.58421 217.283 4.26059 216.89 4.07428C216.498 3.87817 215.954 3.78012 215.258 3.78012C214.719 3.78012 214.283 3.81935 213.95 3.8978C213.616 3.97625 213.361 4.13314 213.185 4.36848C213.008 4.59402 212.891 4.93232 212.832 5.38339C212.773 5.83445 212.744 6.4326 212.744 7.17784C212.744 7.92308 212.773 8.52122 212.832 8.97229C212.901 9.42335 213.023 9.76655 213.2 10.0019C213.376 10.2274 213.636 10.3794 213.979 10.4579C214.322 10.5363 214.773 10.5756 215.332 10.5756ZM223.87 11.0462C223.311 11.0462 222.841 11.0119 222.459 10.9433C222.086 10.8746 221.782 10.757 221.547 10.5903C221.312 10.4138 221.13 10.1784 221.003 9.88425C220.885 9.59008 220.802 9.22233 220.753 8.78107C220.714 8.33981 220.694 7.8103 220.694 7.19254C220.694 6.4571 220.719 5.84424 220.768 5.35395C220.817 4.85385 220.939 4.45674 221.135 4.16256C221.331 3.85858 221.65 3.64284 222.091 3.51536C222.532 3.37808 223.14 3.30944 223.914 3.30944C224.454 3.30944 224.895 3.34867 225.238 3.42712C225.591 3.50557 225.865 3.63302 226.061 3.80952C226.267 3.97622 226.419 4.21158 226.517 4.51556C226.615 4.80974 226.679 5.17745 226.708 5.61871C226.738 6.05017 226.752 6.56498 226.752 7.16314V7.35436H221.209C221.209 8.00154 221.238 8.53594 221.297 8.95759C221.356 9.37924 221.473 9.70775 221.65 9.94309C221.826 10.1784 222.096 10.3451 222.459 10.4432C222.831 10.5314 223.326 10.5756 223.944 10.5756C224.208 10.5756 224.493 10.5657 224.797 10.5461C225.101 10.5265 225.395 10.502 225.679 10.4726C225.973 10.4432 226.233 10.4089 226.458 10.3696V10.855C226.272 10.8942 226.032 10.9285 225.738 10.958C225.453 10.9874 225.15 11.007 224.826 11.0168C224.503 11.0364 224.184 11.0462 223.87 11.0462ZM226.238 7.17784V6.57478C226.238 5.9472 226.198 5.44711 226.12 
    5.07449C226.051 4.70187 225.929 4.42241 225.752 4.2361C225.576 4.04979 225.331 3.9272 225.017 3.86836C224.713 3.80953 224.331 3.78012 223.87 3.78012C223.272 3.78012 222.792 3.81935 222.429 3.8978C222.076 3.96644 221.812 4.10862 221.635 4.32434C221.459 4.54007 221.341 4.85386 221.282 5.26571C221.233 5.66775 221.209 6.20707 221.209 6.88368H226.532L226.238 7.17784ZM231.289 11.0462C231.034 11.0462 230.75 11.0364 230.436 11.0168C230.132 11.007 229.833 10.9874 229.539 10.958C229.245 10.9383 228.98 10.9138 228.745 10.8844V10.399C229.088 10.4383 229.377 10.4677 229.612 10.4873C229.848 10.5069 230.058 10.5265 230.245 10.5461C230.441 10.5559 230.632 10.5657 230.818 10.5756C231.014 10.5756 231.24 10.5756 231.495 10.5756C232.063 10.5756 232.485 10.5216 232.759 10.4137C233.034 10.3059 233.215 10.1343 233.303 9.89895C233.391 9.66361 233.436 9.35471 233.436 8.97229C233.436 8.52122 233.401 8.19764 233.333 8.00152C233.264 7.7956 233.146 7.66322 232.98 7.60438C232.823 7.54555 232.597 7.50142 232.303 7.472L230.127 7.26608C229.696 7.21705 229.362 7.13373 229.127 7.01606C228.892 6.89839 228.73 6.71205 228.642 6.4571C228.554 6.20214 228.51 5.86384 228.51 5.44219C228.51 4.9519 228.568 4.56457 228.686 4.2802C228.813 3.98603 229 3.77032 229.245 3.63304C229.49 3.49576 229.789 3.4075 230.142 3.36828C230.495 3.32906 230.897 3.30944 231.348 3.30944C231.573 3.30944 231.813 3.31927 232.068 3.33888C232.333 3.34868 232.593 3.36826 232.847 3.39768C233.102 3.41729 233.333 3.44674 233.539 3.48596V3.97134C233.254 3.92231 232.985 3.88308 232.73 3.85366C232.485 3.82424 232.23 3.80463 231.965 3.79482C231.71 3.78502 231.421 3.78012 231.098 3.78012C230.696 3.78012 230.338 3.80953 230.024 3.86836C229.71 3.91739 229.465 4.04978 229.289 4.2655C229.112 4.48123 229.024 4.83915 229.024 5.33925C229.024 5.73148 229.059 6.02566 229.127 6.22177C229.196 6.40808 229.313 6.53554 229.48 6.60418C229.657 6.67282 229.892 6.72188 230.186 6.7513L232.289 6.95722C232.74 6.99644 233.083 7.06997 233.318 7.17784C233.553 7.2857 233.715 7.4769 233.803 7.75146C233.901 8.01622 233.95 8.42316 233.95 8.97229C233.95 9.40374 233.901 9.75677 233.803 10.0313C233.705 10.2961 233.548 10.502 233.333 10.6491C233.117 10.7962 232.838 10.8991 232.494 10.958C232.161 11.0168 231.759 11.0462 231.289 11.0462ZM236.024 0.897225V0H236.656V0.897225H236.024ZM236.082 10.9286V3.42712H236.597V10.9286H236.082ZM241.897 13.9585C241.583 13.9585 241.255 13.9536 240.912 13.9438C240.578 13.934 240.255 13.9193 239.941 13.8997C239.637 13.8899 239.373 13.8752 239.147 13.8556V13.3702C239.431 13.3898 239.73 13.4094 240.044 13.429C240.368 13.4487 240.681 13.4633 240.985 13.4732C241.289 13.483 241.568 13.4879 241.823 13.4879C242.431 13.4879 242.916 13.4339 243.279 13.3261C243.642 13.2182 243.916 13.0368 244.103 12.7818C244.289 12.5269 244.411 12.1739 244.47 11.7228C244.529 11.2816 244.558 10.7226 244.558 10.046V9.84011H244.5C244.382 10.1343 244.206 10.3696 243.97 10.5461C243.735 10.7226 243.441 10.8501 243.088 10.9286C242.735 11.007 242.318 11.0462 241.838 11.0462C241.211 11.0462 240.701 10.9923 240.309 10.8844C239.926 10.7667 239.632 10.5707 239.426 10.2961C239.221 10.0117 239.078 9.61947 239 9.11937C238.922 8.60947 238.882 7.9623 238.882 7.17784C238.882 6.39337 238.922 5.7511 239 5.25101C239.078 4.7411 239.221 4.34885 239.426 4.07428C239.632 3.78991 239.926 3.59382 240.309 3.48596C240.701 3.36829 241.211 3.30944 241.838 3.30944C242.23 3.30944 242.608 3.33885 242.97 3.39768C243.333 3.45651 243.652 3.584 243.926 3.78012C244.21 3.96643 244.421 4.25571 244.558 4.64794H244.617L244.661 3.42712H245.073V9.86951C245.073 10.6442 245.034 11.2914 244.955 11.8111C244.887 12.3406 244.74 12.7623 244.514 13.076C244.299 13.3898 243.98 13.6153 243.559 13.7526C243.147 13.8899 242.593 13.9585 241.897 13.9585ZM241.985 10.5756C242.642 10.5756 243.161 10.4824 243.544 10.2961C243.936 10.1098 244.201 9.80578 244.338 9.38413C244.446 9.08015 244.509 8.75167 244.529 8.39866C244.549 8.03585 244.558 7.62891 244.558 7.17784C244.558 6.73658 244.549 6.34435 244.529 6.00115C244.519 5.64814 244.47 5.33924 244.382 5.07449C244.225 4.594 243.946 4.26059 243.544 4.07428C243.152 3.87817 242.632 3.78012 241.985 3.78012C241.426 3.78012 240.975 3.81935 240.632 3.8978C240.289 3.97625 240.029 4.13314 239.853 4.36848C239.676 4.59402 239.554 4.93232 239.485 5.38339C239.426 5.83445 239.397 6.4326 239.397 7.17784C239.397 7.92308 239.426 8.52122 239.485 8.97229C239.554 9.42335 239.676 9.76655 239.853 10.0019C240.029 10.2274 240.289 10.3794 240.632 10.4579C240.975 10.5363 241.426 10.5756 241.985 10.5756ZM247.715 10.9286V3.42712H248.127L248.171 4.64794H248.23C248.308 4.41261 248.436 4.19686 248.612 4.00074C248.788 3.79482 249.058 3.62813 249.421 3.50066C249.783 3.37318 250.278 3.30944 250.906 3.30944C251.504 3.30944 251.984 3.36336 252.347 3.47122C252.71 3.57908 252.984 3.74581 253.17 3.97134C253.366 4.19687 253.494 4.49595 253.553 4.86857C253.621 5.24119 253.656 5.69226 253.656 6.22177V10.9286H253.141V6.29531C253.141 5.74619 253.112 5.30984 253.053 4.98625C252.994 4.65285 252.881 4.39791 252.715 4.2214C252.548 4.0449 252.308 3.9272 251.994 3.86836C251.69 3.80953 251.293 3.78012 250.803 3.78012C250.156 3.78012 249.656 3.86348 249.303 4.03018C248.95 4.19688 248.695 4.43221 248.538 4.73619C248.391 5.03036 248.303 5.37845 248.274 5.78049C248.244 6.17272 248.23 6.59439 248.23 7.04546V10.9286H247.715ZM261.554 11.0462C261.3 11.0462 261.015 11.0364 260.702 11.0168C260.398 11.007 260.099 10.9874 259.805 10.958C259.511 10.9383 259.246 10.9138 259.011 10.8844V10.399C259.354 10.4383 259.643 10.4677 259.878 10.4873C260.113 10.5069 260.324 10.5265 260.51 10.5461C260.707 10.5559 260.898 10.5657 261.084 10.5756C261.28 10.5756 261.505 10.5756 261.76 10.5756C262.329 10.5756 262.75 10.5216 263.025 10.4137C263.299 10.3059 263.481 10.1343 263.569 9.89895C263.657 9.66361 263.701 9.35471 263.701 8.97229C263.701 8.52122 263.667 8.19764 263.598 8.00152C263.53 7.7956 263.412 7.66322 263.246 7.60438C263.089 7.54555 262.863 7.50142 262.569 7.472L260.393 7.26608C259.961 7.21705 259.628 7.13373 259.393 7.01606C259.158 6.89839 258.996 6.71205 258.908 6.4571C258.819 6.20214 258.775 5.86384 258.775 5.44219C258.775 4.9519 258.834 4.56457 258.952 4.2802C259.079 3.98603 259.265 3.77032 259.511 3.63304C259.756 3.49576 260.055 3.4075 260.408 3.36828C260.76 3.32906 261.162 3.30944 261.613 3.30944C261.839 3.30944 262.079 3.31927 262.334 3.33888C262.598 3.34868 262.858 3.36826 263.113 3.39768C263.368 3.41729 263.598 3.44674 263.804 3.48596V3.97134C263.52 3.92231 263.25 3.88308 262.996 3.85366C262.75 3.82424 262.496 3.80463 262.231 3.79482C261.976 3.78502 261.687 3.78012 261.363 3.78012C260.961 3.78012 260.604 3.80953 260.29 3.86836C259.976 3.91739 259.731 4.04978 259.555 4.2655C259.378 4.48123 259.29 4.83915 259.29 5.33925C259.29 5.73148 259.324 6.02566 259.393 6.22177C259.462 6.40808 259.579 6.53554 259.746 6.60418C259.922 6.67282 260.158 6.72188 260.452 6.7513L262.554 6.95722C263.005 6.99644 263.348 7.06997 263.584 7.17784C263.819 7.2857 263.981 7.4769 264.069 7.75146C264.167 8.01622 264.216 8.42316 264.216 8.97229C264.216 9.40374 264.167 9.75677 264.069 10.0313C263.971 10.2961 263.814 10.502 263.598 10.6491C263.383 10.7962 263.103 10.8991 262.76 10.958C262.427 11.0168 262.025 11.0462 261.554 11.0462ZM266.348 13.8703V3.42712H266.76L266.804 4.64794H266.863C267 4.25571 267.206 3.96643 267.48 3.78012C267.765 3.584 268.088 3.45651 268.451 3.39768C268.814 3.33885 269.191 3.30944 269.583 3.30944C270.211 3.30944 270.715 3.36829 271.098 3.48596C271.49 3.59382 271.789 3.78991 271.995 4.07428C272.201 4.34885 272.343 4.7411 272.421 5.25101C272.5 5.7511 272.539 6.39337 272.539 7.17784C272.539 7.9623 272.5 8.60947 272.421 9.11937C272.343 9.61947 272.201 10.0117 271.995 10.2961C271.789 10.5707 271.49 10.7667 271.098 10.8844C270.715 10.9923 270.211 11.0462 269.583 11.0462C269.103 11.0462 268.686 11.007 268.333 10.9286C267.98 10.8501 267.686 10.7226 267.451 10.5461C267.216 10.3696 267.039 10.1343 266.922 9.84011H266.863V13.8703H266.348ZM269.436 10.5756C269.995 10.5756 270.446 10.5363 270.789 10.4579C271.132 10.3794 271.392 10.2274 271.568 10.0019C271.745 9.76655 271.862 9.42335 271.921 8.97229C271.99 8.52122 272.024 7.92308 272.024 7.17784C272.024 6.4326 271.99 5.83445 271.921 5.38339C271.862 4.93232 271.745 4.59402 271.568 4.36848C271.392 4.13314 271.132 3.97625 270.789 3.8978C270.446 3.81935 269.995 3.78012 269.436 3.78012C268.789 3.78012 268.265 3.87327 267.863 4.05958C267.471 4.24589 267.206 4.55479 267.069 4.98625C266.971 5.29023 266.912 5.6236 266.892 5.98641C266.873 6.33942 266.863 6.73658 266.863 7.17784C266.863 7.62891 266.873 8.03095 266.892 8.38396C266.912 8.72717 266.956 9.01152 267.025 9.23705C267.191 9.72734 267.471 10.0754 267.863 10.2814C268.255 10.4775 268.779 10.5756 269.436 10.5756ZM274.813 10.9286V3.42712H275.21L275.269 5.03035H275.328C275.445 4.55967 275.627 4.20179 275.872 3.95664C276.127 3.70169 276.426 3.53007 276.769 3.44182C277.122 3.35357 277.504 3.30944 277.916 3.30944V3.83896C277.2 3.83896 276.656 3.96645 276.284 4.2214C275.911 4.47635 275.656 4.84896 275.519 5.33925C275.392 5.82954 275.328 6.42279 275.328 7.119V10.9286H274.813ZM279.472 0.897225V0H280.104V0.897225H279.472ZM279.531 10.9286V3.42712H280.046V10.9286H279.531ZM282.697 10.9286V3.42712H283.109L283.153 4.64794H283.212C283.29 4.41261 283.418 4.19686 283.594 4.00074C283.771 3.79482 284.04 3.62813 284.403 3.50066C284.766 3.37318 285.261 3.30944 285.888 3.30944C286.486 3.30944 286.966 3.36336 287.329 3.47122C287.692 3.57908 287.966 3.74581 288.153 3.97134C288.349 4.19687 288.476 4.49595 288.535 4.86857C288.604 5.24119 288.638 5.69226 288.638 6.22177V10.9286H288.123V6.29531C288.123 5.74619 288.094 5.30984 288.035 4.98625C287.976 4.65285 287.863 4.39791 287.697 4.2214C287.53 4.0449 287.29 3.9272 286.976 3.86836C286.672 3.80953 286.275 3.78012 285.785 3.78012C285.138 3.78012 284.638 3.86348 284.285 4.03018C283.932 4.19688 283.678 
    4.43221 283.521 4.73619C283.374 5.03036 283.285 5.37845 283.256 5.78049C283.227 6.17272 283.212 6.59439 283.212 7.04546V10.9286H282.697ZM291.837 10.9286V3.8978H290.249V3.42712H291.837V1.25023H292.352V3.42712H294.205V3.8978H292.352V10.9286H291.837ZM295.294 10.9286V9.97249H296V10.9286H295.294Z" fill="black"/>
</svg>