<svg width="20" height="22" viewBox="0 0 20 22" fill="none" xmlns="http://www.w3.org/2000/svg">
<path fill-rule="evenodd" clip-rule="evenodd" d="M17 0.999975V2.00001C18.9527 2.00001 20.0301 2.92585 20 4.9433V18.5013C20 20.4386 18.4386 22 16.5013 22H3.49874C1.56142 22 0 20.4386 0 18.5013V4.9433C0 3.0349 1 2.00001 3 2.00001V0.999786C3 0.447502 3.44772 5.00679e-06 4 5.00679e-06C4.55228 5.00679e-06 5 0.44772 5 1.00001V2.00001H15V1C15 0.447715 15.4477 0 16 0C16.5523 0 17 0.44769 17 0.999975ZM16.6699 20C17.4217 20 18 19.3928 18 18.6699V6.07817H2V18.6699C2 19.3928 2.60722 20 3.3301 20H16.6699ZM10.4562 8.01636C10.2795 7.62267 9.72053 7.62267 9.54384 8.01636L8.31406 10.7564C8.24136 10.9184 8.08819 11.0297 7.91165 11.0488L4.92571 11.3716C4.49669 11.418 4.32397 11.9496 4.64379 12.2393L6.86969 14.2556C7.00129 14.3748 7.05979 14.5549 7.02339 14.7287L6.40776 17.6682C6.3193 18.0906 6.77149 18.4191 7.14584 18.2045L9.7513 16.7106C9.90534 16.6223 10.0947 16.6223 10.2487 16.7106L12.8542 18.2045C13.2285 18.4191 13.6807 18.0906 13.5922 17.6682L12.9766 14.7287C12.9402 14.5549 12.9987 14.3748 13.1303 14.2556L15.3562 12.2393C15.676 11.9496 15.5033 11.418 15.0743 11.3716L12.0883 11.0488C11.9118 11.0297 11.7586 10.9184 11.6859 10.7564L10.4562 8.01636Z" fill="#8A898E"/>
</svg>
