<svg width="116" height="17" viewBox="0 0 116 17" fill="none"
    xmlns="http://www.w3.org/2000/svg">
    <path d="M0 1.33717V0H9.33123V1.33717H5.41894V12.4453H3.91229V1.33717H0ZM11.3163 15.9459C11.0732 15.9459 10.8566 15.9252 10.6662 15.8848C10.4758 15.8482 10.3442 15.8115 10.2714 15.7748L10.6358 14.511C10.9841 14.6002 11.292 14.6332 11.5592 14.6088C11.8266 14.5843 12.0635 14.4645 12.27 14.2506C12.4807 14.0391 12.673 13.6969 12.8471 13.2227L13.1145 12.4942L9.66385 3.11196H11.219L13.7949 10.5495H13.892L16.4679 3.11196H18.023L14.0621 13.8069C13.8839 14.2885 13.6633 14.6882 13.3999 15.0036C13.1367 15.3238 12.831 15.5609 12.4826 15.7149C12.1384 15.8689 11.7496 15.9459 11.3163 15.9459ZM19.9154 15.9459V3.11196H21.3005V4.5946H21.4706C21.5759 4.43204 21.7217 4.22545 21.9079 3.97488C22.0983 3.71943 22.3697 3.49207 22.722 3.29406C23.0784 3.09116 23.5604 2.98969 24.1679 2.98969C24.9531 2.98969 25.646 3.18647 26.246 3.57882C26.8447 3.97239 27.3127 4.52981 27.6487 5.25095C27.9848 5.9721 28.1534 6.82283 28.1534 7.8031C28.1534 8.7907 27.9848 9.64748 27.6487 10.3735C27.3127 11.0947 26.8472 11.6533 26.2521 12.0505C25.6558 12.4429 24.9702 12.6396 24.1922 12.6396C23.5928 12.6396 23.1129 12.5406 22.7524 12.3414C22.3919 12.1397 22.1146 11.9099 21.9202 11.6557C21.7257 11.3966 21.5759 11.1815 21.4706 11.0116H21.349V15.9459H19.9154ZM21.3248 7.77863C21.3248 8.48388 21.4281 9.10481 21.6346 9.64383C21.8411 10.1792 22.1429 10.5984 22.5398 10.9016C22.9367 11.201 23.4227 11.3513 23.9978 11.3513C24.5972 11.3513 25.0973 11.1937 25.4981 10.8771C25.9038 10.5568 26.2069 10.1279 26.4097 9.58885C26.6162 9.04616 26.7188 8.44233 26.7188 7.77863C26.7188 7.12226 26.6186 6.53064 26.4158 6.00384C26.2166 5.47337 25.916 5.05414 25.5103 4.74612C25.1096 4.43444 24.6053 4.27799 23.9978 4.27799C23.4146 4.27799 22.9245 4.42593 22.5276 4.72173C22.1307 5.01385 21.8311 5.42205 21.6285 5.94886C21.426 6.472 21.3248 7.08193 21.3248 7.77863ZM34.2521 12.6396C33.3528 12.6396 32.5781 12.4416 31.9255 12.0444C31.2779 11.6435 30.7769 11.0837 30.425 10.3674C30.0767 9.64625 29.9032 8.80782 29.9032 7.85077C29.9032 6.89494 30.0767 6.05272 30.425 5.32302C30.7769 4.58965 31.2681 4.01887 31.895 3.60941C32.5267 3.19627 33.2636 2.98969 34.1067 2.98969C34.593 2.98969 35.072 3.0704 35.5462 3.23296C36.0203 3.39553 36.4516 3.65831 36.8402 4.02255C37.2288 4.38313 37.5391 4.86105 37.7701 5.45753C38.001 6.05278 38.1159 6.78609 38.1159 7.65635V8.26511H30.9236V7.02447H36.6581C36.6581 6.49767 36.553 6.02829 36.3416 5.61516C36.1351 5.20203 35.8394 4.8757 35.4557 4.63735C35.0745 4.39778 34.6248 4.27799 34.1067 4.27799C33.5361 4.27799 33.0412 4.4198 32.6245 4.70337C32.2115 4.98328 31.8938 5.34747 31.6702 5.79727C31.4478 6.24707 31.3366 6.7287 31.3366 7.24328V8.0695C31.3366 8.77476 31.4575 9.37251 31.7007 9.86264C31.9475 10.3491 32.2897 10.7194 32.7271 10.9749C33.1646 11.2255 33.6729 11.3513 34.2521 11.3513C34.6285 11.3513 34.9694 11.2988 35.2724 11.1937C35.5804 11.0837 35.8455 10.9223 36.0691 10.7072C36.2915 10.4884 36.4638 10.2171 36.5848 9.89315L37.9705 10.2818C37.8251 10.7524 37.5795 11.1656 37.2349 11.5213C36.8915 11.8745 36.4663 12.1495 35.9592 12.3475C35.4533 12.5431 34.8839 12.6396 34.2521 12.6396ZM45.3034 0H47.1008L51.3287 10.3308H51.4754L55.7033 0H57.5008V12.4453H56.0919V2.98969H55.9709L52.0827 12.4453H50.7214L46.8332 2.98969H46.7123V12.4453H45.3034V0ZM64.2398 12.6396C63.3404 12.6396 62.5657 12.4416 61.9132 12.0444C61.2656 11.6435 60.7646 11.0837 60.4127 10.3674C60.0644 9.64625 59.8909 8.80782 59.8909 7.85077C59.8909 6.89494 60.0644 6.05272 60.4127 5.32302C60.7646 4.58965 61.2558 4.01887 61.8827 3.60941C62.5144 3.19627 63.2525 2.98969 64.0944 2.98969C64.5807 2.98969 65.0597 3.0704 65.5338 3.23296C66.0079 3.39553 66.4393 3.65831 66.8278 4.02255C67.2164 4.38313 67.5268 4.86105 67.7577 5.45753C67.9887 6.05278 68.1036 6.78609 68.1036 7.65635V8.26511H60.9112V7.02447H66.6458C66.6458 6.49767 66.5407 6.02829 66.3293 5.61516C66.1228 5.20203 65.8271 4.8757 65.4434 4.63735C65.0622 4.39778 64.6125 4.27799 64.0944 4.27799C63.5237 4.27799 63.0288 4.4198 62.6122 4.70337C62.1991 4.98328 61.8814 5.34747 61.6578 5.79727C61.4354 6.24707 61.3242 6.7287 61.3242 7.24328V8.0695C61.3242 8.77476 61.4452 9.37251 61.6884 9.86264C61.9352 10.3491 62.2773 10.7194 62.7148 10.9749C63.1523 11.2255 63.6606 11.3513 64.2398 11.3513C64.6161 11.3513 64.9571 11.2988 65.2601 11.1937C65.568 11.0837 65.8332 10.9223 66.0568 10.7072C66.2792 10.4884 66.4515 10.2171 66.5725 9.89315L67.9582 10.2818C67.8127 10.7524 67.5671 11.1656 67.2225 11.5213C66.8792 11.8745 66.4539 12.1495 65.9468 12.3475C65.441 12.5431 64.8715 12.6396 64.2398 12.6396ZM76.8942 5.20202L75.6063 5.5663C75.5256 5.35118 75.4059 5.14336 75.2483 4.94046C75.0943 4.73389 74.8829 4.56403 74.6165 4.42958C74.3489 4.29635 74.0068 4.22913 73.5901 4.22913C73.0182 4.22913 72.5429 4.3611 72.1616 4.62512C71.7853 4.88424 71.5971 5.21425 71.5971 5.61516C71.5971 5.97207 71.7266 6.25324 71.9857 6.45981C72.2447 6.66638 72.6504 6.83868 73.2003 6.9768L74.586 7.31662C75.4205 7.51952 76.0413 7.82874 76.4506 8.24676C76.86 8.65989 77.0641 9.19281 77.0641 9.84429C77.0641 10.3796 76.9101 10.8575 76.6022 11.278C76.2991 11.6997 75.8739 12.0322 75.3265 12.2754C74.7802 12.5187 74.1448 12.6396 73.419 12.6396C72.4671 12.6396 71.6802 12.433 71.0558 12.0199C70.4326 11.6068 70.0379 11.003 69.8717 10.2085L71.2329 9.86876C71.3625 10.3711 71.6069 10.7476 71.9673 10.9994C72.3315 11.2499 72.808 11.3758 73.3946 11.3758C74.063 11.3758 74.5933 11.234 74.9868 10.9504C75.3839 10.6632 75.5818 10.3185 75.5818 9.91762C75.5818 9.59372 75.4682 9.32235 75.2421 9.10356C75.0149 8.87989 74.6666 8.71363 74.1974 8.60485L72.6418 8.24064C71.7877 8.03774 71.1596 7.72362 70.7588 7.29826C70.3617 6.86924 70.1637 6.33264 70.1637 5.6885C70.1637 5.16169 70.3116 4.69602 70.6061 4.29023C70.9067 3.88565 71.3136 3.56782 71.828 3.33681C72.3461 3.1058 72.9339 2.98969 73.5901 2.98969C74.5126 2.98969 75.2373 3.1926 75.7639 3.59717C76.2955 4.00297 76.6718 4.53709 76.8942 5.20202ZM85.8327 5.20202L84.5448 5.5663C84.4629 5.35118 84.3432 5.14336 84.1855 4.94046C84.0316 4.73389 83.8214 4.56403 83.5538 4.42958C83.2862 4.29635 82.944 4.22913 82.5274 4.22913C81.9567 4.22913 81.4802 4.3611 81.1001 4.62512C80.7226 4.88424 80.5344 5.21425 80.5344 5.61516C80.5344 5.97207 80.6639 6.25324 80.923 6.45981C81.1832 6.66638 81.5877 6.83868 82.1388 6.9768L83.5232 7.31662C84.3578 7.51952 84.9798 7.82874 85.3891 8.24676C85.7973 8.65989 86.0026 9.19281 86.0026 9.84429C86.0026 10.3796 85.8486 10.8575 85.5407 11.278C85.2364 11.6997 84.8112 12.0322 84.265 12.2754C83.7175 12.5187 83.0821 12.6396 82.3575 12.6396C81.4056 12.6396 80.6175 12.433 79.9943 12.0199C79.3699 11.6068 78.9752 11.003 78.809 10.2085L80.1702 9.86876C80.2998 10.3711 80.5454 10.7476 80.9058 10.9994C81.27 11.2499 81.7453 11.3758 82.3331 11.3758C83.0015 11.3758 83.5318 11.234 83.924 10.9504C84.3212 10.6632 84.5203 10.3185 84.5203 9.91762C84.5203 9.59372 84.4067 9.32235 84.1794 9.10356C83.9534 8.87989 83.6051 8.71363 83.1347 8.60485L81.5791 8.24064C80.725 8.03774 80.0969 7.72362 79.6961 7.29826C79.299 6.86924 79.101 6.33264 79.101 5.6885C79.101 5.16169 79.2489 4.69602 79.5446 4.29023C79.844 3.88565 80.2509 3.56782 80.7653 3.33681C81.2834 3.1058 81.8712 2.98969 82.5274 2.98969C83.4512 2.98969 84.1758 3.1926 84.7024 3.59717C85.2327 4.00297 85.6091 4.53709 85.8327 5.20202ZM90.9062 12.6641C90.3148 12.6641 89.7784 12.5529 89.2969 12.3304C88.8142 12.1031 88.4318 11.7767 88.1483 11.3513C87.8648 10.9223 87.7231 10.404 87.7231 9.79535C87.7231 9.26121 87.8281 8.82735 88.0383 8.49488C88.2497 8.15876 88.5308 7.89597 88.8827 7.70529C89.2358 7.51462 89.6244 7.37281 90.0496 7.27991C90.4785 7.18335 90.9099 7.10639 91.3437 7.04894C91.9106 6.97683 92.3701 6.92179 92.7232 6.88512C93.0788 6.84478 93.3379 6.77755 93.5004 6.68466C93.6666 6.59177 93.7497 6.42919 93.7497 
    6.19818V6.14931C93.7497 5.5504 93.5847 5.0847 93.2572 4.75224C92.9334 4.41978 92.441 4.25352 91.7811 4.25352C91.0968 4.25352 90.5604 4.40391 90.1706 4.70337C89.782 5.00283 89.5095 5.32308 89.3507 5.6641L87.9907 5.17762C88.2338 4.61048 88.5576 4.16918 88.9621 3.85261C89.3715 3.53237 89.8162 3.30992 90.2989 3.18402C90.7852 3.05446 91.263 2.98969 91.7322 2.98969C92.0316 2.98969 92.3762 3.02639 92.7648 3.09972C93.1582 3.16817 93.5371 3.31236 93.9012 3.53115C94.2702 3.74994 94.5757 4.08003 94.8189 4.52127C95.062 4.96251 95.183 5.55406 95.183 6.29598V12.4453H93.7497V11.1815H93.6764C93.5798 11.3844 93.4173 11.6007 93.19 11.8317C92.964 12.0627 92.6621 12.2595 92.2858 12.4208C91.9082 12.5834 91.4488 12.6641 90.9062 12.6641ZM91.1249 11.3758C91.6919 11.3758 92.1697 11.2646 92.5583 11.0421C92.9517 10.8184 93.2475 10.5312 93.4454 10.1792C93.6483 9.82594 93.7497 9.45562 93.7497 9.06693V7.75416C93.6886 7.8275 93.5554 7.8935 93.3489 7.95461C93.146 8.01084 92.9114 8.0622 92.6438 8.10621C92.3799 8.14654 92.1233 8.18317 91.8728 8.21617C91.6247 8.24428 91.4243 8.26875 91.2704 8.28831C90.8977 8.3372 90.5494 8.41669 90.2256 8.52547C89.9055 8.63059 89.6464 8.79064 89.4484 9.00576C89.2542 9.21599 89.1564 9.50452 89.1564 9.86876C89.1564 10.3675 89.3409 10.7439 89.7099 10.9994C90.0826 11.2499 90.5543 11.3758 91.1249 11.3758ZM101.566 16.1403C100.874 16.1403 100.278 16.0511 99.7799 15.8726C99.2826 15.6978 98.8672 15.468 98.5348 15.1795C98.2073 14.896 97.9458 14.5929 97.7515 14.2678L98.8928 13.4659C99.0223 13.6358 99.1873 13.8314 99.3853 14.0489C99.5844 14.2726 99.8557 14.4645 100.199 14.627C100.547 14.7933 101.003 14.8764 101.566 14.8764C102.319 14.8764 102.941 14.6931 103.431 14.3289C103.921 13.9646 104.167 13.3938 104.167 12.6152V10.7194H104.045C103.939 10.8893 103.79 11.1008 103.595 11.3513C103.405 11.5982 103.129 11.8195 102.769 12.0138C102.413 12.2045 101.931 12.2998 101.323 12.2998C100.571 12.2998 99.8936 12.1214 99.2948 11.7645C98.6985 11.4088 98.2269 10.8893 97.8786 10.2085C97.534 9.52891 97.3629 8.70148 97.3629 7.72976C97.3629 6.77394 97.5304 5.94153 97.8664 5.2326C98.2024 4.51879 98.6704 3.96873 99.2704 3.57882C99.8692 3.18647 100.562 2.98969 101.348 2.98969C101.955 2.98969 102.438 3.09116 102.793 3.29406C103.154 3.49207 103.43 3.71943 103.619 3.97488C103.814 4.22545 103.964 4.43204 104.069 4.5946H104.216V3.11196H105.6V12.713C105.6 13.5148 105.418 14.1675 105.054 14.6699C104.693 15.1759 104.207 15.5462 103.595 15.7809C102.988 16.0205 102.312 16.1403 101.566 16.1403ZM101.518 11.0116C102.093 11.0116 102.579 10.8796 102.975 10.6168C103.372 10.3528 103.674 9.97381 103.881 9.48001C104.087 8.9862 104.191 8.39466 104.191 7.70529C104.191 7.03304 104.09 6.43897 103.887 5.92439C103.684 5.41103 103.385 5.00773 102.988 4.71561C102.59 4.42348 102.1 4.27799 101.518 4.27799C100.91 4.27799 100.404 4.43199 99.9987 4.74C99.5979 5.04802 99.2961 5.4612 99.0932 5.97945C98.8953 6.49769 98.7963 7.07337 98.7963 7.70529C98.7963 8.3531 98.8977 8.92633 99.0993 9.42503C99.3058 9.91883 99.6101 10.3088 100.011 10.5923C100.417 10.871 100.919 11.0116 101.518 11.0116ZM112.136 12.6396C111.238 12.6396 110.462 12.4416 109.81 12.0444C109.162 11.6435 108.662 11.0837 108.309 10.3674C107.961 9.64625 107.787 8.80782 107.787 7.85077C107.787 6.89494 107.961 6.05272 108.309 5.32302C108.662 4.58965 109.152 4.01887 109.78 3.60941C110.412 3.19627 111.149 2.98969 111.991 2.98969C112.477 2.98969 112.957 3.0704 113.43 3.23296C113.904 3.39553 114.336 3.65831 114.724 4.02255C115.114 4.38313 115.423 4.86105 115.654 5.45753C115.885 6.05278 116 6.78609 116 7.65635V8.26511H108.808V7.02447H114.542C114.542 6.49767 114.437 6.02829 114.227 5.61516C114.02 5.20203 113.725 4.8757 113.34 4.63735C112.959 4.39778 112.509 4.27799 111.991 4.27799C111.42 4.27799 110.925 4.4198 110.509 4.70337C110.096 4.98328 109.778 5.34747 109.555 5.79727C109.332 6.24707 109.221 6.7287 109.221 7.24328V8.0695C109.221 8.77476 109.343 9.37251 109.585 9.86264C109.833 10.3491 110.175 10.7194 110.612 10.9749C111.05 11.2255 111.558 11.3513 112.136 11.3513C112.514 11.3513 112.854 11.2988 113.158 11.1937C113.466 11.0837 113.731 10.9223 113.953 10.7072C114.176 10.4884 114.348 10.2171 114.47 9.89315L115.855 10.2818C115.709 10.7524 115.464 11.1656 115.12 11.5213C114.776 11.8745 114.35 12.1495 113.845 12.3475C113.337 12.5431 112.769 12.6396 112.136 12.6396Z" fill="black"/>
</svg>