<svg width="32" height="27" viewBox="0 0 32 27" fill="none"
    xmlns="http://www.w3.org/2000/svg">
    <path d="M30.3547 2.86876C29.8675 2.66581 29.3309 2.61246 28.8132 2.71552C28.2956 2.81857 27.8203 3.07336 27.448 3.44743L24 6.89543L17.8853 0.780764C17.3853 0.280841 16.7071 0 16 0C15.2929 0 14.6147 0.280841 14.1147 0.780764L8 6.89543L4.552 3.44743C4.17906 3.07461 3.70396 2.82072 3.18675 2.71788C2.66954 2.61503 2.13345 2.66784 1.64625 2.86962C1.15906 3.07141 0.74262 3.41312 0.449596 3.85154C0.156571 4.28997 0.000112598 4.80543 0 5.33276L0 19.4474C0.00211714 21.2149 0.705176 22.9094 1.95496 24.1591C3.20474 25.4089 4.89921 26.112 6.66667 26.1141H25.3333C27.1008 26.112 28.7953 25.4089 30.045 24.1591C31.2948 22.9094 31.9979 21.2149 32 19.4474V5.33276C32.0001 4.80539 31.8439 4.28981 31.551 3.85123C31.2582 3.41265 30.8418 3.07075 30.3547 2.86876Z" fill="#007581"/>
</svg>