<svg width="25" height="25" viewBox="0 0 25 25" fill="none"
    xmlns="http://www.w3.org/2000/svg">
    <g clip-path="url(#clip0_0_378)">
        <path d="M18.4265 18.4275C18.5218 18.3322 18.6312 18.258 18.7453 18.1939L16.9671 16.415C16.8148 16.2627 16.5671 16.2627 16.4148 16.415C16.2625 16.5682 16.2625 16.815 16.4148 16.9682L18.189 18.7424C18.2562 18.6307 18.3312 18.5221 18.4265 18.4275Z" fill="white"/>
        <path d="M22.2656 24.2187C21.7445 24.2187 21.2539 24.0156 20.8844 23.6469L18.15 20.9125C17.7813 20.543 17.5781 20.0531 17.5781 19.5312C17.5781 19.0094 17.7813 18.5195 18.15 18.15C18.8578 17.4422 20.2039 17.4422 20.9117 18.15L23.6461 20.8844C24.0156 21.2539 24.2188 21.7437 24.2188 22.2656C24.2188 22.7875 24.0156 23.2773 23.6469 23.6469C23.2781 24.0164 22.7867 24.2187 22.2656 24.2187ZM19.5312 18.375C19.2133 18.375 18.9117 18.4938 18.7023 18.7031C18.4812 18.9242 18.3594 19.2187 18.3594 19.5312C18.3594 19.8437 18.4812 20.1383 18.7023 20.3602L21.4367 23.0945C21.8797 23.5367 22.6508 23.5367 23.0937 23.0945C23.3156 22.8727 23.4375 22.5781 23.4375 22.2656C23.4375 21.9531 23.3156 21.6586 23.0945 21.4367L20.3602 18.7023C20.1508 18.4937 19.8492 18.375 19.5312 18.375Z" fill="white"/>
        <path d="M10.1562 17.5393C9.94063 17.5393 9.76562 17.3643 9.76562 17.1486C9.76562 16.933 9.94063 16.758 10.1562 16.758C13.0992 16.758 15.6523 14.8799 16.5102 12.0854C16.5734 11.8791 16.7922 11.7611 16.9984 11.8268C17.2047 11.8901 17.3211 12.108 17.2578 12.3143C16.2977 15.4401 13.4445 17.5393 10.1562 17.5393Z" fill="white"/>
        <path d="M10.1562 19.5312C4.98672 19.5312 0.78125 15.3258 0.78125 10.1562C0.78125 4.98672 4.98672 0.78125 10.1562 0.78125C15.3258 0.78125 19.5312 4.98672 19.5312 10.1562C19.5312 15.3258 15.3258 19.5312 10.1562 19.5312ZM10.1562 1.5625C5.41797 1.5625 1.5625 5.41797 1.5625 10.1562C1.5625 14.8945 5.41797 18.75 10.1562 18.75C14.8945 18.75 18.75 14.8945 18.75 10.1562C18.75 5.41797 14.8945 1.5625 10.1562 1.5625Z" fill="white"/>
        <path d="M17.1875 10.5469C17.4032 10.5469 17.5781 10.372 17.5781 10.1562C17.5781 9.94051 17.4032 9.76562 17.1875 9.76562C16.9718 9.76562 16.7969 9.94051 16.7969 10.1562C16.7969 10.372 16.9718 10.5469 17.1875 10.5469Z" fill="white"/>
    </g>
    <defs>
        <clipPath id="clip0_0_378">
            <rect width="25" height="25" fill="white"/>
        </clipPath>
    </defs>
</svg>