<svg width="40" height="40" viewBox="0 0 40 40" fill="none" xmlns="http://www.w3.org/2000/svg"><path d="M13.0271 18.4044C13.0271 15.2769 16.2937 12.584 19.4212 12.584" stroke="white" stroke-width="0.7" stroke-miterlimit="10" stroke-linecap="round" stroke-linejoin="round"/><path d="M24.9747 28.6854C23.2904 29.6523 21.2971 30.1449 19.1819 29.9761C14.5129 29.6037 10.6436 25.9202 10.0703 21.2716C9.26518 14.7442 14.7627 9.25463 21.2924 10.0734C25.8259 10.6419 29.458 14.3484 29.9483 18.891C30.2125 21.3385 29.5894 23.6295 28.373 25.4826C28.3262 25.5539 28.3053 25.6383 28.3148 25.7231L28.7084 29.2005L25.2255 28.6388C25.1388 28.6248 25.0509 28.6416 24.9747 28.6854Z" stroke="white" stroke-width="0.7" stroke-miterlimit="10" stroke-linecap="round" stroke-linejoin="round"/><path d="M13.0271 20.1582C13.0271 20.1582 13.0112 20.7536 13.22 21.3491" stroke="white" stroke-width="0.7" stroke-miterlimit="10" stroke-linecap="round" stroke-linejoin="round"/></svg>