<svg width="24" height="24" viewBox="0 0 24 24" fill="none" xmlns="http://www.w3.org/2000/svg"><path fill-rule="evenodd" clip-rule="evenodd" d="M19 1.99998V3.00001C20.9527 3.00001 22.0301 3.92585 22 5.9433V19.5013C22 21.4386 20.4386 23 18.5013 23H5.49874C3.56142 23 2 21.4386 2 19.5013V5.9433C2 4.0349 3 3.00001 5 3.00001V1.99979C5 1.4475 5.44772 1.00001 6 1.00001C6.55228 1.00001 7 1.44772 7 2.00001V3.00001H17V2C17 1.44772 17.4477 1 18 1C18.5523 1 19 1.44769 19 1.99998ZM18.6699 21C19.4217 21 20 20.3928 20 19.6699V7.07817H4V19.6699C4 20.3928 4.60722 21 5.3301 21H18.6699ZM12.4562 9.01636C12.2795 8.62267 11.7205 8.62267 11.5438 9.01636L10.3141 11.7564C10.2414 11.9184 10.0882 12.0297 9.91165 12.0488L6.92571 12.3716C6.49669 12.418 6.32397 12.9496 6.64379 13.2393L8.86969 15.2556C9.00129 15.3748 9.05979 15.5549 9.02339 15.7287L8.40776 18.6682C8.3193 19.0906 8.77149 19.4191 9.14584 19.2045L11.7513 17.7106C11.9053 17.6223 12.0947 17.6223 12.2487 17.7106L14.8542 19.2045C15.2285 19.4191 15.6807 19.0906 15.5922 18.6682L14.9766 15.7287C14.9402 15.5549 14.9987 15.3748 15.1303 15.2556L17.3562 13.2393C17.676 12.9496 17.5033 12.418 17.0743 12.3716L14.0883 12.0488C13.9118 12.0297 13.7586 11.9184 13.6859 11.7564L12.4562 9.01636Z" fill="#8A898E"/></svg>