<svg width="14" height="14" viewBox="0 0 14 14" fill="none" xmlns="http://www.w3.org/2000/svg"><g clip-path="url(#clip0_0_311)"><path d="M3.0625 5.6875C3.17853 5.6875 3.28981 5.73359 3.37186 5.81564C3.45391 5.89769 3.5 6.00897 3.5 6.125V7C3.5 7.92826 3.86875 8.8185 4.52513 9.47487C5.1815 10.1313 6.07174 10.5 7 10.5C7.92826 10.5 8.8185 10.1313 9.47487 9.47487C10.1313 8.8185 10.5 7.92826 10.5 7V6.125C10.5 6.00897 10.5461 5.89769 10.6281 5.81564C10.7102 5.73359 10.8215 5.6875 10.9375 5.6875C11.0535 5.6875 11.1648 5.73359 11.2469 5.81564C11.3289 5.89769 11.375 6.00897 11.375 6.125V7C11.375 8.08459 10.9722 9.13052 10.2446 9.93487C9.51705 10.7392 8.51665 11.2447 7.4375 11.3531V13.125H10.0625C10.1785 13.125 10.2898 13.1711 10.3719 13.2531C10.4539 13.3352 10.5 13.4465 10.5 13.5625C10.5 13.6785 10.4539 13.7898 10.3719 13.8719C10.2898 13.9539 10.1785 14 10.0625 14H3.9375C3.82147 14 3.71019 13.9539 3.62814 13.8719C3.54609 13.7898 3.5 13.6785 3.5 13.5625C3.5 13.4465 3.54609 13.3352 3.62814 13.2531C3.71019 13.1711 3.82147 13.125 3.9375 13.125H6.5625V11.3531C5.48335 11.2447 4.48295 10.7392 3.75539 9.93487C3.02784 9.13052 2.62499 8.08459 2.625 7V6.125C2.625 6.00897 2.67109 5.89769 2.75314 5.81564C2.83519 5.73359 2.94647 5.6875 3.0625 5.6875Z" fill="#A2A1A1"/><path d="M8.75 7C8.75 7.46413 8.56563 7.90925 8.23744 8.23744C7.90925 8.56563 7.46413 8.75 7 8.75C6.53587 8.75 6.09075 8.56563 5.76256 8.23744C5.43437 7.90925 5.25 7.46413 5.25 7V2.625C5.25 2.16087 5.43437 1.71575 5.76256 1.38756C6.09075 1.05937 6.53587 0.875 7 0.875C7.46413 0.875 7.90925 1.05937 8.23744 1.38756C8.56563 1.71575 8.75 2.16087 8.75 2.625V7ZM7 0C6.30381 0 5.63613 0.276562 5.14384 0.768845C4.65156 1.26113 4.375 1.92881 4.375 2.625V7C4.375 7.69619 4.65156 8.36387 5.14384 8.85616C5.63613 9.34844 6.30381 9.625 7 9.625C7.69619 9.625 8.36387 9.34844 8.85616 8.85616C9.34844 8.36387 9.625 7.69619 9.625 7V2.625C9.625 1.92881 9.34844 1.26113 8.85616 0.768845C8.36387 0.276562 7.69619 0 7 0Z" fill="#A2A1A1"/></g><defs><clipPath id="clip0_0_311"><rect width="14" height="14" fill="white"/></clipPath></defs></svg>