<svg width="134" height="134" viewBox="0 0 134 134" fill="none"
    xmlns="http://www.w3.org/2000/svg">
    <g opacity="0.3">
        <path d="M105.525 33.7784L88.7748 17.0284C88.7748 17.0284 88.2165 16.7493 87.9373 16.7493H50.2499C47.179 16.7493 44.6665 19.2618 44.6665 22.3326V94.9158C44.6665 97.9866 47.179 100.499 50.2499 100.499H100.5C103.571 100.499 106.083 97.9866 106.083 94.9158V34.8951C106.083 34.6159 105.804 34.0576 105.525 33.7784ZM92.1248 85.145C92.1248 85.9825 91.5665 86.5408 90.729 86.5408H65.604C64.7665 86.5408 64.2082 85.9825 64.2082 85.145V75.3742H57.229C56.3915 75.3742 55.8332 74.8158 55.8332 73.9783V51.645C55.8332 50.8075 56.3915 50.2492 57.229 50.2492H82.354C83.1915 50.2492 83.7498 50.8075 83.7498 51.645V61.4159H90.729C91.5665 61.4159 92.1248 61.9742 92.1248 62.8117V85.145ZM92.4039 33.4992C90.729 33.4992 89.3331 32.1034 89.3331 30.4284V21.4951L101.337 33.4992H92.4039Z" fill="#147469"/>
    </g>
    <path d="M61.6575 52.9475L50.197 41.487C49.9678 41.2578 49.7386 41.2578 49.2802 41.2578H25.2131C22.6918 41.2578 20.6289 43.3207 20.6289 45.842V91.684C20.6289 94.2054 22.6918 96.2682 25.2131 96.2682H57.3025C59.8238 96.2682 61.8867 94.2054 61.8867 91.684V53.8644C61.8867 53.6352 61.6575 53.1767 61.6575 52.9475ZM50.4262 45.1544L57.9902 52.7183H52.7183C51.3431 52.7183 50.4262 51.8015 50.4262 50.4262V45.1544ZM57.3025 93.9761H25.2131C23.8379 93.9761 22.921 93.0593 22.921 91.684V45.842C22.921 44.4668 23.8379 43.5499 25.2131 43.5499H48.1341V50.4262C48.1341 52.9475 50.197 55.0104 52.7183 55.0104H59.5946V91.684C59.5946 93.0593 58.6778 93.9761 57.3025 93.9761Z" fill="#147469"/>
    <path d="M51.5723 68.763H48.1341V63.0328C48.1341 62.3451 47.6757 61.8867 46.9881 61.8867H30.9434C30.2558 61.8867 29.7973 62.3451 29.7973 63.0328V76.7854C29.7973 77.473 30.2558 77.9314 30.9434 77.9314H34.3815V83.6617C34.3815 84.3493 34.84 84.8077 35.5276 84.8077H51.5723C52.2599 84.8077 52.7183 84.3493 52.7183 83.6617V69.9091C52.7183 69.2214 52.2599 68.763 51.5723 68.763ZM34.3815 69.9091V75.6393H32.0894V64.1788H45.842V68.763H35.5276C34.84 68.763 34.3815 69.2214 34.3815 69.9091ZM50.4262 82.5156H36.6736V71.0551H50.4262V82.5156Z" fill="#147469"/>
</svg>