<svg width="50" height="52" viewBox="0 0 50 52" fill="none" xmlns="http://www.w3.org/2000/svg"><path d="M17.8016 48.4303C17.5319 48.4307 17.2643 48.3824 17.011 48.2875C12.312 46.5533 8.2781 43.3172 5.50179 39.0543C2.72548 34.7915 1.35303 29.7267 1.58597 24.6035C1.59733 24.3927 1.6891 24.195 1.84141 24.0532C1.99371 23.9115 2.19428 23.8371 2.39963 23.8461C2.60498 23.8552 2.79858 23.9471 2.93846 24.1017C3.07834 24.2564 3.15324 24.4615 3.14691 24.6725C2.92942 29.4539 4.2104 34.181 6.8017 38.1593C9.393 42.1376 13.158 45.1576 17.5438 46.7756C17.6608 46.8199 17.7866 46.8338 17.91 46.8162C18.0335 46.7985 18.1508 46.7499 18.2516 46.6745C18.3571 46.6 18.4432 46.5 18.5023 46.3833C18.5614 46.2666 18.5918 46.1368 18.5907 46.0053L18.5782 43.4807C12.4422 44.3811 10.9891 39.669 10.9735 39.6193C10.111 37.3643 8.8766 36.6983 8.8641 36.6919C8.32972 36.3243 7.30785 35.6069 7.59847 34.6664C7.85941 33.819 8.92973 33.7629 9.37348 33.7484C12.086 33.9442 13.461 36.4656 13.5172 36.5731C15.011 39.21 17.2891 38.8938 18.7282 38.3289C18.8688 37.6035 19.1016 36.9438 19.4141 36.3773C14.9266 35.5973 9.7641 33.2108 9.7641 24.2312C9.7641 21.774 10.5125 19.609 11.9891 17.7858C11.6641 16.7041 11.2578 14.3962 12.3703 11.4865C12.4128 11.3757 12.4787 11.2761 12.5633 11.1948C12.6479 11.1134 12.749 11.0524 12.8594 11.0162C13.0844 10.9408 15.161 10.3839 19.4688 13.3048C21.2757 12.8299 23.1333 12.5883 24.9985 12.5858C26.9266 12.5955 28.7844 12.8378 30.5344 13.3048C34.8407 10.3839 36.9094 10.9408 37.1375 11.0162C37.2475 11.0525 37.3482 11.1133 37.4325 11.1943C37.5168 11.2754 37.5825 11.3746 37.625 11.4848C38.7422 14.3946 38.3375 16.7025 38.011 17.7874C39.486 19.6058 40.2328 21.7708 40.2328 24.2328C40.2328 33.2124 35.0641 35.5925 30.5688 36.3645C31.1219 37.3643 31.4266 38.6531 31.4266 40.0879C31.4266 41.7137 31.4188 44.044 31.411 46.0133C31.4102 46.1438 31.4402 46.2725 31.4985 46.3884C31.5567 46.5044 31.6415 46.6041 31.7455 46.679C31.8495 46.754 31.9696 46.8019 32.0956 46.8187C32.2215 46.8356 32.3496 46.8208 32.4688 46.7756C41.086 43.5594 46.875 35.0805 46.875 25.6788C46.875 19.479 44.4688 13.7061 40.1016 9.42251C35.736 5.14217 30.0047 2.94341 23.9516 3.23551C23.8489 3.24134 23.7461 3.22612 23.6492 3.19073C23.5523 3.15535 23.4632 3.1005 23.3872 3.0294C23.3111 2.9583 23.2496 2.87235 23.2062 2.77658C23.1628 2.68081 23.1384 2.57712 23.1344 2.47156C23.1296 2.36629 23.145 2.26106 23.1797 2.1619C23.2145 2.06274 23.268 1.97158 23.337 1.89363C23.4061 1.81569 23.4894 1.75248 23.5823 1.70762C23.6751 1.66276 23.7757 1.63713 23.8782 1.63219C30.3657 1.32725 36.5032 3.67687 41.1797 8.26215C43.4831 10.5024 45.3154 13.2035 46.5636 16.1989C47.8119 19.1943 48.4496 22.4206 48.4375 25.6788C48.4375 35.753 42.2344 44.8369 33.0032 48.2827C32.6476 48.4151 32.2662 48.4575 31.8913 48.4062C31.5164 48.3549 31.1591 48.2115 30.8496 47.9882C30.5402 47.7649 30.2877 47.4681 30.1137 47.1232C29.9397 46.7783 29.8493 46.3954 29.85 46.0069C29.8579 44.0392 29.8657 41.7121 29.8657 40.0879C29.8657 37.7463 28.9797 36.7063 28.5985 36.3693C28.4836 36.2672 28.4002 36.133 28.3585 35.9831C28.3167 35.8331 28.3184 35.6739 28.3633 35.5249C28.4082 35.376 28.4944 35.2437 28.6114 35.1442C28.7284 35.0447 28.871 34.9825 29.0219 34.965C33.7938 34.4193 38.6719 32.7165 38.6719 24.2344C38.6719 22.0196 37.9563 20.0905 36.5469 18.5064C36.4472 18.3944 36.3805 18.2556 36.3545 18.1062C36.3285 17.9567 36.3443 17.8028 36.4 17.6622C36.6172 17.1165 37.2188 15.1954 36.3344 12.5297C35.6735 12.5489 33.986 12.833 31.1157 14.8408C31.0218 14.907 30.9149 14.9511 30.8025 14.9699C30.6902 14.9888 30.5751 14.982 30.4657 14.9499C28.6834 14.4529 26.8453 14.1982 24.9985 14.1924C23.1539 14.1938 21.3179 14.4486 19.5391 14.9499C19.4296 14.9822 19.3146 14.9891 19.2022 14.9703C19.0898 14.9514 18.9829 14.9072 18.8891 14.8408C16.0297 12.8426 14.3422 12.5505 13.661 12.5329C12.7813 15.1987 13.3844 17.1149 13.6 17.6622C13.6555 17.8026 13.6711 17.9562 13.6451 18.1053C13.6191 18.2544 13.5526 18.3929 13.4532 18.5048C12.0407 20.0953 11.325 22.0228 11.325 24.2344C11.325 32.7116 16.1922 34.4257 20.9532 34.9826C21.1036 34.9998 21.246 35.0615 21.3629 35.1604C21.4797 35.2592 21.566 35.3909 21.6113 35.5393C21.6565 35.6877 21.6587 35.8464 21.6176 35.9961C21.5765 36.1458 21.4938 36.2799 21.3797 36.3821C21.0297 36.6983 20.4094 37.4606 20.1985 39.0142C20.1806 39.1486 20.1295 39.276 20.0502 39.3844C19.9709 39.4928 19.866 39.5786 19.7453 39.6337C18.5735 40.1762 14.5641 41.619 12.1547 37.3659C12.1375 37.3354 11.3344 35.8878 9.89848 35.4625C10.4079 35.8124 11.5813 36.8299 12.4469 39.0977C12.5141 39.3111 13.7094 42.9639 19.186 41.7394C19.2996 41.7138 19.4174 41.7146 19.5307 41.7418C19.644 41.7689 19.75 41.8217 19.8409 41.8963C19.9317 41.9709 20.0053 42.0654 20.0561 42.1729C20.1068 42.2804 20.1336 42.3983 20.1344 42.5178L20.1516 46.0005C20.1526 46.3185 20.0927 46.6336 19.9751 46.9279C19.8576 47.2221 19.6848 47.4897 19.4665 47.7153C19.2483 47.9409 18.989 48.1202 18.7033 48.2429C18.4176 48.3656 18.1112 48.4293 17.8016 48.4303Z" fill="#007581"/><path d="M24.5891 49.7529C11.6781 49.7529 1.5625 39.178 1.5625 25.6789C1.5625 19.8546 3.49688 14.2663 7.00781 9.94419C7.14063 9.78074 7.33122 9.67818 7.53765 9.65907C7.74409 9.63995 7.94946 9.70586 8.10859 9.84228C8.26772 9.9787 8.36757 10.1745 8.38618 10.3865C8.40479 10.5986 8.34063 10.8095 8.20781 10.973C4.92969 15.0061 3.125 20.2286 3.125 25.6789C3.125 38.2792 12.5531 48.1479 24.5891 48.1479C36.8781 48.1479 46.875 38.069 46.875 25.6789C46.875 13.2889 36.8781 3.20991 24.5891 3.20991C20.775 3.20991 17.0703 4.20497 13.8734 6.08594C13.6941 6.18108 13.486 6.2014 13.2924 6.14266C13.0989 6.08393 12.9349 5.95068 12.8347 5.77073C12.7345 5.59078 12.7058 5.37803 12.7547 5.17689C12.8035 4.97576 12.9261 4.80177 13.0969 4.69126C16.5297 2.67226 20.5047 1.60498 24.5891 1.60498C37.7391 1.60498 48.4375 12.4045 48.4375 25.6789C48.4375 38.9533 37.7391 49.7529 24.5891 49.7529Z" fill="#007581"/><path d="M11.7859 7.30564C11.7859 7.74699 11.4343 8.1081 11.0046 8.1081C10.7976 8.10768 10.5991 8.023 10.4527 7.8726C10.3062 7.7222 10.2238 7.51833 10.2234 7.30564C10.2234 7.09281 10.3057 6.8887 10.4522 6.73821C10.5987 6.58772 10.7974 6.50317 11.0046 6.50317C11.2118 6.50317 11.4106 6.58772 11.5571 6.73821C11.7036 6.8887 11.7859 7.09281 11.7859 7.30564Z" fill="#007581"/></svg>