<svg width="48" height="48" viewBox="0 0 48 48" fill="none" xmlns="http://www.w3.org/2000/svg"><path d="M24 11.6185C26.47 17.1238 30.8762 21.53 36.3815 24C30.8762 26.4701 26.47 30.8763 24 36.3815C21.53 30.8763 17.1238 26.4701 11.6185 24C17.1238 21.53 21.53 17.1238 24 11.6185ZM24 2.01583e-05C24.1185 3.18357 23.5787 6.35732 22.4145 9.32273C21.2503 12.2881 19.4867 14.9814 17.2341 17.2341C14.9814 19.4867 12.2881 21.2503 9.3227 22.4145C6.35729 23.5787 3.18355 24.1185 0 24C3.18355 23.8816 6.35729 24.4214 9.3227 25.5856C12.2881 26.7498 14.9814 28.5134 17.2341 30.766C19.4867 33.0187 21.2503 35.712 22.4145 38.6774C23.5787 41.6428 24.1185 44.8165 24 48.0001C23.8816 44.8165 24.4213 41.6428 25.5855 38.6774C26.7497 35.712 28.5133 33.0187 30.766 30.766C33.0187 28.5133 35.7119 26.7497 38.6773 25.5855C41.6428 24.4214 44.8165 23.8816 48.0001 24C44.8165 24.1185 41.6428 23.5787 38.6773 22.4145C35.7119 21.2503 33.0186 19.4868 30.766 17.2341C28.5133 14.9814 26.7497 12.2881 25.5855 9.32272C24.4213 6.3573 23.8816 3.18357 24 2.01583e-05Z" fill="white"/></svg>