<svg width="30" height="44" viewBox="0 0 30 44" fill="none" xmlns="http://www.w3.org/2000/svg"><path d="M20.4169 1.83893C22.2675 3.4684 23.6514 5.54187 23.9684 8.10607C24.0328 9.06477 24.0219 10.0278 24.0186 10.9884C24.0177 11.3629 24.0185 11.7375 24.0191 12.112C24.0198 12.7405 24.0189 13.369 24.0171 13.9975C24.0151 14.7196 24.0158 15.4416 24.0178 16.1637C24.0195 16.7885 24.0197 17.4134 24.0188 18.0383C24.0182 18.4093 24.0181 18.7803 24.0194 19.1514C24.028 22.1098 24.028 22.1098 23.5946 23.4802C23.5553 23.6048 23.5553 23.6048 23.5152 23.732C22.6987 26.0734 20.9917 27.9174 18.8894 29.0316C16.7202 30.0716 14.1599 30.2376 11.9064 29.3803C9.53449 28.4395 7.70815 26.6022 6.65477 24.1901C6.00091 22.4491 5.96745 20.7804 5.97369 18.9332C5.97465 18.5586 5.97375 18.184 5.97317 17.8095C5.97249 17.181 5.97337 16.5525 5.97517 15.924C5.9772 15.202 5.97654 14.4799 5.97448 13.7578C5.97277 13.133 5.97255 12.5081 5.97353 11.8833C5.9741 11.5122 5.9742 11.1412 5.97295 10.7701C5.96432 7.81172 5.96432 7.81172 6.39775 6.44136C6.42393 6.35826 6.45012 6.27515 6.4771 6.18953C7.29356 3.84813 9.00055 2.00416 11.1029 0.889906C14.0889 -0.541648 17.7697 -0.260663 20.4169 1.83893ZM11.0708 4.77665C11.0038 4.83586 10.9368 4.89506 10.8678 4.95605C9.55055 6.22656 9.07593 7.93028 9.00401 9.74572C8.98636 10.4884 8.98844 11.2312 8.98983 11.9741C8.9897 12.214 8.98952 12.4539 8.98929 12.6938C8.98901 13.1942 8.98941 13.6946 8.99028 14.195C8.99135 14.8323 8.99073 15.4697 8.98962 16.1071C8.98894 16.6017 8.98916 17.0964 8.98964 17.5911C8.98976 17.8259 8.98962 18.0608 8.98918 18.2956C8.98548 20.8275 9.05739 22.9811 10.8324 24.9031C12.0455 26.1004 13.4367 26.6602 15.0896 26.7117C16.8402 26.6565 18.2766 25.8916 19.4706 24.5635C21.056 22.6169 21.007 20.3748 21.0025 17.9475C21.0026 17.7076 21.0028 17.4676 21.003 17.2277C21.0033 16.7274 21.0029 16.227 21.002 15.7266C21.001 15.0892 21.0016 14.4518 21.0027 13.8145C21.0034 13.3198 21.0031 12.8251 21.0027 12.3305C21.0025 12.0956 21.0027 11.8608 21.0031 11.6259C21.0066 9.21407 20.9544 7.18242 19.3888 5.26627C19.3371 5.20114 19.2854 5.136 19.2322 5.0689C18.1684 3.84086 16.6378 3.31248 15.1023 3.21608C13.5913 3.16903 12.2115 3.76458 11.0708 4.77665Z" fill="white"/><path d="M2.09862 18.8783C2.53641 19.0912 2.84164 19.391 3.03323 19.8575C3.11119 20.2914 3.14103 20.7274 3.17343 21.1672C3.26542 22.2049 3.38308 23.1725 3.68746 24.1662C3.70659 24.2291 3.72571 24.292 3.74542 24.3569C4.23684 25.9377 5.01833 27.2949 6.02398 28.5728C6.10729 28.6826 6.10729 28.6826 6.19229 28.7946C6.6336 29.3552 7.15955 29.794 7.70628 30.2375C7.78616 30.3042 7.86603 30.371 7.94833 30.4398C10.3921 32.4074 13.5571 33.1287 16.5778 32.7563C18.8994 32.432 20.9567 31.3981 22.7535 29.8458C22.8234 29.7876 22.8932 29.7294 22.9652 29.6694C23.5003 29.207 23.9191 28.656 24.3423 28.0831C24.4061 27.9994 24.4698 27.9158 24.5354 27.8295C26.068 25.7398 26.7464 23.1383 26.879 20.5408C26.922 19.8816 27.1011 19.5008 27.5667 19.0374C28.0494 18.8026 28.492 18.8045 29.0154 18.8783C29.4505 19.09 29.7603 19.3918 29.95 19.8575C30.0058 20.2337 30.0031 20.6036 29.9967 20.9836C29.9955 21.0919 29.9943 21.2002 29.9931 21.3117C29.9252 24.2619 28.9462 27.1443 27.3331 29.552C27.2664 29.653 27.1998 29.754 27.1312 29.858C24.7684 33.2551 21.3757 35.2613 17.4904 36.0804C17.1598 36.1232 16.8247 36.1129 16.4916 36.1129C16.4916 37.664 16.4916 39.2152 16.4916 40.8133C17.3891 40.7978 17.3891 40.7978 18.2866 40.778C18.399 40.777 18.5115 40.776 18.6273 40.775C18.7419 40.773 18.8564 40.7709 18.9744 40.7688C19.4626 40.8364 19.7455 41.0829 20.0782 41.4498C20.3023 41.9556 20.3005 42.4193 20.23 42.9676C20.0145 43.4541 19.7402 43.6909 19.2954 43.9468C19.0134 44.0017 18.7376 44.0005 18.4514 43.9975C18.3268 43.9986 18.3268 43.9986 18.1997 43.9996C17.9263 44.0013 17.6529 44.0002 17.3795 43.9989C17.1888 43.9991 16.9982 43.9995 16.8076 44C16.4085 44.0006 16.0094 43.9997 15.6103 43.9979C15.0993 43.9957 14.5883 43.997 14.0773 43.9993C13.6838 44.0007 13.2903 44.0003 12.8968 43.9993C12.7084 43.999 12.52 43.9993 12.3316 44.0002C12.068 44.0012 11.8046 43.9997 11.5411 43.9975C11.4636 43.9983 11.3861 43.9991 11.3062 43.9999C10.8101 43.9924 10.5319 43.8959 10.1363 43.5552C9.79715 43.1812 9.73345 42.8812 9.71569 42.3801C9.73345 41.879 9.79715 41.579 10.1363 41.205C10.5592 40.8553 10.8286 40.7654 11.3651 40.775C11.5338 40.7765 11.5338 40.7765 11.7059 40.778C11.8472 40.7816 11.9884 40.7851 12.134 40.7888C12.5851 40.7969 13.0361 40.805 13.5009 40.8133C13.5009 39.2622 13.5009 37.711 13.5009 36.1129C13.2541 36.1129 13.0074 36.1129 12.7532 36.1129C9.42231 35.6816 6.46853 33.9006 4.15476 31.4126C4.10489 31.3659 4.05501 31.3191 4.00362 31.271C1.96787 29.2974 0.795598 26.3719 0.229407 23.5786C0.197782 23.433 0.197782 23.433 0.165518 23.2845C0.0285887 22.5414 0.017543 21.7932 0.00743717 21.0387C0.00499751 20.9319 0.00255785 20.825 4.42671e-05 20.7149C-0.00122105 20.1024 0.0220057 19.7338 0.416329 19.27C0.908992 18.7796 1.4545 18.7874 2.09862 18.8783Z" fill="white"/></svg>