<svg width="200" height="14" viewBox="0 0 200 14" fill="none"
    xmlns="http://www.w3.org/2000/svg">
    <path d="M4.14833 11.0506C3.45204 11.0506 2.85871 11.0162 2.36836 10.9476C1.88782 10.8789 1.49064 10.7465 1.17682 10.5503C0.872806 10.3541 0.632539 10.0647 0.456015 9.68213C0.289297 9.29956 0.171621 8.79927 0.102972 8.18126C0.0343238 7.56325 0 6.79319 0 5.87108C0 4.94897 0.0343238 4.17891 0.102972 3.5609C0.171621 2.94289 0.294211 2.4426 0.470736 2.06002C0.64726 1.67744 0.892422 1.38805 1.20624 1.19186C1.52007 0.995662 1.91725 0.863226 2.39778 0.794558C2.87832 0.72589 3.46185 0.691576 4.14833 0.691576C4.48177 0.691576 4.83481 0.706266 5.20748 0.735695C5.58995 0.755314 5.9528 0.784769 6.29605 0.824008C6.6491 0.863247 6.95311 0.907392 7.20809 0.956441V1.42727C6.92369 1.37822 6.61967 1.33901 6.29605 1.30958C5.97242 1.27034 5.65859 1.24089 5.35458 1.22127C5.06037 1.20165 4.8054 1.19186 4.58964 1.19186C3.93258 1.19186 3.36868 1.21148 2.89794 1.25072C2.42721 1.28015 2.03493 1.36844 1.7211 1.51558C1.41709 1.65292 1.17682 1.88834 1.0003 2.22187C0.833581 2.55539 0.710991 3.01644 0.632536 3.60502C0.563887 4.18379 0.529563 4.93916 0.529563 5.87108C0.529563 6.68528 0.549182 7.37195 0.58841 7.9311C0.637445 8.49025 0.730607 8.9415 0.867904 9.28484C1.0052 9.62817 1.20625 9.89301 1.47103 10.0794C1.73582 10.2658 2.08397 10.3933 2.51548 10.462C2.94698 10.5208 3.48635 10.5503 4.13361 10.5503C4.36898 10.5503 4.64357 10.5405 4.95739 10.5208C5.28102 10.5012 5.59976 10.4816 5.91358 10.462C6.23721 10.4326 6.50688 10.4031 6.72264 10.3737V6.29779H3.86882V5.79751H7.25222V10.8004C6.9384 10.8495 6.59516 10.8936 6.2225 10.9329C5.85964 10.9721 5.49678 11.0015 5.13393 11.0211C4.77107 11.0407 4.44254 11.0506 4.14833 11.0506ZM9.89396 10.9329V3.42847H10.2911L10.35 5.03232H10.4088C10.5265 4.56146 10.7079 4.20344 10.9531 3.9582C11.2081 3.70314 11.5072 3.53146 11.8504 3.44317C12.2035 3.35488 12.586 3.31074 12.9978 3.31074V3.84047C12.2819 3.84047 11.7377 3.96801 11.365 4.22306C10.9923 4.47811 10.7374 4.85086 10.6001 5.34135C10.4726 5.83183 10.4088 6.42531 10.4088 7.1218V10.9329H9.89396ZM17.3521 11.0506C16.7931 11.0506 16.3224 11.0162 15.9399 10.9476C15.5673 10.8789 15.2633 10.7612 15.0279 10.5944C14.7925 10.4178 14.6111 10.1824 14.4836 9.88814C14.3659 9.59385 14.2825 9.22595 14.2335 8.78452C14.1943 8.34308 14.1747 7.81337 14.1747 7.19537C14.1747 6.45964 14.1992 5.84654 14.2482 5.35605C14.2973 4.85576 14.4199 4.45849 14.616 4.1642C14.8121 3.8601 15.1309 3.64427 15.5722 3.51674C16.0135 3.37941 16.6215 3.31074 17.3962 3.31074C17.9356 3.31074 18.3769 3.34999 18.7202 3.42847C19.0732 3.50694 19.3478 3.63445 19.544 3.81102C19.7499 3.97778 19.9019 4.21324 20 4.51734C20.0981 4.81163 20.1618 5.17948 20.1912 5.62092C20.2206 6.05254 20.2354 6.56756 20.2354 7.16595V7.35725H14.6895C14.6895 8.00469 14.719 8.53929 14.7778 8.96111C14.8366 9.38292 14.9543 9.71157 15.1309 9.947C15.3074 10.1824 15.5771 10.3492 15.9399 10.4473C16.3126 10.5356 16.8078 10.5797 17.4257 10.5797C17.6905 10.5797 17.9749 10.5699 18.2789 10.5503C18.5829 10.5306 18.8771 10.5061 19.1615 10.4767C19.4557 10.4473 19.7156 10.4129 19.9411 10.3737V10.8593C19.7548 10.8985 19.5146 10.9328 19.2203 10.9623C18.9359 10.9917 18.6319 11.0113 18.3083 11.0211C17.9847 11.0407 17.6659 11.0506 17.3521 11.0506ZM19.7205 7.18066V6.57736C19.7205 5.94954 19.6813 5.44925 19.6028 5.07648C19.5342 4.70371 19.4116 4.42415 19.235 4.23777C19.0585 4.05138 18.8134 3.92874 18.4995 3.86988C18.1955 3.81102 17.813 3.78161 17.3521 3.78161C16.7539 3.78161 16.2734 3.82086 15.9105 3.89933C15.5575 3.968 15.2927 4.11023 15.1161 4.32604C14.9396 4.54186 14.8219 4.85577 14.7631 5.26778C14.7141 5.66997 14.6895 6.20951 14.6895 6.88638H20.0147L19.7205 7.18066ZM24.7 11.0506C24.0821 11.0506 23.5722 10.9966 23.1701 10.8887C22.768 10.7808 22.4689 10.5748 22.2727 10.2707C22.0864 9.95678 21.9932 9.50063 21.9932 8.90224C21.9932 8.3529 22.057 7.92618 22.1845 7.62208C22.312 7.30817 22.5375 7.08748 22.8612 6.95995C23.1848 6.83242 23.6359 6.76865 24.2145 6.76865C24.3322 6.76865 24.5136 6.77355 24.7588 6.78336C25.004 6.78336 25.2835 6.78826 25.5973 6.79807C25.9209 6.80788 26.2446 6.81771 26.5682 6.82752C26.9016 6.82752 27.2105 6.83241 27.4949 6.84222V6.16535C27.4949 5.61601 27.4606 5.18439 27.392 4.87048C27.3331 4.54676 27.2105 4.30641 27.0242 4.14945C26.8477 3.9925 26.5878 3.89441 26.2445 3.85518C25.9013 3.80613 25.4551 3.78161 24.9059 3.78161C24.6803 3.78161 24.4155 3.7914 24.1115 3.81102C23.8173 3.83064 23.528 3.8552 23.2436 3.88463C22.9592 3.90425 22.719 3.93366 22.5228 3.9729V3.48733C22.817 3.43828 23.1897 3.39903 23.6408 3.3696C24.0919 3.33036 24.5823 3.31074 25.1119 3.31074C25.5924 3.31074 25.9994 3.33526 26.3328 3.38431C26.6761 3.43336 26.9555 3.51675 27.1713 3.63447C27.3969 3.75218 27.5685 3.91893 27.6862 4.13475C27.8038 4.34075 27.8872 4.60562 27.9362 4.92934C27.9853 5.24325 28.0098 5.62583 28.0098 6.07708V10.9329H27.5979L27.5538 9.71155H27.4949C27.3576 10.1137 27.1321 10.4129 26.8183 10.6091C26.5142 10.7955 26.171 10.9132 25.7885 10.9623C25.4159 11.0211 25.053 11.0506 24.7 11.0506ZM24.6852 10.5797C25.0285 10.5797 25.3619 10.565 25.6856 10.5356C26.019 10.4963 26.3132 10.4179 26.5682 10.3001C26.8232 10.1726 27.0144 9.97151 27.1419 9.69684C27.2792 9.40255 27.3723 9.11316 27.4214 8.82867C27.4704 8.53439 27.4949 8.20578 27.4949 7.84282V7.23952H24.3616C23.8713 7.23952 23.4888 7.27877 23.2142 7.35725C22.9494 7.43573 22.7631 7.59265 22.6552 7.82808C22.5572 8.06351 22.5081 8.42157 22.5081 8.90224C22.5081 9.35349 22.567 9.70176 22.6846 9.947C22.8023 10.1922 23.0181 10.359 23.3319 10.4473C23.6457 10.5356 24.0968 10.5797 24.6852 10.5797ZM31.148 10.9329V3.89933H29.5593V3.42847H31.148V1.25072H31.6629V3.42847H33.5164V3.89933H31.6629V10.9329H31.148ZM34.9151 8.38726C34.9053 7.95563 34.8955 7.5338 34.8857 7.1218C34.8857 6.69998 34.8808 6.29288 34.871 5.90049C34.8612 5.49829 34.8513 5.12061 34.8415 4.76746C34.8415 4.41431 34.8415 4.08571 34.8415 3.78161C34.8415 3.47751 34.8415 3.20774 34.8415 2.9723V0.809264H35.4005V2.9723C35.4005 3.20774 35.4005 3.47751 35.4005 3.78161C35.4005 4.08571 35.3956 4.41431 35.3858 4.76746C35.3858 5.12061 35.3809 5.49829 35.3711 5.90049C35.3613 6.29288 35.3515 6.69998 35.3417 7.1218C35.3417 7.5338 35.3368 7.95563 35.327 8.38726H34.9151ZM34.768 10.9329V9.97641H35.4741V10.9329H34.768ZM40.9745 10.9329V0.809264H41.5041V10.4326H46.6527V10.9329H40.9745ZM51.1554 11.0506C50.5964 11.0506 50.1256 11.0162 49.7432 10.9476C49.3705 10.8789 49.0665 10.7612 48.8311 10.5944C48.5957 10.4178 48.4143 10.1824 48.2868 9.88814C48.1692 9.59385 48.0858 9.22595 48.0368 8.78452C47.9975 8.34308 47.9779 7.81337 47.9779 7.19537C47.9779 6.45964 48.0024 5.84654 48.0515 5.35605C48.1005 4.85576 48.2231 4.45849 48.4192 4.1642C48.6154 3.8601 48.9341 3.64427 49.3754 3.51674C49.8167 3.37941 50.4247 3.31074 51.1995 3.31074C51.7389 3.31074 52.1802 3.34999 52.5234 3.42847C52.8765 3.50694 53.1511 3.63445 53.3472 3.81102C53.5532 3.97778 53.7052 4.21324 53.8032 4.51734C53.9013 4.81163 53.965 5.17948 53.9945 5.62092C54.0239 6.05254 54.0386 6.56756 54.0386 7.16595V7.35725H48.4928C48.4928 8.00469 48.5222 8.53929 48.581 8.96111C48.6399 9.38292 48.7576 9.71157 48.9341 9.947C49.1106 10.1824 49.3803 10.3492 49.7432 10.4473C50.1158 10.5356 50.6111 10.5797 51.2289 10.5797C51.4937 10.5797 51.7781 10.5699 52.0821 10.5503C52.3861 10.5306 52.6803 10.5061 52.9647 10.4767C53.2589 10.4473 53.5188 10.4129 53.7444 10.3737V10.8593C53.558 10.8985 53.3178 10.9328 53.0236 10.9623C52.7392 10.9917 52.4352 11.0113 52.1115 11.0211C51.7879 11.0407 51.4692 11.0506 51.1554 11.0506ZM53.5237 7.18066V6.57736C53.5237 5.94954 53.4845 5.44925 53.406 5.07648C53.3374 4.70371 53.2148 4.42415 53.0383 4.23777C52.8618 4.05138 52.6166 3.92874 52.3028 3.86988C51.9988 3.81102 51.6163 3.78161 51.1554 3.78161C50.5571 3.78161 50.0766 3.82086 49.7137 3.89933C49.3607 3.968 49.0959 
    4.11023 48.9194 4.32604C48.7428 4.54186 48.6252 4.85577 48.5663 5.26778C48.5173 5.66997 48.4928 6.20951 48.4928 6.88638H53.8179L53.5237 7.18066ZM56.8716 10.9329V3.89933H55.2828V3.42847H56.8716V1.25072H57.3864V3.42847H59.2399V3.89933H57.3864V10.9329H56.8716ZM63.8541 10.9329V3.42847H64.266L64.3101 4.64977H64.369C64.4376 4.41434 64.5504 4.19851 64.7073 4.00231C64.8642 3.79631 65.1045 3.62956 65.4281 3.50203C65.7517 3.37451 66.1931 3.31074 66.752 3.31074C67.4876 3.31074 68.0269 3.41376 68.3702 3.61976C68.7232 3.82576 68.9586 4.1691 69.0763 4.64977H69.1498C69.2185 4.41434 69.3362 4.19851 69.5029 4.00231C69.6696 3.79631 69.9197 3.62956 70.2531 3.50203C70.5866 3.37451 71.0328 3.31074 71.5918 3.31074C72.2979 3.31074 72.8274 3.40882 73.1805 3.60502C73.5335 3.7914 73.764 4.10042 73.8719 4.53204C73.9896 4.95386 74.0484 5.51792 74.0484 6.22422V10.9329H73.5335V6.29779C73.5335 5.74845 73.509 5.31192 73.46 4.98821C73.4109 4.65468 73.3129 4.39963 73.1658 4.22306C73.0285 4.04649 72.8225 3.92874 72.5479 3.86988C72.2831 3.81102 71.9301 3.78161 71.4888 3.78161C70.92 3.78161 70.4787 3.86007 70.1648 4.01702C69.851 4.16417 69.6255 4.38489 69.4882 4.67918C69.3607 4.96366 69.2822 5.307 69.2528 5.70919C69.2234 6.11139 69.2087 6.55774 69.2087 7.04823V10.9329H68.6938V6.29779C68.6938 5.74845 68.6693 5.31192 68.6203 4.98821C68.5712 4.65468 68.4732 4.39963 68.3261 4.22306C68.1888 4.04649 67.9828 3.92874 67.7082 3.86988C67.4434 3.81102 67.0904 3.78161 66.6491 3.78161C66.0803 3.78161 65.639 3.865 65.3251 4.03177C65.0113 4.19853 64.7858 4.43395 64.6485 4.73805C64.521 5.03234 64.4425 5.38057 64.4131 5.78276C64.3837 6.17515 64.369 6.59698 64.369 7.04823V10.9329H63.8541ZM79.4998 11.0506C78.9408 11.0506 78.4701 11.0162 78.0876 10.9476C77.715 10.8789 77.4109 10.7612 77.1756 10.5944C76.9402 10.4178 76.7588 10.1824 76.6313 9.88814C76.5136 9.59385 76.4302 9.22595 76.3812 8.78452C76.342 8.34308 76.3224 7.81337 76.3224 7.19537C76.3224 6.45964 76.3469 5.84654 76.3959 5.35605C76.4449 4.85576 76.5675 4.45849 76.7637 4.1642C76.9598 3.8601 77.2785 3.64427 77.7198 3.51674C78.1612 3.37941 78.7692 3.31074 79.5439 3.31074C80.0833 3.31074 80.5246 3.34999 80.8679 3.42847C81.2209 3.50694 81.4955 3.63445 81.6917 3.81102C81.8976 3.97778 82.0496 4.21324 82.1477 4.51734C82.2457 4.81163 82.3095 5.17948 82.3389 5.62092C82.3683 6.05254 82.383 6.56756 82.383 7.16595V7.35725H76.8372C76.8372 8.00469 76.8667 8.53929 76.9255 8.96111C76.9843 9.38292 77.102 9.71157 77.2785 9.947C77.4551 10.1824 77.7248 10.3492 78.0876 10.4473C78.4603 10.5356 78.9555 10.5797 79.5734 10.5797C79.8382 10.5797 80.1226 10.5699 80.4266 10.5503C80.7306 10.5306 81.0248 10.5061 81.3092 10.4767C81.6034 10.4473 81.8633 10.4129 82.0889 10.3737V10.8593C81.9025 10.8985 81.6622 10.9328 81.368 10.9623C81.0836 10.9917 80.7796 11.0113 80.456 11.0211C80.1324 11.0407 79.8136 11.0506 79.4998 11.0506ZM81.8682 7.18066V6.57736C81.8682 5.94954 81.829 5.44925 81.7505 5.07648C81.6819 4.70371 81.5593 4.42415 81.3827 4.23777C81.2062 4.05138 80.961 3.92874 80.6472 3.86988C80.3432 3.81102 79.9607 3.78161 79.4998 3.78161C78.9016 3.78161 78.421 3.82086 78.0582 3.89933C77.7051 3.968 77.4404 4.11023 77.2638 4.32604C77.0873 4.54186 76.9696 4.85577 76.9108 5.26778C76.8618 5.66997 76.8372 6.20951 76.8372 6.88638H82.1624L81.8682 7.18066ZM87.6518 10.9329V0H88.1667V6.85693H89.4171L92.5504 3.42847H93.1976L89.8437 7.07764L93.2418 10.9329H92.5651L89.4171 7.35725H88.1667V10.9329H87.6518ZM95.0009 10.9329V3.42847H95.4128L95.4569 4.64977H95.5157C95.5942 4.41434 95.7217 4.19851 95.8982 4.00231C96.0747 3.79631 96.3444 3.62956 96.7073 3.50203C97.0701 3.37451 97.5654 3.31074 98.193 3.31074C98.7913 3.31074 99.2718 3.36468 99.6346 3.47258C99.9975 3.58049 100.272 3.74728 100.458 3.9729C100.655 4.19852 100.782 4.49771 100.841 4.87048C100.91 5.24325 100.944 5.6945 100.944 6.22422V10.9329H100.429V6.29779C100.429 5.74845 100.4 5.31192 100.341 4.98821C100.282 4.65468 100.169 4.39963 100.002 4.22306C99.8357 4.04649 99.5954 3.92874 99.2816 3.86988C98.9776 3.81102 98.5804 3.78161 98.0901 3.78161C97.4428 3.78161 96.9427 3.865 96.5896 4.03177C96.2366 4.19853 95.9816 4.43395 95.8247 4.73805C95.6775 5.03234 95.5893 5.38057 95.5599 5.78276C95.5305 6.17515 95.5157 6.59698 95.5157 7.04823V10.9329H95.0009ZM106.379 11.0506C105.781 11.0506 105.286 11.0162 104.894 10.9476C104.511 10.8887 104.202 10.7808 103.967 10.6238C103.741 10.4571 103.575 10.2265 103.467 9.93225C103.359 9.63796 103.29 9.27011 103.261 8.82867C103.231 8.37743 103.217 7.83299 103.217 7.19537C103.217 6.55774 103.231 6.0133 103.261 5.56206C103.29 5.11081 103.359 4.73806 103.467 4.44377C103.575 4.14948 103.741 3.92385 103.967 3.7669C104.202 3.60014 104.511 3.48243 104.894 3.41376C105.286 3.34509 105.781 3.31074 106.379 3.31074C106.978 3.31074 107.468 3.34509 107.85 3.41376C108.243 3.48243 108.552 3.60014 108.777 3.7669C109.013 3.92385 109.184 4.14948 109.292 4.44377C109.4 4.73806 109.469 5.11081 109.498 5.56206C109.527 6.0133 109.542 6.55774 109.542 7.19537C109.542 7.83299 109.527 8.37743 109.498 8.82867C109.469 9.27011 109.4 9.63796 109.292 9.93225C109.184 10.2265 109.013 10.4571 108.777 10.6238C108.552 10.7808 108.243 10.8887 107.85 10.9476C107.468 11.0162 106.978 11.0506 106.379 11.0506ZM106.379 10.5797C107.046 10.5797 107.561 10.5356 107.924 10.4473C108.287 10.359 108.542 10.1971 108.689 9.9617C108.846 9.72627 108.939 9.38784 108.968 8.9464C109.008 8.49516 109.027 7.91147 109.027 7.19537C109.027 6.47926 109.008 5.89557 108.968 5.44433C108.939 4.99308 108.846 4.64975 108.689 4.41432C108.542 4.16908 108.287 4.00233 107.924 3.91404C107.561 3.82575 107.046 3.78161 106.379 3.78161C105.722 3.78161 105.207 3.82575 104.835 3.91404C104.472 4.00233 104.212 4.16908 104.055 4.41432C103.908 4.64975 103.815 4.99308 103.776 5.44433C103.746 5.89557 103.731 6.47926 103.731 7.19537C103.731 7.91147 103.746 8.49516 103.776 8.9464C103.815 9.38784 103.908 9.72627 104.055 9.9617C104.212 10.1971 104.472 10.359 104.835 10.4473C105.207 10.5356 105.722 10.5797 106.379 10.5797ZM113.4 10.9329L110.781 3.42847H111.34L113.621 10.0941H113.709L115.842 3.42847H116.401L118.549 10.0941H118.637L120.902 3.42847H121.446L118.828 10.9329H118.313L116.151 4.32604H116.062L113.915 10.9329H113.4ZM126.189 10.9329V0H126.704V4.53204H126.763C126.832 4.34566 126.949 4.15929 127.116 3.9729C127.283 3.78652 127.543 3.62956 127.896 3.50203C128.259 3.37451 128.754 3.31074 129.381 3.31074C129.98 3.31074 130.46 3.36468 130.823 3.47258C131.186 3.58049 131.461 3.74728 131.647 3.9729C131.843 4.19852 131.971 4.49771 132.029 4.87048C132.098 5.24325 132.132 5.6945 132.132 6.22422V10.9329H131.617V6.29779C131.617 5.74845 131.588 5.31192 131.529 4.98821C131.47 4.65468 131.358 4.39963 131.191 4.22306C131.024 4.04649 130.784 3.92874 130.47 3.86988C130.166 3.81102 129.769 3.78161 129.279 3.78161C128.631 3.78161 128.131 3.865 127.778 4.03177C127.425 4.19853 127.17 4.43395 127.013 4.73805C126.866 5.03234 126.778 5.38057 126.748 5.78276C126.719 6.17515 126.704 6.59698 126.704 7.04823V10.9329H126.189ZM137.568 11.0506C136.97 11.0506 136.474 11.0162 136.082 10.9476C135.7 10.8887 135.391 10.7808 135.155 10.6238C134.93 10.4571 134.763 10.2265 134.655 9.93225C134.547 9.63796 134.479 9.27011 134.449 8.82867C134.42 8.37743 134.405 7.83299 134.405 7.19537C134.405 6.55774 134.42 6.0133 134.449 5.56206C134.479 5.11081 134.547 4.73806 134.655 4.44377C134.763 4.14948 134.93 3.92385 135.155 3.7669C135.391 3.60014 135.7 3.48243 136.082 3.41376C136.474 3.34509 136.97 3.31074 137.568 3.31074C138.166 3.31074 138.656 3.34509 139.039 3.41376C139.431 3.48243 139.74 3.60014 139.966 3.7669C140.201 3.92385 140.373 4.14948 140.48 4.44377C140.588 4.73806 140.657 5.11081 140.686 5.56206C140.716 6.0133 140.731 6.55774 140.731 7.19537C140.731 7.83299 140.716 8.37743 140.686 8.82867C140.657 9.27011 140.588 9.63796 140.48 9.93225C140.373 10.2265 140.201 10.4571 139.966 10.6238C139.74 10.7808 139.431 10.8887 139.039 10.9476C138.656 11.0162 138.166 11.0506 137.568 11.0506ZM137.568 10.5797C138.235 10.5797 138.75 10.5356 139.112 10.4473C139.475 10.359 139.73 10.1971 139.877 9.9617C140.034 9.72627 140.127 9.38784 140.157 8.9464C140.196 8.49516
    140.216 7.91147 140.216 7.19537C140.216 6.47926 140.196 5.89557 140.157 5.44433C140.127 4.99308 140.034 4.64975 139.877 4.41432C139.73 4.16908 139.475 4.00233 139.112 3.91404C138.75 3.82575 138.235 3.78161 137.568 3.78161C136.911 3.78161 136.396 3.82575 136.023 3.91404C135.66 4.00233 135.4 4.16908 135.244 4.41432C135.096 4.64975 135.003 4.99308 134.964 5.44433C134.935 5.89557 134.92 6.47926 134.92 7.19537C134.92 7.91147 134.935 8.49516 134.964 8.9464C135.003 9.38784 135.096 9.72627 135.244 9.9617C135.4 10.1971 135.66 10.359 136.023 10.4473C136.396 10.5356 136.911 10.5797 137.568 10.5797ZM144.59 10.9329L141.971 3.42847H142.53L144.81 10.0941H144.899L147.032 3.42847H147.59L149.738 10.0941H149.826L152.092 3.42847H152.636L150.018 10.9329H149.503L147.34 4.32604H147.252L145.104 10.9329H144.59ZM157.319 0.897578V0H157.951V0.897578H157.319ZM157.378 10.9329V3.42847H157.893V10.9329H157.378ZM161.104 10.9329V3.89933H159.516V3.42847H161.104V1.25072H161.619V3.42847H163.473V3.89933H161.619V10.9329H161.104ZM170.736 13.964C170.422 13.964 170.094 13.9591 169.75 13.9493C169.417 13.9395 169.093 13.9248 168.78 13.9052C168.476 13.8954 168.211 13.8807 167.985 13.861V13.3755C168.27 13.3951 168.569 13.4147 168.883 13.4343C169.206 13.4539 169.52 13.4686 169.824 13.4784C170.128 13.4883 170.408 13.4932 170.663 13.4932C171.271 13.4932 171.756 13.4392 172.119 13.3313C172.482 13.2234 172.756 13.0419 172.943 12.7869C173.129 12.5318 173.252 12.1787 173.31 11.7274C173.369 11.286 173.399 10.7268 173.399 10.05V9.84398H173.34C173.222 10.1383 173.046 10.3737 172.81 10.5503C172.575 10.7268 172.281 10.8544 171.928 10.9329C171.575 11.0113 171.158 11.0506 170.677 11.0506C170.05 11.0506 169.54 10.9966 169.147 10.8887C168.765 10.771 168.471 10.5748 168.265 10.3001C168.059 10.0157 167.917 9.62325 167.838 9.12295C167.76 8.61285 167.72 7.96543 167.72 7.18066C167.72 6.39589 167.76 5.75336 167.838 5.25307C167.917 4.74297 168.059 4.35055 168.265 4.07588C168.471 3.7914 168.765 3.59523 169.147 3.48733C169.54 3.36961 170.05 3.31074 170.677 3.31074C171.069 3.31074 171.447 3.34016 171.81 3.39901C172.173 3.45787 172.492 3.58541 172.766 3.78161C173.051 3.96799 173.261 4.25738 173.399 4.64977H173.457L173.502 3.42847H173.914V9.87339C173.914 10.6484 173.874 11.2958 173.796 11.8157C173.727 12.3454 173.58 12.7673 173.354 13.0812C173.139 13.3951 172.82 13.6207 172.398 13.758C171.986 13.8954 171.432 13.964 170.736 13.964ZM170.824 10.5797C171.481 10.5797 172.001 10.4865 172.384 10.3001C172.776 10.1138 173.041 9.80963 173.178 9.38782C173.286 9.08372 173.35 8.75511 173.369 8.40196C173.389 8.03901 173.399 7.6319 173.399 7.18066C173.399 6.73922 173.389 6.34685 173.369 6.00351C173.359 5.65036 173.31 5.34134 173.222 5.07648C173.065 4.59581 172.786 4.26227 172.384 4.07588C171.991 3.87969 171.472 3.78161 170.824 3.78161C170.265 3.78161 169.814 3.82086 169.471 3.89933C169.128 3.97781 168.868 4.13477 168.691 4.3702C168.515 4.59582 168.392 4.93426 168.324 5.3855C168.265 5.83675 168.235 6.43512 168.235 7.18066C168.235 7.92619 168.265 8.52457 168.324 8.97581C168.392 9.42706 168.515 9.77039 168.691 10.0058C168.868 10.2314 169.128 10.3835 169.471 10.462C169.814 10.5405 170.265 10.5797 170.824 10.5797ZM179.353 11.0506C178.754 11.0506 178.259 11.0162 177.867 10.9476C177.484 10.8887 177.176 10.7808 176.94 10.6238C176.715 10.4571 176.548 10.2265 176.44 9.93225C176.332 9.63796 176.263 9.27011 176.234 8.82867C176.205 8.37743 176.19 7.83299 176.19 7.19537C176.19 6.55774 176.205 6.0133 176.234 5.56206C176.263 5.11081 176.332 4.73806 176.44 4.44377C176.548 4.14948 176.715 3.92385 176.94 3.7669C177.176 3.60014 177.484 3.48243 177.867 3.41376C178.259 3.34509 178.754 3.31074 179.353 3.31074C179.951 3.31074 180.441 3.34509 180.824 3.41376C181.216 3.48243 181.525 3.60014 181.75 3.7669C181.986 3.92385 182.157 4.14948 182.265 4.44377C182.373 4.73806 182.442 5.11081 182.471 5.56206C182.501 6.0133 182.515 6.55774 182.515 7.19537C182.515 7.83299 182.501 8.37743 182.471 8.82867C182.442 9.27011 182.373 9.63796 182.265 9.93225C182.157 10.2265 181.986 10.4571 181.75 10.6238C181.525 10.7808 181.216 10.8887 180.824 10.9476C180.441 11.0162 179.951 11.0506 179.353 11.0506ZM179.353 10.5797C180.02 10.5797 180.534 10.5356 180.897 10.4473C181.26 10.359 181.515 10.1971 181.662 9.9617C181.819 9.72627 181.912 9.38784 181.942 8.9464C181.981 8.49516 182.001 7.91147 182.001 7.19537C182.001 6.47926 181.981 5.89557 181.942 5.44433C181.912 4.99308 181.819 4.64975 181.662 4.41432C181.515 4.16908 181.26 4.00233 180.897 3.91404C180.534 3.82575 180.02 3.78161 179.353 3.78161C178.696 3.78161 178.181 3.82575 177.808 3.91404C177.445 4.00233 177.185 4.16908 177.028 4.41432C176.881 4.64975 176.788 4.99308 176.749 5.44433C176.72 5.89557 176.705 6.47926 176.705 7.19537C176.705 7.91147 176.72 8.49516 176.749 8.9464C176.788 9.38784 176.881 9.72627 177.028 9.9617C177.185 10.1971 177.445 10.359 177.808 10.4473C178.181 10.5356 178.696 10.5797 179.353 10.5797ZM187.606 11.0506C187.047 11.0506 186.577 11.0162 186.194 10.9476C185.822 10.8789 185.518 10.7612 185.282 10.5944C185.047 10.4178 184.865 10.1824 184.738 9.88814C184.62 9.59385 184.537 9.22595 184.488 8.78452C184.449 8.34308 184.429 7.81337 184.429 7.19537C184.429 6.45964 184.454 5.84654 184.503 5.35605C184.552 4.85576 184.674 4.45849 184.87 4.1642C185.066 3.8601 185.385 3.64427 185.826 3.51674C186.268 3.37941 186.876 3.31074 187.651 3.31074C188.19 3.31074 188.631 3.34999 188.974 3.42847C189.328 3.50694 189.602 3.63445 189.798 3.81102C190.004 3.97778 190.156 4.21324 190.254 4.51734C190.352 4.81163 190.416 5.17948 190.446 5.62092C190.475 6.05254 190.49 6.56756 190.49 7.16595V7.35725H184.944C184.944 8.00469 184.973 8.53929 185.032 8.96111C185.091 9.38292 185.209 9.71157 185.385 9.947C185.562 10.1824 185.831 10.3492 186.194 10.4473C186.567 10.5356 187.062 10.5797 187.68 10.5797C187.945 10.5797 188.229 10.5699 188.533 10.5503C188.837 10.5306 189.131 10.5061 189.416 10.4767C189.71 10.4473 189.97 10.4129 190.195 10.3737V10.8593C190.009 10.8985 189.769 10.9328 189.475 10.9623C189.19 10.9917 188.886 11.0113 188.563 11.0211C188.239 11.0407 187.92 11.0506 187.606 11.0506ZM189.975 7.18066V6.57736C189.975 5.94954 189.936 5.44925 189.857 5.07648C189.788 4.70371 189.666 4.42415 189.489 4.23777C189.313 4.05138 189.068 3.92874 188.754 3.86988C188.45 3.81102 188.067 3.78161 187.606 3.78161C187.008 3.78161 186.528 3.82086 186.165 3.89933C185.812 3.968 185.547 4.11023 185.37 4.32604C185.194 4.54186 185.076 4.85577 185.017 5.26778C184.968 5.66997 184.944 6.20951 184.944 6.88638H190.269L189.975 7.18066ZM195.028 11.0506C194.773 11.0506 194.488 11.0407 194.175 11.0211C193.871 11.0113 193.571 10.9917 193.277 10.9623C192.983 10.9426 192.718 10.9181 192.483 10.8887V10.4031C192.826 10.4424 193.115 10.4718 193.351 10.4914C193.586 10.5111 193.797 10.5306 193.983 10.5503C194.18 10.5601 194.371 10.5699 194.557 10.5797C194.753 10.5797 194.979 10.5797 195.234 10.5797C195.803 10.5797 196.224 10.5257 196.499 10.4178C196.773 10.3099 196.955 10.1383 197.043 9.90284C197.131 9.66741 197.176 9.35839 197.176 8.97581C197.176 8.52457 197.141 8.20086 197.073 8.00467C197.004 7.79866 196.886 7.66623 196.719 7.60737C196.563 7.54851 196.337 7.50437 196.043 7.47494L193.866 7.26893C193.434 7.21989 193.101 7.13653 192.865 7.01881C192.63 6.9011 192.468 6.71468 192.38 6.45963C192.292 6.20458 192.248 5.86614 192.248 5.44433C192.248 4.95385 192.306 4.56637 192.424 4.28189C192.552 3.9876 192.738 3.7718 192.983 3.63447C193.228 3.49713 193.527 3.40884 193.88 3.3696C194.233 3.33036 194.636 3.31074 195.087 3.31074C195.312 3.31074 195.552 3.32057 195.807 3.34019C196.072 3.35 196.332 3.36959 196.587 3.39901C196.842 3.41863 197.073 3.44809 197.279 3.48733V3.9729C196.994 3.92385 196.724 3.8846 196.469 3.85518C196.224 3.82575 195.969 3.80612 195.705 3.79631C195.45 3.7865 195.16 3.78161 194.837 3.78161C194.435 3.78161 194.077 3.81102 193.763 3.86988C193.449 3.91893 193.204 4.05137 193.027 
    4.26718C192.851 4.48299 192.762 4.84105 192.762 5.34135C192.762 5.73373 192.797 6.02802 192.865 6.22422C192.934 6.4106 193.052 6.5381 193.218 6.60677C193.395 6.67544 193.63 6.72452 193.925 6.75395L196.028 6.95995C196.479 6.99919 196.822 7.07275 197.058 7.18066C197.293 7.28856 197.455 7.47984 197.543 7.75451C197.641 8.01937 197.69 8.42647 197.69 8.97581C197.69 9.40744 197.641 9.7606 197.543 10.0353C197.445 10.3001 197.288 10.5061 197.073 10.6533C196.857 10.8004 196.577 10.9034 196.234 10.9623C195.901 11.0211 195.499 11.0506 195.028 11.0506ZM199.294 10.9329V9.97641H200V10.9329H199.294Z" fill="black"/>
</svg>