<svg width="18" height="18" viewBox="0 0 18 18" fill="none" xmlns="http://www.w3.org/2000/svg">
    <path
        d="M9.75 10.5H6.75C6.55109 10.5 6.36032 10.579 6.21967 10.7197C6.07902 10.8603 6 11.0511 6 11.25C6 11.4489 6.07902 11.6397 6.21967 11.7803C6.36032 11.921 6.55109 12 6.75 12H9.75C9.94891 12 10.1397 11.921 10.2803 11.7803C10.421 11.6397 10.5 11.4489 10.5 11.25C10.5 11.0511 10.421 10.8603 10.2803 10.7197C10.1397 10.579 9.94891 10.5 9.75 10.5ZM12.75 3H11.865C11.7103 2.56234 11.4239 2.18325 11.0453 1.9147C10.6667 1.64616 10.2142 1.5013 9.75 1.5H8.25C7.78579 1.5013 7.33335 1.64616 6.9547 1.9147C6.57605 2.18325 6.28974 2.56234 6.135 3H5.25C4.65326 3 4.08097 3.23705 3.65901 3.65901C3.23705 4.08097 3 4.65326 3 5.25V14.25C3 14.8467 3.23705 15.419 3.65901 15.841C4.08097 16.2629 4.65326 16.5 5.25 16.5H12.75C13.3467 16.5 13.919 16.2629 14.341 15.841C14.7629 15.419 15 14.8467 15 14.25V5.25C15 4.65326 14.7629 4.08097 14.341 3.65901C13.919 3.23705 13.3467 3 12.75 3ZM7.5 3.75C7.5 3.55109 7.57902 3.36032 7.71967 3.21967C7.86032 3.07902 8.05109 3 8.25 3H9.75C9.94891 3 10.1397 3.07902 10.2803 3.21967C10.421 3.36032 10.5 3.55109 10.5 3.75V4.5H7.5V3.75ZM13.5 14.25C13.5 14.4489 13.421 14.6397 13.2803 14.7803C13.1397 14.921 12.9489 15 12.75 15H5.25C5.05109 15 4.86032 14.921 4.71967 14.7803C4.57902 14.6397 4.5 14.4489 4.5 14.25V5.25C4.5 5.05109 4.57902 4.86032 4.71967 4.71967C4.86032 4.57902 5.05109 4.5 5.25 4.5H6V5.25C6 5.44891 6.07902 5.63968 6.21967 5.78033C6.36032 5.92098 6.55109 6 6.75 6H11.25C11.4489 6 11.6397 5.92098 11.7803 5.78033C11.921 5.63968 12 5.44891 12 5.25V4.5H12.75C12.9489 4.5 13.1397 4.57902 13.2803 4.71967C13.421 4.86032 13.5 5.05109 13.5 5.25V14.25ZM11.25 7.5H6.75C6.55109 7.5 6.36032 7.57902 6.21967 7.71967C6.07902 7.86032 6 8.05109 6 8.25C6 8.44891 6.07902 8.63968 6.21967 8.78033C6.36032 8.92098 6.55109 9 6.75 9H11.25C11.4489 9 11.6397 8.92098 11.7803 8.78033C11.921 8.63968 12 8.44891 12 8.25C12 8.05109 11.921 7.86032 11.7803 7.71967C11.6397 7.57902 11.4489 7.5 11.25 7.5Z"
        fill="#A2A1A1" />
</svg>