<svg width="60" height="60" viewBox="0 0 60 60" fill="none"
    xmlns="http://www.w3.org/2000/svg">
    <path fill-rule="evenodd" clip-rule="evenodd" d="M15 17.5H45V25C45 26.3807 46.1193 27.5 47.5 27.5C48.8807 27.5 50 26.3807 50 25V17.5C50 14.7386 47.7614 12.5 45 12.5H15C12.2386 12.5 10 14.7386 10 17.5V42.5C10 45.2614 12.2386 47.5 15 47.5H22.5C23.8807 47.5 25 46.3807 25 45C25 43.6193 23.8807 42.5 22.5 42.5H15L15 17.5ZM19.6344 20.365C19.1444 19.8775 18.3544 19.8775 17.8644 20.365C17.3769 20.855 17.3769 21.645 17.8644 22.135L23.2319 27.5H21.2494C20.5594 27.5 19.9994 28.06 19.9994 28.75C19.9994 29.44 20.5594 30 21.2494 30H26.2494C26.4119 30 26.5744 29.965 26.7269 29.905C27.0319 29.7775 27.2769 29.5325 27.4019 29.2275C27.4669 29.075 27.4994 28.9125 27.4994 28.75V23.75C27.4994 23.06 26.9394 22.5 26.2494 22.5C25.5594 22.5 24.9994 23.06 24.9994 23.75V25.7325L19.6344 20.365ZM49.9988 47.4994L29.9988 47.4994V32.4994L49.9988 32.4994L49.9988 47.4994Z" fill="white"/>
</svg>