<svg width="60" height="11" viewBox="0 0 60 11" fill="none"
    xmlns="http://www.w3.org/2000/svg">
    <path d="M3.97281 0.147222V10.8544H2.67636V1.5066H2.61381L0 3.24144V1.92497L2.67636 0.147222H3.97281ZM6.75712 10.8544V9.91332L10.2896 6.04495C10.7042 5.591 11.0464 5.19718 11.3138 4.86223C11.5824 4.52483 11.7811 4.20704 11.9099 3.91135C12.0424 3.61199 12.1086 3.29787 12.1086 2.97028C12.1086 2.59362 12.0178 2.26727 11.8375 1.99244C11.6597 1.71762 11.4156 1.50419 11.1053 1.35451C10.7949 1.20482 10.4466 1.12993 10.0602 1.12993C9.64812 1.12993 9.28997 1.21464 8.98333 1.38641C8.68037 1.55327 8.44486 1.78877 8.27805 2.09182C8.11369 2.39486 8.03152 2.75069 8.03152 3.15802H6.79882C6.79882 2.53107 6.94355 1.98018 7.23179 1.5066C7.52126 1.03178 7.915 0.662497 8.41299 0.397485C8.91465 0.132474 9.47762 0 10.1019 0C10.7287 0 11.2844 0.132474 11.7688 0.397485C12.2533 0.662497 12.6336 1.01955 12.9083 1.46983C13.1843 1.91887 13.3217 2.4194 13.3217 2.97028C13.3217 3.36412 13.2505 3.74939 13.107 4.12605C12.9672 4.49902 12.7243 4.91495 12.376 5.37504C12.0301 5.83145 11.5517 6.38971 10.9385 7.04855L8.53318 9.62015V9.70357H13.5093V10.8544H6.75712ZM16.2936 9.48514C16.036 9.48514 15.8153 9.39195 15.6301 9.20791C15.4449 9.02265 15.3529 8.80182 15.3529 8.54294C15.3529 8.28529 15.4449 8.06443 15.6301 7.87917C15.8153 7.69513 16.036 7.60187 16.2936 7.60187C16.5512 7.60187 16.7732 7.69513 16.9572 7.87917C17.1424 8.06443 17.2344 8.28529 17.2344 8.54294C17.2344 8.71471 17.1915 8.87172 17.1044 9.01404C17.0198 9.15636 16.9069 9.2717 16.7646 9.35881C16.6248 9.44223 16.4678 9.48514 16.2936 9.48514ZM16.2936 4.06838C16.036 4.06838 15.8153 3.97512 15.6301 3.79109C15.4449 3.60583 15.3529 3.38504 15.3529 3.12739C15.3529 2.86851 15.4449 2.64765 15.6301 2.46362C15.8153 2.27835 16.036 2.18632 16.2936 2.18632C16.5512 2.18632 16.7732 2.27835 16.9572 2.46362C17.1424 2.64765 17.2344 2.86851 17.2344 3.12739C17.2344 3.29793 17.1915 3.45497 17.1044 3.59729C17.0198 3.74084 16.9069 3.85494 16.7646 3.94206C16.6248 4.02671 16.4678 4.06838 16.2936 4.06838ZM19.1331 10.8544V9.91332L22.6668 6.04495C23.0814 5.591 23.4224 5.19718 23.691 4.86223C23.9596 4.52483 24.1571 4.20704 24.2871 3.91135C24.4196 3.61199 24.4846 3.29787 24.4846 2.97028C24.4846 2.59362 24.3951 2.26727 24.2135 1.99244C24.0357 1.71762 23.7916 1.50419 23.4813 1.35451C23.171 1.20482 22.8226 1.12993 22.4362 1.12993C22.0253 1.12993 21.666 1.21464 21.3593 1.38641C21.0564 1.55327 20.8208 1.78877 20.654 2.09182C20.4897 2.39486 20.4087 2.75069 20.4087 3.15802H19.1748C19.1748 2.53107 19.3195 1.98018 19.609 1.5066C19.8973 1.03178 20.291 0.662497 20.7902 0.397485C21.2919 0.132474 21.8548 0 22.4779 0C23.1047 0 23.6616 0.132474 24.1448 0.397485C24.6293 0.662497 25.0095 1.01955 25.2843 1.46983C25.5603 1.91887 25.6976 2.4194 25.6976 2.97028C25.6976 3.36412 25.6265 3.74939 25.483 4.12605C25.3444 4.49902 25.1003 4.91495 24.752 5.37504C24.4073 5.83145 23.9277 6.38971 23.3145 7.04855L20.9104 9.62015V9.70357H25.8866V10.8544H19.1331ZM31.0957 11.0004C30.4825 11.0004 29.9293 10.8789 29.4387 10.6348C28.9468 10.3906 28.5531 10.0557 28.2575 9.63116C27.9607 9.20542 27.7988 8.7208 27.7718 8.17728H29.0253C29.0744 8.66191 29.2939 9.06308 29.684 9.37962C30.0777 9.69371 30.5487 9.85079 31.0957 9.85079C31.5349 9.85079 31.9249 9.74772 32.2659 9.5416C32.6118 9.33671 32.8816 9.05451 33.0767 8.69503C33.2754 8.33309 33.3747 7.92334 33.3747 7.46693C33.3747 6.99948 33.2717 6.58228 33.0656 6.21666C32.8645 5.84737 32.5848 5.55659 32.2291 5.34434C31.8746 5.13086 31.4686 5.02295 31.0123 5.01926C30.6849 5.01558 30.3476 5.06707 30.0029 5.17135C29.6582 5.27196 29.3737 5.40325 29.1517 5.56397L27.9386 5.41675L28.5862 0.147222H34.1474V1.29684H29.6742L29.2976 4.45486H29.3602C29.5797 4.28064 29.8545 4.13586 30.1856 4.02053C30.5168 3.90643 30.8615 3.84875 31.2209 3.84875C31.8759 3.84875 32.4597 4.00579 32.9724 4.31865C33.4875 4.62905 33.8923 5.05484 34.1842 5.59468C34.4811 6.13451 34.6282 6.75161 34.6282 7.44604C34.6282 8.1282 34.4749 8.73923 34.1683 9.27538C33.8653 9.80909 33.4471 10.2299 32.9147 10.5403C32.3812 10.8471 31.7753 11.0004 31.0957 11.0004ZM40.4446 10.8544V0.147222H44.0617C44.9007 0.147222 45.5875 0.298125 46.1211 0.601171C46.6571 0.901762 47.0545 1.30784 47.3121 1.81946C47.5697 2.33231 47.6985 2.90406 47.6985 3.53468C47.6985 4.16531 47.5697 4.73948 47.3121 5.25478C47.0582 5.7713 46.6645 6.18237 46.1309 6.48909C45.5974 6.79214 44.9154 6.94304 44.0826 6.94304H41.4896V5.79342H44.0396C44.6149 5.79342 45.0773 5.69406 45.4257 5.4953C45.774 5.29655 46.0267 5.02785 46.1837 4.69045C46.3431 4.34814 46.4241 3.9641 46.4241 3.53468C46.4241 3.1065 46.3431 2.72246 46.1837 2.38506C46.0267 2.04644 45.7715 1.78141 45.4195 1.59002C45.0687 1.39494 44.6014 1.29684 44.0188 1.29684H41.7398V10.8544H40.4446ZM49.4929 0.147222H51.0396L54.6776 9.03493H54.8027L58.4407 0.147222H59.9886V10.8544H58.7755V2.71882H58.6713L55.3264 10.8544H54.1551L50.8102 2.71882H50.7048V10.8544H49.4929V0.147222Z" fill="#8A91A8"/>
</svg>