
<svg width="23" height="20" viewBox="0 0 23 20" fill="none" xmlns="http://www.w3.org/2000/svg"><path fill-rule="evenodd" clip-rule="evenodd" d="M11.2821 8.20513C13.5478 8.20513 15.3846 6.36835 15.3846 4.10256C15.3846 1.83678 13.5478 0 11.2821 0C9.01627 0 7.17949 1.83678 7.17949 4.10256C7.17949 6.36835 9.01627 8.20513 11.2821 8.20513ZM5.64103 1.02564C3.65846 1.02564 2.05128 2.63282 2.05128 4.61538C2.05128 6.59795 3.65846 8.20513 5.64103 8.20513C6.20747 8.20513 6.66667 7.74593 6.66667 7.17949C6.66667 6.61304 6.20747 6.15385 5.64103 6.15385C4.79136 6.15385 4.10256 5.46505 4.10256 4.61538C4.10256 3.76572 4.79136 3.07692 5.64103 3.07692C6.20747 3.07692 6.66667 2.61773 6.66667 2.05128C6.66667 1.48484 6.20747 1.02564 5.64103 1.02564ZM4.10256 16.4103C4.10256 12.4451 7.31693 9.23077 11.2821 9.23077C15.2472 9.23077 18.4615 12.4451 18.4615 16.4103C18.4615 16.8174 18.4275 17.2174 18.362 17.6073C18.0534 19.4442 13.3333 20 11.2821 20C9.23077 20 4.53195 19.5644 4.2027 17.611C4.13677 17.2199 4.10256 16.8187 4.10256 16.4103ZM3.95284 11.0487C4.39286 10.692 4.4604 10.0461 4.10369 9.60607C3.74698 9.16605 3.1011 9.09851 2.66108 9.45522C1.03943 10.7698 0 12.7813 0 15.0348C0 15.4433 0.0342099 15.8445 0.100136 16.2356C0.194288 16.7942 0.72342 17.1706 1.28199 17.0765C1.84055 16.9823 2.21704 16.4532 2.12288 15.8946C2.07587 15.6157 2.05128 15.3285 2.05128 15.0348C2.05128 13.4259 2.79101 11.9905 3.95284 11.0487ZM21.0256 4.61538C21.0256 2.63282 19.4185 1.02564 17.4359 1.02564C16.8695 1.02564 16.4103 1.48484 16.4103 2.05128C16.4103 2.61773 16.8695 3.07692 17.4359 3.07692C18.2856 3.07692 18.9744 3.76572 18.9744 4.61538C18.9744 5.46505 18.2856 6.15385 17.4359 6.15385C16.8695 6.15385 16.4103 6.61304 16.4103 7.17949C16.4103 7.74593 16.8695 8.20513 17.4359 8.20513C19.4185 8.20513 21.0256 6.59795 21.0256 4.61538ZM18.8414 11.0487C18.4014 10.692 18.3338 10.0461 18.6905 9.60607C19.0472 9.16605 19.6931 9.09851 20.1331 9.45522C21.7548 10.7698 22.7942 12.7813 22.7942 15.0348C22.7942 15.4433 22.76 15.8445 22.6941 16.2356C22.5999 16.7942 22.0708 17.1706 21.5122 17.0765C20.9537 16.9823 20.5772 16.4532 20.6713 15.8946C20.7184 15.6157 20.7429 15.3285 20.7429 15.0348C20.7429 13.4259 20.0032 11.9905 18.8414 11.0487Z" fill="#8A898E"/></svg>