<svg width="58" height="58" viewBox="0 0 58 58" fill="none"
    xmlns="http://www.w3.org/2000/svg">
    <path d="M29 3.625C24.0496 3.625 20.0508 7.87305 20.0508 13.084V30.5859C20.0508 35.7969 24.0496 40.0449 29 40.0449C33.9504 40.0449 37.9492 35.7969 37.9492 30.5859V13.084C37.9492 7.87305 33.9504 3.625 29 3.625ZM36.1367 30.5859C36.1367 34.8 32.9309 38.2324 29 38.2324C25.0691 38.2324 21.8633 34.8 21.8633 30.5859V13.084C21.8633 8.86992 25.0691 5.4375 29 5.4375C32.9309 5.4375 36.1367 8.86992 36.1367 13.084V30.5859Z" fill="black"/>
    <path d="M41.5742 21.75V30.7785C41.5742 37.598 35.9328 43.1488 29.1133 43.1488C22.2937 43.1488 16.6523 37.598 16.6523 30.7785V21.75H14.5V30.7785C14.5 38.391 20.5039 44.6668 28.0938 45.2219V52.3359H19.8242V54.375H38.0625V52.3359H30.2461V45.2219C37.7227 44.6668 43.5 38.391 43.5 30.7785V21.75H41.5742Z" fill="black"/>
</svg>