<svg width="377" height="82" viewBox="0 0 377 82" fill="none" xmlns="http://www.w3.org/2000/svg"><g filter="url(#filter0_b_446_1165)"><path fill-rule="evenodd" clip-rule="evenodd" d="M24.5507 71.9385C27.5851 76.1348 31.9417 79.2987 37.0331 80.8432C40.4399 81.8766 44.6266 81.8766 53 81.8766H324C332.373 81.8766 336.56 81.8766 339.967 80.8432C345.058 79.2987 349.415 76.1348 352.449 71.9385C351.644 72.2833 350.816 72.5858 349.967 72.8433C346.56 73.8767 342.373 73.8767 334 73.8767H43C34.6266 73.8767 30.4399 73.8767 27.0331 72.8433C26.1843 72.5858 25.3559 72.2833 24.5507 71.9385Z" fill="#A6A6A6" fill-opacity="0.3"/><path fill-rule="evenodd" clip-rule="evenodd" d="M24.5507 71.9385C27.5851 76.1348 31.9417 79.2987 37.0331 80.8432C40.4399 81.8766 44.6266 81.8766 53 81.8766H324C332.373 81.8766 336.56 81.8766 339.967 80.8432C345.058 79.2987 349.415 76.1348 352.449 71.9385C351.644 72.2833 350.816 72.5858 349.967 72.8433C346.56 73.8767 342.373 73.8767 334 73.8767H43C34.6266 73.8767 30.4399 73.8767 27.0331 72.8433C26.1843 72.5858 25.3559 72.2833 24.5507 71.9385Z" fill="#333333" fill-opacity="0.7" style="mix-blend-mode:color-dodge"/><path fill-rule="evenodd" clip-rule="evenodd" d="M14.5507 64C17.5851 68.1963 21.9417 71.3603 27.0332 72.9048C30.44 73.9382 34.6266 73.9382 43 73.9382H334C342.373 73.9382 346.56 73.9382 349.967 72.9048C355.058 71.3603 359.415 68.1963 362.449 64C361.644 64.3448 360.816 64.6473 359.967 64.9048C356.56 65.9382 352.373 65.9382 344 65.9382H33C24.6266 65.9382 20.44 65.9382 17.0332 64.9048C16.1843 64.6473 15.3559 64.3448 14.5507 64Z" fill="#A6A6A6" fill-opacity="0.5"/><path fill-rule="evenodd" clip-rule="evenodd" d="M14.5507 64C17.5851 68.1963 21.9417 71.3603 27.0332 72.9048C30.44 73.9382 34.6266 73.9382 43 73.9382H334C342.373 73.9382 346.56 73.9382 349.967 72.9048C355.058 71.3603 359.415 68.1963 362.449 64C361.644 64.3448 360.816 64.6473 359.967 64.9048C356.56 65.9382 352.373 65.9382 344 65.9382H33C24.6266 65.9382 20.44 65.9382 17.0332 64.9048C16.1843 64.6473 15.3559 64.3448 14.5507 64Z" fill="#333333" fill-opacity="0.85" style="mix-blend-mode:color-dodge"/><rect width="377" height="66" rx="24" fill="#A6A6A6" fill-opacity="0.13"/><rect width="377" height="66" rx="24" fill="#333333" style="mix-blend-mode:color-dodge"/></g><defs><filter id="filter0_b_446_1165" x="-150" y="-150" width="677" height="381.877" filterUnits="userSpaceOnUse" color-interpolation-filters="sRGB"><feFlood flood-opacity="0" result="BackgroundImageFix"/><feGaussianBlur in="BackgroundImageFix" stdDeviation="75"/><feComposite in2="SourceAlpha" operator="in" result="effect1_backgroundBlur_446_1165"/><feBlend mode="normal" in="SourceGraphic" in2="effect1_backgroundBlur_446_1165" result="shape"/></filter></defs></svg>