<svg width="50" height="52" viewBox="0 0 50 52" fill="none"
    xmlns="http://www.w3.org/2000/svg">
    <path d="M44.6195 1.28394H9.964C9.77119 1.28394 9.58627 1.36261 9.44993 1.50265C9.31359 1.64269 9.237 1.83263 9.237 2.03068C9.237 2.22873 9.31359 2.41866 9.44993 2.5587C9.58627 2.69874 9.77119 2.77742 9.964 2.77742H44.62C46.096 2.77742 47.296 3.96224 47.296 5.41875V45.94C47.296 47.396 46.0955 48.5803 44.62 48.5803H5.38C3.9045 48.5803 2.704 47.396 2.704 45.9405V5.41926C2.704 3.96275 3.9045 2.77793 5.38 2.77793C6.3405 2.76561 6.3295 1.29575 5.38 1.28445C3.1025 1.28445 1.25 3.13898 1.25 5.41875V45.9405C1.25 48.2198 3.1025 50.0743 5.38 50.0743H44.6195C46.897 50.0743 48.75 48.2198 48.75 45.94V5.41875C48.75 3.13898 46.8975 1.28394 44.6195 1.28394Z" fill="#007581"/>
    <path d="M15.97 33.1253C16.3715 33.1253 16.697 32.7909 16.697 32.3785V20.3187C16.697 19.9063 16.3715 19.572 15.97 19.572H9.07954C8.67804 19.572 8.35254 19.9063 8.35254 20.3187V41.6116C8.35254 42.024 8.67804 42.3583 9.07954 42.3583H15.9705C16.372 42.3583 16.6975 42.024 16.6975 41.6116V36.2036C16.6975 36.0056 16.6209 35.8157 16.4846 35.6756C16.3483 35.5356 16.1634 35.4569 15.9705 35.4569C15.7777 35.4569 15.5928 35.5356 15.4565 35.6756C15.3201 35.8157 15.2435 36.0056 15.2435 36.2036V40.8649H9.80654V21.0654H15.2425V32.3785C15.2428 32.5766 15.3196 32.7664 15.4559 32.9064C15.5923 33.0464 15.7772 33.1251 15.97 33.1253ZM19.2685 42.1391C19.405 42.2798 19.5905 42.3589 19.7835 42.3589L26.6735 42.3578C27.075 42.3578 27.4005 42.0235 27.4005 41.6111V29.7218C27.3175 28.1939 28.1565 26.2336 30.436 26.1529C31.1195 26.1529 33.1995 26.1529 33.1995 30.221V41.6111C33.1995 42.0235 33.525 42.3578 33.9265 42.3578H40.816C41.2175 42.3578 41.543 42.0235 41.543 41.6111V29.4028C41.543 22.9349 38.306 19.0728 32.8845 19.0728C30.248 19.0728 28.5435 20.0686 27.388 21.2318L27.4015 20.3305C27.4155 19.9263 27.069 19.5637 26.6745 19.5725H19.7845C19.382 19.5648 19.031 19.9397 19.058 20.3536C19.146 22.3093 19.0575 41.4159 19.0565 41.6085C19.0555 41.8073 19.132 41.9983 19.2685 42.1391ZM20.529 21.0659H25.936L25.9015 23.395C25.8695 24.1269 26.8745 24.436 27.2405 23.8095C28.183 22.2996 29.676 20.5662 32.8845 20.5662C37.463 20.5662 40.089 23.7869 40.089 29.4028V40.8649H34.6535V30.2215C34.8125 23.1172 27.8305 23.3642 26.2275 27.7111C25.6555 28.7537 26.061 39.4833 25.946 40.8644L20.5135 40.8654C20.5285 37.5636 20.5805 24.6908 20.529 21.0659Z" fill="#007581"/>
    <path d="M12.572 9.30701C9.89153 9.30701 7.94653 11.1682 7.94653 13.733C7.96203 19.67 17.145 19.5801 17.151 13.7166C17.095 11.1204 15.212 9.30701 12.572 9.30701ZM12.526 16.665C10.7025 16.6887 9.39603 15.4761 9.40053 13.7335C9.32953 9.85962 15.7285 9.78669 15.697 13.734C15.697 15.4869 14.423 16.665 12.526 16.665Z" fill="#007581"/>
</svg>