<svg width="45" height="45" viewBox="0 0 45 45" fill="none"
    xmlns="http://www.w3.org/2000/svg">
    <g clip-path="url(#clip0_441_478)">
        <path d="M5.78113 -0.0232144C5.89238 -0.0235506 6.00364 -0.0238869 6.11826 -0.0242333C6.42526 -0.0251333 6.73225 -0.0249459 7.03925 -0.024569C7.37105 -0.0243515 7.70285 -0.0251452 8.03465 -0.0258027C8.68398 -0.0269215 9.33331 -0.0270809 9.98264 -0.026875C10.5106 -0.0267181 11.0386 -0.0268724 11.5665 -0.0272463C11.6418 -0.0272986 11.717 -0.0273509 11.7945 -0.0274048C11.9473 -0.0275113 12.1002 -0.027618 12.253 -0.0277249C13.6855 -0.0286802 15.1179 -0.028491 16.5503 -0.0279548C17.8596 -0.0275005 19.169 -0.0284897 20.4783 -0.0301607C21.824 -0.0318648 23.1697 -0.0325893 24.5153 -0.0322592C25.2703 -0.0320913 26.0253 -0.0323084 26.7803 -0.0335525C27.4231 -0.0346009 28.0658 -0.0347216 28.7085 -0.0336588C29.0362 -0.0331422 29.3638 -0.033042 29.6915 -0.0340985C30.0473 -0.0352324 30.4031 -0.0343067 30.7589 -0.0331922C30.8616 -0.0338403 30.9642 -0.0344885 31.07 -0.0351562C32.5944 -0.0251351 34.0358 0.597315 35.1074 1.68232C36.06 2.74708 36.5921 4.03668 36.5854 5.46057C36.5857 5.53737 36.586 5.61416 36.5864 5.69329C36.5873 5.94851 36.5869 6.20371 36.5866 6.45893C36.587 6.64278 36.5874 6.82663 36.5879 7.01049C36.5891 7.50842 36.5892 8.00634 36.5889 8.50427C36.5889 8.92056 36.5893 9.33685 36.5897 9.75314C36.5907 10.7355 36.5907 11.718 36.5902 12.7004C36.5897 13.7125 36.5907 14.7246 36.5926 15.7368C36.5942 16.607 36.5947 17.4773 36.5944 18.3476C36.5942 18.8668 36.5945 19.386 36.5957 19.9052C36.5968 20.3936 36.5966 20.882 36.5955 21.3704C36.5953 21.5491 36.5955 21.7278 36.5962 21.9066C36.6029 23.6719 36.2601 25.23 35.005 26.5461C34.005 27.5337 32.6506 28.1453 31.2447 28.1444C31.1641 28.1434 31.0835 28.1425 31.0005 28.1415C30.9128 28.1412 30.8251 28.1409 30.7348 28.1406C30.4428 28.1394 30.1507 28.137 29.8587 28.1346C29.6486 28.1335 29.4384 28.1326 29.2283 28.1317C28.7765 28.1297 28.3248 28.1273 27.873 28.1246C27.1579 28.1205 26.4427 28.1189 25.7275 28.1179C25.6054 28.1177 25.4833 28.1175 25.3612 28.1173C25.1141 28.1169 24.8669 28.1165 24.6198 28.1162C23.9855 28.1152 23.3513 28.1141 22.717 28.1127C22.6534 28.1126 22.5898 28.1125 22.5243 28.1123C21.4945 28.11 20.4648 28.1042 19.435 28.0972C18.3753 28.0901 17.3157 28.0874 16.256 28.0886C15.662 28.0891 15.0681 28.0876 14.4741 28.0809C13.9149 28.0747 13.356 28.074 12.7968 28.0772C12.5925 28.0775 12.388 28.0758 12.1837 28.072C11.1692 28.054 10.3879 28.055 9.61064 28.7669C9.46336 28.9136 9.32146 29.0632 9.18211 29.2174C8.99018 29.4217 8.77857 29.5886 8.55829 29.7617C8.20652 30.0466 7.85948 30.3364 7.51459 30.6296C7.08837 30.9918 6.65752 31.3476 6.2237 31.7007C5.94856 31.927 5.67665 32.1567 5.40522 32.3874C4.97928 32.7493 4.54895 33.1052 4.11501 33.4575C3.88507 33.647 3.65882 33.84 3.43315 34.0345C3.1991 34.2352 2.96206 34.432 2.72455 34.6286C2.65487 34.6875 2.5852 34.7464 2.51341 34.8071C2.06897 35.1479 1.69205 35.2367 1.13188 35.2081C0.729786 35.1252 0.447681 34.9326 0.175724 34.6286C-0.00362637 34.338 -0.0221348 34.1127 -0.0224237 33.7739C-0.0229363 33.6706 -0.0234486 33.5674 -0.0239767 33.4609C-0.0236446 33.3474 -0.0233125 33.2338 -0.0229702 33.1168C-0.0232357 32.995 -0.0235771 32.8732 -0.0239888 32.7514C-0.024895 32.4164 -0.0247001 32.0814 -0.0243248 31.7463C-0.0241084 31.3851 -0.0248996 31.0239 -0.0255586 30.6626C-0.0266806 29.9547 -0.0268363 29.2467 -0.0266308 28.5388C-0.0264742 27.9631 -0.0266278 27.3875 -0.0270023 26.8119C-0.0270807 26.6891 -0.0270805 26.6891 -0.0271605 26.5638C-0.027267 26.3975 -0.0273741 26.2311 -0.027481 26.0648C-0.0284376 24.5038 -0.028246 22.9429 -0.0277104 21.3819C-0.0272564 19.9546 -0.0282444 18.5273 -0.0299165 17.1C-0.0316204 15.6344 -0.0323454 14.1687 -0.0320153 12.7031C-0.0318473 11.8803 -0.032065 11.0575 -0.0333081 10.2347C-0.0343562 9.53392 -0.0344779 8.83313 -0.0334148 8.13233C-0.0328978 7.77495 -0.0327985 7.41759 -0.033854 7.06021C-0.0348104 6.73256 -0.0345337 6.40494 -0.0333041 6.0773C-0.0329627 5.90363 -0.0339088 5.72995 -0.0349121 5.55628C-0.0259072 4.06515 0.523868 2.66203 1.55743 1.5783C2.73591 0.414358 4.16835 -0.028413 5.78113 -0.0232144ZM3.51557 3.779C2.84987 4.66966 2.799 5.57559 2.80187 6.64963C2.8018 6.75245 2.80172 6.85526 2.80165 6.96119C2.80153 7.2454 2.8018 7.5296 2.80224 7.81381C2.80262 8.12073 2.80249 8.42765 2.80243 8.73457C2.80238 9.26594 2.80265 9.79732 2.80315 10.3287C2.80386 11.097 2.80409 11.8652 2.8042 12.6335C2.8044 13.88 2.80498 15.1266 2.80581 16.3731C2.80662 17.5839 2.80724 18.7946 2.80761 20.0053C2.80764 20.08 2.80766 20.1546 2.80768 20.2315C2.8078 20.6061 2.80791 20.9806 2.80802 21.3552C2.80893 24.4613 2.81048 27.5674 2.81244 30.6735C2.923 30.5915 3.03343 30.5092 3.14381 30.427C3.23608 30.3583 3.23608 30.3583 3.33021 30.2883C3.61717 30.0683 3.88734 29.8306 4.15827 29.5914C4.61863 29.1886 5.08434 28.7947 5.55971 28.4097C5.83324 28.186 6.10281 27.958 6.37201 27.7292C7.09557 27.1151 7.82982 26.5154 8.57477 25.9274C8.62824 25.8851 8.68171 25.8428 8.7368 25.7992C9.2586 25.3893 9.2586 25.3893 9.67319 25.3884C9.74831 25.388 9.82343 25.3876 9.90083 25.3873C10.0254 25.3873 10.0254 25.3873 10.1524 25.3874C10.2402 25.3871 10.328 25.3867 10.4185 25.3864C10.7147 25.3855 11.0109 25.3852 11.3071 25.3848C11.5187 25.3843 11.7303 25.3837 11.9419 25.383C12.3987 25.3818 12.8555 25.3807 13.3122 25.3799C13.9736 25.3787 14.6349 25.3768 15.2963 25.3748C16.3705 25.3714 17.4447 25.3684 18.5189 25.3656C18.5832 25.3654 18.6475 25.3652 18.7138 25.3651C19.6255 25.3627 20.5372 25.3606 21.449 25.3586C21.5131 25.3585 21.5772 25.3583 21.6433 25.3582C21.7073 25.358 21.7713 25.3579 21.8373 25.3578C22.9066 25.3554 23.9758 25.3524 25.0451 25.3488C25.7044 25.3466 26.3636 25.345 27.0229 25.3441C27.5288 25.3434 28.0348 25.3418 28.5407 25.3398C28.7479 25.3392 28.955 25.3388 29.1621 25.3388C29.4454 25.3387 29.7288 25.3375 30.0121 25.3361C30.0936 25.3363 30.175 25.3365 30.2589 25.3368C31.3304 25.3284 32.2621 25.1127 33.0468 24.3454C33.6329 23.5612 33.7638 22.7568 33.7617 21.791C33.7619 21.7222 33.7621 21.6534 33.7623 21.5825C33.7628 21.3532 33.7628 21.124 33.7627 20.8947C33.763 20.7298 33.7633 20.5649 33.7636 20.4C33.7644 19.9529 33.7646 19.5058 33.7646 19.0587C33.7647 18.7791 33.7649 18.4996 33.7651 18.22C33.7659 17.2439 33.7663 16.2679 33.7662 15.2918C33.7662 14.3831 33.7671 13.4744 33.7685 12.5657C33.7696 11.7846 33.7701 11.0034 33.7701 10.2223C33.77 9.7562 33.7703 9.2901 33.7712 8.824C33.7721 8.38546 33.7721 7.94692 33.7714 7.50838C33.7713 7.34789 33.7715 7.18739 33.7721 7.0269C33.7762 5.70659 33.7583 4.51267 32.7831 3.51532C31.8914 2.84883 30.9837 2.79892 29.9084 2.80045C29.7535 2.80015 29.7535 2.80015 29.5955 2.79984C29.31 2.79938 29.0244 2.79932 28.7389 2.79942C28.4305 2.79944 28.1222 2.79895 27.8138 2.79854C27.2101 2.79781 26.6063 2.79756 26.0026 2.79752C25.5117 2.79747 25.0208 2.79729 24.5299 2.79701C23.1373 2.79624 21.7446 2.79584 20.352 2.7959C20.277 2.7959 20.2019 2.79591 20.1246 2.79591C20.0495 2.79592 19.9744 2.79592 19.897 2.79592C18.6797 2.79596 17.4623 2.79512 16.245 2.79388C14.9942 2.79261 13.7433 2.79201 12.4925 2.79208C11.7906 2.79211 11.0887 2.79187 10.3868 2.79093C9.78923 2.79013 9.19163 2.78994 8.59402 2.79053C8.28934 2.79082 7.98467 2.79083 7.68 2.79006C7.34914 2.78938 7.01831 2.78979 6.68745 2.79047C6.59195 2.79002 6.49644 2.78956 6.39803 2.7891C5.28859 2.79411 4.33179 2.98091 3.51557 3.779Z" fill="white"/>
        <path d="M39.5672 11.2125C39.6336 11.2139 39.6999 11.2153 39.7682 11.2167C41.1866 11.2665 42.5509 11.9271 43.545 12.9335C44.6214 14.1367 45.0275 15.4882 45.0235 17.0718C45.0239 17.1873 45.0243 17.3028 45.0247 17.4218C45.0258 17.7407 45.0257 18.0595 45.0255 18.3784C45.0255 18.7229 45.0265 19.0675 45.0273 19.412C45.0288 20.0863 45.0292 20.7605 45.0293 21.4347C45.0294 21.9826 45.0298 22.5305 45.0303 23.0784C45.0319 24.6323 45.0327 26.1862 45.0326 27.7401C45.0326 27.8238 45.0326 27.9074 45.0325 27.9937C45.0325 28.0775 45.0325 28.1612 45.0325 28.2476C45.0325 29.6069 45.0341 30.9663 45.0366 32.3257C45.0391 33.7219 45.0404 35.1181 45.0402 36.5144C45.0401 37.2981 45.0406 38.0818 45.0425 38.8655C45.0441 39.5324 45.0445 40.1992 45.0433 40.8661C45.0427 41.2063 45.0427 41.5466 45.0443 41.8868C45.0459 42.2555 45.0448 42.6241 45.0434 42.9928C45.0443 43.1005 45.0452 43.2082 45.0462 43.3192C45.0416 43.8769 45.0296 44.2287 44.6484 44.6493C44.2492 45.0286 43.8816 45.0463 43.3558 45.0648C42.6588 44.911 42.09 44.3366 41.5558 43.8858C41.4247 43.7765 41.2936 43.6673 41.1623 43.5583C41.0979 43.5048 41.0336 43.4513 40.9672 43.3961C40.7017 43.1777 40.4318 42.9654 40.1605 42.7542C39.7184 42.4098 39.2818 42.0594 38.8476 41.705C37.9695 40.9873 37.9695 40.9873 37.0706 40.296C36.914 40.1669 36.914 40.1669 36.7599 39.9926C36.2007 39.4231 35.6783 39.3853 34.9213 39.3739C34.6485 39.3737 34.3759 39.3769 34.1031 39.3801C33.9062 39.3799 33.7094 39.3793 33.5125 39.3785C33.0898 39.3773 32.6671 39.3784 32.2443 39.3812C31.5754 39.3857 30.9065 39.3852 30.2375 39.3842C29.2992 39.3832 28.361 39.3845 27.4228 39.3877C26.4592 39.391 25.4956 39.3936 24.532 39.3947C24.4727 39.3948 24.4133 39.3949 24.3522 39.3949C23.3609 39.3961 22.3695 39.3961 21.3782 39.3958C20.7137 39.3957 20.0493 39.3971 19.3848 39.4C18.9708 39.4015 18.5569 39.402 18.143 39.4022C17.9516 39.4026 17.7603 39.4034 17.5689 39.4047C15.7094 39.417 15.7094 39.417 14.9414 39.1122C14.8767 39.087 14.8119 39.0617 14.7453 39.0356C13.1655 38.3902 12.227 37.2988 11.5174 35.7635C11.2412 34.9959 11.2172 34.2535 11.2174 33.4478C11.217 33.2505 11.2138 33.0533 11.2105 32.856C11.21 32.7292 11.2096 32.6023 11.2095 32.4755C11.2087 32.3617 11.208 32.248 11.2073 32.1309C11.2707 31.6648 11.4864 31.3993 11.8213 31.0812C12.2752 30.8705 12.6914 30.8722 13.1836 30.9384C13.6201 31.1411 13.8374 31.3961 14.0625 31.8173C14.1128 32.1321 14.1157 32.4438 14.1174 32.7621C14.1325 33.8639 14.2222 34.9429 15.0293 35.7724C15.858 36.3842 16.7016 36.4903 17.7081 36.4835C17.7903 36.4833 17.8725 36.4831 17.9572 36.4829C18.2318 36.4822 18.5064 36.4809 18.781 36.4796C18.9782 36.479 19.1755 36.4785 19.3727 36.478C19.7972 36.4769 20.2217 36.4756 20.6461 36.4742C21.3181 36.4722 21.99 36.4717 22.662 36.4716C22.8323 36.4716 22.8323 36.4716 23.006 36.4716C23.4147 36.4716 23.8235 36.4716 24.2322 36.4716C24.6517 36.4716 25.0711 36.4715 25.4905 36.4714C25.5802 36.4714 25.5802 36.4714 25.6717 36.4714C26.6393 36.471 27.6069 36.4678 28.5745 36.4636C29.5698 36.4594 30.5652 36.4586 31.5606 36.4606C32.1187 36.4617 32.6767 36.4612 33.2348 36.4569C33.7603 36.4529 34.2856 36.453 34.811 36.4563C35.0031 36.4567 35.1952 36.4557 35.3873 36.453C36.6412 36.4367 37.3882 36.5841 38.3203 37.4423C38.4542 37.5501 38.5886 37.6573 38.724 37.7633C38.8388 37.8592 38.9532 37.9554 39.0674 38.0521C39.1941 38.1578 39.3209 38.2634 39.4478 38.3689C39.5093 38.4202 39.5709 38.4714 39.6344 38.5243C40.2888 39.064 40.9643 39.5779 41.6367 40.0949C41.6897 40.1357 41.7427 40.1765 41.7974 40.2185C41.9274 40.3185 42.0574 40.4185 42.1875 40.5185C42.1803 37.5215 42.1722 34.5246 42.1629 31.5276C42.1618 31.1736 42.1607 30.8196 42.1596 30.4656C42.1593 30.3599 42.1593 30.3599 42.1589 30.252C42.1554 29.1116 42.1526 27.9713 42.1499 26.8309C42.1472 25.6604 42.1438 24.4898 42.1398 23.3192C42.1373 22.5972 42.1354 21.8752 42.1341 21.1532C42.1332 20.6578 42.1316 20.1623 42.1295 19.6669C42.1284 19.3813 42.1276 19.0957 42.1273 18.81C42.127 18.4997 42.1257 18.1895 42.1241 17.8792C42.1243 17.745 42.1243 17.745 42.1246 17.6082C42.1167 16.5933 41.9545 15.6086 41.2207 14.8544C40.6567 14.4381 40.1163 14.2436 39.4189 14.1623C38.8333 14.0757 38.5208 13.9229 38.1115 13.4921C37.9008 13.0382 37.9025 12.622 37.9687 12.1298C38.2923 11.433 38.8239 11.1891 39.5672 11.2125Z" fill="white"/>
        <path d="M10.057 8.39241C10.1669 8.39158 10.1669 8.39158 10.2791 8.39074C10.524 8.38934 10.7689 8.39045 11.0138 8.39156C11.1897 8.39108 11.3655 8.39046 11.5414 8.38969C12.0186 8.38809 12.4958 8.38871 12.973 8.38982C13.4725 8.39071 13.9719 8.38989 14.4714 8.38934C15.3101 8.3887 16.1489 8.38954 16.9876 8.39121C17.9573 8.39313 18.9269 8.39251 19.8966 8.39057C20.7291 8.38898 21.5617 8.38875 22.3942 8.38967C22.8915 8.39022 23.3887 8.39029 23.886 8.38913C24.3534 8.38812 24.8209 8.38882 25.2883 8.39085C25.4599 8.39132 25.6315 8.39118 25.803 8.39041C26.0372 8.38945 26.2713 8.39065 26.5055 8.39241C26.6073 8.39123 26.6073 8.39123 26.7112 8.39003C27.1664 8.39663 27.4216 8.50352 27.7734 8.78861C28.0923 9.12429 28.1522 9.39354 28.1689 9.8433C28.1522 10.2931 28.0923 10.5623 27.7734 10.898C27.3566 11.2357 27.0275 11.3002 26.5055 11.2942C26.3956 11.295 26.3956 11.295 26.2834 11.2959C26.0385 11.2973 25.7936 11.2961 25.5487 11.295C25.3728 11.2955 25.197 11.2961 25.0211 11.2969C24.5439 11.2985 24.0667 11.2979 23.5895 11.2968C23.09 11.2959 22.5906 11.2967 22.0911 11.2973C21.2524 11.2979 20.4136 11.2971 19.5749 11.2954C18.6052 11.2935 17.6356 11.2941 16.6659 11.296C15.8334 11.2976 15.0008 11.2978 14.1683 11.2969C13.671 11.2964 13.1738 11.2963 12.6765 11.2975C12.2091 11.2985 11.7416 11.2978 11.2742 11.2957C11.1026 11.2953 10.931 11.2954 10.7595 11.2962C10.5253 11.2971 10.2912 11.2959 10.057 11.2942C9.95515 11.2954 9.95515 11.2954 9.85129 11.2966C9.39608 11.29 9.14089 11.1831 8.78906 10.898C8.47017 10.5623 8.41025 10.2931 8.39355 9.8433C8.41025 9.39354 8.47017 9.12429 8.78906 8.78861C9.20586 8.45088 9.53496 8.38637 10.057 8.39241Z" fill="white"/>
        <path d="M10.4974 14.0169C10.6179 14.0164 10.7383 14.0158 10.8588 14.0151C11.1849 14.0135 11.511 14.0141 11.8372 14.0152C12.179 14.0161 12.5208 14.0153 12.8626 14.0147C13.4365 14.0141 14.0104 14.0149 14.5844 14.0166C15.2473 14.0185 15.9102 14.0179 16.5731 14.0159C17.1429 14.0143 17.7127 14.0141 18.2826 14.015C18.6226 14.0156 18.9626 14.0157 19.3027 14.0145C19.6224 14.0135 19.9421 14.0142 20.2619 14.0162C20.4347 14.0169 20.6076 14.0159 20.7805 14.0148C21.7243 14.0238 21.7243 14.0238 22.1484 14.414C22.4673 14.7497 22.5272 15.0189 22.5439 15.4687C22.5272 15.9184 22.4673 16.1877 22.1484 16.5234C21.6428 16.9885 21.0996 16.9246 20.4401 16.9204C20.3196 16.9209 20.1992 16.9215 20.0787 16.9223C19.7526 16.9239 19.4265 16.9233 19.1003 16.9221C18.7585 16.9212 18.4167 16.9221 18.0749 16.9226C17.501 16.9233 16.9271 16.9224 16.3531 16.9207C15.6902 16.9188 15.0273 16.9195 14.3644 16.9214C13.7946 16.923 13.2248 16.9232 12.6549 16.9223C12.3149 16.9217 11.9749 16.9217 11.6348 16.9228C11.3151 16.9238 10.9954 16.9231 10.6756 16.9211C10.5028 16.9204 10.3299 16.9215 10.157 16.9226C9.21316 16.9135 9.21316 16.9135 8.78906 16.5234C8.47017 16.1877 8.41025 15.9184 8.39355 15.4687C8.41025 15.0189 8.47017 14.7497 8.78906 14.414C9.29469 13.9488 9.83792 14.0127 10.4974 14.0169Z" fill="white"/>
    </g>
    <defs>
        <clipPath id="clip0_441_478">
            <rect width="45" height="45" fill="white"/>
        </clipPath>
    </defs>
</svg>