<svg width="40" height="40" viewBox="0 0 40 40" fill="none"
    xmlns="http://www.w3.org/2000/svg">
    <rect width="40" height="40" rx="8" fill="#F2F2F2"/>
    <path fill-rule="evenodd" clip-rule="evenodd" d="M29.7024 10.2976C29.4553 10.0506 29.0805 9.92353 28.7034 10.049L8.51066 16.5556L8.50385 16.559C8.37025 16.6258 8.2454 16.7537 8.15443 16.9054C8.06288 17.058 8 17.2438 8 17.4334C8 17.6231 8.06288 17.8089 8.15443 17.9615C8.2454 18.1131 8.37025 18.2411 8.50385 18.3079L8.50609 18.309L17.6685 22.3315L21.6882 31.4876C21.8228 31.8834 22.2177 32 22.5666 32C22.9438 32 23.32 31.7503 23.4464 31.3709L23.4468 31.3699L29.9489 11.1909C30.0162 11.0504 30.0117 10.8852 29.9657 10.7321C29.9187 10.5753 29.8256 10.4209 29.7024 10.2976ZM18.2237 20.4298L11.5237 17.5583L25.6773 12.9477L18.3447 20.2803C18.3182 20.3068 18.2956 20.3294 18.2781 20.3489C18.2599 20.369 18.2426 20.3908 18.2297 20.4166C18.2286 20.4187 18.2276 20.4209 18.2266 20.423C18.2256 20.4253 18.2246 20.4275 18.2237 20.4298Z" fill="#8A898E"/>
    <circle cx="33" cy="7" r="3" fill="#FF0000"/>
</svg>