<svg width="41" height="41" viewBox="0 0 41 41" fill="none" xmlns="http://www.w3.org/2000/svg">
    <path
        d="M20.4942 0C16.4408 0 12.4785 1.20267 9.10823 3.45518C5.73799 5.70768 3.11113 8.90936 1.56003 12.6553C0.0088104 16.4011 -0.396974 20.5223 0.393853 24.4993C1.18456 28.4762 3.13647 32.129 6.00255 34.9952C8.86876 37.8627 12.5204 39.8145 16.4959 40.606C20.4714 41.3974 24.5921 40.9912 28.337 39.4394C32.0818 37.8876 35.2825 35.2599 37.5344 31.8892C39.7864 28.5172 40.9884 24.5539 40.9884 20.4999C40.9831 15.0643 38.8223 9.8536 34.98 6.00955C31.1377 2.16675 25.928 0.00496968 20.4942 0ZM28.3766 22.0765H22.0706V28.3843C22.0706 28.803 21.9045 29.2043 21.6089 29.5C21.3133 29.7957 20.9123 29.9609 20.4942 29.9609C20.0761 29.9609 19.675 29.7957 19.3794 29.5C19.0838 29.2043 18.9177 28.803 18.9177 28.3843V22.0765H12.6119C12.1937 22.0765 11.7927 21.9113 11.4971 21.6143C11.2014 21.3186 11.0353 20.9186 11.0353 20.4999C11.0353 20.0812 11.2014 19.6812 11.4971 19.3855C11.7927 19.0886 12.1937 18.9233 12.6119 18.9233H18.9177V12.6155C18.9177 12.1968 19.0838 11.7955 19.3794 11.4998C19.675 11.2041 20.0761 11.0389 20.4942 11.0389C20.9123 11.0389 21.3133 11.2041 21.6089 11.4998C21.9045 11.7955 22.0706 12.1968 22.0706 12.6155V18.9233H28.3766C28.7947 18.9233 29.1956 19.0886 29.4912 19.3855C29.787 19.6812 29.953 20.0812 29.953 20.4999C29.953 20.9186 29.787 21.3186 29.4912 21.6143C29.1956 21.9113 28.7947 22.0765 28.3766 22.0765Z"
        fill="#9CAFF2" />
</svg>