<svg width="48" height="48" viewBox="0 0 48 48" fill="none"
    xmlns="http://www.w3.org/2000/svg">
    <path d="M16.221 25.4756C17.0362 25.4756 17.6971 24.8147 17.6971 23.9995C17.6971 23.1843 17.0362 22.5234 16.221 22.5234C15.4057 22.5234 14.7449 23.1843 14.7449 23.9995C14.7449 24.8147 15.4057 25.4756 16.221 25.4756Z" fill="white"/>
    <path d="M24 25.4756C24.8152 25.4756 25.4761 24.8147 25.4761 23.9995C25.4761 23.1843 24.8152 22.5234 24 22.5234C23.1848 22.5234 22.5239 23.1843 22.5239 23.9995C22.5239 24.8147 23.1848 25.4756 24 25.4756Z" fill="white"/>
    <path d="M31.7791 25.4756C32.5943 25.4756 33.2552 24.8147 33.2552 23.9995C33.2552 23.1843 32.5943 22.5234 31.7791 22.5234C30.9638 22.5234 30.303 23.1843 30.303 23.9995C30.303 24.8147 30.9638 25.4756 31.7791 25.4756Z" fill="white"/>
</svg>