<svg width="15" height="15" viewBox="0 0 15 15" fill="none" xmlns="http://www.w3.org/2000/svg"><g clip-path="url(#clip0_486_2025)"><path d="M9.33755 5.61113C10.3808 5.61113 11.2266 4.76537 11.2266 3.72207C11.2266 2.67877 10.3808 1.83301 9.33755 1.83301C8.29425 1.83301 7.44849 2.67877 7.44849 3.72207C7.44849 4.76537 8.29425 5.61113 9.33755 5.61113Z" stroke="#007581" stroke-width="2" stroke-linecap="round" stroke-linejoin="round"/><path d="M7.13438 7.4998H7.70156C7.59601 7.05183 7.34234 6.65261 6.98163 6.36677C6.62092 6.08092 6.1743 5.9252 5.71406 5.9248H2.98594C2.44266 5.9248 1.92163 6.14061 1.53747 6.52477C1.15332 6.90893 0.9375 7.42996 0.9375 7.97323C0.9375 8.51651 1.15332 9.03754 1.53747 9.4217C1.92163 9.80585 2.44266 10.0217 2.98594 10.0217H4.6125C4.6125 9.35283 4.8782 8.71138 5.35114 8.23844C5.82408 7.76549 6.46553 7.4998 7.13438 7.4998ZM4.35 4.56073C4.62111 4.56166 4.88639 4.48206 5.1122 4.33201C5.338 4.18197 5.51416 3.96825 5.61834 3.71795C5.72252 3.46765 5.75002 3.19206 5.69736 2.92611C5.64469 2.66016 5.51424 2.41585 5.32253 2.22414C5.13083 2.03244 4.88651 1.90198 4.62056 1.84932C4.35461 1.79665 4.07902 1.82415 3.82872 1.92833C3.57842 2.03251 3.3647 2.20867 3.21466 2.43448C3.06462 2.66028 2.98501 2.92556 2.98594 3.19667C2.98594 3.55844 3.12965 3.9054 3.38546 4.16121C3.64127 4.41702 3.98823 4.56073 4.35 4.56073Z" stroke="#007581" stroke-width="2" stroke-linecap="round" stroke-linejoin="round"/><path d="M11.5407 7.5H7.13442C5.74163 7.5 4.61255 8.62908 4.61255 10.0219V10.65C4.61255 12.0428 5.74163 13.1719 7.13442 13.1719H11.5407C12.9335 13.1719 14.0625 12.0428 14.0625 10.65V10.0219C14.0625 8.62908 12.9335 7.5 11.5407 7.5Z" stroke="#007581" stroke-width="2" stroke-linecap="round" stroke-linejoin="round"/></g><defs><clipPath id="clip0_486_2025"><rect width="15" height="15" fill="white"/></clipPath></defs></svg>