<svg width="279" height="38" viewBox="0 0 279 38" fill="none"
    xmlns="http://www.w3.org/2000/svg">
    <path d="M0 10.9221V0.80847H0.529053V10.9221H0ZM2.41994 3.24868V2.94C2.64528 2.94 2.80693 2.91551 2.9049 2.86651C3.01267 2.80771 3.08125 2.70968 3.10942 2.57248C3.14003 2.43528 3.15473 2.24909 3.15473 2.01388V1.76397H2.86082V0.80847H3.56622V1.911C3.56622 2.1756 3.54663 2.39608 3.50744 2.57248C3.47805 2.73908 3.41926 2.87628 3.33108 2.98408C3.2527 3.08208 3.14003 3.15068 2.99307 3.18988C2.84611 3.22908 2.65507 3.24868 2.41994 3.24868ZM5.67876 10.9221V3.4251H6.09024L6.13433 4.64521H6.19311C6.26169 4.41001 6.37436 4.19439 6.53112 3.99839C6.68788 3.79259 6.92792 3.626 7.25123 3.4986C7.57454 3.3712 8.01541 3.30749 8.57386 3.30749C9.30865 3.30749 9.8475 3.41041 10.1904 3.61621C10.5431 3.82201 10.7783 4.165 10.8958 4.64521H10.9693C11.0379 4.41001 11.1554 4.19439 11.322 3.99839C11.4886 3.79259 11.7384 3.626 12.0715 3.4986C12.4046 3.3712 12.8504 3.30749 13.4088 3.30749C14.1142 3.30749 14.6433 3.40548 14.996 3.60148C15.3487 3.78768 15.5789 4.09639 15.6867 4.5276C15.8043 4.949 15.863 5.51251 15.863 6.21811V10.9221H15.3487V6.29161C15.3487 5.7428 15.3242 5.30671 15.2752 4.98331C15.2262 4.65011 15.1282 4.39532 14.9813 4.21892C14.8441 4.04251 14.6384 3.92488 14.3641 3.86608C14.0995 3.80728 13.7468 3.77789 13.306 3.77789C12.7377 3.77789 12.2968 3.85628 11.9833 4.01308C11.6698 4.16008 11.4445 4.38059 11.3073 4.67459C11.1799 4.95879 11.1016 5.30179 11.0722 5.70359C11.0428 6.10539 11.0281 6.55131 11.0281 7.04131V10.9221H10.5137V6.29161C10.5137 5.7428 10.4892 5.30671 10.4402 4.98331C10.3913 4.65011 10.2933 4.39532 10.1463 4.21892C10.0092 4.04251 9.80343 3.92488 9.5291 3.86608C9.26457 3.80728 8.91186 3.77789 8.47099 3.77789C7.90274 3.77789 7.46187 3.86121 7.14836 4.02781C6.83484 4.19441 6.6095 4.42959 6.47234 4.7334C6.34498 5.0274 6.2666 5.37529 6.23721 5.77709C6.20781 6.16909 6.19311 6.59051 6.19311 7.04131V10.9221H5.67876ZM22.0525 10.9221V3.8955H20.4653V3.4251H22.0525V1.24949H22.5668V3.4251H24.4185V3.8955H22.5668V10.9221H22.0525ZM26.0375 10.9221V0H26.5519V4.5276H26.6107C26.6793 4.3414 26.7968 4.1552 26.9634 3.969C27.1299 3.7828 27.3896 3.626 27.7423 3.4986C28.1048 3.3712 28.5995 3.30749 29.2266 3.30749C29.8242 3.30749 30.3043 3.36138 30.6668 3.46918C31.0293 3.57698 31.3036 3.7436 31.4897 3.969C31.6857 4.1944 31.813 4.4933 31.8718 4.8657C31.9404 5.2381 31.9747 5.68891 31.9747 6.21811V10.9221H31.4603V6.29161C31.4603 5.7428 31.4309 5.30671 31.3722 4.98331C31.3134 4.65011 31.2007 4.39532 31.0341 4.21892C30.8676 4.04251 30.6276 3.92488 30.3141 3.86608C30.0103 3.80728 29.6135 3.77789 29.1237 3.77789C28.4771 3.77789 27.9774 3.86121 27.6247 4.02781C27.272 4.19441 27.0173 4.42959 26.8605 4.7334C26.7136 5.0274 26.6254 5.37529 26.596 5.77709C26.5666 6.16909 26.5519 6.59051 26.5519 7.04131V10.9221H26.0375ZM34.5538 0.896697V0H35.1858V0.896697H34.5538ZM34.6126 10.9221V3.4251H35.127V10.9221H34.6126ZM37.7772 10.9221V3.4251H38.1886L38.2327 4.64521H38.2915C38.3699 4.41001 38.4972 4.19439 38.6736 3.99839C38.8499 3.79259 39.1194 3.626 39.4819 3.4986C39.8444 3.3712 40.3391 3.30749 40.9662 3.30749C41.5638 3.30749 42.0439 3.36138 42.4064 3.46918C42.7689 3.57698 43.0432 3.7436 43.2293 3.969C43.4253 4.1944 43.5526 4.4933 43.6114 4.8657C43.68 5.2381 43.7143 5.68891 43.7143 6.21811V10.9221H43.1999V6.29161C43.1999 5.7428 43.1705 5.30671 43.1118 4.98331C43.053 4.65011 42.9403 4.39532 42.7738 4.21892C42.6072 4.04251 42.3672 3.92488 42.0537 3.86608C41.7499 3.80728 41.3532 3.77789 40.8633 3.77789C40.2167 3.77789 39.717 3.86121 39.3643 4.02781C39.0116 4.19441 38.7569 4.42959 38.6001 4.7334C38.4532 5.0274 38.365 5.37529 38.3356 5.77709C38.3062 6.16909 38.2915 6.59051 38.2915 7.04131V10.9221H37.7772ZM46.3522 10.9221V0H46.8666V6.8502H48.1157L51.246 3.4251H51.8926L48.5419 7.07069L51.9367 10.9221H51.2607L48.1157 7.35003H46.8666V10.9221H46.3522ZM53.6353 0.896697V0H54.2672V0.896697H53.6353ZM53.6941 10.9221V3.4251H54.2084V10.9221H53.6941ZM56.8586 10.9221V3.4251H57.2701L57.3142 4.64521H57.373C57.4513 4.41001 57.5787 4.19439 57.755 3.99839C57.9314 3.79259 58.2008 3.626 58.5633 3.4986C58.9258 3.3712 59.4206 3.30749 60.0476 3.30749C60.6453 3.30749 61.1253 3.36138 61.4878 3.46918C61.8503 3.57698 62.1246 3.7436 62.3108 3.969C62.5067 4.1944 62.6341 4.4933 62.6929 4.8657C62.7615 5.2381 62.7958 5.68891 62.7958 6.21811V10.9221H62.2814V6.29161C62.2814 5.7428 62.252 5.30671 62.1932 4.98331C62.1344 4.65011 62.0218 4.39532 61.8552 4.21892C61.6887 4.04251 61.4486 3.92488 61.1351 3.86608C60.8314 3.80728 60.4346 3.77789 59.9448 3.77789C59.2981 3.77789 58.7985 3.86121 58.4458 4.02781C58.0931 4.19441 57.8383 4.42959 57.6816 4.7334C57.5346 5.0274 57.4464 5.37529 57.4171 5.77709C57.3877 6.16909 57.373 6.59051 57.373 7.04131V10.9221H56.8586ZM68.079 13.9503C67.7654 13.9503 67.4372 13.9454 67.0943 13.9356C66.7612 13.9258 66.4379 13.9111 66.1244 13.8915C65.8207 13.8817 65.5561 13.867 65.3308 13.8474V13.3623C65.6149 13.3819 65.9137 13.4015 66.2273 13.4211C66.5506 13.4407 66.8641 13.4554 67.1678 13.4652C67.4715 13.475 67.7507 13.4799 68.0055 13.4799C68.6129 13.4799 69.0979 13.426 69.4604 13.3182C69.8229 13.2104 70.0972 13.0291 70.2833 12.7743C70.4695 12.5195 70.592 12.1667 70.6507 11.7159C70.7095 11.2749 70.7389 10.7163 70.7389 10.0401V9.83432H70.6801C70.5626 10.1283 70.3862 10.3635 70.1511 10.5399C69.9159 10.7163 69.622 10.8437 69.2693 10.9221C68.9166 11.0005 68.5002 11.0397 68.0202 11.0397C67.3931 11.0397 66.8837 10.9858 66.4918 10.878C66.1097 10.7604 65.8158 10.5644 65.61 10.29C65.4043 10.0058 65.2622 9.6138 65.1839 9.114C65.1055 8.6044 65.0663 7.95761 65.0663 7.17361C65.0663 6.38961 65.1055 5.74772 65.1839 5.24791C65.2622 4.73831 65.4043 4.34628 65.61 4.07188C65.8158 3.78768 66.1097 3.59171 66.4918 3.48391C66.8837 3.3663 67.3931 3.30749 68.0202 3.30749C68.4121 3.30749 68.7893 3.33688 69.1517 3.39568C69.5143 3.45448 69.8327 3.58189 70.107 3.77789C70.3911 3.96409 70.6018 4.25321 70.7389 4.64521H70.7977L70.8418 3.4251H71.2533V9.8637C71.2533 10.6379 71.2141 11.2847 71.1357 11.8041C71.0671 12.3333 70.9202 12.7547 70.6948 13.0683C70.4793 13.3819 70.1609 13.6073 69.7396 13.7445C69.3281 13.8817 68.7746 13.9503 68.079 13.9503ZM68.1671 10.5693C68.8236 10.5693 69.3428 10.4762 69.7249 10.29C70.1168 10.1038 70.3813 9.8 70.5185 9.3786C70.6263 9.0748 70.6899 8.74652 70.7095 8.39372C70.7291 8.03112 70.7389 7.62441 70.7389 7.17361C70.7389 6.73261 70.7291 6.34062 70.7095 5.99762C70.6997 5.64481 70.6507 5.3361 70.5626 5.0715C70.4058 4.5913 70.1266 4.25808 69.7249 4.07188C69.333 3.87588 68.8138 3.77789 68.1671 3.77789C67.6087 3.77789 67.158 3.8171 66.8151 3.8955C66.4722 3.9739 66.2126 4.13071 66.0362 4.36591C65.8599 4.59131 65.7374 4.92942 65.6688 5.38022C65.61 5.83102 65.5806 6.42881 65.5806 7.17361C65.5806 7.91841 65.61 8.5162 65.6688 8.967C65.7374 9.4178 65.8599 9.7608 66.0362 9.996C66.2126 10.2214 66.4722 10.3733 66.8151 10.4517C67.158 10.5301 67.6087 10.5693 68.1671 10.5693ZM79.6789 11.0397C79.0813 11.0397 78.5865 11.0054 78.1947 10.9368C77.8126 10.878 77.5039 10.7702 77.2688 10.6134C77.0435 10.4468 76.8769 10.2165 76.7691 9.92251C76.6614 9.6285 76.5928 9.26101 76.5634 8.82001C76.534 8.36921 76.5193 7.8253 76.5193 7.1883C76.5193 6.5513 76.534 6.0074 76.5634 5.5566C76.5928 5.10579 76.6614 4.73341 76.7691 4.43941C76.8769 4.14541 77.0435 3.92 77.2688 3.7632C77.5039 3.5966 77.8126 3.47901 78.1947 3.41041C78.5865 3.34181 79.0813 3.30749 79.6789 3.30749C80.2766 3.30749 80.7664 3.34181 81.1485 3.41041C81.5404 3.47901 81.849 3.5966 82.0744 3.7632C82.3095 3.92 82.481 4.14541 82.5887 4.43941C82.6965 4.73341 82.7651 5.10579 82.7945 5.5566C82.8239 6.0074 82.8386 6.5513 82.8386 7.1883C82.8386 7.8253 82.8239 8.36921 82.7945 8.82001C82.7651 9.26101 82.6965 9.6285 82.5887 9.92251C82.481 10.2165 82.3095 10.4468 82.0744 10.6134C81.849 10.7702 81.5404 10.878 81.1485 10.9368C80.7664 11.0054 80.2766 11.0397 79.6789 11.0397ZM79.6789 10.5693C80.3452 10.5693 80.8595 10.5252 81.222 10.437C81.5845 10.3488 81.8393 10.1871 81.9862 9.95193C82.143 9.71673 82.236 9.37862 82.2654 8.93762C82.3046 8.48682 82.3242 7.9037 82.3242 7.1883C82.3242 6.4729 82.3046 5.88979 82.2654 5.43898C82.236 4.98818 82.143 4.64519 81.9862 4.40999C81.8393 4.16498 81.5845 3.9984 81.222 3.9102C80.8595 3.822 80.3452 3.77789 79.6789 3.77789C79.0225 3.77789 78.5082 3.822 78.1359 3.9102C77.7734 3.9984 77.5138 4.16498 77.357 4.40999C77.21 4.64519 77.1169 4.98818 77.0778 5.43898C77.0484 5.88979 77.0337 6.4729 77.0337 7.1883C77.0337 7.9037 77.0484 8.48682 77.0778 8.93762C77.1169 9.37862 77.21 9.71673 77.357 9.95193C77.5138 10.1871 77.7734 10.3488 78.1359 10.437C78.5082 10.5252 79.0225 10.5693 79.6789 10.5693ZM85.6761 10.9221V3.8955H84.089V3.4251H85.6761V1.73459C85.6761 1.42099 85.7104 1.1613 85.779 0.955502C85.8476 0.749701 85.9504 0.583076 86.0876 0.455676C86.2248 0.328275 86.3962 0.230287 86.602 0.161687C86.8077 0.0930863 87.0429 0.048984 87.3074 0.029384C87.5719 0.00978388 87.8658 0 88.1891 0V0.440984C87.7972 0.440984 87.4739 0.460589 87.2192 0.499789C86.9645 0.529189 86.7587 0.587967 86.602 0.676167C86.455 0.764368 86.3472 0.886891 86.2786 1.04369C86.2199 1.20049 86.1905 1.4014 86.1905 1.6464V3.4251H88.1891V3.8955H86.1905V10.9221H85.6761ZM95.1317 11.0397C94.877 11.0397 94.5929 11.0299 94.2794 11.0103C93.9756 11.0005 93.6768 10.9809 93.3829 10.9515C93.089 10.9319 92.8245 10.9074 92.5893 10.878V10.3929C92.9322 10.4321 93.2213 10.4615 93.4564 10.4811C93.6915 10.5007 93.9022 10.5203 94.0883 10.5399C94.2843 10.5497 94.4753 10.5595 94.6615 10.5693C94.8574 10.5693 95.0827 10.5693 95.3375 10.5693C95.9057 10.5693 96.327 10.5154 96.6013 10.4076C96.8756 10.2998 97.0569 10.1283 97.1451 9.89312C97.2332 9.65792 97.2773 9.3492 97.2773 8.967C97.2773 8.5162 97.243 8.19281 97.1745 7.99681C97.1059 7.79101 96.9883 7.6587 96.8218 7.5999C96.665 7.5411 96.4397 7.497 96.1458 7.4676L93.9708 7.2618C93.5397 7.2128 93.2066 7.12952 92.9714 7.01192C92.7363 6.89432 92.5746 6.70809 92.4865 6.45329C92.3983 6.19849 92.3542 5.86039 92.3542 5.43898C92.3542 4.94898 92.413 4.56188 
    92.5306 4.27768C92.6579 3.98368 92.8441 3.7681 93.089 3.6309C93.3339 3.4937 93.6327 3.40549 93.9854 3.36629C94.3381 3.32709 94.7398 3.30749 95.1905 3.30749C95.4159 3.30749 95.6559 3.31731 95.9106 3.33691C96.1751 3.34671 96.4348 3.36628 96.6895 3.39568C96.9442 3.41528 97.1745 3.4447 97.3802 3.48391V3.969C97.0961 3.92 96.8267 3.88079 96.5719 3.85139C96.327 3.82199 96.0723 3.80239 95.8077 3.79259C95.553 3.78279 95.264 3.77789 94.9407 3.77789C94.539 3.77789 94.1814 3.80728 93.8679 3.86608C93.5544 3.91508 93.3094 4.04739 93.1331 4.26299C92.9567 4.47859 92.8686 4.8363 92.8686 5.3361C92.8686 5.7281 92.9029 6.02211 92.9714 6.21811C93.04 6.40431 93.1576 6.53169 93.3241 6.60029C93.5005 6.66889 93.7356 6.71792 94.0295 6.74732L96.1311 6.95312C96.5817 6.99232 96.9246 7.06581 97.1598 7.17361C97.3949 7.28141 97.5566 7.47249 97.6447 7.7469C97.7427 8.0115 97.7917 8.4182 97.7917 8.967C97.7917 9.3982 97.7427 9.75102 97.6447 10.0254C97.5468 10.29 97.39 10.4958 97.1745 10.6428C96.9589 10.7898 96.6797 10.8927 96.3368 10.9515C96.0037 11.0103 95.602 11.0397 95.1317 11.0397ZM99.8638 0.896697V0H100.496V0.896697H99.8638ZM99.9226 10.9221V3.4251H100.437V10.9221H99.9226ZM105.732 13.9503C105.419 13.9503 105.091 13.9454 104.748 13.9356C104.415 13.9258 104.091 13.9111 103.778 13.8915C103.474 13.8817 103.21 13.867 102.984 13.8474V13.3623C103.268 13.3819 103.567 13.4015 103.881 13.4211C104.204 13.4407 104.518 13.4554 104.821 13.4652C105.125 13.475 105.404 13.4799 105.659 13.4799C106.266 13.4799 106.751 13.426 107.114 13.3182C107.476 13.2104 107.751 13.0291 107.937 12.7743C108.123 12.5195 108.245 12.1667 108.304 11.7159C108.363 11.2749 108.392 10.7163 108.392 10.0401V9.83432H108.334C108.216 10.1283 108.04 10.3635 107.805 10.5399C107.569 10.7163 107.275 10.8437 106.923 10.9221C106.57 11.0005 106.154 11.0397 105.674 11.0397C105.047 11.0397 104.537 10.9858 104.145 10.878C103.763 10.7604 103.469 10.5644 103.263 10.29C103.058 10.0058 102.916 9.6138 102.837 9.114C102.759 8.6044 102.72 7.95761 102.72 7.17361C102.72 6.38961 102.759 5.74772 102.837 5.24791C102.916 4.73831 103.058 4.34628 103.263 4.07188C103.469 3.78768 103.763 3.59171 104.145 3.48391C104.537 3.3663 105.047 3.30749 105.674 3.30749C106.066 3.30749 106.443 3.33688 106.805 3.39568C107.168 3.45448 107.486 3.58189 107.76 3.77789C108.045 3.96409 108.255 4.25321 108.392 4.64521H108.451L108.495 3.4251H108.907V9.8637C108.907 10.6379 108.868 11.2847 108.789 11.8041C108.721 12.3333 108.574 12.7547 108.348 13.0683C108.133 13.3819 107.814 13.6073 107.393 13.7445C106.982 13.8817 106.428 13.9503 105.732 13.9503ZM105.821 10.5693C106.477 10.5693 106.996 10.4762 107.378 10.29C107.77 10.1038 108.035 9.8 108.172 9.3786C108.28 9.0748 108.343 8.74652 108.363 8.39372C108.383 8.03112 108.392 7.62441 108.392 7.17361C108.392 6.73261 108.383 6.34062 108.363 5.99762C108.353 5.64481 108.304 5.3361 108.216 5.0715C108.059 4.5913 107.78 4.25808 107.378 4.07188C106.986 3.87588 106.467 3.77789 105.821 3.77789C105.262 3.77789 104.811 3.8171 104.469 3.8955C104.126 3.9739 103.866 4.13071 103.69 4.36591C103.513 4.59131 103.391 4.92942 103.322 5.38022C103.263 5.83102 103.234 6.42881 103.234 7.17361C103.234 7.91841 103.263 8.5162 103.322 8.967C103.391 9.4178 103.513 9.7608 103.69 9.996C103.866 10.2214 104.126 10.3733 104.469 10.4517C104.811 10.5301 105.262 10.5693 105.821 10.5693ZM111.547 10.9221V3.4251H111.959L112.003 4.64521H112.061C112.14 4.41001 112.267 4.19439 112.444 3.99839C112.62 3.79259 112.889 3.626 113.252 3.4986C113.614 3.3712 114.109 3.30749 114.736 3.30749C115.334 3.30749 115.814 3.36138 116.176 3.46918C116.539 3.57698 116.813 3.7436 116.999 3.969C117.195 4.1944 117.323 4.4933 117.381 4.8657C117.45 5.2381 117.484 5.68891 117.484 6.21811V10.9221H116.97V6.29161C116.97 5.7428 116.941 5.30671 116.882 4.98331C116.823 4.65011 116.71 4.39532 116.544 4.21892C116.377 4.04251 116.137 3.92488 115.824 3.86608C115.52 3.80728 115.123 3.77789 114.633 3.77789C113.987 3.77789 113.487 3.86121 113.134 4.02781C112.782 4.19441 112.527 4.42959 112.37 4.7334C112.223 5.0274 112.135 5.37529 112.106 5.77709C112.076 6.16909 112.061 6.59051 112.061 7.04131V10.9221H111.547ZM120.063 0.896697V0H120.695V0.896697H120.063ZM120.122 10.9221V3.4251H120.637V10.9221H120.122ZM123.288 10.9221V3.4251H123.699L123.744 4.64521H123.802C123.881 4.41001 124.008 4.19439 124.184 3.99839C124.361 3.79259 124.63 3.626 124.993 3.4986C125.355 3.3712 125.85 3.30749 126.477 3.30749C127.075 3.30749 127.555 3.36138 127.917 3.46918C128.28 3.57698 128.554 3.7436 128.74 3.969C128.936 4.1944 129.063 4.4933 129.122 4.8657C129.191 5.2381 129.225 5.68891 129.225 6.21811V10.9221H128.711V6.29161C128.711 5.7428 128.681 5.30671 128.623 4.98331C128.564 4.65011 128.451 4.39532 128.285 4.21892C128.118 4.04251 127.878 3.92488 127.564 3.86608C127.261 3.80728 126.864 3.77789 126.374 3.77789C125.727 3.77789 125.228 3.86121 124.875 4.02781C124.522 4.19441 124.268 4.42959 124.111 4.7334C123.964 5.0274 123.876 5.37529 123.846 5.77709C123.817 6.16909 123.802 6.59051 123.802 7.04131V10.9221H123.288ZM134.508 13.9503C134.195 13.9503 133.867 13.9454 133.524 13.9356C133.191 13.9258 132.867 13.9111 132.554 13.8915C132.25 13.8817 131.985 13.867 131.76 13.8474V13.3623C132.044 13.3819 132.343 13.4015 132.657 13.4211C132.98 13.4407 133.293 13.4554 133.597 13.4652C133.901 13.475 134.18 13.4799 134.435 13.4799C135.042 13.4799 135.527 13.426 135.89 13.3182C136.252 13.2104 136.527 13.0291 136.713 12.7743C136.899 12.5195 137.021 12.1667 137.08 11.7159C137.139 11.2749 137.168 10.7163 137.168 10.0401V9.83432H137.109C136.992 10.1283 136.816 10.3635 136.58 10.5399C136.345 10.7163 136.051 10.8437 135.699 10.9221C135.346 11.0005 134.93 11.0397 134.449 11.0397C133.822 11.0397 133.313 10.9858 132.921 10.878C132.539 10.7604 132.245 10.5644 132.039 10.29C131.834 10.0058 131.692 9.6138 131.613 9.114C131.535 8.6044 131.496 7.95761 131.496 7.17361C131.496 6.38961 131.535 5.74772 131.613 5.24791C131.692 4.73831 131.834 4.34628 132.039 4.07188C132.245 3.78768 132.539 3.59171 132.921 3.48391C133.313 3.3663 133.822 3.30749 134.449 3.30749C134.841 3.30749 135.219 3.33688 135.581 3.39568C135.944 3.45448 136.262 3.58189 136.536 3.77789C136.82 3.96409 137.031 4.25321 137.168 4.64521H137.227L137.271 3.4251H137.683V9.8637C137.683 10.6379 137.643 11.2847 137.565 11.8041C137.496 12.3333 137.35 12.7547 137.124 13.0683C136.909 13.3819 136.59 13.6073 136.169 13.7445C135.757 13.8817 135.204 13.9503 134.508 13.9503ZM134.596 10.5693C135.253 10.5693 135.772 10.4762 136.154 10.29C136.546 10.1038 136.811 9.8 136.948 9.3786C137.056 9.0748 137.119 8.74652 137.139 8.39372C137.158 8.03112 137.168 7.62441 137.168 7.17361C137.168 6.73261 137.158 6.34062 137.139 5.99762C137.129 5.64481 137.08 5.3361 136.992 5.0715C136.835 4.5913 136.556 4.25808 136.154 4.07188C135.762 3.87588 135.243 3.77789 134.596 3.77789C134.038 3.77789 133.587 3.8171 133.244 3.8955C132.902 3.9739 132.642 4.13071 132.466 4.36591C132.289 4.59131 132.167 4.92942 132.098 5.38022C132.039 5.83102 132.01 6.42881 132.01 7.17361C132.01 7.91841 132.039 8.5162 132.098 8.967C132.167 9.4178 132.289 9.7608 132.466 9.996C132.642 10.2214 132.902 10.3733 133.244 10.4517C133.587 10.5301 134.038 10.5693 134.596 10.5693ZM146.064 11.0397C145.467 11.0397 144.987 10.9858 144.624 10.878C144.261 10.7702 143.982 10.6036 143.786 10.3782C143.6 10.1528 143.473 9.85392 143.404 9.48152C143.345 9.10912 143.316 8.65831 143.316 8.12911V3.4251H143.83V8.05561C143.83 8.59462 143.86 9.03071 143.919 9.36391C143.977 9.69711 144.09 9.9519 144.257 10.1283C144.423 10.3047 144.658 10.4223 144.962 10.4811C145.275 10.5399 145.677 10.5693 146.167 10.5693C146.814 10.5693 147.313 10.486 147.666 10.3194C148.019 10.1528 148.269 9.92252 148.416 9.62852C148.572 9.32471 148.665 8.97683 148.695 8.58482C148.724 8.18302 148.739 7.75671 148.739 7.30591V3.4251H149.253V10.9221H148.842L148.798 9.70201H148.739C148.66 9.93721 148.533 10.1577 148.357 10.3635C148.18 10.5595 147.911 10.7212 147.548 10.8486C147.186 10.976 146.691 11.0397 146.064 11.0397ZM151.891 13.8621V3.4251H152.303L152.347 4.64521H152.405C152.543 4.25321 152.748 3.96409 153.023 3.77789C153.307 3.58189 153.63 3.45448 153.993 3.39568C154.355 3.33688 154.732 3.30749 155.124 3.30749C155.751 3.30749 156.256 3.3663 156.638 3.48391C157.03 3.59171 157.329 3.78768 157.534 4.07188C157.74 4.34628 157.882 4.73831 157.961 5.24791C158.039 5.74772 158.078 6.38961 158.078 7.17361C158.078 7.95761 158.039 8.6044 157.961 9.114C157.882 9.6138 157.74 10.0058 157.534 10.29C157.329 10.5644 157.03 10.7604 156.638 10.878C156.256 10.9858 155.751 11.0397 155.124 11.0397C154.644 11.0397 154.228 11.0005 153.875 10.9221C153.522 10.8437 153.228 10.7163 152.993 10.5399C152.758 10.3635 152.582 10.1283 152.464 9.83432H152.405V13.8621H151.891ZM154.977 10.5693C155.536 10.5693 155.986 10.5301 156.329 10.4517C156.672 10.3733 156.932 10.2214 157.108 9.996C157.285 9.7608 157.402 9.4178 157.461 8.967C157.529 8.5162 157.564 7.91841 157.564 7.17361C157.564 6.42881 157.529 5.83102 157.461 5.38022C157.402 4.92942 157.285 4.59131 157.108 4.36591C156.932 4.13071 156.672 3.9739 156.329 3.8955C155.986 3.8171 155.536 3.77789 154.977 3.77789C154.331 3.77789 153.807 3.87099 153.405 4.05719C153.013 4.24339 152.748 4.55211 152.611 4.98331C152.513 5.28711 152.454 5.62029 152.435 5.98289C152.415 6.33569 152.405 6.73261 152.405 7.17361C152.405 7.62441 152.415 8.02622 152.435 8.37902C152.454 8.72203 152.499 9.00621 152.567 9.23161C152.734 9.72161 153.013 10.0695 153.405 10.2753C153.797 10.4713 154.321 10.5693 154.977 10.5693ZM159.822 10.9221V9.96662H160.527V10.9221H159.822ZM165.854 10.9221V0.80847H166.383V5.5566H172.79V0.80847H173.319V10.9221H172.79V6.05642H166.383V10.9221H165.854ZM178.379 11.0397C177.762 11.0397 177.253 10.9858 176.851 10.878C176.449 10.7702 176.15 10.5644 175.955 10.2606C175.768 9.94701 175.675 9.49131 175.675 8.89351C175.675 8.3447 175.739 7.91839 175.866 7.61459C175.994 7.30099
    176.219 7.08052 176.542 6.95312C176.866 6.82572 177.316 6.76201 177.894 6.76201C178.012 6.76201 178.193 6.7669 178.438 6.7767C178.683 6.7767 178.962 6.78159 179.276 6.79139C179.599 6.80119 179.922 6.81102 180.246 6.82082C180.579 6.82082 180.887 6.82571 181.172 6.83551V6.1593C181.172 5.6105 181.137 5.1793 181.069 4.8657C181.01 4.5423 180.887 4.30218 180.701 4.14538C180.525 3.98858 180.265 3.89059 179.922 3.85139C179.58 3.80239 179.134 3.77789 178.585 3.77789C178.36 3.77789 178.095 3.78768 177.791 3.80728C177.498 3.82688 177.209 3.85141 176.924 3.88081C176.64 3.90041 176.4 3.9298 176.204 3.969V3.48391C176.498 3.4349 176.871 3.39569 177.321 3.36629C177.772 3.32709 178.262 3.30749 178.791 3.30749C179.271 3.30749 179.677 3.33199 180.011 3.38099C180.353 3.42999 180.633 3.5133 180.848 3.6309C181.074 3.7485 181.245 3.91509 181.363 4.13069C181.48 4.33649 181.563 4.6011 181.612 4.9245C181.661 5.2381 181.686 5.62031 181.686 6.07111V10.9221H181.274L181.23 9.70201H181.172C181.034 10.1038 180.809 10.4027 180.496 10.5987C180.192 10.7849 179.849 10.9025 179.467 10.9515C179.095 11.0103 178.732 11.0397 178.379 11.0397ZM178.365 10.5693C178.708 10.5693 179.041 10.5546 179.364 10.5252C179.697 10.486 179.991 10.4076 180.246 10.29C180.5 10.1626 180.692 9.96172 180.819 9.68732C180.956 9.39332 181.049 9.10421 181.098 8.82001C181.147 8.52601 181.172 8.19772 181.172 7.83512V7.23242H178.041C177.551 7.23242 177.169 7.27163 176.895 7.35003C176.631 7.42843 176.444 7.58519 176.337 7.82039C176.239 8.05559 176.19 8.4133 176.19 8.89351C176.19 9.34431 176.248 9.69223 176.366 9.93723C176.484 10.1822 176.699 10.3488 177.013 10.437C177.326 10.5252 177.777 10.5693 178.365 10.5693ZM186.292 10.9221L183.235 3.4251H183.794L186.512 10.2018H186.6L189.319 3.4251H189.863L186.806 10.9221H186.292ZM194.224 11.0397C193.666 11.0397 193.195 11.0054 192.813 10.9368C192.441 10.8682 192.137 10.7506 191.902 10.584C191.667 10.4076 191.486 10.1724 191.358 9.87843C191.241 9.58443 191.157 9.2169 191.108 8.77589C191.069 8.33489 191.05 7.8057 191.05 7.1883C191.05 6.4533 191.074 5.8408 191.123 5.3508C191.172 4.85099 191.295 4.45411 191.491 4.16011C191.687 3.85631 192.005 3.64069 192.446 3.51329C192.887 3.37609 193.494 3.30749 194.268 3.30749C194.807 3.30749 195.248 3.3467 195.591 3.4251C195.943 3.5035 196.218 3.63088 196.414 3.80728C196.619 3.97388 196.771 4.2091 196.869 4.5129C196.967 4.80691 197.031 5.1744 197.06 5.6154C197.09 6.0466 197.104 6.56112 197.104 7.15892V7.35003H191.564C191.564 7.99683 191.593 8.53091 191.652 8.95231C191.711 9.37371 191.829 9.70203 192.005 9.93723C192.181 10.1724 192.451 10.339 192.813 10.437C193.185 10.5252 193.68 10.5693 194.297 10.5693C194.562 10.5693 194.846 10.5595 195.15 10.5399C195.454 10.5203 195.747 10.4958 196.032 10.4664C196.326 10.437 196.585 10.4027 196.81 10.3635V10.8486C196.624 10.8878 196.384 10.9221 196.09 10.9515C195.806 10.9809 195.503 11.0005 195.179 11.0103C194.856 11.0299 194.538 11.0397 194.224 11.0397ZM196.59 7.17361V6.5709C196.59 5.9437 196.551 5.4439 196.472 5.0715C196.404 4.6991 196.281 4.41981 196.105 4.23361C195.929 4.04741 195.684 3.92488 195.37 3.86608C195.067 3.80728 194.684 3.77789 194.224 3.77789C193.626 3.77789 193.146 3.8171 192.784 3.8955C192.431 3.9641 192.167 4.1062 191.99 4.3218C191.814 4.5374 191.696 4.851 191.638 5.26261C191.589 5.66441 191.564 6.20342 191.564 6.87962H196.884L196.59 7.17361ZM205.072 13.9503C204.788 13.9503 204.489 13.9454 204.176 13.9356C203.872 13.9258 203.578 13.9111 203.294 13.8915C203.02 13.8817 202.779 13.867 202.574 13.8474V13.3623C202.838 13.3819 203.113 13.4015 203.397 13.4211C203.681 13.4407 203.96 13.4554 204.234 13.4652C204.509 13.475 204.763 13.4799 204.999 13.4799C205.635 13.4799 206.14 13.4162 206.512 13.2888C206.894 13.1614 207.174 12.9654 207.35 12.7008C207.536 12.4362 207.654 12.0981 207.703 11.6865C207.761 11.2749 207.791 10.7849 207.791 10.2165V9.81962H207.732C207.673 9.99602 207.556 10.1822 207.379 10.3782C207.213 10.5644 206.948 10.7212 206.586 10.8486C206.233 10.976 205.743 11.0397 205.116 11.0397C204.519 11.0397 204.038 10.9858 203.676 10.878C203.313 10.7702 203.034 10.6036 202.838 10.3782C202.652 10.1528 202.525 9.85392 202.456 9.48152C202.397 9.10912 202.368 8.65831 202.368 8.12911V3.4251H202.882V8.05561C202.882 8.59462 202.912 9.03071 202.971 9.36391C203.029 9.69711 203.142 9.9519 203.309 10.1283C203.475 10.3047 203.71 10.4223 204.014 10.4811C204.327 10.5399 204.729 10.5693 205.219 10.5693C205.866 10.5693 206.365 10.486 206.718 10.3194C207.071 10.1528 207.321 9.92252 207.467 9.62852C207.624 9.32471 207.717 8.97683 207.747 8.58482C207.776 8.18302 207.791 7.75671 207.791 7.30591V3.4251H208.305V9.93723C208.305 10.682 208.261 11.3092 208.173 11.8188C208.095 12.3382 207.943 12.7498 207.717 13.0536C207.492 13.3672 207.164 13.5926 206.733 13.7298C206.311 13.8768 205.758 13.9503 205.072 13.9503ZM213.735 11.0397C213.138 11.0397 212.643 11.0054 212.251 10.9368C211.869 10.878 211.56 10.7702 211.325 10.6134C211.1 10.4468 210.933 10.2165 210.826 9.92251C210.718 9.6285 210.649 9.26101 210.62 8.82001C210.59 8.36921 210.576 7.8253 210.576 7.1883C210.576 6.5513 210.59 6.0074 210.62 5.5566C210.649 5.10579 210.718 4.73341 210.826 4.43941C210.933 4.14541 211.1 3.92 211.325 3.7632C211.56 3.5966 211.869 3.47901 212.251 3.41041C212.643 3.34181 213.138 3.30749 213.735 3.30749C214.333 3.30749 214.823 3.34181 215.205 3.41041C215.597 3.47901 215.905 3.5966 216.131 3.7632C216.366 3.92 216.537 4.14541 216.645 4.43941C216.753 4.73341 216.821 5.10579 216.851 5.5566C216.88 6.0074 216.895 6.5513 216.895 7.1883C216.895 7.8253 216.88 8.36921 216.851 8.82001C216.821 9.26101 216.753 9.6285 216.645 9.92251C216.537 10.2165 216.366 10.4468 216.131 10.6134C215.905 10.7702 215.597 10.878 215.205 10.9368C214.823 11.0054 214.333 11.0397 213.735 11.0397ZM213.735 10.5693C214.402 10.5693 214.916 10.5252 215.278 10.437C215.641 10.3488 215.896 10.1871 216.043 9.95193C216.199 9.71673 216.292 9.37862 216.322 8.93762C216.361 8.48682 216.381 7.9037 216.381 7.1883C216.381 6.4729 216.361 5.88979 216.322 5.43898C216.292 4.98818 216.199 4.64519 216.043 4.40999C215.896 4.16498 215.641 3.9984 215.278 3.9102C214.916 3.822 214.402 3.77789 213.735 3.77789C213.079 3.77789 212.565 3.822 212.192 3.9102C211.83 3.9984 211.57 4.16498 211.413 4.40999C211.266 4.64519 211.173 4.98818 211.134 5.43898C211.105 5.88979 211.09 6.4729 211.09 7.1883C211.09 7.9037 211.105 8.48682 211.134 8.93762C211.173 9.37862 211.266 9.71673 211.413 9.95193C211.57 10.1871 211.83 10.3488 212.192 10.437C212.565 10.5252 213.079 10.5693 213.735 10.5693ZM221.922 11.0397C221.325 11.0397 220.844 10.9858 220.482 10.878C220.119 10.7702 219.84 10.6036 219.644 10.3782C219.458 10.1528 219.331 9.85392 219.262 9.48152C219.203 9.10912 219.174 8.65831 219.174 8.12911V3.4251H219.688V8.05561C219.688 8.59462 219.718 9.03071 219.777 9.36391C219.835 9.69711 219.948 9.9519 220.115 10.1283C220.281 10.3047 220.516 10.4223 220.82 10.4811C221.134 10.5399 221.535 10.5693 222.025 10.5693C222.672 10.5693 223.171 10.486 223.524 10.3194C223.877 10.1528 224.127 9.92252 224.274 9.62852C224.43 9.32471 224.523 8.97683 224.553 8.58482C224.582 8.18302 224.597 7.75671 224.597 7.30591V3.4251H225.111V10.9221H224.7L224.656 9.70201H224.597C224.518 9.93721 224.391 10.1577 224.215 10.3635C224.038 10.5595 223.769 10.7212 223.406 10.8486C223.044 10.976 222.549 11.0397 221.922 11.0397ZM233.329 11.0397C232.702 11.0397 232.192 10.9858 231.8 10.878C231.418 10.7604 231.124 10.5644 230.919 10.29C230.713 10.0058 230.571 9.6138 230.492 9.114C230.414 8.6044 230.375 7.95761 230.375 7.17361C230.375 6.38961 230.414 5.74772 230.492 5.24791C230.571 4.73831 230.713 4.34628 230.919 4.07188C231.124 3.78768 231.418 3.59171 231.8 3.48391C232.192 3.3663 232.702 3.30749 233.329 3.30749C233.809 3.30749 234.225 3.3467 234.578 3.4251C234.931 3.5035 235.224 3.63088 235.46 3.80728C235.695 3.98368 235.871 4.2189 235.989 4.5129H236.047V0H236.562V10.9221H236.15L236.106 9.70201H236.047C235.91 10.094 235.7 10.388 235.416 10.584C235.141 10.7702 234.823 10.8927 234.46 10.9515C234.098 11.0103 233.721 11.0397 233.329 11.0397ZM233.476 10.5693C234.122 10.5693 234.642 10.4811 235.033 10.3047C235.425 10.1283 235.685 9.8441 235.812 9.4521C235.93 9.0993 235.998 8.73181 236.018 8.3496C236.038 7.9674 236.047 7.50681 236.047 6.96781C236.047 6.61501 236.038 6.27201 236.018 5.93881C235.998 5.60561 235.945 5.30672 235.856 5.04211C235.7 4.58151 235.425 4.25808 235.033 4.07188C234.642 3.87588 234.098 3.77789 233.402 3.77789C232.863 3.77789 232.427 3.8171 232.094 3.8955C231.761 3.9739 231.506 4.13071 231.33 4.36591C231.154 4.59131 231.036 4.92942 230.977 5.38022C230.919 5.83102 230.889 6.42881 230.889 7.17361C230.889 7.91841 230.919 8.5162 230.977 8.967C231.046 9.4178 231.168 9.7608 231.345 9.996C231.521 10.2214 231.781 10.3733 232.124 10.4517C232.467 10.5301 232.917 10.5693 233.476 10.5693ZM242.009 11.0397C241.451 11.0397 240.98 11.0054 240.598 10.9368C240.226 10.8682 239.922 10.7506 239.687 10.584C239.452 10.4076 239.271 10.1724 239.143 9.87843C239.026 9.58443 238.943 9.2169 238.894 8.77589C238.854 8.33489 238.835 7.8057 238.835 7.1883C238.835 6.4533 238.859 5.8408 238.908 5.3508C238.957 4.85099 239.08 4.45411 239.276 4.16011C239.472 3.85631 239.79 3.64069 240.231 3.51329C240.672 3.37609 241.279 3.30749 242.053 3.30749C242.592 3.30749 243.033 3.3467 243.376 3.4251C243.729 3.5035 244.003 3.63088 244.199 3.80728C244.405 3.97388 244.556 4.2091 244.654 4.5129C244.752 4.80691 244.816 5.1744 244.845 5.6154C244.875 6.0466 244.889 6.56112 244.889 7.15892V7.35003H239.349C239.349 7.99683 239.379 8.53091 239.437 8.95231C239.496 9.37371 239.614 9.70203 239.79 9.93723C239.966 10.1724 240.236 10.339 240.598 10.437C240.971 10.5252 241.465 10.5693 242.083 10.5693C242.347 10.5693 242.631 10.5595 242.935 10.5399C243.239 10.5203 243.533 10.4958 243.817 10.4664C244.111 10.437 244.37 10.4027 244.596 10.3635V10.8486C244.409 10.8878 244.169 10.9221 243.875 10.9515C243.591 
    10.9809 243.288 11.0005 242.964 11.0103C242.641 11.0299 242.323 11.0397 242.009 11.0397ZM244.375 7.17361V6.5709C244.375 5.9437 244.336 5.4439 244.258 5.0715C244.189 4.6991 244.067 4.41981 243.89 4.23361C243.714 4.04741 243.469 3.92488 243.155 3.86608C242.852 3.80728 242.47 3.77789 242.009 3.77789C241.411 3.77789 240.931 3.8171 240.569 3.8955C240.216 3.9641 239.952 4.1062 239.775 4.3218C239.599 4.5374 239.481 4.851 239.423 5.26261C239.374 5.66441 239.349 6.20342 239.349 6.87962H244.669L244.375 7.17361ZM249.747 11.0397C249.208 11.0397 248.757 10.9956 248.394 10.9074C248.042 10.8192 247.758 10.682 247.542 10.4958C247.327 10.2998 247.165 10.0548 247.057 9.76082C246.949 9.45702 246.876 9.09442 246.837 8.67301C246.807 8.24181 246.793 7.7469 246.793 7.1883C246.793 6.5611 246.817 6.02702 246.866 5.58602C246.915 5.14501 247.003 4.77748 247.131 4.48348C247.258 4.17968 247.429 3.94449 247.645 3.77789C247.87 3.61129 248.145 3.4937 248.468 3.4251C248.801 3.3467 249.203 3.30749 249.673 3.30749C249.996 3.30749 250.334 3.3222 250.687 3.3516C251.05 3.381 251.348 3.42018 251.584 3.46918V3.95431C251.329 3.90531 251.03 3.8661 250.687 3.8367C250.354 3.7975 250.05 3.77789 249.776 3.77789C249.247 3.77789 248.816 3.82689 248.483 3.92489C248.159 4.02289 247.91 4.19441 247.733 4.43941C247.567 4.68441 247.454 5.0274 247.395 5.46841C247.336 5.90941 247.307 6.47292 247.307 7.15892C247.307 7.87432 247.336 8.4574 247.395 8.9082C247.454 9.359 247.571 9.70692 247.748 9.95193C247.924 10.1871 248.179 10.3488 248.512 10.437C248.845 10.5252 249.281 10.5693 249.82 10.5693C250.134 10.5693 250.462 10.5497 250.805 10.5105C251.157 10.4713 251.441 10.4272 251.657 10.3782V10.8633C251.432 10.9123 251.138 10.9515 250.775 10.9809C250.423 11.0201 250.08 11.0397 249.747 11.0397ZM253.538 0.896697V0H254.17V0.896697H253.538ZM253.597 10.9221V3.4251H254.111V10.9221H253.597ZM259.349 11.0397C258.722 11.0397 258.213 10.9858 257.821 10.878C257.439 10.7604 257.145 10.5644 256.939 10.29C256.733 10.0058 256.591 9.6138 256.513 9.114C256.434 8.6044 256.395 7.95761 256.395 7.17361C256.395 6.38961 256.434 5.74772 256.513 5.24791C256.591 4.73831 256.733 4.34628 256.939 4.07188C257.145 3.78768 257.439 3.59171 257.821 3.48391C258.213 3.3663 258.722 3.30749 259.349 3.30749C259.829 3.30749 260.246 3.3467 260.598 3.4251C260.951 3.5035 261.245 3.63088 261.48 3.80728C261.715 3.98368 261.891 4.2189 262.009 4.5129H262.068V0H262.582V10.9221H262.171L262.127 9.70201H262.068C261.931 10.094 261.72 10.388 261.436 10.584C261.162 10.7702 260.843 10.8927 260.481 10.9515C260.118 11.0103 259.741 11.0397 259.349 11.0397ZM259.496 10.5693C260.143 10.5693 260.662 10.4811 261.054 10.3047C261.446 10.1283 261.705 9.8441 261.833 9.4521C261.95 9.0993 262.019 8.73181 262.038 8.3496C262.058 7.9674 262.068 7.50681 262.068 6.96781C262.068 6.61501 262.058 6.27201 262.038 5.93881C262.019 5.60561 261.965 5.30672 261.877 5.04211C261.72 4.58151 261.446 4.25808 261.054 4.07188C260.662 3.87588 260.118 3.77789 259.423 3.77789C258.884 3.77789 258.448 3.8171 258.115 3.8955C257.782 3.9739 257.527 4.13071 257.35 4.36591C257.174 4.59131 257.057 4.92942 256.998 5.38022C256.939 5.83102 256.91 6.42881 256.91 7.17361C256.91 7.91841 256.939 8.5162 256.998 8.967C257.066 9.4178 257.189 9.7608 257.365 9.996C257.542 10.2214 257.801 10.3733 258.144 10.4517C258.487 10.5301 258.938 10.5693 259.496 10.5693ZM268.029 11.0397C267.471 11.0397 267.001 11.0054 266.619 10.9368C266.246 10.8682 265.943 10.7506 265.708 10.584C265.472 10.4076 265.291 10.1724 265.164 9.87843C265.046 9.58443 264.963 9.2169 264.914 8.77589C264.875 8.33489 264.855 7.8057 264.855 7.1883C264.855 6.4533 264.88 5.8408 264.929 5.3508C264.978 4.85099 265.1 4.45411 265.296 4.16011C265.492 3.85631 265.81 3.64069 266.251 3.51329C266.692 3.37609 267.3 3.30749 268.074 3.30749C268.612 3.30749 269.053 3.3467 269.396 3.4251C269.749 3.5035 270.023 3.63088 270.219 3.80728C270.425 3.97388 270.577 4.2091 270.675 4.5129C270.773 4.80691 270.836 5.1744 270.866 5.6154C270.895 6.0466 270.91 6.56112 270.91 7.15892V7.35003H265.37C265.37 7.99683 265.399 8.53091 265.458 8.95231C265.516 9.37371 265.634 9.70203 265.81 9.93723C265.987 10.1724 266.256 10.339 266.619 10.437C266.991 10.5252 267.486 10.5693 268.103 10.5693C268.367 10.5693 268.652 10.5595 268.955 10.5399C269.259 10.5203 269.553 10.4958 269.837 10.4664C270.131 10.437 270.391 10.4027 270.616 10.3635V10.8486C270.43 10.8878 270.19 10.9221 269.896 10.9515C269.612 10.9809 269.308 11.0005 268.985 11.0103C268.661 11.0299 268.343 11.0397 268.029 11.0397ZM270.396 7.17361V6.5709C270.396 5.9437 270.356 5.4439 270.278 5.0715C270.209 4.6991 270.087 4.41981 269.911 4.23361C269.734 4.04741 269.489 3.92488 269.176 3.86608C268.872 3.80728 268.49 3.77789 268.029 3.77789C267.432 3.77789 266.952 3.8171 266.589 3.8955C266.237 3.9641 265.972 4.1062 265.796 4.3218C265.619 4.5374 265.502 4.851 265.443 5.26261C265.394 5.66441 265.37 6.20342 265.37 6.87962H270.689L270.396 7.17361ZM275.767 11.0397C275.14 11.0397 274.63 10.9858 274.239 10.878C273.856 10.7604 273.562 10.5644 273.357 10.29C273.151 10.0058 273.009 9.6138 272.931 9.114C272.852 8.6044 272.813 7.95761 272.813 7.17361C272.813 6.38961 272.852 5.74772 272.931 5.24791C273.009 4.73831 273.151 4.34628 273.357 4.07188C273.562 3.78768 273.856 3.59171 274.239 3.48391C274.63 3.3663 275.14 3.30749 275.767 3.30749C276.247 3.30749 276.663 3.3467 277.016 3.4251C277.369 3.5035 277.663 3.63088 277.898 3.80728C278.133 3.98368 278.309 4.2189 278.427 4.5129H278.486V0H279V10.9221H278.589L278.544 9.70201H278.486C278.349 10.094 278.138 10.388 277.854 10.584C277.579 10.7702 277.261 10.8927 276.898 10.9515C276.536 11.0103 276.159 11.0397 275.767 11.0397ZM275.914 10.5693C276.56 10.5693 277.08 10.4811 277.472 10.3047C277.864 10.1283 278.123 9.8441 278.25 9.4521C278.368 9.0993 278.437 8.73181 278.456 8.3496C278.476 7.9674 278.486 7.50681 278.486 6.96781C278.486 6.61501 278.476 6.27201 278.456 5.93881C278.437 5.60561 278.383 5.30672 278.295 5.04211C278.138 4.58151 277.864 4.25808 277.472 4.07188C277.08 3.87588 276.536 3.77789 275.84 3.77789C275.302 3.77789 274.866 3.8171 274.532 3.8955C274.199 3.9739 273.945 4.13071 273.768 4.36591C273.592 4.59131 273.474 4.92942 273.416 5.38022C273.357 5.83102 273.327 6.42881 273.327 7.17361C273.327 7.91841 273.357 8.5162 273.416 8.967C273.484 9.4178 273.607 9.7608 273.783 9.996C273.959 10.2214 274.219 10.3733 274.562 10.4517C274.905 10.5301 275.355 10.5693 275.914 10.5693ZM4.49206 34.1972L1.87619 26.7002H2.43463L4.7125 33.3593H4.80068L6.93159 26.7002H7.49004L9.63564 33.3593H9.72382L11.987 26.7002H12.5307L9.91486 34.1972H9.40051L7.2402 27.5969H7.15203L5.00642 34.1972H4.49206ZM14.2747 34.1972V23.2751H14.789V27.8027H14.8478C14.9164 27.6165 15.034 27.4303 15.2005 27.2441C15.3671 27.0579 15.6267 26.9011 15.9794 26.7737C16.3419 26.6463 16.8367 26.5826 17.4637 26.5826C18.0613 26.5826 18.5414 26.6365 18.9039 26.7443C19.2664 26.8521 19.5407 27.0187 19.7269 27.2441C19.9228 27.4695 20.0502 27.7684 20.109 28.1408C20.1775 28.5132 20.2118 28.964 20.2118 29.4932V34.1972H19.6975V29.5667C19.6975 29.0179 19.6681 28.5818 19.6093 28.2584C19.5505 27.9252 19.4378 27.6704 19.2713 27.494C19.1047 27.3176 18.8647 27.2 18.5512 27.1412C18.2475 27.0824 17.8507 27.053 17.3608 27.053C16.7142 27.053 16.2145 27.1363 15.8618 27.3029C15.5091 27.4695 15.2544 27.7047 15.0976 28.0085C14.9507 28.3025 14.8625 28.6504 14.8331 29.0522C14.8037 29.4442 14.789 29.8656 14.789 30.3164V34.1972H14.2747ZM22.7922 24.1718V23.2751H23.4241V24.1718H22.7922ZM22.851 34.1972V26.7002H23.3653V34.1972H22.851ZM28.602 34.3148C28.0631 34.3148 27.6124 34.2707 27.2499 34.1825C26.8972 34.0943 26.6131 33.9571 26.3976 33.7709C26.182 33.5749 26.0204 33.3299 25.9126 33.0359C25.8049 32.7321 25.7314 32.3695 25.6922 31.9481C25.6628 31.5169 25.6481 31.022 25.6481 30.4634C25.6481 29.8362 25.6726 29.3021 25.7216 28.8611C25.7706 28.4201 25.8587 28.0526 25.9861 27.7586C26.1135 27.4548 26.2849 27.2196 26.5005 27.053C26.7258 26.8864 27.0001 26.7688 27.3234 26.7002C27.6565 26.6218 28.0582 26.5826 28.5285 26.5826C28.8518 26.5826 29.1898 26.5973 29.5425 26.6267C29.905 26.6561 30.2038 26.6953 30.439 26.7443V27.2294C30.1842 27.1804 29.8854 27.1412 29.5425 27.1118C29.2094 27.0726 28.9057 27.053 28.6314 27.053C28.1023 27.053 27.6712 27.102 27.3381 27.2C27.0148 27.298 26.765 27.4695 26.5886 27.7145C26.4221 27.9595 26.3094 28.3025 26.2506 28.7435C26.1918 29.1845 26.1624 29.748 26.1624 30.434C26.1624 31.1494 26.1918 31.7325 26.2506 32.1833C26.3094 32.6341 26.427 32.982 26.6033 33.227C26.7797 33.4622 27.0344 33.6239 27.3675 33.7121C27.7006 33.8003 28.1366 33.8444 28.6755 33.8444C28.989 33.8444 29.3172 33.8248 29.6601 33.7856C30.0128 33.7464 30.2969 33.7023 30.5125 33.6533V34.1384C30.2871 34.1874 29.9932 34.2266 29.6307 34.256C29.278 34.2952 28.9351 34.3148 28.602 34.3148ZM32.4523 34.1972V23.2751H32.9667V27.8027H33.0255C33.094 27.6165 33.2116 27.4303 33.3782 27.2441C33.5447 27.0579 33.8043 26.9011 34.157 26.7737C34.5195 26.6463 35.0143 26.5826 35.6413 26.5826C36.239 26.5826 36.719 26.6365 37.0815 26.7443C37.444 26.8521
    37.7184 27.0187 37.9045 27.2441C38.1004 27.4695 38.2278 27.7684 38.2866 28.1408C38.3552 28.5132 38.3895 28.964 38.3895 29.4932V34.1972H37.8751V29.5667C37.8751 29.0179 37.8457 28.5818 37.7869 28.2584C37.7282 27.9252 37.6155 27.6704 37.4489 27.494C37.2824 27.3176 37.0424 27.2 36.7288 27.1412C36.4251 27.0824 36.0283 27.053 35.5385 27.053C34.8918 27.053 34.3922 27.1363 34.0395 27.3029C33.6868 27.4695 33.432 27.7047 33.2753 28.0085C33.1283 28.3025 33.0402 28.6504 33.0108 29.0522C32.9814 29.4442 32.9667 29.8656 32.9667 30.3164V34.1972H32.4523ZM46.8127 34.3148C46.2151 34.3148 45.7203 34.2805 45.3284 34.2119C44.9463 34.1531 44.6377 34.0453 44.4026 33.8885C44.1772 33.7219 44.0107 33.4916 43.9029 33.1976C43.7951 32.9036 43.7266 32.5361 43.6972 32.0951C43.6678 31.6443 43.6531 31.1004 43.6531 30.4634C43.6531 29.8264 43.6678 29.2825 43.6972 28.8317C43.7266 28.3809 43.7951 28.0085 43.9029 27.7145C44.0107 27.4205 44.1772 27.1951 44.4026 27.0383C44.6377 26.8717 44.9463 26.7541 45.3284 26.6855C45.7203 26.6169 46.2151 26.5826 46.8127 26.5826C47.4103 26.5826 47.9002 26.6169 48.2823 26.6855C48.6742 26.7541 48.9828 26.8717 49.2081 27.0383C49.4433 27.1951 49.6147 27.4205 49.7225 27.7145C49.8303 28.0085 49.8989 28.3809 49.9282 28.8317C49.9576 29.2825 49.9723 29.8264 49.9723 30.4634C49.9723 31.1004 49.9576 31.6443 49.9282 32.0951C49.8989 32.5361 49.8303 32.9036 49.7225 33.1976C49.6147 33.4916 49.4433 33.7219 49.2081 33.8885C48.9828 34.0453 48.6742 34.1531 48.2823 34.2119C47.9002 34.2805 47.4103 34.3148 46.8127 34.3148ZM46.8127 33.8444C47.4789 33.8444 47.9933 33.8003 48.3558 33.7121C48.7183 33.6239 48.973 33.4622 49.12 33.227C49.2767 32.9918 49.3698 32.6537 49.3992 32.2127C49.4384 31.7619 49.458 31.1788 49.458 30.4634C49.458 29.748 49.4384 29.1649 49.3992 28.7141C49.3698 28.2633 49.2767 27.9203 49.12 27.6851C48.973 27.4401 48.7183 27.2735 48.3558 27.1853C47.9933 27.0971 47.4789 27.053 46.8127 27.053C46.1563 27.053 45.6419 27.0971 45.2696 27.1853C44.9071 27.2735 44.6475 27.4401 44.4907 27.6851C44.3438 27.9203 44.2507 28.2633 44.2115 28.7141C44.1821 29.1649 44.1674 29.748 44.1674 30.4634C44.1674 31.1788 44.1821 31.7619 44.2115 32.2127C44.2507 32.6537 44.3438 32.9918 44.4907 33.227C44.6475 33.4622 44.9071 33.6239 45.2696 33.7121C45.6419 33.8003 46.1563 33.8444 46.8127 33.8444ZM52.2514 34.1972V26.7002H52.6629L52.707 27.9203H52.7658C52.8442 27.6851 52.9715 27.4695 53.1479 27.2735C53.3242 27.0677 53.5937 26.9011 53.9562 26.7737C54.3187 26.6463 54.8134 26.5826 55.4404 26.5826C56.0381 26.5826 56.5182 26.6365 56.8806 26.7443C57.2431 26.8521 57.5175 27.0187 57.7036 27.2441C57.8996 27.4695 58.0269 27.7684 58.0857 28.1408C58.1543 28.5132 58.1886 28.964 58.1886 29.4932V34.1972H57.6742V29.5667C57.6742 29.0179 57.6448 28.5818 57.586 28.2584C57.5273 27.9252 57.4146 27.6704 57.2481 27.494C57.0815 27.3176 56.8414 27.2 56.5279 27.1412C56.2242 27.0824 55.8274 27.053 55.3376 27.053C54.6909 27.053 54.1913 27.1363 53.8386 27.3029C53.4859 27.4695 53.2312 27.7047 53.0744 28.0085C52.9274 28.3025 52.8393 28.6504 52.8099 29.0522C52.7805 29.4442 52.7658 29.8656 52.7658 30.3164V34.1972H52.2514ZM63.6334 34.3148C63.075 34.3148 62.6047 34.2805 62.2226 34.2119C61.8503 34.1433 61.5466 34.0257 61.3115 33.8591C61.0763 33.6827 60.8951 33.4475 60.7677 33.1535C60.6502 32.8595 60.5669 32.492 60.5179 32.051C60.4787 31.61 60.4591 31.0808 60.4591 30.4634C60.4591 29.7284 60.4836 29.1159 60.5326 28.6259C60.5816 28.1261 60.704 27.7292 60.9 27.4352C61.0959 27.1314 61.4143 26.9158 61.8552 26.7884C62.2961 26.6512 62.9035 26.5826 63.6775 26.5826C64.2164 26.5826 64.6572 26.6218 65.0001 26.7002C65.3528 26.7786 65.6272 26.906 65.8231 27.0824C66.0289 27.249 66.1807 27.4842 66.2787 27.788C66.3767 28.082 66.4404 28.4495 66.4698 28.8905C66.4991 29.3217 66.5138 29.8362 66.5138 30.434V30.6251H60.9735C60.9735 31.2719 61.0029 31.806 61.0616 32.2274C61.1204 32.6488 61.238 32.9771 61.4143 33.2123C61.5907 33.4475 61.8601 33.6141 62.2226 33.7121C62.5949 33.8003 63.0897 33.8444 63.7069 33.8444C63.9714 33.8444 64.2556 33.8346 64.5593 33.815C64.863 33.7954 65.1569 33.7709 65.441 33.7415C65.7349 33.7121 65.9946 33.6778 66.2199 33.6386V34.1237C66.0338 34.1629 65.7937 34.1972 65.4998 34.2266C65.2157 34.256 64.912 34.2756 64.5887 34.2854C64.2654 34.305 63.9469 34.3148 63.6334 34.3148ZM65.9995 30.4487V29.846C65.9995 29.2188 65.9603 28.719 65.8819 28.3466C65.8133 27.9742 65.6909 27.6949 65.5145 27.5087C65.3382 27.3225 65.0932 27.2 64.7797 27.1412C64.476 27.0824 64.0939 27.053 63.6334 27.053C63.0358 27.053 62.5557 27.0922 62.1932 27.1706C61.8405 27.2392 61.576 27.3813 61.3997 27.5969C61.2233 27.8125 61.1057 28.1261 61.0469 28.5377C60.998 28.9395 60.9735 29.4785 60.9735 30.1547H66.2934L65.9995 30.4487ZM71.0475 34.3148C70.7928 34.3148 70.5087 34.305 70.1952 34.2854C69.8915 34.2756 69.5926 34.256 69.2987 34.2266C69.0048 34.207 68.7403 34.1825 68.5051 34.1531V33.668C68.848 33.7072 69.1371 33.7366 69.3722 33.7562C69.6073 33.7758 69.818 33.7954 70.0041 33.815C70.2001 33.8248 70.3911 33.8346 70.5773 33.8444C70.7732 33.8444 70.9985 33.8444 71.2533 33.8444C71.8215 33.8444 72.2428 33.7905 72.5171 33.6827C72.7914 33.5749 72.9727 33.4034 73.0609 33.1682C73.149 32.933 73.1931 32.6243 73.1931 32.2421C73.1931 31.7913 73.1588 31.4679 73.0903 31.2719C73.0217 31.0661 72.9041 30.9338 72.7376 30.875C72.5808 30.8162 72.3555 30.7721 72.0615 30.7427L69.8866 30.5369C69.4555 30.4879 69.1224 30.4046 68.8872 30.287C68.6521 30.1694 68.4904 29.9832 68.4023 29.7284C68.3141 29.4736 68.27 29.1355 68.27 28.7141C68.27 28.2241 68.3288 27.837 68.4464 27.5528C68.5737 27.2588 68.7599 27.0432 69.0048 26.906C69.2497 26.7688 69.5485 26.6806 69.9012 26.6414C70.2539 26.6022 70.6556 26.5826 71.1063 26.5826C71.3317 26.5826 71.5717 26.5924 71.8264 26.612C72.0909 26.6218 72.3506 26.6414 72.6053 26.6708C72.86 26.6904 73.0903 26.7198 73.296 26.759V27.2441C73.0119 27.1951 72.7425 27.1559 72.4877 27.1265C72.2428 27.0971 71.9881 27.0775 71.7235 27.0677C71.4688 27.0579 71.1798 27.053 70.8565 27.053C70.4548 27.053 70.0972 27.0824 69.7837 27.1412C69.4702 27.1902 69.2252 27.3225 69.0489 27.5381C68.8725 27.7537 68.7844 28.1114 68.7844 28.6112C68.7844 29.0032 68.8187 29.2972 68.8872 29.4932C68.9558 29.6794 69.0734 29.8068 69.2399 29.8754C69.4163 29.944 69.6514 29.993 69.9453 30.0224L72.0469 30.2282C72.4975 30.2674 72.8404 30.3409 73.0756 30.4487C73.3107 30.5565 73.4724 30.7476 73.5605 31.022C73.6585 31.2866 73.7075 31.6933 73.7075 32.2421C73.7075 32.6733 73.6585 33.0261 73.5605 33.3005C73.4626 33.5651 73.3058 33.7709 73.0903 33.9179C72.8747 34.0649 72.5955 34.1678 72.2526 34.2266C71.9195 34.2854 71.5178 34.3148 71.0475 34.3148ZM81.5355 37.2254C81.2514 37.2254 80.9526 37.2205 80.6391 37.2107C80.3354 37.2009 80.0414 37.1862 79.7573 37.1666C79.483 37.1568 79.243 37.1421 79.0372 37.1225V36.6374C79.3018 36.657 79.5761 36.6766 79.8602 36.6962C80.1443 36.7158 80.4235 36.7305 80.6979 36.7403C80.9722 36.7501 81.2269 36.755 81.4621 36.755C82.0989 36.755 82.6034 36.6913 82.9757 36.5639C83.3578 36.4365 83.637 36.2405 83.8134 35.9759C83.9995 35.7113 84.1171 35.3732 84.1661 34.9616C84.2249 34.55 84.2543 34.06 84.2543 33.4916V33.0947H84.1955C84.1367 33.2711 84.0191 33.4573 83.8428 33.6533C83.6762 33.8395 83.4117 33.9963 83.0492 34.1237C82.6965 34.2511 82.2067 34.3148 81.5796 34.3148C80.982 34.3148 80.5019 34.2609 80.1394 34.1531C79.7769 34.0453 79.4977 33.8787 79.3018 33.6533C79.1156 33.4279 78.9883 33.129 78.9197 32.7566C78.8609 32.3842 78.8315 31.9334 78.8315 31.4042V26.7002H79.3458V31.3307C79.3458 31.8697 79.3752 32.3058 79.434 32.639C79.4928 32.9722 79.6055 33.227 79.772 33.4034C79.9386 33.5798 80.1737 33.6974 80.4774 33.7562C80.7909 33.815 81.1926 33.8444 81.6825 33.8444C82.3291 33.8444 82.8288 33.7611 83.1815 33.5945C83.5342 33.4279 83.784 33.1976 83.931 32.9036C84.0877 32.5998 84.1808 32.2519 84.2102 31.8599C84.2396 31.4581 84.2543 31.0318 84.2543 30.581V26.7002H84.7687V33.2123C84.7687 33.9571 84.7246 34.5843 84.6364 35.0939C84.558 35.6133 84.4061 36.0249 84.1808 36.3287C83.9555 36.6423 83.6273 36.8677 83.1962 37.0049C82.7749 37.1519 82.2213 37.2254 81.5355 37.2254ZM90.1988 34.3148C89.6012 34.3148 89.1064 34.2805 88.7145 34.2119C88.3324 34.1531 88.0238 34.0453 87.7887 33.8885C87.5633 33.7219 87.3968 33.4916 87.289 33.1976C87.1812 32.9036 87.1127 32.5361 87.0833 32.0951C87.0539 31.6443 87.0392 31.1004 87.0392 30.4634C87.0392 29.8264 87.0539 29.2825 87.0833 28.8317C87.1127 28.3809 87.1812 28.0085 87.289 27.7145C87.3968 27.4205 87.5633 27.1951 87.7887 27.0383C88.0238 26.8717 88.3324 26.7541 88.7145 26.6855C89.1064 26.6169 89.6012 26.5826 90.1988 26.5826C90.7964 26.5826 91.2863 26.6169 91.6684 26.6855C92.0603 26.7541 92.3689 26.8717 92.5942 27.0383C92.8294 27.1951 93.0008 27.4205 93.1086 27.7145C93.2164 28.0085 93.2849 28.3809 93.3143 28.8317C93.3437 29.2825 93.3584 29.8264 93.3584 30.4634C93.3584 31.1004 93.3437 31.6443 93.3143 32.0951C93.2849 32.5361 93.2164 32.9036 93.1086 33.1976C93.0008 33.4916 92.8294 33.7219 92.5942 33.8885C92.3689 34.0453 92.0603 34.1531 91.6684 34.2119C91.2863 34.2805 90.7964 34.3148 90.1988 
    34.3148ZM90.1988 33.8444C90.865 33.8444 91.3794 33.8003 91.7419 33.7121C92.1044 33.6239 92.3591 33.4622 92.5061 33.227C92.6628 32.9918 92.7559 32.6537 92.7853 32.2127C92.8245 31.7619 92.8441 31.1788 92.8441 30.4634C92.8441 29.748 92.8245 29.1649 92.7853 28.7141C92.7559 28.2633 92.6628 27.9203 92.5061 27.6851C92.3591 27.4401 92.1044 27.2735 91.7419 27.1853C91.3794 27.0971 90.865 27.053 90.1988 27.053C89.5424 27.053 89.028 27.0971 88.6557 27.1853C88.2932 27.2735 88.0336 27.4401 87.8768 27.6851C87.7299 27.9203 87.6368 28.2633 87.5976 28.7141C87.5682 29.1649 87.5535 29.748 87.5535 30.4634C87.5535 31.1788 87.5682 31.7619 87.5976 32.2127C87.6368 32.6537 87.7299 32.9918 87.8768 33.227C88.0336 33.4622 88.2932 33.6239 88.6557 33.7121C89.028 33.8003 89.5424 33.8444 90.1988 33.8444ZM98.3857 34.3148C97.788 34.3148 97.308 34.2609 96.9455 34.1531C96.583 34.0453 96.3037 33.8787 96.1078 33.6533C95.9216 33.4279 95.7943 33.129 95.7257 32.7566C95.6669 32.3842 95.6375 31.9334 95.6375 31.4042V26.7002H96.1519V31.3307C96.1519 31.8697 96.1813 32.3058 96.24 32.639C96.2988 32.9722 96.4115 33.227 96.5781 33.4034C96.7446 33.5798 96.9797 33.6974 97.2835 33.7562C97.597 33.815 97.9987 33.8444 98.4885 33.8444C99.1351 33.8444 99.6348 33.7611 99.9875 33.5945C100.34 33.4279 100.59 33.1976 100.737 32.9036C100.894 32.5998 100.987 32.2519 101.016 31.8599C101.046 31.4581 101.06 31.0318 101.06 30.581V26.7002H101.575V34.1972H101.163L101.119 32.9771H101.06C100.982 33.2123 100.855 33.4328 100.678 33.6386C100.502 33.8346 100.232 33.9963 99.8699 34.1237C99.5075 34.2511 99.0127 34.3148 98.3857 34.3148ZM103.243 26.5238V26.2151C103.468 26.2151 103.63 26.1906 103.728 26.1416C103.835 26.0828 103.904 25.9848 103.933 25.8476C103.963 25.7104 103.977 25.5242 103.977 25.289V25.0391H103.684V24.0836H104.389V25.1861C104.389 25.4507 104.369 25.6712 104.33 25.8476C104.301 26.0142 104.242 26.1514 104.154 26.2592C104.075 26.3572 103.963 26.4258 103.816 26.465C103.669 26.5042 103.478 26.5238 103.243 26.5238ZM106.501 34.1972V26.7002H106.898L106.957 28.3025H107.016C107.133 27.8321 107.315 27.4744 107.56 27.2294C107.814 26.9746 108.113 26.8031 108.456 26.7149C108.809 26.6267 109.191 26.5826 109.602 26.5826V27.1118C108.887 27.1118 108.343 27.2392 107.971 27.494C107.599 27.7488 107.344 28.1212 107.207 28.6112C107.08 29.1012 107.016 29.6941 107.016 30.3899V34.1972H106.501ZM113.952 34.3148C113.394 34.3148 112.924 34.2805 112.542 34.2119C112.169 34.1433 111.866 34.0257 111.63 33.8591C111.395 33.6827 111.214 33.4475 111.087 33.1535C110.969 32.8595 110.886 32.492 110.837 32.051C110.798 31.61 110.778 31.0808 110.778 30.4634C110.778 29.7284 110.803 29.1159 110.851 28.6259C110.9 28.1261 111.023 27.7292 111.219 27.4352C111.415 27.1314 111.733 26.9158 112.174 26.7884C112.615 26.6512 113.222 26.5826 113.996 26.5826C114.535 26.5826 114.976 26.6218 115.319 26.7002C115.672 26.7786 115.946 26.906 116.142 27.0824C116.348 27.249 116.5 27.4842 116.598 27.788C116.696 28.082 116.759 28.4495 116.789 28.8905C116.818 29.3217 116.833 29.8362 116.833 30.434V30.6251H111.292C111.292 31.2719 111.322 31.806 111.381 32.2274C111.439 32.6488 111.557 32.9771 111.733 33.2123C111.91 33.4475 112.179 33.6141 112.542 33.7121C112.914 33.8003 113.409 33.8444 114.026 33.8444C114.29 33.8444 114.574 33.8346 114.878 33.815C115.182 33.7954 115.476 33.7709 115.76 33.7415C116.054 33.7121 116.313 33.6778 116.539 33.6386V34.1237C116.353 34.1629 116.113 34.1972 115.819 34.2266C115.535 34.256 115.231 34.2756 114.908 34.2854C114.584 34.305 114.266 34.3148 113.952 34.3148ZM116.318 30.4487V29.846C116.318 29.2188 116.279 28.719 116.201 28.3466C116.132 27.9742 116.01 27.6949 115.833 27.5087C115.657 27.3225 115.412 27.2 115.099 27.1412C114.795 27.0824 114.413 27.053 113.952 27.053C113.355 27.053 112.875 27.0922 112.512 27.1706C112.159 27.2392 111.895 27.3813 111.719 27.5969C111.542 27.8125 111.425 28.1261 111.366 28.5377C111.317 28.9395 111.292 29.4785 111.292 30.1547H116.612L116.318 30.4487ZM124.742 37.2254C124.428 37.2254 124.1 37.2205 123.757 37.2107C123.424 37.2009 123.101 37.1862 122.787 37.1666C122.483 37.1568 122.219 37.1421 121.993 37.1225V36.6374C122.278 36.657 122.576 36.6766 122.89 36.6962C123.213 36.7158 123.527 36.7305 123.83 36.7403C124.134 36.7501 124.413 36.755 124.668 36.755C125.276 36.755 125.761 36.7011 126.123 36.5933C126.486 36.4855 126.76 36.3042 126.946 36.0494C127.132 35.7946 127.255 35.4418 127.313 34.991C127.372 34.55 127.402 33.9914 127.402 33.3152V33.1094H127.343C127.225 33.4034 127.049 33.6386 126.814 33.815C126.579 33.9914 126.285 34.1188 125.932 34.1972C125.579 34.2756 125.163 34.3148 124.683 34.3148C124.056 34.3148 123.546 34.2609 123.154 34.1531C122.772 34.0355 122.478 33.8395 122.273 33.5651C122.067 33.2809 121.925 32.8889 121.846 32.3891C121.768 31.8795 121.729 31.2327 121.729 30.4487C121.729 29.6647 121.768 29.0228 121.846 28.523C121.925 28.0134 122.067 27.6214 122.273 27.347C122.478 27.0628 122.772 26.8668 123.154 26.759C123.546 26.6414 124.056 26.5826 124.683 26.5826C125.075 26.5826 125.452 26.612 125.814 26.6708C126.177 26.7296 126.495 26.857 126.77 27.053C127.054 27.2392 127.264 27.5283 127.402 27.9203H127.46L127.504 26.7002H127.916V33.1388C127.916 33.913 127.877 34.5598 127.798 35.0792C127.73 35.6084 127.583 36.0298 127.357 36.3434C127.142 36.657 126.824 36.8824 126.402 37.0196C125.991 37.1568 125.437 37.2254 124.742 37.2254ZM124.83 33.8444C125.486 33.8444 126.005 33.7513 126.388 33.5651C126.779 33.3789 127.044 33.0751 127.181 32.6537C127.289 32.3499 127.353 32.0216 127.372 31.6688C127.392 31.3062 127.402 30.8995 127.402 30.4487C127.402 30.0077 127.392 29.6157 127.372 29.2727C127.362 28.9199 127.313 28.6112 127.225 28.3466C127.068 27.8664 126.789 27.5332 126.388 27.347C125.996 27.151 125.476 27.053 124.83 27.053C124.271 27.053 123.821 27.0922 123.478 27.1706C123.135 27.249 122.875 27.4058 122.699 27.641C122.523 27.8664 122.4 28.2045 122.331 28.6553C122.273 29.1061 122.243 29.7039 122.243 30.4487C122.243 31.1935 122.273 31.7913 122.331 32.2421C122.4 32.6929 122.523 33.0359 122.699 33.2711C122.875 33.4965 123.135 33.6484 123.478 33.7268C123.821 33.8052 124.271 33.8444 124.83 33.8444ZM133.349 34.3148C132.751 34.3148 132.256 34.2805 131.864 34.2119C131.482 34.1531 131.174 34.0453 130.938 33.8885C130.713 33.7219 130.546 33.4916 130.439 33.1976C130.331 32.9036 130.262 32.5361 130.233 32.0951C130.204 31.6443 130.189 31.1004 130.189 30.4634C130.189 29.8264 130.204 29.2825 130.233 28.8317C130.262 28.3809 130.331 28.0085 130.439 27.7145C130.546 27.4205 130.713 27.1951 130.938 27.0383C131.174 26.8717 131.482 26.7541 131.864 26.6855C132.256 26.6169 132.751 26.5826 133.349 26.5826C133.946 26.5826 134.436 26.6169 134.818 26.6855C135.21 26.7541 135.519 26.8717 135.744 27.0383C135.979 27.1951 136.151 27.4205 136.258 27.7145C136.366 28.0085 136.435 28.3809 136.464 28.8317C136.493 29.2825 136.508 29.8264 136.508 30.4634C136.508 31.1004 136.493 31.6443 136.464 32.0951C136.435 32.5361 136.366 32.9036 136.258 33.1976C136.151 33.4916 135.979 33.7219 135.744 33.8885C135.519 34.0453 135.21 34.1531 134.818 34.2119C134.436 34.2805 133.946 34.3148 133.349 34.3148ZM133.349 33.8444C134.015 33.8444 134.529 33.8003 134.892 33.7121C135.254 33.6239 135.509 33.4622 135.656 33.227C135.813 32.9918 135.906 32.6537 135.935 32.2127C135.974 31.7619 135.994 31.1788 135.994 30.4634C135.994 29.748 135.974 29.1649 135.935 28.7141C135.906 28.2633 135.813 27.9203 135.656 27.6851C135.509 27.4401 135.254 27.2735 134.892 27.1853C134.529 27.0971 134.015 27.053 133.349 27.053C132.692 27.053 132.178 27.0971 131.805 27.1853C131.443 27.2735 131.183 27.4401 131.027 27.6851C130.88 27.9203 130.787 28.2633 130.747 28.7141C130.718 29.1649 130.703 29.748 130.703 30.4634C130.703 31.1788 130.718 31.7619 130.747 32.2127C130.787 32.6537 130.88 32.9918 131.027 33.227C131.183 33.4622 131.443 33.6239 131.805 33.7121C132.178 33.8003 132.692 33.8444 133.349 33.8444ZM138.728 24.1718V23.2751H139.36V24.1718H138.728ZM138.787 34.1972V26.7002H139.302V34.1972H138.787ZM141.952 34.1972V26.7002H142.363L142.407 27.9203H142.466C142.545 27.6851 142.672 27.4695 142.848 27.2735C143.025 27.0677 143.294 26.9011 143.656 26.7737C144.019 26.6463 144.514 26.5826 145.141 26.5826C145.738 26.5826 146.219 26.6365 146.581 26.7443C146.943 26.8521 147.218 27.0187 147.404 27.2441C147.6 27.4695 147.727 27.7684 147.786 28.1408C147.855 28.5132 147.889 28.964 147.889 29.4932V34.1972H147.375V29.5667C147.375 29.0179 147.345 28.5818 147.286 28.2584C147.228 27.9252 147.115 27.6704 146.948 27.494C146.782 27.3176 146.542 27.2 146.228 27.1412C145.925 27.0824 145.528 27.053 145.038 27.053C144.391 27.053 143.892 27.1363 143.539 27.3029C143.186 27.4695 142.932 27.7047 142.775 28.0085C142.628 28.3025 142.54 28.6504 142.51 29.0522C142.481 29.4442 142.466 29.8656 142.466 30.3164V34.1972H141.952ZM153.172 37.2254C152.859 37.2254 152.53 37.2205 152.187 37.2107C151.854 37.2009 151.531 37.1862 151.218 37.1666C150.914 37.1568 150.649 37.1421 150.424 37.1225V36.6374C150.708 36.657 151.007 36.6766 151.32 36.6962C151.644 36.7158 151.957 36.7305 152.261 36.7403C152.565 36.7501 152.844 36.755 153.099 36.755C153.706 36.755 154.191 36.7011 154.554 36.5933C154.916 36.4855 155.19 36.3042 155.377 36.0494C155.563 35.7946 155.685 35.4418 155.744 34.991C155.803 34.55 155.832 33.9914 155.832 33.3152V33.1094H155.773C155.656 33.4034 155.479 33.6386 155.244 33.815C155.009 33.9914 154.715 34.1188 154.363 34.1972C154.01 34.2756 153.593 34.3148 153.113 34.3148C152.486 34.3148 151.977 34.2609 151.585
    34.1531C151.203 34.0355 150.909 33.8395 150.703 33.5651C150.497 33.2809 150.355 32.8889 150.277 32.3891C150.199 31.8795 150.159 31.2327 150.159 30.4487C150.159 29.6647 150.199 29.0228 150.277 28.523C150.355 28.0134 150.497 27.6214 150.703 27.347C150.909 27.0628 151.203 26.8668 151.585 26.759C151.977 26.6414 152.486 26.5826 153.113 26.5826C153.505 26.5826 153.882 26.612 154.245 26.6708C154.607 26.7296 154.926 26.857 155.2 27.053C155.484 27.2392 155.695 27.5283 155.832 27.9203H155.891L155.935 26.7002H156.346V33.1388C156.346 33.913 156.307 34.5598 156.229 35.0792C156.16 35.6084 156.013 36.0298 155.788 36.3434C155.572 36.657 155.254 36.8824 154.833 37.0196C154.421 37.1568 153.868 37.2254 153.172 37.2254ZM153.26 33.8444C153.917 33.8444 154.436 33.7513 154.818 33.5651C155.21 33.3789 155.475 33.0751 155.612 32.6537C155.719 32.3499 155.783 32.0216 155.803 31.6688C155.822 31.3062 155.832 30.8995 155.832 30.4487C155.832 30.0077 155.822 29.6157 155.803 29.2727C155.793 28.9199 155.744 28.6112 155.656 28.3466C155.499 27.8664 155.22 27.5332 154.818 27.347C154.426 27.151 153.907 27.053 153.26 27.053C152.702 27.053 152.251 27.0922 151.908 27.1706C151.565 27.249 151.306 27.4058 151.129 27.641C150.953 27.8664 150.831 28.2045 150.762 28.6553C150.703 29.1061 150.674 29.7039 150.674 30.4487C150.674 31.1935 150.703 31.7913 150.762 32.2421C150.831 32.6929 150.953 33.0359 151.129 33.2711C151.306 33.4965 151.565 33.6484 151.908 33.7268C152.251 33.8052 152.702 33.8444 153.26 33.8444ZM162.538 34.1972V27.1706H160.951V26.7002H162.538V24.5246H163.053V26.7002H164.904V27.1706H163.053V34.1972H162.538ZM169.243 34.3148C168.646 34.3148 168.151 34.2805 167.759 34.2119C167.377 34.1531 167.068 34.0453 166.833 33.8885C166.608 33.7219 166.441 33.4916 166.334 33.1976C166.226 32.9036 166.157 32.5361 166.128 32.0951C166.098 31.6443 166.084 31.1004 166.084 30.4634C166.084 29.8264 166.098 29.2825 166.128 28.8317C166.157 28.3809 166.226 28.0085 166.334 27.7145C166.441 27.4205 166.608 27.1951 166.833 27.0383C167.068 26.8717 167.377 26.7541 167.759 26.6855C168.151 26.6169 168.646 26.5826 169.243 26.5826C169.841 26.5826 170.331 26.6169 170.713 26.6855C171.105 26.7541 171.413 26.8717 171.639 27.0383C171.874 27.1951 172.045 27.4205 172.153 27.7145C172.261 28.0085 172.329 28.3809 172.359 28.8317C172.388 29.2825 172.403 29.8264 172.403 30.4634C172.403 31.1004 172.388 31.6443 172.359 32.0951C172.329 32.5361 172.261 32.9036 172.153 33.1976C172.045 33.4916 171.874 33.7219 171.639 33.8885C171.413 34.0453 171.105 34.1531 170.713 34.2119C170.331 34.2805 169.841 34.3148 169.243 34.3148ZM169.243 33.8444C169.91 33.8444 170.424 33.8003 170.786 33.7121C171.149 33.6239 171.404 33.4622 171.551 33.227C171.707 32.9918 171.8 32.6537 171.83 32.2127C171.869 31.7619 171.889 31.1788 171.889 30.4634C171.889 29.748 171.869 29.1649 171.83 28.7141C171.8 28.2633 171.707 27.9203 171.551 27.6851C171.404 27.4401 171.149 27.2735 170.786 27.1853C170.424 27.0971 169.91 27.053 169.243 27.053C168.587 27.053 168.073 27.0971 167.7 27.1853C167.338 27.2735 167.078 27.4401 166.921 27.6851C166.774 27.9203 166.681 28.2633 166.642 28.7141C166.613 29.1649 166.598 29.748 166.598 30.4634C166.598 31.1788 166.613 31.7619 166.642 32.2127C166.681 32.6537 166.774 32.9918 166.921 33.227C167.078 33.4622 167.338 33.6239 167.7 33.7121C168.073 33.8003 168.587 33.8444 169.243 33.8444ZM179.864 34.3148C179.246 34.3148 178.737 34.2609 178.335 34.1531C177.934 34.0453 177.635 33.8395 177.439 33.5357C177.253 33.2221 177.16 32.7664 177.16 32.1686C177.16 31.6198 177.223 31.1935 177.351 30.8897C177.478 30.5761 177.703 30.3556 178.027 30.2282C178.35 30.1008 178.801 30.0371 179.379 30.0371C179.496 30.0371 179.677 30.042 179.922 30.0518C180.167 30.0518 180.447 30.0567 180.76 30.0665C181.083 30.0763 181.407 30.0861 181.73 30.0959C182.063 30.0959 182.372 30.1008 182.656 30.1106V29.4344C182.656 28.8856 182.622 28.4544 182.553 28.1408C182.494 27.8174 182.372 27.5773 182.186 27.4205C182.009 27.2637 181.75 27.1657 181.407 27.1265C181.064 27.0775 180.618 27.053 180.069 27.053C179.844 27.053 179.58 27.0628 179.276 27.0824C178.982 27.102 178.693 27.1265 178.409 27.1559C178.125 27.1755 177.885 27.2049 177.689 27.2441V26.759C177.983 26.71 178.355 26.6708 178.806 26.6414C179.256 26.6022 179.746 26.5826 180.275 26.5826C180.755 26.5826 181.162 26.6071 181.495 26.6561C181.838 26.7051 182.117 26.7884 182.333 26.906C182.558 27.0236 182.729 27.1902 182.847 27.4058C182.964 27.6116 183.048 27.8762 183.097 28.1996C183.146 28.5132 183.17 28.8954 183.17 29.3462V34.1972H182.759L182.715 32.9771H182.656C182.519 33.3789 182.293 33.6778 181.98 33.8738C181.676 34.06 181.333 34.1776 180.951 34.2266C180.579 34.2854 180.216 34.3148 179.864 34.3148ZM179.849 33.8444C180.192 33.8444 180.525 33.8297 180.848 33.8003C181.181 33.7611 181.475 33.6827 181.73 33.5651C181.985 33.4377 182.176 33.2368 182.303 32.9624C182.44 32.6684 182.533 32.3793 182.582 32.0951C182.631 31.8011 182.656 31.4728 182.656 31.1102V30.5075H179.526C179.036 30.5075 178.654 30.5467 178.379 30.6251C178.115 30.7035 177.929 30.8603 177.821 31.0955C177.723 31.3307 177.674 31.6884 177.674 32.1686C177.674 32.6194 177.733 32.9673 177.85 33.2123C177.968 33.4573 178.183 33.6239 178.497 33.7121C178.81 33.8003 179.261 33.8444 179.849 33.8444ZM186.305 34.1972V27.1706H184.718V26.7002H186.305V24.5246H186.82V26.7002H188.671V27.1706H186.82V34.1972H186.305ZM190.849 34.1972V27.1706H189.262V26.7002H190.849V24.5246H191.363V26.7002H193.215V27.1706H191.363V34.1972H190.849ZM197.567 34.3148C197.009 34.3148 196.539 34.2805 196.157 34.2119C195.784 34.1433 195.481 34.0257 195.245 33.8591C195.01 33.6827 194.829 33.4475 194.702 33.1535C194.584 32.8595 194.501 32.492 194.452 32.051C194.413 31.61 194.393 31.0808 194.393 30.4634C194.393 29.7284 194.417 29.1159 194.466 28.6259C194.515 28.1261 194.638 27.7292 194.834 27.4352C195.03 27.1314 195.348 26.9158 195.789 26.7884C196.23 26.6512 196.837 26.5826 197.611 26.5826C198.15 26.5826 198.591 26.6218 198.934 26.7002C199.287 26.7786 199.561 26.906 199.757 27.0824C199.963 27.249 200.115 27.4842 200.213 27.788C200.311 28.082 200.374 28.4495 200.404 28.8905C200.433 29.3217 200.448 29.8362 200.448 30.434V30.6251H194.907C194.907 31.2719 194.937 31.806 194.996 32.2274C195.054 32.6488 195.172 32.9771 195.348 33.2123C195.525 33.4475 195.794 33.6141 196.157 33.7121C196.529 33.8003 197.024 33.8444 197.641 33.8444C197.905 33.8444 198.189 33.8346 198.493 33.815C198.797 33.7954 199.091 33.7709 199.375 33.7415C199.669 33.7121 199.928 33.6778 200.154 33.6386V34.1237C199.968 34.1629 199.728 34.1972 199.434 34.2266C199.15 34.256 198.846 34.2756 198.523 34.2854C198.199 34.305 197.881 34.3148 197.567 34.3148ZM199.933 30.4487V29.846C199.933 29.2188 199.894 28.719 199.816 28.3466C199.747 27.9742 199.625 27.6949 199.448 27.5087C199.272 27.3225 199.027 27.2 198.714 27.1412C198.41 27.0824 198.028 27.053 197.567 27.053C196.97 27.053 196.49 27.0922 196.127 27.1706C195.774 27.2392 195.51 27.3813 195.334 27.5969C195.157 27.8125 195.04 28.1261 194.981 28.5377C194.932 28.9395 194.907 29.4785 194.907 30.1547H200.227L199.933 30.4487ZM202.719 34.1972V26.7002H203.131L203.175 27.9203H203.234C203.312 27.6851 203.44 27.4695 203.616 27.2735C203.792 27.0677 204.062 26.9011 204.424 26.7737C204.787 26.6463 205.281 26.5826 205.909 26.5826C206.506 26.5826 206.986 26.6365 207.349 26.7443C207.711 26.8521 207.986 27.0187 208.172 27.2441C208.368 27.4695 208.495 27.7684 208.554 28.1408C208.622 28.5132 208.657 28.964 208.657 29.4932V34.1972H208.142V29.5667C208.142 29.0179 208.113 28.5818 208.054 28.2584C207.995 27.9252 207.883 27.6704 207.716 27.494C207.55 27.3176 207.31 27.2 206.996 27.1412C206.692 27.0824 206.295 27.053 205.806 27.053C205.159 27.053 204.659 27.1363 204.307 27.3029C203.954 27.4695 203.699 27.7047 203.542 28.0085C203.396 28.3025 203.307 28.6504 203.278 29.0522C203.249 29.4442 203.234 29.8656 203.234 30.3164V34.1972H202.719ZM213.881 34.3148C213.254 34.3148 212.745 34.2609 212.353 34.1531C211.971 34.0355 211.677 33.8395 211.471 33.5651C211.265 33.2809 211.123 32.8889 211.045 32.3891C210.966 31.8795 210.927 31.2327 210.927 30.4487C210.927 29.6647 210.966 29.0228 211.045 28.523C211.123 28.0134 211.265 27.6214 211.471 27.347C211.677 27.0628 211.971 26.8668 212.353 26.759C212.745 26.6414 213.254 26.5826 213.881 26.5826C214.361 26.5826 214.778 26.6218 215.13 26.7002C215.483 26.7786 215.777 26.906 216.012 27.0824C216.247 27.2588 216.423 27.494 216.541 27.788H216.6V23.2751H217.114V34.1972H216.703L216.659 32.9771H216.6C216.463 33.3691 216.252 33.6631 215.968 33.8591C215.694 34.0453 215.375 34.1678 215.013 34.2266C214.65 34.2854 214.273 34.3148 213.881 34.3148ZM214.028 33.8444C214.675 33.8444 215.194 33.7562 215.586 33.5798C215.978 33.4034 216.237 33.1192 216.365 32.7272C216.482 32.3744 216.551 32.0069 216.57 31.6247C216.59 31.2425 216.6 30.7819 216.6 30.2429C216.6 29.8901 216.59 29.5471 216.57 29.2139C216.551 28.8807 216.497 28.5818 216.409 28.3172C216.252 27.8566 215.978 27.5332 215.586 27.347C215.194 27.151 214.65 27.053 213.955 27.053C213.416 27.053 212.98 27.0922 212.647 27.1706C212.313 27.249 212.059 27.4058 211.882 27.641C211.706 27.8664 211.588 28.2045 211.53 28.6553C211.471 29.1061 211.442 29.7039 211.442 30.4487C211.442 31.1935 211.471 31.7913 211.53 
    32.2421C211.598 32.6929 211.721 33.0359 211.897 33.2711C212.073 33.4965 212.333 33.6484 212.676 33.7268C213.019 33.8052 213.47 33.8444 214.028 33.8444ZM220.695 31.6541V30.3752C220.695 30.0028 220.729 29.7284 220.798 29.552C220.876 29.3658 221.004 29.2237 221.18 29.1257C221.366 29.0277 221.616 28.9248 221.93 28.817L222.341 28.67C222.792 28.5132 223.125 28.3613 223.34 28.2143C223.556 28.0575 223.698 27.8468 223.767 27.5822C223.835 27.3176 223.869 26.9452 223.869 26.465C223.869 25.8672 223.791 25.4311 223.634 25.1567C223.478 24.8725 223.218 24.6863 222.855 24.5981C222.493 24.5099 222.003 24.4658 221.386 24.4658C221.239 24.4658 221.067 24.4707 220.871 24.4805C220.685 24.4903 220.48 24.505 220.254 24.5246C220.029 24.5344 219.799 24.5491 219.563 24.5687C219.328 24.5883 219.098 24.6128 218.873 24.6422V24.1718C219.137 24.1326 219.426 24.0983 219.74 24.0689C220.053 24.0395 220.357 24.015 220.651 23.9954C220.955 23.9758 221.224 23.966 221.459 23.966C221.969 23.966 222.405 24.0003 222.767 24.0689C223.14 24.1277 223.443 24.2453 223.678 24.4217C223.923 24.5883 224.105 24.8235 224.222 25.1273C224.34 25.4311 224.398 25.8231 224.398 26.3033C224.398 26.6267 224.389 26.9256 224.369 27.2C224.349 27.4646 224.296 27.7096 224.207 27.935C224.129 28.1506 223.997 28.3417 223.811 28.5083C223.634 28.6749 223.384 28.817 223.061 28.9346L222.753 29.0375C222.38 29.1747 222.091 29.2923 221.885 29.3903C221.68 29.4785 221.528 29.5667 221.43 29.6549C221.342 29.7333 221.283 29.8313 221.254 29.9489C221.234 30.0567 221.224 30.2086 221.224 30.4046V31.6541H220.695ZM220.607 34.1972V33.2417H221.312V34.1972H220.607Z" fill="black"/>
</svg>    