<svg width="43" height="43" viewBox="0 0 43 43" fill="none" xmlns="http://www.w3.org/2000/svg"><path d="M38.0923 1.07495H8.51265C8.34807 1.07495 8.19024 1.14033 8.07387 1.2567C7.9575 1.37306 7.89213 1.53089 7.89213 1.69546C7.89213 1.86003 7.9575 2.01786 8.07387 2.13423C8.19024 2.2506 8.34807 2.31598 8.51265 2.31598H38.0927C39.3525 2.31598 40.3768 3.30052 40.3768 4.51082V38.1824C40.3768 39.3922 39.3521 40.3764 38.0927 40.3764H4.60005C3.34066 40.3764 2.31599 39.3922 2.31599 38.1828V4.51124C2.31599 3.30094 3.34066 2.3164 4.60005 2.3164C5.41987 2.30616 5.41048 1.08477 4.60005 1.07538C2.65612 1.07538 1.07495 2.61642 1.07495 4.51082V38.1828C1.07495 40.0768 2.65612 41.6178 4.60005 41.6178H38.0923C40.0362 41.6178 41.6178 40.0768 41.6178 38.1824V4.51082C41.6178 2.61642 40.0366 1.07495 38.0923 1.07495Z" fill="#007581"/><path d="M13.7342 27.7343C14.0794 27.7343 14.3594 27.4544 14.3594 27.1091V17.0119C14.3594 16.6666 14.0794 16.3867 13.7342 16.3867H7.80833C7.46304 16.3867 7.18311 16.6666 7.18311 17.0119V34.8395C7.18311 35.1848 7.46304 35.4648 7.80833 35.4648H13.7346C14.0799 35.4648 14.3598 35.1848 14.3598 34.8395V30.3117C14.3598 30.1459 14.2939 29.9868 14.1767 29.8696C14.0594 29.7523 13.9004 29.6865 13.7346 29.6865C13.5688 29.6865 13.4097 29.7523 13.2925 29.8696C13.1752 29.9868 13.1094 30.1459 13.1094 30.3117V34.2143H8.43355V17.6371H13.1085V27.1091C13.1087 27.2749 13.1747 27.4339 13.292 27.5511C13.4093 27.6683 13.5683 27.7342 13.7342 27.7343ZM16.5709 35.2811C16.6883 35.399 16.8478 35.4652 17.0138 35.4652L22.9392 35.4643C23.2845 35.4643 23.5644 35.1844 23.5644 34.8391V24.8847C23.493 23.6055 24.2145 21.9642 26.1749 21.8967C26.7627 21.8967 28.5515 21.8967 28.5515 25.3027V34.8391C28.5515 35.1844 28.8315 35.4643 29.1767 35.4643H35.1017C35.447 35.4643 35.7269 35.1844 35.7269 34.8391V24.6177C35.7269 19.2023 32.9431 15.9688 28.2806 15.9688C26.0132 15.9688 24.5474 16.8025 23.5536 17.7765L23.5652 17.0218C23.5773 16.6834 23.2793 16.3798 22.94 16.3871H17.0146C16.6685 16.3807 16.3666 16.6946 16.3898 17.0412C16.4655 18.6786 16.3894 34.6757 16.3885 34.837C16.3877 35.0034 16.4535 35.1633 16.5709 35.2811ZM17.6549 17.6376H22.3049L22.2752 19.5876C22.2477 20.2003 23.112 20.4592 23.4268 19.9346C24.2373 18.6704 25.5213 17.2192 28.2806 17.2192C32.2181 17.2192 34.4765 19.9157 34.4765 24.6177V34.2143H29.802V25.3031C29.9387 19.355 23.9342 19.5618 22.5556 23.2013C22.0637 24.0742 22.4124 33.0576 22.3135 34.2139L17.6416 34.2148C17.6545 31.4503 17.6992 20.6725 17.6549 17.6376Z" fill="#007581"/><path d="M10.8119 7.79224C8.50668 7.79224 6.83398 9.35054 6.83398 11.4979C6.84731 16.4687 14.7447 16.3934 14.7499 11.4842C14.7017 9.31055 13.0823 7.79224 10.8119 7.79224ZM10.7724 13.9528C9.20414 13.9726 8.08055 12.9573 8.08442 11.4984C8.02336 8.25491 13.5265 8.19385 13.4994 11.4988C13.4994 12.9664 12.4038 13.9528 10.7724 13.9528Z" fill="#007581"/></svg>