<svg width="50" height="55" viewBox="0 0 50 55" fill="none"
    xmlns="http://www.w3.org/2000/svg">
    <path d="M7.7394 8.47226C7.86313 8.47185 7.98686 8.47144 8.11435 8.47101C8.25143 8.4711 8.38851 8.47119 8.52559 8.4713C8.67139 8.47102 8.8172 8.47069 8.96301 8.47033C9.36382 8.46946 9.76463 8.46927 10.1654 8.46919C10.5977 8.46899 11.0299 8.46818 11.4622 8.46746C12.4075 8.466 13.3528 8.46535 14.2981 8.46488C14.8885 8.46458 15.4789 8.46413 16.0693 8.46364C17.7043 8.46233 19.3393 8.46123 20.9744 8.46086C21.079 8.46084 21.1837 8.46082 21.2915 8.46079C21.3964 8.46077 21.5012 8.46074 21.6093 8.46072C21.8219 8.46067 22.0344 8.46062 22.247 8.46058C22.3524 8.46055 22.4578 8.46053 22.5665 8.4605C24.2742 8.46008 25.9818 8.45821 27.6895 8.4557C29.4433 8.45315 31.197 8.45182 32.9508 8.45169C33.9352 8.45159 34.9197 8.45098 35.9042 8.44903C36.7426 8.44737 37.5811 8.44682 38.4195 8.44771C38.8471 8.44813 39.2746 8.44803 39.7022 8.44652C40.0942 8.44515 40.4861 8.44528 40.8781 8.44658C41.0194 8.44679 41.1606 8.44647 41.3018 8.44553C42.8561 8.43584 44.1731 8.75195 45.337 9.94329C46.3213 11.0881 46.7111 12.3598 46.7059 13.9029C46.7063 14.0001 46.7067 14.0973 46.7072 14.1975C46.7084 14.5208 46.7083 14.8441 46.7081 15.1674C46.7087 15.4002 46.7094 15.6331 46.7101 15.8659C46.7118 16.4967 46.7123 17.1275 46.7124 17.7583C46.7126 18.1528 46.713 18.5474 46.7135 18.942C46.7153 20.3199 46.7161 21.6978 46.7159 23.0757C46.7158 24.3579 46.7179 25.6401 46.721 26.9223C46.7235 28.025 46.7246 29.1277 46.7244 30.2305C46.7244 30.8882 46.7249 31.546 46.727 32.2037C46.7289 32.8227 46.7289 33.4417 46.7275 34.0606C46.7273 34.287 46.7278 34.5133 46.7289 34.7397C46.7381 36.6198 46.5613 38.2292 45.337 39.6656C43.9787 41.0716 42.4139 41.1607 40.6369 41.1531C40.498 41.1529 40.3591 41.1528 40.2203 41.1527C39.8576 41.1523 39.495 41.1512 39.1323 41.15C38.7611 41.1489 38.3899 41.1484 38.0187 41.1479C37.2924 41.1467 36.5662 41.1449 35.8399 41.1426C35.8408 41.2528 35.8416 41.363 35.8425 41.4765C35.8432 41.6227 35.8438 41.7689 35.8445 41.9151C35.8451 41.9876 35.8457 42.06 35.8463 42.1346C35.8502 43.2945 35.5604 44.2829 34.8473 45.1529C34.1536 45.8462 33.3533 46.2174 32.4195 46.2202C32.3527 46.2207 32.286 46.2212 32.2172 46.2217C31.9948 46.223 31.7724 46.2229 31.55 46.2227C31.39 46.2233 31.2301 46.224 31.0701 46.2249C30.6362 46.2268 30.2024 46.2273 29.7686 46.2274C29.4972 46.2276 29.2258 46.228 28.9544 46.2286C28.0065 46.2306 27.0587 46.2314 26.1108 46.2313C25.229 46.2311 24.3473 46.2334 23.4655 46.2368C22.7071 46.2396 21.9487 46.2408 21.1903 46.2406C20.738 46.2406 20.2857 46.2412 19.8333 46.2435C19.4074 46.2455 18.9816 46.2456 18.5557 46.244C18.4001 46.2438 18.2445 46.2443 18.0889 46.2456C16.7905 46.2558 15.8171 46.073 14.8598 45.0568C14.1565 44.1855 13.9324 43.2647 13.9527 42.1229C13.9536 42.0284 13.9545 41.934 13.9554 41.8367C13.9577 41.6053 13.9612 41.374 13.9649 41.1426C13.8882 41.1431 13.8115 41.1436 13.7325 41.1441C13.0042 41.1484 12.276 41.1517 11.5478 41.1538C11.1735 41.1549 10.7993 41.1564 10.425 41.1588C10.0628 41.1612 9.70066 41.1625 9.33846 41.163C9.20132 41.1634 9.06417 41.1642 8.92703 41.1653C7.23346 41.1792 5.64476 40.9849 4.36903 39.6387C3.37834 38.3849 3.01209 36.987 3.01369 35.3556C3.0134 35.2622 3.01311 35.1687 3.01281 35.0724C3.01197 34.7606 3.01181 34.4487 3.01167 34.1369C3.01122 33.9127 3.01072 33.6886 3.0102 33.4644C3.00892 32.8563 3.00829 32.2481 3.00785 31.6399C3.00757 31.2595 3.00717 30.8791 3.00673 30.4986C3.0054 29.307 3.00445 28.1154 3.00407 26.9237C3.00364 25.5507 3.00192 24.1777 2.99909 22.8047C2.99698 21.7418 2.996 20.6788 2.99587 19.6159C2.99576 18.9818 2.99519 18.3478 2.99344 17.7137C2.99183 17.1167 2.99163 16.5197 2.99248 15.9227C2.99255 15.7045 2.99214 15.4864 2.99117 15.2682C2.98236 13.1638 3.14655 11.4186 4.52353 9.82748C5.41222 8.92116 6.53534 8.47377 7.7394 8.47226ZM23.3345 18.1291C23.289 18.1784 23.2435 18.2278 23.1966 18.2786C23.048 18.44 22.9002 18.6022 22.7524 18.7645C22.6487 18.8779 22.5449 18.9914 22.4411 19.1048C22.2244 19.3419 22.0081 19.5794 21.792 19.8172C21.5156 20.1213 21.2379 20.4238 20.9599 20.7259C20.7454 20.9595 20.5318 21.194 20.3185 21.4288C20.2165 21.5407 20.1142 21.6523 20.0115 21.7636C19.868 21.9193 19.7258 22.0764 19.5839 22.2338C19.5028 22.3227 19.4217 22.4116 19.3382 22.5031C19.0266 22.9297 18.9472 23.2926 18.9393 23.8343C19.0244 24.4007 19.3303 24.7818 19.7266 25.1368C20.1221 25.3741 20.4805 25.3899 20.9111 25.2576C21.5315 25.0169 21.9274 24.5044 22.3694 23.9887C22.454 23.8928 22.5385 23.7969 22.6256 23.6981C22.8326 23.4629 23.038 23.2264 23.2422 22.9883C23.2428 23.1369 23.2428 23.1369 23.2433 23.2884C23.247 24.224 23.2526 25.1596 23.2602 26.0952C23.2641 26.5761 23.2672 27.057 23.2687 27.538C23.2702 28.0026 23.2736 28.4671 23.2782 28.9317C23.2797 29.1085 23.2804 29.2853 23.2805 29.4621C23.2668 30.7482 23.2668 30.7482 23.7305 31.9044C24.0861 32.2764 24.3421 32.4274 24.8353 32.4683C25.2886 32.4345 25.5979 32.3231 25.9228 31.9618C26.3266 31.4413 26.3813 31.1293 26.3783 30.4663C26.3783 30.3845 26.3784 30.3028 26.3784 30.2185C26.3783 29.9477 26.3775 29.6768 26.3768 29.406C26.3766 29.2184 26.3765 29.0309 26.3764 28.8433C26.376 28.3492 26.375 27.8551 26.374 27.3609C26.373 26.8569 26.3725 26.3529 26.372 25.8489C26.371 24.8595 26.3693 23.8702 26.3672 22.8809C26.4904 22.9978 26.6133 23.1149 26.7361 23.2322C26.8388 23.33 26.8388 23.33 26.9436 23.4298C27.1369 23.6214 27.3177 23.8199 27.4964 24.0277C27.552 24.0922 27.6077 24.1566 27.665 24.2231C27.7774 24.3544 27.8887 24.4867 27.9992 24.62C28.4092 25.0899 28.7062 25.2641 29.2969 25.3516C29.7702 25.3011 30.1563 25.1033 30.4688 24.7071C30.7559 24.2333 30.8553 23.7658 30.7618 23.2032C30.4378 22.4371 29.9101 21.8971 29.3709 21.3082C29.2721 21.1993 29.1734 21.0904 29.0747 20.9814C28.8685 20.7541 28.6617 20.5273 28.4546 20.301C28.19 20.0118 27.9268 19.7212 27.664 19.4302C27.4606 19.2053 27.2565 18.9811 27.0522 18.7572C26.9549 18.6504 26.8578 18.5434 26.7609 18.436C26.6252 18.2859 26.4884 18.137 26.3517 17.9881C26.2743 17.9033 26.197 17.8185 26.1173 17.7311C25.7397 17.3805 25.3542 17.1416 24.8536 17.1406C24.7493 17.1374 24.7493 17.1374 24.643 17.1343C24.1113 17.258 23.7095 17.7204 23.3345 18.1291ZM17.1876 41.1426C17.1876 41.6035 17.1876 42.0643 17.1876 42.5391C17.5314 42.7912 17.6704 42.7809 18.0773 42.7812C18.2022 42.7818 18.3271 42.7825 18.4557 42.7831C18.5944 42.7827 18.7331 42.7822 18.8717 42.7818C19.0176 42.7821 19.1634 42.7824 19.3092 42.7829C19.7054 42.7839 20.1017 42.7835 20.498 42.7828C20.9123 42.7823 21.3266 42.7828 21.7409 42.7831C22.4368 42.7835 23.1326 42.783 23.8285 42.782C24.6334 42.7808 25.4384 42.7812 26.2434 42.7824C26.934 42.7833 27.6246 42.7835 28.3152 42.7829C28.7279 42.7826 29.1406 42.7825 29.5533 42.7832C29.9412 42.7839 30.3292 42.7834 30.7171 42.7822C30.8597 42.7819 31.0022 42.782 31.1448 42.7825C31.339 42.7831 31.5332 42.7822 31.7275 42.7812C31.8363 42.7812 31.9451 42.7811 32.0572 42.781C32.3455 42.7753 32.3455 42.7753 32.6172 42.5391C32.6172 42.0783 32.6172 41.6174 32.6172 41.1426C27.5254 41.1426 22.4337 41.1426 17.1876 41.1426Z" fill="white"/>
</svg>