<svg width="93" height="93" viewBox="0 0 93 93" fill="none"
    xmlns="http://www.w3.org/2000/svg">
    <path d="M60.0622 3.87557V7.75056H81.7622L46.306 36.4254L25.1874 22.863L4.64996 37.2004L6.97495 40.3004L25.1874 27.513L46.6935 41.0754L85.2496 9.8818V32.938H89.1246V3.87557H60.0622ZM3.87496 50.3754H7.74994V89.1252H3.87496V50.3754ZM17.4374 42.6254H21.3124V89.1252H17.4374V42.6254ZM85.2496 50.3754H89.1246V89.1252H85.2496V50.3754ZM71.6872 42.6254H75.5622V89.1252H71.6872V42.6254ZM58.1247 50.3754H61.9997V89.1252H58.1247V50.3754ZM44.5623 62.0003H48.4373V89.1252H44.5623V62.0003ZM30.9999 50.3754H34.8748V89.1252H30.9999V50.3754Z" fill="#147469"/>
</svg>