<svg width="60" height="11" viewBox="0 0 60 11" fill="none"
    xmlns="http://www.w3.org/2000/svg">
    <path d="M3.97598 0.147357V10.8643H2.67856V1.50801H2.61571L0 3.24445V1.92674L2.67856 0.147357H3.97598ZM6.7627 10.8643V9.92245L10.2993 6.05046C10.7144 5.59609 11.0562 5.20191 11.3247 4.86665C11.5933 4.52895 11.792 4.21089 11.9211 3.91494C12.0537 3.6153 12.12 3.30093 12.12 2.97304C12.12 2.59604 12.0292 2.26939 11.8479 1.99431C11.67 1.71923 11.4258 1.50553 11.1155 1.35571C10.805 1.20589 10.4563 1.131 10.0691 1.131C9.65758 1.131 9.29836 1.21572 8.99144 1.38764C8.68796 1.55465 8.45261 1.79045 8.28515 2.09377C8.12126 2.39709 8.03925 2.75321 8.03925 3.16091H6.80457C6.80457 2.53339 6.94931 1.98203 7.2388 1.50801C7.52829 1.03277 7.92237 0.663104 8.42118 0.39785C8.92343 0.132596 9.48669 0 10.111 0C10.7388 0 11.2951 0.132596 11.7799 0.39785C12.2647 0.663104 12.6448 1.02049 12.9204 1.47118C13.1959 1.92063 13.3336 2.42166 13.3336 2.97304C13.3336 3.36724 13.2622 3.75283 13.1192 4.12983C12.9797 4.50315 12.7355 4.91946 12.3867 5.37997C12.0415 5.8368 11.5618 6.39557 10.948 7.05502L8.54149 9.62894V9.71247H13.522V10.8643H6.7627ZM16.3088 9.49387C16.0506 9.49387 15.8292 9.40053 15.6444 9.21632C15.4595 9.03089 15.3671 8.80985 15.3671 8.55074C15.3671 8.29285 15.4595 8.07183 15.6444 7.88639C15.8292 7.70219 16.0506 7.60884 16.3088 7.60884C16.5669 7.60884 16.7883 7.70219 16.9732 7.88639C17.158 8.07183 17.2504 8.29285 17.2504 8.55074C17.2504 8.72266 17.2069 8.87985 17.1197 9.02231C17.036 9.16476 16.9227 9.2802 16.7796 9.36739C16.64 9.45089 16.4831 9.49387 16.3088 9.49387ZM16.3088 4.07212C16.0506 4.07212 15.8292 3.97881 15.6444 3.7946C15.4595 3.60917 15.3671 3.38811 15.3671 3.13022C15.3671 2.87111 15.4595 2.65008 15.6444 2.46588C15.8292 2.28044 16.0506 2.18832 16.3088 2.18832C16.5669 2.18832 16.7883 2.28044 16.9732 2.46588C17.158 2.65008 17.2504 2.87111 17.2504 3.13022C17.2504 3.30092 17.2069 3.4581 17.1197 3.60055C17.036 3.74423 16.9227 3.85844 16.7796 3.94563C16.64 4.03037 16.4831 4.07212 16.3088 4.07212ZM19.1504 10.8643V9.92245L22.687 6.05046C23.1021 5.59609 23.4439 5.20191 23.7125 4.86665C23.981 4.52895 24.1797 4.21089 24.3089 3.91494C24.4414 3.6153 24.5077 3.30093 24.5077 2.97304C24.5077 2.59604 24.4169 2.26939 24.2356 1.99431C24.0577 1.71923 23.8135 1.50553 23.5032 1.35571C23.1928 1.20589 22.844 1.131 22.4568 1.131C22.0453 1.131 21.6861 1.21572 21.3792 1.38764C21.0757 1.55465 20.8403 1.79045 20.6729 2.09377C20.509 2.39709 20.427 2.75321 20.427 3.16091H19.1923C19.1923 2.53339 19.337 1.98203 19.6265 1.50801C19.916 1.03277 20.3101 0.663104 20.8089 0.39785C21.3111 0.132596 21.8744 0 22.4987 0C23.1265 0 23.6828 0.132596 24.1676 0.39785C24.6524 0.663104 25.0325 1.02049 25.3081 1.47118C25.5836 1.92063 25.7214 2.42166 25.7214 2.97304C25.7214 3.36724 25.6499 3.75283 25.5069 4.12983C25.3674 4.50315 25.1232 4.91946 24.7744 5.37997C24.4292 5.8368 23.9496 6.39557 23.3357 7.05502L20.9292 9.62894V9.71247H25.9097V10.8643H19.1504ZM27.7758 10.8643V9.92245L31.3124 6.05046C31.7273 5.59609 32.0691 5.20191 32.3377 4.86665C32.6062 4.52895 32.8051 4.21089 32.9341 3.91494C33.0666 3.6153 33.1329 3.30093 33.1329 2.97304C33.1329 2.59604 33.0422 2.26939 32.8608 1.99431C32.6829 1.71923 32.4389 1.50553 32.1284 1.35571C31.818 1.20589 31.4693 1.131 31.0822 1.131C30.6705 1.131 30.3113 1.21572 30.0044 1.38764C29.701 1.55465 29.4655 1.79045 29.2981 2.09377C29.1342 2.39709 29.0522 2.75321 29.0522 3.16091H27.8176C27.8176 2.53339 27.9624 1.98203 28.2519 1.50801C28.5413 1.03277 28.9354 0.663104 29.4341 0.39785C29.9364 0.132596 30.4996 0 31.1239 0C31.7517 0 32.308 0.132596 32.7928 0.39785C33.2776 0.663104 33.6578 1.02049 33.9333 1.47118C34.2088 1.92063 34.3466 2.42166 34.3466 2.97304C34.3466 3.36724 34.2751 3.75283 34.1321 4.12983C33.9926 4.50315 33.7484 4.91946 33.3997 5.37997C33.0544 5.8368 32.5749 6.39557 31.9611 7.05502L29.5544 9.62894V9.71247H34.535V10.8643H27.7758ZM40.4381 10.8643V0.147357H44.0584C44.8989 0.147357 45.586 0.298399 46.1196 0.601722C46.6567 0.902589 47.0543 1.30904 47.3124 1.82113C47.5706 2.33445 47.6996 2.90672 47.6996 3.53793C47.6996 4.16913 47.5706 4.74386 47.3124 5.25963C47.0579 5.77663 46.6637 6.188 46.1301 6.49501C45.5965 6.79833 44.9129 6.94941 44.0793 6.94941H41.4845V5.79873H44.0374C44.613 5.79873 45.0751 5.69925 45.4239 5.50031C45.7726 5.30137 46.0254 5.03246 46.1824 4.69475C46.3429 4.35213 46.4231 3.96774 46.4231 3.53793C46.4231 3.10934 46.3429 2.72496 46.1824 2.38725C46.0254 2.04831 45.7709 1.78308 45.4186 1.59151C45.0664 1.39626 44.599 1.298 44.0166 1.298H41.7355V10.8643H40.4381ZM49.495 0.147357H51.0436L54.6848 9.04318H54.8102L58.4514 0.147357H60V10.8643H58.7863V2.72128H58.6816L55.3335 10.8643H54.1615L50.8134 2.72128H50.7087V10.8643H49.495V0.147357Z" fill="#8A91A8"/>
</svg>