<svg width="43" height="41" viewBox="0 0 43 41" fill="none" xmlns="http://www.w3.org/2000/svg"><path d="M42.9991 30.3817C43.0018 26.8778 42.9973 9.28356 42.9991 6.16998C43.0503 1.16113 38.3216 -1.82424 35.1644 1.23862C33.534 2.78914 23.3737 12.3635 21.4998 14.1414L7.83471 1.23862C4.68708 -1.81911 -0.0551885 1.15429 0.000485779 6.17055V10.948C0.00727532 11.1925 0.0937288 11.4313 0.251246 11.58L9.48729 20.3002V39.4198H3.47356C2.88532 39.4189 2.32137 39.1244 1.90541 38.6007C1.48946 38.077 1.25546 37.3671 1.25474 36.6265V14.8075C1.25112 13.779 0.00908579 13.7647 3.30681e-05 14.8075V36.6271C3.30681e-05 39.0386 1.55801 41 3.47356 41H10.1146C10.4609 41 10.742 40.6461 10.742 40.2102V21.4854L21.1232 31.2872C21.2319 31.3895 21.364 31.4449 21.4998 31.4449C21.6356 31.4449 21.7677 31.3895 21.8764 31.2872L32.2576 21.4854V40.2102C32.2576 40.6461 32.5387 41 32.885 41H39.526C41.4416 41 42.9996 39.0386 42.9996 36.6271V33.7323C42.9756 32.6838 41.763 32.6998 41.7449 33.7323V36.6271C41.7441 37.3676 41.5101 38.0776 41.0942 38.6013C40.6782 39.1249 40.1143 39.4195 39.526 39.4204H33.5119V20.3002L41.7444 12.5271V30.3817C41.7489 31.4125 42.9901 31.4216 42.9991 30.3817ZM9.48729 18.3257L1.25474 10.552V6.16941C1.25474 4.39494 2.00747 2.86208 3.26761 2.0683C4.52775 1.27395 5.95356 1.43522 7.08153 2.50138L9.48683 4.77217V18.3257H9.48729ZM32.2571 19.5104L21.4993 29.6677L10.742 19.5104V5.95743L21.1232 15.7597C21.3464 15.9706 21.6532 15.9706 21.8764 15.7597L32.2571 5.95743V19.5104ZM33.5119 18.3257V4.77274L35.9172 2.50195C38.2107 0.197536 41.8336 2.47745 41.7444 6.16998V10.552L33.5119 18.3257Z" fill="#007581"/></svg>