<svg width="7" height="25" viewBox="0 0 7 25" fill="none" xmlns="http://www.w3.org/2000/svg"><mask id="mask0_441_934" style="mask-type:luminance" maskUnits="userSpaceOnUse" x="-1" y="-2" width="8" height="29"><path d="M6.94265 -1.08061H-0.462588V26.0795H6.94265V-1.08061Z" fill="white"/></mask><g mask="url(#mask0_441_934)"><path d="M6.47986 12.4998C6.47986 13.1408 6.28981 13.7673 5.93436 14.3003C5.57768 14.8332 5.07164 15.2486 4.48046 15.4939C3.88804 15.7392 3.23638 15.8034 2.60817 15.6783C1.97996 15.5532 1.40236 15.2446 0.949402 14.7914C0.496448 14.3381 0.187866 13.7607 0.0619775 13.132C-0.0626773 12.5034 0.00153152 11.8518 0.247138 11.2597C0.491511 10.6675 0.907414 10.1613 1.44059 9.80529C1.97253 9.44925 2.59952 9.25913 3.24007 9.25913C4.09785 9.26222 4.92106 9.60456 5.52705 10.2117C6.13428 10.8187 6.47739 11.6413 6.47986 12.4998ZM3.24007 6.48139C3.88063 6.48139 4.50761 6.29127 5.03955 5.93523C5.57273 5.57918 5.98863 5.07302 6.23301 4.4808C6.47861 3.88871 6.54282 3.23712 6.41817 2.60848C6.29228 1.97985 5.9837 1.40245 5.53074 0.949122C5.07779 0.495918 4.50019 0.187282 3.87198 0.0622219C3.24377 -0.0627146 2.59211 0.00135709 1.99969 0.246662C1.4085 0.491968 0.90247 0.9074 0.545784 1.44023C0.190333 1.97319 0.00028225 2.59972 0.00028225 3.2407C0.00275066 4.0992 0.345864 4.92179 0.953093 5.52881C1.55909 6.13597 2.3823 6.47831 3.24007 6.48139ZM3.24007 18.5183C2.59952 18.5183 1.97253 18.7084 1.44059 19.0644C0.907414 19.4205 0.491511 19.9266 0.247138 20.5188C0.00153152 21.1109 -0.0626773 21.7625 0.0619775 22.3912C0.187866 23.0198 0.496448 23.5972 0.949402 24.0505C1.40236 24.5037 1.97996 24.8124 2.60817 24.9374C3.23638 25.0625 3.88804 24.9983 4.48046 24.753C5.07164 24.5077 5.57768 24.0924 5.93436 23.5594C6.28981 23.0265 6.47986 22.3999 6.47986 21.759C6.47739 20.9005 6.13428 20.0779 5.52705 19.4708C4.92106 18.8637 4.09785 18.5213 3.24007 18.5183Z" fill="white"/></g></svg>