<svg width="40" height="15" viewBox="0 0 40 15" fill="none"
    xmlns="http://www.w3.org/2000/svg">
    <path d="M0 14.7156L4.31642 1.08931H9.00906L13.3453 14.7156H9.86045L9.04866 12.0418H4.19763L3.40562 14.7156H0ZM4.93023 9.44731H8.29625L6.67264 4.06016H6.53404L4.93023 9.44731ZM14.3439 14.7156V0H17.5516V14.7156H14.3439ZM24.3257 14.8741C23.3753 14.8741 22.5895 14.8146 21.9695 14.6958C21.3495 14.577 20.8545 14.3925 20.4845 14.1413C20.1281 13.8776 19.857 13.5409 19.6727 13.1312C19.5006 12.7214 19.3893 12.2337 19.3361 11.6655C19.2965 11.0974 19.2767 10.4376 19.2767 9.68497C19.2767 8.77391 19.3163 7.98787 19.3955 7.3281C19.4883 6.66832 19.6863 6.12614 19.9895 5.70404C20.2927 5.28193 20.7617 4.97123 21.3953 4.77317C22.0425 4.5615 22.9137 4.45627 24.0089 4.45627C24.8937 4.45627 25.6127 4.52188 26.1671 4.65433C26.7215 4.77317 27.1571 4.96503 27.4739 5.2287C27.8043 5.47998 28.0345 5.80925 28.1669 6.21898C28.3117 6.62871 28.4045 7.12385 28.4441 7.7044C28.4837 8.27258 28.5035 8.93235 28.5035 9.68497V10.4574H22.4249C22.4249 10.9067 22.4447 11.2694 22.4843 11.5467C22.5239 11.8104 22.6291 12.0084 22.8011 12.1409C22.9731 12.2733 23.2367 12.3649 23.5931 12.4182C23.9495 12.4578 24.4445 12.4776 25.0781 12.4776C25.3293 12.4776 25.6263 12.4714 25.9691 12.4578C26.3119 12.4442 26.6683 12.4243 27.0383 12.3983C27.4207 12.3724 27.7771 12.3451 28.1075 12.3191V14.5374C27.8167 14.603 27.4603 14.6624 27.0383 14.7156C26.6287 14.7688 26.1869 14.8085 25.7117 14.8344C25.2365 14.8604 24.7749 14.8741 24.3257 14.8741ZM25.5137 9.13041V8.81353C25.5137 8.33819 25.4877 7.96188 25.4345 7.6846C25.3949 7.40732 25.3157 7.20307 25.1969 7.07062C25.0917 6.92579 24.9395 6.83296 24.7415 6.79334C24.5435 6.75373 24.2923 6.73393 23.9891 6.73393C23.6463 6.73393 23.3691 6.75992 23.1575 6.81315C22.9595 6.85276 22.8073 6.9456 22.7021 7.09043C22.5969 7.23526 22.5239 7.44693 22.4843 7.72421C22.4447 8.00149 22.4249 8.36419 22.4249 8.81353H25.8503L25.5137 9.13041ZM29.2485 14.7156L32.6343 9.58595L29.3673 4.61472H32.8719L34.6539 7.48655H34.7925L36.5548 4.61472H39.8614L36.6141 9.56614L40 14.7156H36.5151L34.5945 11.6655H34.4361L32.5749 14.7156H29.2485Z" fill="black"/>
</svg>