<svg width="150" height="150" viewBox="0 0 150 150" fill="none"
    xmlns="http://www.w3.org/2000/svg">
    <mask id="mask0_538_1480" style="mask-type:luminance" maskUnits="userSpaceOnUse" x="51" y="69" width="12" height="12">
        <path d="M51.8172 69.1992H62.8V80.7992H51.8172V69.1992Z" fill="white"/>
    </mask>
    <g mask="url(#mask0_538_1480)">
        <path fill-rule="evenodd" clip-rule="evenodd" d="M51.8172 74.9988C51.8172 71.9848 54.2594 69.5488 57.2656 69.5488C60.2781 69.5488 62.7141 71.9926 62.7141 74.9988C62.7141 78.0113 60.2703 80.4473 57.2656 80.4473C54.2531 80.4473 51.8172 78.0035 51.8172 74.9988Z" fill="#5CE1E6"/>
    </g>
    <mask id="mask1_538_1480" style="mask-type:luminance" maskUnits="userSpaceOnUse" x="78" y="54" width="12" height="12">
        <path d="M78.4 54.0605H89.6V65.1996H78.4V54.0605Z" fill="white"/>
    </mask>
    <g mask="url(#mask1_538_1480)">
        <path fill-rule="evenodd" clip-rule="evenodd" d="M81.1375 64.3637C78.5281 62.8575 77.6375 59.5294 79.1438 56.9216C80.65 54.3122 83.9781 53.4216 86.5859 54.9278C89.1938 56.4341 90.0859 59.7622 88.5797 62.37C87.0734 64.9778 83.7453 65.87 81.1375 64.3637Z" fill="#5CE1E6"/>
    </g>
    <mask id="mask2_538_1480" style="mask-type:luminance" maskUnits="userSpaceOnUse" x="78" y="69" width="21" height="27">
        <path d="M78.4 69.1992H98.3172V95.9992H78.4V69.1992Z" fill="white"/>
    </mask>
    <g mask="url(#mask2_538_1480)">
        <path fill-rule="evenodd" clip-rule="evenodd" d="M91.8922 80.3863L88.1078 86.9379C88.2797 87.1551 88.4375 87.3879 88.5797 87.6348C90.0859 90.2426 89.1938 93.5707 86.5859 95.077C83.9781 96.5832 80.65 95.6926 79.1438 93.0832C77.6375 90.4754 78.5281 87.1473 81.1375 85.641C82.2609 84.9957 83.5125 84.7941 84.7047 84.9738L88.4891 78.4238C87.7328 77.4863 87.2828 76.302 87.2828 75.0051C87.2828 71.9926 89.7266 69.5566 92.7313 69.5566C95.7453 69.5566 98.1813 72.0004 98.1813 75.0051C98.1813 78.0191 95.7375 80.4551 92.7313 80.4551C92.4469 80.4551 92.1625 80.4316 91.8922 80.3863Z" fill="#5CE1E6"/>
    </g>
    <mask id="mask3_538_1480" style="mask-type:luminance" maskUnits="userSpaceOnUse" x="60" y="54" width="21" height="42">
        <path d="M60.4 54.0605H80.8V95.9996H60.4V54.0605Z" fill="white"/>
    </mask>
    <g mask="url(#mask3_538_1480)">
        <path fill-rule="evenodd" clip-rule="evenodd" d="M66.9719 65.0309C64.8126 65.3684 62.5719 64.3794 61.411 62.37C59.9032 59.7622 60.7954 56.4341 63.4047 54.9278C66.0126 53.4216 69.3407 54.3122 70.8469 56.9216C72.0079 58.9294 71.7454 61.3653 70.3751 63.0669L74.1594 69.6169C74.4297 69.5731 74.7141 69.5497 74.9985 69.5497C78.0126 69.5497 80.4469 71.9934 80.4469 74.9997C80.4469 78.0122 78.0047 80.4481 74.9985 80.4481C74.7141 80.4481 74.436 80.4247 74.1672 80.3809L70.3813 86.9387C71.7532 88.6403 72.0157 91.0762 70.8547 93.0762C69.3469 95.6856 66.0204 96.5778 63.411 95.07C60.8032 93.5637 59.911 90.2356 61.4172 87.6278C62.5719 85.62 64.8126 84.6294 66.9719 84.9669L70.7563 78.4091C70.0079 77.4731 69.5501 76.2887 69.5501 74.9919C69.5501 73.695 70.0001 72.5106 70.7563 71.5731L66.9719 65.0231V65.0309Z" fill="#007581"/>
    </g>
</svg>