<svg width="50" height="50" viewBox="0 0 50 50" fill="none"
    xmlns="http://www.w3.org/2000/svg">
    <path d="M25 3.125C20.7324 3.125 17.2852 6.78711 17.2852 11.2793V26.3672C17.2852 30.8594 20.7324 34.5215 25 34.5215C29.2676 34.5215 32.7148 30.8594 32.7148 26.3672V11.2793C32.7148 6.78711 29.2676 3.125 25 3.125ZM31.1523 26.3672C31.1523 30 28.3887 32.959 25 32.959C21.6113 32.959 18.8477 30 18.8477 26.3672V11.2793C18.8477 7.64648 21.6113 4.6875 25 4.6875C28.3887 4.6875 31.1523 7.64648 31.1523 11.2793V26.3672Z" fill="white"/>
    <path d="M35.8398 18.75V26.5332C35.8398 32.4121 30.9766 37.1973 25.0977 37.1973C19.2188 37.1973 14.3555 32.4121 14.3555 26.5332V18.75H12.5V26.5332C12.5 33.0957 17.6758 38.5059 24.2188 38.9844V45.1172H17.0898V46.875H32.8125V45.1172H26.0742V38.9844C32.5195 38.5059 37.5 33.0957 37.5 26.5332V18.75H35.8398Z" fill="white"/>
</svg>