<svg width="48" height="48" viewBox="0 0 48 48" fill="none"
    xmlns="http://www.w3.org/2000/svg">
    <path d="M34.922 21.6931L16.921 6.6921C16.6182 6.4397 16.2686 6.24941 15.8923 6.1321C15.5159 6.01479 15.1202 5.97275 14.7276 6.00838C14.335 6.04402 13.9533 6.15663 13.6042 6.33979C13.2552 6.52294 12.9456 6.77306 12.6932 7.07585C12.1835 7.68738 11.9375 8.47635 12.0095 9.26921C12.0815 10.0621 12.4654 10.7939 13.077 11.3036L28.312 23.9991L13.077 36.6941C12.4654 37.2039 12.0815 37.9356 12.0095 38.7285C11.9375 39.5214 12.1835 40.3103 12.6932 40.9219C13.203 41.5334 13.9348 41.9174 14.7276 41.9893C15.5205 42.0613 16.3094 41.8153 16.921 41.3056L34.922 26.3051C35.2594 26.0231 35.5309 25.6704 35.7171 25.272C35.9034 24.8736 35.9999 24.4392 35.9999 23.9994C35.9999 23.5596 35.9034 23.1251 35.7171 22.7267C35.5309 22.3283 35.2594 21.9751 34.922 21.6931Z" fill="white"/>
</svg>