<svg width="15" height="14" viewBox="0 0 15 14" fill="none" xmlns="http://www.w3.org/2000/svg"><path d="M5.81598 2.03112C6.2611 0.661201 8.19917 0.661201 8.64429 2.03112C9.11185 3.47012 10.4528 4.4444 11.9659 4.4444C13.4063 4.4444 14.0052 6.28762 12.8399 7.13428C11.6158 8.02363 11.1036 9.60004 11.5711 11.039C12.0163 12.409 10.4483 13.5481 9.28299 12.7015C8.0589 11.8121 6.40137 11.8121 5.17728 12.7015C4.01196 13.5481 2.44402 12.409 2.88913 11.039C3.35669 9.60004 2.84449 8.02363 1.6204 7.13428C0.455073 6.28762 1.05397 4.4444 2.49439 4.4444C4.00745 4.4444 5.34842 3.47012 5.81598 2.03112Z" stroke="white" stroke-width="2"/></svg>