<svg width="314" height="54" viewBox="0 0 314 54" fill="none" xmlns="http://www.w3.org/2000/svg"><g clip-path="url(#clip0_849_1165)"><path d="M199.034 41.3548V41.6048H199.285H223.243H223.494V41.3548V38.8781V38.6281H223.243H202.187V12.2695V12.0195H201.937H199.285H199.034V12.2695V41.3548ZM234.49 26.4366L222.822 12.1118L222.747 12.0195H222.627H219.466H218.939L219.272 12.4275L232.903 29.1238V41.3548V41.6048H233.153H235.806H236.057V41.3548V29.1238L249.688 12.4275L250.021 12.0195H249.494H246.311H246.191L246.116 12.1121L234.49 26.4366ZM278.287 24.7588V24.5088H278.037H258.891V14.9962H279.077H279.327V14.7462V12.2695V12.0195H279.077H255.988H255.738V12.2695V41.3548V41.6048H255.988H258.64H258.891V41.3548V27.4644H278.037H278.287V27.2144V24.7588ZM297.602 26.4366L285.934 12.1118L285.859 12.0195H285.74H282.578H282.051L282.384 12.4275L296.015 29.1238V41.3548V41.6048H296.266H298.918H299.169V41.3548V29.1238L312.801 12.4275L313.134 12.0195H312.606H309.423H309.304L309.228 12.1121L297.602 26.4366Z" fill="#5CE1E6" stroke="#5CE1E6"/><path d="M82.7693 12.8594H95.8632V27.3596L82.7693 12.8594ZM68.9117 21.369H68.7845C68.7845 18.4619 69.5768 16.3168 71.1618 14.9338C72.7459 13.5508 75.1862 12.8594 78.483 12.8594L95.8632 33.9006C95.8632 36.6949 95.106 38.6918 93.592 39.8913C92.1207 41.0626 89.7159 41.6483 86.3766 41.6483L68.9117 21.369ZM68.8481 27.0845L81.4542 41.6694H68.8481V27.0845ZM128.395 42.4527C128.395 49.1278 125.036 52.4651 118.315 52.4651H117V12.8594H128.395V42.4527ZM101.359 12.8594H113.095V41.6694H111.185C105.979 41.6694 102.873 39.9054 101.869 36.3774C101.529 35.2343 101.359 33.9148 101.359 32.4189V12.8594ZM149.256 12.8594H151.166C156.372 12.8594 159.477 14.6163 160.482 18.1303C160.822 19.2874 160.991 20.614 160.991 22.1099V41.6694H149.256V12.8594ZM133.85 12.8594H145.266V41.6694H133.85V12.8594ZM181.767 12.8594H193.482V27.6772H191.975C188.325 27.6772 185.707 27.0492 184.123 25.7931C182.552 24.5372 181.767 22.3992 181.767 19.3792V12.8594ZM177.522 41.6694C175.231 41.6694 173.194 40.8227 171.411 39.1293C169.84 37.6334 168.61 35.6435 167.718 33.1598C166.898 30.8736 166.488 28.6085 166.488 26.3648C166.488 22.9919 167.322 19.9931 168.992 17.3682C170.181 15.5054 171.743 14.193 173.682 13.4309C174.672 13.0498 175.775 12.8594 176.992 12.8594H178.626V41.6694H177.522ZM181.767 36.1445H192.377V36.7372C192.377 38.0496 191.904 39.1574 190.956 40.0606C189.796 41.1332 188.147 41.6694 186.011 41.6694H181.767V36.1445Z" fill="#007581"/><mask id="mask0_849_1165" style="mask-type:luminance" maskUnits="userSpaceOnUse" x="0" y="19" width="15" height="16"><path d="M0 19.4922H14.1639V34.4281H0V19.4922Z" fill="white"/></mask><g mask="url(#mask0_849_1165)"><path fill-rule="evenodd" clip-rule="evenodd" d="M0 26.9587C0 23.0779 3.14953 19.9414 7.02649 19.9414C10.9115 19.9414 14.053 23.088 14.053 26.9587C14.053 30.8376 10.9015 33.9741 7.02649 33.9741C3.14147 33.9741 0 30.8275 0 26.9587Z" fill="#5CE1E6"/></g><mask id="mask1_849_1165" style="mask-type:luminance" maskUnits="userSpaceOnUse" x="34" y="0" width="15" height="15"><path d="M34.2822 0H48.7261V14.3425H34.2822V0Z" fill="white"/></mask><g mask="url(#mask1_849_1165)"><path fill-rule="evenodd" clip-rule="evenodd" d="M37.8125 13.2646C34.4474 11.3252 33.2988 7.03991 35.2413 3.68214C37.1838 0.322359 41.4759 -0.824392 44.839 1.11503C48.2021 3.05445 49.3527 7.33971 47.4102 10.6975C45.4677 14.0552 41.1756 15.204 37.8125 13.2646Z" fill="#5CE1E6"/></g><mask id="mask2_849_1165" style="mask-type:luminance" maskUnits="userSpaceOnUse" x="34" y="19" width="26" height="35"><path d="M34.2822 19.4922H59.968V53.9994H34.2822V19.4922Z" fill="white"/></mask><g mask="url(#mask2_849_1165)"><path fill-rule="evenodd" clip-rule="evenodd" d="M51.6823 33.8972L46.8017 42.3329C47.0233 42.6126 47.2268 42.9123 47.4102 43.2302C49.3527 46.588 48.2021 50.8731 44.839 52.8126C41.4759 54.7521 37.1838 53.6051 35.2413 50.2456C33.2988 46.8877 34.4474 42.6025 37.8125 40.6631C39.2614 39.8322 40.8754 39.5727 42.4129 39.804L47.2933 31.3704C46.318 30.1633 45.7377 28.6383 45.7377 26.9684C45.7377 23.0896 48.8893 19.9531 52.764 19.9531C56.6512 19.9531 59.7927 23.0997 59.7927 26.9684C59.7927 30.8493 56.6412 33.9858 52.764 33.9858C52.3974 33.9858 52.0308 33.9556 51.6823 33.8972Z" fill="#5CE1E6"/></g><mask id="mask3_849_1165" style="mask-type:luminance" maskUnits="userSpaceOnUse" x="11" y="0" width="27" height="54"><path d="M11.0687 0H37.3773V54H11.0687V0Z" fill="white"/></mask><g mask="url(#mask3_849_1165)"><path fill-rule="evenodd" clip-rule="evenodd" d="M19.544 14.1236C16.7592 14.5582 13.8696 13.2847 12.3724 10.6975C10.4279 7.33971 11.5785 3.05445 14.9436 1.11503C18.3067 -0.824392 22.5988 0.322359 24.5414 3.68214C26.0386 6.26736 25.7 9.40386 23.9328 11.5948L28.8133 20.0284C29.1619 19.9721 29.5286 19.9419 29.8954 19.9419C33.7824 19.9419 36.9218 23.0884 36.9218 26.9592C36.9218 30.8381 33.7723 33.9745 29.8954 33.9745C29.5286 33.9745 29.1699 33.9444 28.8233 33.888L23.9409 42.3318C25.7101 44.5227 26.0486 47.6591 24.5514 50.2345C22.6069 53.594 18.3169 54.743 14.9517 52.8015C11.5886 50.862 10.438 46.5768 12.3805 43.219C13.8696 40.6338 16.7592 39.3583 19.544 39.7928L24.4245 31.3491C23.4593 30.144 22.8689 28.619 22.8689 26.9492C22.8689 25.2793 23.4492 23.7544 24.4245 22.5473L19.544 14.1136V14.1236Z" fill="#007581"/></g></g><defs><clipPath id="clip0_849_1165"><rect width="314" height="54" fill="white"/></clipPath></defs></svg>