<svg width="41" height="41" viewBox="0 0 41 41" fill="none" xmlns="http://www.w3.org/2000/svg">
    <path
        d="M20.4942 0C16.4408 0 12.4785 1.20267 9.10823 3.45518C5.73799 5.70768 3.11113 8.90936 1.56003 12.6553C0.0088104 16.4011 -0.396974 20.5223 0.393853 24.4993C1.18456 28.4762 3.13647 32.129 6.00255 34.9952C8.86876 37.8627 12.5204 39.8145 16.4959 40.606C20.4714 41.3974 24.5921 40.9912 28.337 39.4394C32.0818 37.8876 35.2825 35.2599 37.5344 31.8892C39.7864 28.5172 40.9884 24.5539 40.9884 20.4999C40.9831 15.0643 38.8223 9.8536 34.98 6.00955C31.1377 2.16675 25.928 0.00496968 20.4942 0Z"
        fill="black" />
</svg>