<svg width="43" height="42" viewBox="0 0 43 42" fill="none" xmlns="http://www.w3.org/2000/svg"><path d="M41.4957 12.5198C41.3416 5.08552 36.6882 0.283802 29.4754 0.125402C27.7607 -0.040478 14.9334 -0.043118 13.2174 0.125402C6.00766 0.285122 1.35038 5.082 1.19674 12.5198C1.03585 14.2855 1.03286 27.5158 1.19674 29.2833C1.33843 36.6991 6.02345 41.5334 13.2174 41.6772C15.3248 41.7767 16.0251 41.8 21.3464 41.8C26.6682 41.8 27.3681 41.7767 29.4754 41.6772C31.4415 41.5853 32.9728 41.2817 34.4413 40.6934C39.0495 38.8687 41.3933 34.3741 41.4957 29.2833C41.657 27.518 41.66 14.2859 41.4957 12.5198ZM40.2564 29.2248C40.1318 35.9902 35.984 40.2728 29.4187 40.399C27.7441 40.5632 14.9497 40.5658 13.2738 40.399C6.71225 40.271 2.5594 35.9946 2.43649 29.2248C2.34132 27.0745 2.31871 26.3595 2.31871 20.9013C2.46807 12.2241 1.33971 5.6562 8.70097 2.30208C10.0376 1.7666 11.4481 1.4894 13.2738 1.40316C15.3594 1.30548 16.0533 1.2826 21.3464 1.2826C26.6396 1.2826 27.3335 1.30548 29.4191 1.4036C31.2448 1.4894 32.6553 1.7666 33.9923 2.30252C41.3442 5.643 40.2286 12.2333 40.3742 20.9013C40.3737 26.36 40.3511 27.0754 40.2564 29.2248Z" fill="#007581"/><path d="M31.8406 12.9609C33.3701 12.9609 34.6146 11.6731 34.6146 10.0899C34.4844 6.29054 29.1964 6.29142 29.0666 10.0899C29.0666 11.6731 30.3115 12.9609 31.8406 12.9609ZM31.8406 8.41574C33.9791 8.48614 33.9787 11.6951 31.8406 11.765C29.7021 11.6946 29.7029 8.4857 31.8406 8.41574ZM37.3954 28.4564C37.3138 28.4518 37.2322 28.464 37.1553 28.4923C37.0783 28.5206 37.0076 28.5644 36.9473 28.6212C36.887 28.6779 36.8383 28.7465 36.804 28.823C36.7697 28.8994 36.7505 28.9821 36.7475 29.0663C36.5081 34.2077 34.2872 36.5225 29.2856 36.7605C27.6882 36.9203 15.0615 36.9216 13.4633 36.7605C6.28978 36.5603 5.71621 31.4106 5.97398 25.0794C5.9855 23.3115 6.01622 18.7751 6.00171 16.4171C5.9983 15.5899 4.77093 15.5671 4.76068 16.4171C4.78202 18.783 4.74703 23.2957 4.73294 25.0662C4.65228 27.7177 4.71331 31.3807 5.47978 33.0883C8.11847 39.2958 13.8474 37.9182 21.3746 38.1571C30.5915 38.0502 37.31 39.2514 37.9877 29.1243C37.9948 28.9549 37.9364 28.7894 37.8254 28.6642C37.7144 28.539 37.5597 28.4643 37.3954 28.4564Z" fill="#007581"/><path d="M37.1836 8.73014C34.623 2.57366 28.7414 3.87166 21.2888 3.66178C12.2196 3.65826 5.1447 2.8117 4.67568 12.695C4.66032 13.5376 5.85868 13.5935 5.91543 12.7531C6.15485 7.61166 8.37531 5.29638 13.3774 5.05878C14.9867 4.89818 27.5891 4.8973 29.2001 5.05878C34.201 5.2911 36.4227 7.61606 36.6625 12.7531C36.7752 14.1105 36.8388 21.1795 36.6621 24.8157C36.6472 25.6451 37.8592 25.7067 37.9023 24.8539L38.0175 20.9102C38.0175 15.4912 37.9975 14.8466 37.9019 12.695C37.8105 10.6248 37.47 9.48826 37.1836 8.73014Z" fill="#007581"/><path d="M10.6774 20.9001C10.6774 26.9655 15.4759 31.9001 21.3742 31.9001C35.565 31.2956 35.5607 10.5025 21.3742 9.90015C15.4759 9.90015 10.6774 14.8347 10.6774 20.9001ZM30.8313 20.9001C30.8313 26.2624 26.5889 30.6255 21.3742 30.6255C8.82734 30.0909 8.83118 11.7068 21.3742 11.1744C26.5889 11.1748 30.8313 15.5379 30.8313 20.9001Z" fill="#007581"/><path d="M21.3648 28.1596C30.7306 27.7606 30.728 14.037 21.3648 13.6396C17.4718 13.6396 14.3048 16.8965 14.3048 20.8996C14.3048 24.9028 17.4718 28.1596 21.3648 28.1596ZM21.3648 14.8963C24.5839 14.8963 27.2025 17.5895 27.2025 20.8996C27.2025 24.2098 24.5839 26.9034 21.3648 26.9034C13.6199 26.573 13.622 15.225 21.3648 14.8963Z" fill="#007581"/></svg>