<svg width="58" height="11" viewBox="0 0 58 11" fill="none" xmlns="http://www.w3.org/2000/svg"><path d="M3.97234 0.147222V10.8544H2.67611V1.50663H2.61331L0 3.24148V1.92497L2.67611 0.147222H3.97234ZM6.75651 10.8544V9.91336L10.2899 6.04492C10.7046 5.59096 11.046 5.19714 11.3143 4.8622C11.5827 4.5248 11.7812 4.20704 11.9101 3.91135C12.0426 3.61199 12.1088 3.2979 12.1088 2.97032C12.1088 2.59366 12.0182 2.26731 11.837 1.99248C11.6593 1.71766 11.4154 1.50415 11.1053 1.35447C10.7951 1.20479 10.4467 1.12997 10.0599 1.12997C9.64874 1.12997 9.28984 1.2146 8.9832 1.38637C8.68 1.55323 8.44487 1.78881 8.27756 2.09185C8.11382 2.3949 8.03188 2.75069 8.03188 3.15802H6.79833C6.79833 2.53107 6.94294 1.98022 7.23217 1.50663C7.52139 1.03182 7.91512 0.662497 8.41347 0.397485C8.91525 0.132474 9.478 0 10.1017 0C10.729 0 11.2847 0.132474 11.7691 0.397485C12.2535 0.662497 12.6332 1.01955 12.9086 1.46983C13.1838 1.91887 13.3214 2.41944 13.3214 2.97032C13.3214 3.36416 13.25 3.74939 13.1071 4.12605C12.9678 4.49902 12.7238 4.91495 12.3754 5.37504C12.0305 5.83145 11.5513 6.38971 10.938 7.04855L8.53367 9.62011V9.70357H13.5096V10.8544H6.75651ZM16.2939 9.48517C16.0359 9.48517 15.8147 9.39191 15.6301 9.20788C15.4453 9.02261 15.353 8.80178 15.353 8.5429C15.353 8.28525 15.4453 8.06443 15.6301 7.87917C15.8147 7.69513 16.0359 7.60187 16.2939 7.60187C16.5517 7.60187 16.773 7.69513 16.9577 7.87917C17.1423 8.06443 17.2346 8.28525 17.2346 8.5429C17.2346 8.71467 17.1911 8.87172 17.104 9.01404C17.0204 9.15636 16.9072 9.2717 16.7643 9.35881C16.6248 9.44223 16.468 9.48517 16.2939 9.48517ZM16.2939 4.06838C16.0359 4.06838 15.8147 3.97516 15.6301 3.79113C15.4453 3.60586 15.353 3.385 15.353 3.12735C15.353 2.86848 15.4453 2.64765 15.6301 2.46362C15.8147 2.27835 16.0359 2.18632 16.2939 2.18632C16.5517 2.18632 16.773 2.27835 16.9577 2.46362C17.1423 2.64765 17.2346 2.86848 17.2346 3.12735C17.2346 3.29789 17.1911 3.45493 17.104 3.59725C17.0204 3.7408 16.9072 3.85491 16.7643 3.94202C16.6248 4.02667 16.468 4.06838 16.2939 4.06838ZM22.8962 0.147222V10.8544H21.6V1.50663H21.5373L18.9239 3.24148V1.92497L21.6 0.147222H22.8962ZM29.0256 11.0004C28.4123 11.0004 27.8601 10.8789 27.3687 10.6348C26.8774 10.3906 26.4836 10.0557 26.1874 9.63116C25.8912 9.20542 25.7292 8.7208 25.7013 8.17728H26.9557C27.0046 8.66191 27.2241 9.06312 27.6144 9.37966C28.0081 9.69375 28.4785 9.85079 29.0256 9.85079C29.4647 9.85079 29.855 9.74772 30.1964 9.5416C30.5413 9.33671 30.8114 9.05451 31.0066 8.69503C31.2052 8.33309 31.3045 7.92334 31.3045 7.46693C31.3045 6.99948 31.2017 6.58232 30.9962 6.2167C30.794 5.8474 30.5152 5.55663 30.1599 5.34437C29.8044 5.13089 29.3984 5.02291 28.942 5.01923C28.6144 5.01555 28.2782 5.06711 27.9332 5.17139C27.5883 5.272 27.3042 5.40325 27.0812 5.56397L25.8686 5.41675L26.5168 0.147222H32.0781V1.29681H27.604L27.2276 4.45486H27.2903C27.5098 4.28064 27.7851 4.13586 28.1162 4.02053C28.4472 3.90643 28.7922 3.84879 29.151 3.84879C29.8061 3.84879 30.3899 4.00583 30.9021 4.31869C31.4177 4.62909 31.822 5.05484 32.1147 5.59468C32.4109 6.13451 32.5589 6.75161 32.5589 7.44604C32.5589 8.1282 32.4056 8.73923 32.099 9.27538C31.7959 9.80909 31.3777 10.2299 30.8446 10.5403C30.3114 10.847 29.7051 11.0004 29.0256 11.0004ZM38.3744 10.8544V0.147222H41.9913C42.8311 0.147222 43.5175 0.298125 44.0507 0.601171C44.5873 0.901762 44.9846 1.30784 45.2424 1.81946C45.5002 2.33231 45.6291 2.90406 45.6291 3.53468C45.6291 4.16531 45.5002 4.73951 45.2424 5.25481C44.988 5.77134 44.5943 6.18233 44.0611 6.48905C43.528 6.7921 42.845 6.94304 42.0123 6.94304H39.4197V5.79342H41.9704C42.5453 5.79342 43.0071 5.69402 43.3555 5.49527C43.7039 5.29651 43.9566 5.02785 44.1134 4.69045C44.2737 4.34814 44.3539 3.9641 44.3539 3.53468C44.3539 3.1065 44.2737 2.72246 44.1134 2.38506C43.9566 2.04644 43.7022 1.78145 43.3503 1.59005C42.9983 1.39498 42.5315 1.29681 41.9495 1.29681H39.6706V10.8544H38.3744ZM47.4229 0.147222H48.97L52.6079 9.03489H52.7334L56.3712 0.147222H57.9184V10.8544H56.7057V2.71878H56.6012L53.256 10.8544H52.0853L48.7401 2.71878H48.6356V10.8544H47.4229V0.147222Z" fill="#8A91A8"/></svg>