<svg width="60" height="11" viewBox="0 0 60 11" fill="none" xmlns="http://www.w3.org/2000/svg"><path d="M3.95749 0.146653V10.8125H2.66602V1.50081H2.60371L0 3.22895V1.91754L2.66602 0.146653H3.95749ZM6.73101 10.8125V9.87505L10.2499 6.02156C10.6628 5.56936 11.0037 5.17706 11.2701 4.84341C11.5377 4.50731 11.7356 4.19078 11.8639 3.89624C11.9958 3.59803 12.0618 3.28516 12.0618 2.95884C12.0618 2.58364 11.9714 2.25855 11.7918 1.98478C11.6146 1.71102 11.3715 1.49834 11.0624 1.34923C10.7533 1.20013 10.4062 1.1256 10.0214 1.1256C9.61084 1.1256 9.25408 1.20991 8.94862 1.38101C8.64683 1.54723 8.41223 1.7819 8.24606 2.08377C8.08233 2.38564 8.00049 2.74006 8.00049 3.14581H6.77255C6.77255 2.52129 6.9155 1.97257 7.20385 1.50081C7.4922 1.02783 7.88442 0.659937 8.38048 0.39595C8.8802 0.131962 9.441 0 10.0629 0C10.6873 0 11.2408 0.131962 11.7234 0.39595C12.206 0.659937 12.5848 1.01561 12.8585 1.46415C13.1334 1.91146 13.2702 2.41009 13.2702 2.95884C13.2702 3.35116 13.1993 3.7349 13.0564 4.1101C12.9171 4.48164 12.6752 4.89596 12.327 5.35427C11.9836 5.80891 11.5071 6.36501 10.8962 7.02132L8.50021 9.58294V9.66608H13.4571V10.8125H6.73101ZM16.2307 9.44852C15.9741 9.44852 15.7542 9.35562 15.5697 9.1723C15.3852 8.98775 15.2935 8.76777 15.2935 8.50989C15.2935 8.25324 15.3852 8.03327 15.5697 7.84872C15.7542 7.6654 15.9741 7.5725 16.2307 7.5725C16.4872 7.5725 16.7084 7.6654 16.8917 7.84872C17.0762 8.03327 17.1678 8.25324 17.1678 8.50989C17.1678 8.681 17.125 8.83744 17.0383 8.97921C16.954 9.12098 16.8416 9.23587 16.6998 9.32264C16.5606 9.40575 16.4042 9.44852 16.2307 9.44852ZM16.2307 4.05266C15.9741 4.05266 15.7542 3.9598 15.5697 3.77648C15.3852 3.59193 15.2935 3.37192 15.2935 3.11527C15.2935 2.85739 15.3852 2.63742 15.5697 2.4541C15.7542 2.26955 15.9741 2.17787 16.2307 2.17787C16.4872 2.17787 16.7084 2.26955 16.8917 2.4541C17.0762 2.63742 17.1678 2.85739 17.1678 3.11527C17.1678 3.28515 17.125 3.44158 17.0383 3.58335C16.954 3.72634 16.8416 3.84001 16.6998 3.92679C16.5606 4.01111 16.4042 4.05266 16.2307 4.05266ZM19.0592 10.8125V9.87505L22.578 6.02156C22.9922 5.56936 23.3319 5.17706 23.5995 4.84341C23.8658 4.50731 24.0638 4.19078 24.1933 3.89624C24.324 3.59803 24.39 3.28516 24.39 2.95884C24.39 2.58364 24.3008 2.25855 24.12 1.98478C23.9428 1.71102 23.6997 1.49834 23.3905 1.34923C23.0814 1.20013 22.7344 1.1256 22.3495 1.1256C21.9402 1.1256 21.5822 1.20991 21.2768 1.38101C20.975 1.54723 20.7404 1.7819 20.5743 2.08377C20.4105 2.38564 20.3299 2.74006 20.3299 3.14581H19.1007C19.1007 2.52129 19.2449 1.97257 19.5332 1.50081C19.8204 1.02783 20.2126 0.659937 20.7099 0.39595C21.2096 0.131962 21.7704 0 22.3911 0C23.0155 0 23.5701 0.131962 24.0515 0.39595C24.5342 0.659937 24.9129 1.01561 25.1866 1.46415C25.4615 1.91146 25.5984 2.41009 25.5984 2.95884C25.5984 3.35116 25.5275 3.7349 25.3845 4.1101C25.2465 4.48164 25.0033 4.89596 24.6563 5.35427C24.313 5.80891 23.8353 6.36501 23.2244 7.02132L20.8296 9.58294V9.66608H25.7853V10.8125H19.0592ZM31.121 10.9579C30.3366 10.9579 29.6683 10.7452 29.116 10.3175C28.565 9.88727 28.1434 9.26397 27.8514 8.44757C27.5594 7.62872 27.414 6.63875 27.414 5.47892C27.414 4.32642 27.5594 3.3426 27.8514 2.52619C28.1459 1.70734 28.5698 1.0816 29.1221 0.6514C29.6768 0.217532 30.3439 0 31.121 0C31.8981 0 32.5627 0.217532 33.115 0.6514C33.6709 1.0816 34.0937 1.70734 34.3857 2.52619C34.6802 3.3426 34.828 4.32642 34.828 5.47892C34.828 6.63875 34.6826 7.62872 34.3906 8.44757C34.0998 9.26397 33.677 9.88727 33.126 10.3175C32.5737 10.7452 31.9054 10.9579 31.121 10.9579ZM31.121 9.81273C31.8981 9.81273 32.5029 9.4375 32.933 8.68709C33.363 7.93791 33.5781 6.86852 33.5781 5.47892C33.5781 4.55619 33.4791 3.76912 33.2812 3.12015C33.0869 2.47119 32.8059 1.97621 32.4381 1.63523C32.074 1.29547 31.6342 1.1256 31.121 1.1256C30.35 1.1256 29.7477 1.50567 29.3139 2.26586C28.8802 3.02237 28.6639 4.09421 28.6639 5.47892C28.6639 6.40287 28.7604 7.18753 28.9547 7.83283C29.149 8.47936 29.4288 8.97066 29.7929 9.30675C30.1619 9.64407 30.6042 9.81273 31.121 9.81273ZM40.5315 10.8125V0.146653H44.1346C44.9703 0.146653 45.6545 0.296973 46.186 0.598848C46.72 0.898277 47.1158 1.30279 47.3724 1.81243C47.6302 2.3233 47.7585 2.89284 47.7585 3.52103C47.7585 4.14922 47.6302 4.7212 47.3724 5.23451C47.1195 5.74904 46.7273 6.15844 46.1958 6.46398C45.6656 6.76585 44.985 6.91621 44.1554 6.91621H41.5724V5.77103H44.1138C44.6857 5.77103 45.1463 5.67202 45.4933 5.47403C45.8403 5.27604 46.092 5.00842 46.2484 4.67232C46.4084 4.33134 46.4878 3.94878 46.4878 3.52103C46.4878 3.09449 46.4084 2.71194 46.2484 2.37585C46.092 2.03853 45.8391 1.77457 45.4884 1.58391C45.1377 1.38959 44.6722 1.2918 44.0931 1.2918H41.8229V10.8125H40.5315ZM49.5448 0.146653H51.0855L54.7095 8.99998H54.8353L58.458 0.146653H59.9999V10.8125H58.7916V2.70828H58.6877L55.3558 10.8125H54.189L50.8571 2.70828H50.7532V10.8125H49.5448V0.146653Z" fill="#8A91A8"/></svg>