<svg width="48" height="48" viewBox="0 0 48 48" fill="none" xmlns="http://www.w3.org/2000/svg"><path d="M0 7.33333C0 3.28325 3.28325 0 7.33333 0H40.6667C44.7168 0 48 3.28325 48 7.33333V24.0581C45.6267 22.5387 42.8589 21.5819 39.8843 21.3755C39.9667 21.1563 40.0117 20.9192 40.0117 20.6712C40.0117 19.5667 39.1163 18.6712 38.0117 18.6712H24.6667C23.5621 18.6712 22.6667 19.5667 22.6667 20.6712C22.6667 21.7757 23.5621 22.6712 24.6667 22.6712H31.9773C25.7256 25.2888 21.3333 31.4648 21.3333 38.6667C21.3333 42.1029 22.3333 45.3059 24.0581 48H7.33333C3.28325 48 0 44.7168 0 40.6667V7.33333ZM8 20.6712C8 23.9848 10.6863 26.6712 14 26.6712C17.3137 26.6712 20 23.9848 20 20.6712C20 17.3575 17.3137 14.6712 14 14.6712C10.6863 14.6712 8 17.3575 8 20.6712ZM14 29.3333C10.6863 29.3333 8 32.0197 8 35.3333C8 38.6469 10.6863 41.3333 14 41.3333C17.3137 41.3333 20 38.6469 20 35.3333C20 32.0197 17.3137 29.3333 14 29.3333ZM10.013 12.0001L38.0117 12C39.1163 12 40.0117 11.1046 40.0117 10C40.0117 8.89541 39.1163 8 38.0117 8L10.013 8.00005C8.90845 8.00005 8.01301 8.89549 8.01301 10.0001C8.01301 11.1046 8.90845 12.0001 10.013 12.0001Z" fill="white"/></svg>