<svg width="24" height="24" viewBox="0 0 24 24" fill="none" xmlns="http://www.w3.org/2000/svg"><path fill-rule="evenodd" clip-rule="evenodd" d="M19 3.00001V1.99998C19 1.44769 18.5523 1 18 1C17.4477 1 17 1.44772 17 2V3.00001H7V2.00001C7 1.44772 6.55228 1.00001 6 1.00001C5.44772 1.00001 5 1.4475 5 1.99979V3.00001C3 3.00001 2 4.0349 2 5.9433V19.5013C2 21.4386 3.56142 23 5.49874 23H18.5013C20.4386 23 22 21.4386 22 19.5013V5.9433C22.0301 3.92585 20.9527 3.00001 19 3.00001ZM20 19.6699C20 20.3928 19.4217 21 18.6699 21H5.3301C4.60722 21 4 20.3928 4 19.6699V7.07817H20V19.6699ZM7 10C7 9.44772 7.44772 9 8 9H10C10.5523 9 11 9.44772 11 10V12C11 12.5523 10.5523 13 10 13H8C7.44772 13 7 12.5523 7 12V10ZM14 9C13.4477 9 13 9.44772 13 10V12C13 12.5523 13.4477 13 14 13H16C16.5523 13 17 12.5523 17 12V10C17 9.44772 16.5523 9 16 9H14ZM7 16C7 15.4477 7.44772 15 8 15H10C10.5523 15 11 15.4477 11 16V18C11 18.5523 10.5523 19 10 19H8C7.44772 19 7 18.5523 7 18V16ZM13 16C13 15.4477 13.4477 15 14 15H16C16.5523 15 17 15.4477 17 16V18C17 18.5523 16.5523 19 16 19H14C13.4477 19 13 18.5523 13 18V16Z" fill="#147469"/></svg>