<svg width="16" height="16" viewBox="0 0 16 16" fill="none" xmlns="http://www.w3.org/2000/svg">
    <g clip-path="url(#clip0_0_322)">
        <path
            d="M6.953 4.0002C6.558 4.0002 6.231 4.3077 6.206 4.7022L6.1325 5.8832C6.13046 5.91494 6.1164 5.94472 6.09318 5.96646C6.06995 5.9882 6.03931 6.00026 6.0075 6.0002H5.25C5.05109 6.0002 4.86032 6.07921 4.71967 6.21987C4.57902 6.36052 4.5 6.55128 4.5 6.7502C4.5 6.94911 4.57902 7.13987 4.71967 7.28053C4.86032 7.42118 5.05109 7.5002 5.25 7.5002H5.898C5.91511 7.50016 5.93205 7.50364 5.94776 7.51041C5.96347 7.51719 5.97762 7.52712 5.98934 7.53959C6.00106 7.55206 6.01009 7.5668 6.01588 7.5829C6.02167 7.599 6.02409 7.61612 6.023 7.6332L5.976 8.3832C5.97396 8.41494 5.9599 8.44472 5.93668 8.46646C5.91345 8.48819 5.88281 8.50026 5.851 8.5002H5.25C5.05109 8.5002 4.86032 8.57921 4.71967 8.71987C4.57902 8.86052 4.5 9.05128 4.5 9.2502C4.5 9.44911 4.57902 9.63987 4.71967 9.78053C4.86032 9.92118 5.05109 10.0002 5.25 10.0002H5.742C5.75911 10.0002 5.77605 10.0036 5.79176 10.0104C5.80747 10.0172 5.82162 10.0271 5.83334 10.0396C5.84506 10.0521 5.85409 10.0668 5.85988 10.0829C5.86567 10.099 5.8681 10.1161 5.867 10.1332L5.7995 11.2052C5.78717 11.4034 5.85407 11.5983 5.98548 11.7472C6.1169 11.8961 6.30207 11.9866 6.50025 11.9989C6.69843 12.0113 6.8934 11.9444 7.04225 11.813C7.19111 11.6815 7.28167 11.4964 7.294 11.2982L7.3675 10.1172C7.36954 10.0854 7.3836 10.0557 7.40682 10.0339C7.43005 10.0122 7.46069 10.0001 7.4925 10.0002H8.242C8.25911 10.0002 8.27605 10.0036 8.29176 10.0104C8.30747 10.0172 8.32162 10.0271 8.33334 10.0396C8.34506 10.0521 8.35409 10.0668 8.35988 10.0829C8.36567 10.099 8.36809 10.1161 8.367 10.1332L8.2995 11.2052C8.29339 11.3033 8.30667 11.4017 8.33859 11.4947C8.3705 11.5877 8.42041 11.6735 8.48548 11.7472C8.55055 11.8209 8.62951 11.8811 8.71783 11.9243C8.80615 11.9675 8.90212 11.9928 9.00025 11.9989C9.09838 12.0051 9.19675 11.9918 9.28975 11.9599C9.38275 11.9279 9.46855 11.878 9.54226 11.813C9.61596 11.7479 9.67613 11.6689 9.71932 11.5806C9.76252 11.4923 9.78789 11.3963 9.794 11.2982L9.8675 10.1172C9.86954 10.0854 9.8836 10.0557 9.90682 10.0339C9.93005 10.0122 9.96069 10.0001 9.9925 10.0002H10.75C10.9489 10.0002 11.1397 9.92118 11.2803 9.78053C11.421 9.63987 11.5 9.44911 11.5 9.2502C11.5 9.05128 11.421 8.86052 11.2803 8.71987C11.1397 8.57921 10.9489 8.5002 10.75 8.5002H10.102C10.0849 8.50023 10.068 8.49675 10.0522 8.48998C10.0365 8.4832 10.0224 8.47327 10.0107 8.4608C9.99894 8.44833 9.98991 8.43359 9.98412 8.41749C9.97833 8.40139 9.9759 8.38427 9.977 8.3672L10.024 7.6172C10.026 7.58545 10.0401 7.55567 10.0633 7.53393C10.0865 7.5122 10.1172 7.50013 10.149 7.5002H10.75C10.9489 7.5002 11.1397 7.42118 11.2803 7.28053C11.421 7.13987 11.5 6.94911 11.5 6.7502C11.5 6.55128 11.421 6.36052 11.2803 6.21987C11.1397 6.07921 10.9489 6.0002 10.75 6.0002H10.258C10.2409 6.00023 10.224 5.99675 10.2082 5.98998C10.1925 5.9832 10.1784 5.97327 10.1667 5.9608C10.1549 5.94833 10.1459 5.93359 10.1401 5.91749C10.1343 5.90139 10.1319 5.88427 10.133 5.8672L10.2005 4.7952C10.2066 4.69707 10.1933 4.59869 10.1614 4.5057C10.1295 4.4127 10.0796 4.3269 10.0145 4.25319C9.94945 4.17948 9.87049 4.11932 9.78217 4.07612C9.69385 4.03293 9.59788 4.00755 9.49975 4.00145C9.40162 3.99534 9.30325 4.00862 9.21025 4.04053C9.11725 4.07244 9.03145 4.12236 8.95774 4.18743C8.88404 4.2525 8.82387 4.33145 8.78068 4.41978C8.73748 4.5081 8.71211 4.60407 8.706 4.7022L8.6325 5.8832C8.63046 5.91494 8.6164 5.94472 8.59318 5.96646C8.56995 5.9882 8.53931 6.00026 8.5075 6.0002H7.758C7.74089 6.00023 7.72395 5.99675 7.70824 5.98998C7.69253 5.9832 7.67838 5.97327 7.66666 5.9608C7.65494 5.94833 7.64591 5.93359 7.64012 5.91749C7.63433 5.90139 7.6319 5.88427 7.633 5.8672L7.7005 4.7952C7.70685 4.69314 7.69223 4.59087 7.65753 4.49469C7.62283 4.39851 7.5688 4.31046 7.49875 4.23597C7.42871 4.16148 7.34415 4.10212 7.25029 4.06157C7.15643 4.02102 7.05525 4.00013 6.953 4.0002ZM8.476 8.3832C8.47396 8.41494 8.4599 8.44472 8.43668 8.46646C8.41345 8.48819 8.38281 8.50026 8.351 8.5002H7.602C7.58489 8.50023 7.56795 8.49675 7.55224 8.48998C7.53653 8.4832 7.52238 8.47327 7.51066 8.4608C7.49894 8.44833 7.48991 8.43359 7.48412 8.41749C7.47833 8.40139 7.47591 8.38427 7.477 8.3672L7.524 7.6172C7.52604 7.58545 7.5401 7.55567 7.56332 7.53393C7.58655 7.5122 7.61719 7.50013 7.649 7.5002H8.398C8.41511 7.50016 8.43205 7.50364 8.44776 7.51041C8.46347 7.51719 8.47762 7.52712 8.48934 7.53959C8.50106 7.55206 8.51009 7.5668 8.51588 7.5829C8.52167 7.599 8.5241 7.61612 8.523 7.6332L8.476 8.3832Z"
            fill="#A2A1A1" />
        <path
            d="M3 0.5C2.6717 0.5 2.34661 0.564664 2.04329 0.690301C1.73998 0.815938 1.46438 1.00009 1.23223 1.23223C0.763392 1.70107 0.5 2.33696 0.5 3V13C0.5 13.663 0.763392 14.2989 1.23223 14.7678C1.46438 14.9999 1.73998 15.1841 2.04329 15.3097C2.34661 15.4353 2.6717 15.5 3 15.5H13C13.663 15.5 14.2989 15.2366 14.7678 14.7678C15.2366 14.2989 15.5 13.663 15.5 13V3C15.5 2.6717 15.4353 2.34661 15.3097 2.04329C15.1841 1.73998 14.9999 1.46438 14.7678 1.23223C14.5356 1.00009 14.26 0.815938 13.9567 0.690301C13.6534 0.564664 13.3283 0.5 13 0.5H3ZM1.5 3C1.5 2.60218 1.65804 2.22064 1.93934 1.93934C2.22064 1.65804 2.60218 1.5 3 1.5H13C13.3978 1.5 13.7794 1.65804 14.0607 1.93934C14.342 2.22064 14.5 2.60218 14.5 3V13C14.5 13.3978 14.342 13.7794 14.0607 14.0607C13.7794 14.342 13.3978 14.5 13 14.5H3C2.60218 14.5 2.22064 14.342 1.93934 14.0607C1.65804 13.7794 1.5 13.3978 1.5 13V3Z"
            fill="#A2A1A1" />
        <path
            d="M6.953 4.0002C6.558 4.0002 6.231 4.3077 6.206 4.7022L6.1325 5.8832C6.13046 5.91494 6.1164 5.94472 6.09318 5.96646C6.06995 5.9882 6.03931 6.00026 6.0075 6.0002H5.25C5.05109 6.0002 4.86032 6.07921 4.71967 6.21987C4.57902 6.36052 4.5 6.55128 4.5 6.7502C4.5 6.94911 4.57902 7.13987 4.71967 7.28053C4.86032 7.42118 5.05109 7.5002 5.25 7.5002H5.898C5.91511 7.50016 5.93205 7.50364 5.94776 7.51041C5.96347 7.51719 5.97762 7.52712 5.98934 7.53959C6.00106 7.55206 6.01009 7.5668 6.01588 7.5829C6.02167 7.599 6.02409 7.61612 6.023 7.6332L5.976 8.3832C5.97396 8.41494 5.9599 8.44472 5.93668 8.46646C5.91345 8.4882 5.88281 8.50026 5.851 8.5002H5.25C5.05109 8.5002 4.86032 8.57921 4.71967 8.71987C4.57902 8.86052 4.5 9.05128 4.5 9.2502C4.5 9.44911 4.57902 9.63987 4.71967 9.78053C4.86032 9.92118 5.05109 10.0002 5.25 10.0002H5.742C5.75911 10.0002 5.77605 10.0036 5.79176 10.0104C5.80747 10.0172 5.82162 10.0271 5.83334 10.0396C5.84506 10.0521 5.85409 10.0668 5.85988 10.0829C5.86567 10.099 5.8681 10.1161 5.867 10.1332L5.7995 11.2052C5.78717 11.4034 5.85407 11.5983 5.98548 11.7472C6.1169 11.8961 6.30207 11.9866 6.50025 11.9989C6.69843 12.0113 6.8934 11.9444 7.04225 11.813C7.19111 11.6815 7.28167 11.4964 7.294 11.2982L7.3675 10.1172C7.36954 10.0854 7.3836 10.0557 7.40682 10.0339C7.43005 10.0122 7.46069 10.0001 7.4925 10.0002H8.242C8.25911 10.0002 8.27605 10.0036 8.29176 10.0104C8.30747 10.0172 8.32162 10.0271 8.33334 10.0396C8.34506 10.0521 8.35409 10.0668 8.35988 10.0829C8.36567 10.099 8.36809 10.1161 8.367 10.1332L8.2995 11.2052C8.29339 11.3033 8.30667 11.4017 8.33859 11.4947C8.3705 11.5877 8.42041 11.6735 8.48548 11.7472C8.55055 11.8209 8.62951 11.8811 8.71783 11.9243C8.80615 11.9675 8.90212 11.9928 9.00025 11.9989C9.09838 12.0051 9.19675 11.9918 9.28975 11.9599C9.38275 11.9279 9.46855 11.878 9.54226 11.813C9.61596 11.7479 9.67613 11.6689 9.71932 11.5806C9.76252 11.4923 9.78789 11.3963 9.794 11.2982L9.8675 10.1172C9.86954 10.0854 9.8836 10.0557 9.90682 10.0339C9.93005 10.0122 9.96069 10.0001 9.9925 10.0002H10.75C10.9489 10.0002 11.1397 9.92118 11.2803 9.78053C11.421 9.63987 11.5 9.44911 11.5 9.2502C11.5 9.05128 11.421 8.86052 11.2803 8.71987C11.1397 8.57921 10.9489 8.5002 10.75 8.5002H10.102C10.0849 8.50023 10.068 8.49675 10.0522 8.48998C10.0365 8.4832 10.0224 8.47327 10.0107 8.4608C9.99894 8.44833 9.98991 8.43359 9.98412 8.41749C9.97833 8.40139 9.97591 8.38427 9.977 8.3672L10.024 7.6172C10.026 7.58545 10.0401 7.55567 10.0633 7.53393C10.0865 7.5122 10.1172 7.50013 10.149 7.5002H10.75C10.9489 7.5002 11.1397 7.42118 11.2803 7.28053C11.421 7.13987 11.5 6.94911 11.5 6.7502C11.5 6.55128 11.421 6.36052 11.2803 6.21987C11.1397 6.07921 10.9489 6.0002 10.75 6.0002H10.258C10.2409 6.00023 10.224 5.99675 10.2082 5.98998C10.1925 5.9832 10.1784 5.97327 10.1667 5.9608C10.1549 5.94833 10.1459 5.93359 10.1401 5.91749C10.1343 5.90139 10.1319 5.88427 10.133 5.8672L10.2005 4.7952C10.2066 4.69707 10.1933 4.59869 10.1614 4.5057C10.1295 4.4127 10.0796 4.3269 10.0145 4.25319C9.94945 4.17948 9.87049 4.11932 9.78217 4.07612C9.69385 4.03293 9.59788 4.00755 9.49975 4.00145C9.40162 3.99534 9.30325 4.00862 9.21025 4.04053C9.11725 4.07244 9.03145 4.12236 8.95774 4.18743C8.88404 4.2525 8.82387 4.33145 8.78068 4.41978C8.73748 4.5081 8.71211 4.60407 8.706 4.7022L8.6325 5.8832C8.63046 5.91494 8.6164 5.94472 8.59318 5.96646C8.56995 5.9882 8.53931 6.00026 8.5075 6.0002H7.758C7.74089 6.00023 7.72395 5.99675 7.70824 5.98998C7.69253 5.9832 7.67838 5.97327 7.66666 5.9608C7.65494 5.94833 7.64591 5.93359 7.64012 5.91749C7.63433 5.90139 7.6319 5.88427 7.633 5.8672L7.7005 4.7952C7.70685 4.69314 7.69223 4.59087 7.65753 4.49469C7.62283 4.39851 7.5688 4.31046 7.49875 4.23597C7.42871 4.16148 7.34415 4.10212 7.25029 4.06157C7.15643 4.02102 7.05525 4.00013 6.953 4.0002ZM8.476 8.3832C8.47396 8.41494 8.4599 8.44472 8.43668 8.46646C8.41345 8.4882 8.38281 8.50026 8.351 8.5002H7.602C7.58489 8.50023 7.56795 8.49675 7.55224 8.48998C7.53653 8.4832 7.52238 8.47327 7.51066 8.4608C7.49894 8.44833 7.48991 8.43359 7.48412 8.41749C7.47833 8.40139 7.47591 8.38427 7.477 8.3672L7.524 7.6172C7.52604 7.58545 7.5401 7.55567 7.56332 7.53393C7.58655 7.5122 7.61719 7.50013 7.649 7.5002H8.398C8.41511 7.50016 8.43205 7.50364 8.44776 7.51041C8.46347 7.51719 8.47762 7.52712 8.48934 7.53959C8.50106 7.55206 8.51009 7.5668 8.51588 7.5829C8.52167 7.599 8.52409 7.61612 8.523 7.6332L8.476 8.3832Z"
            stroke="#A2A1A1" />
        <path
            d="M3 0.5C2.6717 0.5 2.34661 0.564664 2.04329 0.690301C1.73998 0.815938 1.46438 1.00009 1.23223 1.23223C0.763392 1.70107 0.5 2.33696 0.5 3V13C0.5 13.663 0.763392 14.2989 1.23223 14.7678C1.46438 14.9999 1.73998 15.1841 2.04329 15.3097C2.34661 15.4353 2.6717 15.5 3 15.5H13C13.663 15.5 14.2989 15.2366 14.7678 14.7678C15.2366 14.2989 15.5 13.663 15.5 13V3C15.5 2.6717 15.4353 2.34661 15.3097 2.04329C15.1841 1.73998 14.9999 1.46438 14.7678 1.23223C14.5356 1.00009 14.26 0.815938 13.9567 0.690301C13.6534 0.564664 13.3283 0.5 13 0.5H3ZM1.5 3C1.5 2.60218 1.65804 2.22064 1.93934 1.93934C2.22064 1.65804 2.60218 1.5 3 1.5H13C13.3978 1.5 13.7794 1.65804 14.0607 1.93934C14.342 2.22064 14.5 2.60218 14.5 3V13C14.5 13.3978 14.342 13.7794 14.0607 14.0607C13.7794 14.342 13.3978 14.5 13 14.5H3C2.60218 14.5 2.22064 14.342 1.93934 14.0607C1.65804 13.7794 1.5 13.3978 1.5 13V3Z"
            stroke="#A2A1A1" />
    </g>
    <defs>
        <clipPath id="clip0_0_322">
            <rect width="16" height="16" fill="white" />
        </clipPath>
    </defs>
</svg>