<svg width="24" height="24" viewBox="0 0 24 24" fill="none"
    xmlns="http://www.w3.org/2000/svg">
    <path d="M20 8.00049L14 2.74049C13.45 2.24854 12.7379 1.97656 12 1.97656C11.262 1.97656 10.55 2.24854 9.99997 2.74049L3.99997 8.00049C3.68234 8.28457 3.42887 8.63305 3.25644 9.02274C3.08402 9.41243 2.99659 9.83438 2.99997 10.2605V19.0005C2.99997 19.7961 3.31604 20.5592 3.87865 21.1218C4.44126 21.6844 5.20432 22.0005 5.99997 22.0005H18C18.7956 22.0005 19.5587 21.6844 20.1213 21.1218C20.6839 20.5592 21 19.7961 21 19.0005V10.2505C21.0019 9.82606 20.9138 9.40603 20.7414 9.01818C20.5691 8.63032 20.3163 8.28345 20 8.00049ZM14 20.0005H9.99997V15.0005C9.99997 14.7353 10.1053 14.4809 10.2929 14.2934C10.4804 14.1059 10.7348 14.0005 11 14.0005H13C13.2652 14.0005 13.5195 14.1059 13.7071 14.2934C13.8946 14.4809 14 14.7353 14 15.0005V20.0005ZM19 19.0005C19 19.2657 18.8946 19.5201 18.7071 19.7076C18.5195 19.8951 18.2652 20.0005 18 20.0005H16V15.0005C16 14.2048 15.6839 13.4418 15.1213 12.8792C14.5587 12.3166 13.7956 12.0005 13 12.0005H11C10.2043 12.0005 9.44126 12.3166 8.87865 12.8792C8.31604 13.4418 7.99997 14.2048 7.99997 15.0005V20.0005H5.99997C5.73476 20.0005 5.4804 19.8951 5.29287 19.7076C5.10533 19.5201 4.99997 19.2657 4.99997 19.0005V10.2505C5.00015 10.1085 5.03057 9.96819 5.08919 9.83887C5.14781 9.70956 5.2333 9.5942 5.33997 9.50049L11.34 4.25049C11.5225 4.09018 11.7571 4.00176 12 4.00176C12.2429 4.00176 12.4775 4.09018 12.66 4.25049L18.66 9.50049C18.7666 9.5942 18.8521 9.70956 18.9108 9.83887C18.9694 9.96819 18.9998 10.1085 19 10.2505V19.0005Z" fill="#DD9C3B"/>
</svg>