<svg width="22" height="21" viewBox="0 0 22 21" fill="none" xmlns="http://www.w3.org/2000/svg"><path fill-rule="evenodd" clip-rule="evenodd" d="M0.662981 16.7619H5.78474V14.6667H4.12321L5.86226 12.9287L5.20226 12.1901C4.21331 11.0817 3.6895 9.76381 3.6895 8.38095C3.6895 4.91438 6.97902 2.09524 11.0228 2.09524C14.6811 2.09524 17.8062 4.43562 18.2912 7.53971L20.3613 7.21705C19.7181 3.102 15.7036 0 11.0228 0C5.82454 0 1.59426 3.75991 1.59426 8.38095C1.59426 9.9681 2.08454 11.4809 3.02007 12.8082L0.195182 15.6323C-0.221722 16.0491 0.073468 16.7619 0.662981 16.7619Z" fill="#8A898E"/><path d="M21.3815 21C21.8747 21 22.1688 20.4378 21.8953 20.0181L20.182 17.389C20.5281 16.638 20.709 15.823 20.709 15C20.709 11.691 17.8582 9 14.3545 9C10.8507 9 8 11.691 8 15C8 18.309 10.8507 21 14.3545 21H21.3815Z" fill="#8A898E"/></svg>