<svg width="40" height="40" viewBox="0 0 40 40" fill="none"
    xmlns="http://www.w3.org/2000/svg">
    <path d="M14.9602 28.2553H15.7113C15.8879 28.2553 16.0616 28.3063 16.2082 28.4048C16.4417 28.5617 16.6728 28.7221 16.9127 28.8692C17.0499 28.9532 17.2069 29.0707 17.3625 29.1149L23.1342 29.1216L27.1659 29.1227C27.9454 29.1229 28.5934 28.4851 28.578 27.7057C28.5641 26.9999 28.448 26.366 27.7418 26.366H27.8314C28.5931 26.366 29.1797 25.7434 29.172 24.9818C29.1637 24.1743 29.2866 23.5133 28.4819 23.5133H28.7509C29.5176 23.5133 29.9259 22.8437 29.9259 22.0687C29.9259 21.302 30.026 20.6862 29.2593 20.6862H29.5273C30.294 20.6862 30.3995 20.011 30.3995 19.2444C30.3995 18.4694 29.9843 17.905 29.2176 17.905L21.9648 17.9168C22.1335 17.6849 22.9906 14.5006 22.9274 13.8893C22.882 13.4511 22.7535 13.014 22.6469 12.588C22.5042 12.018 22.3507 11.4508 22.1972 10.8836C22.0991 10.5211 21.5252 10.2665 21.2069 10.1514C20.723 9.97638 20.2078 10.0562 19.8026 10.3742C19.587 10.5435 19.2521 10.8223 19.2525 11.115C19.2538 12.1294 19.2516 13.1438 19.2554 14.1582C19.2554 14.167 19.2554 14.1759 19.2555 14.1847C19.2557 14.236 19.2558 14.2881 19.2426 14.3377C19.2285 14.3909 19.1999 14.439 19.1716 14.4862C18.6036 15.4335 18.0382 16.3824 17.4731 17.3315C17.2253 17.7477 16.9776 18.1639 16.7307 18.5806C16.5067 18.9585 16.3028 19.3706 15.9186 19.612C15.5792 19.8252 15.2682 20.0221 14.9269 20.2348" stroke="#007581" stroke-width="0.7" stroke-miterlimit="10" stroke-linecap="round" stroke-linejoin="round"/>
    <path d="M13.7848 29.9582H10.7127C10.0984 29.9582 9.60046 29.4603 9.60046 28.846V20.2841C9.60046 19.6698 10.0984 19.1719 10.7127 19.1719H13.7848C14.399 19.1719 14.897 19.6698 14.897 20.2841V28.846C14.897 29.4603 14.399 29.9582 13.7848 29.9582Z" stroke="#007581" stroke-width="0.7" stroke-miterlimit="10" stroke-linecap="round" stroke-linejoin="round"/>
    <path d="M11.296 24.8383V20.6348" stroke="#007581" stroke-width="0.7" stroke-miterlimit="10" stroke-linecap="round" stroke-linejoin="round"/>
    <path d="M11.296 25.7949V26.4642" stroke="#007581" stroke-width="0.7" stroke-miterlimit="10" stroke-linecap="round" stroke-linejoin="round"/>
</svg>