
<svg width="24" height="24" viewBox="0 0 24 24" fill="none" xmlns="http://www.w3.org/2000/svg"><path d="M16.4218 11.7613C16.7744 11.7633 17.0638 12.0512 17.0158 12.4006C16.926 13.0535 16.701 13.6657 16.3768 14.2175L15.4543 13.295C15.5764 13.0145 15.6685 12.7149 15.7224 12.3995C15.7823 12.0489 16.0661 11.7592 16.4218 11.7613ZM14.0443 11.885L9.55175 7.3925C9.55175 6.11991 10.4579 5 11.7943 5C13.0317 5 14.0443 6.0065 14.0443 7.25V11.885ZM18.0638 17.8229C18.3288 18.0876 18.3281 18.5172 18.0622 18.781C17.7979 19.0432 17.3714 19.0424 17.1082 18.7792L14.4418 16.1128C13.8568 16.4502 13.2118 16.6903 12.5292 16.7878V18.4977C12.5292 18.912 12.1935 19.2477 11.7792 19.2477C11.365 19.2477 11.0292 18.912 11.0292 18.4977V16.7802C8.77639 16.4437 6.87578 14.6415 6.57168 12.3761C6.52483 12.0272 6.81467 11.7402 7.16675 11.7402C7.51883 11.7402 7.79833 12.0278 7.85623 12.3751C8.17398 14.2808 9.90254 15.5645 11.7717 15.5645C12.3792 15.5645 12.9643 15.422 13.505 15.1775L12.26 13.9325L11.765 13.985C10.52 13.985 9.515 12.9725 9.515 11.735L9.5075 11.195L5.47641 7.16391C5.21299 6.90049 5.21216 6.47367 5.47454 6.20922C5.73826 5.94343 6.16773 5.94245 6.43266 6.20703L18.0638 17.8229Z" fill="#FF0000"/></svg>