<svg width="1420" height="100" viewBox="0 0 1420 100" fill="none" xmlns="http://www.w3.org/2000/svg">
<rect width="1420" height="100" rx="20" fill="#F2F7FF"/>
<path d="M1222.2 60V37.984H1231.83C1233.24 37.984 1234.36 38.1653 1235.19 38.528C1236.05 38.8693 1236.67 39.3493 1237.08 39.968C1237.51 40.5867 1237.79 41.3227 1237.94 42.176C1238.09 43.008 1238.17 43.9253 1238.17 44.928C1238.17 45.888 1238.09 46.7947 1237.94 47.648C1237.82 48.48 1237.54 49.216 1237.11 49.856C1236.69 50.496 1236.05 50.9973 1235.19 51.36C1234.34 51.7227 1233.2 51.904 1231.77 51.904H1224.95V60H1222.2ZM1224.95 49.504H1230.87C1231.92 49.504 1232.74 49.4187 1233.34 49.248C1233.95 49.0773 1234.41 48.8107 1234.71 48.448C1235.01 48.064 1235.2 47.584 1235.29 47.008C1235.37 46.432 1235.42 45.7387 1235.42 44.928C1235.42 44.1173 1235.37 43.424 1235.29 42.848C1235.22 42.272 1235.04 41.8027 1234.74 41.44C1234.47 41.0773 1234.02 40.8107 1233.4 40.64C1232.8 40.448 1231.98 40.352 1230.94 40.352H1224.95V49.504ZM1242.63 60V43.68H1244.96L1245.09 46.816H1245.28C1245.56 45.8987 1245.96 45.1947 1246.47 44.704C1246.98 44.2133 1247.6 43.8827 1248.32 43.712C1249.05 43.52 1249.85 43.424 1250.72 43.424V45.984C1249.25 45.984 1248.12 46.2187 1247.33 46.688C1246.54 47.1573 1246 47.8827 1245.7 48.864C1245.4 49.8453 1245.25 51.0827 1245.25 52.576V60H1242.63ZM1254.31 39.072V36.224H1257.1V39.072H1254.31ZM1254.38 60V43.68H1257V60H1254.38ZM1268.45 60.256C1267.22 60.256 1266.19 60.1493 1265.38 59.936C1264.59 59.7227 1263.95 59.4027 1263.46 58.976C1262.99 58.5493 1262.64 58.0053 1262.41 57.344C1262.17 56.6827 1262.01 55.8933 1261.93 54.976C1261.86 54.0587 1261.83 53.0133 1261.83 51.84C1261.83 50.624 1261.87 49.5573 1261.96 48.64C1262.06 47.7227 1262.25 46.9333 1262.5 46.272C1262.78 45.5893 1263.15 45.0453 1263.62 44.64C1264.11 44.2347 1264.74 43.936 1265.51 43.744C1266.28 43.5307 1267.23 43.424 1268.36 43.424C1269.1 43.424 1269.88 43.4667 1270.69 43.552C1271.53 43.616 1272.21 43.712 1272.74 43.84V45.952C1272.25 45.8667 1271.64 45.792 1270.92 45.728C1270.21 45.664 1269.57 45.632 1269 45.632C1268 45.632 1267.18 45.7173 1266.57 45.888C1265.97 46.0587 1265.51 46.368 1265.19 46.816C1264.89 47.264 1264.69 47.8933 1264.58 48.704C1264.48 49.5147 1264.42 50.56 1264.42 51.84C1264.42 53.1413 1264.48 54.208 1264.58 55.04C1264.69 55.8507 1264.9 56.48 1265.22 56.928C1265.56 57.3547 1266.03 57.6533 1266.63 57.824C1267.25 57.9733 1268.06 58.048 1269.06 58.048C1269.66 58.048 1270.31 58.016 1271.01 57.952C1271.72 57.888 1272.35 57.8133 1272.9 57.728V59.84C1272.37 59.9467 1271.69 60.0427 1270.85 60.128C1270.02 60.2133 1269.22 60.256 1268.45 60.256ZM1277.16 39.072V36.224H1279.94V39.072H1277.16ZM1277.22 60V43.68H1279.84V60H1277.22ZM1285.35 60V43.68H1287.71L1287.81 46.016H1288C1288.24 45.504 1288.56 45.056 1288.96 44.672C1289.39 44.288 1289.95 43.9893 1290.66 43.776C1291.38 43.5413 1292.3 43.424 1293.41 43.424C1294.63 43.424 1295.6 43.552 1296.32 43.808C1297.05 44.064 1297.6 44.448 1297.99 44.96C1298.39 45.472 1298.66 46.1333 1298.79 46.944C1298.91 47.7333 1298.98 48.6827 1298.98 49.792V60H1296.39V50.688C1296.39 49.5787 1296.33 48.704 1296.23 48.064C1296.14 47.4027 1295.96 46.912 1295.68 46.592C1295.4 46.2507 1295 46.0267 1294.47 45.92C1293.93 45.8133 1293.23 45.76 1292.35 45.76C1291.31 45.76 1290.49 45.8987 1289.89 46.176C1289.29 46.432 1288.86 46.816 1288.58 47.328C1288.3 47.8187 1288.13 48.4267 1288.07 49.152C1288 49.856 1287.97 50.6667 1287.97 51.584V60H1285.35ZM1310.49 66.592C1309.8 66.592 1309.1 66.5707 1308.37 66.528C1307.67 66.5067 1307 66.4747 1306.36 66.432C1305.72 66.3893 1305.17 66.3467 1304.73 66.304V64.192C1305.24 64.2347 1305.8 64.2667 1306.42 64.288C1307.04 64.3307 1307.65 64.352 1308.25 64.352C1308.86 64.3733 1309.42 64.384 1309.91 64.384C1311.15 64.384 1312.12 64.2987 1312.82 64.128C1313.53 63.9573 1314.06 63.6587 1314.42 63.232C1314.78 62.8053 1315.01 62.208 1315.09 61.44C1315.2 60.672 1315.25 59.6907 1315.25 58.496V57.824H1315.09C1314.82 58.4213 1314.43 58.8907 1313.94 59.232C1313.45 59.5733 1312.86 59.8187 1312.18 59.968C1311.5 60.096 1310.72 60.16 1309.85 60.16C1308.65 60.16 1307.66 60.032 1306.87 59.776C1306.1 59.52 1305.49 59.0933 1305.05 58.496C1304.6 57.8773 1304.28 57.024 1304.09 55.936C1303.92 54.848 1303.83 53.4827 1303.83 51.84C1303.83 50.176 1303.93 48.8 1304.12 47.712C1304.31 46.624 1304.63 45.7707 1305.08 45.152C1305.53 44.5333 1306.13 44.096 1306.9 43.84C1307.69 43.5627 1308.68 43.424 1309.88 43.424C1310.6 43.424 1311.32 43.488 1312.02 43.616C1312.73 43.7227 1313.36 43.968 1313.91 44.352C1314.49 44.736 1314.92 45.2907 1315.22 46.016H1315.41L1315.54 43.68H1317.88V57.888C1317.88 59.4667 1317.79 60.8107 1317.62 61.92C1317.47 63.0293 1317.15 63.9253 1316.66 64.608C1316.17 65.2907 1315.44 65.792 1314.45 66.112C1313.47 66.432 1312.15 66.592 1310.49 66.592ZM1310.87 57.888C1311.94 57.888 1312.78 57.7493 1313.4 57.472C1314.02 57.1733 1314.46 56.7147 1314.74 56.096C1314.98 55.584 1315.12 54.976 1315.16 54.272C1315.22 53.568 1315.25 52.7467 1315.25 51.808C1315.25 50.912 1315.23 50.1227 1315.19 49.44C1315.15 48.736 1315.01 48.1387 1314.77 47.648C1314.5 46.9653 1314.04 46.4747 1313.4 46.176C1312.76 45.8773 1311.92 45.728 1310.87 45.728C1309.89 45.728 1309.1 45.8027 1308.5 45.952C1307.93 46.08 1307.49 46.3467 1307.19 46.752C1306.89 47.1573 1306.69 47.7653 1306.58 48.576C1306.48 49.3867 1306.42 50.464 1306.42 51.808C1306.42 53.152 1306.48 54.2293 1306.58 55.04C1306.69 55.8507 1306.89 56.4587 1307.19 56.864C1307.49 57.2693 1307.93 57.5467 1308.5 57.696C1309.1 57.824 1309.89 57.888 1310.87 57.888Z" fill="black"/>
<g clip-path="url(#clip0_631_1486)">
<path d="M247.034 66.3548V66.6048H247.285H271.243H271.494V66.3548V63.8781V63.6281H271.243H250.187V37.2695V37.0195H249.937H247.285H247.034V37.2695V66.3548ZM282.49 51.4366L270.822 37.1118L270.746 37.0195H270.627H267.466H266.938L267.271 37.4275L280.903 54.1238V66.3548V66.6048H281.153H283.806H284.057V66.3548V54.1238L297.688 37.4275L298.021 37.0195H297.494H294.31H294.191L294.116 37.1121L282.49 51.4366ZM326.287 49.7588V49.5088H326.036H306.89V39.9962H327.077H327.327V39.7462V37.2695V37.0195H327.077H303.988H303.737V37.2695V66.3548V66.6048H303.988H306.64H306.89V66.3548V52.4644H326.036H326.287V52.2144V49.7588ZM345.602 51.4366L333.934 37.1118L333.859 37.0195H333.74H330.578H330.051L330.384 37.4275L344.015 54.1238V66.3548V66.6048H344.266H346.918H347.169V66.3548V54.1238L360.8 37.4275L361.133 37.0195H360.606H357.422H357.303L357.228 37.1121L345.602 51.4366Z" fill="#5CE1E6" stroke="#5CE1E6"/>
<path d="M130.769 37.8594H143.863V52.3596L130.769 37.8594ZM116.911 46.369H116.784C116.784 43.4619 117.576 41.3168 119.161 39.9338C120.745 38.5508 123.186 37.8594 126.483 37.8594L143.863 58.9006C143.863 61.6949 143.106 63.6918 141.592 64.8913C140.12 66.0626 137.716 66.6483 134.376 66.6483L116.911 46.369ZM116.848 52.0845L129.454 66.6694H116.848V52.0845ZM176.395 67.4527C176.395 74.1278 173.035 77.4651 166.315 77.4651H164.999V37.8594H176.395V67.4527ZM149.359 37.8594H161.094V66.6694H159.184C153.978 66.6694 150.873 64.9054 149.868 61.3774C149.528 60.2343 149.359 58.9148 149.359 57.4189V37.8594ZM197.255 37.8594H199.165C204.372 37.8594 207.477 39.6163 208.482 43.1303C208.821 44.2874 208.991 45.614 208.991 47.1099V66.6694H197.255V37.8594ZM181.849 37.8594H193.266V66.6694H181.849V37.8594ZM229.767 37.8594H241.481V52.6772H239.974C236.325 52.6772 233.706 52.0492 232.122 50.7931C230.552 49.5372 229.767 47.3992 229.767 44.3792V37.8594ZM225.522 66.6694C223.23 66.6694 221.193 65.8227 219.411 64.1293C217.84 62.6334 216.61 60.6435 215.718 58.1598C214.898 55.8736 214.487 53.6085 214.487 51.3648C214.487 47.9919 215.322 44.9931 216.991 42.3682C218.18 40.5054 219.743 39.193 221.682 38.4309C222.672 38.0498 223.775 37.8594 224.992 37.8594H226.626V66.6694H225.522ZM229.767 61.1445H240.377V61.7372C240.377 63.0496 239.903 64.1574 238.955 65.0606C237.795 66.1332 236.147 66.6694 234.011 66.6694H229.767V61.1445Z" fill="#007581"/>
<mask id="mask0_631_1486" style="mask-type:luminance" maskUnits="userSpaceOnUse" x="48" y="44" width="15" height="16">
<path d="M48 44.4922H62.1639V59.4281H48V44.4922Z" fill="white"/>
</mask>
<g mask="url(#mask0_631_1486)">
<path fill-rule="evenodd" clip-rule="evenodd" d="M48 51.9587C48 48.0779 51.1495 44.9414 55.0265 44.9414C58.9115 44.9414 62.053 48.088 62.053 51.9587C62.053 55.8376 58.9015 58.9741 55.0265 58.9741C51.1415 58.9741 48 55.8275 48 51.9587Z" fill="#5CE1E6"/>
</g>
<mask id="mask1_631_1486" style="mask-type:luminance" maskUnits="userSpaceOnUse" x="82" y="25" width="15" height="15">
<path d="M82.2822 25H96.7261V39.3425H82.2822V25Z" fill="white"/>
</mask>
<g mask="url(#mask1_631_1486)">
<path fill-rule="evenodd" clip-rule="evenodd" d="M85.8127 38.2646C82.4476 36.3252 81.299 32.0399 83.2415 28.6821C85.184 25.3224 89.4761 24.1756 92.8393 26.115C96.2024 28.0544 97.353 32.3397 95.4105 35.6975C93.4679 39.0552 89.1759 40.204 85.8127 38.2646Z" fill="#5CE1E6"/>
</g>
<mask id="mask2_631_1486" style="mask-type:luminance" maskUnits="userSpaceOnUse" x="82" y="44" width="26" height="35">
<path d="M82.2822 44.4922H107.968V78.9994H82.2822V44.4922Z" fill="white"/>
</mask>
<g mask="url(#mask2_631_1486)">
<path fill-rule="evenodd" clip-rule="evenodd" d="M99.6825 58.8972L94.8019 67.3329C95.0236 67.6126 95.2271 67.9123 95.4105 68.2302C97.353 71.588 96.2024 75.8731 92.8393 77.8126C89.4761 79.7521 85.184 78.6051 83.2415 75.2456C81.299 71.8877 82.4476 67.6025 85.8127 65.6631C87.2616 64.8322 88.8756 64.5727 90.4131 64.804L95.2936 56.3704C94.3183 55.1633 93.738 53.6383 93.738 51.9684C93.738 48.0896 96.8895 44.9531 100.764 44.9531C104.651 44.9531 107.793 48.0997 107.793 51.9684C107.793 55.8493 104.641 58.9858 100.764 58.9858C100.398 58.9858 100.031 58.9556 99.6825 58.8972Z" fill="#5CE1E6"/>
</g>
<mask id="mask3_631_1486" style="mask-type:luminance" maskUnits="userSpaceOnUse" x="59" y="25" width="27" height="54">
<path d="M59.0684 25H85.377V79H59.0684V25Z" fill="white"/>
</mask>
<g mask="url(#mask3_631_1486)">
<path fill-rule="evenodd" clip-rule="evenodd" d="M67.5439 39.1236C64.7591 39.5582 61.8695 38.2847 60.3723 35.6975C58.4278 32.3397 59.5784 28.0544 62.9435 26.115C66.3066 24.1756 70.5987 25.3224 72.5413 28.6821C74.0384 31.2674 73.6999 34.4039 71.9327 36.5948L76.8132 45.0284C77.1618 44.9721 77.5285 44.9419 77.8952 44.9419C81.7823 44.9419 84.9217 48.0884 84.9217 51.9592C84.9217 55.8381 81.7722 58.9745 77.8952 58.9745C77.5285 58.9745 77.1698 58.9444 76.8232 58.888L71.9407 67.3318C73.71 69.5227 74.0485 72.6591 72.5513 75.2345C70.6068 78.594 66.3167 79.743 62.9516 77.8015C59.5884 75.862 58.4378 71.5768 60.3804 68.219C61.8695 65.6338 64.7591 64.3583 67.5439 64.7928L72.4244 56.3491C71.4591 55.144 70.8687 53.619 70.8687 51.9492C70.8687 50.2793 71.4491 48.7544 72.4244 47.5473L67.5439 39.1136V39.1236Z" fill="#007581"/>
</g>
</g>
<defs>
<clipPath id="clip0_631_1486">
<rect width="314" height="54" fill="white" transform="translate(48 25)"/>
</clipPath>
</defs>
</svg>
