<svg width="1420" height="100" viewBox="0 0 1420 100" fill="none" xmlns="http://www.w3.org/2000/svg">
<rect width="1420" height="100" rx="20" fill="#F2F7FF"/>
<path d="M1222.2 60V37.984H1231.83C1233.24 37.984 1234.36 38.1653 1235.19 38.528C1236.05 38.8693 1236.67 39.3493 1237.08 39.968C1237.51 40.5867 1237.79 41.3227 1237.94 42.176C1238.09 43.008 1238.17 43.9253 1238.17 44.928C1238.17 45.888 1238.09 46.7947 1237.94 47.648C1237.82 48.48 1237.54 49.216 1237.11 49.856C1236.69 50.496 1236.05 50.9973 1235.19 51.36C1234.34 51.7227 1233.2 51.904 1231.77 51.904H1224.95V60H1222.2ZM1224.95 49.504H1230.87C1231.92 49.504 1232.74 49.4187 1233.34 49.248C1233.95 49.0773 1234.41 48.8107 1234.71 48.448C1235.01 48.064 1235.2 47.584 1235.29 47.008C1235.37 46.432 1235.42 45.7387 1235.42 44.928C1235.42 44.1173 1235.37 43.424 1235.29 42.848C1235.22 42.272 1235.04 41.8027 1234.74 41.44C1234.47 41.0773 1234.02 40.8107 1233.4 40.64C1232.8 40.448 1231.98 40.352 1230.94 40.352H1224.95V49.504ZM1242.63 60V43.68H1244.96L1245.09 46.816H1245.28C1245.56 45.8987 1245.96 45.1947 1246.47 44.704C1246.98 44.2133 1247.6 43.8827 1248.32 43.712C1249.05 43.52 1249.85 43.424 1250.72 43.424V45.984C1249.25 45.984 1248.12 46.2187 1247.33 46.688C1246.54 47.1573 1246 47.8827 1245.7 48.864C1245.4 49.8453 1245.25 51.0827 1245.25 52.576V60H1242.63ZM1254.31 39.072V36.224H1257.1V39.072H1254.31ZM1254.38 60V43.68H1257V60H1254.38ZM1268.45 60.256C1267.22 60.256 1266.19 60.1493 1265.38 59.936C1264.59 59.7227 1263.95 59.4027 1263.46 58.976C1262.99 58.5493 1262.64 58.0053 1262.41 57.344C1262.17 56.6827 1262.01 55.8933 1261.93 54.976C1261.86 54.0587 1261.83 53.0133 1261.83 51.84C1261.83 50.624 1261.87 49.5573 1261.96 48.64C1262.06 47.7227 1262.25 46.9333 1262.5 46.272C1262.78 45.5893 1263.15 45.0453 1263.62 44.64C1264.11 44.2347 1264.74 43.936 1265.51 43.744C1266.28 43.5307 1267.23 43.424 1268.36 43.424C1269.1 43.424 1269.88 43.4667 1270.69 43.552C1271.53 43.616 1272.21 43.712 1272.74 43.84V45.952C1272.25 45.8667 1271.64 45.792 1270.92 45.728C1270.21 45.664 1269.57 45.632 1269 45.632C1268 45.632 1267.18 45.7173 1266.57 45.888C1265.97 46.0587 1265.51 46.368 1265.19 46.816C1264.89 47.264 1264.69 47.8933 1264.58 48.704C1264.48 49.5147 1264.42 50.56 1264.42 51.84C1264.42 53.1413 1264.48 54.208 1264.58 55.04C1264.69 55.8507 1264.9 56.48 1265.22 56.928C1265.56 57.3547 1266.03 57.6533 1266.63 57.824C1267.25 57.9733 1268.06 58.048 1269.06 58.048C1269.66 58.048 1270.31 58.016 1271.01 57.952C1271.72 57.888 1272.35 57.8133 1272.9 57.728V59.84C1272.37 59.9467 1271.69 60.0427 1270.85 60.128C1270.02 60.2133 1269.22 60.256 1268.45 60.256ZM1277.16 39.072V36.224H1279.94V39.072H1277.16ZM1277.22 60V43.68H1279.84V60H1277.22ZM1285.35 60V43.68H1287.71L1287.81 46.016H1288C1288.24 45.504 1288.56 45.056 1288.96 44.672C1289.39 44.288 1289.95 43.9893 1290.66 43.776C1291.38 43.5413 1292.3 43.424 1293.41 43.424C1294.63 43.424 1295.6 43.552 1296.32 43.808C1297.05 44.064 1297.6 44.448 1297.99 44.96C1298.39 45.472 1298.66 46.1333 1298.79 46.944C1298.91 47.7333 1298.98 48.6827 1298.98 49.792V60H1296.39V50.688C1296.39 49.5787 1296.33 48.704 1296.23 48.064C1296.14 47.4027 1295.96 46.912 1295.68 46.592C1295.4 46.2507 1295 46.0267 1294.47 45.92C1293.93 45.8133 1293.23 45.76 1292.35 45.76C1291.31 45.76 1290.49 45.8987 1289.89 46.176C1289.29 46.432 1288.86 46.816 1288.58 47.328C1288.3 47.8187 1288.13 48.4267 1288.07 49.152C1288 49.856 1287.97 50.6667 1287.97 51.584V60H1285.35ZM1310.49 66.592C1309.8 66.592 1309.1 66.5707 1308.37 66.528C1307.67 66.5067 1307 66.4747 1306.36 66.432C1305.72 66.3893 1305.17 66.3467 1304.73 66.304V64.192C1305.24 64.2347 1305.8 64.2667 1306.42 64.288C1307.04 64.3307 1307.65 64.352 1308.25 64.352C1308.86 64.3733 1309.42 64.384 1309.91 64.384C1311.15 64.384 1312.12 64.2987 1312.82 64.128C1313.53 63.9573 1314.06 63.6587 1314.42 63.232C1314.78 62.8053 1315.01 62.208 1315.09 61.44C1315.2 60.672 1315.25 59.6907 1315.25 58.496V57.824H1315.09C1314.82 58.4213 1314.43 58.8907 1313.94 59.232C1313.45 59.5733 1312.86 59.8187 1312.18 59.968C1311.5 60.096 1310.72 60.16 1309.85 60.16C1308.65 60.16 1307.66 60.032 1306.87 59.776C1306.1 59.52 1305.49 59.0933 1305.05 58.496C1304.6 57.8773 1304.28 57.024 1304.09 55.936C1303.92 54.848 1303.83 53.4827 1303.83 51.84C1303.83 50.176 1303.93 48.8 1304.12 47.712C1304.31 46.624 1304.63 45.7707 1305.08 45.152C1305.53 44.5333 1306.13 44.096 1306.9 43.84C1307.69 43.5627 1308.68 43.424 1309.88 43.424C1310.6 43.424 1311.32 43.488 1312.02 43.616C1312.73 43.7227 1313.36 43.968 1313.91 44.352C1314.49 44.736 1314.92 45.2907 1315.22 46.016H1315.41L1315.54 43.68H1317.88V57.888C1317.88 59.4667 1317.79 60.8107 1317.62 61.92C1317.47 63.0293 1317.15 63.9253 1316.66 64.608C1316.17 65.2907 1315.44 65.792 1314.45 66.112C1313.47 66.432 1312.15 66.592 1310.49 66.592ZM1310.87 57.888C1311.94 57.888 1312.78 57.7493 1313.4 57.472C1314.02 57.1733 1314.46 56.7147 1314.74 56.096C1314.98 55.584 1315.12 54.976 1315.16 54.272C1315.22 53.568 1315.25 52.7467 1315.25 51.808C1315.25 50.912 1315.23 50.1227 1315.19 49.44C1315.15 48.736 1315.01 48.1387 1314.77 47.648C1314.5 46.9653 1314.04 46.4747 1313.4 46.176C1312.76 45.8773 1311.92 45.728 1310.87 45.728C1309.89 45.728 1309.1 45.8027 1308.5 45.952C1307.93 46.08 1307.49 46.3467 1307.19 46.752C1306.89 47.1573 1306.69 47.7653 1306.58 48.576C1306.48 49.3867 1306.42 50.464 1306.42 51.808C1306.42 53.152 1306.48 54.2293 1306.58 55.04C1306.69 55.8507 1306.89 56.4587 1307.19 56.864C1307.49 57.2693 1307.93 57.5467 1308.5 57.696C1309.1 57.824 1309.89 57.888 1310.87 57.888Z" fill="black"/>
<g clip-path="url(#clip0_631_1534)">
<path d="M249.034 63.3548V63.6048H249.285H273.243H273.494V63.3548V60.8781V60.6281H273.243H252.187V34.2695V34.0195H251.937H249.285H249.034V34.2695V63.3548ZM284.49 48.4366L272.822 34.1118L272.746 34.0195H272.627H269.466H268.938L269.271 34.4275L282.903 51.1238V63.3548V63.6048H283.153H285.806H286.057V63.3548V51.1238L299.688 34.4275L300.021 34.0195H299.494H296.31H296.191L296.116 34.1121L284.49 48.4366ZM328.287 46.7588V46.5088H328.036H308.89V36.9962H329.077H329.327V36.7462V34.2695V34.0195H329.077H305.988H305.737V34.2695V63.3548V63.6048H305.988H308.64H308.89V63.3548V49.4644H328.036H328.287V49.2144V46.7588ZM347.602 48.4366L335.934 34.1118L335.859 34.0195H335.74H332.578H332.051L332.384 34.4275L346.015 51.1238V63.3548V63.6048H346.266H348.918H349.169V63.3548V51.1238L362.8 34.4275L363.133 34.0195H362.606H359.422H359.303L359.228 34.1121L347.602 48.4366Z" fill="#5CE1E6" stroke="#5CE1E6"/>
<path d="M132.769 34.8594H145.863V49.3596L132.769 34.8594ZM118.911 43.369H118.784C118.784 40.4619 119.576 38.3168 121.161 36.9338C122.745 35.5508 125.186 34.8594 128.483 34.8594L145.863 55.9006C145.863 58.6949 145.106 60.6918 143.592 61.8913C142.12 63.0626 139.716 63.6483 136.376 63.6483L118.911 43.369ZM118.848 49.0845L131.454 63.6694H118.848V49.0845ZM178.395 64.4527C178.395 71.1278 175.035 74.4651 168.315 74.4651H166.999V34.8594H178.395V64.4527ZM151.359 34.8594H163.094V63.6694H161.184C155.978 63.6694 152.873 61.9054 151.868 58.3774C151.528 57.2343 151.359 55.9148 151.359 54.4189V34.8594ZM199.255 34.8594H201.165C206.372 34.8594 209.477 36.6163 210.482 40.1303C210.821 41.2874 210.991 42.614 210.991 44.1099V63.6694H199.255V34.8594ZM183.849 34.8594H195.266V63.6694H183.849V34.8594ZM231.767 34.8594H243.481V49.6772H241.974C238.325 49.6772 235.706 49.0492 234.122 47.7931C232.552 46.5372 231.767 44.3992 231.767 41.3792V34.8594ZM227.522 63.6694C225.23 63.6694 223.193 62.8227 221.411 61.1293C219.84 59.6334 218.61 57.6435 217.718 55.1598C216.898 52.8736 216.487 50.6085 216.487 48.3648C216.487 44.9919 217.322 41.9931 218.991 39.3682C220.18 37.5054 221.743 36.193 223.682 35.4309C224.672 35.0498 225.775 34.8594 226.992 34.8594H228.626V63.6694H227.522ZM231.767 58.1445H242.377V58.7372C242.377 60.0496 241.903 61.1574 240.955 62.0606C239.795 63.1332 238.147 63.6694 236.011 63.6694H231.767V58.1445Z" fill="#007581"/>
<mask id="mask0_631_1534" style="mask-type:luminance" maskUnits="userSpaceOnUse" x="50" y="41" width="15" height="16">
<path d="M50 41.4922H64.1639V56.4281H50V41.4922Z" fill="white"/>
</mask>
<g mask="url(#mask0_631_1534)">
<path fill-rule="evenodd" clip-rule="evenodd" d="M50 48.9587C50 45.0779 53.1495 41.9414 57.0265 41.9414C60.9115 41.9414 64.053 45.088 64.053 48.9587C64.053 52.8376 60.9015 55.9741 57.0265 55.9741C53.1415 55.9741 50 52.8275 50 48.9587Z" fill="#5CE1E6"/>
</g>
<mask id="mask1_631_1534" style="mask-type:luminance" maskUnits="userSpaceOnUse" x="84" y="22" width="15" height="15">
<path d="M84.2822 22H98.7261V36.3425H84.2822V22Z" fill="white"/>
</mask>
<g mask="url(#mask1_631_1534)">
<path fill-rule="evenodd" clip-rule="evenodd" d="M87.8127 35.2646C84.4476 33.3252 83.299 29.0399 85.2415 25.6821C87.184 22.3224 91.4761 21.1756 94.8393 23.115C98.2024 25.0544 99.353 29.3397 97.4105 32.6975C95.4679 36.0552 91.1759 37.204 87.8127 35.2646Z" fill="#5CE1E6"/>
</g>
<mask id="mask2_631_1534" style="mask-type:luminance" maskUnits="userSpaceOnUse" x="84" y="41" width="26" height="35">
<path d="M84.2822 41.4922H109.968V75.9994H84.2822V41.4922Z" fill="white"/>
</mask>
<g mask="url(#mask2_631_1534)">
<path fill-rule="evenodd" clip-rule="evenodd" d="M101.683 55.8972L96.8019 64.3329C97.0236 64.6126 97.2271 64.9123 97.4105 65.2302C99.353 68.588 98.2024 72.8731 94.8393 74.8126C91.4761 76.7521 87.184 75.6051 85.2415 72.2456C83.299 68.8877 84.4476 64.6025 87.8127 62.6631C89.2616 61.8322 90.8756 61.5727 92.4131 61.804L97.2936 53.3704C96.3183 52.1633 95.738 50.6383 95.738 48.9684C95.738 45.0896 98.8895 41.9531 102.764 41.9531C106.651 41.9531 109.793 45.0997 109.793 48.9684C109.793 52.8493 106.641 55.9858 102.764 55.9858C102.398 55.9858 102.031 55.9556 101.683 55.8972Z" fill="#5CE1E6"/>
</g>
<mask id="mask3_631_1534" style="mask-type:luminance" maskUnits="userSpaceOnUse" x="61" y="22" width="27" height="54">
<path d="M61.0684 22H87.377V76H61.0684V22Z" fill="white"/>
</mask>
<g mask="url(#mask3_631_1534)">
<path fill-rule="evenodd" clip-rule="evenodd" d="M69.5439 36.1236C66.7591 36.5582 63.8695 35.2847 62.3723 32.6975C60.4278 29.3397 61.5784 25.0544 64.9435 23.115C68.3066 21.1756 72.5987 22.3224 74.5413 25.6821C76.0384 28.2674 75.6999 31.4039 73.9327 33.5948L78.8132 42.0284C79.1618 41.9721 79.5285 41.9419 79.8952 41.9419C83.7823 41.9419 86.9217 45.0884 86.9217 48.9592C86.9217 52.8381 83.7722 55.9745 79.8952 55.9745C79.5285 55.9745 79.1698 55.9444 78.8232 55.888L73.9407 64.3318C75.71 66.5227 76.0485 69.6591 74.5513 72.2345C72.6068 75.594 68.3167 76.743 64.9516 74.8015C61.5884 72.862 60.4378 68.5768 62.3804 65.219C63.8695 62.6338 66.7591 61.3583 69.5439 61.7928L74.4244 53.3491C73.4591 52.144 72.8687 50.619 72.8687 48.9492C72.8687 47.2793 73.4491 45.7544 74.4244 44.5473L69.5439 36.1136V36.1236Z" fill="#007581"/>
</g>
</g>
<defs>
<clipPath id="clip0_631_1534">
<rect width="314" height="54" fill="white" transform="translate(50 22)"/>
</clipPath>
</defs>
</svg>
