<svg width="1376" height="100" viewBox="0 0 1376 100" fill="none" xmlns="http://www.w3.org/2000/svg">
<rect width="1376" height="100" rx="20" fill="#F2F7FF"/>
<path d="M1222.2 60V37.984H1231.83C1233.24 37.984 1234.36 38.1653 1235.19 38.528C1236.05 38.8693 1236.67 39.3493 1237.08 39.968C1237.51 40.5867 1237.79 41.3227 1237.94 42.176C1238.09 43.008 1238.17 43.9253 1238.17 44.928C1238.17 45.888 1238.09 46.7947 1237.94 47.648C1237.82 48.48 1237.54 49.216 1237.11 49.856C1236.69 50.496 1236.05 50.9973 1235.19 51.36C1234.34 51.7227 1233.2 51.904 1231.77 51.904H1224.95V60H1222.2ZM1224.95 49.504H1230.87C1231.92 49.504 1232.74 49.4187 1233.34 49.248C1233.95 49.0773 1234.41 48.8107 1234.71 48.448C1235.01 48.064 1235.2 47.584 1235.29 47.008C1235.37 46.432 1235.42 45.7387 1235.42 44.928C1235.42 44.1173 1235.37 43.424 1235.29 42.848C1235.22 42.272 1235.04 41.8027 1234.74 41.44C1234.47 41.0773 1234.02 40.8107 1233.4 40.64C1232.8 40.448 1231.98 40.352 1230.94 40.352H1224.95V49.504ZM1242.63 60V43.68H1244.96L1245.09 46.816H1245.28C1245.56 45.8987 1245.96 45.1947 1246.47 44.704C1246.98 44.2133 1247.6 43.8827 1248.32 43.712C1249.05 43.52 1249.85 43.424 1250.72 43.424V45.984C1249.25 45.984 1248.12 46.2187 1247.33 46.688C1246.54 47.1573 1246 47.8827 1245.7 48.864C1245.4 49.8453 1245.25 51.0827 1245.25 52.576V60H1242.63ZM1254.31 39.072V36.224H1257.1V39.072H1254.31ZM1254.38 60V43.68H1257V60H1254.38ZM1268.45 60.256C1267.22 60.256 1266.19 60.1493 1265.38 59.936C1264.59 59.7227 1263.95 59.4027 1263.46 58.976C1262.99 58.5493 1262.64 58.0053 1262.41 57.344C1262.17 56.6827 1262.01 55.8933 1261.93 54.976C1261.86 54.0587 1261.83 53.0133 1261.83 51.84C1261.83 50.624 1261.87 49.5573 1261.96 48.64C1262.06 47.7227 1262.25 46.9333 1262.5 46.272C1262.78 45.5893 1263.15 45.0453 1263.62 44.64C1264.11 44.2347 1264.74 43.936 1265.51 43.744C1266.28 43.5307 1267.23 43.424 1268.36 43.424C1269.1 43.424 1269.88 43.4667 1270.69 43.552C1271.53 43.616 1272.21 43.712 1272.74 43.84V45.952C1272.25 45.8667 1271.64 45.792 1270.92 45.728C1270.21 45.664 1269.57 45.632 1269 45.632C1268 45.632 1267.18 45.7173 1266.57 45.888C1265.97 46.0587 1265.51 46.368 1265.19 46.816C1264.89 47.264 1264.69 47.8933 1264.58 48.704C1264.48 49.5147 1264.42 50.56 1264.42 51.84C1264.42 53.1413 1264.48 54.208 1264.58 55.04C1264.69 55.8507 1264.9 56.48 1265.22 56.928C1265.56 57.3547 1266.03 57.6533 1266.63 57.824C1267.25 57.9733 1268.06 58.048 1269.06 58.048C1269.66 58.048 1270.31 58.016 1271.01 57.952C1271.72 57.888 1272.35 57.8133 1272.9 57.728V59.84C1272.37 59.9467 1271.69 60.0427 1270.85 60.128C1270.02 60.2133 1269.22 60.256 1268.45 60.256ZM1277.16 39.072V36.224H1279.94V39.072H1277.16ZM1277.22 60V43.68H1279.84V60H1277.22ZM1285.35 60V43.68H1287.71L1287.81 46.016H1288C1288.24 45.504 1288.56 45.056 1288.96 44.672C1289.39 44.288 1289.95 43.9893 1290.66 43.776C1291.38 43.5413 1292.3 43.424 1293.41 43.424C1294.63 43.424 1295.6 43.552 1296.32 43.808C1297.05 44.064 1297.6 44.448 1297.99 44.96C1298.39 45.472 1298.66 46.1333 1298.79 46.944C1298.91 47.7333 1298.98 48.6827 1298.98 49.792V60H1296.39V50.688C1296.39 49.5787 1296.33 48.704 1296.23 48.064C1296.14 47.4027 1295.96 46.912 1295.68 46.592C1295.4 46.2507 1295 46.0267 1294.47 45.92C1293.93 45.8133 1293.23 45.76 1292.35 45.76C1291.31 45.76 1290.49 45.8987 1289.89 46.176C1289.29 46.432 1288.86 46.816 1288.58 47.328C1288.3 47.8187 1288.13 48.4267 1288.07 49.152C1288 49.856 1287.97 50.6667 1287.97 51.584V60H1285.35ZM1310.49 66.592C1309.8 66.592 1309.1 66.5707 1308.37 66.528C1307.67 66.5067 1307 66.4747 1306.36 66.432C1305.72 66.3893 1305.17 66.3467 1304.73 66.304V64.192C1305.24 64.2347 1305.8 64.2667 1306.42 64.288C1307.04 64.3307 1307.65 64.352 1308.25 64.352C1308.86 64.3733 1309.42 64.384 1309.91 64.384C1311.15 64.384 1312.12 64.2987 1312.82 64.128C1313.53 63.9573 1314.06 63.6587 1314.42 63.232C1314.78 62.8053 1315.01 62.208 1315.09 61.44C1315.2 60.672 1315.25 59.6907 1315.25 58.496V57.824H1315.09C1314.82 58.4213 1314.43 58.8907 1313.94 59.232C1313.45 59.5733 1312.86 59.8187 1312.18 59.968C1311.5 60.096 1310.72 60.16 1309.85 60.16C1308.65 60.16 1307.66 60.032 1306.87 59.776C1306.1 59.52 1305.49 59.0933 1305.05 58.496C1304.6 57.8773 1304.28 57.024 1304.09 55.936C1303.92 54.848 1303.83 53.4827 1303.83 51.84C1303.83 50.176 1303.93 48.8 1304.12 47.712C1304.31 46.624 1304.63 45.7707 1305.08 45.152C1305.53 44.5333 1306.13 44.096 1306.9 43.84C1307.69 43.5627 1308.68 43.424 1309.88 43.424C1310.6 43.424 1311.32 43.488 1312.02 43.616C1312.73 43.7227 1313.36 43.968 1313.91 44.352C1314.49 44.736 1314.92 45.2907 1315.22 46.016H1315.41L1315.54 43.68H1317.88V57.888C1317.88 59.4667 1317.79 60.8107 1317.62 61.92C1317.47 63.0293 1317.15 63.9253 1316.66 64.608C1316.17 65.2907 1315.44 65.792 1314.45 66.112C1313.47 66.432 1312.15 66.592 1310.49 66.592ZM1310.87 57.888C1311.94 57.888 1312.78 57.7493 1313.4 57.472C1314.02 57.1733 1314.46 56.7147 1314.74 56.096C1314.98 55.584 1315.12 54.976 1315.16 54.272C1315.22 53.568 1315.25 52.7467 1315.25 51.808C1315.25 50.912 1315.23 50.1227 1315.19 49.44C1315.15 48.736 1315.01 48.1387 1314.77 47.648C1314.5 46.9653 1314.04 46.4747 1313.4 46.176C1312.76 45.8773 1311.92 45.728 1310.87 45.728C1309.89 45.728 1309.1 45.8027 1308.5 45.952C1307.93 46.08 1307.49 46.3467 1307.19 46.752C1306.89 47.1573 1306.69 47.7653 1306.58 48.576C1306.48 49.3867 1306.42 50.464 1306.42 51.808C1306.42 53.152 1306.48 54.2293 1306.58 55.04C1306.69 55.8507 1306.89 56.4587 1307.19 56.864C1307.49 57.2693 1307.93 57.5467 1308.5 57.696C1309.1 57.824 1309.89 57.888 1310.87 57.888Z" fill="black"/>
<g clip-path="url(#clip0_623_1071)">
<path d="M235.034 64.3548V64.6048H235.285H259.243H259.494V64.3548V61.8781V61.6281H259.243H238.187V35.2695V35.0195H237.937H235.285H235.034V35.2695V64.3548ZM270.49 49.4366L258.822 35.1118L258.747 35.0195H258.627H255.466H254.939L255.272 35.4275L268.903 52.1238V64.3548V64.6048H269.153H271.806H272.057V64.3548V52.1238L285.688 35.4275L286.021 35.0195H285.494H282.311H282.191L282.116 35.1121L270.49 49.4366ZM314.287 47.7588V47.5088H314.037H294.891V37.9962H315.077H315.327V37.7462V35.2695V35.0195H315.077H291.988H291.738V35.2695V64.3548V64.6048H291.988H294.64H294.891V64.3548V50.4644H314.037H314.287V50.2144V47.7588ZM333.602 49.4366L321.934 35.1118L321.859 35.0195H321.74H318.578H318.051L318.384 35.4275L332.015 52.1238V64.3548V64.6048H332.266H334.918H335.169V64.3548V52.1238L348.801 35.4275L349.134 35.0195H348.606H345.423H345.304L345.228 35.1121L333.602 49.4366Z" fill="#5CE1E6" stroke="#5CE1E6"/>
<path d="M118.769 35.8594H131.863V50.3596L118.769 35.8594ZM104.912 44.369H104.784C104.784 41.4619 105.577 39.3168 107.162 37.9338C108.746 36.5508 111.186 35.8594 114.483 35.8594L131.863 56.9006C131.863 59.6949 131.106 61.6918 129.592 62.8913C128.121 64.0626 125.716 64.6483 122.376 64.6483L104.912 44.369ZM104.848 50.0845L117.454 64.6694H104.848V50.0845ZM164.395 65.4527C164.395 72.1278 161.035 75.4651 154.315 75.4651H153V35.8594H164.395V65.4527ZM137.359 35.8594H149.094V64.6694H147.184C141.979 64.6694 138.873 62.9054 137.869 59.3774C137.529 58.2343 137.359 56.9148 137.359 55.4189V35.8594ZM185.256 35.8594H187.166C192.372 35.8594 195.477 37.6163 196.482 41.1303C196.821 42.2874 196.991 43.614 196.991 45.1099V64.6694H185.256V35.8594ZM169.85 35.8594H181.266V64.6694H169.85V35.8594ZM217.767 35.8594H229.481V50.6772H227.975C224.325 50.6772 221.707 50.0492 220.123 48.7931C218.552 47.5372 217.767 45.3992 217.767 42.3792V35.8594ZM213.522 64.6694C211.23 64.6694 209.194 63.8227 207.411 62.1293C205.84 60.6334 204.61 58.6435 203.718 56.1598C202.898 53.8736 202.488 51.6085 202.488 49.3648C202.488 45.9919 203.322 42.9931 204.991 40.3682C206.18 38.5054 207.743 37.193 209.682 36.4309C210.672 36.0498 211.775 35.8594 212.992 35.8594H214.626V64.6694H213.522ZM217.767 59.1445H228.377V59.7372C228.377 61.0496 227.903 62.1574 226.955 63.0606C225.796 64.1332 224.147 64.6694 222.011 64.6694H217.767V59.1445Z" fill="#007581"/>
<mask id="mask0_623_1071" style="mask-type:luminance" maskUnits="userSpaceOnUse" x="36" y="42" width="15" height="16">
<path d="M36 42.4922H50.1639V57.4281H36V42.4922Z" fill="white"/>
</mask>
<g mask="url(#mask0_623_1071)">
<path fill-rule="evenodd" clip-rule="evenodd" d="M36 49.9587C36 46.0779 39.1495 42.9414 43.0265 42.9414C46.9115 42.9414 50.053 46.088 50.053 49.9587C50.053 53.8376 46.9015 56.9741 43.0265 56.9741C39.1415 56.9741 36 53.8275 36 49.9587Z" fill="#5CE1E6"/>
</g>
<mask id="mask1_623_1071" style="mask-type:luminance" maskUnits="userSpaceOnUse" x="70" y="23" width="15" height="15">
<path d="M70.2822 23H84.7261V37.3425H70.2822V23Z" fill="white"/>
</mask>
<g mask="url(#mask1_623_1071)">
<path fill-rule="evenodd" clip-rule="evenodd" d="M73.8125 36.2646C70.4474 34.3252 69.2988 30.0399 71.2413 26.6821C73.1838 23.3224 77.4759 22.1756 80.839 24.115C84.2021 26.0544 85.3527 30.3397 83.4102 33.6975C81.4677 37.0552 77.1756 38.204 73.8125 36.2646Z" fill="#5CE1E6"/>
</g>
<mask id="mask2_623_1071" style="mask-type:luminance" maskUnits="userSpaceOnUse" x="70" y="42" width="26" height="35">
<path d="M70.2822 42.4922H95.968V76.9994H70.2822V42.4922Z" fill="white"/>
</mask>
<g mask="url(#mask2_623_1071)">
<path fill-rule="evenodd" clip-rule="evenodd" d="M87.6823 56.8972L82.8017 65.3329C83.0233 65.6126 83.2268 65.9123 83.4102 66.2302C85.3527 69.588 84.2021 73.8731 80.839 75.8126C77.4759 77.7521 73.1838 76.6051 71.2413 73.2456C69.2988 69.8877 70.4474 65.6025 73.8125 63.6631C75.2614 62.8322 76.8754 62.5727 78.4129 62.804L83.2933 54.3704C82.318 53.1633 81.7377 51.6383 81.7377 49.9684C81.7377 46.0896 84.8893 42.9531 88.764 42.9531C92.6512 42.9531 95.7927 46.0997 95.7927 49.9684C95.7927 53.8493 92.6412 56.9858 88.764 56.9858C88.3974 56.9858 88.0308 56.9556 87.6823 56.8972Z" fill="#5CE1E6"/>
</g>
<mask id="mask3_623_1071" style="mask-type:luminance" maskUnits="userSpaceOnUse" x="47" y="23" width="27" height="54">
<path d="M47.0686 23H73.3772V77H47.0686V23Z" fill="white"/>
</mask>
<g mask="url(#mask3_623_1071)">
<path fill-rule="evenodd" clip-rule="evenodd" d="M55.5439 37.1236C52.7591 37.5582 49.8695 36.2847 48.3723 33.6975C46.4278 30.3397 47.5784 26.0544 50.9435 24.115C54.3066 22.1756 58.5987 23.3224 60.5413 26.6821C62.0384 29.2674 61.6999 32.4039 59.9327 34.5948L64.8132 43.0284C65.1618 42.9721 65.5285 42.9419 65.8952 42.9419C69.7823 42.9419 72.9217 46.0884 72.9217 49.9592C72.9217 53.8381 69.7722 56.9745 65.8952 56.9745C65.5285 56.9745 65.1698 56.9444 64.8232 56.888L59.9407 65.3318C61.71 67.5227 62.0485 70.6591 60.5513 73.2345C58.6068 76.594 54.3167 77.743 50.9516 75.8015C47.5884 73.862 46.4378 69.5768 48.3804 66.219C49.8695 63.6338 52.7591 62.3583 55.5439 62.7928L60.4244 54.3491C59.4591 53.144 58.8687 51.619 58.8687 49.9492C58.8687 48.2793 59.4491 46.7544 60.4244 45.5473L55.5439 37.1136V37.1236Z" fill="#007581"/>
</g>
</g>
<defs>
<clipPath id="clip0_623_1071">
<rect width="314" height="54" fill="white" transform="translate(36 23)"/>
</clipPath>
</defs>
</svg>
