<svg width="1420" height="100" viewBox="0 0 1420 100" fill="none" xmlns="http://www.w3.org/2000/svg">
<rect width="1420" height="100" rx="20" fill="#E0ECFF"/>
<rect x="1185" y="19" width="169" height="61" rx="30" fill="#007581"/>
<path d="M1214.19 53.3594V37.25H1217.19V53.3594C1217.19 54.8594 1216.88 56.125 1216.27 57.1562C1215.65 58.1875 1214.8 58.974 1213.72 59.5156C1212.65 60.0469 1211.41 60.3125 1210.02 60.3125C1208.62 60.3125 1207.38 60.0729 1206.3 59.5938C1205.21 59.1146 1204.36 58.3854 1203.75 57.4062C1203.14 56.4271 1202.83 55.1927 1202.83 53.7031H1205.84C1205.84 54.6615 1206.02 55.4479 1206.38 56.0625C1206.73 56.6771 1207.22 57.1302 1207.84 57.4219C1208.48 57.7135 1209.2 57.8594 1210.02 57.8594C1210.81 57.8594 1211.52 57.6927 1212.14 57.3594C1212.78 57.0156 1213.28 56.5104 1213.64 55.8438C1214.01 55.1667 1214.19 54.3385 1214.19 53.3594ZM1221.09 51.7344V51.375C1221.09 50.1562 1221.27 49.026 1221.62 47.9844C1221.98 46.9323 1222.49 46.0208 1223.16 45.25C1223.82 44.4688 1224.63 43.8646 1225.58 43.4375C1226.53 43 1227.59 42.7812 1228.77 42.7812C1229.95 42.7812 1231.02 43 1231.97 43.4375C1232.93 43.8646 1233.74 44.4688 1234.41 45.25C1235.08 46.0208 1235.6 46.9323 1235.95 47.9844C1236.31 49.026 1236.48 50.1562 1236.48 51.375V51.7344C1236.48 52.9531 1236.31 54.0833 1235.95 55.125C1235.6 56.1667 1235.08 57.0781 1234.41 57.8594C1233.74 58.6302 1232.93 59.2344 1231.98 59.6719C1231.05 60.099 1229.98 60.3125 1228.8 60.3125C1227.61 60.3125 1226.54 60.099 1225.59 59.6719C1224.65 59.2344 1223.83 58.6302 1223.16 57.8594C1222.49 57.0781 1221.98 56.1667 1221.62 55.125C1221.27 54.0833 1221.09 52.9531 1221.09 51.7344ZM1223.98 51.375V51.7344C1223.98 52.5781 1224.08 53.375 1224.28 54.125C1224.48 54.8646 1224.78 55.5208 1225.17 56.0938C1225.58 56.6667 1226.08 57.1198 1226.69 57.4531C1227.29 57.776 1227.99 57.9375 1228.8 57.9375C1229.59 57.9375 1230.28 57.776 1230.88 57.4531C1231.48 57.1198 1231.98 56.6667 1232.38 56.0938C1232.77 55.5208 1233.07 54.8646 1233.27 54.125C1233.47 53.375 1233.58 52.5781 1233.58 51.7344V51.375C1233.58 50.5417 1233.47 49.7552 1233.27 49.0156C1233.07 48.2656 1232.77 47.6042 1232.36 47.0312C1231.96 46.4479 1231.46 45.9896 1230.86 45.6562C1230.27 45.3229 1229.57 45.1562 1228.77 45.1562C1227.97 45.1562 1227.28 45.3229 1226.67 45.6562C1226.08 45.9896 1225.58 46.4479 1225.17 47.0312C1224.78 47.6042 1224.48 48.2656 1224.28 49.0156C1224.08 49.7552 1223.98 50.5417 1223.98 51.375ZM1243.25 43.0938V60H1240.34V43.0938H1243.25ZM1240.12 38.6094C1240.12 38.1406 1240.27 37.7448 1240.55 37.4219C1240.84 37.099 1241.27 36.9375 1241.83 36.9375C1242.38 36.9375 1242.8 37.099 1243.09 37.4219C1243.4 37.7448 1243.55 38.1406 1243.55 38.6094C1243.55 39.0573 1243.4 39.4427 1243.09 39.7656C1242.8 40.0781 1242.38 40.2344 1241.83 40.2344C1241.27 40.2344 1240.84 40.0781 1240.55 39.7656C1240.27 39.4427 1240.12 39.0573 1240.12 38.6094ZM1250.78 46.7031V60H1247.89V43.0938H1250.62L1250.78 46.7031ZM1250.09 50.9062L1248.89 50.8594C1248.9 49.7031 1249.07 48.6354 1249.41 47.6562C1249.74 46.6667 1250.21 45.8073 1250.81 45.0781C1251.42 44.349 1252.14 43.7865 1252.97 43.3906C1253.81 42.9844 1254.74 42.7812 1255.77 42.7812C1256.6 42.7812 1257.35 42.8958 1258.02 43.125C1258.68 43.3438 1259.25 43.6979 1259.72 44.1875C1260.2 44.6771 1260.56 45.3125 1260.81 46.0938C1261.06 46.8646 1261.19 47.8073 1261.19 48.9219V60H1258.28V48.8906C1258.28 48.0052 1258.15 47.2969 1257.89 46.7656C1257.63 46.224 1257.25 45.8333 1256.75 45.5938C1256.25 45.3438 1255.64 45.2188 1254.91 45.2188C1254.19 45.2188 1253.53 45.3698 1252.94 45.6719C1252.35 45.974 1251.85 46.3906 1251.42 46.9219C1251.01 47.4531 1250.68 48.0625 1250.44 48.75C1250.21 49.4271 1250.09 50.1458 1250.09 50.9062ZM1291.45 37.25V60H1288.42L1276.97 42.4531V60H1273.95V37.25H1276.97L1288.47 54.8438V37.25H1291.45ZM1295.59 51.7344V51.375C1295.59 50.1562 1295.77 49.026 1296.12 47.9844C1296.48 46.9323 1296.99 46.0208 1297.66 45.25C1298.32 44.4688 1299.13 43.8646 1300.08 43.4375C1301.03 43 1302.09 42.7812 1303.27 42.7812C1304.45 42.7812 1305.52 43 1306.47 43.4375C1307.43 43.8646 1308.24 44.4688 1308.91 45.25C1309.58 46.0208 1310.1 46.9323 1310.45 47.9844C1310.81 49.026 1310.98 50.1562 1310.98 51.375V51.7344C1310.98 52.9531 1310.81 54.0833 1310.45 55.125C1310.1 56.1667 1309.58 57.0781 1308.91 57.8594C1308.24 58.6302 1307.43 59.2344 1306.48 59.6719C1305.55 60.099 1304.48 60.3125 1303.3 60.3125C1302.11 60.3125 1301.04 60.099 1300.09 59.6719C1299.15 59.2344 1298.33 58.6302 1297.66 57.8594C1296.99 57.0781 1296.48 56.1667 1296.12 55.125C1295.77 54.0833 1295.59 52.9531 1295.59 51.7344ZM1298.48 51.375V51.7344C1298.48 52.5781 1298.58 53.375 1298.78 54.125C1298.98 54.8646 1299.28 55.5208 1299.67 56.0938C1300.08 56.6667 1300.58 57.1198 1301.19 57.4531C1301.79 57.776 1302.49 57.9375 1303.3 57.9375C1304.09 57.9375 1304.78 57.776 1305.38 57.4531C1305.98 57.1198 1306.48 56.6667 1306.88 56.0938C1307.27 55.5208 1307.57 54.8646 1307.77 54.125C1307.97 53.375 1308.08 52.5781 1308.08 51.7344V51.375C1308.08 50.5417 1307.97 49.7552 1307.77 49.0156C1307.57 48.2656 1307.27 47.6042 1306.86 47.0312C1306.46 46.4479 1305.96 45.9896 1305.36 45.6562C1304.77 45.3229 1304.07 45.1562 1303.27 45.1562C1302.47 45.1562 1301.78 45.3229 1301.17 45.6562C1300.58 45.9896 1300.08 46.4479 1299.67 47.0312C1299.28 47.6042 1298.98 48.2656 1298.78 49.0156C1298.58 49.7552 1298.48 50.5417 1298.48 51.375ZM1318.89 57L1323.23 43.0938H1325.14L1324.77 45.8594L1320.34 60H1318.48L1318.89 57ZM1315.97 43.0938L1319.67 57.1562L1319.94 60H1317.98L1313.08 43.0938H1315.97ZM1329.3 57.0469L1332.83 43.0938H1335.7L1330.8 60H1328.86L1329.3 57.0469ZM1325.56 43.0938L1329.81 56.7656L1330.3 60H1328.45L1323.91 45.8281L1323.53 43.0938H1325.56Z" fill="white"/>
<path d="M1008.2 61V38.984H1017.83C1019.24 38.984 1020.36 39.1653 1021.19 39.528C1022.05 39.8693 1022.67 40.3493 1023.08 40.968C1023.51 41.5867 1023.79 42.3227 1023.94 43.176C1024.09 44.008 1024.17 44.9253 1024.17 45.928C1024.17 46.888 1024.09 47.7947 1023.94 48.648C1023.82 49.48 1023.54 50.216 1023.11 50.856C1022.69 51.496 1022.05 51.9973 1021.19 52.36C1020.34 52.7227 1019.2 52.904 1017.77 52.904H1010.95V61H1008.2ZM1010.95 50.504H1016.87C1017.92 50.504 1018.74 50.4187 1019.34 50.248C1019.95 50.0773 1020.41 49.8107 1020.71 49.448C1021.01 49.064 1021.2 48.584 1021.29 48.008C1021.37 47.432 1021.42 46.7387 1021.42 45.928C1021.42 45.1173 1021.37 44.424 1021.29 43.848C1021.22 43.272 1021.04 42.8027 1020.74 42.44C1020.47 42.0773 1020.02 41.8107 1019.4 41.64C1018.8 41.448 1017.98 41.352 1016.94 41.352H1010.95V50.504ZM1028.63 61V44.68H1030.96L1031.09 47.816H1031.28C1031.56 46.8987 1031.96 46.1947 1032.47 45.704C1032.98 45.2133 1033.6 44.8827 1034.32 44.712C1035.05 44.52 1035.85 44.424 1036.72 44.424V46.984C1035.25 46.984 1034.12 47.2187 1033.33 47.688C1032.54 48.1573 1032 48.8827 1031.7 49.864C1031.4 50.8453 1031.25 52.0827 1031.25 53.576V61H1028.63ZM1040.31 40.072V37.224H1043.1V40.072H1040.31ZM1040.38 61V44.68H1043V61H1040.38ZM1054.45 61.256C1053.22 61.256 1052.19 61.1493 1051.38 60.936C1050.59 60.7227 1049.95 60.4027 1049.46 59.976C1048.99 59.5493 1048.64 59.0053 1048.41 58.344C1048.17 57.6827 1048.01 56.8933 1047.93 55.976C1047.86 55.0587 1047.83 54.0133 1047.83 52.84C1047.83 51.624 1047.87 50.5573 1047.96 49.64C1048.06 48.7227 1048.25 47.9333 1048.5 47.272C1048.78 46.5893 1049.15 46.0453 1049.62 45.64C1050.11 45.2347 1050.74 44.936 1051.51 44.744C1052.28 44.5307 1053.23 44.424 1054.36 44.424C1055.1 44.424 1055.88 44.4667 1056.69 44.552C1057.53 44.616 1058.21 44.712 1058.74 44.84V46.952C1058.25 46.8667 1057.64 46.792 1056.92 46.728C1056.21 46.664 1055.57 46.632 1055 46.632C1054 46.632 1053.18 46.7173 1052.57 46.888C1051.97 47.0587 1051.51 47.368 1051.19 47.816C1050.89 48.264 1050.69 48.8933 1050.58 49.704C1050.48 50.5147 1050.42 51.56 1050.42 52.84C1050.42 54.1413 1050.48 55.208 1050.58 56.04C1050.69 56.8507 1050.9 57.48 1051.22 57.928C1051.56 58.3547 1052.03 58.6533 1052.63 58.824C1053.25 58.9733 1054.06 59.048 1055.06 59.048C1055.66 59.048 1056.31 59.016 1057.01 58.952C1057.72 58.888 1058.35 58.8133 1058.9 58.728V60.84C1058.37 60.9467 1057.69 61.0427 1056.85 61.128C1056.02 61.2133 1055.22 61.256 1054.45 61.256ZM1063.16 40.072V37.224H1065.94V40.072H1063.16ZM1063.22 61V44.68H1065.84V61H1063.22ZM1071.35 61V44.68H1073.71L1073.81 47.016H1074C1074.24 46.504 1074.56 46.056 1074.96 45.672C1075.39 45.288 1075.95 44.9893 1076.66 44.776C1077.38 44.5413 1078.3 44.424 1079.41 44.424C1080.63 44.424 1081.6 44.552 1082.32 44.808C1083.05 45.064 1083.6 45.448 1083.99 45.96C1084.39 46.472 1084.66 47.1333 1084.79 47.944C1084.91 48.7333 1084.98 49.6827 1084.98 50.792V61H1082.39V51.688C1082.39 50.5787 1082.33 49.704 1082.23 49.064C1082.14 48.4027 1081.96 47.912 1081.68 47.592C1081.4 47.2507 1081 47.0267 1080.47 46.92C1079.93 46.8133 1079.23 46.76 1078.35 46.76C1077.31 46.76 1076.49 46.8987 1075.89 47.176C1075.29 47.432 1074.86 47.816 1074.58 48.328C1074.3 48.8187 1074.13 49.4267 1074.07 50.152C1074 50.856 1073.97 51.6667 1073.97 52.584V61H1071.35ZM1096.49 67.592C1095.8 67.592 1095.1 67.5707 1094.37 67.528C1093.67 67.5067 1093 67.4747 1092.36 67.432C1091.72 67.3893 1091.17 67.3467 1090.73 67.304V65.192C1091.24 65.2347 1091.8 65.2667 1092.42 65.288C1093.04 65.3307 1093.65 65.352 1094.25 65.352C1094.86 65.3733 1095.42 65.384 1095.91 65.384C1097.15 65.384 1098.12 65.2987 1098.82 65.128C1099.53 64.9573 1100.06 64.6587 1100.42 64.232C1100.78 63.8053 1101.01 63.208 1101.09 62.44C1101.2 61.672 1101.25 60.6907 1101.25 59.496V58.824H1101.09C1100.82 59.4213 1100.43 59.8907 1099.94 60.232C1099.45 60.5733 1098.86 60.8187 1098.18 60.968C1097.5 61.096 1096.72 61.16 1095.85 61.16C1094.65 61.16 1093.66 61.032 1092.87 60.776C1092.1 60.52 1091.49 60.0933 1091.05 59.496C1090.6 58.8773 1090.28 58.024 1090.09 56.936C1089.92 55.848 1089.83 54.4827 1089.83 52.84C1089.83 51.176 1089.93 49.8 1090.12 48.712C1090.31 47.624 1090.63 46.7707 1091.08 46.152C1091.53 45.5333 1092.13 45.096 1092.9 44.84C1093.69 44.5627 1094.68 44.424 1095.88 44.424C1096.6 44.424 1097.32 44.488 1098.02 44.616C1098.73 44.7227 1099.36 44.968 1099.91 45.352C1100.49 45.736 1100.92 46.2907 1101.22 47.016H1101.41L1101.54 44.68H1103.88V58.888C1103.88 60.4667 1103.79 61.8107 1103.62 62.92C1103.47 64.0293 1103.15 64.9253 1102.66 65.608C1102.17 66.2907 1101.44 66.792 1100.45 67.112C1099.47 67.432 1098.15 67.592 1096.49 67.592ZM1096.87 58.888C1097.94 58.888 1098.78 58.7493 1099.4 58.472C1100.02 58.1733 1100.46 57.7147 1100.74 57.096C1100.98 56.584 1101.12 55.976 1101.16 55.272C1101.22 54.568 1101.25 53.7467 1101.25 52.808C1101.25 51.912 1101.23 51.1227 1101.19 50.44C1101.15 49.736 1101.01 49.1387 1100.77 48.648C1100.5 47.9653 1100.04 47.4747 1099.4 47.176C1098.76 46.8773 1097.92 46.728 1096.87 46.728C1095.89 46.728 1095.1 46.8027 1094.5 46.952C1093.93 47.08 1093.49 47.3467 1093.19 47.752C1092.89 48.1573 1092.69 48.7653 1092.58 49.576C1092.48 50.3867 1092.42 51.464 1092.42 52.808C1092.42 54.152 1092.48 55.2293 1092.58 56.04C1092.69 56.8507 1092.89 57.4587 1093.19 57.864C1093.49 58.2693 1093.93 58.5467 1094.5 58.696C1095.1 58.824 1095.89 58.888 1096.87 58.888Z" fill="black"/>
<g clip-path="url(#clip0_631_1641)">
<path d="M222.034 64.3534V64.6034H222.285H246.243H246.494V64.3534V61.8767V61.6267H246.243H225.187V35.2681V35.0181H224.937H222.285H222.034V35.2681V64.3534ZM257.49 49.4352L245.822 35.1103L245.747 35.0181H245.627H242.466H241.939L242.272 35.426L255.903 52.1224V64.3534V64.6034H256.153H258.806H259.057V64.3534V52.1224L272.688 35.426L273.021 35.0181H272.494H269.311H269.191L269.116 35.1107L257.49 49.4352ZM301.287 47.7574V47.5074H301.037H281.891V37.9947H302.077H302.327V37.7447V35.2681V35.0181H302.077H278.988H278.738V35.2681V64.3534V64.6034H278.988H281.64H281.891V64.3534V50.4629H301.037H301.287V50.2129V47.7574ZM320.602 49.4352L308.934 35.1103L308.859 35.0181H308.74H305.578H305.051L305.384 35.426L319.015 52.1224V64.3534V64.6034H319.266H321.918H322.169V64.3534V52.1224L335.801 35.426L336.134 35.0181H335.606H332.423H332.304L332.228 35.1107L320.602 49.4352Z" fill="#5CE1E6" stroke="#5CE1E6"/>
<path d="M105.769 35.8604H118.863V50.3606L105.769 35.8604ZM91.9116 44.37H91.7844C91.7844 41.4629 92.5767 39.3178 94.1617 37.9348C95.7457 36.5518 98.1861 35.8604 101.483 35.8604L118.863 56.9016C118.863 59.6959 118.106 61.6928 116.592 62.8923C115.121 64.0636 112.716 64.6493 109.376 64.6493L91.9116 44.37ZM91.848 50.0855L104.454 64.6704H91.848V50.0855ZM151.395 65.4536C151.395 72.1287 148.035 75.4661 141.315 75.4661H140V35.8604H151.395V65.4536ZM124.359 35.8604H136.094V64.6704H134.184C128.979 64.6704 125.873 62.9064 124.869 59.3784C124.529 58.2353 124.359 56.9158 124.359 55.4199V35.8604ZM172.256 35.8604H174.166C179.372 35.8604 182.477 37.6173 183.482 41.1313C183.821 42.2884 183.991 43.615 183.991 45.1109V64.6704H172.256V35.8604ZM156.85 35.8604H168.266V64.6704H156.85V35.8604ZM204.767 35.8604H216.481V50.6782H214.975C211.325 50.6782 208.707 50.0502 207.123 48.7941C205.552 47.5382 204.767 45.4002 204.767 42.3802V35.8604ZM200.522 64.6704C198.23 64.6704 196.194 63.8237 194.411 62.1303C192.84 60.6344 191.61 58.6445 190.718 56.1607C189.898 53.8745 189.488 51.6095 189.488 49.3658C189.488 45.9929 190.322 42.9941 191.991 40.3692C193.18 38.5064 194.743 37.194 196.682 36.4319C197.672 36.0508 198.775 35.8604 199.992 35.8604H201.626V64.6704H200.522ZM204.767 59.1455H215.377V59.7381C215.377 61.0506 214.903 62.1584 213.955 63.0616C212.796 64.1342 211.147 64.6704 209.011 64.6704H204.767V59.1455Z" fill="#007581"/>
<mask id="mask0_631_1641" style="mask-type:luminance" maskUnits="userSpaceOnUse" x="23" y="42" width="15" height="16">
<path d="M23 42.4929H37.1639V57.4289H23V42.4929Z" fill="white"/>
</mask>
<g mask="url(#mask0_631_1641)">
<path fill-rule="evenodd" clip-rule="evenodd" d="M23 49.9609C23 46.0801 26.1495 42.9436 30.0265 42.9436C33.9115 42.9436 37.053 46.0902 37.053 49.9609C37.053 53.8398 33.9015 56.9763 30.0265 56.9763C26.1415 56.9763 23 53.8297 23 49.9609Z" fill="#5CE1E6"/>
</g>
<mask id="mask1_631_1641" style="mask-type:luminance" maskUnits="userSpaceOnUse" x="57" y="23" width="15" height="15">
<path d="M57.2822 23H71.7261V37.3425H57.2822V23Z" fill="white"/>
</mask>
<g mask="url(#mask1_631_1641)">
<path fill-rule="evenodd" clip-rule="evenodd" d="M60.8125 36.266C57.4474 34.3266 56.2988 30.0414 58.2413 26.6836C60.1838 23.3238 64.4759 22.1771 67.839 24.1165C71.2021 26.0559 72.3527 30.3412 70.4102 33.6989C68.4677 37.0567 64.1756 38.2055 60.8125 36.266Z" fill="#5CE1E6"/>
</g>
<mask id="mask2_631_1641" style="mask-type:luminance" maskUnits="userSpaceOnUse" x="57" y="42" width="26" height="35">
<path d="M57.2822 42.4929H82.968V77.0001H57.2822V42.4929Z" fill="white"/>
</mask>
<g mask="url(#mask2_631_1641)">
<path fill-rule="evenodd" clip-rule="evenodd" d="M74.6823 56.8977L69.8017 65.3334C70.0233 65.6131 70.2268 65.9128 70.4102 66.2307C72.3527 69.5885 71.2021 73.8736 67.839 75.8131C64.4759 77.7526 60.1838 76.6056 58.2413 73.2461C56.2988 69.8882 57.4474 65.603 60.8125 63.6636C62.2614 62.8327 63.8754 62.5732 65.4129 62.8045L70.2933 54.3709C69.318 53.1638 68.7377 51.6388 68.7377 49.9689C68.7377 46.0901 71.8893 42.9536 75.764 42.9536C79.6512 42.9536 82.7927 46.1002 82.7927 49.9689C82.7927 53.8498 79.6412 56.9863 75.764 56.9863C75.3974 56.9863 75.0308 56.9561 74.6823 56.8977Z" fill="#5CE1E6"/>
</g>
<mask id="mask3_631_1641" style="mask-type:luminance" maskUnits="userSpaceOnUse" x="34" y="23" width="27" height="54">
<path d="M34.0686 23H60.3772V77H34.0686V23Z" fill="white"/>
</mask>
<g mask="url(#mask3_631_1641)">
<path fill-rule="evenodd" clip-rule="evenodd" d="M42.5439 37.1251C39.7591 37.5597 36.8695 36.2862 35.3723 33.6989C33.4278 30.3412 34.5784 26.0559 37.9435 24.1165C41.3066 22.1771 45.5987 23.3238 47.5413 26.6836C49.0384 29.2688 48.6999 32.4053 46.9327 34.5962L51.8132 43.0299C52.1618 42.9735 52.5285 42.9434 52.8952 42.9434C56.7823 42.9434 59.9217 46.0899 59.9217 49.9607C59.9217 53.8395 56.7722 56.976 52.8952 56.976C52.5285 56.976 52.1698 56.9458 51.8232 56.8895L46.9407 65.3332C48.71 67.5241 49.0485 70.6606 47.5513 73.2359C45.6068 76.5954 41.3167 77.7444 37.9516 75.8029C34.5884 73.8634 33.4378 69.5782 35.3804 66.2204C36.8695 63.6352 39.7591 62.3597 42.5439 62.7943L47.4244 54.3505C46.4591 53.1454 45.8687 51.6205 45.8687 49.9506C45.8687 48.2808 46.4491 46.7558 47.4244 45.5487L42.5439 37.115V37.1251Z" fill="#007581"/>
</g>
</g>
<defs>
<clipPath id="clip0_631_1641">
<rect width="314" height="54" fill="white" transform="translate(23 23)"/>
</clipPath>
</defs>
</svg>
