<svg width="135" height="135" viewBox="0 0 135 135" fill="none" xmlns="http://www.w3.org/2000/svg">
<g opacity="0.3">
<path d="M105.607 34.6568L88.8605 17.91C88.8605 17.91 88.3023 17.6309 88.0232 17.6309H50.3429C47.2726 17.6309 44.7606 20.1429 44.7606 23.2131V95.7826C44.7606 98.8528 47.2726 101.365 50.3429 101.365H100.583C103.654 101.365 106.166 98.8528 106.166 95.7826V35.7732C106.166 35.4941 105.886 34.9359 105.607 34.6568ZM92.2099 86.0136C92.2099 86.8509 91.6516 87.4092 90.8143 87.4092H65.6941C64.8568 87.4092 64.2985 86.8509 64.2985 86.0136V76.2446H57.3207C56.4834 76.2446 55.9251 75.6864 55.9251 74.8491V52.52C55.9251 51.6827 56.4834 51.1245 57.3207 51.1245H82.4409C83.2782 51.1245 83.8365 51.6827 83.8365 52.52V62.289H90.8143C91.6516 62.289 92.2099 62.8472 92.2099 63.6845V86.0136ZM92.489 34.3777C90.8143 34.3777 89.4187 32.9821 89.4187 31.3074V22.3758L101.421 34.3777H92.489Z" fill="#147469"/>
</g>
<path d="M61.7484 53.8223L50.29 42.3639C50.0609 42.1348 49.8317 42.1348 49.3734 42.1348H25.3109C22.79 42.1348 20.7275 44.1973 20.7275 46.7181V92.5514C20.7275 95.0723 22.79 97.1348 25.3109 97.1348H57.3942C59.915 97.1348 61.9775 95.0723 61.9775 92.5514V54.7389C61.9775 54.5098 61.7484 54.0514 61.7484 53.8223ZM50.5192 46.0306L58.0817 53.5931H52.8109C51.4359 53.5931 50.5192 52.6764 50.5192 51.3014V46.0306ZM57.3942 94.8431H25.3109C23.9359 94.8431 23.0192 93.9264 23.0192 92.5514V46.7181C23.0192 45.3431 23.9359 44.4264 25.3109 44.4264H48.2275V51.3014C48.2275 53.8223 50.29 55.8848 52.8109 55.8848H59.6859V92.5514C59.6859 93.9264 58.7692 94.8431 57.3942 94.8431Z" fill="#147469"/>
<path d="M51.6651 69.6348H48.2276V63.9056C48.2276 63.2181 47.7692 62.7598 47.0817 62.7598H31.0401C30.3526 62.7598 29.8942 63.2181 29.8942 63.9056V77.6556C29.8942 78.3431 30.3526 78.8014 31.0401 78.8014H34.4776V84.5306C34.4776 85.2181 34.9359 85.6764 35.6234 85.6764H51.6651C52.3526 85.6764 52.8109 85.2181 52.8109 84.5306V70.7806C52.8109 70.0931 52.3526 69.6348 51.6651 69.6348ZM34.4776 70.7806V76.5098H32.1859V65.0514H45.9359V69.6348H35.6234C34.9359 69.6348 34.4776 70.0931 34.4776 70.7806ZM50.5192 83.3848H36.7692V71.9264H50.5192V83.3848Z" fill="#147469"/>
</svg>
