<svg width="1372" height="1176" viewBox="0 0 1372 1176" fill="none" xmlns="http://www.w3.org/2000/svg">
<g filter="url(#filter0_bd_17_3)">
<path d="M14.1595 85.4632C-19.0401 50.5731 11.4361 -6.47374 58.8943 1.72616L1313.36 218.475C1342.58 223.523 1361.01 252.746 1352.98 281.29L1113.72 1131.44C1103.22 1168.75 1056.09 1180.44 1029.37 1152.36L14.1595 85.4632Z" fill="url(#paint0_angular_17_3)" fill-opacity="0.3" shape-rendering="crispEdges"/>
<path d="M14.1595 85.4632C-19.0401 50.5731 11.4361 -6.47374 58.8943 1.72616L1313.36 218.475C1342.58 223.523 1361.01 252.746 1352.98 281.29L1113.72 1131.44C1103.22 1168.75 1056.09 1180.44 1029.37 1152.36L14.1595 85.4632Z" stroke="black" shape-rendering="crispEdges"/>
</g>
<defs>
<filter id="filter0_bd_17_3" x="-34.7981" y="-34.0703" width="1424.66" height="1236.99" filterUnits="userSpaceOnUse" color-interpolation-filters="sRGB">
<feFlood flood-opacity="0" result="BackgroundImageFix"/>
<feGaussianBlur in="BackgroundImageFix" stdDeviation="17.5"/>
<feComposite in2="SourceAlpha" operator="in" result="effect1_backgroundBlur_17_3"/>
<feColorMatrix in="SourceAlpha" type="matrix" values="0 0 0 0 0 0 0 0 0 0 0 0 0 0 0 0 0 0 127 0" result="hardAlpha"/>
<feOffset dx="13" dy="4"/>
<feGaussianBlur stdDeviation="2"/>
<feComposite in2="hardAlpha" operator="out"/>
<feColorMatrix type="matrix" values="0 0 0 0 0 0 0 0 0 0 0 0 0 0 0 0 0 0 0.25 0"/>
<feBlend mode="normal" in2="effect1_backgroundBlur_17_3" result="effect2_dropShadow_17_3"/>
<feBlend mode="normal" in="SourceGraphic" in2="effect2_dropShadow_17_3" result="shape"/>
</filter>
<radialGradient id="paint0_angular_17_3" cx="0" cy="0" r="1" gradientUnits="userSpaceOnUse" gradientTransform="translate(639 596) rotate(90) scale(620 729)">
<stop offset="0.442861" stop-color="#1EF9E0" stop-opacity="0.3"/>
<stop offset="0.769664" stop-color="#F21AB5" stop-opacity="0.3"/>
</radialGradient>
</defs>
</svg>
