<svg width="124" height="91" viewBox="0 0 124 91" fill="none" xmlns="http://www.w3.org/2000/svg">
<g clip-path="url(#clip0_446_1190)">
<path d="M55.7035 31.8155L71.8048 40.0531C80.445 44.4731 79.8829 44.6354 71.8398 48.9121L57.2393 56.5359C48.3124 61.6466 48.688 62.4521 48.688 51.3266V11.1222C48.688 5.80189 44.3486 1.44922 39.0477 1.44922H20.84C10.2374 1.44922 1.5603 10.1555 1.5603 20.7972V69.3805C1.5603 80.0222 10.2374 88.7304 20.84 88.7304H102.456C113.058 88.7304 121.733 80.0222 121.733 69.3805V20.7972C121.733 10.1555 113.058 1.44922 102.456 1.44922H55.8644" stroke="#147469" stroke-width="3.0011" stroke-miterlimit="10" stroke-linecap="round" stroke-linejoin="round"/>
</g>
<defs>
<clipPath id="clip0_446_1190">
<rect width="123.013" height="90.1282" fill="white" transform="translate(0.140991 0.0253906)"/>
</clipPath>
</defs>
</svg>
