<svg width="100" height="100" viewBox="0 0 100 100" fill="none" xmlns="http://www.w3.org/2000/svg">
<path d="M50 14.2754C30.3 14.2754 14.2752 30.3023 14.2752 50.0014C14.2752 69.7004 30.3 85.725 50 85.725C69.699 85.725 85.7248 69.7004 85.7248 50.0014C85.7248 30.3023 69.6992 14.2754 50 14.2754ZM50 80.0898C33.408 80.0898 19.9102 66.5922 19.9102 50.0012C19.9102 33.4082 33.408 19.9104 50 19.9104C66.592 19.9104 80.0899 33.4082 80.0899 50.0012C80.0899 66.5922 66.592 80.0898 50 80.0898Z" fill="white"/>
<path d="M44.3508 42.9996C44.3508 40.7395 47.6564 40.3535 50.5238 40.3535C53.2264 40.3535 56.9191 41.6201 60.0068 43.2209L60.6119 36.9914C59.0678 36.1086 55.4855 35.0609 51.8469 34.842L52.7287 28.502H46.8301L47.7131 34.842C40.1063 35.5576 37.625 39.9674 37.625 43.6611C37.625 52.977 54.9879 50.9945 54.9879 56.7252C54.9879 58.877 52.95 59.6469 49.3658 59.6469C44.5158 59.6469 40.8762 57.9398 39.0033 56.1744L38.0652 63.176C39.8309 64.2236 43.4119 65.1605 47.7131 65.3818L46.8301 71.5008H52.7287L51.8469 65.3256C60.777 64.5533 62.3754 59.8119 62.3754 56.6711C62.3756 45.5916 44.3508 48.3463 44.3508 42.9996Z" fill="white"/>
</svg>
