<svg width="1030" height="800" viewBox="0 0 1030 800" fill="none" xmlns="http://www.w3.org/2000/svg">
<rect width="1030" height="800" rx="50" fill="url(#paint0_angular_600_2789)"/>
<g filter="url(#filter0_b_600_2789)">
<rect x="198" y="51" width="785" height="705" rx="50" fill="#D9D9D9" fill-opacity="0.1"/>
</g>
<path d="M397.65 699V681.8H405.525C406.658 681.8 407.55 681.983 408.2 682.35C408.85 682.7 409.308 683.2 409.575 683.85C409.842 684.483 409.975 685.233 409.975 686.1C409.975 686.833 409.875 687.483 409.675 688.05C409.475 688.6 409.158 689.058 408.725 689.425C408.308 689.775 407.742 690.017 407.025 690.15V690.25C407.925 690.4 408.592 690.692 409.025 691.125C409.475 691.542 409.775 692.042 409.925 692.625C410.075 693.208 410.15 693.825 410.15 694.475C410.15 695.058 410.083 695.625 409.95 696.175C409.833 696.708 409.608 697.192 409.275 697.625C408.942 698.042 408.458 698.375 407.825 698.625C407.208 698.875 406.392 699 405.375 699H397.65ZM399.25 697.6H405.125C406.008 697.6 406.7 697.483 407.2 697.25C407.7 697.017 408.05 696.658 408.25 696.175C408.45 695.675 408.55 695.05 408.55 694.3C408.55 693.517 408.433 692.883 408.2 692.4C407.983 691.917 407.625 691.567 407.125 691.35C406.625 691.117 405.958 691 405.125 691H399.25V697.6ZM399.25 689.575H405.05C405.783 689.575 406.392 689.458 406.875 689.225C407.375 688.975 407.75 688.617 408 688.15C408.25 687.667 408.375 687.083 408.375 686.4C408.375 685.667 408.275 685.067 408.075 684.6C407.892 684.117 407.558 683.767 407.075 683.55C406.592 683.333 405.917 683.225 405.05 683.225H399.25V689.575ZM414.74 699V681.8H422.54C423.623 681.8 424.473 681.933 425.09 682.2C425.707 682.467 426.165 682.842 426.465 683.325C426.765 683.792 426.957 684.333 427.04 684.95C427.123 685.55 427.165 686.192 427.165 686.875C427.165 687.508 427.107 688.158 426.99 688.825C426.89 689.475 426.648 690.058 426.265 690.575C425.882 691.075 425.265 691.442 424.415 691.675L427.39 699H425.64L422.715 691.6L423.24 691.85C423.123 691.883 422.973 691.908 422.79 691.925C422.607 691.942 422.348 691.95 422.015 691.95H416.34V699H414.74ZM416.34 690.525H421.84C422.707 690.525 423.39 690.442 423.89 690.275C424.39 690.108 424.757 689.867 424.99 689.55C425.24 689.233 425.398 688.85 425.465 688.4C425.532 687.95 425.565 687.442 425.565 686.875C425.565 686.292 425.532 685.775 425.465 685.325C425.415 684.875 425.282 684.492 425.065 684.175C424.848 683.858 424.507 683.625 424.04 683.475C423.573 683.308 422.932 683.225 422.115 683.225H416.34V690.525ZM438.155 699.2C436.839 699.2 435.747 699.133 434.88 699C434.03 698.867 433.355 698.625 432.855 698.275C432.355 697.925 431.989 697.425 431.755 696.775C431.522 696.108 431.372 695.258 431.305 694.225C431.239 693.192 431.205 691.917 431.205 690.4C431.205 688.883 431.239 687.608 431.305 686.575C431.372 685.542 431.522 684.7 431.755 684.05C431.989 683.383 432.355 682.875 432.855 682.525C433.355 682.175 434.03 681.933 434.88 681.8C435.747 681.667 436.839 681.6 438.155 681.6C439.472 681.6 440.555 681.667 441.405 681.8C442.272 681.933 442.955 682.175 443.455 682.525C443.955 682.875 444.322 683.383 444.555 684.05C444.789 684.7 444.939 685.542 445.005 686.575C445.072 687.608 445.105 688.883 445.105 690.4C445.105 691.917 445.072 693.192 445.005 694.225C444.939 695.258 444.789 696.108 444.555 696.775C444.322 697.425 443.955 697.925 443.455 698.275C442.955 698.625 442.272 698.867 441.405 699C440.555 699.133 439.472 699.2 438.155 699.2ZM438.155 697.775C439.155 697.775 439.98 697.75 440.63 697.7C441.28 697.65 441.797 697.508 442.18 697.275C442.564 697.042 442.855 696.667 443.055 696.15C443.255 695.617 443.38 694.892 443.43 693.975C443.48 693.042 443.505 691.85 443.505 690.4C443.505 688.95 443.48 687.767 443.43 686.85C443.38 685.917 443.255 685.192 443.055 684.675C442.855 684.142 442.564 683.758 442.18 683.525C441.797 683.292 441.28 683.15 440.63 683.1C439.98 683.05 439.155 683.025 438.155 683.025C437.172 683.025 436.355 683.05 435.705 683.1C435.055 683.15 434.53 683.292 434.13 683.525C433.747 683.758 433.455 684.142 433.255 684.675C433.072 685.192 432.947 685.917 432.88 686.85C432.83 687.767 432.805 688.95 432.805 690.4C432.805 691.85 432.83 693.042 432.88 693.975C432.947 694.892 433.072 695.617 433.255 696.15C433.455 696.667 433.747 697.042 434.13 697.275C434.53 697.508 435.055 697.65 435.705 697.7C436.355 697.75 437.172 697.775 438.155 697.775ZM452.829 699L447.954 681.8H449.629L453.754 696.725H453.904L458.454 681.8H460.129L464.704 696.725H464.854L468.929 681.8H470.554L465.679 699H463.854L459.304 684.35H459.204L454.654 699H452.829ZM479.862 699.2C479.245 699.2 478.579 699.183 477.862 699.15C477.145 699.133 476.445 699.092 475.762 699.025C475.079 698.975 474.462 698.925 473.912 698.875V697.475C474.495 697.525 475.12 697.575 475.787 697.625C476.454 697.675 477.104 697.717 477.737 697.75C478.37 697.767 478.92 697.775 479.387 697.775C480.254 697.775 480.962 697.742 481.512 697.675C482.079 697.608 482.57 697.458 482.987 697.225C483.287 697.058 483.504 696.833 483.637 696.55C483.77 696.25 483.854 695.917 483.887 695.55C483.92 695.167 483.937 694.758 483.937 694.325C483.937 693.675 483.92 693.15 483.887 692.75C483.854 692.35 483.754 692.05 483.587 691.85C483.42 691.633 483.154 691.475 482.787 691.375C482.42 691.275 481.912 691.192 481.262 691.125L476.862 690.65C476.062 690.567 475.429 690.408 474.962 690.175C474.495 689.942 474.145 689.642 473.912 689.275C473.695 688.908 473.554 688.475 473.487 687.975C473.437 687.475 473.412 686.908 473.412 686.275C473.412 685.275 473.537 684.467 473.787 683.85C474.054 683.233 474.437 682.767 474.937 682.45C475.454 682.117 476.087 681.892 476.837 681.775C477.604 681.658 478.487 681.6 479.487 681.6C480.12 681.6 480.762 681.617 481.412 681.65C482.079 681.683 482.695 681.725 483.262 681.775C483.845 681.825 484.32 681.892 484.687 681.975V683.325C484.237 683.258 483.72 683.208 483.137 683.175C482.57 683.125 481.987 683.092 481.387 683.075C480.804 683.042 480.254 683.025 479.737 683.025C478.754 683.025 477.954 683.075 477.337 683.175C476.737 683.258 476.262 683.425 475.912 683.675C475.512 683.908 475.262 684.25 475.162 684.7C475.062 685.15 475.012 685.675 475.012 686.275C475.012 686.992 475.062 687.55 475.162 687.95C475.262 688.333 475.47 688.608 475.787 688.775C476.12 688.942 476.62 689.058 477.287 689.125L481.537 689.6C482.187 689.65 482.762 689.733 483.262 689.85C483.762 689.95 484.179 690.125 484.512 690.375C484.845 690.608 485.095 690.975 485.262 691.475C485.345 691.692 485.404 691.933 485.437 692.2C485.487 692.467 485.52 692.767 485.537 693.1C485.554 693.433 485.562 693.8 485.562 694.2C485.562 695.133 485.47 695.908 485.287 696.525C485.12 697.142 484.87 697.633 484.537 698C484.204 698.35 483.795 698.617 483.312 698.8C482.845 698.967 482.32 699.075 481.737 699.125C481.17 699.175 480.545 699.2 479.862 699.2ZM490.033 699V681.8H500.983V683.225H491.633V689.6H499.808V691.025H491.633V697.575H500.983V699H490.033ZM510.809 699V681.8H518.209C519.326 681.8 520.201 681.942 520.834 682.225C521.484 682.492 521.959 682.875 522.259 683.375C522.576 683.858 522.784 684.417 522.884 685.05C522.984 685.683 523.034 686.375 523.034 687.125C523.034 687.825 522.984 688.5 522.884 689.15C522.801 689.8 522.593 690.375 522.259 690.875C521.943 691.358 521.459 691.742 520.809 692.025C520.159 692.308 519.284 692.45 518.184 692.45H512.409V699H510.809ZM512.409 691.025H517.759C518.626 691.025 519.301 690.942 519.784 690.775C520.268 690.608 520.626 690.367 520.859 690.05C521.109 689.717 521.268 689.308 521.334 688.825C521.401 688.342 521.434 687.775 521.434 687.125C521.434 686.475 521.401 685.908 521.334 685.425C521.284 684.925 521.143 684.517 520.909 684.2C520.676 683.867 520.309 683.625 519.809 683.475C519.326 683.308 518.651 683.225 517.784 683.225H512.409V691.025ZM527.142 699V681.8H534.942C536.026 681.8 536.876 681.933 537.492 682.2C538.109 682.467 538.567 682.842 538.867 683.325C539.167 683.792 539.359 684.333 539.442 684.95C539.526 685.55 539.567 686.192 539.567 686.875C539.567 687.508 539.509 688.158 539.392 688.825C539.292 689.475 539.051 690.058 538.667 690.575C538.284 691.075 537.667 691.442 536.817 691.675L539.792 699H538.042L535.117 691.6L535.642 691.85C535.526 691.883 535.376 691.908 535.192 691.925C535.009 691.942 534.751 691.95 534.417 691.95H528.742V699H527.142ZM528.742 690.525H534.242C535.109 690.525 535.792 690.442 536.292 690.275C536.792 690.108 537.159 689.867 537.392 689.55C537.642 689.233 537.801 688.85 537.867 688.4C537.934 687.95 537.967 687.442 537.967 686.875C537.967 686.292 537.934 685.775 537.867 685.325C537.817 684.875 537.684 684.492 537.467 684.175C537.251 683.858 536.909 683.625 536.442 683.475C535.976 683.308 535.334 683.225 534.517 683.225H528.742V690.525ZM544.208 699V681.8H555.158V683.225H545.808V689.6H553.983V691.025H545.808V697.575H555.158V699H544.208ZM558.122 692.575V691.15H563.997V692.575H558.122ZM568.207 699V681.8H570.357L576.882 696.45H577.007L583.532 681.8H585.632V699H584.082V684.5H583.982L577.507 699H576.282L569.832 684.5H569.732V699H568.207ZM589.136 699L595.911 681.8H597.811L604.561 699H602.886L600.886 693.925H592.761L590.786 699H589.136ZM593.286 692.5H600.361L596.886 683.6H596.761L593.286 692.5ZM608.026 699V681.8H613.351C614.734 681.8 615.868 681.867 616.751 682C617.634 682.117 618.334 682.35 618.851 682.7C619.368 683.033 619.751 683.525 620.001 684.175C620.251 684.808 620.409 685.633 620.476 686.65C620.543 687.65 620.576 688.9 620.576 690.4C620.576 691.9 620.543 693.158 620.476 694.175C620.409 695.175 620.251 696 620.001 696.65C619.751 697.283 619.368 697.775 618.851 698.125C618.334 698.458 617.634 698.692 616.751 698.825C615.868 698.942 614.734 699 613.351 699H608.026ZM609.626 697.575H612.926C614.076 697.575 615.026 697.55 615.776 697.5C616.526 697.45 617.118 697.317 617.551 697.1C617.984 696.883 618.301 696.517 618.501 696C618.701 695.483 618.826 694.775 618.876 693.875C618.943 692.975 618.976 691.817 618.976 690.4C618.976 688.983 618.943 687.825 618.876 686.925C618.826 686.025 618.693 685.325 618.476 684.825C618.276 684.308 617.951 683.942 617.501 683.725C617.068 683.492 616.476 683.35 615.726 683.3C614.993 683.25 614.059 683.225 612.926 683.225H609.626V697.575ZM625.311 699V681.8H636.261V683.225H626.911V689.6H635.086V691.025H626.911V697.575H636.261V699H625.311ZM649.913 699V683.25H644.313V681.8H657.113V683.25H651.513V699H649.913ZM660.614 699V681.8H671.564V683.225H662.214V689.6H670.389V691.025H662.214V697.575H671.564V699H660.614ZM675.629 699V681.8H677.779L684.304 696.45H684.429L690.954 681.8H693.054V699H691.504V684.5H691.404L684.929 699H683.704L677.254 684.5H677.154V699H675.629ZM698.382 699V681.8H705.782C706.899 681.8 707.774 681.942 708.407 682.225C709.057 682.492 709.532 682.875 709.832 683.375C710.149 683.858 710.357 684.417 710.457 685.05C710.557 685.683 710.607 686.375 710.607 687.125C710.607 687.825 710.557 688.5 710.457 689.15C710.374 689.8 710.166 690.375 709.832 690.875C709.516 691.358 709.032 691.742 708.382 692.025C707.732 692.308 706.857 692.45 705.757 692.45H699.982V699H698.382ZM699.982 691.025H705.332C706.199 691.025 706.874 690.942 707.357 690.775C707.841 690.608 708.199 690.367 708.432 690.05C708.682 689.717 708.841 689.308 708.907 688.825C708.974 688.342 709.007 687.775 709.007 687.125C709.007 686.475 708.974 685.908 708.907 685.425C708.857 684.925 708.716 684.517 708.482 684.2C708.249 683.867 707.882 683.625 707.382 683.475C706.899 683.308 706.224 683.225 705.357 683.225H699.982V691.025ZM714.715 699V681.8H716.315V697.55H724.665V699H714.715ZM726.318 699L733.093 681.8H734.993L741.743 699H740.068L738.068 693.925H729.943L727.968 699H726.318ZM730.468 692.5H737.543L734.068 683.6H733.943L730.468 692.5ZM746.958 699V683.25H741.358V681.8H754.158V683.25H748.558V699H746.958ZM757.66 699V681.8H768.61V683.225H759.26V689.6H767.435V691.025H759.26V697.575H768.61V699H757.66ZM778.299 699.2C777.683 699.2 777.016 699.183 776.299 699.15C775.583 699.133 774.883 699.092 774.199 699.025C773.516 698.975 772.899 698.925 772.349 698.875V697.475C772.933 697.525 773.558 697.575 774.224 697.625C774.891 697.675 775.541 697.717 776.174 697.75C776.808 697.767 777.358 697.775 777.824 697.775C778.691 697.775 779.399 697.742 779.949 697.675C780.516 697.608 781.008 697.458 781.424 697.225C781.724 697.058 781.941 696.833 782.074 696.55C782.208 696.25 782.291 695.917 782.324 695.55C782.358 695.167 782.374 694.758 782.374 694.325C782.374 693.675 782.358 693.15 782.324 692.75C782.291 692.35 782.191 692.05 782.024 691.85C781.858 691.633 781.591 691.475 781.224 691.375C780.858 691.275 780.349 691.192 779.699 691.125L775.299 690.65C774.499 690.567 773.866 690.408 773.399 690.175C772.933 689.942 772.583 689.642 772.349 689.275C772.133 688.908 771.991 688.475 771.924 687.975C771.874 687.475 771.849 686.908 771.849 686.275C771.849 685.275 771.974 684.467 772.224 683.85C772.491 683.233 772.874 682.767 773.374 682.45C773.891 682.117 774.524 681.892 775.274 681.775C776.041 681.658 776.924 681.6 777.924 681.6C778.558 681.6 779.199 681.617 779.849 681.65C780.516 681.683 781.133 681.725 781.699 681.775C782.283 681.825 782.758 681.892 783.124 681.975V683.325C782.674 683.258 782.158 683.208 781.574 683.175C781.008 683.125 780.424 683.092 779.824 683.075C779.241 683.042 778.691 683.025 778.174 683.025C777.191 683.025 776.391 683.075 775.774 683.175C775.174 683.258 774.699 683.425 774.349 683.675C773.949 683.908 773.699 684.25 773.599 684.7C773.499 685.15 773.449 685.675 773.449 686.275C773.449 686.992 773.499 687.55 773.599 687.95C773.699 688.333 773.908 688.608 774.224 688.775C774.558 688.942 775.058 689.058 775.724 689.125L779.974 689.6C780.624 689.65 781.199 689.733 781.699 689.85C782.199 689.95 782.616 690.125 782.949 690.375C783.283 690.608 783.533 690.975 783.699 691.475C783.783 691.692 783.841 691.933 783.874 692.2C783.924 692.467 783.958 692.767 783.974 693.1C783.991 693.433 783.999 693.8 783.999 694.2C783.999 695.133 783.908 695.908 783.724 696.525C783.558 697.142 783.308 697.633 782.974 698C782.641 698.35 782.233 698.617 781.749 698.8C781.283 698.967 780.758 699.075 780.174 699.125C779.608 699.175 778.983 699.2 778.299 699.2Z" fill="white"/>
<path d="M855.922 688.693L837.921 673.692C837.618 673.44 837.269 673.249 836.892 673.132C836.516 673.015 836.12 672.973 835.728 673.008C835.335 673.044 834.953 673.157 834.604 673.34C834.255 673.523 833.946 673.773 833.693 674.076C833.184 674.687 832.938 675.476 833.01 676.269C833.082 677.062 833.466 677.794 834.077 678.304L849.312 690.999L834.077 703.694C833.466 704.204 833.082 704.936 833.01 705.729C832.938 706.521 833.184 707.31 833.693 707.922C834.203 708.533 834.935 708.917 835.728 708.989C836.521 709.061 837.31 708.815 837.921 708.306L855.922 693.305C856.26 693.023 856.531 692.67 856.717 692.272C856.903 691.874 857 691.439 857 690.999C857 690.56 856.903 690.125 856.717 689.727C856.531 689.328 856.26 688.975 855.922 688.693Z" fill="white"/>
<path d="M582 602.2C580.683 602.2 579.592 602.133 578.725 602C577.875 601.867 577.2 601.625 576.7 601.275C576.2 600.925 575.833 600.425 575.6 599.775C575.367 599.108 575.217 598.258 575.15 597.225C575.083 596.192 575.05 594.917 575.05 593.4C575.05 591.883 575.083 590.608 575.15 589.575C575.217 588.542 575.367 587.7 575.6 587.05C575.833 586.383 576.2 585.875 576.7 585.525C577.2 585.175 577.875 584.933 578.725 584.8C579.592 584.667 580.683 584.6 582 584.6C583.317 584.6 584.4 584.667 585.25 584.8C586.117 584.933 586.8 585.175 587.3 585.525C587.8 585.875 588.167 586.383 588.4 587.05C588.633 587.7 588.783 588.542 588.85 589.575C588.917 590.608 588.95 591.883 588.95 593.4C588.95 594.917 588.917 596.192 588.85 597.225C588.783 598.258 588.633 599.108 588.4 599.775C588.167 600.425 587.8 600.925 587.3 601.275C586.8 601.625 586.117 601.867 585.25 602C584.4 602.133 583.317 602.2 582 602.2ZM582 600.775C583 600.775 583.825 600.75 584.475 600.7C585.125 600.65 585.642 600.508 586.025 600.275C586.408 600.042 586.7 599.667 586.9 599.15C587.1 598.617 587.225 597.892 587.275 596.975C587.325 596.042 587.35 594.85 587.35 593.4C587.35 591.95 587.325 590.767 587.275 589.85C587.225 588.917 587.1 588.192 586.9 587.675C586.7 587.142 586.408 586.758 586.025 586.525C585.642 586.292 585.125 586.15 584.475 586.1C583.825 586.05 583 586.025 582 586.025C581.017 586.025 580.2 586.05 579.55 586.1C578.9 586.15 578.375 586.292 577.975 586.525C577.592 586.758 577.3 587.142 577.1 587.675C576.917 588.192 576.792 588.917 576.725 589.85C576.675 590.767 576.65 591.95 576.65 593.4C576.65 594.85 576.675 596.042 576.725 596.975C576.792 597.892 576.917 598.617 577.1 599.15C577.3 599.667 577.592 600.042 577.975 600.275C578.375 600.508 578.9 600.65 579.55 600.7C580.2 600.75 581.017 600.775 582 600.775ZM593.668 602V584.8H601.468C602.551 584.8 603.401 584.933 604.018 585.2C604.634 585.467 605.093 585.842 605.393 586.325C605.693 586.792 605.884 587.333 605.968 587.95C606.051 588.55 606.093 589.192 606.093 589.875C606.093 590.508 606.034 591.158 605.918 591.825C605.818 592.475 605.576 593.058 605.193 593.575C604.809 594.075 604.193 594.442 603.343 594.675L606.318 602H604.568L601.643 594.6L602.168 594.85C602.051 594.883 601.901 594.908 601.718 594.925C601.534 594.942 601.276 594.95 600.943 594.95H595.268V602H593.668ZM595.268 593.525H600.768C601.634 593.525 602.318 593.442 602.818 593.275C603.318 593.108 603.684 592.867 603.918 592.55C604.168 592.233 604.326 591.85 604.393 591.4C604.459 590.95 604.493 590.442 604.493 589.875C604.493 589.292 604.459 588.775 604.393 588.325C604.343 587.875 604.209 587.492 603.993 587.175C603.776 586.858 603.434 586.625 602.968 586.475C602.501 586.308 601.859 586.225 601.043 586.225H595.268V593.525Z" fill="white"/>
<g filter="url(#filter1_bi_600_2789)">
<rect x="494" y="320" width="183" height="183" rx="30" fill="#D9D9D9" fill-opacity="0.15"/>
</g>
<path d="M517.65 440V422.8H525.45C526.533 422.8 527.383 422.933 528 423.2C528.617 423.467 529.075 423.842 529.375 424.325C529.675 424.792 529.867 425.333 529.95 425.95C530.033 426.55 530.075 427.192 530.075 427.875C530.075 428.508 530.017 429.158 529.9 429.825C529.8 430.475 529.558 431.058 529.175 431.575C528.792 432.075 528.175 432.442 527.325 432.675L530.3 440H528.55L525.625 432.6L526.15 432.85C526.033 432.883 525.883 432.908 525.7 432.925C525.517 432.942 525.258 432.95 524.925 432.95H519.25V440H517.65ZM519.25 431.525H524.75C525.617 431.525 526.3 431.442 526.8 431.275C527.3 431.108 527.667 430.867 527.9 430.55C528.15 430.233 528.308 429.85 528.375 429.4C528.442 428.95 528.475 428.442 528.475 427.875C528.475 427.292 528.442 426.775 528.375 426.325C528.325 425.875 528.192 425.492 527.975 425.175C527.758 424.858 527.417 424.625 526.95 424.475C526.483 424.308 525.842 424.225 525.025 424.225H519.25V431.525ZM539.39 440.2C538.39 440.2 537.557 440.133 536.89 440C536.224 439.883 535.682 439.675 535.265 439.375C534.849 439.075 534.532 438.675 534.315 438.175C534.115 437.658 533.974 437.033 533.89 436.3C533.824 435.55 533.79 434.667 533.79 433.65C533.79 432.433 533.84 431.408 533.94 430.575C534.04 429.725 534.257 429.042 534.59 428.525C534.94 428.008 535.49 427.633 536.24 427.4C537.007 427.167 538.049 427.05 539.365 427.05C540.315 427.05 541.09 427.125 541.69 427.275C542.307 427.408 542.79 427.633 543.14 427.95C543.507 428.25 543.774 428.658 543.94 429.175C544.107 429.692 544.215 430.317 544.265 431.05C544.315 431.783 544.34 432.642 544.34 433.625V434.15H535.315C535.315 435.117 535.357 435.908 535.44 436.525C535.54 437.142 535.724 437.625 535.99 437.975C536.274 438.325 536.707 438.567 537.29 438.7C537.89 438.833 538.69 438.9 539.69 438.9C540.107 438.9 540.565 438.883 541.065 438.85C541.565 438.817 542.057 438.783 542.54 438.75C543.024 438.7 543.457 438.642 543.84 438.575V439.85C543.507 439.917 543.09 439.975 542.59 440.025C542.09 440.092 541.565 440.133 541.015 440.15C540.465 440.183 539.924 440.2 539.39 440.2ZM542.865 433.425V432.6C542.865 431.65 542.807 430.892 542.69 430.325C542.574 429.758 542.382 429.333 542.115 429.05C541.849 428.767 541.482 428.583 541.015 428.5C540.565 428.4 539.99 428.35 539.29 428.35C538.407 428.35 537.699 428.408 537.165 428.525C536.632 428.642 536.232 428.867 535.965 429.2C535.699 429.517 535.524 429.975 535.44 430.575C535.357 431.175 535.315 431.975 535.315 432.975H543.34L542.865 433.425ZM552.955 445.15C552.421 445.15 551.871 445.142 551.305 445.125C550.738 445.108 550.196 445.083 549.68 445.05C549.18 445.017 548.746 444.983 548.38 444.95V443.675C548.813 443.692 549.28 443.717 549.78 443.75C550.296 443.783 550.796 443.8 551.28 443.8C551.78 443.817 552.238 443.825 552.655 443.825C553.638 443.825 554.421 443.75 555.005 443.6C555.588 443.45 556.03 443.183 556.33 442.8C556.63 442.417 556.821 441.892 556.905 441.225C556.988 440.558 557.03 439.708 557.03 438.675V438.225H556.93C556.713 438.708 556.405 439.092 556.005 439.375C555.621 439.658 555.146 439.858 554.58 439.975C554.03 440.092 553.38 440.15 552.63 440.15C551.646 440.15 550.838 440.058 550.205 439.875C549.571 439.675 549.08 439.342 548.73 438.875C548.38 438.392 548.13 437.725 547.98 436.875C547.846 436.008 547.78 434.925 547.78 433.625C547.78 432.308 547.846 431.225 547.98 430.375C548.13 429.525 548.38 428.858 548.73 428.375C549.08 427.892 549.571 427.55 550.205 427.35C550.838 427.15 551.655 427.05 552.655 427.05C553.255 427.05 553.846 427.1 554.43 427.2C555.013 427.3 555.53 427.508 555.98 427.825C556.43 428.125 556.78 428.583 557.03 429.2H557.155L557.23 427.25H558.555V438.275C558.555 439.558 558.496 440.633 558.38 441.5C558.263 442.383 558.013 443.092 557.63 443.625C557.246 444.158 556.68 444.542 555.93 444.775C555.196 445.025 554.205 445.15 552.955 445.15ZM553.18 438.8C554.146 438.8 554.905 438.675 555.455 438.425C556.021 438.158 556.413 437.733 556.63 437.15C556.83 436.683 556.946 436.167 556.98 435.6C557.013 435.017 557.03 434.358 557.03 433.625C557.03 432.892 557.013 432.242 556.98 431.675C556.946 431.108 556.855 430.625 556.705 430.225C556.455 429.558 556.038 429.092 555.455 428.825C554.888 428.558 554.13 428.425 553.18 428.425C552.346 428.425 551.671 428.483 551.155 428.6C550.638 428.717 550.246 428.95 549.98 429.3C549.73 429.65 549.555 430.175 549.455 430.875C549.355 431.558 549.305 432.475 549.305 433.625C549.305 434.758 549.355 435.675 549.455 436.375C549.555 437.058 549.73 437.575 549.98 437.925C550.246 438.275 550.638 438.508 551.155 438.625C551.671 438.742 552.346 438.8 553.18 438.8ZM563.099 423.35V421.425H564.799V423.35H563.099ZM563.174 440V427.25H564.699V440H563.174ZM573.401 440.2C572.951 440.2 572.451 440.183 571.901 440.15C571.368 440.133 570.835 440.1 570.301 440.05C569.785 440 569.326 439.95 568.926 439.9V438.6C569.393 438.65 569.818 438.692 570.201 438.725C570.585 438.758 570.951 438.792 571.301 438.825C571.651 438.842 572.001 438.858 572.351 438.875C572.701 438.875 573.085 438.875 573.501 438.875C574.401 438.875 575.06 438.8 575.476 438.65C575.91 438.5 576.193 438.258 576.326 437.925C576.476 437.575 576.551 437.125 576.551 436.575C576.551 435.925 576.493 435.458 576.376 435.175C576.276 434.875 576.101 434.683 575.851 434.6C575.601 434.517 575.243 434.45 574.776 434.4L571.301 434.025C570.551 433.942 569.968 433.783 569.551 433.55C569.151 433.317 568.876 432.975 568.726 432.525C568.593 432.058 568.526 431.458 568.526 430.725C568.526 429.892 568.635 429.233 568.851 428.75C569.068 428.25 569.385 427.883 569.801 427.65C570.235 427.4 570.751 427.242 571.351 427.175C571.968 427.092 572.66 427.05 573.426 427.05C573.843 427.05 574.285 427.067 574.751 427.1C575.218 427.117 575.676 427.15 576.126 427.2C576.576 427.25 576.976 427.308 577.326 427.375V428.675C576.86 428.592 576.41 428.533 575.976 428.5C575.543 428.45 575.101 428.417 574.651 428.4C574.201 428.383 573.726 428.375 573.226 428.375C572.56 428.375 571.985 428.417 571.501 428.5C571.018 428.567 570.643 428.758 570.376 429.075C570.126 429.375 570.001 429.892 570.001 430.625C570.001 431.175 570.043 431.592 570.126 431.875C570.226 432.158 570.401 432.35 570.651 432.45C570.918 432.55 571.285 432.625 571.751 432.675L575.251 433.025C575.968 433.092 576.518 433.225 576.901 433.425C577.301 433.608 577.585 433.942 577.751 434.425C577.935 434.892 578.026 435.6 578.026 436.55C578.026 437.317 577.935 437.942 577.751 438.425C577.568 438.892 577.285 439.258 576.901 439.525C576.518 439.775 576.035 439.95 575.451 440.05C574.868 440.15 574.185 440.2 573.401 440.2ZM582.705 440V428.575H580.08V427.25H582.705V423.55H584.23V427.25H587.33V428.575H584.23V440H582.705ZM590.298 440V427.25H591.623L591.723 429.825H591.848C592.048 429.075 592.356 428.5 592.773 428.1C593.19 427.683 593.681 427.408 594.248 427.275C594.831 427.125 595.473 427.05 596.173 427.05V428.575C594.99 428.575 594.081 428.775 593.448 429.175C592.831 429.558 592.406 430.15 592.173 430.95C591.94 431.75 591.823 432.733 591.823 433.9V440H590.298ZM602.491 440.2C601.507 440.2 600.691 440.1 600.041 439.9C599.391 439.7 598.907 439.333 598.591 438.8C598.291 438.267 598.141 437.508 598.141 436.525C598.141 435.575 598.249 434.833 598.466 434.3C598.682 433.75 599.066 433.358 599.616 433.125C600.182 432.892 600.966 432.775 601.966 432.775C602.149 432.775 602.432 432.783 602.816 432.8C603.199 432.8 603.641 432.808 604.141 432.825C604.641 432.842 605.141 432.858 605.641 432.875C606.157 432.875 606.641 432.883 607.091 432.9V431.95C607.091 431.117 607.041 430.467 606.941 430C606.841 429.517 606.641 429.158 606.341 428.925C606.057 428.675 605.641 428.525 605.091 428.475C604.541 428.408 603.832 428.375 602.966 428.375C602.582 428.375 602.141 428.392 601.641 428.425C601.141 428.442 600.649 428.475 600.166 428.525C599.699 428.558 599.307 428.6 598.991 428.65V427.375C599.574 427.275 600.257 427.2 601.041 427.15C601.824 427.083 602.649 427.05 603.516 427.05C604.382 427.05 605.116 427.1 605.716 427.2C606.316 427.3 606.807 427.458 607.191 427.675C607.574 427.892 607.866 428.183 608.066 428.55C608.266 428.917 608.407 429.375 608.491 429.925C608.574 430.475 608.616 431.125 608.616 431.875V440H607.266L607.191 438.075H607.066C606.816 438.708 606.432 439.183 605.916 439.5C605.416 439.8 604.857 439.992 604.241 440.075C603.641 440.158 603.057 440.2 602.491 440.2ZM602.916 438.9C603.432 438.9 603.932 438.875 604.416 438.825C604.899 438.775 605.324 438.658 605.691 438.475C606.057 438.275 606.341 437.983 606.541 437.6C606.741 437.183 606.882 436.75 606.966 436.3C607.049 435.85 607.091 435.342 607.091 434.775V433.95H602.366C601.632 433.95 601.066 434.008 600.666 434.125C600.266 434.242 599.991 434.475 599.841 434.825C599.691 435.175 599.616 435.708 599.616 436.425C599.616 437.108 599.699 437.633 599.866 438C600.049 438.35 600.374 438.592 600.841 438.725C601.324 438.842 602.016 438.9 602.916 438.9ZM614.126 440V428.575H611.501V427.25H614.126V423.55H615.651V427.25H618.751V428.575H615.651V440H614.126ZM621.644 423.35V421.425H623.344V423.35H621.644ZM621.719 440V427.25H623.244V440H621.719ZM632.796 440.2C631.763 440.2 630.905 440.142 630.221 440.025C629.555 439.908 629.021 439.708 628.621 439.425C628.221 439.142 627.93 438.75 627.746 438.25C627.563 437.75 627.438 437.125 627.371 436.375C627.321 435.608 627.296 434.692 627.296 433.625C627.296 432.558 627.321 431.65 627.371 430.9C627.438 430.133 627.563 429.5 627.746 429C627.93 428.5 628.221 428.108 628.621 427.825C629.021 427.542 629.555 427.342 630.221 427.225C630.905 427.108 631.763 427.05 632.796 427.05C633.83 427.05 634.68 427.108 635.346 427.225C636.03 427.342 636.571 427.542 636.971 427.825C637.371 428.108 637.663 428.5 637.846 429C638.046 429.5 638.171 430.133 638.221 430.9C638.271 431.65 638.296 432.558 638.296 433.625C638.296 434.692 638.271 435.608 638.221 436.375C638.171 437.125 638.046 437.75 637.846 438.25C637.663 438.75 637.371 439.142 636.971 439.425C636.571 439.708 636.03 439.908 635.346 440.025C634.68 440.142 633.83 440.2 632.796 440.2ZM632.796 438.875C633.796 438.875 634.563 438.808 635.096 438.675C635.646 438.542 636.038 438.3 636.271 437.95C636.505 437.583 636.646 437.058 636.696 436.375C636.746 435.675 636.771 434.758 636.771 433.625C636.771 432.508 636.746 431.6 636.696 430.9C636.646 430.2 636.505 429.667 636.271 429.3C636.038 428.933 635.646 428.692 635.096 428.575C634.563 428.442 633.796 428.375 632.796 428.375C631.813 428.375 631.046 428.442 630.496 428.575C629.946 428.692 629.555 428.933 629.321 429.3C629.088 429.667 628.946 430.2 628.896 430.9C628.846 431.6 628.821 432.508 628.821 433.625C628.821 434.758 628.846 435.675 628.896 436.375C628.946 437.058 629.088 437.583 629.321 437.95C629.555 438.3 629.946 438.542 630.496 438.675C631.046 438.808 631.813 438.875 632.796 438.875ZM642.324 440V427.25H643.674L643.749 429.2H643.874C644.041 428.783 644.274 428.417 644.574 428.1C644.891 427.783 645.341 427.533 645.924 427.35C646.524 427.15 647.299 427.05 648.249 427.05C649.216 427.05 649.991 427.15 650.574 427.35C651.174 427.533 651.633 427.825 651.949 428.225C652.266 428.608 652.474 429.117 652.574 429.75C652.691 430.383 652.749 431.133 652.749 432V440H651.224V432.475C651.224 431.575 651.183 430.858 651.099 430.325C651.016 429.792 650.849 429.392 650.599 429.125C650.349 428.842 649.991 428.658 649.524 428.575C649.058 428.475 648.449 428.425 647.699 428.425C646.766 428.425 646.033 428.55 645.499 428.8C644.983 429.033 644.608 429.375 644.374 429.825C644.141 430.258 643.991 430.783 643.924 431.4C643.874 432 643.849 432.667 643.849 433.4V440H642.324ZM558.657 479V467.575H556.032V466.25H558.657V463.85C558.657 463.217 558.715 462.692 558.832 462.275C558.949 461.858 559.132 461.533 559.382 461.3C559.632 461.05 559.949 460.867 560.332 460.75C560.732 460.617 561.19 460.533 561.707 460.5C562.24 460.45 562.849 460.425 563.532 460.425V461.65C562.849 461.65 562.29 461.675 561.857 461.725C561.44 461.775 561.107 461.867 560.857 462C560.607 462.133 560.432 462.333 560.332 462.6C560.232 462.85 560.182 463.183 560.182 463.6V466.25H563.532V467.575H560.182V479H558.657ZM571.444 479.2C570.41 479.2 569.552 479.142 568.869 479.025C568.202 478.908 567.669 478.708 567.269 478.425C566.869 478.142 566.577 477.75 566.394 477.25C566.21 476.75 566.085 476.125 566.019 475.375C565.969 474.608 565.944 473.692 565.944 472.625C565.944 471.558 565.969 470.65 566.019 469.9C566.085 469.133 566.21 468.5 566.394 468C566.577 467.5 566.869 467.108 567.269 466.825C567.669 466.542 568.202 466.342 568.869 466.225C569.552 466.108 570.41 466.05 571.444 466.05C572.477 466.05 573.327 466.108 573.994 466.225C574.677 466.342 575.219 466.542 575.619 466.825C576.019 467.108 576.31 467.5 576.494 468C576.694 468.5 576.819 469.133 576.869 469.9C576.919 470.65 576.944 471.558 576.944 472.625C576.944 473.692 576.919 474.608 576.869 475.375C576.819 476.125 576.694 476.75 576.494 477.25C576.31 477.75 576.019 478.142 575.619 478.425C575.219 478.708 574.677 478.908 573.994 479.025C573.327 479.142 572.477 479.2 571.444 479.2ZM571.444 477.875C572.444 477.875 573.21 477.808 573.744 477.675C574.294 477.542 574.685 477.3 574.919 476.95C575.152 476.583 575.294 476.058 575.344 475.375C575.394 474.675 575.419 473.758 575.419 472.625C575.419 471.508 575.394 470.6 575.344 469.9C575.294 469.2 575.152 468.667 574.919 468.3C574.685 467.933 574.294 467.692 573.744 467.575C573.21 467.442 572.444 467.375 571.444 467.375C570.46 467.375 569.694 467.442 569.144 467.575C568.594 467.692 568.202 467.933 567.969 468.3C567.735 468.667 567.594 469.2 567.544 469.9C567.494 470.6 567.469 471.508 567.469 472.625C567.469 473.758 567.494 474.675 567.544 475.375C567.594 476.058 567.735 476.583 567.969 476.95C568.202 477.3 568.594 477.542 569.144 477.675C569.694 477.808 570.46 477.875 571.444 477.875ZM580.972 479V466.25H582.297L582.397 468.825H582.522C582.722 468.075 583.03 467.5 583.447 467.1C583.864 466.683 584.355 466.408 584.922 466.275C585.505 466.125 586.147 466.05 586.847 466.05V467.575C585.664 467.575 584.755 467.775 584.122 468.175C583.505 468.558 583.08 469.15 582.847 469.95C582.614 470.75 582.497 471.733 582.497 472.9V479H580.972ZM589.859 479V466.25H591.209L591.284 468.2H591.409C591.542 467.8 591.75 467.442 592.034 467.125C592.334 466.792 592.742 466.533 593.259 466.35C593.792 466.15 594.492 466.05 595.359 466.05C596.542 466.05 597.417 466.217 597.984 466.55C598.567 466.883 598.959 467.433 599.159 468.2H599.309C599.442 467.8 599.659 467.442 599.959 467.125C600.275 466.792 600.7 466.533 601.234 466.35C601.784 466.15 602.492 466.05 603.359 466.05C604.525 466.05 605.4 466.225 605.984 466.575C606.567 466.908 606.95 467.442 607.134 468.175C607.317 468.892 607.409 469.833 607.409 471V479H605.884V471.475C605.884 470.575 605.85 469.858 605.784 469.325C605.717 468.792 605.575 468.392 605.359 468.125C605.142 467.842 604.825 467.658 604.409 467.575C604.009 467.475 603.475 467.425 602.809 467.425C601.975 467.425 601.325 467.542 600.859 467.775C600.392 467.992 600.059 468.317 599.859 468.75C599.659 469.167 599.534 469.683 599.484 470.3C599.434 470.917 599.409 471.617 599.409 472.4V479H597.884V471.475C597.884 470.575 597.842 469.858 597.759 469.325C597.692 468.792 597.55 468.392 597.334 468.125C597.134 467.842 596.825 467.658 596.409 467.575C596.009 467.475 595.475 467.425 594.809 467.425C593.975 467.425 593.325 467.55 592.859 467.8C592.392 468.033 592.05 468.375 591.834 468.825C591.634 469.258 591.509 469.783 591.459 470.4C591.409 471 591.384 471.667 591.384 472.4V479H589.859Z" fill="white"/>
<path d="M576 368.672C574.895 368.672 574 369.567 574 370.672C574 371.776 574.895 372.672 576 372.672C577.105 372.672 578 371.776 578 370.672C578 369.567 577.105 368.672 576 368.672Z" fill="white"/>
<path d="M574 385.334C574 384.229 574.895 383.334 576 383.334C577.105 383.334 578 384.229 578 385.334C578 386.439 577.105 387.334 576 387.334C574.895 387.334 574 386.439 574 385.334Z" fill="white"/>
<path d="M562 357.333C562 353.283 565.283 350 569.333 350H602.667C606.717 350 610 353.283 610 357.333V374.058C607.627 372.539 604.859 371.582 601.884 371.375C601.967 371.156 602.012 370.919 602.012 370.671C602.012 369.567 601.116 368.671 600.012 368.671H586.667C585.562 368.671 584.667 369.567 584.667 370.671C584.667 371.776 585.562 372.671 586.667 372.671H593.977C587.726 375.289 583.333 381.465 583.333 388.667C583.333 392.103 584.333 395.306 586.058 398H569.333C565.283 398 562 394.717 562 390.667V357.333ZM570 370.671C570 373.985 572.686 376.671 576 376.671C579.314 376.671 582 373.985 582 370.671C582 367.358 579.314 364.671 576 364.671C572.686 364.671 570 367.358 570 370.671ZM576 379.333C572.686 379.333 570 382.02 570 385.333C570 388.647 572.686 391.333 576 391.333C579.314 391.333 582 388.647 582 385.333C582 382.02 579.314 379.333 576 379.333ZM572.013 362L600.012 362C601.116 362 602.012 361.105 602.012 360C602.012 358.895 601.116 358 600.012 358L572.013 358C570.908 358 570.013 358.895 570.013 360C570.013 361.105 570.908 362 572.013 362Z" fill="white"/>
<path d="M615.333 388.667C615.333 380.566 608.767 374 600.667 374C592.566 374 586 380.566 586 388.667C586 396.767 592.566 403.333 600.667 403.333C608.767 403.333 615.333 396.767 615.333 388.667ZM602.003 396.676C602.003 397.413 601.406 398.009 600.67 398.009C599.933 398.009 599.336 397.413 599.336 396.676L599.335 390H592.656C591.92 390 591.323 389.403 591.323 388.667C591.323 387.93 591.92 387.333 592.656 387.333H599.335L599.333 380.665C599.333 379.928 599.93 379.331 600.667 379.331C601.403 379.331 602 379.928 602 380.665L602.001 387.333H608.675C609.411 387.333 610.008 387.93 610.008 388.667C610.008 389.403 609.411 390 608.675 390H602.002L602.003 396.676Z" fill="white"/>
<g filter="url(#filter2_i_600_2789)">
<g filter="url(#filter3_b_600_2789)">
<rect x="724" y="320" width="183" height="183" rx="30" fill="#D9D9D9" fill-opacity="0.15"/>
</g>
<path d="M742.875 445.2C741.708 445.2 740.717 445.133 739.9 445C739.1 444.883 738.442 444.65 737.925 444.3C737.425 443.95 737.033 443.458 736.75 442.825C736.483 442.175 736.3 441.325 736.2 440.275C736.1 439.225 736.05 437.933 736.05 436.4C736.05 434.883 736.1 433.608 736.2 432.575C736.3 431.525 736.483 430.675 736.75 430.025C737.033 429.375 737.425 428.875 737.925 428.525C738.442 428.175 739.1 427.933 739.9 427.8C740.717 427.667 741.708 427.6 742.875 427.6C743.325 427.6 743.783 427.617 744.25 427.65C744.733 427.667 745.192 427.7 745.625 427.75C746.075 427.8 746.467 427.867 746.8 427.95V429.275C746.433 429.225 746.042 429.183 745.625 429.15C745.225 429.1 744.817 429.067 744.4 429.05C744 429.033 743.633 429.025 743.3 429.025C742.267 429.025 741.408 429.067 740.725 429.15C740.042 429.233 739.492 429.408 739.075 429.675C738.675 429.925 738.367 430.317 738.15 430.85C737.95 431.383 737.817 432.1 737.75 433C737.683 433.9 737.65 435.033 737.65 436.4C737.65 437.767 737.683 438.9 737.75 439.8C737.817 440.7 737.95 441.417 738.15 441.95C738.367 442.483 738.675 442.883 739.075 443.15C739.492 443.4 740.042 443.567 740.725 443.65C741.408 443.733 742.267 443.775 743.3 443.775C743.867 443.775 744.483 443.75 745.15 443.7C745.817 443.65 746.4 443.592 746.9 443.525V444.9C746.55 444.967 746.142 445.017 745.675 445.05C745.208 445.1 744.733 445.133 744.25 445.15C743.767 445.183 743.308 445.2 742.875 445.2ZM750.704 445V432.25H752.029L752.129 434.825H752.254C752.454 434.075 752.763 433.5 753.179 433.1C753.596 432.683 754.088 432.408 754.654 432.275C755.238 432.125 755.879 432.05 756.579 432.05V433.575C755.396 433.575 754.488 433.775 753.854 434.175C753.238 434.558 752.813 435.15 752.579 435.95C752.346 436.75 752.229 437.733 752.229 438.9V445H750.704ZM764.494 445.2C763.494 445.2 762.661 445.133 761.994 445C761.327 444.883 760.786 444.675 760.369 444.375C759.952 444.075 759.636 443.675 759.419 443.175C759.219 442.658 759.077 442.033 758.994 441.3C758.927 440.55 758.894 439.667 758.894 438.65C758.894 437.433 758.944 436.408 759.044 435.575C759.144 434.725 759.361 434.042 759.694 433.525C760.044 433.008 760.594 432.633 761.344 432.4C762.111 432.167 763.152 432.05 764.469 432.05C765.419 432.05 766.194 432.125 766.794 432.275C767.411 432.408 767.894 432.633 768.244 432.95C768.611 433.25 768.877 433.658 769.044 434.175C769.211 434.692 769.319 435.317 769.369 436.05C769.419 436.783 769.444 437.642 769.444 438.625V439.15H760.419C760.419 440.117 760.461 440.908 760.544 441.525C760.644 442.142 760.827 442.625 761.094 442.975C761.377 443.325 761.811 443.567 762.394 443.7C762.994 443.833 763.794 443.9 764.794 443.9C765.211 443.9 765.669 443.883 766.169 443.85C766.669 443.817 767.161 443.783 767.644 443.75C768.127 443.7 768.561 443.642 768.944 443.575V444.85C768.611 444.917 768.194 444.975 767.694 445.025C767.194 445.092 766.669 445.133 766.119 445.15C765.569 445.183 765.027 445.2 764.494 445.2ZM767.969 438.425V437.6C767.969 436.65 767.911 435.892 767.794 435.325C767.677 434.758 767.486 434.333 767.219 434.05C766.952 433.767 766.586 433.583 766.119 433.5C765.669 433.4 765.094 433.35 764.394 433.35C763.511 433.35 762.802 433.408 762.269 433.525C761.736 433.642 761.336 433.867 761.069 434.2C760.802 434.517 760.627 434.975 760.544 435.575C760.461 436.175 760.419 436.975 760.419 437.975H768.444L767.969 438.425ZM777.008 445.2C776.025 445.2 775.208 445.1 774.558 444.9C773.908 444.7 773.425 444.333 773.108 443.8C772.808 443.267 772.658 442.508 772.658 441.525C772.658 440.575 772.767 439.833 772.983 439.3C773.2 438.75 773.583 438.358 774.133 438.125C774.7 437.892 775.483 437.775 776.483 437.775C776.667 437.775 776.95 437.783 777.333 437.8C777.717 437.8 778.158 437.808 778.658 437.825C779.158 437.842 779.658 437.858 780.158 437.875C780.675 437.875 781.158 437.883 781.608 437.9V436.95C781.608 436.117 781.558 435.467 781.458 435C781.358 434.517 781.158 434.158 780.858 433.925C780.575 433.675 780.158 433.525 779.608 433.475C779.058 433.408 778.35 433.375 777.483 433.375C777.1 433.375 776.658 433.392 776.158 433.425C775.658 433.442 775.167 433.475 774.683 433.525C774.217 433.558 773.825 433.6 773.508 433.65V432.375C774.092 432.275 774.775 432.2 775.558 432.15C776.342 432.083 777.167 432.05 778.033 432.05C778.9 432.05 779.633 432.1 780.233 432.2C780.833 432.3 781.325 432.458 781.708 432.675C782.092 432.892 782.383 433.183 782.583 433.55C782.783 433.917 782.925 434.375 783.008 434.925C783.092 435.475 783.133 436.125 783.133 436.875V445H781.783L781.708 443.075H781.583C781.333 443.708 780.95 444.183 780.433 444.5C779.933 444.8 779.375 444.992 778.758 445.075C778.158 445.158 777.575 445.2 777.008 445.2ZM777.433 443.9C777.95 443.9 778.45 443.875 778.933 443.825C779.417 443.775 779.842 443.658 780.208 443.475C780.575 443.275 780.858 442.983 781.058 442.6C781.258 442.183 781.4 441.75 781.483 441.3C781.567 440.85 781.608 440.342 781.608 439.775V438.95H776.883C776.15 438.95 775.583 439.008 775.183 439.125C774.783 439.242 774.508 439.475 774.358 439.825C774.208 440.175 774.133 440.708 774.133 441.425C774.133 442.108 774.217 442.633 774.383 443C774.567 443.35 774.892 443.592 775.358 443.725C775.842 443.842 776.533 443.9 777.433 443.9ZM788.643 445V433.575H786.018V432.25H788.643V428.55H790.168V432.25H793.268V433.575H790.168V445H788.643ZM801.139 445.2C800.139 445.2 799.306 445.133 798.639 445C797.973 444.883 797.431 444.675 797.014 444.375C796.598 444.075 796.281 443.675 796.064 443.175C795.864 442.658 795.723 442.033 795.639 441.3C795.573 440.55 795.539 439.667 795.539 438.65C795.539 437.433 795.589 436.408 795.689 435.575C795.789 434.725 796.006 434.042 796.339 433.525C796.689 433.008 797.239 432.633 797.989 432.4C798.756 432.167 799.798 432.05 801.114 432.05C802.064 432.05 802.839 432.125 803.439 432.275C804.056 432.408 804.539 432.633 804.889 432.95C805.256 433.25 805.523 433.658 805.689 434.175C805.856 434.692 805.964 435.317 806.014 436.05C806.064 436.783 806.089 437.642 806.089 438.625V439.15H797.064C797.064 440.117 797.106 440.908 797.189 441.525C797.289 442.142 797.473 442.625 797.739 442.975C798.023 443.325 798.456 443.567 799.039 443.7C799.639 443.833 800.439 443.9 801.439 443.9C801.856 443.9 802.314 443.883 802.814 443.85C803.314 443.817 803.806 443.783 804.289 443.75C804.773 443.7 805.206 443.642 805.589 443.575V444.85C805.256 444.917 804.839 444.975 804.339 445.025C803.839 445.092 803.314 445.133 802.764 445.15C802.214 445.183 801.673 445.2 801.139 445.2ZM804.614 438.425V437.6C804.614 436.65 804.556 435.892 804.439 435.325C804.323 434.758 804.131 434.333 803.864 434.05C803.598 433.767 803.231 433.583 802.764 433.5C802.314 433.4 801.739 433.35 801.039 433.35C800.156 433.35 799.448 433.408 798.914 433.525C798.381 433.642 797.981 433.867 797.714 434.2C797.448 434.517 797.273 434.975 797.189 435.575C797.106 436.175 797.064 436.975 797.064 437.975H805.089L804.614 438.425ZM819.465 445L814.59 427.8H816.265L820.39 442.725H820.54L825.09 427.8H826.765L831.34 442.725H831.49L835.565 427.8H837.19L832.315 445H830.49L825.94 430.35H825.84L821.29 445H819.465ZM840.449 428.35V426.425H842.149V428.35H840.449ZM840.524 445V432.25H842.049V445H840.524ZM847.701 445V433.575H845.076V432.25H847.701V428.55H849.226V432.25H852.326V433.575H849.226V445H847.701ZM855.294 445V426.425H856.819V434.025H856.944C857.094 433.675 857.319 433.358 857.619 433.075C857.919 432.775 858.352 432.533 858.919 432.35C859.502 432.15 860.269 432.05 861.219 432.05C862.186 432.05 862.961 432.15 863.544 432.35C864.144 432.533 864.602 432.825 864.919 433.225C865.236 433.608 865.444 434.117 865.544 434.75C865.661 435.383 865.719 436.133 865.719 437V445H864.194V437.475C864.194 436.575 864.152 435.858 864.069 435.325C863.986 434.792 863.819 434.392 863.569 434.125C863.319 433.842 862.961 433.658 862.494 433.575C862.027 433.475 861.419 433.425 860.669 433.425C859.736 433.425 859.002 433.55 858.469 433.8C857.952 434.033 857.577 434.375 857.344 434.825C857.111 435.258 856.961 435.783 856.894 436.4C856.844 437 856.819 437.667 856.819 438.4V445H855.294ZM874.596 445L881.371 427.8H883.271L890.021 445H888.346L886.346 439.925H878.221L876.246 445H874.596ZM878.746 438.5H885.821L882.346 429.6H882.221L878.746 438.5ZM893.486 445V427.8H895.086V445H893.486Z" fill="white"/>
<path d="M809.572 367.127C812.026 372.596 816.404 376.974 821.873 379.428C816.404 381.882 812.026 386.259 809.572 391.729C807.118 386.259 802.741 381.882 797.271 379.428C802.741 376.974 807.118 372.596 809.572 367.127ZM809.572 355.584C809.69 358.747 809.154 361.9 807.997 364.846C806.84 367.792 805.088 370.468 802.85 372.706C800.612 374.944 797.936 376.696 794.99 377.853C792.044 379.009 788.891 379.546 785.728 379.428C788.891 379.31 792.044 379.846 794.99 381.003C797.936 382.16 800.612 383.912 802.85 386.15C805.088 388.388 806.84 391.064 807.997 394.01C809.154 396.956 809.69 400.109 809.572 403.272C809.454 400.109 809.991 396.956 811.147 394.01C812.304 391.064 814.056 388.388 816.294 386.15C818.532 383.912 821.208 382.16 824.154 381.003C827.1 379.846 830.253 379.31 833.416 379.428C830.253 379.546 827.1 379.009 824.154 377.853C821.208 376.696 818.532 374.944 816.294 372.706C814.056 370.468 812.304 367.792 811.147 364.846C809.991 361.9 809.454 358.747 809.572 355.584Z" fill="white"/>
<path d="M833.788 353.174C834.837 354.787 836.213 356.163 837.826 357.213C836.213 358.262 834.837 359.638 833.788 361.251C832.738 359.638 831.362 358.262 829.749 357.213C831.362 356.163 832.738 354.787 833.788 353.174ZM833.788 344.729C833.849 346.385 833.568 348.035 832.963 349.578C832.357 351.12 831.44 352.521 830.268 353.693C829.096 354.865 827.695 355.782 826.153 356.388C824.61 356.994 822.959 357.274 821.303 357.213C822.959 357.151 824.61 357.432 826.153 358.037C827.695 358.643 829.096 359.56 830.268 360.732C831.44 361.904 832.357 363.305 832.963 364.847C833.568 366.39 833.849 368.041 833.788 369.697C833.726 368.041 834.007 366.39 834.612 364.847C835.218 363.305 836.135 361.904 837.307 360.732C838.479 359.56 839.88 358.643 841.422 358.037C842.965 357.432 844.616 357.151 846.272 357.213C844.616 357.274 842.965 356.993 841.422 356.388C839.88 355.782 838.479 354.865 837.307 353.693C836.135 352.521 835.218 351.12 834.612 349.578C834.007 348.035 833.726 346.385 833.788 344.729Z" fill="white"/>
</g>
<g filter="url(#filter4_i_600_2789)">
<g filter="url(#filter5_b_600_2789)">
<rect x="274" y="320" width="183" height="183" rx="30" fill="#D9D9D9" fill-opacity="0.15"/>
</g>
<path d="M306.875 445.2C305.708 445.2 304.717 445.133 303.9 445C303.1 444.883 302.442 444.65 301.925 444.3C301.425 443.95 301.033 443.458 300.75 442.825C300.483 442.175 300.3 441.325 300.2 440.275C300.1 439.225 300.05 437.933 300.05 436.4C300.05 434.883 300.1 433.608 300.2 432.575C300.3 431.525 300.483 430.675 300.75 430.025C301.033 429.375 301.425 428.875 301.925 428.525C302.442 428.175 303.1 427.933 303.9 427.8C304.717 427.667 305.708 427.6 306.875 427.6C307.325 427.6 307.783 427.617 308.25 427.65C308.733 427.667 309.192 427.7 309.625 427.75C310.075 427.8 310.467 427.867 310.8 427.95V429.275C310.433 429.225 310.042 429.183 309.625 429.15C309.225 429.1 308.817 429.067 308.4 429.05C308 429.033 307.633 429.025 307.3 429.025C306.267 429.025 305.408 429.067 304.725 429.15C304.042 429.233 303.492 429.408 303.075 429.675C302.675 429.925 302.367 430.317 302.15 430.85C301.95 431.383 301.817 432.1 301.75 433C301.683 433.9 301.65 435.033 301.65 436.4C301.65 437.767 301.683 438.9 301.75 439.8C301.817 440.7 301.95 441.417 302.15 441.95C302.367 442.483 302.675 442.883 303.075 443.15C303.492 443.4 304.042 443.567 304.725 443.65C305.408 443.733 306.267 443.775 307.3 443.775C307.867 443.775 308.483 443.75 309.15 443.7C309.817 443.65 310.4 443.592 310.9 443.525V444.9C310.55 444.967 310.142 445.017 309.675 445.05C309.208 445.1 308.733 445.133 308.25 445.15C307.767 445.183 307.308 445.2 306.875 445.2ZM314.704 445V432.25H316.029L316.129 434.825H316.254C316.454 434.075 316.763 433.5 317.179 433.1C317.596 432.683 318.088 432.408 318.654 432.275C319.238 432.125 319.879 432.05 320.579 432.05V433.575C319.396 433.575 318.488 433.775 317.854 434.175C317.238 434.558 316.813 435.15 316.579 435.95C316.346 436.75 316.229 437.733 316.229 438.9V445H314.704ZM328.494 445.2C327.494 445.2 326.661 445.133 325.994 445C325.327 444.883 324.786 444.675 324.369 444.375C323.952 444.075 323.636 443.675 323.419 443.175C323.219 442.658 323.077 442.033 322.994 441.3C322.927 440.55 322.894 439.667 322.894 438.65C322.894 437.433 322.944 436.408 323.044 435.575C323.144 434.725 323.361 434.042 323.694 433.525C324.044 433.008 324.594 432.633 325.344 432.4C326.111 432.167 327.152 432.05 328.469 432.05C329.419 432.05 330.194 432.125 330.794 432.275C331.411 432.408 331.894 432.633 332.244 432.95C332.611 433.25 332.877 433.658 333.044 434.175C333.211 434.692 333.319 435.317 333.369 436.05C333.419 436.783 333.444 437.642 333.444 438.625V439.15H324.419C324.419 440.117 324.461 440.908 324.544 441.525C324.644 442.142 324.827 442.625 325.094 442.975C325.377 443.325 325.811 443.567 326.394 443.7C326.994 443.833 327.794 443.9 328.794 443.9C329.211 443.9 329.669 443.883 330.169 443.85C330.669 443.817 331.161 443.783 331.644 443.75C332.127 443.7 332.561 443.642 332.944 443.575V444.85C332.611 444.917 332.194 444.975 331.694 445.025C331.194 445.092 330.669 445.133 330.119 445.15C329.569 445.183 329.027 445.2 328.494 445.2ZM331.969 438.425V437.6C331.969 436.65 331.911 435.892 331.794 435.325C331.677 434.758 331.486 434.333 331.219 434.05C330.952 433.767 330.586 433.583 330.119 433.5C329.669 433.4 329.094 433.35 328.394 433.35C327.511 433.35 326.802 433.408 326.269 433.525C325.736 433.642 325.336 433.867 325.069 434.2C324.802 434.517 324.627 434.975 324.544 435.575C324.461 436.175 324.419 436.975 324.419 437.975H332.444L331.969 438.425ZM341.008 445.2C340.025 445.2 339.208 445.1 338.558 444.9C337.908 444.7 337.425 444.333 337.108 443.8C336.808 443.267 336.658 442.508 336.658 441.525C336.658 440.575 336.767 439.833 336.983 439.3C337.2 438.75 337.583 438.358 338.133 438.125C338.7 437.892 339.483 437.775 340.483 437.775C340.667 437.775 340.95 437.783 341.333 437.8C341.717 437.8 342.158 437.808 342.658 437.825C343.158 437.842 343.658 437.858 344.158 437.875C344.675 437.875 345.158 437.883 345.608 437.9V436.95C345.608 436.117 345.558 435.467 345.458 435C345.358 434.517 345.158 434.158 344.858 433.925C344.575 433.675 344.158 433.525 343.608 433.475C343.058 433.408 342.35 433.375 341.483 433.375C341.1 433.375 340.658 433.392 340.158 433.425C339.658 433.442 339.167 433.475 338.683 433.525C338.217 433.558 337.825 433.6 337.508 433.65V432.375C338.092 432.275 338.775 432.2 339.558 432.15C340.342 432.083 341.167 432.05 342.033 432.05C342.9 432.05 343.633 432.1 344.233 432.2C344.833 432.3 345.325 432.458 345.708 432.675C346.092 432.892 346.383 433.183 346.583 433.55C346.783 433.917 346.925 434.375 347.008 434.925C347.092 435.475 347.133 436.125 347.133 436.875V445H345.783L345.708 443.075H345.583C345.333 443.708 344.95 444.183 344.433 444.5C343.933 444.8 343.375 444.992 342.758 445.075C342.158 445.158 341.575 445.2 341.008 445.2ZM341.433 443.9C341.95 443.9 342.45 443.875 342.933 443.825C343.417 443.775 343.842 443.658 344.208 443.475C344.575 443.275 344.858 442.983 345.058 442.6C345.258 442.183 345.4 441.75 345.483 441.3C345.567 440.85 345.608 440.342 345.608 439.775V438.95H340.883C340.15 438.95 339.583 439.008 339.183 439.125C338.783 439.242 338.508 439.475 338.358 439.825C338.208 440.175 338.133 440.708 338.133 441.425C338.133 442.108 338.217 442.633 338.383 443C338.567 443.35 338.892 443.592 339.358 443.725C339.842 443.842 340.533 443.9 341.433 443.9ZM352.643 445V433.575H350.018V432.25H352.643V428.55H354.168V432.25H357.268V433.575H354.168V445H352.643ZM365.139 445.2C364.139 445.2 363.306 445.133 362.639 445C361.973 444.883 361.431 444.675 361.014 444.375C360.598 444.075 360.281 443.675 360.064 443.175C359.864 442.658 359.723 442.033 359.639 441.3C359.573 440.55 359.539 439.667 359.539 438.65C359.539 437.433 359.589 436.408 359.689 435.575C359.789 434.725 360.006 434.042 360.339 433.525C360.689 433.008 361.239 432.633 361.989 432.4C362.756 432.167 363.798 432.05 365.114 432.05C366.064 432.05 366.839 432.125 367.439 432.275C368.056 432.408 368.539 432.633 368.889 432.95C369.256 433.25 369.523 433.658 369.689 434.175C369.856 434.692 369.964 435.317 370.014 436.05C370.064 436.783 370.089 437.642 370.089 438.625V439.15H361.064C361.064 440.117 361.106 440.908 361.189 441.525C361.289 442.142 361.473 442.625 361.739 442.975C362.023 443.325 362.456 443.567 363.039 443.7C363.639 443.833 364.439 443.9 365.439 443.9C365.856 443.9 366.314 443.883 366.814 443.85C367.314 443.817 367.806 443.783 368.289 443.75C368.773 443.7 369.206 443.642 369.589 443.575V444.85C369.256 444.917 368.839 444.975 368.339 445.025C367.839 445.092 367.314 445.133 366.764 445.15C366.214 445.183 365.673 445.2 365.139 445.2ZM368.614 438.425V437.6C368.614 436.65 368.556 435.892 368.439 435.325C368.323 434.758 368.131 434.333 367.864 434.05C367.598 433.767 367.231 433.583 366.764 433.5C366.314 433.4 365.739 433.35 365.039 433.35C364.156 433.35 363.448 433.408 362.914 433.525C362.381 433.642 361.981 433.867 361.714 434.2C361.448 434.517 361.273 434.975 361.189 435.575C361.106 436.175 361.064 436.975 361.064 437.975H369.089L368.614 438.425ZM380.89 445V433.575H378.265V432.25H380.89V429.85C380.89 429.217 380.949 428.692 381.065 428.275C381.182 427.858 381.365 427.533 381.615 427.3C381.865 427.05 382.182 426.867 382.565 426.75C382.965 426.617 383.424 426.533 383.94 426.5C384.474 426.45 385.082 426.425 385.765 426.425V427.65C385.082 427.65 384.524 427.675 384.09 427.725C383.674 427.775 383.34 427.867 383.09 428C382.84 428.133 382.665 428.333 382.565 428.6C382.465 428.85 382.415 429.183 382.415 429.6V432.25H385.765V433.575H382.415V445H380.89ZM388.874 445V432.25H390.199L390.299 434.825H390.424C390.624 434.075 390.933 433.5 391.349 433.1C391.766 432.683 392.258 432.408 392.824 432.275C393.408 432.125 394.049 432.05 394.749 432.05V433.575C393.566 433.575 392.658 433.775 392.024 434.175C391.408 434.558 390.983 435.15 390.749 435.95C390.516 436.75 390.399 437.733 390.399 438.9V445H388.874ZM402.564 445.2C401.531 445.2 400.672 445.142 399.989 445.025C399.322 444.908 398.789 444.708 398.389 444.425C397.989 444.142 397.697 443.75 397.514 443.25C397.331 442.75 397.206 442.125 397.139 441.375C397.089 440.608 397.064 439.692 397.064 438.625C397.064 437.558 397.089 436.65 397.139 435.9C397.206 435.133 397.331 434.5 397.514 434C397.697 433.5 397.989 433.108 398.389 432.825C398.789 432.542 399.322 432.342 399.989 432.225C400.672 432.108 401.531 432.05 402.564 432.05C403.597 432.05 404.447 432.108 405.114 432.225C405.797 432.342 406.339 432.542 406.739 432.825C407.139 433.108 407.431 433.5 407.614 434C407.814 434.5 407.939 435.133 407.989 435.9C408.039 436.65 408.064 437.558 408.064 438.625C408.064 439.692 408.039 440.608 407.989 441.375C407.939 442.125 407.814 442.75 407.614 443.25C407.431 443.75 407.139 444.142 406.739 444.425C406.339 444.708 405.797 444.908 405.114 445.025C404.447 445.142 403.597 445.2 402.564 445.2ZM402.564 443.875C403.564 443.875 404.331 443.808 404.864 443.675C405.414 443.542 405.806 443.3 406.039 442.95C406.272 442.583 406.414 442.058 406.464 441.375C406.514 440.675 406.539 439.758 406.539 438.625C406.539 437.508 406.514 436.6 406.464 435.9C406.414 435.2 406.272 434.667 406.039 434.3C405.806 433.933 405.414 433.692 404.864 433.575C404.331 433.442 403.564 433.375 402.564 433.375C401.581 433.375 400.814 433.442 400.264 433.575C399.714 433.692 399.322 433.933 399.089 434.3C398.856 434.667 398.714 435.2 398.664 435.9C398.614 436.6 398.589 437.508 398.589 438.625C398.589 439.758 398.614 440.675 398.664 441.375C398.714 442.058 398.856 442.583 399.089 442.95C399.322 443.3 399.714 443.542 400.264 443.675C400.814 443.808 401.581 443.875 402.564 443.875ZM412.092 445V432.25H413.442L413.517 434.2H413.642C413.775 433.8 413.984 433.442 414.267 433.125C414.567 432.792 414.975 432.533 415.492 432.35C416.025 432.15 416.725 432.05 417.592 432.05C418.775 432.05 419.65 432.217 420.217 432.55C420.8 432.883 421.192 433.433 421.392 434.2H421.542C421.675 433.8 421.892 433.442 422.192 433.125C422.509 432.792 422.934 432.533 423.467 432.35C424.017 432.15 424.725 432.05 425.592 432.05C426.759 432.05 427.634 432.225 428.217 432.575C428.8 432.908 429.184 433.442 429.367 434.175C429.55 434.892 429.642 435.833 429.642 437V445H428.117V437.475C428.117 436.575 428.084 435.858 428.017 435.325C427.95 434.792 427.809 434.392 427.592 434.125C427.375 433.842 427.059 433.658 426.642 433.575C426.242 433.475 425.709 433.425 425.042 433.425C424.209 433.425 423.559 433.542 423.092 433.775C422.625 433.992 422.292 434.317 422.092 434.75C421.892 435.167 421.767 435.683 421.717 436.3C421.667 436.917 421.642 437.617 421.642 438.4V445H420.117V437.475C420.117 436.575 420.075 435.858 419.992 435.325C419.925 434.792 419.784 434.392 419.567 434.125C419.367 433.842 419.059 433.658 418.642 433.575C418.242 433.475 417.709 433.425 417.042 433.425C416.209 433.425 415.559 433.55 415.092 433.8C414.625 434.033 414.284 434.375 414.067 434.825C413.867 435.258 413.742 435.783 413.692 436.4C413.642 437 413.617 437.667 413.617 438.4V445H412.092ZM333.184 484.2C332.734 484.2 332.234 484.183 331.684 484.15C331.15 484.133 330.617 484.1 330.084 484.05C329.567 484 329.109 483.95 328.709 483.9V482.6C329.175 482.65 329.6 482.692 329.984 482.725C330.367 482.758 330.734 482.792 331.084 482.825C331.434 482.842 331.784 482.858 332.134 482.875C332.484 482.875 332.867 482.875 333.284 482.875C334.184 482.875 334.842 482.8 335.259 482.65C335.692 482.5 335.975 482.258 336.109 481.925C336.259 481.575 336.334 481.125 336.334 480.575C336.334 479.925 336.275 479.458 336.159 479.175C336.059 478.875 335.884 478.683 335.634 478.6C335.384 478.517 335.025 478.45 334.559 478.4L331.084 478.025C330.334 477.942 329.75 477.783 329.334 477.55C328.934 477.317 328.659 476.975 328.509 476.525C328.375 476.058 328.309 475.458 328.309 474.725C328.309 473.892 328.417 473.233 328.634 472.75C328.85 472.25 329.167 471.883 329.584 471.65C330.017 471.4 330.534 471.242 331.134 471.175C331.75 471.092 332.442 471.05 333.209 471.05C333.625 471.05 334.067 471.067 334.534 471.1C335 471.117 335.459 471.15 335.909 471.2C336.359 471.25 336.759 471.308 337.109 471.375V472.675C336.642 472.592 336.192 472.533 335.759 472.5C335.325 472.45 334.884 472.417 334.434 472.4C333.984 472.383 333.509 472.375 333.009 472.375C332.342 472.375 331.767 472.417 331.284 472.5C330.8 472.567 330.425 472.758 330.159 473.075C329.909 473.375 329.784 473.892 329.784 474.625C329.784 475.175 329.825 475.592 329.909 475.875C330.009 476.158 330.184 476.35 330.434 476.45C330.7 476.55 331.067 476.625 331.534 476.675L335.034 477.025C335.75 477.092 336.3 477.225 336.684 477.425C337.084 477.608 337.367 477.942 337.534 478.425C337.717 478.892 337.809 479.6 337.809 480.55C337.809 481.317 337.717 481.942 337.534 482.425C337.35 482.892 337.067 483.258 336.684 483.525C336.3 483.775 335.817 483.95 335.234 484.05C334.65 484.15 333.967 484.2 333.184 484.2ZM346.134 484.2C345.184 484.2 344.401 484.125 343.784 483.975C343.168 483.808 342.668 483.558 342.284 483.225C341.918 482.892 341.643 482.475 341.459 481.975C341.276 481.458 341.151 480.842 341.084 480.125C341.034 479.392 341.009 478.558 341.009 477.625C341.009 476.625 341.051 475.758 341.134 475.025C341.218 474.292 341.359 473.675 341.559 473.175C341.776 472.658 342.068 472.25 342.434 471.95C342.818 471.633 343.301 471.408 343.884 471.275C344.468 471.125 345.184 471.05 346.034 471.05C346.601 471.05 347.193 471.083 347.809 471.15C348.443 471.2 348.968 471.267 349.384 471.35V472.65C348.968 472.567 348.476 472.5 347.909 472.45C347.359 472.4 346.851 472.375 346.384 472.375C345.551 472.375 344.876 472.45 344.359 472.6C343.859 472.75 343.476 473.017 343.209 473.4C342.943 473.767 342.759 474.292 342.659 474.975C342.576 475.658 342.534 476.533 342.534 477.6C342.534 478.717 342.576 479.625 342.659 480.325C342.759 481.025 342.943 481.558 343.209 481.925C343.493 482.292 343.893 482.542 344.409 482.675C344.926 482.808 345.609 482.875 346.459 482.875C346.943 482.875 347.468 482.85 348.034 482.8C348.601 482.75 349.093 482.683 349.509 482.6V483.875C349.109 483.975 348.593 484.05 347.959 484.1C347.326 484.167 346.718 484.2 346.134 484.2ZM353.059 484V471.25H354.384L354.484 473.825H354.609C354.809 473.075 355.117 472.5 355.534 472.1C355.95 471.683 356.442 471.408 357.009 471.275C357.592 471.125 358.234 471.05 358.934 471.05V472.575C357.75 472.575 356.842 472.775 356.209 473.175C355.592 473.558 355.167 474.15 354.934 474.95C354.7 475.75 354.584 476.733 354.584 477.9V484H353.059ZM365.251 484.2C364.268 484.2 363.451 484.1 362.801 483.9C362.151 483.7 361.668 483.333 361.351 482.8C361.051 482.267 360.901 481.508 360.901 480.525C360.901 479.575 361.01 478.833 361.226 478.3C361.443 477.75 361.826 477.358 362.376 477.125C362.943 476.892 363.726 476.775 364.726 476.775C364.91 476.775 365.193 476.783 365.576 476.8C365.96 476.8 366.401 476.808 366.901 476.825C367.401 476.842 367.901 476.858 368.401 476.875C368.918 476.875 369.401 476.883 369.851 476.9V475.95C369.851 475.117 369.801 474.467 369.701 474C369.601 473.517 369.401 473.158 369.101 472.925C368.818 472.675 368.401 472.525 367.851 472.475C367.301 472.408 366.593 472.375 365.726 472.375C365.343 472.375 364.901 472.392 364.401 472.425C363.901 472.442 363.41 472.475 362.926 472.525C362.46 472.558 362.068 472.6 361.751 472.65V471.375C362.335 471.275 363.018 471.2 363.801 471.15C364.585 471.083 365.41 471.05 366.276 471.05C367.143 471.05 367.876 471.1 368.476 471.2C369.076 471.3 369.568 471.458 369.951 471.675C370.335 471.892 370.626 472.183 370.826 472.55C371.026 472.917 371.168 473.375 371.251 473.925C371.335 474.475 371.376 475.125 371.376 475.875V484H370.026L369.951 482.075H369.826C369.576 482.708 369.193 483.183 368.676 483.5C368.176 483.8 367.618 483.992 367.001 484.075C366.401 484.158 365.818 484.2 365.251 484.2ZM365.676 482.9C366.193 482.9 366.693 482.875 367.176 482.825C367.66 482.775 368.085 482.658 368.451 482.475C368.818 482.275 369.101 481.983 369.301 481.6C369.501 481.183 369.643 480.75 369.726 480.3C369.81 479.85 369.851 479.342 369.851 478.775V477.95H365.126C364.393 477.95 363.826 478.008 363.426 478.125C363.026 478.242 362.751 478.475 362.601 478.825C362.451 479.175 362.376 479.708 362.376 480.425C362.376 481.108 362.46 481.633 362.626 482C362.81 482.35 363.135 482.592 363.601 482.725C364.085 482.842 364.776 482.9 365.676 482.9ZM376.887 484V472.575H374.262V471.25H376.887V467.55H378.412V471.25H381.512V472.575H378.412V484H376.887ZM388.908 484.2C387.958 484.2 387.174 484.125 386.558 483.975C385.941 483.808 385.441 483.558 385.058 483.225C384.691 482.892 384.416 482.475 384.233 481.975C384.049 481.458 383.924 480.842 383.858 480.125C383.808 479.392 383.783 478.558 383.783 477.625C383.783 476.625 383.824 475.758 383.908 475.025C383.991 474.292 384.133 473.675 384.333 473.175C384.549 472.658 384.841 472.25 385.208 471.95C385.591 471.633 386.074 471.408 386.658 471.275C387.241 471.125 387.958 471.05 388.808 471.05C389.374 471.05 389.966 471.083 390.583 471.15C391.216 471.2 391.741 471.267 392.158 471.35V472.65C391.741 472.567 391.249 472.5 390.683 472.45C390.133 472.4 389.624 472.375 389.158 472.375C388.324 472.375 387.649 472.45 387.133 472.6C386.633 472.75 386.249 473.017 385.983 473.4C385.716 473.767 385.533 474.292 385.433 474.975C385.349 475.658 385.308 476.533 385.308 477.6C385.308 478.717 385.349 479.625 385.433 480.325C385.533 481.025 385.716 481.558 385.983 481.925C386.266 482.292 386.666 482.542 387.183 482.675C387.699 482.808 388.383 482.875 389.233 482.875C389.716 482.875 390.241 482.85 390.808 482.8C391.374 482.75 391.866 482.683 392.283 482.6V483.875C391.883 483.975 391.366 484.05 390.733 484.1C390.099 484.167 389.491 484.2 388.908 484.2ZM395.832 484V465.425H397.357V473.025H397.482C397.632 472.675 397.857 472.358 398.157 472.075C398.457 471.775 398.891 471.533 399.457 471.35C400.041 471.15 400.807 471.05 401.757 471.05C402.724 471.05 403.499 471.15 404.082 471.35C404.682 471.533 405.141 471.825 405.457 472.225C405.774 472.608 405.982 473.117 406.082 473.75C406.199 474.383 406.257 475.133 406.257 476V484H404.732V476.475C404.732 475.575 404.691 474.858 404.607 474.325C404.524 473.792 404.357 473.392 404.107 473.125C403.857 472.842 403.499 472.658 403.032 472.575C402.566 472.475 401.957 472.425 401.207 472.425C400.274 472.425 399.541 472.55 399.007 472.8C398.491 473.033 398.116 473.375 397.882 473.825C397.649 474.258 397.499 474.783 397.432 475.4C397.382 476 397.357 476.667 397.357 477.4V484H395.832Z" fill="white"/>
<path d="M344.825 378H361V361.825C361 359.712 362.788 358 365 358C367.212 358 369 359.712 369 361.825V378H385.175C387.288 378 389 379.788 389 382C389 384.212 387.288 386 385.175 386H369V402.175C369 404.287 367.212 406 365 406C362.788 406 361 404.287 361 402.175V386H344.825C342.713 386 341 384.212 341 382C341 379.788 342.713 378 344.825 378Z" fill="white"/>
</g>
<path d="M501.1 196V161.6H523.6V167.4H508.2V176.7H521.75V182.5H508.2V196H501.1ZM539.084 196.4C536.884 196.4 535.051 196.267 533.584 196C532.118 195.733 530.968 195.3 530.134 194.7C529.301 194.1 528.684 193.3 528.284 192.3C527.918 191.3 527.668 190.05 527.534 188.55C527.434 187.05 527.384 185.267 527.384 183.2C527.384 181.133 527.434 179.367 527.534 177.9C527.668 176.4 527.918 175.15 528.284 174.15C528.684 173.15 529.301 172.35 530.134 171.75C530.968 171.15 532.118 170.733 533.584 170.5C535.051 170.233 536.884 170.1 539.084 170.1C541.284 170.1 543.101 170.233 544.534 170.5C546.001 170.733 547.151 171.15 547.984 171.75C548.851 172.35 549.468 173.15 549.834 174.15C550.234 175.15 550.484 176.4 550.584 177.9C550.718 179.367 550.784 181.133 550.784 183.2C550.784 185.267 550.718 187.05 550.584 188.55C550.484 190.05 550.234 191.3 549.834 192.3C549.468 193.3 548.851 194.1 547.984 194.7C547.151 195.3 546.001 195.733 544.534 196C543.101 196.267 541.284 196.4 539.084 196.4ZM539.084 191.05C540.318 191.05 541.284 190.967 541.984 190.8C542.718 190.633 543.218 190.3 543.484 189.8C543.784 189.267 543.968 188.467 544.034 187.4C544.101 186.333 544.134 184.933 544.134 183.2C544.134 181.467 544.101 180.083 544.034 179.05C543.968 177.983 543.784 177.2 543.484 176.7C543.218 176.167 542.718 175.833 541.984 175.7C541.284 175.533 540.318 175.45 539.084 175.45C537.818 175.45 536.834 175.533 536.134 175.7C535.434 175.833 534.934 176.167 534.634 176.7C534.334 177.2 534.151 177.983 534.084 179.05C534.051 180.083 534.034 181.467 534.034 183.2C534.034 184.933 534.051 186.333 534.084 187.4C534.151 188.467 534.334 189.267 534.634 189.8C534.934 190.3 535.434 190.633 536.134 190.8C536.834 190.967 537.818 191.05 539.084 191.05ZM556.995 196V170.5H563.195L563.395 174.9H563.795C564.229 173.633 564.812 172.65 565.545 171.95C566.312 171.25 567.229 170.767 568.295 170.5C569.362 170.233 570.579 170.1 571.945 170.1V176.4C569.779 176.4 568.079 176.7 566.845 177.3C565.645 177.9 564.795 178.883 564.295 180.25C563.829 181.617 563.595 183.467 563.595 185.8V196H556.995ZM576.722 196V170.5H582.922L583.122 173.7H583.472C583.905 172.9 584.455 172.233 585.122 171.7C585.822 171.133 586.639 170.733 587.572 170.5C588.539 170.233 589.622 170.1 590.822 170.1C592.855 170.1 594.389 170.4 595.422 171C596.489 171.567 597.239 172.467 597.672 173.7H598.072C598.505 172.9 599.072 172.233 599.772 171.7C600.505 171.133 601.355 170.733 602.322 170.5C603.289 170.233 604.389 170.1 605.622 170.1C607.789 170.1 609.405 170.483 610.472 171.25C611.539 171.983 612.255 173.1 612.622 174.6C612.989 176.067 613.172 177.883 613.172 180.05V196H606.572V182.5C606.572 180.967 606.522 179.75 606.422 178.85C606.322 177.95 606.139 177.283 605.872 176.85C605.639 176.417 605.255 176.15 604.722 176.05C604.189 175.917 603.472 175.85 602.572 175.85C601.605 175.85 600.822 175.983 600.222 176.25C599.655 176.483 599.222 176.867 598.922 177.4C598.655 177.933 598.472 178.65 598.372 179.55C598.305 180.417 598.272 181.5 598.272 182.8V196H591.622V182.5C591.622 180.967 591.572 179.75 591.472 178.85C591.405 177.95 591.239 177.283 590.972 176.85C590.705 176.417 590.305 176.15 589.772 176.05C589.239 175.917 588.539 175.85 587.672 175.85C586.705 175.85 585.922 175.983 585.322 176.25C584.755 176.483 584.322 176.867 584.022 177.4C583.755 177.933 583.572 178.65 583.472 179.55C583.372 180.45 583.322 181.533 583.322 182.8V196H576.722ZM629.675 196.4C628.642 196.4 627.525 196.367 626.325 196.3C625.159 196.233 624.009 196.15 622.875 196.05C621.742 195.95 620.709 195.833 619.775 195.7V190.7C620.275 190.733 620.859 190.783 621.525 190.85C622.225 190.883 622.975 190.917 623.775 190.95C624.575 190.983 625.359 191.017 626.125 191.05C626.892 191.083 627.609 191.1 628.275 191.1C629.809 191.1 630.909 191.033 631.575 190.9C632.275 190.733 632.725 190.467 632.925 190.1C633.125 189.7 633.225 189.183 633.225 188.55C633.225 187.883 633.159 187.4 633.025 187.1C632.892 186.767 632.642 186.55 632.275 186.45C631.909 186.35 631.309 186.25 630.475 186.15L624.525 185.4C622.959 185.2 621.775 184.783 620.975 184.15C620.209 183.517 619.675 182.667 619.375 181.6C619.109 180.533 618.975 179.267 618.975 177.8C618.975 176.067 619.225 174.7 619.725 173.7C620.259 172.667 620.975 171.9 621.875 171.4C622.809 170.867 623.909 170.517 625.175 170.35C626.475 170.183 627.875 170.1 629.375 170.1C630.375 170.1 631.409 170.133 632.475 170.2C633.542 170.267 634.559 170.367 635.525 170.5C636.525 170.6 637.359 170.733 638.025 170.9V175.85C637.259 175.75 636.409 175.683 635.475 175.65C634.542 175.583 633.625 175.533 632.725 175.5C631.825 175.433 631.025 175.4 630.325 175.4C629.059 175.4 628.042 175.45 627.275 175.55C626.542 175.617 626.025 175.817 625.725 176.15C625.425 176.483 625.275 177.033 625.275 177.8C625.275 178.4 625.325 178.867 625.425 179.2C625.525 179.5 625.742 179.717 626.075 179.85C626.409 179.95 626.942 180.05 627.675 180.15L634.125 180.95C635.292 181.083 636.275 181.35 637.075 181.75C637.875 182.15 638.459 182.85 638.825 183.85C639.225 184.85 639.425 186.367 639.425 188.4C639.425 190.167 639.209 191.583 638.775 192.65C638.342 193.683 637.675 194.483 636.775 195.05C635.909 195.583 634.875 195.933 633.675 196.1C632.509 196.3 631.175 196.4 629.675 196.4Z" fill="white"/>
<rect x="40" y="51" width="112" height="705" rx="50" fill="#D9D9D9"/>
<path d="M96 443.275C76.3 443.275 60.2751 459.302 60.2751 479.001C60.2751 498.7 76.3 514.725 96 514.725C115.699 514.725 131.725 498.7 131.725 479.001C131.725 459.302 115.699 443.275 96 443.275ZM96 509.09C79.408 509.09 65.9101 495.592 65.9101 479.001C65.9101 462.408 79.408 448.91 96 448.91C112.592 448.91 126.09 462.408 126.09 479.001C126.09 495.592 112.592 509.09 96 509.09Z" fill="white"/>
<path d="M90.3508 472C90.3508 469.739 93.6564 469.354 96.5238 469.354C99.2264 469.354 102.919 470.62 106.007 472.221L106.612 465.991C105.068 465.109 101.486 464.061 97.8469 463.842L98.7287 457.502H92.8301L93.7131 463.842C86.1063 464.558 83.625 468.967 83.625 472.661C83.625 481.977 100.988 479.995 100.988 485.725C100.988 487.877 98.95 488.647 95.3658 488.647C90.5158 488.647 86.8762 486.94 85.0033 485.174L84.0652 492.176C85.8309 493.224 89.4119 494.161 93.7131 494.382L92.8301 500.501H98.7287L97.8469 494.326C106.777 493.553 108.375 488.812 108.375 485.671C108.376 474.592 90.3508 477.346 90.3508 472Z" fill="white"/>
<g clip-path="url(#clip0_600_2789)">
<path d="M71.8333 361.167C72.0543 361.167 72.2662 361.08 72.4225 360.923C72.5788 360.767 72.6666 360.555 72.6666 360.334V353.667C72.6666 352.783 72.3154 351.935 71.6903 351.31C71.0652 350.685 70.2173 350.334 69.3333 350.334H62.6666C61.7825 350.334 60.9347 350.685 60.3096 351.31C59.6844 351.935 59.3333 352.783 59.3333 353.667V360.334C59.3333 360.555 59.421 360.767 59.5773 360.923C59.7336 361.08 59.9456 361.167 60.1666 361.167H71.8333Z" fill="white"/>
<path d="M91.8333 361.166C92.0543 361.166 92.2662 361.078 92.4225 360.922C92.5788 360.766 92.6666 360.554 92.6666 360.333V336.999C92.6666 336.115 92.3154 335.267 91.6903 334.642C91.0652 334.017 90.2173 333.666 89.3333 333.666H82.6666C81.7825 333.666 80.9347 334.017 80.3096 334.642C79.6844 335.267 79.3333 336.115 79.3333 336.999V360.333C79.3333 360.554 79.421 360.766 79.5773 360.922C79.7336 361.078 79.9456 361.166 80.1666 361.166H91.8333Z" fill="white"/>
<path d="M111.833 361.167C112.054 361.167 112.266 361.08 112.423 360.923C112.579 360.767 112.667 360.555 112.667 360.334V343.667C112.667 342.783 112.315 341.935 111.69 341.31C111.065 340.685 110.217 340.334 109.333 340.334H102.667C101.783 340.334 100.935 340.685 100.31 341.31C99.6844 341.935 99.3333 342.783 99.3333 343.667V360.334C99.3333 360.555 99.421 360.767 99.5773 360.923C99.7336 361.08 99.9456 361.167 100.167 361.167H111.833Z" fill="white"/>
<path d="M131.833 361.167C132.054 361.167 132.266 361.079 132.423 360.923C132.579 360.766 132.667 360.554 132.667 360.333V320.333C132.667 319.449 132.315 318.601 131.69 317.976C131.065 317.351 130.217 317 129.333 317H122.667C121.783 317 120.935 317.351 120.31 317.976C119.684 318.601 119.333 319.449 119.333 320.333V360.333C119.333 360.554 119.421 360.766 119.577 360.923C119.734 361.079 119.946 361.167 120.167 361.167H131.833Z" fill="white"/>
<path d="M67.6667 337C69.4348 337 71.1305 336.298 72.3807 335.047C73.631 333.797 74.3333 332.102 74.3333 330.333C74.3258 329.654 74.2134 328.979 74 328.333L84.5567 319.533C85.8815 320.263 87.4189 320.509 88.9052 320.229C90.3916 319.949 91.7343 319.161 92.7033 318L101.037 320.78C101.205 322.463 102.007 324.02 103.281 325.134C104.554 326.248 106.203 326.836 107.894 326.779C109.585 326.722 111.191 326.025 112.387 324.828C113.582 323.631 114.278 322.024 114.333 320.333C114.327 319.273 114.062 318.229 113.563 317.293L124.52 304.51C125.803 305.194 127.276 305.439 128.712 305.205C130.147 304.972 131.467 304.275 132.468 303.22C133.469 302.165 134.097 300.81 134.254 299.364C134.412 297.919 134.091 296.461 133.34 295.215C132.59 293.969 131.451 293.004 130.099 292.467C128.747 291.93 127.257 291.852 125.856 292.244C124.455 292.636 123.222 293.476 122.345 294.636C121.468 295.796 120.995 297.212 121 298.667C121.009 299.313 121.113 299.954 121.31 300.57L109.767 314.04C108.518 313.595 107.163 313.546 105.886 313.9C104.609 314.254 103.472 314.993 102.63 316.017L94.2967 313.24C94.2442 312.296 93.9909 311.373 93.5537 310.535C93.1164 309.696 92.5053 308.96 91.761 308.376C91.0168 307.793 90.1566 307.374 89.2379 307.149C88.3191 306.925 87.363 306.898 86.4333 307.072C85.5036 307.246 84.6217 307.617 83.8465 308.159C83.0714 308.701 82.4207 309.402 81.938 310.215C81.4553 311.029 81.1517 311.936 81.0474 312.876C80.9432 313.816 81.0406 314.767 81.3333 315.667L70.7867 324.48C69.8302 323.955 68.758 323.675 67.6667 323.667C65.8986 323.667 64.2029 324.369 62.9526 325.619C61.7024 326.87 61 328.565 61 330.333C61 332.102 61.7024 333.797 62.9526 335.047C64.2029 336.298 65.8986 337 67.6667 337Z" fill="white"/>
<path d="M132.667 365.334H59.3333C58.4536 365.348 57.6137 365.703 56.9915 366.326C56.3694 366.948 56.0137 367.788 56 368.667C56 369.551 56.3512 370.399 56.9763 371.024C57.6014 371.649 58.4493 372.001 59.3333 372.001H132.667C133.551 372.001 134.399 371.649 135.024 371.024C135.649 370.399 136 369.551 136 368.667C135.987 367.787 135.632 366.947 135.009 366.325C134.387 365.702 133.547 365.347 132.667 365.334Z" fill="white"/>
</g>
<path d="M121.219 182.312H101V161.336C101 158.596 98.7656 156.375 96 156.375C93.2344 156.375 91 158.596 91 161.336V182.312H70.7812C68.1406 182.312 66 184.631 66 187.5C66 190.369 68.1406 192.688 70.7812 192.688H91V213.664C91 216.404 93.2344 218.625 96 218.625C98.7656 218.625 101 216.404 101 213.664V192.688H121.219C123.859 192.688 126 190.369 126 187.5C126 184.631 123.859 182.312 121.219 182.312Z" fill="url(#paint1_angular_600_2789)"/>
<defs>
<filter id="filter0_b_600_2789" x="182" y="35" width="817" height="737" filterUnits="userSpaceOnUse" color-interpolation-filters="sRGB">
<feFlood flood-opacity="0" result="BackgroundImageFix"/>
<feGaussianBlur in="BackgroundImageFix" stdDeviation="8"/>
<feComposite in2="SourceAlpha" operator="in" result="effect1_backgroundBlur_600_2789"/>
<feBlend mode="normal" in="SourceGraphic" in2="effect1_backgroundBlur_600_2789" result="shape"/>
</filter>
<filter id="filter1_bi_600_2789" x="474" y="300" width="223" height="223" filterUnits="userSpaceOnUse" color-interpolation-filters="sRGB">
<feFlood flood-opacity="0" result="BackgroundImageFix"/>
<feGaussianBlur in="BackgroundImageFix" stdDeviation="10"/>
<feComposite in2="SourceAlpha" operator="in" result="effect1_backgroundBlur_600_2789"/>
<feBlend mode="normal" in="SourceGraphic" in2="effect1_backgroundBlur_600_2789" result="shape"/>
<feColorMatrix in="SourceAlpha" type="matrix" values="0 0 0 0 0 0 0 0 0 0 0 0 0 0 0 0 0 0 127 0" result="hardAlpha"/>
<feOffset dx="6" dy="4"/>
<feGaussianBlur stdDeviation="2"/>
<feComposite in2="hardAlpha" operator="arithmetic" k2="-1" k3="1"/>
<feColorMatrix type="matrix" values="0 0 0 0 0 0 0 0 0 0 0 0 0 0 0 0 0 0 0.25 0"/>
<feBlend mode="normal" in2="shape" result="effect2_innerShadow_600_2789"/>
</filter>
<filter id="filter2_i_600_2789" x="724" y="320" width="187" height="187" filterUnits="userSpaceOnUse" color-interpolation-filters="sRGB">
<feFlood flood-opacity="0" result="BackgroundImageFix"/>
<feBlend mode="normal" in="SourceGraphic" in2="BackgroundImageFix" result="shape"/>
<feColorMatrix in="SourceAlpha" type="matrix" values="0 0 0 0 0 0 0 0 0 0 0 0 0 0 0 0 0 0 127 0" result="hardAlpha"/>
<feOffset dx="6" dy="4"/>
<feGaussianBlur stdDeviation="2"/>
<feComposite in2="hardAlpha" operator="arithmetic" k2="-1" k3="1"/>
<feColorMatrix type="matrix" values="0 0 0 0 0 0 0 0 0 0 0 0 0 0 0 0 0 0 0.25 0"/>
<feBlend mode="normal" in2="shape" result="effect1_innerShadow_600_2789"/>
</filter>
<filter id="filter3_b_600_2789" x="704" y="300" width="223" height="223" filterUnits="userSpaceOnUse" color-interpolation-filters="sRGB">
<feFlood flood-opacity="0" result="BackgroundImageFix"/>
<feGaussianBlur in="BackgroundImageFix" stdDeviation="10"/>
<feComposite in2="SourceAlpha" operator="in" result="effect1_backgroundBlur_600_2789"/>
<feBlend mode="normal" in="SourceGraphic" in2="effect1_backgroundBlur_600_2789" result="shape"/>
</filter>
<filter id="filter4_i_600_2789" x="274" y="320" width="187" height="187" filterUnits="userSpaceOnUse" color-interpolation-filters="sRGB">
<feFlood flood-opacity="0" result="BackgroundImageFix"/>
<feBlend mode="normal" in="SourceGraphic" in2="BackgroundImageFix" result="shape"/>
<feColorMatrix in="SourceAlpha" type="matrix" values="0 0 0 0 0 0 0 0 0 0 0 0 0 0 0 0 0 0 127 0" result="hardAlpha"/>
<feOffset dx="6" dy="4"/>
<feGaussianBlur stdDeviation="2"/>
<feComposite in2="hardAlpha" operator="arithmetic" k2="-1" k3="1"/>
<feColorMatrix type="matrix" values="0 0 0 0 0 0 0 0 0 0 0 0 0 0 0 0 0 0 0.25 0"/>
<feBlend mode="normal" in2="shape" result="effect1_innerShadow_600_2789"/>
</filter>
<filter id="filter5_b_600_2789" x="259" y="305" width="213" height="213" filterUnits="userSpaceOnUse" color-interpolation-filters="sRGB">
<feFlood flood-opacity="0" result="BackgroundImageFix"/>
<feGaussianBlur in="BackgroundImageFix" stdDeviation="7.5"/>
<feComposite in2="SourceAlpha" operator="in" result="effect1_backgroundBlur_600_2789"/>
<feBlend mode="normal" in="SourceGraphic" in2="effect1_backgroundBlur_600_2789" result="shape"/>
</filter>
<radialGradient id="paint0_angular_600_2789" cx="0" cy="0" r="1" gradientUnits="userSpaceOnUse" gradientTransform="translate(515 400) rotate(90) scale(400 515)">
<stop stop-color="#007581"/>
<stop offset="0.83" stop-color="#5CE1E6"/>
</radialGradient>
<radialGradient id="paint1_angular_600_2789" cx="0" cy="0" r="1" gradientUnits="userSpaceOnUse" gradientTransform="translate(96 187.5) rotate(90) scale(31.125 30)">
<stop stop-color="#007581"/>
<stop offset="0.83" stop-color="#5CE1E6"/>
</radialGradient>
<clipPath id="clip0_600_2789">
<rect width="80" height="80" fill="white" transform="translate(56 292)"/>
</clipPath>
</defs>
</svg>
